<?xml version="1.0" encoding="utf-8" standalone="no"?>
<!DOCTYPE svg PUBLIC "-//W3C//DTD SVG 1.1//EN"
  "http://www.w3.org/Graphics/SVG/1.1/DTD/svg11.dtd">
<!-- Created with matplotlib (https://matplotlib.org/) -->
<svg height="432pt" version="1.1" viewBox="0 0 504 432" width="504pt" xmlns="http://www.w3.org/2000/svg" xmlns:xlink="http://www.w3.org/1999/xlink">
 <metadata>
  <rdf:RDF xmlns:cc="http://creativecommons.org/ns#" xmlns:dc="http://purl.org/dc/elements/1.1/" xmlns:rdf="http://www.w3.org/1999/02/22-rdf-syntax-ns#">
   <cc:Work>
    <dc:type rdf:resource="http://purl.org/dc/dcmitype/StillImage"/>
    <dc:date>2022-10-27T18:02:29.522676</dc:date>
    <dc:format>image/svg+xml</dc:format>
    <dc:creator>
     <cc:Agent>
      <dc:title>Matplotlib v3.3.4, https://matplotlib.org/</dc:title>
     </cc:Agent>
    </dc:creator>
   </cc:Work>
  </rdf:RDF>
 </metadata>
 <defs>
  <style type="text/css">*{stroke-linecap:butt;stroke-linejoin:round;}</style>
 </defs>
 <g id="figure_1">
  <g id="patch_1">
   <path d="M 0 432 
L 504 432 
L 504 0 
L 0 0 
z
" style="fill:#ffffff;"/>
  </g>
  <g id="axes_1">
   <g id="patch_2">
    <path d="M 33.64 366.5095 
L 493.2 366.5095 
L 493.2 26.88 
L 33.64 26.88 
z
" style="fill:#ffffff;"/>
   </g>
   <g id="PolyCollection_1">
    <defs>
     <path d="M 54.529091 -389.682295 
L 54.529091 -389.682295 
L 55.083086 -389.682295 
L 55.083086 -362.03436 
L 55.152336 -362.03436 
L 55.152336 -358.521923 
L 55.290835 -358.521923 
L 55.290835 -353.513159 
L 55.360084 -353.513159 
L 55.360084 -348.341226 
L 55.567832 -348.341226 
L 55.567832 -343.198523 
L 55.775581 -343.198523 
L 55.775581 -338.125636 
L 55.91408 -338.125636 
L 55.91408 -333.129011 
L 55.983329 -333.129011 
L 55.983329 -328.205868 
L 56.052578 -328.205868 
L 56.052578 -323.351027 
L 56.398826 -323.351027 
L 56.398826 -318.559023 
L 56.952821 -318.559023 
L 56.952821 -313.824779 
L 57.02207 -313.824779 
L 57.02207 -304.512053 
L 57.09132 -304.512053 
L 57.09132 -299.926176 
L 57.783814 -299.926176 
L 57.783814 -295.383151 
L 58.060812 -295.383151 
L 58.060812 -290.88037 
L 58.822556 -290.88037 
L 58.822556 -286.415558 
L 59.861297 -286.415558 
L 59.861297 -286.415558 
L 60.138295 -286.415558 
L 60.138295 -277.40033 
L 60.276794 -277.40033 
L 60.276794 -272.947521 
L 60.553791 -272.947521 
L 60.553791 -268.528887 
L 60.623041 -268.528887 
L 60.623041 -264.142941 
L 60.830789 -264.142941 
L 60.830789 -259.788377 
L 60.969288 -259.788377 
L 60.969288 -255.464049 
L 61.246286 -255.464049 
L 61.246286 -251.168946 
L 61.523283 -251.168946 
L 61.523283 -246.902181 
L 62.215778 -246.902181 
L 62.215778 -242.662972 
L 63.323769 -242.662972 
L 63.323769 -238.450631 
L 63.739265 -238.450631 
L 63.739265 -234.264556 
L 63.947014 -234.264556 
L 63.947014 -230.104222 
L 64.570258 -230.104222 
L 64.570258 -225.969176 
L 64.778007 -225.969176 
L 64.778007 -221.859028 
L 64.916506 -221.859028 
L 64.916506 -217.77345 
L 65.055004 -217.77345 
L 65.055004 -209.674965 
L 65.193503 -209.674965 
L 65.193503 -205.661673 
L 65.678249 -205.661673 
L 65.678249 -201.672174 
L 66.647741 -201.672174 
L 66.647741 -197.706398 
L 68.932973 -197.706398 
L 68.932973 -193.76432 
L 69.763966 -193.76432 
L 69.763966 -189.845966 
L 70.733458 -189.845966 
L 70.733458 -185.951405 
L 70.802707 -185.951405 
L 70.802707 -182.080756 
L 70.871957 -182.080756 
L 70.871957 -178.234184 
L 71.010456 -178.234184 
L 71.010456 -174.411907 
L 71.218204 -174.411907 
L 71.218204 -166.841365 
L 71.979948 -166.841365 
L 71.979948 -163.093806 
L 72.187696 -163.093806 
L 72.187696 -159.371959 
L 73.018689 -159.371959 
L 73.018689 -155.676334 
L 74.195929 -155.676334 
L 74.195929 -152.007516 
L 75.442419 -152.007516 
L 75.442419 -148.366169 
L 75.788666 -148.366169 
L 75.788666 -144.753044 
L 75.996415 -144.753044 
L 75.996415 -141.168993 
L 77.242904 -141.168993 
L 77.242904 -137.614974 
L 78.143147 -137.614974 
L 78.143147 -134.092075 
L 79.320387 -134.092075 
L 79.320387 -130.601522 
L 79.735884 -130.601522 
L 79.735884 -127.144706 
L 82.021115 -127.144706 
L 82.021115 -123.723206 
L 84.029349 -123.723206 
L 84.029349 -120.338823 
L 89.777051 -120.338823 
L 89.777051 -116.993617 
L 98.779477 -116.993617 
L 98.779477 -113.689961 
L 99.194974 -113.689961 
L 99.194974 -110.430597 
L 101.618704 -110.430597 
L 101.618704 -107.218728 
L 110.274883 -107.218728 
L 110.274883 -104.058117 
L 111.86762 -104.058117 
L 111.86762 -100.953234 
L 131.118962 -100.953234 
L 131.118962 -97.909448 
L 137.351411 -97.909448 
L 137.351411 -94.9333 
L 151.201297 -94.9333 
L 151.201297 -92.032884 
L 204.800357 -92.032884 
L 204.800357 -89.21842 
L 206.254595 -89.21842 
L 206.254595 -89.21842 
L 209.024572 -89.21842 
L 209.024572 -85.993157 
L 248.704496 -85.993157 
L 248.704496 -85.993157 
L 333.535049 -85.993157 
L 333.535049 -85.993157 
L 347.800432 -85.993157 
L 347.800432 -80.928205 
L 376.746694 -80.928205 
L 376.746694 -80.928205 
L 380.693912 -80.928205 
L 380.693912 -80.928205 
L 445.926876 -80.928205 
L 445.926876 -80.928205 
L 445.926876 -119.914096 
L 445.926876 -119.914096 
L 445.926876 -119.914096 
L 380.693912 -119.914096 
L 380.693912 -119.914096 
L 376.746694 -119.914096 
L 376.746694 -119.914096 
L 347.800432 -119.914096 
L 347.800432 -126.519188 
L 333.535049 -126.519188 
L 333.535049 -126.519188 
L 248.704496 -126.519188 
L 248.704496 -126.519188 
L 209.024572 -126.519188 
L 209.024572 -132.014038 
L 206.254595 -132.014038 
L 206.254595 -132.014038 
L 204.800357 -132.014038 
L 204.800357 -137.000976 
L 151.201297 -137.000976 
L 151.201297 -141.912687 
L 137.351411 -141.912687 
L 137.351411 -146.757681 
L 131.118962 -146.757681 
L 131.118962 -151.542767 
L 111.86762 -151.542767 
L 111.86762 -156.273485 
L 110.274883 -156.273485 
L 110.274883 -160.954411 
L 101.618704 -160.954411 
L 101.618704 -165.589369 
L 99.194974 -165.589369 
L 99.194974 -170.181587 
L 98.779477 -170.181587 
L 98.779477 -174.733819 
L 89.777051 -174.733819 
L 89.777051 -179.248428 
L 84.029349 -179.248428 
L 84.029349 -183.727461 
L 82.021115 -183.727461 
L 82.021115 -188.172694 
L 79.735884 -188.172694 
L 79.735884 -192.585682 
L 79.320387 -192.585682 
L 79.320387 -196.967787 
L 78.143147 -196.967787 
L 78.143147 -201.320207 
L 77.242904 -201.320207 
L 77.242904 -205.643998 
L 75.996415 -205.643998 
L 75.996415 -209.940094 
L 75.788666 -209.940094 
L 75.788666 -214.209316 
L 75.442419 -214.209316 
L 75.442419 -218.452391 
L 74.195929 -218.452391 
L 74.195929 -222.669958 
L 73.018689 -222.669958 
L 73.018689 -226.862579 
L 72.187696 -226.862579 
L 72.187696 -231.030743 
L 71.979948 -231.030743 
L 71.979948 -235.174876 
L 71.218204 -235.174876 
L 71.218204 -243.392452 
L 71.010456 -243.392452 
L 71.010456 -247.466461 
L 70.871957 -247.466461 
L 70.871957 -251.517575 
L 70.802707 -251.517575 
L 70.802707 -255.545956 
L 70.733458 -255.545956 
L 70.733458 -259.551715 
L 69.763966 -259.551715 
L 69.763966 -263.534923 
L 68.932973 -263.534923 
L 68.932973 -267.495602 
L 66.647741 -267.495602 
L 66.647741 -271.433735 
L 65.678249 -271.433735 
L 65.678249 -275.349259 
L 65.193503 -275.349259 
L 65.193503 -279.242067 
L 65.055004 -279.242067 
L 65.055004 -286.958876 
L 64.916506 -286.958876 
L 64.916506 -290.782431 
L 64.778007 -290.782431 
L 64.778007 -294.582371 
L 64.570258 -294.582371 
L 64.570258 -298.358342 
L 63.947014 -298.358342 
L 63.947014 -302.109933 
L 63.739265 -302.109933 
L 63.739265 -305.836669 
L 63.323769 -305.836669 
L 63.323769 -309.538008 
L 62.215778 -309.538008 
L 62.215778 -313.213332 
L 61.523283 -313.213332 
L 61.523283 -316.861942 
L 61.246286 -316.861942 
L 61.246286 -320.483046 
L 60.969288 -320.483046 
L 60.969288 -324.075749 
L 60.830789 -324.075749 
L 60.830789 -327.639039 
L 60.623041 -327.639039 
L 60.623041 -331.171774 
L 60.553791 -331.171774 
L 60.553791 -334.672654 
L 60.276794 -334.672654 
L 60.276794 -338.140208 
L 60.138295 -338.140208 
L 60.138295 -344.96837 
L 59.861297 -344.96837 
L 59.861297 -344.96837 
L 58.822556 -344.96837 
L 58.822556 -348.28276 
L 58.060812 -348.28276 
L 58.060812 -351.557368 
L 57.783814 -351.557368 
L 57.783814 -354.78939 
L 57.09132 -354.78939 
L 57.09132 -357.975536 
L 57.02207 -357.975536 
L 57.02207 -364.193816 
L 56.952821 -364.193816 
L 56.952821 -367.21558 
L 56.398826 -367.21558 
L 56.398826 -370.170165 
L 56.052578 -370.170165 
L 56.052578 -373.048714 
L 55.983329 -373.048714 
L 55.983329 -375.839792 
L 55.91408 -375.839792 
L 55.91408 -378.528199 
L 55.775581 -378.528199 
L 55.775581 -381.092936 
L 55.567832 -381.092936 
L 55.567832 -383.503491 
L 55.360084 -383.503491 
L 55.360084 -385.712306 
L 55.290835 -385.712306 
L 55.290835 -387.637089 
L 55.152336 -387.637089 
L 55.152336 -389.108717 
L 55.083086 -389.108717 
L 55.083086 -389.682295 
L 54.529091 -389.682295 
z
" id="mdf64993817" style="stroke:#ff0000;stroke-opacity:0.25;"/>
    </defs>
    <g clip-path="url(#pbf3623b746)">
     <use style="fill:#ff0000;fill-opacity:0.25;stroke:#ff0000;stroke-opacity:0.25;" x="0" xlink:href="#mdf64993817" y="432"/>
    </g>
   </g>
   <g id="PolyCollection_2">
    <defs>
     <path d="M 54.529091 -389.682295 
L 54.529091 -389.682295 
L 55.360084 -389.682295 
L 55.360084 -343.103908 
L 56.329576 -343.103908 
L 56.329576 -337.176725 
L 61.731032 -337.176725 
L 61.731032 -328.840805 
L 64.085512 -328.840805 
L 64.085512 -320.278189 
L 75.580918 -320.278189 
L 75.580918 -311.801048 
L 76.827408 -311.801048 
L 76.827408 -303.473082 
L 82.090365 -303.473082 
L 82.090365 -295.302752 
L 86.31458 -295.302752 
L 86.31458 -287.283993 
L 88.045816 -287.283993 
L 88.045816 -279.407271 
L 89.084557 -279.407271 
L 89.084557 -271.662952 
L 100.233715 -271.662952 
L 100.233715 -264.042314 
L 106.812411 -264.042314 
L 106.812411 -256.537792 
L 114.152851 -256.537792 
L 114.152851 -249.142944 
L 118.654064 -249.142944 
L 118.654064 -241.852353 
L 179.108818 -241.852353 
L 179.108818 -234.661496 
L 182.709788 -234.661496 
L 182.709788 -234.661496 
L 184.579523 -234.661496 
L 184.579523 -234.661496 
L 187.834246 -234.661496 
L 187.834246 -234.661496 
L 193.651198 -234.661496 
L 193.651198 -234.661496 
L 208.678325 -234.661496 
L 208.678325 -234.661496 
L 218.026998 -234.661496 
L 218.026998 -225.555767 
L 218.373245 -225.555767 
L 218.373245 -225.555767 
L 224.259447 -225.555767 
L 224.259447 -225.555767 
L 226.26768 -225.555767 
L 226.26768 -225.555767 
L 232.153882 -225.555767 
L 232.153882 -225.555767 
L 245.519022 -225.555767 
L 245.519022 -225.555767 
L 253.759704 -225.555767 
L 253.759704 -225.555767 
L 263.177627 -225.555767 
L 263.177627 -225.555767 
L 284.160205 -225.555767 
L 284.160205 -225.555767 
L 289.838658 -225.555767 
L 289.838658 -225.555767 
L 316.638188 -225.555767 
L 316.638188 -225.555767 
L 322.039643 -225.555767 
L 322.039643 -225.555767 
L 338.31326 -225.555767 
L 338.31326 -225.555767 
L 344.060963 -225.555767 
L 344.060963 -225.555767 
L 357.910849 -225.555767 
L 357.910849 -225.555767 
L 370.652744 -225.555767 
L 370.652744 -225.555767 
L 383.256141 -225.555767 
L 383.256141 -225.555767 
L 389.904086 -225.555767 
L 389.904086 -225.555767 
L 391.566072 -225.555767 
L 391.566072 -225.555767 
L 398.491015 -225.555767 
L 398.491015 -225.555767 
L 408.393684 -225.555767 
L 408.393684 -225.555767 
L 425.221296 -225.555767 
L 425.221296 -225.555767 
L 432.907983 -225.555767 
L 432.907983 -225.555767 
L 441.356413 -225.555767 
L 441.356413 -225.555767 
L 458.184025 -225.555767 
L 458.184025 -225.555767 
L 458.184025 -314.545605 
L 458.184025 -314.545605 
L 458.184025 -314.545605 
L 441.356413 -314.545605 
L 441.356413 -314.545605 
L 432.907983 -314.545605 
L 432.907983 -314.545605 
L 425.221296 -314.545605 
L 425.221296 -314.545605 
L 408.393684 -314.545605 
L 408.393684 -314.545605 
L 398.491015 -314.545605 
L 398.491015 -314.545605 
L 391.566072 -314.545605 
L 391.566072 -314.545605 
L 389.904086 -314.545605 
L 389.904086 -314.545605 
L 383.256141 -314.545605 
L 383.256141 -314.545605 
L 370.652744 -314.545605 
L 370.652744 -314.545605 
L 357.910849 -314.545605 
L 357.910849 -314.545605 
L 344.060963 -314.545605 
L 344.060963 -314.545605 
L 338.31326 -314.545605 
L 338.31326 -314.545605 
L 322.039643 -314.545605 
L 322.039643 -314.545605 
L 316.638188 -314.545605 
L 316.638188 -314.545605 
L 289.838658 -314.545605 
L 289.838658 -314.545605 
L 284.160205 -314.545605 
L 284.160205 -314.545605 
L 263.177627 -314.545605 
L 263.177627 -314.545605 
L 253.759704 -314.545605 
L 253.759704 -314.545605 
L 245.519022 -314.545605 
L 245.519022 -314.545605 
L 232.153882 -314.545605 
L 232.153882 -314.545605 
L 226.26768 -314.545605 
L 226.26768 -314.545605 
L 224.259447 -314.545605 
L 224.259447 -314.545605 
L 218.373245 -314.545605 
L 218.373245 -314.545605 
L 218.026998 -314.545605 
L 218.026998 -321.395975 
L 208.678325 -321.395975 
L 208.678325 -321.395975 
L 193.651198 -321.395975 
L 193.651198 -321.395975 
L 187.834246 -321.395975 
L 187.834246 -321.395975 
L 184.579523 -321.395975 
L 184.579523 -321.395975 
L 182.709788 -321.395975 
L 182.709788 -321.395975 
L 179.108818 -321.395975 
L 179.108818 -327.294149 
L 118.654064 -327.294149 
L 118.654064 -333.09001 
L 114.152851 -333.09001 
L 114.152851 -338.777394 
L 106.812411 -338.777394 
L 106.812411 -344.348697 
L 100.233715 -344.348697 
L 100.233715 -349.794479 
L 89.084557 -349.794479 
L 89.084557 -355.102886 
L 88.045816 -355.102886 
L 88.045816 -360.258813 
L 86.31458 -360.258813 
L 86.31458 -365.242598 
L 82.090365 -365.242598 
L 82.090365 -370.027954 
L 76.827408 -370.027954 
L 76.827408 -374.578448 
L 75.580918 -374.578448 
L 75.580918 -378.841053 
L 64.085512 -378.841053 
L 64.085512 -382.733108 
L 61.731032 -382.733108 
L 61.731032 -386.111754 
L 56.329576 -386.111754 
L 56.329576 -388.684039 
L 55.360084 -388.684039 
L 55.360084 -389.682295 
L 54.529091 -389.682295 
z
" id="m12ad699740" style="stroke:#0000ff;stroke-opacity:0.25;"/>
    </defs>
    <g clip-path="url(#pbf3623b746)">
     <use style="fill:#0000ff;fill-opacity:0.25;stroke:#0000ff;stroke-opacity:0.25;" x="0" xlink:href="#m12ad699740" y="432"/>
    </g>
   </g>
   <g id="PolyCollection_3">
    <defs>
     <path d="M 54.529091 -389.682295 
L 54.529091 -389.682295 
L 55.360084 -389.682295 
L 55.360084 -375.651675 
L 55.429334 -375.651675 
L 55.429334 -373.3768 
L 55.498583 -373.3768 
L 55.498583 -371.019218 
L 56.052578 -371.019218 
L 56.052578 -364.046728 
L 56.191077 -364.046728 
L 56.191077 -361.779048 
L 56.398826 -361.779048 
L 56.398826 -359.537672 
L 56.537324 -359.537672 
L 56.537324 -357.320332 
L 56.606574 -357.320332 
L 56.606574 -355.124883 
L 56.883572 -355.124883 
L 56.883572 -352.9494 
L 57.02207 -352.9494 
L 57.02207 -350.792187 
L 58.33781 -350.792187 
L 58.33781 -348.65176 
L 59.030304 -348.65176 
L 59.030304 -346.52682 
L 59.307302 -346.52682 
L 59.307302 -344.416229 
L 59.51505 -344.416229 
L 59.51505 -342.318983 
L 59.584299 -342.318983 
L 59.584299 -340.2342 
L 59.722798 -340.2342 
L 59.722798 -336.098962 
L 59.861297 -336.098962 
L 59.861297 -334.047183 
L 60.415293 -334.047183 
L 60.415293 -332.005193 
L 61.592533 -332.005193 
L 61.592533 -327.948597 
L 62.008029 -327.948597 
L 62.008029 -325.933116 
L 62.146528 -325.933116 
L 62.146528 -323.92566 
L 62.215778 -323.92566 
L 62.215778 -321.925882 
L 62.285027 -321.925882 
L 62.285027 -319.933464 
L 62.839023 -319.933464 
L 62.839023 -317.948113 
L 63.046771 -317.948113 
L 63.046771 -315.96956 
L 63.462268 -315.96956 
L 63.462268 -313.997557 
L 63.877764 -313.997557 
L 63.877764 -310.072296 
L 64.016263 -310.072296 
L 64.016263 -308.118626 
L 64.43176 -308.118626 
L 64.43176 -306.170679 
L 64.708757 -306.170679 
L 64.708757 -304.228283 
L 64.778007 -304.228283 
L 64.778007 -302.291278 
L 64.916506 -302.291278 
L 64.916506 -300.359513 
L 65.470501 -300.359513 
L 65.470501 -298.432849 
L 65.816748 -298.432849 
L 65.816748 -296.511152 
L 65.955247 -296.511152 
L 65.955247 -294.594301 
L 66.093746 -294.594301 
L 66.093746 -292.682178 
L 66.162995 -292.682178 
L 66.162995 -290.774673 
L 66.439993 -290.774673 
L 66.439993 -288.871685 
L 66.716991 -288.871685 
L 66.716991 -286.973117 
L 67.409485 -286.973117 
L 67.409485 -285.078875 
L 67.617233 -285.078875 
L 67.617233 -283.188876 
L 68.309728 -283.188876 
L 68.309728 -279.421279 
L 68.863723 -279.421279 
L 68.863723 -277.543532 
L 68.932973 -277.543532 
L 68.932973 -273.799796 
L 69.071471 -273.799796 
L 69.071471 -271.93368 
L 69.27922 -271.93368 
L 69.27922 -268.21266 
L 69.833215 -268.21266 
L 69.833215 -266.357649 
L 70.941206 -266.357649 
L 70.941206 -264.506235 
L 71.010456 -264.506235 
L 71.010456 -262.658374 
L 71.356703 -262.658374 
L 71.356703 -260.814019 
L 71.495202 -260.814019 
L 71.495202 -258.973129 
L 71.772199 -258.973129 
L 71.772199 -257.135664 
L 71.910698 -257.135664 
L 71.910698 -255.301587 
L 72.049197 -255.301587 
L 72.049197 -253.470861 
L 72.741691 -253.470861 
L 72.741691 -251.643453 
L 72.810941 -251.643453 
L 72.810941 -249.819332 
L 73.572684 -249.819332 
L 73.572684 -247.998467 
L 74.334428 -247.998467 
L 74.334428 -246.18083 
L 74.680675 -246.18083 
L 74.680675 -244.366395 
L 75.026923 -244.366395 
L 75.026923 -240.747031 
L 75.096172 -240.747031 
L 75.096172 -238.942058 
L 75.30392 -238.942058 
L 75.30392 -235.341425 
L 75.442419 -235.341425 
L 75.442419 -233.54573 
L 75.996415 -233.54573 
L 75.996415 -229.9635 
L 76.55041 -229.9635 
L 76.55041 -224.612853 
L 76.758158 -224.612853 
L 76.758158 -222.83531 
L 77.242904 -222.83531 
L 77.242904 -221.060756 
L 77.935399 -221.060756 
L 77.935399 -219.289181 
L 79.251138 -219.289181 
L 79.251138 -217.520581 
L 79.528136 -217.520581 
L 79.528136 -215.754949 
L 80.082131 -215.754949 
L 80.082131 -213.992281 
L 80.22063 -213.992281 
L 80.22063 -212.232574 
L 81.813367 -212.232574 
L 81.813367 -210.475827 
L 82.228863 -210.475827 
L 82.228863 -208.722039 
L 82.436612 -208.722039 
L 82.436612 -206.971209 
L 84.514095 -206.971209 
L 84.514095 -205.22334 
L 85.137339 -205.22334 
L 85.137339 -203.478433 
L 85.206589 -203.478433 
L 85.206589 -201.736493 
L 85.414337 -201.736493 
L 85.414337 -199.997523 
L 85.552836 -199.997523 
L 85.552836 -198.261531 
L 88.045816 -198.261531 
L 88.045816 -196.528523 
L 88.322813 -196.528523 
L 88.322813 -194.798507 
L 88.392063 -194.798507 
L 88.392063 -193.071493 
L 88.599811 -193.071493 
L 88.599811 -189.626512 
L 88.66906 -189.626512 
L 88.66906 -187.90857 
L 90.469546 -187.90857 
L 90.469546 -186.193679 
L 90.538795 -186.193679 
L 90.538795 -184.481855 
L 91.508287 -184.481855 
L 91.508287 -182.773114 
L 95.386255 -182.773114 
L 95.386255 -182.773114 
L 95.524754 -182.773114 
L 95.524754 -181.040459 
L 96.217248 -181.040459 
L 96.217248 -179.31112 
L 101.687954 -179.31112 
L 101.687954 -177.585118 
L 101.826452 -177.585118 
L 101.826452 -175.862473 
L 103.488439 -175.862473 
L 103.488439 -174.14321 
L 104.52718 -174.14321 
L 104.52718 -172.427353 
L 108.128151 -172.427353 
L 108.128151 -170.71493 
L 110.69038 -170.71493 
L 110.69038 -169.005969 
L 112.629364 -169.005969 
L 112.629364 -167.300502 
L 112.767863 -167.300502 
L 112.767863 -165.59856 
L 113.183359 -165.59856 
L 113.183359 -163.900178 
L 116.645831 -163.900178 
L 116.645831 -162.205394 
L 121.008545 -162.205394 
L 121.008545 -160.514247 
L 122.462783 -160.514247 
L 122.462783 -158.826778 
L 129.803223 -158.826778 
L 129.803223 -157.143031 
L 130.772715 -157.143031 
L 130.772715 -155.463052 
L 138.5979 -155.463052 
L 138.5979 -153.786892 
L 150.231805 -153.786892 
L 150.231805 -152.114601 
L 156.118006 -152.114601 
L 156.118006 -150.446235 
L 162.9737 -150.446235 
L 162.9737 -148.781852 
L 165.743677 -148.781852 
L 165.743677 -147.121514 
L 168.305906 -147.121514 
L 168.305906 -145.465286 
L 181.463298 -145.465286 
L 181.463298 -143.813236 
L 187.3495 -143.813236 
L 187.3495 -143.813236 
L 187.557248 -143.813236 
L 187.557248 -142.126177 
L 189.703981 -142.126177 
L 189.703981 -142.126177 
L 191.850713 -142.126177 
L 191.850713 -142.126177 
L 198.221661 -142.126177 
L 198.221661 -140.357923 
L 198.983404 -140.357923 
L 198.983404 -140.357923 
L 207.362585 -140.357923 
L 207.362585 -138.548261 
L 208.262828 -138.548261 
L 208.262828 -138.548261 
L 209.509318 -138.548261 
L 209.509318 -136.694314 
L 215.257021 -136.694314 
L 215.257021 -134.84761 
L 218.165497 -134.84761 
L 218.165497 -133.008276 
L 224.259447 -133.008276 
L 224.259447 -133.008276 
L 227.444921 -133.008276 
L 227.444921 -133.008276 
L 235.685603 -133.008276 
L 235.685603 -133.008276 
L 237.001342 -133.008276 
L 237.001342 -133.008276 
L 237.901585 -133.008276 
L 237.901585 -133.008276 
L 241.156308 -133.008276 
L 241.156308 -133.008276 
L 249.46624 -133.008276 
L 249.46624 -130.771742 
L 252.859462 -130.771742 
L 252.859462 -130.771742 
L 258.122419 -130.771742 
L 258.122419 -128.463484 
L 261.377142 -128.463484 
L 261.377142 -128.463484 
L 265.878355 -128.463484 
L 265.878355 -126.076445 
L 266.43235 -126.076445 
L 266.43235 -126.076445 
L 269.133078 -126.076445 
L 269.133078 -126.076445 
L 270.10257 -126.076445 
L 270.10257 -126.076445 
L 280.420735 -126.076445 
L 280.420735 -126.076445 
L 280.697733 -126.076445 
L 280.697733 -126.076445 
L 295.586361 -126.076445 
L 295.586361 -126.076445 
L 302.234306 -126.076445 
L 302.234306 -126.076445 
L 322.385891 -126.076445 
L 322.385891 -126.076445 
L 330.626573 -126.076445 
L 330.626573 -126.076445 
L 330.765072 -126.076445 
L 330.765072 -126.076445 
L 333.673548 -126.076445 
L 333.673548 -126.076445 
L 333.812047 -126.076445 
L 333.812047 -126.076445 
L 333.881296 -126.076445 
L 333.881296 -126.076445 
L 351.609151 -126.076445 
L 351.609151 -126.076445 
L 356.52586 -126.076445 
L 356.52586 -126.076445 
L 359.503586 -126.076445 
L 359.503586 -126.076445 
L 374.738461 -126.076445 
L 374.738461 -126.076445 
L 377.716186 -126.076445 
L 377.716186 -117.217756 
L 388.726846 -117.217756 
L 388.726846 -117.217756 
L 392.604814 -117.217756 
L 392.604814 -117.217756 
L 393.505056 -117.217756 
L 393.505056 -117.217756 
L 405.069711 -117.217756 
L 405.069711 -117.217756 
L 455.483297 -117.217756 
L 455.483297 -117.217756 
L 459.499764 -117.217756 
L 459.499764 -117.217756 
L 463.931728 -117.217756 
L 463.931728 -117.217756 
L 464.347225 -117.217756 
L 464.347225 -117.217756 
L 472.310909 -117.217756 
L 472.310909 -117.217756 
L 472.310909 -161.611454 
L 472.310909 -161.611454 
L 472.310909 -161.611454 
L 464.347225 -161.611454 
L 464.347225 -161.611454 
L 463.931728 -161.611454 
L 463.931728 -161.611454 
L 459.499764 -161.611454 
L 459.499764 -161.611454 
L 455.483297 -161.611454 
L 455.483297 -161.611454 
L 405.069711 -161.611454 
L 405.069711 -161.611454 
L 393.505056 -161.611454 
L 393.505056 -161.611454 
L 392.604814 -161.611454 
L 392.604814 -161.611454 
L 388.726846 -161.611454 
L 388.726846 -161.611454 
L 377.716186 -161.611454 
L 377.716186 -165.959142 
L 374.738461 -165.959142 
L 374.738461 -165.959142 
L 359.503586 -165.959142 
L 359.503586 -165.959142 
L 356.52586 -165.959142 
L 356.52586 -165.959142 
L 351.609151 -165.959142 
L 351.609151 -165.959142 
L 333.881296 -165.959142 
L 333.881296 -165.959142 
L 333.812047 -165.959142 
L 333.812047 -165.959142 
L 333.673548 -165.959142 
L 333.673548 -165.959142 
L 330.765072 -165.959142 
L 330.765072 -165.959142 
L 330.626573 -165.959142 
L 330.626573 -165.959142 
L 322.385891 -165.959142 
L 322.385891 -165.959142 
L 302.234306 -165.959142 
L 302.234306 -165.959142 
L 295.586361 -165.959142 
L 295.586361 -165.959142 
L 280.697733 -165.959142 
L 280.697733 -165.959142 
L 280.420735 -165.959142 
L 280.420735 -165.959142 
L 270.10257 -165.959142 
L 270.10257 -165.959142 
L 269.133078 -165.959142 
L 269.133078 -165.959142 
L 266.43235 -165.959142 
L 266.43235 -165.959142 
L 265.878355 -165.959142 
L 265.878355 -168.526588 
L 261.377142 -168.526588 
L 261.377142 -168.526588 
L 258.122419 -168.526588 
L 258.122419 -171.014181 
L 252.859462 -171.014181 
L 252.859462 -171.014181 
L 249.46624 -171.014181 
L 249.46624 -173.429016 
L 241.156308 -173.429016 
L 241.156308 -173.429016 
L 237.901585 -173.429016 
L 237.901585 -173.429016 
L 237.001342 -173.429016 
L 237.001342 -173.429016 
L 235.685603 -173.429016 
L 235.685603 -173.429016 
L 227.444921 -173.429016 
L 227.444921 -173.429016 
L 224.259447 -173.429016 
L 224.259447 -173.429016 
L 218.165497 -173.429016 
L 218.165497 -175.537048 
L 215.257021 -175.537048 
L 215.257021 -177.638566 
L 209.509318 -177.638566 
L 209.509318 -179.73369 
L 208.262828 -179.73369 
L 208.262828 -179.73369 
L 207.362585 -179.73369 
L 207.362585 -181.78303 
L 198.983404 -181.78303 
L 198.983404 -181.78303 
L 198.221661 -181.78303 
L 198.221661 -183.789496 
L 191.850713 -183.789496 
L 191.850713 -183.789496 
L 189.703981 -183.789496 
L 189.703981 -183.789496 
L 187.557248 -183.789496 
L 187.557248 -185.721702 
L 187.3495 -185.721702 
L 187.3495 -185.721702 
L 181.463298 -185.721702 
L 181.463298 -187.617409 
L 168.305906 -187.617409 
L 168.305906 -189.509196 
L 165.743677 -189.509196 
L 165.743677 -191.397125 
L 162.9737 -191.397125 
L 162.9737 -193.281255 
L 156.118006 -193.281255 
L 156.118006 -195.161643 
L 150.231805 -195.161643 
L 150.231805 -197.03834 
L 138.5979 -197.03834 
L 138.5979 -198.911398 
L 130.772715 -198.911398 
L 130.772715 -200.780863 
L 129.803223 -200.780863 
L 129.803223 -202.646779 
L 122.462783 -202.646779 
L 122.462783 -204.50919 
L 121.008545 -204.50919 
L 121.008545 -206.368135 
L 116.645831 -206.368135 
L 116.645831 -208.223651 
L 113.183359 -208.223651 
L 113.183359 -210.075774 
L 112.767863 -210.075774 
L 112.767863 -211.924537 
L 112.629364 -211.924537 
L 112.629364 -213.769973 
L 110.69038 -213.769973 
L 110.69038 -215.61211 
L 108.128151 -215.61211 
L 108.128151 -217.450976 
L 104.52718 -217.450976 
L 104.52718 -219.286598 
L 103.488439 -219.286598 
L 103.488439 -221.119 
L 101.826452 -221.119 
L 101.826452 -222.948205 
L 101.687954 -222.948205 
L 101.687954 -224.774233 
L 96.217248 -224.774233 
L 96.217248 -226.597105 
L 95.524754 -226.597105 
L 95.524754 -228.416839 
L 95.386255 -228.416839 
L 95.386255 -228.416839 
L 91.508287 -228.416839 
L 91.508287 -230.212457 
L 90.538795 -230.212457 
L 90.538795 -232.005116 
L 90.469546 -232.005116 
L 90.469546 -233.794831 
L 88.66906 -233.794831 
L 88.66906 -235.581613 
L 88.599811 -235.581613 
L 88.599811 -239.146428 
L 88.392063 -239.146428 
L 88.392063 -240.92448 
L 88.322813 -240.92448 
L 88.322813 -242.699641 
L 88.045816 -242.699641 
L 88.045816 -244.471916 
L 85.552836 -244.471916 
L 85.552836 -246.241312 
L 85.414337 -246.241312 
L 85.414337 -248.007834 
L 85.206589 -248.007834 
L 85.206589 -249.771485 
L 85.137339 -249.771485 
L 85.137339 -251.532269 
L 84.514095 -251.532269 
L 84.514095 -253.290187 
L 82.436612 -253.290187 
L 82.436612 -255.045239 
L 82.228863 -255.045239 
L 82.228863 -256.797425 
L 81.813367 -256.797425 
L 81.813367 -258.546743 
L 80.22063 -258.546743 
L 80.22063 -260.293191 
L 80.082131 -260.293191 
L 80.082131 -262.036765 
L 79.528136 -262.036765 
L 79.528136 -263.77746 
L 79.251138 -263.77746 
L 79.251138 -265.51527 
L 77.935399 -265.51527 
L 77.935399 -267.250188 
L 77.242904 -267.250188 
L 77.242904 -268.982207 
L 76.758158 -268.982207 
L 76.758158 -270.711316 
L 76.55041 -270.711316 
L 76.55041 -275.881079 
L 75.996415 -275.881079 
L 75.996415 -279.312818 
L 75.442419 -279.312818 
L 75.442419 -281.024212 
L 75.30392 -281.024212 
L 75.30392 -284.437958 
L 75.096172 -284.437958 
L 75.096172 -286.14027 
L 75.026923 -286.14027 
L 75.026923 -289.535664 
L 74.680675 -289.535664 
L 74.680675 -291.228697 
L 74.334428 -291.228697 
L 74.334428 -292.918586 
L 73.572684 -292.918586 
L 73.572684 -294.605303 
L 72.810941 -294.605303 
L 72.810941 -296.288818 
L 72.741691 -296.288818 
L 72.741691 -297.9691 
L 72.049197 -297.9691 
L 72.049197 -299.646114 
L 71.910698 -299.646114 
L 71.910698 -301.319826 
L 71.772199 -301.319826 
L 71.772199 -302.990198 
L 71.495202 -302.990198 
L 71.495202 -304.657191 
L 71.356703 -304.657191 
L 71.356703 -306.320762 
L 71.010456 -306.320762 
L 71.010456 -307.980868 
L 70.941206 -307.980868 
L 70.941206 -309.637463 
L 69.833215 -309.637463 
L 69.833215 -311.290497 
L 69.27922 -311.290497 
L 69.27922 -314.585673 
L 69.071471 -314.585673 
L 69.071471 -316.227703 
L 68.932973 -316.227703 
L 68.932973 -319.500342 
L 68.863723 -319.500342 
L 68.863723 -321.130819 
L 68.309728 -321.130819 
L 68.309728 -324.379729 
L 67.617233 -324.379729 
L 67.617233 -325.998006 
L 67.409485 -325.998006 
L 67.409485 -327.612052 
L 66.716991 -327.612052 
L 66.716991 -329.221778 
L 66.439993 -329.221778 
L 66.439993 -330.827088 
L 66.162995 -330.827088 
L 66.162995 -332.427881 
L 66.093746 -332.427881 
L 66.093746 -334.02405 
L 65.955247 -334.02405 
L 65.955247 -335.615479 
L 65.816748 -335.615479 
L 65.816748 -337.202048 
L 65.470501 -337.202048 
L 65.470501 -338.783627 
L 64.916506 -338.783627 
L 64.916506 -340.360078 
L 64.778007 -340.360078 
L 64.778007 -341.931252 
L 64.708757 -341.931252 
L 64.708757 -343.496993 
L 64.43176 -343.496993 
L 64.43176 -345.05713 
L 64.016263 -345.05713 
L 64.016263 -346.611482 
L 63.877764 -346.611482 
L 63.877764 -349.702034 
L 63.462268 -349.702034 
L 63.462268 -351.237797 
L 63.046771 -351.237797 
L 63.046771 -352.766896 
L 62.839023 -352.766896 
L 62.839023 -354.289064 
L 62.285027 -354.289064 
L 62.285027 -355.804012 
L 62.215778 -355.804012 
L 62.215778 -357.311425 
L 62.146528 -357.311425 
L 62.146528 -358.810956 
L 62.008029 -358.810956 
L 62.008029 -360.302227 
L 61.592533 -360.302227 
L 61.592533 -363.258276 
L 60.415293 -363.258276 
L 60.415293 -364.722083 
L 59.861297 -364.722083 
L 59.861297 -366.175671 
L 59.722798 -366.175671 
L 59.722798 -369.04956 
L 59.584299 -369.04956 
L 59.584299 -370.468329 
L 59.51505 -370.468329 
L 59.51505 -371.873781 
L 59.307302 -371.873781 
L 59.307302 -373.264851 
L 59.030304 -373.264851 
L 59.030304 -374.640305 
L 58.33781 -374.640305 
L 58.33781 -375.998697 
L 57.02207 -375.998697 
L 57.02207 -377.338322 
L 56.883572 -377.338322 
L 56.883572 -378.657136 
L 56.606574 -378.657136 
L 56.606574 -379.952661 
L 56.537324 -379.952661 
L 56.537324 -381.221834 
L 56.398826 -381.221834 
L 56.398826 -382.460799 
L 56.191077 -382.460799 
L 56.191077 -383.664576 
L 56.052578 -383.664576 
L 56.052578 -386.984184 
L 55.498583 -386.984184 
L 55.498583 -387.94569 
L 55.429334 -387.94569 
L 55.429334 -388.785895 
L 55.360084 -388.785895 
L 55.360084 -389.682295 
L 54.529091 -389.682295 
z
" id="mb075313097" style="stroke:#808080;stroke-opacity:0.25;"/>
    </defs>
    <g clip-path="url(#pbf3623b746)">
     <use style="fill:#808080;fill-opacity:0.25;stroke:#808080;stroke-opacity:0.25;" x="0" xlink:href="#mb075313097" y="432"/>
    </g>
   </g>
   <g id="matplotlib.axis_1">
    <g id="xtick_1">
     <g id="line2d_1">
      <path clip-path="url(#pbf3623b746)" d="M 54.529091 366.5095 
L 54.529091 26.88 
" style="fill:none;stroke:#b0b0b0;stroke-dasharray:2.96,1.28;stroke-dashoffset:0;stroke-opacity:0.5;stroke-width:0.8;"/>
     </g>
     <g id="line2d_2">
      <defs>
       <path d="M 0 0 
L 0 3.5 
" id="m16e3111d18" style="stroke:#000000;stroke-width:0.8;"/>
      </defs>
      <g>
       <use style="stroke:#000000;stroke-width:0.8;" x="54.529091" xlink:href="#m16e3111d18" y="366.5095"/>
      </g>
     </g>
     <g id="text_1">
      <text style="font-family:DejaVu Sans;font-size:10px;font-stretch:normal;font-style:normal;font-weight:normal;text-anchor:middle;" transform="rotate(-0, 54.529091, 381.107937)" x="54.529091" y="381.107937">0</text>
     </g>
    </g>
    <g id="xtick_2">
     <g id="line2d_3">
      <path clip-path="url(#pbf3623b746)" d="M 123.778522 366.5095 
L 123.778522 26.88 
" style="fill:none;stroke:#b0b0b0;stroke-dasharray:2.96,1.28;stroke-dashoffset:0;stroke-opacity:0.5;stroke-width:0.8;"/>
     </g>
     <g id="line2d_4">
      <g>
       <use style="stroke:#000000;stroke-width:0.8;" x="123.778522" xlink:href="#m16e3111d18" y="366.5095"/>
      </g>
     </g>
     <g id="text_2">
      <text style="font-family:DejaVu Sans;font-size:10px;font-stretch:normal;font-style:normal;font-weight:normal;text-anchor:middle;" transform="rotate(-0, 123.778522, 381.107937)" x="123.778522" y="381.107937">1000</text>
     </g>
    </g>
    <g id="xtick_3">
     <g id="line2d_5">
      <path clip-path="url(#pbf3623b746)" d="M 193.027953 366.5095 
L 193.027953 26.88 
" style="fill:none;stroke:#b0b0b0;stroke-dasharray:2.96,1.28;stroke-dashoffset:0;stroke-opacity:0.5;stroke-width:0.8;"/>
     </g>
     <g id="line2d_6">
      <g>
       <use style="stroke:#000000;stroke-width:0.8;" x="193.027953" xlink:href="#m16e3111d18" y="366.5095"/>
      </g>
     </g>
     <g id="text_3">
      <text style="font-family:DejaVu Sans;font-size:10px;font-stretch:normal;font-style:normal;font-weight:normal;text-anchor:middle;" transform="rotate(-0, 193.027953, 381.107937)" x="193.027953" y="381.107937">2000</text>
     </g>
    </g>
    <g id="xtick_4">
     <g id="line2d_7">
      <path clip-path="url(#pbf3623b746)" d="M 262.277384 366.5095 
L 262.277384 26.88 
" style="fill:none;stroke:#b0b0b0;stroke-dasharray:2.96,1.28;stroke-dashoffset:0;stroke-opacity:0.5;stroke-width:0.8;"/>
     </g>
     <g id="line2d_8">
      <g>
       <use style="stroke:#000000;stroke-width:0.8;" x="262.277384" xlink:href="#m16e3111d18" y="366.5095"/>
      </g>
     </g>
     <g id="text_4">
      <text style="font-family:DejaVu Sans;font-size:10px;font-stretch:normal;font-style:normal;font-weight:normal;text-anchor:middle;" transform="rotate(-0, 262.277384, 381.107937)" x="262.277384" y="381.107937">3000</text>
     </g>
    </g>
    <g id="xtick_5">
     <g id="line2d_9">
      <path clip-path="url(#pbf3623b746)" d="M 331.526816 366.5095 
L 331.526816 26.88 
" style="fill:none;stroke:#b0b0b0;stroke-dasharray:2.96,1.28;stroke-dashoffset:0;stroke-opacity:0.5;stroke-width:0.8;"/>
     </g>
     <g id="line2d_10">
      <g>
       <use style="stroke:#000000;stroke-width:0.8;" x="331.526816" xlink:href="#m16e3111d18" y="366.5095"/>
      </g>
     </g>
     <g id="text_5">
      <text style="font-family:DejaVu Sans;font-size:10px;font-stretch:normal;font-style:normal;font-weight:normal;text-anchor:middle;" transform="rotate(-0, 331.526816, 381.107937)" x="331.526816" y="381.107937">4000</text>
     </g>
    </g>
    <g id="xtick_6">
     <g id="line2d_11">
      <path clip-path="url(#pbf3623b746)" d="M 400.776247 366.5095 
L 400.776247 26.88 
" style="fill:none;stroke:#b0b0b0;stroke-dasharray:2.96,1.28;stroke-dashoffset:0;stroke-opacity:0.5;stroke-width:0.8;"/>
     </g>
     <g id="line2d_12">
      <g>
       <use style="stroke:#000000;stroke-width:0.8;" x="400.776247" xlink:href="#m16e3111d18" y="366.5095"/>
      </g>
     </g>
     <g id="text_6">
      <text style="font-family:DejaVu Sans;font-size:10px;font-stretch:normal;font-style:normal;font-weight:normal;text-anchor:middle;" transform="rotate(-0, 400.776247, 381.107937)" x="400.776247" y="381.107937">5000</text>
     </g>
    </g>
    <g id="xtick_7">
     <g id="line2d_13">
      <path clip-path="url(#pbf3623b746)" d="M 470.025678 366.5095 
L 470.025678 26.88 
" style="fill:none;stroke:#b0b0b0;stroke-dasharray:2.96,1.28;stroke-dashoffset:0;stroke-opacity:0.5;stroke-width:0.8;"/>
     </g>
     <g id="line2d_14">
      <g>
       <use style="stroke:#000000;stroke-width:0.8;" x="470.025678" xlink:href="#m16e3111d18" y="366.5095"/>
      </g>
     </g>
     <g id="text_7">
      <text style="font-family:DejaVu Sans;font-size:10px;font-stretch:normal;font-style:normal;font-weight:normal;text-anchor:middle;" transform="rotate(-0, 470.025678, 381.107937)" x="470.025678" y="381.107937">6000</text>
     </g>
    </g>
    <g id="text_8">
     <text style="font-family:DejaVu Sans;font-size:10px;font-stretch:normal;font-style:normal;font-weight:normal;" transform="translate(241.511406 394.786063)">timeline </text>
     <text style="font-family:DejaVu Sans;font-size:10px;font-stretch:normal;font-style:normal;font-weight:normal;" transform="translate(149.922344 405.983875)">    dataset: lgn_pronostic_PCA, input_dim: 17 </text>
     <text style="font-family:DejaVu Sans;font-size:10px;font-stretch:normal;font-style:normal;font-weight:normal;" transform="translate(186.430938 417.459812)">    c_index: [0.688 0.658 0.72 ]</text>
    </g>
   </g>
   <g id="matplotlib.axis_2">
    <g id="ytick_1">
     <g id="line2d_15">
      <path clip-path="url(#pbf3623b746)" d="M 33.64 358.174731 
L 493.2 358.174731 
" style="fill:none;stroke:#b0b0b0;stroke-dasharray:2.96,1.28;stroke-dashoffset:0;stroke-opacity:0.5;stroke-width:0.8;"/>
     </g>
     <g id="line2d_16">
      <defs>
       <path d="M 0 0 
L -3.5 0 
" id="m5c7a39fbc1" style="stroke:#000000;stroke-width:0.8;"/>
      </defs>
      <g>
       <use style="stroke:#000000;stroke-width:0.8;" x="33.64" xlink:href="#m5c7a39fbc1" y="358.174731"/>
      </g>
     </g>
     <g id="text_9">
      <text style="font-family:DejaVu Sans;font-size:10px;font-stretch:normal;font-style:normal;font-weight:normal;text-anchor:end;" transform="rotate(-0, 26.64, 361.97395)" x="26.64" y="361.97395">0.0</text>
     </g>
    </g>
    <g id="ytick_2">
     <g id="line2d_17">
      <path clip-path="url(#pbf3623b746)" d="M 33.64 295.003326 
L 493.2 295.003326 
" style="fill:none;stroke:#b0b0b0;stroke-dasharray:2.96,1.28;stroke-dashoffset:0;stroke-opacity:0.5;stroke-width:0.8;"/>
     </g>
     <g id="line2d_18">
      <g>
       <use style="stroke:#000000;stroke-width:0.8;" x="33.64" xlink:href="#m5c7a39fbc1" y="295.003326"/>
      </g>
     </g>
     <g id="text_10">
      <text style="font-family:DejaVu Sans;font-size:10px;font-stretch:normal;font-style:normal;font-weight:normal;text-anchor:end;" transform="rotate(-0, 26.64, 298.802544)" x="26.64" y="298.802544">0.2</text>
     </g>
    </g>
    <g id="ytick_3">
     <g id="line2d_19">
      <path clip-path="url(#pbf3623b746)" d="M 33.64 231.83192 
L 493.2 231.83192 
" style="fill:none;stroke:#b0b0b0;stroke-dasharray:2.96,1.28;stroke-dashoffset:0;stroke-opacity:0.5;stroke-width:0.8;"/>
     </g>
     <g id="line2d_20">
      <g>
       <use style="stroke:#000000;stroke-width:0.8;" x="33.64" xlink:href="#m5c7a39fbc1" y="231.83192"/>
      </g>
     </g>
     <g id="text_11">
      <text style="font-family:DejaVu Sans;font-size:10px;font-stretch:normal;font-style:normal;font-weight:normal;text-anchor:end;" transform="rotate(-0, 26.64, 235.631139)" x="26.64" y="235.631139">0.4</text>
     </g>
    </g>
    <g id="ytick_4">
     <g id="line2d_21">
      <path clip-path="url(#pbf3623b746)" d="M 33.64 168.660515 
L 493.2 168.660515 
" style="fill:none;stroke:#b0b0b0;stroke-dasharray:2.96,1.28;stroke-dashoffset:0;stroke-opacity:0.5;stroke-width:0.8;"/>
     </g>
     <g id="line2d_22">
      <g>
       <use style="stroke:#000000;stroke-width:0.8;" x="33.64" xlink:href="#m5c7a39fbc1" y="168.660515"/>
      </g>
     </g>
     <g id="text_12">
      <text style="font-family:DejaVu Sans;font-size:10px;font-stretch:normal;font-style:normal;font-weight:normal;text-anchor:end;" transform="rotate(-0, 26.64, 172.459734)" x="26.64" y="172.459734">0.6</text>
     </g>
    </g>
    <g id="ytick_5">
     <g id="line2d_23">
      <path clip-path="url(#pbf3623b746)" d="M 33.64 105.48911 
L 493.2 105.48911 
" style="fill:none;stroke:#b0b0b0;stroke-dasharray:2.96,1.28;stroke-dashoffset:0;stroke-opacity:0.5;stroke-width:0.8;"/>
     </g>
     <g id="line2d_24">
      <g>
       <use style="stroke:#000000;stroke-width:0.8;" x="33.64" xlink:href="#m5c7a39fbc1" y="105.48911"/>
      </g>
     </g>
     <g id="text_13">
      <text style="font-family:DejaVu Sans;font-size:10px;font-stretch:normal;font-style:normal;font-weight:normal;text-anchor:end;" transform="rotate(-0, 26.64, 109.288329)" x="26.64" y="109.288329">0.8</text>
     </g>
    </g>
    <g id="ytick_6">
     <g id="line2d_25">
      <path clip-path="url(#pbf3623b746)" d="M 33.64 42.317705 
L 493.2 42.317705 
" style="fill:none;stroke:#b0b0b0;stroke-dasharray:2.96,1.28;stroke-dashoffset:0;stroke-opacity:0.5;stroke-width:0.8;"/>
     </g>
     <g id="line2d_26">
      <g>
       <use style="stroke:#000000;stroke-width:0.8;" x="33.64" xlink:href="#m5c7a39fbc1" y="42.317705"/>
      </g>
     </g>
     <g id="text_14">
      <text style="font-family:DejaVu Sans;font-size:10px;font-stretch:normal;font-style:normal;font-weight:normal;text-anchor:end;" transform="rotate(-0, 26.64, 46.116923)" x="26.64" y="46.116923">1.0</text>
     </g>
    </g>
   </g>
   <g id="line2d_27">
    <defs>
     <path d="M -3 3 
L 3 -3 
M -3 -3 
L 3 3 
" id="mccdac95063" style="stroke:#ff0000;"/>
    </defs>
    <g clip-path="url(#pbf3623b746)">
     <use style="fill:#ff0000;stroke:#ff0000;" x="59.861297" xlink:href="#mccdac95063" y="111.158338"/>
     <use style="fill:#ff0000;stroke:#ff0000;" x="206.254595" xlink:href="#mccdac95063" y="325.239212"/>
     <use style="fill:#ff0000;stroke:#ff0000;" x="248.704496" xlink:href="#mccdac95063" y="329.944286"/>
     <use style="fill:#ff0000;stroke:#ff0000;" x="333.535049" xlink:href="#mccdac95063" y="329.944286"/>
     <use style="fill:#ff0000;stroke:#ff0000;" x="376.746694" xlink:href="#mccdac95063" y="337.001897"/>
     <use style="fill:#ff0000;stroke:#ff0000;" x="380.693912" xlink:href="#mccdac95063" y="337.001897"/>
     <use style="fill:#ff0000;stroke:#ff0000;" x="445.926876" xlink:href="#mccdac95063" y="337.001897"/>
    </g>
   </g>
   <g id="line2d_28">
    <path clip-path="url(#pbf3623b746)" d="M 54.529091 42.317705 
L 55.083086 42.317705 
L 55.152336 50.416603 
L 55.290835 50.416603 
L 55.360084 58.515501 
L 55.567832 58.515501 
L 55.567832 62.56495 
L 55.775581 62.56495 
L 55.775581 66.614399 
L 55.91408 66.614399 
L 55.983329 74.713297 
L 56.052578 74.713297 
L 56.052578 78.762746 
L 56.398826 78.762746 
L 56.398826 82.812195 
L 56.952821 82.812195 
L 57.02207 94.960542 
L 57.09132 94.960542 
L 57.09132 99.009991 
L 57.783814 99.009991 
L 57.783814 103.05944 
L 58.060812 103.05944 
L 58.060812 107.108889 
L 58.822556 107.108889 
L 58.822556 111.158338 
L 60.138295 111.158338 
L 60.138295 119.392218 
L 60.276794 119.392218 
L 60.276794 123.509158 
L 60.553791 123.509158 
L 60.623041 131.743038 
L 60.830789 131.743038 
L 60.830789 135.859978 
L 60.969288 135.859978 
L 60.969288 139.976918 
L 61.246286 139.976918 
L 61.246286 144.093857 
L 61.523283 144.093857 
L 61.523283 148.210797 
L 62.215778 148.210797 
L 62.215778 152.327737 
L 63.323769 152.327737 
L 63.323769 156.444677 
L 63.739265 156.444677 
L 63.739265 160.561617 
L 63.947014 160.561617 
L 63.947014 164.678557 
L 64.570258 164.678557 
L 64.570258 168.795497 
L 64.778007 168.795497 
L 64.778007 172.912437 
L 64.916506 172.912437 
L 64.916506 177.029376 
L 65.055004 177.029376 
L 65.055004 185.263256 
L 65.193503 185.263256 
L 65.193503 189.380196 
L 65.678249 189.380196 
L 65.678249 193.497136 
L 66.647741 193.497136 
L 66.647741 197.614076 
L 68.932973 197.614076 
L 68.932973 201.731016 
L 69.763966 201.731016 
L 69.763966 205.847956 
L 70.733458 205.847956 
L 70.802707 214.081835 
L 70.871957 214.081835 
L 70.871957 218.198775 
L 71.010456 218.198775 
L 71.010456 222.315715 
L 71.218204 222.315715 
L 71.218204 230.549595 
L 71.979948 230.549595 
L 71.979948 234.666535 
L 72.187696 234.666535 
L 72.187696 238.783475 
L 73.018689 238.783475 
L 73.018689 242.900414 
L 74.195929 242.900414 
L 74.195929 247.017354 
L 75.442419 247.017354 
L 75.442419 251.134294 
L 75.788666 251.134294 
L 75.788666 255.251234 
L 75.996415 255.251234 
L 75.996415 259.368174 
L 77.242904 259.368174 
L 77.242904 263.485114 
L 78.143147 263.485114 
L 78.143147 267.602054 
L 79.320387 267.602054 
L 79.320387 271.718993 
L 79.735884 271.718993 
L 79.735884 275.835933 
L 82.021115 275.835933 
L 82.021115 279.952873 
L 84.029349 279.952873 
L 84.029349 284.069813 
L 89.777051 284.069813 
L 89.777051 288.186753 
L 98.779477 288.186753 
L 98.779477 292.303693 
L 99.194974 292.303693 
L 99.194974 296.420633 
L 101.618704 296.420633 
L 101.618704 300.537573 
L 110.274883 300.537573 
L 110.274883 304.654512 
L 111.86762 304.654512 
L 111.86762 308.771452 
L 131.118962 308.771452 
L 131.118962 312.888392 
L 137.351411 312.888392 
L 137.351411 317.005332 
L 151.201297 317.005332 
L 151.201297 321.122272 
L 204.800357 321.122272 
L 204.800357 325.239212 
L 209.024572 325.239212 
L 209.024572 329.944286 
L 347.800432 329.944286 
L 347.800432 337.001897 
L 445.926876 337.001897 
L 445.926876 337.001897 
" style="fill:none;stroke:#ff0000;stroke-linecap:square;stroke-width:1.5;"/>
   </g>
   <g id="line2d_29">
    <defs>
     <path d="M -3 3 
L 3 -3 
M -3 -3 
L 3 3 
" id="m134e2b07fb" style="stroke:#0000ff;"/>
    </defs>
    <g clip-path="url(#pbf3623b746)">
     <use style="fill:#0000ff;stroke:#0000ff;" x="182.709788" xlink:href="#m134e2b07fb" y="147.60338"/>
     <use style="fill:#0000ff;stroke:#0000ff;" x="184.579523" xlink:href="#m134e2b07fb" y="147.60338"/>
     <use style="fill:#0000ff;stroke:#0000ff;" x="187.834246" xlink:href="#m134e2b07fb" y="147.60338"/>
     <use style="fill:#0000ff;stroke:#0000ff;" x="193.651198" xlink:href="#m134e2b07fb" y="147.60338"/>
     <use style="fill:#0000ff;stroke:#0000ff;" x="208.678325" xlink:href="#m134e2b07fb" y="147.60338"/>
     <use style="fill:#0000ff;stroke:#0000ff;" x="218.373245" xlink:href="#m134e2b07fb" y="156.026234"/>
     <use style="fill:#0000ff;stroke:#0000ff;" x="224.259447" xlink:href="#m134e2b07fb" y="156.026234"/>
     <use style="fill:#0000ff;stroke:#0000ff;" x="226.26768" xlink:href="#m134e2b07fb" y="156.026234"/>
     <use style="fill:#0000ff;stroke:#0000ff;" x="232.153882" xlink:href="#m134e2b07fb" y="156.026234"/>
     <use style="fill:#0000ff;stroke:#0000ff;" x="245.519022" xlink:href="#m134e2b07fb" y="156.026234"/>
     <use style="fill:#0000ff;stroke:#0000ff;" x="253.759704" xlink:href="#m134e2b07fb" y="156.026234"/>
     <use style="fill:#0000ff;stroke:#0000ff;" x="263.177627" xlink:href="#m134e2b07fb" y="156.026234"/>
     <use style="fill:#0000ff;stroke:#0000ff;" x="284.160205" xlink:href="#m134e2b07fb" y="156.026234"/>
     <use style="fill:#0000ff;stroke:#0000ff;" x="289.838658" xlink:href="#m134e2b07fb" y="156.026234"/>
     <use style="fill:#0000ff;stroke:#0000ff;" x="316.638188" xlink:href="#m134e2b07fb" y="156.026234"/>
     <use style="fill:#0000ff;stroke:#0000ff;" x="322.039643" xlink:href="#m134e2b07fb" y="156.026234"/>
     <use style="fill:#0000ff;stroke:#0000ff;" x="338.31326" xlink:href="#m134e2b07fb" y="156.026234"/>
     <use style="fill:#0000ff;stroke:#0000ff;" x="344.060963" xlink:href="#m134e2b07fb" y="156.026234"/>
     <use style="fill:#0000ff;stroke:#0000ff;" x="357.910849" xlink:href="#m134e2b07fb" y="156.026234"/>
     <use style="fill:#0000ff;stroke:#0000ff;" x="370.652744" xlink:href="#m134e2b07fb" y="156.026234"/>
     <use style="fill:#0000ff;stroke:#0000ff;" x="383.256141" xlink:href="#m134e2b07fb" y="156.026234"/>
     <use style="fill:#0000ff;stroke:#0000ff;" x="389.904086" xlink:href="#m134e2b07fb" y="156.026234"/>
     <use style="fill:#0000ff;stroke:#0000ff;" x="391.566072" xlink:href="#m134e2b07fb" y="156.026234"/>
     <use style="fill:#0000ff;stroke:#0000ff;" x="398.491015" xlink:href="#m134e2b07fb" y="156.026234"/>
     <use style="fill:#0000ff;stroke:#0000ff;" x="408.393684" xlink:href="#m134e2b07fb" y="156.026234"/>
     <use style="fill:#0000ff;stroke:#0000ff;" x="425.221296" xlink:href="#m134e2b07fb" y="156.026234"/>
     <use style="fill:#0000ff;stroke:#0000ff;" x="432.907983" xlink:href="#m134e2b07fb" y="156.026234"/>
     <use style="fill:#0000ff;stroke:#0000ff;" x="441.356413" xlink:href="#m134e2b07fb" y="156.026234"/>
     <use style="fill:#0000ff;stroke:#0000ff;" x="458.184025" xlink:href="#m134e2b07fb" y="156.026234"/>
    </g>
   </g>
   <g id="line2d_30">
    <path clip-path="url(#pbf3623b746)" d="M 54.529091 42.317705 
L 55.360084 42.317705 
L 55.360084 49.33675 
L 56.329576 49.33675 
L 56.329576 56.355795 
L 61.731032 56.355795 
L 61.731032 63.37484 
L 64.085512 63.37484 
L 64.085512 70.393885 
L 75.580918 70.393885 
L 75.580918 77.41293 
L 76.827408 77.41293 
L 76.827408 84.431975 
L 82.090365 84.431975 
L 82.090365 91.45102 
L 86.31458 91.45102 
L 86.31458 98.470065 
L 88.045816 98.470065 
L 88.045816 105.48911 
L 89.084557 105.48911 
L 89.084557 112.508155 
L 100.233715 112.508155 
L 100.233715 119.5272 
L 106.812411 119.5272 
L 106.812411 126.546245 
L 114.152851 126.546245 
L 114.152851 133.56529 
L 118.654064 133.56529 
L 118.654064 140.584335 
L 179.108818 140.584335 
L 179.108818 147.60338 
L 182.709788 147.60338 
L 182.709788 147.60338 
L 184.579523 147.60338 
L 184.579523 147.60338 
L 187.834246 147.60338 
L 187.834246 147.60338 
L 193.651198 147.60338 
L 193.651198 147.60338 
L 208.678325 147.60338 
L 208.678325 147.60338 
L 218.026998 147.60338 
L 218.026998 156.026234 
L 218.373245 156.026234 
L 218.373245 156.026234 
L 224.259447 156.026234 
L 224.259447 156.026234 
L 226.26768 156.026234 
L 226.26768 156.026234 
L 232.153882 156.026234 
L 232.153882 156.026234 
L 245.519022 156.026234 
L 245.519022 156.026234 
L 253.759704 156.026234 
L 253.759704 156.026234 
L 263.177627 156.026234 
L 263.177627 156.026234 
L 284.160205 156.026234 
L 284.160205 156.026234 
L 289.838658 156.026234 
L 289.838658 156.026234 
L 316.638188 156.026234 
L 316.638188 156.026234 
L 322.039643 156.026234 
L 322.039643 156.026234 
L 338.31326 156.026234 
L 338.31326 156.026234 
L 344.060963 156.026234 
L 344.060963 156.026234 
L 357.910849 156.026234 
L 357.910849 156.026234 
L 370.652744 156.026234 
L 370.652744 156.026234 
L 383.256141 156.026234 
L 383.256141 156.026234 
L 389.904086 156.026234 
L 389.904086 156.026234 
L 391.566072 156.026234 
L 391.566072 156.026234 
L 398.491015 156.026234 
L 398.491015 156.026234 
L 408.393684 156.026234 
L 408.393684 156.026234 
L 425.221296 156.026234 
L 425.221296 156.026234 
L 432.907983 156.026234 
L 432.907983 156.026234 
L 441.356413 156.026234 
L 441.356413 156.026234 
L 458.184025 156.026234 
L 458.184025 156.026234 
" style="fill:none;stroke:#0000ff;stroke-linecap:square;stroke-width:1.5;"/>
   </g>
   <g id="line2d_31">
    <defs>
     <path d="M -3 3 
L 3 -3 
M -3 -3 
L 3 3 
" id="m3abbdf81fa" style="stroke:#808080;"/>
    </defs>
    <g clip-path="url(#pbf3623b746)">
     <use style="fill:#808080;stroke:#808080;" x="95.386255" xlink:href="#m3abbdf81fa" y="226.121511"/>
     <use style="fill:#808080;stroke:#808080;" x="187.3495" xlink:href="#m3abbdf81fa" y="267.72732"/>
     <use style="fill:#808080;stroke:#808080;" x="189.703981" xlink:href="#m3abbdf81fa" y="269.573185"/>
     <use style="fill:#808080;stroke:#808080;" x="191.850713" xlink:href="#m3abbdf81fa" y="269.573185"/>
     <use style="fill:#808080;stroke:#808080;" x="198.983404" xlink:href="#m3abbdf81fa" y="271.499306"/>
     <use style="fill:#808080;stroke:#808080;" x="208.262828" xlink:href="#m3abbdf81fa" y="273.469202"/>
     <use style="fill:#808080;stroke:#808080;" x="224.259447" xlink:href="#m3abbdf81fa" y="279.519597"/>
     <use style="fill:#808080;stroke:#808080;" x="227.444921" xlink:href="#m3abbdf81fa" y="279.519597"/>
     <use style="fill:#808080;stroke:#808080;" x="235.685603" xlink:href="#m3abbdf81fa" y="279.519597"/>
     <use style="fill:#808080;stroke:#808080;" x="237.001342" xlink:href="#m3abbdf81fa" y="279.519597"/>
     <use style="fill:#808080;stroke:#808080;" x="237.901585" xlink:href="#m3abbdf81fa" y="279.519597"/>
     <use style="fill:#808080;stroke:#808080;" x="241.156308" xlink:href="#m3abbdf81fa" y="279.519597"/>
     <use style="fill:#808080;stroke:#808080;" x="252.859462" xlink:href="#m3abbdf81fa" y="281.903086"/>
     <use style="fill:#808080;stroke:#808080;" x="261.377142" xlink:href="#m3abbdf81fa" y="284.363461"/>
     <use style="fill:#808080;stroke:#808080;" x="266.43235" xlink:href="#m3abbdf81fa" y="286.908678"/>
     <use style="fill:#808080;stroke:#808080;" x="269.133078" xlink:href="#m3abbdf81fa" y="286.908678"/>
     <use style="fill:#808080;stroke:#808080;" x="270.10257" xlink:href="#m3abbdf81fa" y="286.908678"/>
     <use style="fill:#808080;stroke:#808080;" x="280.420735" xlink:href="#m3abbdf81fa" y="286.908678"/>
     <use style="fill:#808080;stroke:#808080;" x="280.697733" xlink:href="#m3abbdf81fa" y="286.908678"/>
     <use style="fill:#808080;stroke:#808080;" x="295.586361" xlink:href="#m3abbdf81fa" y="286.908678"/>
     <use style="fill:#808080;stroke:#808080;" x="302.234306" xlink:href="#m3abbdf81fa" y="286.908678"/>
     <use style="fill:#808080;stroke:#808080;" x="322.385891" xlink:href="#m3abbdf81fa" y="286.908678"/>
     <use style="fill:#808080;stroke:#808080;" x="330.626573" xlink:href="#m3abbdf81fa" y="286.908678"/>
     <use style="fill:#808080;stroke:#808080;" x="330.765072" xlink:href="#m3abbdf81fa" y="286.908678"/>
     <use style="fill:#808080;stroke:#808080;" x="333.673548" xlink:href="#m3abbdf81fa" y="286.908678"/>
     <use style="fill:#808080;stroke:#808080;" x="333.812047" xlink:href="#m3abbdf81fa" y="286.908678"/>
     <use style="fill:#808080;stroke:#808080;" x="333.881296" xlink:href="#m3abbdf81fa" y="286.908678"/>
     <use style="fill:#808080;stroke:#808080;" x="351.609151" xlink:href="#m3abbdf81fa" y="286.908678"/>
     <use style="fill:#808080;stroke:#808080;" x="356.52586" xlink:href="#m3abbdf81fa" y="286.908678"/>
     <use style="fill:#808080;stroke:#808080;" x="359.503586" xlink:href="#m3abbdf81fa" y="286.908678"/>
     <use style="fill:#808080;stroke:#808080;" x="374.738461" xlink:href="#m3abbdf81fa" y="286.908678"/>
     <use style="fill:#808080;stroke:#808080;" x="388.726846" xlink:href="#m3abbdf81fa" y="294.035283"/>
     <use style="fill:#808080;stroke:#808080;" x="392.604814" xlink:href="#m3abbdf81fa" y="294.035283"/>
     <use style="fill:#808080;stroke:#808080;" x="393.505056" xlink:href="#m3abbdf81fa" y="294.035283"/>
     <use style="fill:#808080;stroke:#808080;" x="405.069711" xlink:href="#m3abbdf81fa" y="294.035283"/>
     <use style="fill:#808080;stroke:#808080;" x="455.483297" xlink:href="#m3abbdf81fa" y="294.035283"/>
     <use style="fill:#808080;stroke:#808080;" x="459.499764" xlink:href="#m3abbdf81fa" y="294.035283"/>
     <use style="fill:#808080;stroke:#808080;" x="463.931728" xlink:href="#m3abbdf81fa" y="294.035283"/>
     <use style="fill:#808080;stroke:#808080;" x="464.347225" xlink:href="#m3abbdf81fa" y="294.035283"/>
     <use style="fill:#808080;stroke:#808080;" x="472.310909" xlink:href="#m3abbdf81fa" y="294.035283"/>
    </g>
   </g>
   <g id="line2d_32">
    <path clip-path="url(#pbf3623b746)" d="M 54.529091 42.317705 
L 55.360084 42.317705 
L 55.429334 47.671213 
L 55.498583 47.671213 
L 55.498583 49.455716 
L 56.052578 49.455716 
L 56.052578 54.809225 
L 56.191077 54.809225 
L 56.191077 56.593728 
L 56.398826 56.593728 
L 56.398826 58.378231 
L 56.537324 58.378231 
L 56.606574 61.947237 
L 56.883572 61.947237 
L 56.883572 63.73174 
L 57.02207 63.73174 
L 57.02207 65.516243 
L 58.33781 65.516243 
L 58.33781 67.300746 
L 59.030304 67.300746 
L 59.030304 69.085249 
L 59.307302 69.085249 
L 59.307302 70.869752 
L 59.51505 70.869752 
L 59.584299 74.438758 
L 59.722798 74.438758 
L 59.722798 78.007764 
L 59.861297 78.007764 
L 59.861297 79.792267 
L 60.415293 79.792267 
L 60.415293 81.57677 
L 61.592533 81.57677 
L 61.592533 85.145776 
L 62.008029 85.145776 
L 62.008029 86.930279 
L 62.146528 86.930279 
L 62.215778 90.499285 
L 62.285027 90.499285 
L 62.285027 92.283788 
L 62.839023 92.283788 
L 62.839023 94.068291 
L 63.046771 94.068291 
L 63.046771 95.852794 
L 63.462268 95.852794 
L 63.462268 97.637297 
L 63.877764 97.637297 
L 63.877764 101.206303 
L 64.016263 101.206303 
L 64.016263 102.990806 
L 64.43176 102.990806 
L 64.43176 104.775309 
L 64.708757 104.775309 
L 64.778007 108.344315 
L 64.916506 108.344315 
L 64.916506 110.128818 
L 65.470501 110.128818 
L 65.470501 111.91332 
L 65.816748 111.91332 
L 65.816748 113.697823 
L 65.955247 113.697823 
L 65.955247 115.482326 
L 66.093746 115.482326 
L 66.162995 119.051332 
L 66.439993 119.051332 
L 66.439993 120.835835 
L 66.716991 120.835835 
L 66.716991 122.620338 
L 67.409485 122.620338 
L 67.409485 124.404841 
L 67.617233 124.404841 
L 67.617233 126.189344 
L 68.309728 126.189344 
L 68.309728 129.75835 
L 68.863723 129.75835 
L 68.932973 135.111859 
L 69.071471 135.111859 
L 69.071471 136.896362 
L 69.27922 136.896362 
L 69.27922 140.465368 
L 69.833215 140.465368 
L 69.833215 142.249871 
L 70.941206 142.249871 
L 71.010456 145.818877 
L 71.356703 145.818877 
L 71.356703 147.60338 
L 71.495202 147.60338 
L 71.495202 149.387883 
L 71.772199 149.387883 
L 71.772199 151.172386 
L 71.910698 151.172386 
L 71.910698 152.956889 
L 72.049197 152.956889 
L 72.049197 154.741392 
L 72.741691 154.741392 
L 72.810941 158.310398 
L 73.572684 158.310398 
L 73.572684 160.094901 
L 74.334428 160.094901 
L 74.334428 161.879404 
L 74.680675 161.879404 
L 74.680675 163.663907 
L 75.026923 163.663907 
L 75.096172 169.017416 
L 75.30392 169.017416 
L 75.30392 172.586422 
L 75.442419 172.586422 
L 75.442419 174.370925 
L 75.996415 174.370925 
L 75.996415 177.939931 
L 76.55041 177.939931 
L 76.55041 183.293439 
L 76.758158 183.293439 
L 76.758158 185.077942 
L 77.242904 185.077942 
L 77.242904 186.862445 
L 77.935399 186.862445 
L 77.935399 188.646948 
L 79.251138 188.646948 
L 79.251138 190.431451 
L 79.528136 190.431451 
L 79.528136 192.215954 
L 80.082131 192.215954 
L 80.082131 194.000457 
L 80.22063 194.000457 
L 80.22063 195.78496 
L 81.813367 195.78496 
L 81.813367 197.569463 
L 82.228863 197.569463 
L 82.228863 199.353966 
L 82.436612 199.353966 
L 82.436612 201.138469 
L 84.514095 201.138469 
L 84.514095 202.922972 
L 85.137339 202.922972 
L 85.206589 206.491978 
L 85.414337 206.491978 
L 85.414337 208.276481 
L 85.552836 208.276481 
L 85.552836 210.060984 
L 88.045816 210.060984 
L 88.045816 211.845487 
L 88.322813 211.845487 
L 88.392063 215.414493 
L 88.599811 215.414493 
L 88.66906 220.768002 
L 90.469546 220.768002 
L 90.538795 224.337008 
L 91.508287 224.337008 
L 91.508287 226.121511 
L 95.524754 226.121511 
L 95.524754 227.930459 
L 96.217248 227.930459 
L 96.217248 229.739407 
L 101.687954 229.739407 
L 101.687954 231.548355 
L 101.826452 231.548355 
L 101.826452 233.357304 
L 103.488439 233.357304 
L 103.488439 235.166252 
L 104.52718 235.166252 
L 104.52718 236.9752 
L 108.128151 236.9752 
L 108.128151 238.784148 
L 110.69038 238.784148 
L 110.69038 240.593097 
L 112.629364 240.593097 
L 112.629364 242.402045 
L 112.767863 242.402045 
L 112.767863 244.210993 
L 113.183359 244.210993 
L 113.183359 246.019941 
L 116.645831 246.019941 
L 116.645831 247.828889 
L 121.008545 247.828889 
L 121.008545 249.637838 
L 122.462783 249.637838 
L 122.462783 251.446786 
L 129.803223 251.446786 
L 129.803223 253.255734 
L 130.772715 253.255734 
L 130.772715 255.064682 
L 138.5979 255.064682 
L 138.5979 256.873631 
L 150.231805 256.873631 
L 150.231805 258.682579 
L 156.118006 258.682579 
L 156.118006 260.491527 
L 162.9737 260.491527 
L 162.9737 262.300475 
L 165.743677 262.300475 
L 165.743677 264.109423 
L 168.305906 264.109423 
L 168.305906 265.918372 
L 181.463298 265.918372 
L 181.463298 267.72732 
L 187.557248 267.72732 
L 187.557248 269.573185 
L 198.221661 269.573185 
L 198.221661 271.499306 
L 207.362585 271.499306 
L 207.362585 273.469202 
L 209.509318 273.469202 
L 209.509318 275.486 
L 215.257021 275.486 
L 215.257021 277.502799 
L 218.165497 277.502799 
L 218.165497 279.519597 
L 249.46624 279.519597 
L 249.46624 281.903086 
L 258.122419 281.903086 
L 258.122419 284.363461 
L 265.878355 284.363461 
L 265.878355 286.908678 
L 377.716186 286.908678 
L 377.716186 294.035283 
L 472.310909 294.035283 
L 472.310909 294.035283 
" style="fill:none;stroke:#808080;stroke-linecap:square;stroke-width:1.5;"/>
   </g>
   <g id="patch_3">
    <path d="M 33.64 366.5095 
L 33.64 26.88 
" style="fill:none;stroke:#000000;stroke-linecap:square;stroke-linejoin:miter;stroke-width:0.8;"/>
   </g>
   <g id="patch_4">
    <path d="M 493.2 366.5095 
L 493.2 26.88 
" style="fill:none;stroke:#000000;stroke-linecap:square;stroke-linejoin:miter;stroke-width:0.8;"/>
   </g>
   <g id="patch_5">
    <path d="M 33.64 366.5095 
L 493.2 366.5095 
" style="fill:none;stroke:#000000;stroke-linecap:square;stroke-linejoin:miter;stroke-width:0.8;"/>
   </g>
   <g id="patch_6">
    <path d="M 33.64 26.88 
L 493.2 26.88 
" style="fill:none;stroke:#000000;stroke-linecap:square;stroke-linejoin:miter;stroke-width:0.8;"/>
   </g>
   <g id="text_15">
    <text style="font-family:DejaVu Sans;font-size:12px;font-stretch:normal;font-style:normal;font-weight:normal;text-anchor:middle;" transform="rotate(-0, 263.42, 20.88)" x="263.42" y="20.88">Survival curves - model_type: ridge_cph_lifelines</text>
   </g>
   <g id="legend_1">
    <g id="patch_7">
     <path d="M 349.195312 78.914375 
L 486.2 78.914375 
Q 488.2 78.914375 488.2 76.914375 
L 488.2 33.88 
Q 488.2 31.88 486.2 31.88 
L 349.195312 31.88 
Q 347.195312 31.88 347.195312 33.88 
L 347.195312 76.914375 
Q 347.195312 78.914375 349.195312 78.914375 
z
" style="fill:#ffffff;opacity:0.8;stroke:#cccccc;stroke-linejoin:miter;"/>
    </g>
    <g id="line2d_33">
     <path d="M 351.195312 39.978437 
L 371.195312 39.978437 
" style="fill:none;stroke:#ff0000;stroke-linecap:square;stroke-width:1.5;"/>
    </g>
    <g id="line2d_34"/>
    <g id="text_16">
     <text style="font-family:DejaVu Sans;font-size:10px;font-stretch:normal;font-style:normal;font-weight:normal;text-anchor:start;" transform="rotate(-0, 379.195312, 43.478437)" x="379.195312" y="43.478437">adv. risk (n:78 c:7 )</text>
    </g>
    <g id="line2d_35">
     <path d="M 351.195312 54.656563 
L 371.195312 54.656563 
" style="fill:none;stroke:#0000ff;stroke-linecap:square;stroke-width:1.5;"/>
    </g>
    <g id="line2d_36"/>
    <g id="text_17">
     <text style="font-family:DejaVu Sans;font-size:10px;font-stretch:normal;font-style:normal;font-weight:normal;text-anchor:start;" transform="rotate(-0, 379.195312, 58.156563)" x="379.195312" y="58.156563">fav. risk (n:45 c:29)</text>
    </g>
    <g id="line2d_37">
     <path d="M 351.195312 69.334687 
L 371.195312 69.334687 
" style="fill:none;stroke:#808080;stroke-linecap:square;stroke-width:1.5;"/>
    </g>
    <g id="line2d_38"/>
    <g id="text_18">
     <text style="font-family:DejaVu Sans;font-size:10px;font-stretch:normal;font-style:normal;font-weight:normal;text-anchor:start;" transform="rotate(-0, 379.195312, 72.834687)" x="379.195312" y="72.834687">int. risk (n:177 c:41 )</text>
    </g>
   </g>
  </g>
 </g>
 <defs>
  <clipPath id="pbf3623b746">
   <rect height="339.6295" width="459.56" x="33.64" y="26.88"/>
  </clipPath>
 </defs>
</svg>
