<?xml version="1.0" encoding="utf-8" standalone="no"?>
<!DOCTYPE svg PUBLIC "-//W3C//DTD SVG 1.1//EN"
  "http://www.w3.org/Graphics/SVG/1.1/DTD/svg11.dtd">
<!-- Created with matplotlib (https://matplotlib.org/) -->
<svg height="432pt" version="1.1" viewBox="0 0 504 432" width="504pt" xmlns="http://www.w3.org/2000/svg" xmlns:xlink="http://www.w3.org/1999/xlink">
 <metadata>
  <rdf:RDF xmlns:cc="http://creativecommons.org/ns#" xmlns:dc="http://purl.org/dc/elements/1.1/" xmlns:rdf="http://www.w3.org/1999/02/22-rdf-syntax-ns#">
   <cc:Work>
    <dc:type rdf:resource="http://purl.org/dc/dcmitype/StillImage"/>
    <dc:date>2022-11-28T13:22:17.974184</dc:date>
    <dc:format>image/svg+xml</dc:format>
    <dc:creator>
     <cc:Agent>
      <dc:title>Matplotlib v3.3.4, https://matplotlib.org/</dc:title>
     </cc:Agent>
    </dc:creator>
   </cc:Work>
  </rdf:RDF>
 </metadata>
 <defs>
  <style type="text/css">*{stroke-linecap:butt;stroke-linejoin:round;}</style>
 </defs>
 <g id="figure_1">
  <g id="patch_1">
   <path d="M 0 432 
L 504 432 
L 504 0 
L 0 0 
z
" style="fill:#ffffff;"/>
  </g>
  <g id="axes_1">
   <g id="patch_2">
    <path d="M 33.64 366.5095 
L 493.2 366.5095 
L 493.2 26.88 
L 33.64 26.88 
z
" style="fill:#ffffff;"/>
   </g>
   <g id="PolyCollection_1">
    <defs>
     <path d="M 54.529091 -389.682295 
L 54.529091 -389.682295 
L 55.083086 -389.682295 
L 55.083086 -362.449681 
L 55.152336 -362.449681 
L 55.152336 -358.990007 
L 55.290835 -358.990007 
L 55.290835 -354.056484 
L 55.567832 -354.056484 
L 55.567832 -348.962243 
L 55.775581 -348.962243 
L 55.775581 -343.896792 
L 55.91408 -343.896792 
L 55.91408 -338.900108 
L 55.983329 -338.900108 
L 55.983329 -333.978542 
L 56.052578 -333.978542 
L 56.052578 -324.34744 
L 56.398826 -324.34744 
L 56.398826 -319.627422 
L 56.537324 -319.627422 
L 56.537324 -314.964294 
L 56.952821 -314.964294 
L 56.952821 -310.353605 
L 57.02207 -310.353605 
L 57.02207 -301.274473 
L 57.783814 -301.274473 
L 57.783814 -296.799692 
L 58.060812 -296.799692 
L 58.060812 -292.364551 
L 58.822556 -292.364551 
L 58.822556 -287.966808 
L 59.861297 -287.966808 
L 59.861297 -283.604497 
L 60.138295 -283.604497 
L 60.138295 -274.979462 
L 60.276794 -274.979462 
L 60.276794 -270.713868 
L 60.553791 -270.713868 
L 60.553791 -266.477915 
L 60.623041 -266.477915 
L 60.623041 -262.270546 
L 60.830789 -262.270546 
L 60.830789 -258.090821 
L 60.969288 -258.090821 
L 60.969288 -253.937908 
L 61.246286 -253.937908 
L 61.246286 -249.811066 
L 61.523283 -249.811066 
L 61.523283 -245.709641 
L 62.215778 -245.709641 
L 62.215778 -241.633052 
L 63.323769 -241.633052 
L 63.323769 -237.580792 
L 63.739265 -237.580792 
L 63.739265 -233.552413 
L 63.947014 -233.552413 
L 63.947014 -229.547527 
L 64.016263 -229.547527 
L 64.016263 -225.565804 
L 64.570258 -225.565804 
L 64.570258 -221.606959 
L 64.778007 -221.606959 
L 64.778007 -217.670761 
L 65.055004 -217.670761 
L 65.055004 -209.865598 
L 65.193503 -209.865598 
L 65.193503 -205.996389 
L 65.678249 -205.996389 
L 65.678249 -202.149336 
L 66.439993 -202.149336 
L 66.439993 -198.324423 
L 66.647741 -198.324423 
L 66.647741 -194.521672 
L 68.932973 -194.521672 
L 68.932973 -186.982959 
L 69.763966 -186.982959 
L 69.763966 -183.247253 
L 70.733458 -183.247253 
L 70.733458 -179.534223 
L 70.802707 -179.534223 
L 70.802707 -175.844109 
L 70.871957 -175.844109 
L 70.871957 -172.177197 
L 71.218204 -172.177197 
L 71.218204 -168.533826 
L 71.979948 -168.533826 
L 71.979948 -164.914388 
L 72.187696 -164.914388 
L 72.187696 -161.319334 
L 73.018689 -161.319334 
L 73.018689 -157.749178 
L 74.195929 -157.749178 
L 74.195929 -154.204503 
L 75.30392 -154.204503 
L 75.30392 -150.685969 
L 75.442419 -150.685969 
L 75.442419 -147.194318 
L 75.788666 -147.194318 
L 75.788666 -143.73039 
L 75.996415 -143.73039 
L 75.996415 -140.295125 
L 76.55041 -140.295125 
L 76.55041 -136.889588 
L 77.242904 -136.889588 
L 77.242904 -133.514977 
L 78.143147 -133.514977 
L 78.143147 -130.17265 
L 79.320387 -130.17265 
L 79.320387 -126.864144 
L 81.813367 -126.864144 
L 81.813367 -123.59121 
L 82.021115 -123.59121 
L 82.021115 -120.355852 
L 84.029349 -120.355852 
L 84.029349 -117.160372 
L 88.599811 -117.160372 
L 88.599811 -114.007434 
L 89.777051 -114.007434 
L 89.777051 -110.900141 
L 98.779477 -110.900141 
L 98.779477 -107.842143 
L 99.194974 -107.842143 
L 99.194974 -104.837769 
L 101.618704 -104.837769 
L 101.618704 -101.892223 
L 110.274883 -101.892223 
L 110.274883 -99.011837 
L 111.86762 -99.011837 
L 111.86762 -96.204452 
L 116.645831 -96.204452 
L 116.645831 -93.479962 
L 131.118962 -93.479962 
L 131.118962 -90.851157 
L 137.351411 -90.851157 
L 137.351411 -88.335069 
L 151.201297 -88.335069 
L 151.201297 -85.955248 
L 204.800357 -85.955248 
L 204.800357 -83.745908 
L 208.262828 -83.745908 
L 208.262828 -83.745908 
L 209.024572 -83.745908 
L 209.024572 -80.928205 
L 248.704496 -80.928205 
L 248.704496 -80.928205 
L 376.746694 -80.928205 
L 376.746694 -80.928205 
L 376.746694 -108.710555 
L 376.746694 -108.710555 
L 376.746694 -108.710555 
L 248.704496 -108.710555 
L 248.704496 -108.710555 
L 209.024572 -108.710555 
L 209.024572 -114.662551 
L 208.262828 -114.662551 
L 208.262828 -114.662551 
L 204.800357 -114.662551 
L 204.800357 -119.936361 
L 151.201297 -119.936361 
L 151.201297 -125.070199 
L 137.351411 -125.070199 
L 137.351411 -130.089022 
L 131.118962 -130.089022 
L 131.118962 -135.011099 
L 116.645831 -135.011099 
L 116.645831 -139.850106 
L 111.86762 -139.850106 
L 111.86762 -144.61654 
L 110.274883 -144.61654 
L 110.274883 -149.318638 
L 101.618704 -149.318638 
L 101.618704 -153.962994 
L 99.194974 -153.962994 
L 99.194974 -158.554976 
L 98.779477 -158.554976 
L 98.779477 -163.099014 
L 89.777051 -163.099014 
L 89.777051 -167.598813 
L 88.599811 -167.598813 
L 88.599811 -172.057506 
L 84.029349 -172.057506 
L 84.029349 -176.47776 
L 82.021115 -176.47776 
L 82.021115 -180.86187 
L 81.813367 -180.86187 
L 81.813367 -185.211823 
L 79.320387 -185.211823 
L 79.320387 -189.529344 
L 78.143147 -189.529344 
L 78.143147 -193.815946 
L 77.242904 -193.815946 
L 77.242904 -198.072954 
L 76.55041 -198.072954 
L 76.55041 -202.301536 
L 75.996415 -202.301536 
L 75.996415 -206.502724 
L 75.788666 -206.502724 
L 75.788666 -210.677429 
L 75.442419 -210.677429 
L 75.442419 -214.826458 
L 75.30392 -214.826458 
L 75.30392 -218.950524 
L 74.195929 -218.950524 
L 74.195929 -223.050258 
L 73.018689 -223.050258 
L 73.018689 -227.126215 
L 72.187696 -227.126215 
L 72.187696 -231.178882 
L 71.979948 -231.178882 
L 71.979948 -235.208686 
L 71.218204 -235.208686 
L 71.218204 -239.215995 
L 70.871957 -239.215995 
L 70.871957 -243.201125 
L 70.802707 -243.201125 
L 70.802707 -247.164342 
L 70.733458 -247.164342 
L 70.733458 -251.105866 
L 69.763966 -251.105866 
L 69.763966 -255.025871 
L 68.932973 -255.025871 
L 68.932973 -262.801814 
L 66.647741 -262.801814 
L 66.647741 -266.657893 
L 66.439993 -266.657893 
L 66.439993 -270.492737 
L 65.678249 -270.492737 
L 65.678249 -274.306317 
L 65.193503 -274.306317 
L 65.193503 -278.098564 
L 65.055004 -278.098564 
L 65.055004 -285.618577 
L 64.778007 -285.618577 
L 64.778007 -289.345997 
L 64.570258 -289.345997 
L 64.570258 -293.051387 
L 64.016263 -293.051387 
L 64.016263 -296.73446 
L 63.947014 -296.73446 
L 63.947014 -300.39488 
L 63.739265 -300.39488 
L 63.739265 -304.032256 
L 63.323769 -304.032256 
L 63.323769 -307.646138 
L 62.215778 -307.646138 
L 62.215778 -311.236014 
L 61.523283 -311.236014 
L 61.523283 -314.801303 
L 61.246286 -314.801303 
L 61.246286 -318.341347 
L 60.969288 -318.341347 
L 60.969288 -321.855405 
L 60.830789 -321.855405 
L 60.830789 -325.342637 
L 60.623041 -325.342637 
L 60.623041 -328.802099 
L 60.553791 -328.802099 
L 60.553791 -332.232723 
L 60.276794 -332.232723 
L 60.276794 -335.633299 
L 60.138295 -335.633299 
L 60.138295 -342.338637 
L 59.861297 -342.338637 
L 59.861297 -345.640053 
L 58.822556 -345.640053 
L 58.822556 -348.904655 
L 58.060812 -348.904655 
L 58.060812 -352.130072 
L 57.783814 -352.130072 
L 57.783814 -355.313543 
L 57.02207 -355.313543 
L 57.02207 -361.541083 
L 56.952821 -361.541083 
L 56.952821 -364.576698 
L 56.537324 -364.576698 
L 56.537324 -367.55307 
L 56.398826 -367.55307 
L 56.398826 -370.463272 
L 56.052578 -370.463272 
L 56.052578 -376.047731 
L 55.983329 -376.047731 
L 55.983329 -378.695753 
L 55.91408 -378.695753 
L 55.91408 -381.221963 
L 55.775581 -381.221963 
L 55.775581 -383.596308 
L 55.567832 -383.596308 
L 55.567832 -385.771942 
L 55.290835 -385.771942 
L 55.290835 -387.667812 
L 55.152336 -387.667812 
L 55.152336 -389.117333 
L 55.083086 -389.117333 
L 55.083086 -389.682295 
L 54.529091 -389.682295 
z
" id="m771785e372" style="stroke:#ff0000;stroke-opacity:0.25;"/>
    </defs>
    <g clip-path="url(#p5bc7648cd0)">
     <use style="fill:#ff0000;fill-opacity:0.25;stroke:#ff0000;stroke-opacity:0.25;" x="0" xlink:href="#m771785e372" y="432"/>
    </g>
   </g>
   <g id="PolyCollection_2">
    <defs>
     <path d="M 54.529091 -389.682295 
L 54.529091 -389.682295 
L 55.360084 -389.682295 
L 55.360084 -343.803598 
L 59.51505 -343.803598 
L 59.51505 -337.965452 
L 61.731032 -337.965452 
L 61.731032 -329.754752 
L 64.085512 -329.754752 
L 64.085512 -321.320762 
L 75.580918 -321.320762 
L 75.580918 -312.970963 
L 82.090365 -312.970963 
L 82.090365 -304.768098 
L 86.31458 -304.768098 
L 86.31458 -296.720501 
L 88.045816 -296.720501 
L 88.045816 -288.822198 
L 89.084557 -288.822198 
L 89.084557 -281.063798 
L 95.524754 -281.063798 
L 95.524754 -273.435812 
L 100.233715 -273.435812 
L 100.233715 -265.929651 
L 106.812411 -265.929651 
L 106.812411 -258.537859 
L 114.152851 -258.537859 
L 114.152851 -251.254096 
L 118.654064 -251.254096 
L 118.654064 -244.073022 
L 179.108818 -244.073022 
L 179.108818 -236.990185 
L 182.709788 -236.990185 
L 182.709788 -236.990185 
L 184.579523 -236.990185 
L 184.579523 -236.990185 
L 187.834246 -236.990185 
L 187.834246 -236.990185 
L 193.651198 -236.990185 
L 193.651198 -236.990185 
L 208.678325 -236.990185 
L 208.678325 -236.990185 
L 218.026998 -236.990185 
L 218.026998 -228.02124 
L 218.373245 -228.02124 
L 218.373245 -228.02124 
L 226.26768 -228.02124 
L 226.26768 -228.02124 
L 232.153882 -228.02124 
L 232.153882 -228.02124 
L 235.685603 -228.02124 
L 235.685603 -228.02124 
L 245.519022 -228.02124 
L 245.519022 -228.02124 
L 253.759704 -228.02124 
L 253.759704 -228.02124 
L 263.177627 -228.02124 
L 263.177627 -228.02124 
L 280.697733 -228.02124 
L 280.697733 -228.02124 
L 284.160205 -228.02124 
L 284.160205 -228.02124 
L 289.838658 -228.02124 
L 289.838658 -228.02124 
L 316.638188 -228.02124 
L 316.638188 -228.02124 
L 322.039643 -228.02124 
L 322.039643 -228.02124 
L 333.881296 -228.02124 
L 333.881296 -228.02124 
L 344.060963 -228.02124 
L 344.060963 -228.02124 
L 357.910849 -228.02124 
L 357.910849 -228.02124 
L 370.652744 -228.02124 
L 370.652744 -228.02124 
L 383.256141 -228.02124 
L 383.256141 -228.02124 
L 391.566072 -228.02124 
L 391.566072 -228.02124 
L 398.491015 -228.02124 
L 398.491015 -228.02124 
L 408.393684 -228.02124 
L 408.393684 -228.02124 
L 425.221296 -228.02124 
L 425.221296 -228.02124 
L 432.907983 -228.02124 
L 432.907983 -228.02124 
L 441.356413 -228.02124 
L 441.356413 -228.02124 
L 458.184025 -228.02124 
L 458.184025 -228.02124 
L 458.184025 -315.674292 
L 458.184025 -315.674292 
L 458.184025 -315.674292 
L 441.356413 -315.674292 
L 441.356413 -315.674292 
L 432.907983 -315.674292 
L 432.907983 -315.674292 
L 425.221296 -315.674292 
L 425.221296 -315.674292 
L 408.393684 -315.674292 
L 408.393684 -315.674292 
L 398.491015 -315.674292 
L 398.491015 -315.674292 
L 391.566072 -315.674292 
L 391.566072 -315.674292 
L 383.256141 -315.674292 
L 383.256141 -315.674292 
L 370.652744 -315.674292 
L 370.652744 -315.674292 
L 357.910849 -315.674292 
L 357.910849 -315.674292 
L 344.060963 -315.674292 
L 344.060963 -315.674292 
L 333.881296 -315.674292 
L 333.881296 -315.674292 
L 322.039643 -315.674292 
L 322.039643 -315.674292 
L 316.638188 -315.674292 
L 316.638188 -315.674292 
L 289.838658 -315.674292 
L 289.838658 -315.674292 
L 284.160205 -315.674292 
L 284.160205 -315.674292 
L 280.697733 -315.674292 
L 280.697733 -315.674292 
L 263.177627 -315.674292 
L 263.177627 -315.674292 
L 253.759704 -315.674292 
L 253.759704 -315.674292 
L 245.519022 -315.674292 
L 245.519022 -315.674292 
L 235.685603 -315.674292 
L 235.685603 -315.674292 
L 232.153882 -315.674292 
L 232.153882 -315.674292 
L 226.26768 -315.674292 
L 226.26768 -315.674292 
L 218.373245 -315.674292 
L 218.373245 -315.674292 
L 218.026998 -315.674292 
L 218.026998 -322.421757 
L 208.678325 -322.421757 
L 208.678325 -322.421757 
L 193.651198 -322.421757 
L 193.651198 -322.421757 
L 187.834246 -322.421757 
L 187.834246 -322.421757 
L 184.579523 -322.421757 
L 184.579523 -322.421757 
L 182.709788 -322.421757 
L 182.709788 -322.421757 
L 179.108818 -322.421757 
L 179.108818 -328.23133 
L 118.654064 -328.23133 
L 118.654064 -333.940127 
L 114.152851 -333.940127 
L 114.152851 -339.542076 
L 106.812411 -339.542076 
L 106.812411 -345.029689 
L 100.233715 -345.029689 
L 100.233715 -350.393665 
L 95.524754 -350.393665 
L 95.524754 -355.622331 
L 89.084557 -355.622331 
L 89.084557 -360.700806 
L 88.045816 -360.700806 
L 88.045816 -365.609725 
L 86.31458 -365.609725 
L 86.31458 -370.323197 
L 82.090365 -370.323197 
L 82.090365 -374.805335 
L 75.580918 -374.805335 
L 75.580918 -379.003908 
L 64.085512 -379.003908 
L 64.085512 -382.837498 
L 61.731032 -382.837498 
L 61.731032 -386.16539 
L 59.51505 -386.16539 
L 59.51505 -388.699035 
L 55.360084 -388.699035 
L 55.360084 -389.682295 
L 54.529091 -389.682295 
z
" id="meb4f4e57f8" style="stroke:#0000ff;stroke-opacity:0.25;"/>
    </defs>
    <g clip-path="url(#p5bc7648cd0)">
     <use style="fill:#0000ff;fill-opacity:0.25;stroke:#0000ff;stroke-opacity:0.25;" x="0" xlink:href="#meb4f4e57f8" y="432"/>
    </g>
   </g>
   <g id="PolyCollection_3">
    <defs>
     <path d="M 54.529091 -389.682295 
L 54.529091 -389.682295 
L 55.360084 -389.682295 
L 55.360084 -373.621737 
L 55.429334 -373.621737 
L 55.429334 -371.299571 
L 55.498583 -371.299571 
L 55.498583 -368.983781 
L 56.052578 -368.983781 
L 56.052578 -364.43182 
L 56.191077 -364.43182 
L 56.191077 -362.198204 
L 56.329576 -362.198204 
L 56.329576 -359.990498 
L 56.398826 -359.990498 
L 56.398826 -357.806466 
L 56.606574 -357.806466 
L 56.606574 -355.643997 
L 56.883572 -355.643997 
L 56.883572 -353.501193 
L 57.02207 -353.501193 
L 57.02207 -351.376386 
L 57.09132 -351.376386 
L 57.09132 -349.268112 
L 58.33781 -349.268112 
L 58.33781 -347.175093 
L 59.030304 -347.175093 
L 59.030304 -345.096206 
L 59.307302 -345.096206 
L 59.307302 -343.030465 
L 59.584299 -343.030465 
L 59.584299 -340.976998 
L 59.722798 -340.976998 
L 59.722798 -336.90388 
L 59.861297 -336.90388 
L 59.861297 -336.90388 
L 60.415293 -336.90388 
L 60.415293 -334.866319 
L 61.592533 -334.866319 
L 61.592533 -330.820767 
L 62.008029 -330.820767 
L 62.008029 -328.811746 
L 62.146528 -328.811746 
L 62.146528 -326.811291 
L 62.215778 -326.811291 
L 62.215778 -324.819004 
L 62.285027 -324.819004 
L 62.285027 -322.834518 
L 62.839023 -322.834518 
L 62.839023 -320.857501 
L 63.046771 -320.857501 
L 63.046771 -318.887649 
L 63.462268 -318.887649 
L 63.462268 -316.924681 
L 63.877764 -316.924681 
L 63.877764 -313.018385 
L 64.43176 -313.018385 
L 64.43176 -311.074597 
L 64.708757 -311.074597 
L 64.708757 -309.136773 
L 64.778007 -309.136773 
L 64.778007 -307.20472 
L 64.916506 -307.20472 
L 64.916506 -303.357239 
L 65.470501 -303.357239 
L 65.470501 -301.44149 
L 65.816748 -301.44149 
L 65.816748 -299.530875 
L 65.955247 -299.530875 
L 65.955247 -297.625257 
L 66.093746 -297.625257 
L 66.093746 -295.724512 
L 66.162995 -295.724512 
L 66.162995 -293.828519 
L 66.716991 -293.828519 
L 66.716991 -291.937169 
L 67.409485 -291.937169 
L 67.409485 -290.050355 
L 67.617233 -290.050355 
L 67.617233 -288.167978 
L 68.309728 -288.167978 
L 68.309728 -284.416173 
L 68.863723 -284.416173 
L 68.863723 -282.546574 
L 68.932973 -282.546574 
L 68.932973 -280.68107 
L 69.071471 -280.68107 
L 69.071471 -278.819589 
L 69.27922 -278.819589 
L 69.27922 -275.108418 
L 69.833215 -275.108418 
L 69.833215 -273.2586 
L 70.941206 -273.2586 
L 70.941206 -271.412547 
L 71.010456 -271.412547 
L 71.010456 -267.731513 
L 71.218204 -267.731513 
L 71.218204 -265.89643 
L 71.356703 -265.89643 
L 71.356703 -264.064906 
L 71.495202 -264.064906 
L 71.495202 -262.236895 
L 71.772199 -262.236895 
L 71.772199 -260.412355 
L 71.910698 -260.412355 
L 71.910698 -258.591245 
L 72.049197 -258.591245 
L 72.049197 -256.773529 
L 72.741691 -256.773529 
L 72.741691 -254.95917 
L 72.810941 -254.95917 
L 72.810941 -253.148134 
L 73.572684 -253.148134 
L 73.572684 -251.340389 
L 74.334428 -251.340389 
L 74.334428 -249.535906 
L 74.680675 -249.535906 
L 74.680675 -247.734655 
L 75.026923 -247.734655 
L 75.026923 -244.141748 
L 75.096172 -244.141748 
L 75.096172 -242.350043 
L 75.30392 -242.350043 
L 75.30392 -240.561474 
L 75.442419 -240.561474 
L 75.442419 -238.776021 
L 75.996415 -238.776021 
L 75.996415 -235.214389 
L 76.55041 -235.214389 
L 76.55041 -231.665011 
L 76.758158 -231.665011 
L 76.758158 -229.894881 
L 76.827408 -229.894881 
L 76.827408 -228.127774 
L 77.242904 -228.127774 
L 77.242904 -226.363678 
L 77.935399 -226.363678 
L 77.935399 -224.602585 
L 79.251138 -224.602585 
L 79.251138 -222.844485 
L 79.528136 -222.844485 
L 79.528136 -221.089371 
L 79.735884 -221.089371 
L 79.735884 -219.337237 
L 80.082131 -219.337237 
L 80.082131 -217.588078 
L 80.22063 -217.588078 
L 80.22063 -215.84189 
L 82.228863 -215.84189 
L 82.228863 -214.09867 
L 82.436612 -214.09867 
L 82.436612 -212.358417 
L 84.514095 -212.358417 
L 84.514095 -210.62113 
L 85.137339 -210.62113 
L 85.137339 -208.886809 
L 85.206589 -208.886809 
L 85.206589 -207.155457 
L 85.414337 -207.155457 
L 85.414337 -205.427076 
L 85.552836 -205.427076 
L 85.552836 -203.701671 
L 88.045816 -203.701671 
L 88.045816 -201.979247 
L 88.322813 -201.979247 
L 88.322813 -200.259809 
L 88.392063 -200.259809 
L 88.392063 -198.543366 
L 88.599811 -198.543366 
L 88.599811 -196.829926 
L 88.66906 -196.829926 
L 88.66906 -195.119499 
L 90.469546 -195.119499 
L 90.469546 -193.412097 
L 90.538795 -193.412097 
L 90.538795 -191.707731 
L 91.508287 -191.707731 
L 91.508287 -190.006415 
L 95.386255 -190.006415 
L 95.386255 -190.006415 
L 96.217248 -190.006415 
L 96.217248 -188.281977 
L 101.687954 -188.281977 
L 101.687954 -186.560808 
L 101.826452 -186.560808 
L 101.826452 -184.842925 
L 103.488439 -184.842925 
L 103.488439 -183.128347 
L 104.52718 -183.128347 
L 104.52718 -181.417091 
L 108.128151 -181.417091 
L 108.128151 -179.709181 
L 110.69038 -179.709181 
L 110.69038 -178.004639 
L 112.629364 -178.004639 
L 112.629364 -176.303489 
L 112.767863 -176.303489 
L 112.767863 -174.605758 
L 113.183359 -174.605758 
L 113.183359 -172.911475 
L 121.008545 -172.911475 
L 121.008545 -171.220669 
L 122.462783 -171.220669 
L 122.462783 -169.533372 
L 129.803223 -169.533372 
L 129.803223 -167.84962 
L 130.772715 -167.84962 
L 130.772715 -166.169448 
L 138.5979 -166.169448 
L 138.5979 -164.492894 
L 150.231805 -164.492894 
L 150.231805 -162.820001 
L 156.118006 -162.820001 
L 156.118006 -161.15081 
L 162.9737 -161.15081 
L 162.9737 -159.485368 
L 165.743677 -159.485368 
L 165.743677 -157.823724 
L 168.305906 -157.823724 
L 168.305906 -156.165929 
L 181.463298 -156.165929 
L 181.463298 -154.512037 
L 187.3495 -154.512037 
L 187.3495 -154.512037 
L 187.557248 -154.512037 
L 187.557248 -152.825839 
L 189.703981 -152.825839 
L 189.703981 -152.825839 
L 191.850713 -152.825839 
L 191.850713 -152.825839 
L 198.221661 -152.825839 
L 198.221661 -151.065196 
L 198.983404 -151.065196 
L 198.983404 -151.065196 
L 206.254595 -151.065196 
L 206.254595 -151.065196 
L 207.362585 -151.065196 
L 207.362585 -149.22182 
L 209.509318 -149.22182 
L 209.509318 -147.384786 
L 215.257021 -147.384786 
L 215.257021 -145.55418 
L 218.165497 -145.55418 
L 218.165497 -143.730095 
L 224.259447 -143.730095 
L 224.259447 -143.730095 
L 227.444921 -143.730095 
L 227.444921 -143.730095 
L 237.001342 -143.730095 
L 237.001342 -143.730095 
L 237.901585 -143.730095 
L 237.901585 -143.730095 
L 241.156308 -143.730095 
L 241.156308 -143.730095 
L 249.46624 -143.730095 
L 249.46624 -141.557012 
L 252.859462 -141.557012 
L 252.859462 -141.557012 
L 258.122419 -141.557012 
L 258.122419 -139.322065 
L 261.377142 -139.322065 
L 261.377142 -139.322065 
L 265.878355 -139.322065 
L 265.878355 -137.019878 
L 266.43235 -137.019878 
L 266.43235 -137.019878 
L 269.133078 -137.019878 
L 269.133078 -137.019878 
L 270.10257 -137.019878 
L 270.10257 -137.019878 
L 280.420735 -137.019878 
L 280.420735 -137.019878 
L 295.586361 -137.019878 
L 295.586361 -137.019878 
L 302.234306 -137.019878 
L 302.234306 -137.019878 
L 322.385891 -137.019878 
L 322.385891 -137.019878 
L 330.626573 -137.019878 
L 330.626573 -137.019878 
L 330.765072 -137.019878 
L 330.765072 -137.019878 
L 333.535049 -137.019878 
L 333.535049 -137.019878 
L 333.673548 -137.019878 
L 333.673548 -137.019878 
L 333.812047 -137.019878 
L 333.812047 -137.019878 
L 338.31326 -137.019878 
L 338.31326 -137.019878 
L 347.800432 -137.019878 
L 347.800432 -132.324129 
L 351.609151 -132.324129 
L 351.609151 -132.324129 
L 356.52586 -132.324129 
L 356.52586 -132.324129 
L 359.503586 -132.324129 
L 359.503586 -132.324129 
L 374.738461 -132.324129 
L 374.738461 -132.324129 
L 377.716186 -132.324129 
L 377.716186 -125.884134 
L 380.693912 -125.884134 
L 380.693912 -125.884134 
L 388.726846 -125.884134 
L 388.726846 -125.884134 
L 389.904086 -125.884134 
L 389.904086 -125.884134 
L 392.604814 -125.884134 
L 392.604814 -125.884134 
L 393.505056 -125.884134 
L 393.505056 -125.884134 
L 405.069711 -125.884134 
L 405.069711 -125.884134 
L 445.926876 -125.884134 
L 445.926876 -125.884134 
L 455.483297 -125.884134 
L 455.483297 -125.884134 
L 459.499764 -125.884134 
L 459.499764 -125.884134 
L 463.931728 -125.884134 
L 463.931728 -125.884134 
L 464.347225 -125.884134 
L 464.347225 -125.884134 
L 472.310909 -125.884134 
L 472.310909 -125.884134 
L 472.310909 -169.788512 
L 472.310909 -169.788512 
L 472.310909 -169.788512 
L 464.347225 -169.788512 
L 464.347225 -169.788512 
L 463.931728 -169.788512 
L 463.931728 -169.788512 
L 459.499764 -169.788512 
L 459.499764 -169.788512 
L 455.483297 -169.788512 
L 455.483297 -169.788512 
L 445.926876 -169.788512 
L 445.926876 -169.788512 
L 405.069711 -169.788512 
L 405.069711 -169.788512 
L 393.505056 -169.788512 
L 393.505056 -169.788512 
L 392.604814 -169.788512 
L 392.604814 -169.788512 
L 389.904086 -169.788512 
L 389.904086 -169.788512 
L 388.726846 -169.788512 
L 388.726846 -169.788512 
L 380.693912 -169.788512 
L 380.693912 -169.788512 
L 377.716186 -169.788512 
L 377.716186 -174.061216 
L 374.738461 -174.061216 
L 374.738461 -174.061216 
L 359.503586 -174.061216 
L 359.503586 -174.061216 
L 356.52586 -174.061216 
L 356.52586 -174.061216 
L 351.609151 -174.061216 
L 351.609151 -174.061216 
L 347.800432 -174.061216 
L 347.800432 -177.694546 
L 338.31326 -177.694546 
L 338.31326 -177.694546 
L 333.812047 -177.694546 
L 333.812047 -177.694546 
L 333.673548 -177.694546 
L 333.673548 -177.694546 
L 333.535049 -177.694546 
L 333.535049 -177.694546 
L 330.765072 -177.694546 
L 330.765072 -177.694546 
L 330.626573 -177.694546 
L 330.626573 -177.694546 
L 322.385891 -177.694546 
L 322.385891 -177.694546 
L 302.234306 -177.694546 
L 302.234306 -177.694546 
L 295.586361 -177.694546 
L 295.586361 -177.694546 
L 280.420735 -177.694546 
L 280.420735 -177.694546 
L 270.10257 -177.694546 
L 270.10257 -177.694546 
L 269.133078 -177.694546 
L 269.133078 -177.694546 
L 266.43235 -177.694546 
L 266.43235 -177.694546 
L 265.878355 -177.694546 
L 265.878355 -180.150456 
L 261.377142 -180.150456 
L 261.377142 -180.150456 
L 258.122419 -180.150456 
L 258.122419 -182.538285 
L 252.859462 -182.538285 
L 252.859462 -182.538285 
L 249.46624 -182.538285 
L 249.46624 -184.863447 
L 241.156308 -184.863447 
L 241.156308 -184.863447 
L 237.901585 -184.863447 
L 237.901585 -184.863447 
L 237.001342 -184.863447 
L 237.001342 -184.863447 
L 227.444921 -184.863447 
L 227.444921 -184.863447 
L 224.259447 -184.863447 
L 224.259447 -184.863447 
L 218.165497 -184.863447 
L 218.165497 -186.917756 
L 215.257021 -186.917756 
L 215.257021 -188.96628 
L 209.509318 -188.96628 
L 209.509318 -191.009111 
L 207.362585 -191.009111 
L 207.362585 -193.046332 
L 206.254595 -193.046332 
L 206.254595 -193.046332 
L 198.983404 -193.046332 
L 198.983404 -193.046332 
L 198.221661 -193.046332 
L 198.221661 -195.009598 
L 191.850713 -195.009598 
L 191.850713 -195.009598 
L 189.703981 -195.009598 
L 189.703981 -195.009598 
L 187.557248 -195.009598 
L 187.557248 -196.905342 
L 187.3495 -196.905342 
L 187.3495 -196.905342 
L 181.463298 -196.905342 
L 181.463298 -198.767685 
L 168.305906 -198.767685 
L 168.305906 -200.626358 
L 165.743677 -200.626358 
L 165.743677 -202.481409 
L 162.9737 -202.481409 
L 162.9737 -204.332886 
L 156.118006 -204.332886 
L 156.118006 -206.180832 
L 150.231805 -206.180832 
L 150.231805 -208.025288 
L 138.5979 -208.025288 
L 138.5979 -209.866296 
L 130.772715 -209.866296 
L 130.772715 -211.70389 
L 129.803223 -211.70389 
L 129.803223 -213.538106 
L 122.462783 -213.538106 
L 122.462783 -215.368978 
L 121.008545 -215.368978 
L 121.008545 -217.196535 
L 113.183359 -217.196535 
L 113.183359 -219.020808 
L 112.767863 -219.020808 
L 112.767863 -220.841823 
L 112.629364 -220.841823 
L 112.629364 -222.659606 
L 110.69038 -222.659606 
L 110.69038 -224.474182 
L 108.128151 -224.474182 
L 108.128151 -226.285571 
L 104.52718 -226.285571 
L 104.52718 -228.093795 
L 103.488439 -228.093795 
L 103.488439 -229.898874 
L 101.826452 -229.898874 
L 101.826452 -231.700824 
L 101.687954 -231.700824 
L 101.687954 -233.499663 
L 96.217248 -233.499663 
L 96.217248 -235.295405 
L 95.386255 -235.295405 
L 95.386255 -235.295405 
L 91.508287 -235.295405 
L 91.508287 -237.06788 
L 90.538795 -237.06788 
L 90.538795 -238.837424 
L 90.469546 -238.837424 
L 90.469546 -240.60405 
L 88.66906 -240.60405 
L 88.66906 -242.367767 
L 88.599811 -242.367767 
L 88.599811 -244.128584 
L 88.392063 -244.128584 
L 88.392063 -245.886509 
L 88.322813 -245.886509 
L 88.322813 -247.641549 
L 88.045816 -247.641549 
L 88.045816 -249.393707 
L 85.552836 -249.393707 
L 85.552836 -251.14299 
L 85.414337 -251.14299 
L 85.414337 -252.8894 
L 85.206589 -252.8894 
L 85.206589 -254.632938 
L 85.137339 -254.632938 
L 85.137339 -256.373607 
L 84.514095 -256.373607 
L 84.514095 -258.111406 
L 82.436612 -258.111406 
L 82.436612 -259.846334 
L 82.228863 -259.846334 
L 82.228863 -261.578389 
L 80.22063 -261.578389 
L 80.22063 -263.307566 
L 80.082131 -263.307566 
L 80.082131 -265.033863 
L 79.735884 -265.033863 
L 79.735884 -266.757272 
L 79.528136 -266.757272 
L 79.528136 -268.477789 
L 79.251138 -268.477789 
L 79.251138 -270.195404 
L 77.935399 -270.195404 
L 77.935399 -271.910109 
L 77.242904 -271.910109 
L 77.242904 -273.621893 
L 76.827408 -273.621893 
L 76.827408 -275.330747 
L 76.758158 -275.330747 
L 76.758158 -277.036656 
L 76.55041 -277.036656 
L 76.55041 -280.439586 
L 75.996415 -280.439586 
L 75.996415 -283.830559 
L 75.442419 -283.830559 
L 75.442419 -285.521517 
L 75.30392 -285.521517 
L 75.30392 -287.20943 
L 75.096172 -287.20943 
L 75.096172 -288.894275 
L 75.026923 -288.894275 
L 75.026923 -292.254669 
L 74.680675 -292.254669 
L 74.680675 -293.930167 
L 74.334428 -293.930167 
L 74.334428 -295.602495 
L 73.572684 -295.602495 
L 73.572684 -297.271624 
L 72.810941 -297.271624 
L 72.810941 -298.937523 
L 72.741691 -298.937523 
L 72.741691 -300.600158 
L 72.049197 -300.600158 
L 72.049197 -302.259493 
L 71.910698 -302.259493 
L 71.910698 -303.915493 
L 71.772199 -303.915493 
L 71.772199 -305.568116 
L 71.495202 -305.568116 
L 71.495202 -307.217323 
L 71.356703 -307.217323 
L 71.356703 -308.863068 
L 71.218204 -308.863068 
L 71.218204 -310.505306 
L 71.010456 -310.505306 
L 71.010456 -313.779061 
L 70.941206 -313.779061 
L 70.941206 -315.410472 
L 69.833215 -315.410472 
L 69.833215 -317.038163 
L 69.27922 -317.038163 
L 69.27922 -320.282138 
L 69.071471 -320.282138 
L 69.071471 -321.89829 
L 68.932973 -321.89829 
L 68.932973 -323.510458 
L 68.863723 -323.510458 
L 68.863723 -325.118565 
L 68.309728 -325.118565 
L 68.309728 -328.322273 
L 67.617233 -328.322273 
L 67.617233 -329.917698 
L 67.409485 -329.917698 
L 67.409485 -331.508713 
L 66.716991 -331.508713 
L 66.716991 -333.095215 
L 66.162995 -333.095215 
L 66.162995 -334.677096 
L 66.093746 -334.677096 
L 66.093746 -336.254244 
L 65.955247 -336.254244 
L 65.955247 -337.826535 
L 65.816748 -337.826535 
L 65.816748 -339.39384 
L 65.470501 -339.39384 
L 65.470501 -340.95602 
L 64.916506 -340.95602 
L 64.916506 -344.064404 
L 64.778007 -344.064404 
L 64.778007 -345.610279 
L 64.708757 -345.610279 
L 64.708757 -347.150371 
L 64.43176 -347.150371 
L 64.43176 -348.684484 
L 63.877764 -348.684484 
L 63.877764 -351.733909 
L 63.462268 -351.733909 
L 63.462268 -353.248746 
L 63.046771 -353.248746 
L 63.046771 -354.75665 
L 62.839023 -354.75665 
L 62.839023 -356.257329 
L 62.285027 -356.257329 
L 62.285027 -357.750467 
L 62.215778 -357.750467 
L 62.215778 -359.235714 
L 62.146528 -359.235714 
L 62.146528 -360.71269 
L 62.008029 -360.71269 
L 62.008029 -362.180976 
L 61.592533 -362.180976 
L 61.592533 -365.089567 
L 60.415293 -365.089567 
L 60.415293 -366.528783 
L 59.861297 -366.528783 
L 59.861297 -366.528783 
L 59.722798 -366.528783 
L 59.722798 -369.359501 
L 59.584299 -369.359501 
L 59.584299 -370.756957 
L 59.307302 -370.756957 
L 59.307302 -372.141297 
L 59.030304 -372.141297 
L 59.030304 -373.511471 
L 58.33781 -373.511471 
L 58.33781 -374.866262 
L 57.09132 -374.866262 
L 57.09132 -376.204249 
L 57.02207 -376.204249 
L 57.02207 -377.52375 
L 56.883572 -377.52375 
L 56.883572 -378.822754 
L 56.606574 -378.822754 
L 56.606574 -380.098818 
L 56.398826 -380.098818 
L 56.398826 -381.348926 
L 56.329576 -381.348926 
L 56.329576 -382.569279 
L 56.191077 -382.569279 
L 56.191077 -383.754973 
L 56.052578 -383.754973 
L 56.052578 -385.993775 
L 55.498583 -385.993775 
L 55.498583 -387.024715 
L 55.429334 -387.024715 
L 55.429334 -387.971777 
L 55.360084 -387.971777 
L 55.360084 -389.682295 
L 54.529091 -389.682295 
z
" id="mec38966946" style="stroke:#808080;stroke-opacity:0.25;"/>
    </defs>
    <g clip-path="url(#p5bc7648cd0)">
     <use style="fill:#808080;fill-opacity:0.25;stroke:#808080;stroke-opacity:0.25;" x="0" xlink:href="#mec38966946" y="432"/>
    </g>
   </g>
   <g id="matplotlib.axis_1">
    <g id="xtick_1">
     <g id="line2d_1">
      <path clip-path="url(#p5bc7648cd0)" d="M 54.529091 366.5095 
L 54.529091 26.88 
" style="fill:none;stroke:#b0b0b0;stroke-dasharray:2.96,1.28;stroke-dashoffset:0;stroke-opacity:0.5;stroke-width:0.8;"/>
     </g>
     <g id="line2d_2">
      <defs>
       <path d="M 0 0 
L 0 3.5 
" id="m5a44703f3b" style="stroke:#000000;stroke-width:0.8;"/>
      </defs>
      <g>
       <use style="stroke:#000000;stroke-width:0.8;" x="54.529091" xlink:href="#m5a44703f3b" y="366.5095"/>
      </g>
     </g>
     <g id="text_1">
      <text style="font-family:DejaVu Sans;font-size:10px;font-stretch:normal;font-style:normal;font-weight:normal;text-anchor:middle;" transform="rotate(-0, 54.529091, 381.107937)" x="54.529091" y="381.107937">0</text>
     </g>
    </g>
    <g id="xtick_2">
     <g id="line2d_3">
      <path clip-path="url(#p5bc7648cd0)" d="M 123.778522 366.5095 
L 123.778522 26.88 
" style="fill:none;stroke:#b0b0b0;stroke-dasharray:2.96,1.28;stroke-dashoffset:0;stroke-opacity:0.5;stroke-width:0.8;"/>
     </g>
     <g id="line2d_4">
      <g>
       <use style="stroke:#000000;stroke-width:0.8;" x="123.778522" xlink:href="#m5a44703f3b" y="366.5095"/>
      </g>
     </g>
     <g id="text_2">
      <text style="font-family:DejaVu Sans;font-size:10px;font-stretch:normal;font-style:normal;font-weight:normal;text-anchor:middle;" transform="rotate(-0, 123.778522, 381.107937)" x="123.778522" y="381.107937">1000</text>
     </g>
    </g>
    <g id="xtick_3">
     <g id="line2d_5">
      <path clip-path="url(#p5bc7648cd0)" d="M 193.027953 366.5095 
L 193.027953 26.88 
" style="fill:none;stroke:#b0b0b0;stroke-dasharray:2.96,1.28;stroke-dashoffset:0;stroke-opacity:0.5;stroke-width:0.8;"/>
     </g>
     <g id="line2d_6">
      <g>
       <use style="stroke:#000000;stroke-width:0.8;" x="193.027953" xlink:href="#m5a44703f3b" y="366.5095"/>
      </g>
     </g>
     <g id="text_3">
      <text style="font-family:DejaVu Sans;font-size:10px;font-stretch:normal;font-style:normal;font-weight:normal;text-anchor:middle;" transform="rotate(-0, 193.027953, 381.107937)" x="193.027953" y="381.107937">2000</text>
     </g>
    </g>
    <g id="xtick_4">
     <g id="line2d_7">
      <path clip-path="url(#p5bc7648cd0)" d="M 262.277384 366.5095 
L 262.277384 26.88 
" style="fill:none;stroke:#b0b0b0;stroke-dasharray:2.96,1.28;stroke-dashoffset:0;stroke-opacity:0.5;stroke-width:0.8;"/>
     </g>
     <g id="line2d_8">
      <g>
       <use style="stroke:#000000;stroke-width:0.8;" x="262.277384" xlink:href="#m5a44703f3b" y="366.5095"/>
      </g>
     </g>
     <g id="text_4">
      <text style="font-family:DejaVu Sans;font-size:10px;font-stretch:normal;font-style:normal;font-weight:normal;text-anchor:middle;" transform="rotate(-0, 262.277384, 381.107937)" x="262.277384" y="381.107937">3000</text>
     </g>
    </g>
    <g id="xtick_5">
     <g id="line2d_9">
      <path clip-path="url(#p5bc7648cd0)" d="M 331.526816 366.5095 
L 331.526816 26.88 
" style="fill:none;stroke:#b0b0b0;stroke-dasharray:2.96,1.28;stroke-dashoffset:0;stroke-opacity:0.5;stroke-width:0.8;"/>
     </g>
     <g id="line2d_10">
      <g>
       <use style="stroke:#000000;stroke-width:0.8;" x="331.526816" xlink:href="#m5a44703f3b" y="366.5095"/>
      </g>
     </g>
     <g id="text_5">
      <text style="font-family:DejaVu Sans;font-size:10px;font-stretch:normal;font-style:normal;font-weight:normal;text-anchor:middle;" transform="rotate(-0, 331.526816, 381.107937)" x="331.526816" y="381.107937">4000</text>
     </g>
    </g>
    <g id="xtick_6">
     <g id="line2d_11">
      <path clip-path="url(#p5bc7648cd0)" d="M 400.776247 366.5095 
L 400.776247 26.88 
" style="fill:none;stroke:#b0b0b0;stroke-dasharray:2.96,1.28;stroke-dashoffset:0;stroke-opacity:0.5;stroke-width:0.8;"/>
     </g>
     <g id="line2d_12">
      <g>
       <use style="stroke:#000000;stroke-width:0.8;" x="400.776247" xlink:href="#m5a44703f3b" y="366.5095"/>
      </g>
     </g>
     <g id="text_6">
      <text style="font-family:DejaVu Sans;font-size:10px;font-stretch:normal;font-style:normal;font-weight:normal;text-anchor:middle;" transform="rotate(-0, 400.776247, 381.107937)" x="400.776247" y="381.107937">5000</text>
     </g>
    </g>
    <g id="xtick_7">
     <g id="line2d_13">
      <path clip-path="url(#p5bc7648cd0)" d="M 470.025678 366.5095 
L 470.025678 26.88 
" style="fill:none;stroke:#b0b0b0;stroke-dasharray:2.96,1.28;stroke-dashoffset:0;stroke-opacity:0.5;stroke-width:0.8;"/>
     </g>
     <g id="line2d_14">
      <g>
       <use style="stroke:#000000;stroke-width:0.8;" x="470.025678" xlink:href="#m5a44703f3b" y="366.5095"/>
      </g>
     </g>
     <g id="text_7">
      <text style="font-family:DejaVu Sans;font-size:10px;font-stretch:normal;font-style:normal;font-weight:normal;text-anchor:middle;" transform="rotate(-0, 470.025678, 381.107937)" x="470.025678" y="381.107937">6000</text>
     </g>
    </g>
    <g id="text_8">
     <text style="font-family:DejaVu Sans;font-size:10px;font-stretch:normal;font-style:normal;font-weight:normal;" transform="translate(241.511406 394.786063)">timeline </text>
     <text style="font-family:DejaVu Sans;font-size:10px;font-stretch:normal;font-style:normal;font-weight:normal;" transform="translate(149.922344 405.983875)">    dataset: lgn_pronostic_PCA, input_dim: 17 </text>
     <text style="font-family:DejaVu Sans;font-size:10px;font-stretch:normal;font-style:normal;font-weight:normal;" transform="translate(194.3825 417.459812)">    c_index: [0.69 0.66 0.72]</text>
    </g>
   </g>
   <g id="matplotlib.axis_2">
    <g id="ytick_1">
     <g id="line2d_15">
      <path clip-path="url(#p5bc7648cd0)" d="M 33.64 353.429995 
L 493.2 353.429995 
" style="fill:none;stroke:#b0b0b0;stroke-dasharray:2.96,1.28;stroke-dashoffset:0;stroke-opacity:0.5;stroke-width:0.8;"/>
     </g>
     <g id="line2d_16">
      <defs>
       <path d="M 0 0 
L -3.5 0 
" id="m1cb08a149d" style="stroke:#000000;stroke-width:0.8;"/>
      </defs>
      <g>
       <use style="stroke:#000000;stroke-width:0.8;" x="33.64" xlink:href="#m1cb08a149d" y="353.429995"/>
      </g>
     </g>
     <g id="text_9">
      <text style="font-family:DejaVu Sans;font-size:10px;font-stretch:normal;font-style:normal;font-weight:normal;text-anchor:end;" transform="rotate(-0, 26.64, 357.229214)" x="26.64" y="357.229214">0.0</text>
     </g>
    </g>
    <g id="ytick_2">
     <g id="line2d_17">
      <path clip-path="url(#p5bc7648cd0)" d="M 33.64 291.207537 
L 493.2 291.207537 
" style="fill:none;stroke:#b0b0b0;stroke-dasharray:2.96,1.28;stroke-dashoffset:0;stroke-opacity:0.5;stroke-width:0.8;"/>
     </g>
     <g id="line2d_18">
      <g>
       <use style="stroke:#000000;stroke-width:0.8;" x="33.64" xlink:href="#m1cb08a149d" y="291.207537"/>
      </g>
     </g>
     <g id="text_10">
      <text style="font-family:DejaVu Sans;font-size:10px;font-stretch:normal;font-style:normal;font-weight:normal;text-anchor:end;" transform="rotate(-0, 26.64, 295.006756)" x="26.64" y="295.006756">0.2</text>
     </g>
    </g>
    <g id="ytick_3">
     <g id="line2d_19">
      <path clip-path="url(#p5bc7648cd0)" d="M 33.64 228.985079 
L 493.2 228.985079 
" style="fill:none;stroke:#b0b0b0;stroke-dasharray:2.96,1.28;stroke-dashoffset:0;stroke-opacity:0.5;stroke-width:0.8;"/>
     </g>
     <g id="line2d_20">
      <g>
       <use style="stroke:#000000;stroke-width:0.8;" x="33.64" xlink:href="#m1cb08a149d" y="228.985079"/>
      </g>
     </g>
     <g id="text_11">
      <text style="font-family:DejaVu Sans;font-size:10px;font-stretch:normal;font-style:normal;font-weight:normal;text-anchor:end;" transform="rotate(-0, 26.64, 232.784298)" x="26.64" y="232.784298">0.4</text>
     </g>
    </g>
    <g id="ytick_4">
     <g id="line2d_21">
      <path clip-path="url(#p5bc7648cd0)" d="M 33.64 166.762621 
L 493.2 166.762621 
" style="fill:none;stroke:#b0b0b0;stroke-dasharray:2.96,1.28;stroke-dashoffset:0;stroke-opacity:0.5;stroke-width:0.8;"/>
     </g>
     <g id="line2d_22">
      <g>
       <use style="stroke:#000000;stroke-width:0.8;" x="33.64" xlink:href="#m1cb08a149d" y="166.762621"/>
      </g>
     </g>
     <g id="text_12">
      <text style="font-family:DejaVu Sans;font-size:10px;font-stretch:normal;font-style:normal;font-weight:normal;text-anchor:end;" transform="rotate(-0, 26.64, 170.56184)" x="26.64" y="170.56184">0.6</text>
     </g>
    </g>
    <g id="ytick_5">
     <g id="line2d_23">
      <path clip-path="url(#p5bc7648cd0)" d="M 33.64 104.540163 
L 493.2 104.540163 
" style="fill:none;stroke:#b0b0b0;stroke-dasharray:2.96,1.28;stroke-dashoffset:0;stroke-opacity:0.5;stroke-width:0.8;"/>
     </g>
     <g id="line2d_24">
      <g>
       <use style="stroke:#000000;stroke-width:0.8;" x="33.64" xlink:href="#m1cb08a149d" y="104.540163"/>
      </g>
     </g>
     <g id="text_13">
      <text style="font-family:DejaVu Sans;font-size:10px;font-stretch:normal;font-style:normal;font-weight:normal;text-anchor:end;" transform="rotate(-0, 26.64, 108.339381)" x="26.64" y="108.339381">0.8</text>
     </g>
    </g>
    <g id="ytick_6">
     <g id="line2d_25">
      <path clip-path="url(#p5bc7648cd0)" d="M 33.64 42.317705 
L 493.2 42.317705 
" style="fill:none;stroke:#b0b0b0;stroke-dasharray:2.96,1.28;stroke-dashoffset:0;stroke-opacity:0.5;stroke-width:0.8;"/>
     </g>
     <g id="line2d_26">
      <g>
       <use style="stroke:#000000;stroke-width:0.8;" x="33.64" xlink:href="#m1cb08a149d" y="42.317705"/>
      </g>
     </g>
     <g id="text_14">
      <text style="font-family:DejaVu Sans;font-size:10px;font-stretch:normal;font-style:normal;font-weight:normal;text-anchor:end;" transform="rotate(-0, 26.64, 46.116923)" x="26.64" y="46.116923">1.0</text>
     </g>
    </g>
   </g>
   <g id="line2d_27">
    <defs>
     <path d="M -3 3 
L 3 -3 
M -3 -3 
L 3 3 
" id="ma11d50ceb7" style="stroke:#ff0000;"/>
    </defs>
    <g clip-path="url(#p5bc7648cd0)">
     <use style="fill:#ff0000;stroke:#ff0000;" x="208.262828" xlink:href="#ma11d50ceb7" y="337.475519"/>
     <use style="fill:#ff0000;stroke:#ff0000;" x="248.704496" xlink:href="#ma11d50ceb7" y="342.793678"/>
     <use style="fill:#ff0000;stroke:#ff0000;" x="376.746694" xlink:href="#ma11d50ceb7" y="342.793678"/>
    </g>
   </g>
   <g id="line2d_28">
    <path clip-path="url(#p5bc7648cd0)" d="M 54.529091 42.317705 
L 55.083086 42.317705 
L 55.152336 50.294943 
L 55.290835 50.294943 
L 55.290835 54.283562 
L 55.567832 54.283562 
L 55.567832 58.272181 
L 55.775581 58.272181 
L 55.775581 62.2608 
L 55.91408 62.2608 
L 55.983329 70.238038 
L 56.052578 70.238038 
L 56.052578 78.215277 
L 56.398826 78.215277 
L 56.398826 82.203896 
L 56.537324 82.203896 
L 56.537324 86.192515 
L 56.952821 86.192515 
L 57.02207 98.158372 
L 57.783814 98.158372 
L 57.783814 102.146991 
L 58.060812 102.146991 
L 58.060812 106.13561 
L 58.822556 106.13561 
L 58.822556 110.124229 
L 59.861297 110.124229 
L 59.861297 114.112849 
L 60.138295 114.112849 
L 60.138295 122.090087 
L 60.276794 122.090087 
L 60.276794 126.078706 
L 60.553791 126.078706 
L 60.623041 134.055944 
L 60.830789 134.055944 
L 60.830789 138.044563 
L 60.969288 138.044563 
L 60.969288 142.033182 
L 61.246286 142.033182 
L 61.246286 146.021801 
L 61.523283 146.021801 
L 61.523283 150.010421 
L 62.215778 150.010421 
L 62.215778 153.99904 
L 63.323769 153.99904 
L 63.323769 157.987659 
L 63.739265 157.987659 
L 63.739265 161.976278 
L 63.947014 161.976278 
L 64.016263 169.953516 
L 64.570258 169.953516 
L 64.570258 173.942135 
L 64.778007 173.942135 
L 64.778007 177.930754 
L 65.055004 177.930754 
L 65.055004 185.907993 
L 65.193503 185.907993 
L 65.193503 189.896612 
L 65.678249 189.896612 
L 65.678249 193.885231 
L 66.439993 193.885231 
L 66.439993 197.87385 
L 66.647741 197.87385 
L 66.647741 201.862469 
L 68.932973 201.862469 
L 68.932973 209.839707 
L 69.763966 209.839707 
L 69.763966 213.828326 
L 70.733458 213.828326 
L 70.802707 221.805565 
L 70.871957 221.805565 
L 70.871957 225.794184 
L 71.218204 225.794184 
L 71.218204 229.782803 
L 71.979948 229.782803 
L 71.979948 233.771422 
L 72.187696 233.771422 
L 72.187696 237.760041 
L 73.018689 237.760041 
L 73.018689 241.74866 
L 74.195929 241.74866 
L 74.195929 245.737279 
L 75.30392 245.737279 
L 75.30392 249.725898 
L 75.442419 249.725898 
L 75.442419 253.714518 
L 75.788666 253.714518 
L 75.788666 257.703137 
L 75.996415 257.703137 
L 75.996415 261.691756 
L 76.55041 261.691756 
L 76.55041 265.680375 
L 77.242904 265.680375 
L 77.242904 269.668994 
L 78.143147 269.668994 
L 78.143147 273.657613 
L 79.320387 273.657613 
L 79.320387 277.646232 
L 81.813367 277.646232 
L 81.813367 281.634851 
L 82.021115 281.634851 
L 82.021115 285.62347 
L 84.029349 285.62347 
L 84.029349 289.61209 
L 88.599811 289.61209 
L 88.599811 293.600709 
L 89.777051 293.600709 
L 89.777051 297.589328 
L 98.779477 297.589328 
L 98.779477 301.577947 
L 99.194974 301.577947 
L 99.194974 305.566566 
L 101.618704 305.566566 
L 101.618704 309.555185 
L 110.274883 309.555185 
L 110.274883 313.543804 
L 111.86762 313.543804 
L 111.86762 317.532423 
L 116.645831 317.532423 
L 116.645831 321.521042 
L 131.118962 321.521042 
L 131.118962 325.509662 
L 137.351411 325.509662 
L 137.351411 329.498281 
L 151.201297 329.498281 
L 151.201297 333.4869 
L 204.800357 333.4869 
L 204.800357 337.475519 
L 209.024572 337.475519 
L 209.024572 342.793678 
L 376.746694 342.793678 
L 376.746694 342.793678 
" style="fill:none;stroke:#ff0000;stroke-linecap:square;stroke-width:1.5;"/>
   </g>
   <g id="line2d_29">
    <defs>
     <path d="M -3 3 
L 3 -3 
M -3 -3 
L 3 3 
" id="m9cc3033661" style="stroke:#0000ff;"/>
    </defs>
    <g clip-path="url(#p5bc7648cd0)">
     <use style="fill:#0000ff;stroke:#0000ff;" x="182.709788" xlink:href="#m9cc3033661" y="146.021801"/>
     <use style="fill:#0000ff;stroke:#0000ff;" x="184.579523" xlink:href="#m9cc3033661" y="146.021801"/>
     <use style="fill:#0000ff;stroke:#0000ff;" x="187.834246" xlink:href="#m9cc3033661" y="146.021801"/>
     <use style="fill:#0000ff;stroke:#0000ff;" x="193.651198" xlink:href="#m9cc3033661" y="146.021801"/>
     <use style="fill:#0000ff;stroke:#0000ff;" x="208.678325" xlink:href="#m9cc3033661" y="146.021801"/>
     <use style="fill:#0000ff;stroke:#0000ff;" x="218.373245" xlink:href="#m9cc3033661" y="154.318129"/>
     <use style="fill:#0000ff;stroke:#0000ff;" x="226.26768" xlink:href="#m9cc3033661" y="154.318129"/>
     <use style="fill:#0000ff;stroke:#0000ff;" x="232.153882" xlink:href="#m9cc3033661" y="154.318129"/>
     <use style="fill:#0000ff;stroke:#0000ff;" x="235.685603" xlink:href="#m9cc3033661" y="154.318129"/>
     <use style="fill:#0000ff;stroke:#0000ff;" x="245.519022" xlink:href="#m9cc3033661" y="154.318129"/>
     <use style="fill:#0000ff;stroke:#0000ff;" x="253.759704" xlink:href="#m9cc3033661" y="154.318129"/>
     <use style="fill:#0000ff;stroke:#0000ff;" x="263.177627" xlink:href="#m9cc3033661" y="154.318129"/>
     <use style="fill:#0000ff;stroke:#0000ff;" x="280.697733" xlink:href="#m9cc3033661" y="154.318129"/>
     <use style="fill:#0000ff;stroke:#0000ff;" x="284.160205" xlink:href="#m9cc3033661" y="154.318129"/>
     <use style="fill:#0000ff;stroke:#0000ff;" x="289.838658" xlink:href="#m9cc3033661" y="154.318129"/>
     <use style="fill:#0000ff;stroke:#0000ff;" x="316.638188" xlink:href="#m9cc3033661" y="154.318129"/>
     <use style="fill:#0000ff;stroke:#0000ff;" x="322.039643" xlink:href="#m9cc3033661" y="154.318129"/>
     <use style="fill:#0000ff;stroke:#0000ff;" x="333.881296" xlink:href="#m9cc3033661" y="154.318129"/>
     <use style="fill:#0000ff;stroke:#0000ff;" x="344.060963" xlink:href="#m9cc3033661" y="154.318129"/>
     <use style="fill:#0000ff;stroke:#0000ff;" x="357.910849" xlink:href="#m9cc3033661" y="154.318129"/>
     <use style="fill:#0000ff;stroke:#0000ff;" x="370.652744" xlink:href="#m9cc3033661" y="154.318129"/>
     <use style="fill:#0000ff;stroke:#0000ff;" x="383.256141" xlink:href="#m9cc3033661" y="154.318129"/>
     <use style="fill:#0000ff;stroke:#0000ff;" x="391.566072" xlink:href="#m9cc3033661" y="154.318129"/>
     <use style="fill:#0000ff;stroke:#0000ff;" x="398.491015" xlink:href="#m9cc3033661" y="154.318129"/>
     <use style="fill:#0000ff;stroke:#0000ff;" x="408.393684" xlink:href="#m9cc3033661" y="154.318129"/>
     <use style="fill:#0000ff;stroke:#0000ff;" x="425.221296" xlink:href="#m9cc3033661" y="154.318129"/>
     <use style="fill:#0000ff;stroke:#0000ff;" x="432.907983" xlink:href="#m9cc3033661" y="154.318129"/>
     <use style="fill:#0000ff;stroke:#0000ff;" x="441.356413" xlink:href="#m9cc3033661" y="154.318129"/>
     <use style="fill:#0000ff;stroke:#0000ff;" x="458.184025" xlink:href="#m9cc3033661" y="154.318129"/>
    </g>
   </g>
   <g id="line2d_30">
    <path clip-path="url(#p5bc7648cd0)" d="M 54.529091 42.317705 
L 55.360084 42.317705 
L 55.360084 49.231311 
L 59.51505 49.231311 
L 59.51505 56.144917 
L 61.731032 56.144917 
L 61.731032 63.058524 
L 64.085512 63.058524 
L 64.085512 69.97213 
L 75.580918 69.97213 
L 75.580918 76.885737 
L 82.090365 76.885737 
L 82.090365 83.799343 
L 86.31458 83.799343 
L 86.31458 90.71295 
L 88.045816 90.71295 
L 88.045816 97.626556 
L 89.084557 97.626556 
L 89.084557 104.540163 
L 95.524754 104.540163 
L 95.524754 111.453769 
L 100.233715 111.453769 
L 100.233715 118.367376 
L 106.812411 118.367376 
L 106.812411 125.280982 
L 114.152851 125.280982 
L 114.152851 132.194589 
L 118.654064 132.194589 
L 118.654064 139.108195 
L 179.108818 139.108195 
L 179.108818 146.021801 
L 182.709788 146.021801 
L 182.709788 146.021801 
L 184.579523 146.021801 
L 184.579523 146.021801 
L 187.834246 146.021801 
L 187.834246 146.021801 
L 193.651198 146.021801 
L 193.651198 146.021801 
L 208.678325 146.021801 
L 208.678325 146.021801 
L 218.026998 146.021801 
L 218.026998 154.318129 
L 218.373245 154.318129 
L 218.373245 154.318129 
L 226.26768 154.318129 
L 226.26768 154.318129 
L 232.153882 154.318129 
L 232.153882 154.318129 
L 235.685603 154.318129 
L 235.685603 154.318129 
L 245.519022 154.318129 
L 245.519022 154.318129 
L 253.759704 154.318129 
L 253.759704 154.318129 
L 263.177627 154.318129 
L 263.177627 154.318129 
L 280.697733 154.318129 
L 280.697733 154.318129 
L 284.160205 154.318129 
L 284.160205 154.318129 
L 289.838658 154.318129 
L 289.838658 154.318129 
L 316.638188 154.318129 
L 316.638188 154.318129 
L 322.039643 154.318129 
L 322.039643 154.318129 
L 333.881296 154.318129 
L 333.881296 154.318129 
L 344.060963 154.318129 
L 344.060963 154.318129 
L 357.910849 154.318129 
L 357.910849 154.318129 
L 370.652744 154.318129 
L 370.652744 154.318129 
L 383.256141 154.318129 
L 383.256141 154.318129 
L 391.566072 154.318129 
L 391.566072 154.318129 
L 398.491015 154.318129 
L 398.491015 154.318129 
L 408.393684 154.318129 
L 408.393684 154.318129 
L 425.221296 154.318129 
L 425.221296 154.318129 
L 432.907983 154.318129 
L 432.907983 154.318129 
L 441.356413 154.318129 
L 441.356413 154.318129 
L 458.184025 154.318129 
L 458.184025 154.318129 
" style="fill:none;stroke:#0000ff;stroke-linecap:square;stroke-width:1.5;"/>
   </g>
   <g id="line2d_31">
    <defs>
     <path d="M -3 3 
L 3 -3 
M -3 -3 
L 3 3 
" id="m4ef7eaa755" style="stroke:#808080;"/>
    </defs>
    <g clip-path="url(#p5bc7648cd0)">
     <use style="fill:#808080;stroke:#808080;" x="59.861297" xlink:href="#m4ef7eaa755" y="77.471636"/>
     <use style="fill:#808080;stroke:#808080;" x="95.386255" xlink:href="#m4ef7eaa755" y="218.988743"/>
     <use style="fill:#808080;stroke:#808080;" x="187.3495" xlink:href="#m4ef7eaa755" y="256.632294"/>
     <use style="fill:#808080;stroke:#808080;" x="189.703981" xlink:href="#m4ef7eaa755" y="258.458666"/>
     <use style="fill:#808080;stroke:#808080;" x="191.850713" xlink:href="#m4ef7eaa755" y="258.458666"/>
     <use style="fill:#808080;stroke:#808080;" x="198.983404" xlink:href="#m4ef7eaa755" y="260.358092"/>
     <use style="fill:#808080;stroke:#808080;" x="206.254595" xlink:href="#m4ef7eaa755" y="260.358092"/>
     <use style="fill:#808080;stroke:#808080;" x="224.259447" xlink:href="#m4ef7eaa755" y="268.279105"/>
     <use style="fill:#808080;stroke:#808080;" x="227.444921" xlink:href="#m4ef7eaa755" y="268.279105"/>
     <use style="fill:#808080;stroke:#808080;" x="237.001342" xlink:href="#m4ef7eaa755" y="268.279105"/>
     <use style="fill:#808080;stroke:#808080;" x="237.901585" xlink:href="#m4ef7eaa755" y="268.279105"/>
     <use style="fill:#808080;stroke:#808080;" x="241.156308" xlink:href="#m4ef7eaa755" y="268.279105"/>
     <use style="fill:#808080;stroke:#808080;" x="252.859462" xlink:href="#m4ef7eaa755" y="270.580481"/>
     <use style="fill:#808080;stroke:#808080;" x="261.377142" xlink:href="#m4ef7eaa755" y="272.94761"/>
     <use style="fill:#808080;stroke:#808080;" x="266.43235" xlink:href="#m4ef7eaa755" y="275.38647"/>
     <use style="fill:#808080;stroke:#808080;" x="269.133078" xlink:href="#m4ef7eaa755" y="275.38647"/>
     <use style="fill:#808080;stroke:#808080;" x="270.10257" xlink:href="#m4ef7eaa755" y="275.38647"/>
     <use style="fill:#808080;stroke:#808080;" x="280.420735" xlink:href="#m4ef7eaa755" y="275.38647"/>
     <use style="fill:#808080;stroke:#808080;" x="295.586361" xlink:href="#m4ef7eaa755" y="275.38647"/>
     <use style="fill:#808080;stroke:#808080;" x="302.234306" xlink:href="#m4ef7eaa755" y="275.38647"/>
     <use style="fill:#808080;stroke:#808080;" x="322.385891" xlink:href="#m4ef7eaa755" y="275.38647"/>
     <use style="fill:#808080;stroke:#808080;" x="330.626573" xlink:href="#m4ef7eaa755" y="275.38647"/>
     <use style="fill:#808080;stroke:#808080;" x="330.765072" xlink:href="#m4ef7eaa755" y="275.38647"/>
     <use style="fill:#808080;stroke:#808080;" x="333.535049" xlink:href="#m4ef7eaa755" y="275.38647"/>
     <use style="fill:#808080;stroke:#808080;" x="333.673548" xlink:href="#m4ef7eaa755" y="275.38647"/>
     <use style="fill:#808080;stroke:#808080;" x="333.812047" xlink:href="#m4ef7eaa755" y="275.38647"/>
     <use style="fill:#808080;stroke:#808080;" x="338.31326" xlink:href="#m4ef7eaa755" y="275.38647"/>
     <use style="fill:#808080;stroke:#808080;" x="351.609151" xlink:href="#m4ef7eaa755" y="279.722221"/>
     <use style="fill:#808080;stroke:#808080;" x="356.52586" xlink:href="#m4ef7eaa755" y="279.722221"/>
     <use style="fill:#808080;stroke:#808080;" x="359.503586" xlink:href="#m4ef7eaa755" y="279.722221"/>
     <use style="fill:#808080;stroke:#808080;" x="374.738461" xlink:href="#m4ef7eaa755" y="279.722221"/>
     <use style="fill:#808080;stroke:#808080;" x="380.693912" xlink:href="#m4ef7eaa755" y="285.39205"/>
     <use style="fill:#808080;stroke:#808080;" x="388.726846" xlink:href="#m4ef7eaa755" y="285.39205"/>
     <use style="fill:#808080;stroke:#808080;" x="389.904086" xlink:href="#m4ef7eaa755" y="285.39205"/>
     <use style="fill:#808080;stroke:#808080;" x="392.604814" xlink:href="#m4ef7eaa755" y="285.39205"/>
     <use style="fill:#808080;stroke:#808080;" x="393.505056" xlink:href="#m4ef7eaa755" y="285.39205"/>
     <use style="fill:#808080;stroke:#808080;" x="405.069711" xlink:href="#m4ef7eaa755" y="285.39205"/>
     <use style="fill:#808080;stroke:#808080;" x="445.926876" xlink:href="#m4ef7eaa755" y="285.39205"/>
     <use style="fill:#808080;stroke:#808080;" x="455.483297" xlink:href="#m4ef7eaa755" y="285.39205"/>
     <use style="fill:#808080;stroke:#808080;" x="459.499764" xlink:href="#m4ef7eaa755" y="285.39205"/>
     <use style="fill:#808080;stroke:#808080;" x="463.931728" xlink:href="#m4ef7eaa755" y="285.39205"/>
     <use style="fill:#808080;stroke:#808080;" x="464.347225" xlink:href="#m4ef7eaa755" y="285.39205"/>
     <use style="fill:#808080;stroke:#808080;" x="472.310909" xlink:href="#m4ef7eaa755" y="285.39205"/>
    </g>
   </g>
   <g id="line2d_32">
    <path clip-path="url(#p5bc7648cd0)" d="M 54.529091 42.317705 
L 55.360084 42.317705 
L 55.429334 49.348491 
L 55.498583 49.348491 
L 55.498583 51.106187 
L 56.052578 51.106187 
L 56.052578 54.62158 
L 56.191077 54.62158 
L 56.191077 56.379277 
L 56.329576 56.379277 
L 56.398826 59.89467 
L 56.606574 59.89467 
L 56.606574 61.652367 
L 56.883572 61.652367 
L 56.883572 63.410063 
L 57.02207 63.410063 
L 57.09132 66.925456 
L 58.33781 66.925456 
L 58.33781 68.683153 
L 59.030304 68.683153 
L 59.030304 70.440849 
L 59.307302 70.440849 
L 59.307302 72.198546 
L 59.584299 72.198546 
L 59.584299 73.956243 
L 59.722798 73.956243 
L 59.722798 77.471636 
L 60.415293 77.471636 
L 60.415293 79.2406 
L 61.592533 79.2406 
L 61.592533 82.778527 
L 62.008029 82.778527 
L 62.008029 84.547491 
L 62.146528 84.547491 
L 62.215778 88.085419 
L 62.285027 88.085419 
L 62.285027 89.854383 
L 62.839023 89.854383 
L 62.839023 91.623346 
L 63.046771 91.623346 
L 63.046771 93.39231 
L 63.462268 93.39231 
L 63.462268 95.161274 
L 63.877764 95.161274 
L 63.877764 98.699202 
L 64.43176 98.699202 
L 64.43176 100.468166 
L 64.708757 100.468166 
L 64.778007 104.006093 
L 64.916506 104.006093 
L 64.916506 107.544021 
L 65.470501 107.544021 
L 65.470501 109.312985 
L 65.816748 109.312985 
L 65.816748 111.081949 
L 65.955247 111.081949 
L 65.955247 112.850913 
L 66.093746 112.850913 
L 66.162995 116.38884 
L 66.716991 116.38884 
L 66.716991 118.157804 
L 67.409485 118.157804 
L 67.409485 119.926768 
L 67.617233 119.926768 
L 67.617233 121.695732 
L 68.309728 121.695732 
L 68.309728 125.23366 
L 68.863723 125.23366 
L 68.932973 128.771587 
L 69.071471 128.771587 
L 69.071471 130.540551 
L 69.27922 130.540551 
L 69.27922 134.078479 
L 69.833215 134.078479 
L 69.833215 135.847443 
L 70.941206 135.847443 
L 71.010456 141.154334 
L 71.218204 141.154334 
L 71.218204 142.923298 
L 71.356703 142.923298 
L 71.356703 144.692262 
L 71.495202 144.692262 
L 71.495202 146.461226 
L 71.772199 146.461226 
L 71.772199 148.230189 
L 71.910698 148.230189 
L 71.910698 149.999153 
L 72.049197 149.999153 
L 72.049197 151.768117 
L 72.741691 151.768117 
L 72.810941 155.306045 
L 73.572684 155.306045 
L 73.572684 157.075009 
L 74.334428 157.075009 
L 74.334428 158.843973 
L 74.680675 158.843973 
L 74.680675 160.612936 
L 75.026923 160.612936 
L 75.096172 165.919828 
L 75.30392 165.919828 
L 75.30392 167.688792 
L 75.442419 167.688792 
L 75.442419 169.457756 
L 75.996415 169.457756 
L 75.996415 172.995683 
L 76.55041 172.995683 
L 76.55041 176.533611 
L 76.758158 176.533611 
L 76.827408 180.071539 
L 77.242904 180.071539 
L 77.242904 181.840503 
L 77.935399 181.840503 
L 77.935399 183.609466 
L 79.251138 183.609466 
L 79.251138 185.37843 
L 79.528136 185.37843 
L 79.528136 187.147394 
L 79.735884 187.147394 
L 79.735884 188.916358 
L 80.082131 188.916358 
L 80.082131 190.685322 
L 80.22063 190.685322 
L 80.22063 192.454286 
L 82.228863 192.454286 
L 82.228863 194.223249 
L 82.436612 194.223249 
L 82.436612 195.992213 
L 84.514095 195.992213 
L 84.514095 197.761177 
L 85.137339 197.761177 
L 85.206589 201.299105 
L 85.414337 201.299105 
L 85.414337 203.068069 
L 85.552836 203.068069 
L 85.552836 204.837032 
L 88.045816 204.837032 
L 88.045816 206.605996 
L 88.322813 206.605996 
L 88.392063 210.143924 
L 88.599811 210.143924 
L 88.66906 213.681852 
L 90.469546 213.681852 
L 90.538795 217.219779 
L 91.508287 217.219779 
L 91.508287 218.988743 
L 96.217248 218.988743 
L 96.217248 220.781293 
L 101.687954 220.781293 
L 101.687954 222.573843 
L 101.826452 222.573843 
L 101.826452 224.366393 
L 103.488439 224.366393 
L 103.488439 226.158943 
L 104.52718 226.158943 
L 104.52718 227.951493 
L 108.128151 227.951493 
L 108.128151 229.744043 
L 110.69038 229.744043 
L 110.69038 231.536593 
L 112.629364 231.536593 
L 112.629364 233.329143 
L 112.767863 233.329143 
L 112.767863 235.121693 
L 113.183359 235.121693 
L 113.183359 236.914244 
L 121.008545 236.914244 
L 121.008545 238.706794 
L 122.462783 238.706794 
L 122.462783 240.499344 
L 129.803223 240.499344 
L 129.803223 242.291894 
L 130.772715 242.291894 
L 130.772715 244.084444 
L 138.5979 244.084444 
L 138.5979 245.876994 
L 150.231805 245.876994 
L 150.231805 247.669544 
L 156.118006 247.669544 
L 156.118006 249.462094 
L 162.9737 249.462094 
L 162.9737 251.254644 
L 165.743677 251.254644 
L 165.743677 253.047194 
L 168.305906 253.047194 
L 168.305906 254.839744 
L 181.463298 254.839744 
L 181.463298 256.632294 
L 187.557248 256.632294 
L 187.557248 258.458666 
L 198.221661 258.458666 
L 198.221661 260.358092 
L 207.362585 260.358092 
L 207.362585 262.338345 
L 209.509318 262.338345 
L 209.509318 264.318599 
L 215.257021 264.318599 
L 215.257021 266.298852 
L 218.165497 266.298852 
L 218.165497 268.279105 
L 249.46624 268.279105 
L 249.46624 270.580481 
L 258.122419 270.580481 
L 258.122419 272.94761 
L 265.878355 272.94761 
L 265.878355 275.38647 
L 347.800432 275.38647 
L 347.800432 279.722221 
L 377.716186 279.722221 
L 377.716186 285.39205 
L 472.310909 285.39205 
L 472.310909 285.39205 
" style="fill:none;stroke:#808080;stroke-linecap:square;stroke-width:1.5;"/>
   </g>
   <g id="patch_3">
    <path d="M 33.64 366.5095 
L 33.64 26.88 
" style="fill:none;stroke:#000000;stroke-linecap:square;stroke-linejoin:miter;stroke-width:0.8;"/>
   </g>
   <g id="patch_4">
    <path d="M 493.2 366.5095 
L 493.2 26.88 
" style="fill:none;stroke:#000000;stroke-linecap:square;stroke-linejoin:miter;stroke-width:0.8;"/>
   </g>
   <g id="patch_5">
    <path d="M 33.64 366.5095 
L 493.2 366.5095 
" style="fill:none;stroke:#000000;stroke-linecap:square;stroke-linejoin:miter;stroke-width:0.8;"/>
   </g>
   <g id="patch_6">
    <path d="M 33.64 26.88 
L 493.2 26.88 
" style="fill:none;stroke:#000000;stroke-linecap:square;stroke-linejoin:miter;stroke-width:0.8;"/>
   </g>
   <g id="text_15">
    <text style="font-family:DejaVu Sans;font-size:12px;font-stretch:normal;font-style:normal;font-weight:normal;text-anchor:middle;" transform="rotate(-0, 263.42, 20.88)" x="263.42" y="20.88">Survival curves - model_type: ridge_cph_lifelines</text>
   </g>
   <g id="legend_1">
    <g id="patch_7">
     <path d="M 349.195312 78.914375 
L 486.2 78.914375 
Q 488.2 78.914375 488.2 76.914375 
L 488.2 33.88 
Q 488.2 31.88 486.2 31.88 
L 349.195312 31.88 
Q 347.195312 31.88 347.195312 33.88 
L 347.195312 76.914375 
Q 347.195312 78.914375 349.195312 78.914375 
z
" style="fill:#ffffff;opacity:0.8;stroke:#cccccc;stroke-linejoin:miter;"/>
    </g>
    <g id="line2d_33">
     <path d="M 351.195312 39.978437 
L 371.195312 39.978437 
" style="fill:none;stroke:#ff0000;stroke-linecap:square;stroke-width:1.5;"/>
    </g>
    <g id="line2d_34"/>
    <g id="text_16">
     <text style="font-family:DejaVu Sans;font-size:10px;font-stretch:normal;font-style:normal;font-weight:normal;text-anchor:start;" transform="rotate(-0, 379.195312, 43.478437)" x="379.195312" y="43.478437">adv. risk (n:78 c:3 )</text>
    </g>
    <g id="line2d_35">
     <path d="M 351.195312 54.656563 
L 371.195312 54.656563 
" style="fill:none;stroke:#0000ff;stroke-linecap:square;stroke-width:1.5;"/>
    </g>
    <g id="line2d_36"/>
    <g id="text_17">
     <text style="font-family:DejaVu Sans;font-size:10px;font-stretch:normal;font-style:normal;font-weight:normal;text-anchor:start;" transform="rotate(-0, 379.195312, 58.156563)" x="379.195312" y="58.156563">fav. risk (n:45 c:29)</text>
    </g>
    <g id="line2d_37">
     <path d="M 351.195312 69.334687 
L 371.195312 69.334687 
" style="fill:none;stroke:#808080;stroke-linecap:square;stroke-width:1.5;"/>
    </g>
    <g id="line2d_38"/>
    <g id="text_18">
     <text style="font-family:DejaVu Sans;font-size:10px;font-stretch:normal;font-style:normal;font-weight:normal;text-anchor:start;" transform="rotate(-0, 379.195312, 72.834687)" x="379.195312" y="72.834687">int. risk (n:177 c:45 )</text>
    </g>
   </g>
  </g>
 </g>
 <defs>
  <clipPath id="p5bc7648cd0">
   <rect height="339.6295" width="459.56" x="33.64" y="26.88"/>
  </clipPath>
 </defs>
</svg>
