<?xml version="1.0" encoding="utf-8" standalone="no"?>
<!DOCTYPE svg PUBLIC "-//W3C//DTD SVG 1.1//EN"
  "http://www.w3.org/Graphics/SVG/1.1/DTD/svg11.dtd">
<!-- Created with matplotlib (https://matplotlib.org/) -->
<svg height="432pt" version="1.1" viewBox="0 0 504 432" width="504pt" xmlns="http://www.w3.org/2000/svg" xmlns:xlink="http://www.w3.org/1999/xlink">
 <metadata>
  <rdf:RDF xmlns:cc="http://creativecommons.org/ns#" xmlns:dc="http://purl.org/dc/elements/1.1/" xmlns:rdf="http://www.w3.org/1999/02/22-rdf-syntax-ns#">
   <cc:Work>
    <dc:type rdf:resource="http://purl.org/dc/dcmitype/StillImage"/>
    <dc:date>2022-11-15T14:31:28.485924</dc:date>
    <dc:format>image/svg+xml</dc:format>
    <dc:creator>
     <cc:Agent>
      <dc:title>Matplotlib v3.3.4, https://matplotlib.org/</dc:title>
     </cc:Agent>
    </dc:creator>
   </cc:Work>
  </rdf:RDF>
 </metadata>
 <defs>
  <style type="text/css">*{stroke-linecap:butt;stroke-linejoin:round;}</style>
 </defs>
 <g id="figure_1">
  <g id="patch_1">
   <path d="M 0 432 
L 504 432 
L 504 0 
L 0 0 
z
" style="fill:#ffffff;"/>
  </g>
  <g id="axes_1">
   <g id="patch_2">
    <path d="M 33.64 366.5095 
L 493.2 366.5095 
L 493.2 26.88 
L 33.64 26.88 
z
" style="fill:#ffffff;"/>
   </g>
   <g id="PolyCollection_1">
    <defs>
     <path d="M 54.529091 -389.682295 
L 54.529091 -389.682295 
L 55.290835 -389.682295 
L 55.290835 -362.595641 
L 55.360084 -362.595641 
L 55.360084 -359.15451 
L 55.775581 -359.15451 
L 55.775581 -354.247429 
L 55.91408 -354.247429 
L 55.91408 -349.180492 
L 56.052578 -349.180492 
L 56.052578 -334.2771 
L 56.329576 -334.2771 
L 56.329576 -329.453902 
L 56.537324 -329.453902 
L 56.537324 -324.697618 
L 56.952821 -324.697618 
L 56.952821 -320.002898 
L 57.02207 -320.002898 
L 57.02207 -310.778787 
L 57.783814 -310.778787 
L 57.783814 -306.241095 
L 58.060812 -306.241095 
L 58.060812 -301.748316 
L 58.33781 -301.748316 
L 58.33781 -297.297518 
L 58.822556 -297.297518 
L 58.822556 -292.886149 
L 59.030304 -292.886149 
L 59.030304 -288.511977 
L 59.584299 -288.511977 
L 59.584299 -284.173047 
L 59.861297 -284.173047 
L 59.861297 -279.867639 
L 60.138295 -279.867639 
L 60.138295 -275.594239 
L 60.276794 -275.594239 
L 60.276794 -271.351508 
L 60.415293 -271.351508 
L 60.415293 -267.138258 
L 60.623041 -267.138258 
L 60.623041 -262.95344 
L 60.830789 -262.95344 
L 60.830789 -258.796117 
L 60.969288 -258.796117 
L 60.969288 -254.665463 
L 61.246286 -254.665463 
L 61.246286 -250.56074 
L 61.523283 -250.56074 
L 61.523283 -246.481297 
L 61.592533 -246.481297 
L 61.592533 -242.426558 
L 62.215778 -242.426558 
L 62.215778 -238.396017 
L 62.285027 -238.396017 
L 62.285027 -234.389228 
L 62.839023 -234.389228 
L 62.839023 -230.405808 
L 63.046771 -230.405808 
L 63.046771 -226.445426 
L 63.323769 -226.445426 
L 63.323769 -222.5078 
L 63.462268 -222.5078 
L 63.462268 -218.592698 
L 63.739265 -218.592698 
L 63.739265 -214.699936 
L 63.877764 -214.699936 
L 63.877764 -210.829369 
L 63.947014 -210.829369 
L 63.947014 -206.980898 
L 64.43176 -206.980898 
L 64.43176 -203.154465 
L 64.708757 -203.154465 
L 64.708757 -199.350052 
L 64.778007 -199.350052 
L 64.778007 -195.567683 
L 64.916506 -195.567683 
L 64.916506 -191.807422 
L 65.055004 -191.807422 
L 65.055004 -184.353691 
L 65.193503 -184.353691 
L 65.193503 -180.660562 
L 65.678249 -180.660562 
L 65.678249 -176.990226 
L 65.816748 -176.990226 
L 65.816748 -173.342968 
L 66.162995 -173.342968 
L 66.162995 -169.719124 
L 66.439993 -169.719124 
L 66.439993 -166.119086 
L 66.647741 -166.119086 
L 66.647741 -162.5433 
L 66.716991 -162.5433 
L 66.716991 -158.992279 
L 69.833215 -158.992279 
L 69.833215 -155.466603 
L 70.802707 -155.466603 
L 70.802707 -151.966927 
L 70.941206 -151.966927 
L 70.941206 -148.493991 
L 71.218204 -148.493991 
L 71.218204 -145.048628 
L 71.495202 -145.048628 
L 71.495202 -141.631776 
L 71.910698 -141.631776 
L 71.910698 -138.244492 
L 72.049197 -138.244492 
L 72.049197 -134.887968 
L 72.741691 -134.887968 
L 72.741691 -131.563554 
L 73.018689 -131.563554 
L 73.018689 -128.272781 
L 74.334428 -128.272781 
L 74.334428 -125.01739 
L 75.442419 -125.01739 
L 75.442419 -121.799372 
L 75.788666 -121.799372 
L 75.788666 -118.621019 
L 77.242904 -118.621019 
L 77.242904 -115.48498 
L 82.090365 -115.48498 
L 82.090365 -112.394342 
L 84.029349 -112.394342 
L 84.029349 -109.352733 
L 88.599811 -109.352733 
L 88.599811 -106.364462 
L 95.386255 -106.364462 
L 95.386255 -106.364462 
L 110.274883 -106.364462 
L 110.274883 -103.091536 
L 110.69038 -103.091536 
L 110.69038 -99.912108 
L 111.86762 -99.912108 
L 111.86762 -96.836813 
L 112.767863 -96.836813 
L 112.767863 -93.879516 
L 116.645831 -93.879516 
L 116.645831 -91.058784 
L 156.118006 -91.058784 
L 156.118006 -88.400383 
L 204.800357 -88.400383 
L 204.800357 -85.941806 
L 209.024572 -85.941806 
L 209.024572 -83.741317 
L 266.43235 -83.741317 
L 266.43235 -83.741317 
L 347.800432 -83.741317 
L 347.800432 -80.928205 
L 405.069711 -80.928205 
L 405.069711 -80.928205 
L 405.069711 -107.047861 
L 405.069711 -107.047861 
L 405.069711 -107.047861 
L 347.800432 -107.047861 
L 347.800432 -113.044688 
L 266.43235 -113.044688 
L 266.43235 -113.044688 
L 209.024572 -113.044688 
L 209.024572 -118.82476 
L 204.800357 -118.82476 
L 204.800357 -124.404433 
L 156.118006 -124.404433 
L 156.118006 -129.821826 
L 116.645831 -129.821826 
L 116.645831 -135.104655 
L 112.767863 -135.104655 
L 112.767863 -140.273123 
L 111.86762 -140.273123 
L 111.86762 -145.342307 
L 110.69038 -145.342307 
L 110.69038 -150.323729 
L 110.274883 -150.323729 
L 110.274883 -155.226389 
L 95.386255 -155.226389 
L 95.386255 -155.226389 
L 88.599811 -155.226389 
L 88.599811 -159.793759 
L 84.029349 -159.793759 
L 84.029349 -164.313442 
L 82.090365 -164.313442 
L 82.090365 -168.789124 
L 77.242904 -168.789124 
L 77.242904 -173.223918 
L 75.788666 -173.223918 
L 75.788666 -177.620481 
L 75.442419 -177.620481 
L 75.442419 -181.981094 
L 74.334428 -181.981094 
L 74.334428 -186.307731 
L 73.018689 -186.307731 
L 73.018689 -190.602112 
L 72.741691 -190.602112 
L 72.741691 -194.865739 
L 72.049197 -194.865739 
L 72.049197 -199.09993 
L 71.910698 -199.09993 
L 71.910698 -203.305849 
L 71.495202 -203.305849 
L 71.495202 -207.484519 
L 71.218204 -207.484519 
L 71.218204 -211.636849 
L 70.941206 -211.636849 
L 70.941206 -215.76364 
L 70.802707 -215.76364 
L 70.802707 -219.865603 
L 69.833215 -219.865603 
L 69.833215 -223.943363 
L 66.716991 -223.943363 
L 66.716991 -227.997473 
L 66.647741 -227.997473 
L 66.647741 -232.028419 
L 66.439993 -232.028419 
L 66.439993 -236.036625 
L 66.162995 -236.036625 
L 66.162995 -240.022456 
L 65.816748 -240.022456 
L 65.816748 -243.986226 
L 65.678249 -243.986226 
L 65.678249 -247.928202 
L 65.193503 -247.928202 
L 65.193503 -251.8486 
L 65.055004 -251.8486 
L 65.055004 -259.625318 
L 64.916506 -259.625318 
L 64.916506 -263.48186 
L 64.778007 -263.48186 
L 64.778007 -267.317272 
L 64.708757 -267.317272 
L 64.708757 -271.131562 
L 64.43176 -271.131562 
L 64.43176 -274.924703 
L 63.947014 -274.924703 
L 63.947014 -278.696624 
L 63.877764 -278.696624 
L 63.877764 -282.447218 
L 63.739265 -282.447218 
L 63.739265 -286.176332 
L 63.462268 -286.176332 
L 63.462268 -289.883773 
L 63.323769 -289.883773 
L 63.323769 -293.569303 
L 63.046771 -293.569303 
L 63.046771 -297.232637 
L 62.839023 -297.232637 
L 62.839023 -300.873438 
L 62.285027 -300.873438 
L 62.285027 -304.491318 
L 62.215778 -304.491318 
L 62.215778 -308.08583 
L 61.592533 -308.08583 
L 61.592533 -311.656466 
L 61.523283 -311.656466 
L 61.523283 -315.202646 
L 61.246286 -315.202646 
L 61.246286 -318.723717 
L 60.969288 -318.723717 
L 60.969288 -322.218939 
L 60.830789 -322.218939 
L 60.830789 -325.687481 
L 60.623041 -325.687481 
L 60.623041 -329.128401 
L 60.415293 -329.128401 
L 60.415293 -332.540637 
L 60.276794 -332.540637 
L 60.276794 -335.922988 
L 60.138295 -335.922988 
L 60.138295 -339.274089 
L 59.861297 -339.274089 
L 59.861297 -342.592387 
L 59.584299 -342.592387 
L 59.584299 -345.876108 
L 59.030304 -345.876108 
L 59.030304 -349.123213 
L 58.822556 -349.123213 
L 58.822556 -352.331342 
L 58.33781 -352.331342 
L 58.33781 -355.497751 
L 58.060812 -355.497751 
L 58.060812 -358.619215 
L 57.783814 -358.619215 
L 57.783814 -361.691912 
L 57.02207 -361.691912 
L 57.02207 -367.671677 
L 56.952821 -367.671677 
L 56.952821 -370.566281 
L 56.537324 -370.566281 
L 56.537324 -373.386392 
L 56.329576 -373.386392 
L 56.329576 -376.120809 
L 56.052578 -376.120809 
L 56.052578 -383.628927 
L 55.91408 -383.628927 
L 55.91408 -385.792901 
L 55.775581 -385.792901 
L 55.775581 -387.678609 
L 55.360084 -387.678609 
L 55.360084 -389.120361 
L 55.290835 -389.120361 
L 55.290835 -389.682295 
L 54.529091 -389.682295 
z
" id="md5d0e69acb" style="stroke:#ff0000;stroke-opacity:0.25;"/>
    </defs>
    <g clip-path="url(#p0d233206a8)">
     <use style="fill:#ff0000;fill-opacity:0.25;stroke:#ff0000;stroke-opacity:0.25;" x="0" xlink:href="#md5d0e69acb" y="432"/>
    </g>
   </g>
   <g id="PolyCollection_2">
    <defs>
     <path d="M 54.529091 -389.682295 
L 54.529091 -389.682295 
L 65.955247 -389.682295 
L 65.955247 -344.049496 
L 75.442419 -344.049496 
L 75.442419 -338.242641 
L 75.580918 -338.242641 
L 75.580918 -330.075948 
L 88.045816 -330.075948 
L 88.045816 -321.687162 
L 100.233715 -321.687162 
L 100.233715 -313.382116 
L 101.687954 -313.382116 
L 101.687954 -305.223217 
L 106.812411 -305.223217 
L 106.812411 -297.218752 
L 122.462783 -297.218752 
L 122.462783 -289.362782 
L 168.305906 -289.362782 
L 168.305906 -281.645965 
L 181.463298 -281.645965 
L 181.463298 -274.058864 
L 182.709788 -274.058864 
L 182.709788 -274.058864 
L 184.579523 -274.058864 
L 184.579523 -274.058864 
L 193.651198 -274.058864 
L 193.651198 -274.058864 
L 208.678325 -274.058864 
L 208.678325 -274.058864 
L 218.026998 -274.058864 
L 218.026998 -265.168286 
L 218.373245 -265.168286 
L 218.373245 -265.168286 
L 224.259447 -265.168286 
L 224.259447 -265.168286 
L 226.26768 -265.168286 
L 226.26768 -265.168286 
L 232.153882 -265.168286 
L 232.153882 -265.168286 
L 235.685603 -265.168286 
L 235.685603 -265.168286 
L 245.519022 -265.168286 
L 245.519022 -265.168286 
L 253.759704 -265.168286 
L 253.759704 -265.168286 
L 263.177627 -265.168286 
L 263.177627 -265.168286 
L 265.878355 -265.168286 
L 265.878355 -250.684782 
L 280.420735 -250.684782 
L 280.420735 -250.684782 
L 280.697733 -250.684782 
L 280.697733 -250.684782 
L 284.160205 -250.684782 
L 284.160205 -250.684782 
L 289.838658 -250.684782 
L 289.838658 -250.684782 
L 316.638188 -250.684782 
L 316.638188 -250.684782 
L 322.039643 -250.684782 
L 322.039643 -250.684782 
L 330.765072 -250.684782 
L 330.765072 -250.684782 
L 333.812047 -250.684782 
L 333.812047 -250.684782 
L 338.31326 -250.684782 
L 338.31326 -250.684782 
L 344.060963 -250.684782 
L 344.060963 -250.684782 
L 370.652744 -250.684782 
L 370.652744 -250.684782 
L 389.904086 -250.684782 
L 389.904086 -250.684782 
L 393.505056 -250.684782 
L 393.505056 -250.684782 
L 398.491015 -250.684782 
L 398.491015 -250.684782 
L 408.393684 -250.684782 
L 408.393684 -250.684782 
L 425.221296 -250.684782 
L 425.221296 -250.684782 
L 441.356413 -250.684782 
L 441.356413 -250.684782 
L 455.483297 -250.684782 
L 455.483297 -250.684782 
L 458.184025 -250.684782 
L 458.184025 -250.684782 
L 459.499764 -250.684782 
L 459.499764 -250.684782 
L 459.499764 -337.205755 
L 459.499764 -337.205755 
L 459.499764 -337.205755 
L 458.184025 -337.205755 
L 458.184025 -337.205755 
L 455.483297 -337.205755 
L 455.483297 -337.205755 
L 441.356413 -337.205755 
L 441.356413 -337.205755 
L 425.221296 -337.205755 
L 425.221296 -337.205755 
L 408.393684 -337.205755 
L 408.393684 -337.205755 
L 398.491015 -337.205755 
L 398.491015 -337.205755 
L 393.505056 -337.205755 
L 393.505056 -337.205755 
L 389.904086 -337.205755 
L 389.904086 -337.205755 
L 370.652744 -337.205755 
L 370.652744 -337.205755 
L 344.060963 -337.205755 
L 344.060963 -337.205755 
L 338.31326 -337.205755 
L 338.31326 -337.205755 
L 333.812047 -337.205755 
L 333.812047 -337.205755 
L 330.765072 -337.205755 
L 330.765072 -337.205755 
L 322.039643 -337.205755 
L 322.039643 -337.205755 
L 316.638188 -337.205755 
L 316.638188 -337.205755 
L 289.838658 -337.205755 
L 289.838658 -337.205755 
L 284.160205 -337.205755 
L 284.160205 -337.205755 
L 280.697733 -337.205755 
L 280.697733 -337.205755 
L 280.420735 -337.205755 
L 280.420735 -337.205755 
L 265.878355 -337.205755 
L 265.878355 -344.776748 
L 263.177627 -344.776748 
L 263.177627 -344.776748 
L 253.759704 -344.776748 
L 253.759704 -344.776748 
L 245.519022 -344.776748 
L 245.519022 -344.776748 
L 235.685603 -344.776748 
L 235.685603 -344.776748 
L 232.153882 -344.776748 
L 232.153882 -344.776748 
L 226.26768 -344.776748 
L 226.26768 -344.776748 
L 224.259447 -344.776748 
L 224.259447 -344.776748 
L 218.373245 -344.776748 
L 218.373245 -344.776748 
L 218.026998 -344.776748 
L 218.026998 -350.604242 
L 208.678325 -350.604242 
L 208.678325 -350.604242 
L 193.651198 -350.604242 
L 193.651198 -350.604242 
L 184.579523 -350.604242 
L 184.579523 -350.604242 
L 182.709788 -350.604242 
L 182.709788 -350.604242 
L 181.463298 -350.604242 
L 181.463298 -355.804883 
L 168.305906 -355.804883 
L 168.305906 -360.856139 
L 122.462783 -360.856139 
L 122.462783 -365.738748 
L 106.812411 -365.738748 
L 106.812411 -370.426957 
L 101.687954 -370.426957 
L 101.687954 -374.885071 
L 100.233715 -374.885071 
L 100.233715 -379.061142 
L 88.045816 -379.061142 
L 88.045816 -382.874184 
L 75.580918 -382.874184 
L 75.580918 -386.184239 
L 75.442419 -386.184239 
L 75.442419 -388.704305 
L 65.955247 -388.704305 
L 65.955247 -389.682295 
L 54.529091 -389.682295 
z
" id="mb2fa3804f8" style="stroke:#0000ff;stroke-opacity:0.25;"/>
    </defs>
    <g clip-path="url(#p0d233206a8)">
     <use style="fill:#0000ff;fill-opacity:0.25;stroke:#0000ff;stroke-opacity:0.25;" x="0" xlink:href="#mb2fa3804f8" y="432"/>
    </g>
   </g>
   <g id="PolyCollection_3">
    <defs>
     <path d="M 54.529091 -389.682295 
L 54.529091 -389.682295 
L 55.083086 -389.682295 
L 55.083086 -377.48292 
L 55.152336 -377.48292 
L 55.152336 -375.936511 
L 55.360084 -375.936511 
L 55.360084 -369.09472 
L 55.429334 -369.09472 
L 55.429334 -366.816604 
L 55.498583 -366.816604 
L 55.498583 -364.567156 
L 55.567832 -364.567156 
L 55.567832 -362.345512 
L 55.983329 -362.345512 
L 55.983329 -360.149638 
L 56.052578 -360.149638 
L 56.052578 -357.977312 
L 56.191077 -357.977312 
L 56.191077 -355.826433 
L 56.398826 -355.826433 
L 56.398826 -351.581696 
L 56.606574 -351.581696 
L 56.606574 -349.484722 
L 56.883572 -349.484722 
L 56.883572 -347.40292 
L 57.02207 -347.40292 
L 57.02207 -345.335176 
L 57.09132 -345.335176 
L 57.09132 -343.280506 
L 59.307302 -343.280506 
L 59.307302 -341.238046 
L 59.51505 -341.238046 
L 59.51505 -339.207025 
L 59.722798 -339.207025 
L 59.722798 -335.176632 
L 59.861297 -335.176632 
L 59.861297 -335.176632 
L 60.138295 -335.176632 
L 60.138295 -333.15965 
L 60.553791 -333.15965 
L 60.553791 -331.15213 
L 61.592533 -331.15213 
L 61.592533 -329.153585 
L 61.731032 -329.153585 
L 61.731032 -327.163575 
L 62.008029 -327.163575 
L 62.008029 -325.1817 
L 62.146528 -325.1817 
L 62.146528 -323.207597 
L 62.215778 -323.207597 
L 62.215778 -321.240934 
L 63.877764 -321.240934 
L 63.877764 -319.281406 
L 64.016263 -319.281406 
L 64.016263 -317.328734 
L 64.085512 -317.328734 
L 64.085512 -315.382661 
L 64.570258 -315.382661 
L 64.570258 -313.442947 
L 64.778007 -313.442947 
L 64.778007 -311.509375 
L 64.916506 -311.509375 
L 64.916506 -309.581739 
L 65.470501 -309.581739 
L 65.470501 -307.659851 
L 66.093746 -307.659851 
L 66.093746 -305.743533 
L 67.409485 -305.743533 
L 67.409485 -303.832623 
L 67.617233 -303.832623 
L 67.617233 -301.926965 
L 68.309728 -301.926965 
L 68.309728 -298.130844 
L 68.863723 -298.130844 
L 68.863723 -296.240121 
L 68.932973 -296.240121 
L 68.932973 -290.595901 
L 69.071471 -290.595901 
L 69.071471 -288.723461 
L 69.27922 -288.723461 
L 69.27922 -284.991468 
L 69.763966 -284.991468 
L 69.763966 -283.131745 
L 70.733458 -283.131745 
L 70.733458 -281.276098 
L 70.871957 -281.276098 
L 70.871957 -279.424454 
L 71.010456 -279.424454 
L 71.010456 -275.7329 
L 71.218204 -275.7329 
L 71.218204 -273.892862 
L 71.356703 -273.892862 
L 71.356703 -272.056571 
L 71.772199 -272.056571 
L 71.772199 -270.223971 
L 71.979948 -270.223971 
L 71.979948 -268.395008 
L 72.187696 -268.395008 
L 72.187696 -266.569634 
L 72.810941 -266.569634 
L 72.810941 -264.747801 
L 73.572684 -264.747801 
L 73.572684 -262.929463 
L 74.195929 -262.929463 
L 74.195929 -261.11458 
L 74.680675 -261.11458 
L 74.680675 -259.30311 
L 75.026923 -259.30311 
L 75.026923 -255.690264 
L 75.096172 -255.690264 
L 75.096172 -253.888817 
L 75.30392 -253.888817 
L 75.30392 -250.295719 
L 75.996415 -250.295719 
L 75.996415 -244.930134 
L 76.55041 -244.930134 
L 76.55041 -239.592838 
L 76.758158 -239.592838 
L 76.758158 -237.819927 
L 76.827408 -237.819927 
L 76.827408 -236.05008 
L 77.242904 -236.05008 
L 77.242904 -234.283281 
L 77.935399 -234.283281 
L 77.935399 -232.519515 
L 78.143147 -232.519515 
L 78.143147 -230.758768 
L 79.251138 -230.758768 
L 79.251138 -229.001029 
L 79.320387 -229.001029 
L 79.320387 -227.246286 
L 79.528136 -227.246286 
L 79.528136 -225.49453 
L 79.735884 -225.49453 
L 79.735884 -223.745751 
L 80.082131 -223.745751 
L 80.082131 -221.999944 
L 80.22063 -221.999944 
L 80.22063 -220.257102 
L 81.813367 -220.257102 
L 81.813367 -218.517218 
L 82.021115 -218.517218 
L 82.021115 -216.780291 
L 82.228863 -216.780291 
L 82.228863 -215.046317 
L 82.436612 -215.046317 
L 82.436612 -213.315293 
L 84.514095 -213.315293 
L 84.514095 -211.587221 
L 85.137339 -211.587221 
L 85.137339 -209.8621 
L 85.206589 -209.8621 
L 85.206589 -208.139933 
L 85.414337 -208.139933 
L 85.414337 -206.420721 
L 85.552836 -206.420721 
L 85.552836 -204.70447 
L 86.31458 -204.70447 
L 86.31458 -202.991184 
L 88.045816 -202.991184 
L 88.045816 -201.280869 
L 88.322813 -201.280869 
L 88.322813 -199.573533 
L 88.392063 -199.573533 
L 88.392063 -197.869185 
L 88.599811 -197.869185 
L 88.599811 -196.167835 
L 88.66906 -196.167835 
L 88.66906 -194.469493 
L 89.084557 -194.469493 
L 89.084557 -192.774172 
L 89.777051 -192.774172 
L 89.777051 -191.081885 
L 90.469546 -191.081885 
L 90.469546 -189.392647 
L 90.538795 -189.392647 
L 90.538795 -187.706474 
L 91.508287 -187.706474 
L 91.508287 -186.023383 
L 95.524754 -186.023383 
L 95.524754 -184.343394 
L 96.217248 -184.343394 
L 96.217248 -182.666527 
L 98.779477 -182.666527 
L 98.779477 -180.992803 
L 99.194974 -180.992803 
L 99.194974 -179.322245 
L 101.618704 -179.322245 
L 101.618704 -177.654879 
L 101.826452 -177.654879 
L 101.826452 -175.99073 
L 103.488439 -175.99073 
L 103.488439 -174.329826 
L 104.52718 -174.329826 
L 104.52718 -172.672198 
L 108.128151 -172.672198 
L 108.128151 -171.017877 
L 112.629364 -171.017877 
L 112.629364 -169.366895 
L 113.183359 -169.366895 
L 113.183359 -167.719289 
L 114.152851 -167.719289 
L 114.152851 -166.075096 
L 118.654064 -166.075096 
L 118.654064 -164.434355 
L 121.008545 -164.434355 
L 121.008545 -162.797108 
L 129.803223 -162.797108 
L 129.803223 -161.163399 
L 130.772715 -161.163399 
L 130.772715 -159.533275 
L 131.118962 -159.533275 
L 131.118962 -157.906784 
L 137.351411 -157.906784 
L 137.351411 -156.283979 
L 138.5979 -156.283979 
L 138.5979 -154.664914 
L 150.231805 -154.664914 
L 150.231805 -153.049646 
L 151.201297 -153.049646 
L 151.201297 -151.438238 
L 162.9737 -151.438238 
L 162.9737 -149.830753 
L 165.743677 -149.830753 
L 165.743677 -148.227258 
L 179.108818 -148.227258 
L 179.108818 -146.627827 
L 187.3495 -146.627827 
L 187.3495 -146.627827 
L 187.557248 -146.627827 
L 187.557248 -144.993729 
L 187.834246 -144.993729 
L 187.834246 -144.993729 
L 189.703981 -144.993729 
L 189.703981 -144.993729 
L 191.850713 -144.993729 
L 191.850713 -144.993729 
L 198.221661 -144.993729 
L 198.221661 -143.233277 
L 198.983404 -143.233277 
L 198.983404 -143.233277 
L 206.254595 -143.233277 
L 206.254595 -143.233277 
L 207.362585 -143.233277 
L 207.362585 -141.377602 
L 208.262828 -141.377602 
L 208.262828 -141.377602 
L 209.509318 -141.377602 
L 209.509318 -139.473325 
L 215.257021 -139.473325 
L 215.257021 -137.577786 
L 218.165497 -137.577786 
L 218.165497 -135.691131 
L 227.444921 -135.691131 
L 227.444921 -135.691131 
L 237.001342 -135.691131 
L 237.001342 -135.691131 
L 237.901585 -135.691131 
L 237.901585 -135.691131 
L 241.156308 -135.691131 
L 241.156308 -135.691131 
L 248.704496 -135.691131 
L 248.704496 -135.691131 
L 249.46624 -135.691131 
L 249.46624 -133.444141 
L 252.859462 -133.444141 
L 252.859462 -133.444141 
L 258.122419 -133.444141 
L 258.122419 -131.120414 
L 261.377142 -131.120414 
L 261.377142 -131.120414 
L 269.133078 -131.120414 
L 269.133078 -131.120414 
L 270.10257 -131.120414 
L 270.10257 -131.120414 
L 295.586361 -131.120414 
L 295.586361 -131.120414 
L 302.234306 -131.120414 
L 302.234306 -131.120414 
L 322.385891 -131.120414 
L 322.385891 -131.120414 
L 330.626573 -131.120414 
L 330.626573 -131.120414 
L 333.535049 -131.120414 
L 333.535049 -131.120414 
L 333.673548 -131.120414 
L 333.673548 -131.120414 
L 333.881296 -131.120414 
L 333.881296 -131.120414 
L 351.609151 -131.120414 
L 351.609151 -131.120414 
L 356.52586 -131.120414 
L 356.52586 -131.120414 
L 357.910849 -131.120414 
L 357.910849 -131.120414 
L 359.503586 -131.120414 
L 359.503586 -131.120414 
L 374.738461 -131.120414 
L 374.738461 -131.120414 
L 376.746694 -131.120414 
L 376.746694 -131.120414 
L 377.716186 -131.120414 
L 377.716186 -123.51528 
L 380.693912 -123.51528 
L 380.693912 -123.51528 
L 383.256141 -123.51528 
L 383.256141 -123.51528 
L 388.726846 -123.51528 
L 388.726846 -123.51528 
L 391.566072 -123.51528 
L 391.566072 -123.51528 
L 392.604814 -123.51528 
L 392.604814 -123.51528 
L 432.907983 -123.51528 
L 432.907983 -123.51528 
L 445.926876 -123.51528 
L 445.926876 -123.51528 
L 463.931728 -123.51528 
L 463.931728 -123.51528 
L 464.347225 -123.51528 
L 464.347225 -123.51528 
L 472.310909 -123.51528 
L 472.310909 -123.51528 
L 472.310909 -165.849682 
L 472.310909 -165.849682 
L 472.310909 -165.849682 
L 464.347225 -165.849682 
L 464.347225 -165.849682 
L 463.931728 -165.849682 
L 463.931728 -165.849682 
L 445.926876 -165.849682 
L 445.926876 -165.849682 
L 432.907983 -165.849682 
L 432.907983 -165.849682 
L 392.604814 -165.849682 
L 392.604814 -165.849682 
L 391.566072 -165.849682 
L 391.566072 -165.849682 
L 388.726846 -165.849682 
L 388.726846 -165.849682 
L 383.256141 -165.849682 
L 383.256141 -165.849682 
L 380.693912 -165.849682 
L 380.693912 -165.849682 
L 377.716186 -165.849682 
L 377.716186 -170.024816 
L 376.746694 -170.024816 
L 376.746694 -170.024816 
L 374.738461 -170.024816 
L 374.738461 -170.024816 
L 359.503586 -170.024816 
L 359.503586 -170.024816 
L 357.910849 -170.024816 
L 357.910849 -170.024816 
L 356.52586 -170.024816 
L 356.52586 -170.024816 
L 351.609151 -170.024816 
L 351.609151 -170.024816 
L 333.881296 -170.024816 
L 333.881296 -170.024816 
L 333.673548 -170.024816 
L 333.673548 -170.024816 
L 333.535049 -170.024816 
L 333.535049 -170.024816 
L 330.626573 -170.024816 
L 330.626573 -170.024816 
L 322.385891 -170.024816 
L 322.385891 -170.024816 
L 302.234306 -170.024816 
L 302.234306 -170.024816 
L 295.586361 -170.024816 
L 295.586361 -170.024816 
L 270.10257 -170.024816 
L 270.10257 -170.024816 
L 269.133078 -170.024816 
L 269.133078 -170.024816 
L 261.377142 -170.024816 
L 261.377142 -170.024816 
L 258.122419 -170.024816 
L 258.122419 -172.527694 
L 252.859462 -172.527694 
L 252.859462 -172.527694 
L 249.46624 -172.527694 
L 249.46624 -174.952769 
L 248.704496 -174.952769 
L 248.704496 -174.952769 
L 241.156308 -174.952769 
L 241.156308 -174.952769 
L 237.901585 -174.952769 
L 237.901585 -174.952769 
L 237.001342 -174.952769 
L 237.001342 -174.952769 
L 227.444921 -174.952769 
L 227.444921 -174.952769 
L 218.165497 -174.952769 
L 218.165497 -177.101658 
L 215.257021 -177.101658 
L 215.257021 -179.242824 
L 209.509318 -179.242824 
L 209.509318 -181.376411 
L 208.262828 -181.376411 
L 208.262828 -181.376411 
L 207.362585 -181.376411 
L 207.362585 -183.459978 
L 206.254595 -183.459978 
L 206.254595 -183.459978 
L 198.983404 -183.459978 
L 198.983404 -183.459978 
L 198.221661 -183.459978 
L 198.221661 -185.458379 
L 191.850713 -185.458379 
L 191.850713 -185.458379 
L 189.703981 -185.458379 
L 189.703981 -185.458379 
L 187.834246 -185.458379 
L 187.834246 -185.458379 
L 187.557248 -185.458379 
L 187.557248 -187.345991 
L 187.3495 -187.345991 
L 187.3495 -187.345991 
L 179.108818 -187.345991 
L 179.108818 -189.197307 
L 165.743677 -189.197307 
L 165.743677 -191.044794 
L 162.9737 -191.044794 
L 162.9737 -192.888518 
L 151.201297 -192.888518 
L 151.201297 -194.72854 
L 150.231805 -194.72854 
L 150.231805 -196.564918 
L 138.5979 -196.564918 
L 138.5979 -198.397707 
L 137.351411 -198.397707 
L 137.351411 -200.226958 
L 131.118962 -200.226958 
L 131.118962 -202.05272 
L 130.772715 -202.05272 
L 130.772715 -203.87504 
L 129.803223 -203.87504 
L 129.803223 -205.693963 
L 121.008545 -205.693963 
L 121.008545 -207.509529 
L 118.654064 -207.509529 
L 118.654064 -209.321778 
L 114.152851 -209.321778 
L 114.152851 -211.130748 
L 113.183359 -211.130748 
L 113.183359 -212.936473 
L 112.629364 -212.936473 
L 112.629364 -214.738986 
L 108.128151 -214.738986 
L 108.128151 -216.53832 
L 104.52718 -216.53832 
L 104.52718 -218.334503 
L 103.488439 -218.334503 
L 103.488439 -220.127564 
L 101.826452 -220.127564 
L 101.826452 -221.917528 
L 101.618704 -221.917528 
L 101.618704 -223.70442 
L 99.194974 -223.70442 
L 99.194974 -225.488264 
L 98.779477 -225.488264 
L 98.779477 -227.26908 
L 96.217248 -227.26908 
L 96.217248 -229.04689 
L 95.524754 -229.04689 
L 95.524754 -230.82171 
L 91.508287 -230.82171 
L 91.508287 -232.59356 
L 90.538795 -232.59356 
L 90.538795 -234.362455 
L 90.469546 -234.362455 
L 90.469546 -236.128409 
L 89.777051 -236.128409 
L 89.777051 -237.891437 
L 89.084557 -237.891437 
L 89.084557 -239.65155 
L 88.66906 -239.65155 
L 88.66906 -241.40876 
L 88.599811 -241.40876 
L 88.599811 -243.163077 
L 88.392063 -243.163077 
L 88.392063 -244.914508 
L 88.322813 -244.914508 
L 88.322813 -246.663062 
L 88.045816 -246.663062 
L 88.045816 -248.408746 
L 86.31458 -248.408746 
L 86.31458 -250.151564 
L 85.552836 -250.151564 
L 85.552836 -251.891521 
L 85.414337 -251.891521 
L 85.414337 -253.62862 
L 85.206589 -253.62862 
L 85.206589 -255.362864 
L 85.137339 -255.362864 
L 85.137339 -257.094252 
L 84.514095 -257.094252 
L 84.514095 -258.822785 
L 82.436612 -258.822785 
L 82.436612 -260.548462 
L 82.228863 -260.548462 
L 82.228863 -262.271281 
L 82.021115 -262.271281 
L 82.021115 -263.991237 
L 81.813367 -263.991237 
L 81.813367 -265.708328 
L 80.22063 -265.708328 
L 80.22063 -267.422547 
L 80.082131 -267.422547 
L 80.082131 -269.133887 
L 79.735884 -269.133887 
L 79.735884 -270.842342 
L 79.528136 -270.842342 
L 79.528136 -272.547901 
L 79.320387 -272.547901 
L 79.320387 -274.250555 
L 79.251138 -274.250555 
L 79.251138 -275.950293 
L 78.143147 -275.950293 
L 78.143147 -277.647102 
L 77.935399 -277.647102 
L 77.935399 -279.340968 
L 77.242904 -279.340968 
L 77.242904 -281.031878 
L 76.827408 -281.031878 
L 76.827408 -282.719814 
L 76.758158 -282.719814 
L 76.758158 -284.404759 
L 76.55041 -284.404759 
L 76.55041 -289.441453 
L 75.996415 -289.441453 
L 75.996415 -294.450467 
L 75.30392 -294.450467 
L 75.30392 -297.774087 
L 75.096172 -297.774087 
L 75.096172 -299.431092 
L 75.026923 -299.431092 
L 75.026923 -302.735325 
L 74.680675 -302.735325 
L 74.680675 -304.382481 
L 74.195929 -304.382481 
L 74.195929 -306.026279 
L 73.572684 -306.026279 
L 73.572684 -307.666677 
L 72.810941 -307.666677 
L 72.810941 -309.303632 
L 72.187696 -309.303632 
L 72.187696 -310.937097 
L 71.979948 -310.937097 
L 71.979948 -312.567024 
L 71.772199 -312.567024 
L 71.772199 -314.193361 
L 71.356703 -314.193361 
L 71.356703 -315.816055 
L 71.218204 -315.816055 
L 71.218204 -317.435047 
L 71.010456 -317.435047 
L 71.010456 -320.661683 
L 70.871957 -320.661683 
L 70.871957 -322.269195 
L 70.733458 -322.269195 
L 70.733458 -323.872743 
L 69.763966 -323.872743 
L 69.763966 -325.47225 
L 69.27922 -325.47225 
L 69.27922 -328.658823 
L 69.071471 -328.658823 
L 69.071471 -330.245713 
L 68.932973 -330.245713 
L 68.932973 -334.97964 
L 68.863723 -334.97964 
L 68.863723 -336.548343 
L 68.309728 -336.548343 
L 68.309728 -339.671125 
L 67.617233 -339.671125 
L 67.617233 -341.224937 
L 67.409485 -341.224937 
L 67.409485 -342.773501 
L 66.093746 -342.773501 
L 66.093746 -344.316662 
L 65.470501 -344.316662 
L 65.470501 -345.854249 
L 64.916506 -345.854249 
L 64.916506 -347.386081 
L 64.778007 -347.386081 
L 64.778007 -348.911963 
L 64.570258 -348.911963 
L 64.570258 -350.431685 
L 64.085512 -350.431685 
L 64.085512 -351.94502 
L 64.016263 -351.94502 
L 64.016263 -353.451722 
L 63.877764 -353.451722 
L 63.877764 -354.951524 
L 62.215778 -354.951524 
L 62.215778 -356.444137 
L 62.146528 -356.444137 
L 62.146528 -357.929244 
L 62.008029 -357.929244 
L 62.008029 -359.406499 
L 61.731032 -359.406499 
L 61.731032 -360.875523 
L 61.592533 -360.875523 
L 61.592533 -362.335898 
L 60.553791 -362.335898 
L 60.553791 -363.787161 
L 60.138295 -363.787161 
L 60.138295 -365.228801 
L 59.861297 -365.228801 
L 59.861297 -365.228801 
L 59.722798 -365.228801 
L 59.722798 -368.066323 
L 59.51505 -368.066323 
L 59.51505 -369.468426 
L 59.307302 -369.468426 
L 59.307302 -370.858392 
L 57.09132 -370.858392 
L 57.09132 -372.235312 
L 57.02207 -372.235312 
L 57.02207 -373.598142 
L 56.883572 -373.598142 
L 56.883572 -374.945672 
L 56.606574 -374.945672 
L 56.606574 -376.276488 
L 56.398826 -376.276488 
L 56.398826 -378.880958 
L 56.191077 -378.880958 
L 56.191077 -380.150183 
L 56.052578 -380.150183 
L 56.052578 -381.39359 
L 55.983329 -381.39359 
L 55.983329 -382.607403 
L 55.567832 -382.607403 
L 55.567832 -383.786742 
L 55.498583 -383.786742 
L 55.498583 -384.925115 
L 55.429334 -384.925115 
L 55.429334 -386.013544 
L 55.360084 -386.013544 
L 55.360084 -388.804093 
L 55.152336 -388.804093 
L 55.152336 -389.435428 
L 55.083086 -389.435428 
L 55.083086 -389.682295 
L 54.529091 -389.682295 
z
" id="m37d6770210" style="stroke:#808080;stroke-opacity:0.25;"/>
    </defs>
    <g clip-path="url(#p0d233206a8)">
     <use style="fill:#808080;fill-opacity:0.25;stroke:#808080;stroke-opacity:0.25;" x="0" xlink:href="#m37d6770210" y="432"/>
    </g>
   </g>
   <g id="matplotlib.axis_1">
    <g id="xtick_1">
     <g id="line2d_1">
      <path clip-path="url(#p0d233206a8)" d="M 54.529091 366.5095 
L 54.529091 26.88 
" style="fill:none;stroke:#b0b0b0;stroke-dasharray:2.96,1.28;stroke-dashoffset:0;stroke-opacity:0.5;stroke-width:0.8;"/>
     </g>
     <g id="line2d_2">
      <defs>
       <path d="M 0 0 
L 0 3.5 
" id="m74027a29eb" style="stroke:#000000;stroke-width:0.8;"/>
      </defs>
      <g>
       <use style="stroke:#000000;stroke-width:0.8;" x="54.529091" xlink:href="#m74027a29eb" y="366.5095"/>
      </g>
     </g>
     <g id="text_1">
      <text style="font-family:DejaVu Sans;font-size:10px;font-stretch:normal;font-style:normal;font-weight:normal;text-anchor:middle;" transform="rotate(-0, 54.529091, 381.107937)" x="54.529091" y="381.107937">0</text>
     </g>
    </g>
    <g id="xtick_2">
     <g id="line2d_3">
      <path clip-path="url(#p0d233206a8)" d="M 123.778522 366.5095 
L 123.778522 26.88 
" style="fill:none;stroke:#b0b0b0;stroke-dasharray:2.96,1.28;stroke-dashoffset:0;stroke-opacity:0.5;stroke-width:0.8;"/>
     </g>
     <g id="line2d_4">
      <g>
       <use style="stroke:#000000;stroke-width:0.8;" x="123.778522" xlink:href="#m74027a29eb" y="366.5095"/>
      </g>
     </g>
     <g id="text_2">
      <text style="font-family:DejaVu Sans;font-size:10px;font-stretch:normal;font-style:normal;font-weight:normal;text-anchor:middle;" transform="rotate(-0, 123.778522, 381.107937)" x="123.778522" y="381.107937">1000</text>
     </g>
    </g>
    <g id="xtick_3">
     <g id="line2d_5">
      <path clip-path="url(#p0d233206a8)" d="M 193.027953 366.5095 
L 193.027953 26.88 
" style="fill:none;stroke:#b0b0b0;stroke-dasharray:2.96,1.28;stroke-dashoffset:0;stroke-opacity:0.5;stroke-width:0.8;"/>
     </g>
     <g id="line2d_6">
      <g>
       <use style="stroke:#000000;stroke-width:0.8;" x="193.027953" xlink:href="#m74027a29eb" y="366.5095"/>
      </g>
     </g>
     <g id="text_3">
      <text style="font-family:DejaVu Sans;font-size:10px;font-stretch:normal;font-style:normal;font-weight:normal;text-anchor:middle;" transform="rotate(-0, 193.027953, 381.107937)" x="193.027953" y="381.107937">2000</text>
     </g>
    </g>
    <g id="xtick_4">
     <g id="line2d_7">
      <path clip-path="url(#p0d233206a8)" d="M 262.277384 366.5095 
L 262.277384 26.88 
" style="fill:none;stroke:#b0b0b0;stroke-dasharray:2.96,1.28;stroke-dashoffset:0;stroke-opacity:0.5;stroke-width:0.8;"/>
     </g>
     <g id="line2d_8">
      <g>
       <use style="stroke:#000000;stroke-width:0.8;" x="262.277384" xlink:href="#m74027a29eb" y="366.5095"/>
      </g>
     </g>
     <g id="text_4">
      <text style="font-family:DejaVu Sans;font-size:10px;font-stretch:normal;font-style:normal;font-weight:normal;text-anchor:middle;" transform="rotate(-0, 262.277384, 381.107937)" x="262.277384" y="381.107937">3000</text>
     </g>
    </g>
    <g id="xtick_5">
     <g id="line2d_9">
      <path clip-path="url(#p0d233206a8)" d="M 331.526816 366.5095 
L 331.526816 26.88 
" style="fill:none;stroke:#b0b0b0;stroke-dasharray:2.96,1.28;stroke-dashoffset:0;stroke-opacity:0.5;stroke-width:0.8;"/>
     </g>
     <g id="line2d_10">
      <g>
       <use style="stroke:#000000;stroke-width:0.8;" x="331.526816" xlink:href="#m74027a29eb" y="366.5095"/>
      </g>
     </g>
     <g id="text_5">
      <text style="font-family:DejaVu Sans;font-size:10px;font-stretch:normal;font-style:normal;font-weight:normal;text-anchor:middle;" transform="rotate(-0, 331.526816, 381.107937)" x="331.526816" y="381.107937">4000</text>
     </g>
    </g>
    <g id="xtick_6">
     <g id="line2d_11">
      <path clip-path="url(#p0d233206a8)" d="M 400.776247 366.5095 
L 400.776247 26.88 
" style="fill:none;stroke:#b0b0b0;stroke-dasharray:2.96,1.28;stroke-dashoffset:0;stroke-opacity:0.5;stroke-width:0.8;"/>
     </g>
     <g id="line2d_12">
      <g>
       <use style="stroke:#000000;stroke-width:0.8;" x="400.776247" xlink:href="#m74027a29eb" y="366.5095"/>
      </g>
     </g>
     <g id="text_6">
      <text style="font-family:DejaVu Sans;font-size:10px;font-stretch:normal;font-style:normal;font-weight:normal;text-anchor:middle;" transform="rotate(-0, 400.776247, 381.107937)" x="400.776247" y="381.107937">5000</text>
     </g>
    </g>
    <g id="xtick_7">
     <g id="line2d_13">
      <path clip-path="url(#p0d233206a8)" d="M 470.025678 366.5095 
L 470.025678 26.88 
" style="fill:none;stroke:#b0b0b0;stroke-dasharray:2.96,1.28;stroke-dashoffset:0;stroke-opacity:0.5;stroke-width:0.8;"/>
     </g>
     <g id="line2d_14">
      <g>
       <use style="stroke:#000000;stroke-width:0.8;" x="470.025678" xlink:href="#m74027a29eb" y="366.5095"/>
      </g>
     </g>
     <g id="text_7">
      <text style="font-family:DejaVu Sans;font-size:10px;font-stretch:normal;font-style:normal;font-weight:normal;text-anchor:middle;" transform="rotate(-0, 470.025678, 381.107937)" x="470.025678" y="381.107937">6000</text>
     </g>
    </g>
    <g id="text_8">
     <text style="font-family:DejaVu Sans;font-size:10px;font-stretch:normal;font-style:normal;font-weight:normal;" transform="translate(241.511406 394.786063)">timeline </text>
     <text style="font-family:DejaVu Sans;font-size:10px;font-stretch:normal;font-style:normal;font-weight:normal;" transform="translate(113.085625 405.983875)">    dataset: lgn_pronostic_clin_factors_LSC17, input_dim: 33 </text>
     <text style="font-family:DejaVu Sans;font-size:10px;font-stretch:normal;font-style:normal;font-weight:normal;" transform="translate(184.83875 417.459812)">    c_index: [0.715 0.687 0.742]</text>
    </g>
   </g>
   <g id="matplotlib.axis_2">
    <g id="ytick_1">
     <g id="line2d_15">
      <path clip-path="url(#p0d233206a8)" d="M 33.64 351.762514 
L 493.2 351.762514 
" style="fill:none;stroke:#b0b0b0;stroke-dasharray:2.96,1.28;stroke-dashoffset:0;stroke-opacity:0.5;stroke-width:0.8;"/>
     </g>
     <g id="line2d_16">
      <defs>
       <path d="M 0 0 
L -3.5 0 
" id="m61cd986789" style="stroke:#000000;stroke-width:0.8;"/>
      </defs>
      <g>
       <use style="stroke:#000000;stroke-width:0.8;" x="33.64" xlink:href="#m61cd986789" y="351.762514"/>
      </g>
     </g>
     <g id="text_9">
      <text style="font-family:DejaVu Sans;font-size:10px;font-stretch:normal;font-style:normal;font-weight:normal;text-anchor:end;" transform="rotate(-0, 26.64, 355.561733)" x="26.64" y="355.561733">0.0</text>
     </g>
    </g>
    <g id="ytick_2">
     <g id="line2d_17">
      <path clip-path="url(#p0d233206a8)" d="M 33.64 289.873552 
L 493.2 289.873552 
" style="fill:none;stroke:#b0b0b0;stroke-dasharray:2.96,1.28;stroke-dashoffset:0;stroke-opacity:0.5;stroke-width:0.8;"/>
     </g>
     <g id="line2d_18">
      <g>
       <use style="stroke:#000000;stroke-width:0.8;" x="33.64" xlink:href="#m61cd986789" y="289.873552"/>
      </g>
     </g>
     <g id="text_10">
      <text style="font-family:DejaVu Sans;font-size:10px;font-stretch:normal;font-style:normal;font-weight:normal;text-anchor:end;" transform="rotate(-0, 26.64, 293.672771)" x="26.64" y="293.672771">0.2</text>
     </g>
    </g>
    <g id="ytick_3">
     <g id="line2d_19">
      <path clip-path="url(#p0d233206a8)" d="M 33.64 227.98459 
L 493.2 227.98459 
" style="fill:none;stroke:#b0b0b0;stroke-dasharray:2.96,1.28;stroke-dashoffset:0;stroke-opacity:0.5;stroke-width:0.8;"/>
     </g>
     <g id="line2d_20">
      <g>
       <use style="stroke:#000000;stroke-width:0.8;" x="33.64" xlink:href="#m61cd986789" y="227.98459"/>
      </g>
     </g>
     <g id="text_11">
      <text style="font-family:DejaVu Sans;font-size:10px;font-stretch:normal;font-style:normal;font-weight:normal;text-anchor:end;" transform="rotate(-0, 26.64, 231.783809)" x="26.64" y="231.783809">0.4</text>
     </g>
    </g>
    <g id="ytick_4">
     <g id="line2d_21">
      <path clip-path="url(#p0d233206a8)" d="M 33.64 166.095628 
L 493.2 166.095628 
" style="fill:none;stroke:#b0b0b0;stroke-dasharray:2.96,1.28;stroke-dashoffset:0;stroke-opacity:0.5;stroke-width:0.8;"/>
     </g>
     <g id="line2d_22">
      <g>
       <use style="stroke:#000000;stroke-width:0.8;" x="33.64" xlink:href="#m61cd986789" y="166.095628"/>
      </g>
     </g>
     <g id="text_12">
      <text style="font-family:DejaVu Sans;font-size:10px;font-stretch:normal;font-style:normal;font-weight:normal;text-anchor:end;" transform="rotate(-0, 26.64, 169.894847)" x="26.64" y="169.894847">0.6</text>
     </g>
    </g>
    <g id="ytick_5">
     <g id="line2d_23">
      <path clip-path="url(#p0d233206a8)" d="M 33.64 104.206666 
L 493.2 104.206666 
" style="fill:none;stroke:#b0b0b0;stroke-dasharray:2.96,1.28;stroke-dashoffset:0;stroke-opacity:0.5;stroke-width:0.8;"/>
     </g>
     <g id="line2d_24">
      <g>
       <use style="stroke:#000000;stroke-width:0.8;" x="33.64" xlink:href="#m61cd986789" y="104.206666"/>
      </g>
     </g>
     <g id="text_13">
      <text style="font-family:DejaVu Sans;font-size:10px;font-stretch:normal;font-style:normal;font-weight:normal;text-anchor:end;" transform="rotate(-0, 26.64, 108.005885)" x="26.64" y="108.005885">0.8</text>
     </g>
    </g>
    <g id="ytick_6">
     <g id="line2d_25">
      <path clip-path="url(#p0d233206a8)" d="M 33.64 42.317705 
L 493.2 42.317705 
" style="fill:none;stroke:#b0b0b0;stroke-dasharray:2.96,1.28;stroke-dashoffset:0;stroke-opacity:0.5;stroke-width:0.8;"/>
     </g>
     <g id="line2d_26">
      <g>
       <use style="stroke:#000000;stroke-width:0.8;" x="33.64" xlink:href="#m61cd986789" y="42.317705"/>
      </g>
     </g>
     <g id="text_14">
      <text style="font-family:DejaVu Sans;font-size:10px;font-stretch:normal;font-style:normal;font-weight:normal;text-anchor:end;" transform="rotate(-0, 26.64, 46.116923)" x="26.64" y="46.116923">1.0</text>
     </g>
    </g>
   </g>
   <g id="line2d_27">
    <defs>
     <path d="M -3 3 
L 3 -3 
M -3 -3 
L 3 3 
" id="m282a4f86ce" style="stroke:#ff0000;"/>
    </defs>
    <g clip-path="url(#p0d233206a8)">
     <use style="fill:#ff0000;stroke:#ff0000;" x="95.386255" xlink:href="#m282a4f86ce" y="304.15562"/>
     <use style="fill:#ff0000;stroke:#ff0000;" x="266.43235" xlink:href="#m282a4f86ce" y="338.778816"/>
     <use style="fill:#ff0000;stroke:#ff0000;" x="405.069711" xlink:href="#m282a4f86ce" y="345.270665"/>
    </g>
   </g>
   <g id="line2d_28">
    <path clip-path="url(#p0d233206a8)" d="M 54.529091 42.317705 
L 55.290835 42.317705 
L 55.360084 50.252187 
L 55.775581 50.252187 
L 55.775581 54.219428 
L 55.91408 54.219428 
L 55.91408 58.186669 
L 56.052578 58.186669 
L 56.052578 70.088393 
L 56.329576 70.088393 
L 56.329576 74.055634 
L 56.537324 74.055634 
L 56.537324 78.022875 
L 56.952821 78.022875 
L 57.02207 89.924598 
L 57.783814 89.924598 
L 57.783814 93.891839 
L 58.060812 93.891839 
L 58.060812 97.859081 
L 58.33781 97.859081 
L 58.33781 101.826322 
L 58.822556 101.826322 
L 58.822556 105.793563 
L 59.030304 105.793563 
L 59.030304 109.760804 
L 59.584299 109.760804 
L 59.584299 113.728045 
L 59.861297 113.728045 
L 59.861297 117.695286 
L 60.138295 117.695286 
L 60.138295 121.662527 
L 60.276794 121.662527 
L 60.276794 125.629769 
L 60.415293 125.629769 
L 60.415293 129.59701 
L 60.623041 129.59701 
L 60.623041 133.564251 
L 60.830789 133.564251 
L 60.830789 137.531492 
L 60.969288 137.531492 
L 60.969288 141.498733 
L 61.246286 141.498733 
L 61.246286 145.465974 
L 61.523283 145.465974 
L 61.592533 153.400457 
L 62.215778 153.400457 
L 62.285027 161.334939 
L 62.839023 161.334939 
L 62.839023 165.30218 
L 63.046771 165.30218 
L 63.046771 169.269421 
L 63.323769 169.269421 
L 63.323769 173.236662 
L 63.462268 173.236662 
L 63.462268 177.203903 
L 63.739265 177.203903 
L 63.739265 181.171145 
L 63.877764 181.171145 
L 63.947014 189.105627 
L 64.43176 189.105627 
L 64.43176 193.072868 
L 64.708757 193.072868 
L 64.778007 201.00735 
L 64.916506 201.00735 
L 64.916506 204.974591 
L 65.055004 204.974591 
L 65.055004 212.909074 
L 65.193503 212.909074 
L 65.193503 216.876315 
L 65.678249 216.876315 
L 65.678249 220.843556 
L 65.816748 220.843556 
L 65.816748 224.810797 
L 66.162995 224.810797 
L 66.162995 228.778038 
L 66.439993 228.778038 
L 66.439993 232.74528 
L 66.647741 232.74528 
L 66.716991 240.679762 
L 69.833215 240.679762 
L 69.833215 244.647003 
L 70.802707 244.647003 
L 70.802707 248.614244 
L 70.941206 248.614244 
L 70.941206 252.581485 
L 71.218204 252.581485 
L 71.218204 256.548726 
L 71.495202 256.548726 
L 71.495202 260.515968 
L 71.910698 260.515968 
L 71.910698 264.483209 
L 72.049197 264.483209 
L 72.049197 268.45045 
L 72.741691 268.45045 
L 72.741691 272.417691 
L 73.018689 272.417691 
L 73.018689 276.384932 
L 74.334428 276.384932 
L 74.334428 280.352173 
L 75.442419 280.352173 
L 75.442419 284.319414 
L 75.788666 284.319414 
L 75.788666 288.286656 
L 77.242904 288.286656 
L 77.242904 292.253897 
L 82.090365 292.253897 
L 82.090365 296.221138 
L 84.029349 296.221138 
L 84.029349 300.188379 
L 88.599811 300.188379 
L 88.599811 304.15562 
L 110.274883 304.15562 
L 110.274883 308.48352 
L 110.69038 308.48352 
L 110.69038 312.811419 
L 111.86762 312.811419 
L 111.86762 317.139318 
L 112.767863 317.139318 
L 112.767863 321.467218 
L 116.645831 321.467218 
L 116.645831 325.795117 
L 156.118006 325.795117 
L 156.118006 330.123017 
L 204.800357 330.123017 
L 204.800357 334.450916 
L 209.024572 334.450916 
L 209.024572 338.778816 
L 347.800432 338.778816 
L 347.800432 345.270665 
L 405.069711 345.270665 
L 405.069711 345.270665 
" style="fill:none;stroke:#ff0000;stroke-linecap:square;stroke-width:1.5;"/>
   </g>
   <g id="line2d_29">
    <defs>
     <path d="M -3 3 
L 3 -3 
M -3 -3 
L 3 3 
" id="ma3a6930b04" style="stroke:#0000ff;"/>
    </defs>
    <g clip-path="url(#p0d233206a8)">
     <use style="fill:#0000ff;stroke:#0000ff;" x="182.709788" xlink:href="#ma3a6930b04" y="111.083218"/>
     <use style="fill:#0000ff;stroke:#0000ff;" x="184.579523" xlink:href="#ma3a6930b04" y="111.083218"/>
     <use style="fill:#0000ff;stroke:#0000ff;" x="193.651198" xlink:href="#ma3a6930b04" y="111.083218"/>
     <use style="fill:#0000ff;stroke:#0000ff;" x="208.678325" xlink:href="#ma3a6930b04" y="111.083218"/>
     <use style="fill:#0000ff;stroke:#0000ff;" x="218.373245" xlink:href="#ma3a6930b04" y="118.847066"/>
     <use style="fill:#0000ff;stroke:#0000ff;" x="224.259447" xlink:href="#ma3a6930b04" y="118.847066"/>
     <use style="fill:#0000ff;stroke:#0000ff;" x="226.26768" xlink:href="#ma3a6930b04" y="118.847066"/>
     <use style="fill:#0000ff;stroke:#0000ff;" x="232.153882" xlink:href="#ma3a6930b04" y="118.847066"/>
     <use style="fill:#0000ff;stroke:#0000ff;" x="235.685603" xlink:href="#ma3a6930b04" y="118.847066"/>
     <use style="fill:#0000ff;stroke:#0000ff;" x="245.519022" xlink:href="#ma3a6930b04" y="118.847066"/>
     <use style="fill:#0000ff;stroke:#0000ff;" x="253.759704" xlink:href="#ma3a6930b04" y="118.847066"/>
     <use style="fill:#0000ff;stroke:#0000ff;" x="263.177627" xlink:href="#ma3a6930b04" y="118.847066"/>
     <use style="fill:#0000ff;stroke:#0000ff;" x="280.420735" xlink:href="#ma3a6930b04" y="129.938278"/>
     <use style="fill:#0000ff;stroke:#0000ff;" x="280.697733" xlink:href="#ma3a6930b04" y="129.938278"/>
     <use style="fill:#0000ff;stroke:#0000ff;" x="284.160205" xlink:href="#ma3a6930b04" y="129.938278"/>
     <use style="fill:#0000ff;stroke:#0000ff;" x="289.838658" xlink:href="#ma3a6930b04" y="129.938278"/>
     <use style="fill:#0000ff;stroke:#0000ff;" x="316.638188" xlink:href="#ma3a6930b04" y="129.938278"/>
     <use style="fill:#0000ff;stroke:#0000ff;" x="322.039643" xlink:href="#ma3a6930b04" y="129.938278"/>
     <use style="fill:#0000ff;stroke:#0000ff;" x="330.765072" xlink:href="#ma3a6930b04" y="129.938278"/>
     <use style="fill:#0000ff;stroke:#0000ff;" x="333.812047" xlink:href="#ma3a6930b04" y="129.938278"/>
     <use style="fill:#0000ff;stroke:#0000ff;" x="338.31326" xlink:href="#ma3a6930b04" y="129.938278"/>
     <use style="fill:#0000ff;stroke:#0000ff;" x="344.060963" xlink:href="#ma3a6930b04" y="129.938278"/>
     <use style="fill:#0000ff;stroke:#0000ff;" x="370.652744" xlink:href="#ma3a6930b04" y="129.938278"/>
     <use style="fill:#0000ff;stroke:#0000ff;" x="389.904086" xlink:href="#ma3a6930b04" y="129.938278"/>
     <use style="fill:#0000ff;stroke:#0000ff;" x="393.505056" xlink:href="#ma3a6930b04" y="129.938278"/>
     <use style="fill:#0000ff;stroke:#0000ff;" x="398.491015" xlink:href="#ma3a6930b04" y="129.938278"/>
     <use style="fill:#0000ff;stroke:#0000ff;" x="408.393684" xlink:href="#ma3a6930b04" y="129.938278"/>
     <use style="fill:#0000ff;stroke:#0000ff;" x="425.221296" xlink:href="#ma3a6930b04" y="129.938278"/>
     <use style="fill:#0000ff;stroke:#0000ff;" x="441.356413" xlink:href="#ma3a6930b04" y="129.938278"/>
     <use style="fill:#0000ff;stroke:#0000ff;" x="455.483297" xlink:href="#ma3a6930b04" y="129.938278"/>
     <use style="fill:#0000ff;stroke:#0000ff;" x="458.184025" xlink:href="#ma3a6930b04" y="129.938278"/>
     <use style="fill:#0000ff;stroke:#0000ff;" x="459.499764" xlink:href="#ma3a6930b04" y="129.938278"/>
    </g>
   </g>
   <g id="line2d_30">
    <path clip-path="url(#p0d233206a8)" d="M 54.529091 42.317705 
L 65.955247 42.317705 
L 65.955247 49.194256 
L 75.442419 49.194256 
L 75.442419 56.070807 
L 75.580918 56.070807 
L 75.580918 62.947358 
L 88.045816 62.947358 
L 88.045816 69.82391 
L 100.233715 69.82391 
L 100.233715 76.700461 
L 101.687954 76.700461 
L 101.687954 83.577012 
L 106.812411 83.577012 
L 106.812411 90.453564 
L 122.462783 90.453564 
L 122.462783 97.330115 
L 168.305906 97.330115 
L 168.305906 104.206666 
L 181.463298 104.206666 
L 181.463298 111.083218 
L 182.709788 111.083218 
L 182.709788 111.083218 
L 184.579523 111.083218 
L 184.579523 111.083218 
L 193.651198 111.083218 
L 193.651198 111.083218 
L 208.678325 111.083218 
L 208.678325 111.083218 
L 218.026998 111.083218 
L 218.026998 118.847066 
L 218.373245 118.847066 
L 218.373245 118.847066 
L 224.259447 118.847066 
L 224.259447 118.847066 
L 226.26768 118.847066 
L 226.26768 118.847066 
L 232.153882 118.847066 
L 232.153882 118.847066 
L 235.685603 118.847066 
L 235.685603 118.847066 
L 245.519022 118.847066 
L 245.519022 118.847066 
L 253.759704 118.847066 
L 253.759704 118.847066 
L 263.177627 118.847066 
L 263.177627 118.847066 
L 265.878355 118.847066 
L 265.878355 129.938278 
L 280.420735 129.938278 
L 280.420735 129.938278 
L 280.697733 129.938278 
L 280.697733 129.938278 
L 284.160205 129.938278 
L 284.160205 129.938278 
L 289.838658 129.938278 
L 289.838658 129.938278 
L 316.638188 129.938278 
L 316.638188 129.938278 
L 322.039643 129.938278 
L 322.039643 129.938278 
L 330.765072 129.938278 
L 330.765072 129.938278 
L 333.812047 129.938278 
L 333.812047 129.938278 
L 338.31326 129.938278 
L 338.31326 129.938278 
L 344.060963 129.938278 
L 344.060963 129.938278 
L 370.652744 129.938278 
L 370.652744 129.938278 
L 389.904086 129.938278 
L 389.904086 129.938278 
L 393.505056 129.938278 
L 393.505056 129.938278 
L 398.491015 129.938278 
L 398.491015 129.938278 
L 408.393684 129.938278 
L 408.393684 129.938278 
L 425.221296 129.938278 
L 425.221296 129.938278 
L 441.356413 129.938278 
L 441.356413 129.938278 
L 455.483297 129.938278 
L 455.483297 129.938278 
L 458.184025 129.938278 
L 458.184025 129.938278 
L 459.499764 129.938278 
L 459.499764 129.938278 
" style="fill:none;stroke:#0000ff;stroke-linecap:square;stroke-width:1.5;"/>
   </g>
   <g id="line2d_31">
    <defs>
     <path d="M -3 3 
L 3 -3 
M -3 -3 
L 3 3 
" id="m9bba0fd0ba" style="stroke:#808080;"/>
    </defs>
    <g clip-path="url(#p0d233206a8)">
     <use style="fill:#808080;stroke:#808080;" x="59.861297" xlink:href="#m9bba0fd0ba" y="79.031495"/>
     <use style="fill:#808080;stroke:#808080;" x="187.3495" xlink:href="#m9bba0fd0ba" y="265.544321"/>
     <use style="fill:#808080;stroke:#808080;" x="187.834246" xlink:href="#m9bba0fd0ba" y="267.340533"/>
     <use style="fill:#808080;stroke:#808080;" x="189.703981" xlink:href="#m9bba0fd0ba" y="267.340533"/>
     <use style="fill:#808080;stroke:#808080;" x="191.850713" xlink:href="#m9bba0fd0ba" y="267.340533"/>
     <use style="fill:#808080;stroke:#808080;" x="198.983404" xlink:href="#m9bba0fd0ba" y="269.259215"/>
     <use style="fill:#808080;stroke:#808080;" x="206.254595" xlink:href="#m9bba0fd0ba" y="269.259215"/>
     <use style="fill:#808080;stroke:#808080;" x="208.262828" xlink:href="#m9bba0fd0ba" y="271.27149"/>
     <use style="fill:#808080;stroke:#808080;" x="227.444921" xlink:href="#m9bba0fd0ba" y="277.463107"/>
     <use style="fill:#808080;stroke:#808080;" x="237.001342" xlink:href="#m9bba0fd0ba" y="277.463107"/>
     <use style="fill:#808080;stroke:#808080;" x="237.901585" xlink:href="#m9bba0fd0ba" y="277.463107"/>
     <use style="fill:#808080;stroke:#808080;" x="241.156308" xlink:href="#m9bba0fd0ba" y="277.463107"/>
     <use style="fill:#808080;stroke:#808080;" x="248.704496" xlink:href="#m9bba0fd0ba" y="277.463107"/>
     <use style="fill:#808080;stroke:#808080;" x="252.859462" xlink:href="#m9bba0fd0ba" y="279.859863"/>
     <use style="fill:#808080;stroke:#808080;" x="261.377142" xlink:href="#m9bba0fd0ba" y="282.339264"/>
     <use style="fill:#808080;stroke:#808080;" x="269.133078" xlink:href="#m9bba0fd0ba" y="282.339264"/>
     <use style="fill:#808080;stroke:#808080;" x="270.10257" xlink:href="#m9bba0fd0ba" y="282.339264"/>
     <use style="fill:#808080;stroke:#808080;" x="295.586361" xlink:href="#m9bba0fd0ba" y="282.339264"/>
     <use style="fill:#808080;stroke:#808080;" x="302.234306" xlink:href="#m9bba0fd0ba" y="282.339264"/>
     <use style="fill:#808080;stroke:#808080;" x="322.385891" xlink:href="#m9bba0fd0ba" y="282.339264"/>
     <use style="fill:#808080;stroke:#808080;" x="330.626573" xlink:href="#m9bba0fd0ba" y="282.339264"/>
     <use style="fill:#808080;stroke:#808080;" x="333.535049" xlink:href="#m9bba0fd0ba" y="282.339264"/>
     <use style="fill:#808080;stroke:#808080;" x="333.673548" xlink:href="#m9bba0fd0ba" y="282.339264"/>
     <use style="fill:#808080;stroke:#808080;" x="333.881296" xlink:href="#m9bba0fd0ba" y="282.339264"/>
     <use style="fill:#808080;stroke:#808080;" x="351.609151" xlink:href="#m9bba0fd0ba" y="282.339264"/>
     <use style="fill:#808080;stroke:#808080;" x="356.52586" xlink:href="#m9bba0fd0ba" y="282.339264"/>
     <use style="fill:#808080;stroke:#808080;" x="357.910849" xlink:href="#m9bba0fd0ba" y="282.339264"/>
     <use style="fill:#808080;stroke:#808080;" x="359.503586" xlink:href="#m9bba0fd0ba" y="282.339264"/>
     <use style="fill:#808080;stroke:#808080;" x="374.738461" xlink:href="#m9bba0fd0ba" y="282.339264"/>
     <use style="fill:#808080;stroke:#808080;" x="376.746694" xlink:href="#m9bba0fd0ba" y="282.339264"/>
     <use style="fill:#808080;stroke:#808080;" x="380.693912" xlink:href="#m9bba0fd0ba" y="288.650469"/>
     <use style="fill:#808080;stroke:#808080;" x="383.256141" xlink:href="#m9bba0fd0ba" y="288.650469"/>
     <use style="fill:#808080;stroke:#808080;" x="388.726846" xlink:href="#m9bba0fd0ba" y="288.650469"/>
     <use style="fill:#808080;stroke:#808080;" x="391.566072" xlink:href="#m9bba0fd0ba" y="288.650469"/>
     <use style="fill:#808080;stroke:#808080;" x="392.604814" xlink:href="#m9bba0fd0ba" y="288.650469"/>
     <use style="fill:#808080;stroke:#808080;" x="432.907983" xlink:href="#m9bba0fd0ba" y="288.650469"/>
     <use style="fill:#808080;stroke:#808080;" x="445.926876" xlink:href="#m9bba0fd0ba" y="288.650469"/>
     <use style="fill:#808080;stroke:#808080;" x="463.931728" xlink:href="#m9bba0fd0ba" y="288.650469"/>
     <use style="fill:#808080;stroke:#808080;" x="464.347225" xlink:href="#m9bba0fd0ba" y="288.650469"/>
     <use style="fill:#808080;stroke:#808080;" x="472.310909" xlink:href="#m9bba0fd0ba" y="288.650469"/>
    </g>
   </g>
   <g id="line2d_32">
    <path clip-path="url(#p0d233206a8)" d="M 54.529091 42.317705 
L 55.083086 42.317705 
L 55.152336 45.814256 
L 55.360084 45.814256 
L 55.429334 52.807359 
L 55.498583 52.807359 
L 55.567832 56.303911 
L 55.983329 56.303911 
L 56.052578 59.800462 
L 56.191077 59.800462 
L 56.191077 61.548738 
L 56.398826 61.548738 
L 56.398826 65.045289 
L 56.606574 65.045289 
L 56.606574 66.793565 
L 56.883572 66.793565 
L 56.883572 68.541841 
L 57.02207 68.541841 
L 57.09132 72.038392 
L 59.307302 72.038392 
L 59.307302 73.786668 
L 59.51505 73.786668 
L 59.51505 75.534944 
L 59.722798 75.534944 
L 59.722798 79.031495 
L 60.138295 79.031495 
L 60.138295 80.79105 
L 60.553791 80.79105 
L 60.553791 82.550605 
L 61.592533 82.550605 
L 61.592533 84.31016 
L 61.731032 84.31016 
L 61.731032 86.069715 
L 62.008029 86.069715 
L 62.008029 87.82927 
L 62.146528 87.82927 
L 62.215778 91.34838 
L 63.877764 91.34838 
L 63.877764 93.107935 
L 64.016263 93.107935 
L 64.085512 96.627045 
L 64.570258 96.627045 
L 64.570258 98.3866 
L 64.778007 98.3866 
L 64.778007 100.146155 
L 64.916506 100.146155 
L 64.916506 101.90571 
L 65.470501 101.90571 
L 65.470501 103.665265 
L 66.093746 103.665265 
L 66.093746 105.42482 
L 67.409485 105.42482 
L 67.409485 107.184375 
L 67.617233 107.184375 
L 67.617233 108.94393 
L 68.309728 108.94393 
L 68.309728 112.46304 
L 68.863723 112.46304 
L 68.932973 119.501259 
L 69.071471 119.501259 
L 69.071471 121.260814 
L 69.27922 121.260814 
L 69.27922 124.779924 
L 69.763966 124.779924 
L 69.763966 126.539479 
L 70.733458 126.539479 
L 70.733458 128.299034 
L 70.871957 128.299034 
L 70.871957 130.058589 
L 71.010456 130.058589 
L 71.010456 133.577699 
L 71.218204 133.577699 
L 71.218204 135.337254 
L 71.356703 135.337254 
L 71.356703 137.096809 
L 71.772199 137.096809 
L 71.772199 138.856364 
L 71.979948 138.856364 
L 71.979948 140.615919 
L 72.187696 140.615919 
L 72.187696 142.375474 
L 72.810941 142.375474 
L 72.810941 144.135029 
L 73.572684 144.135029 
L 73.572684 145.894584 
L 74.195929 145.894584 
L 74.195929 147.654139 
L 74.680675 147.654139 
L 74.680675 149.413694 
L 75.026923 149.413694 
L 75.096172 154.692359 
L 75.30392 154.692359 
L 75.30392 158.211469 
L 75.996415 158.211469 
L 75.996415 163.490133 
L 76.55041 163.490133 
L 76.55041 168.768798 
L 76.758158 168.768798 
L 76.827408 172.287908 
L 77.242904 172.287908 
L 77.242904 174.047463 
L 77.935399 174.047463 
L 77.935399 175.807018 
L 78.143147 175.807018 
L 78.143147 177.566573 
L 79.251138 177.566573 
L 79.320387 181.085683 
L 79.528136 181.085683 
L 79.528136 182.845238 
L 79.735884 182.845238 
L 79.735884 184.604793 
L 80.082131 184.604793 
L 80.082131 186.364348 
L 80.22063 186.364348 
L 80.22063 188.123903 
L 81.813367 188.123903 
L 81.813367 189.883458 
L 82.021115 189.883458 
L 82.021115 191.643013 
L 82.228863 191.643013 
L 82.228863 193.402568 
L 82.436612 193.402568 
L 82.436612 195.162123 
L 84.514095 195.162123 
L 84.514095 196.921678 
L 85.137339 196.921678 
L 85.206589 200.440788 
L 85.414337 200.440788 
L 85.414337 202.200342 
L 85.552836 202.200342 
L 85.552836 203.959897 
L 86.31458 203.959897 
L 86.31458 205.719452 
L 88.045816 205.719452 
L 88.045816 207.479007 
L 88.322813 207.479007 
L 88.392063 210.998117 
L 88.599811 210.998117 
L 88.66906 214.517227 
L 89.084557 214.517227 
L 89.084557 216.276782 
L 89.777051 216.276782 
L 89.777051 218.036337 
L 90.469546 218.036337 
L 90.538795 221.555447 
L 91.508287 221.555447 
L 91.508287 223.315002 
L 95.524754 223.315002 
L 95.524754 225.074557 
L 96.217248 225.074557 
L 96.217248 226.834112 
L 98.779477 226.834112 
L 98.779477 228.593667 
L 99.194974 228.593667 
L 99.194974 230.353222 
L 101.618704 230.353222 
L 101.618704 232.112777 
L 101.826452 232.112777 
L 101.826452 233.872332 
L 103.488439 233.872332 
L 103.488439 235.631887 
L 104.52718 235.631887 
L 104.52718 237.391442 
L 108.128151 237.391442 
L 108.128151 239.150997 
L 112.629364 239.150997 
L 112.629364 240.910552 
L 113.183359 240.910552 
L 113.183359 242.670107 
L 114.152851 242.670107 
L 114.152851 244.429661 
L 118.654064 244.429661 
L 118.654064 246.189216 
L 121.008545 246.189216 
L 121.008545 247.948771 
L 129.803223 247.948771 
L 129.803223 249.708326 
L 130.772715 249.708326 
L 130.772715 251.467881 
L 131.118962 251.467881 
L 131.118962 253.227436 
L 137.351411 253.227436 
L 137.351411 254.986991 
L 138.5979 254.986991 
L 138.5979 256.746546 
L 150.231805 256.746546 
L 150.231805 258.506101 
L 151.201297 258.506101 
L 151.201297 260.265656 
L 162.9737 260.265656 
L 162.9737 262.025211 
L 165.743677 262.025211 
L 165.743677 263.784766 
L 179.108818 263.784766 
L 179.108818 265.544321 
L 187.557248 265.544321 
L 187.557248 267.340533 
L 198.221661 267.340533 
L 198.221661 269.259215 
L 207.362585 269.259215 
L 207.362585 271.27149 
L 209.509318 271.27149 
L 209.509318 273.335363 
L 215.257021 273.335363 
L 215.257021 275.399235 
L 218.165497 275.399235 
L 218.165497 277.463107 
L 249.46624 277.463107 
L 249.46624 279.859863 
L 258.122419 279.859863 
L 258.122419 282.339264 
L 377.716186 282.339264 
L 377.716186 288.650469 
L 472.310909 288.650469 
L 472.310909 288.650469 
" style="fill:none;stroke:#808080;stroke-linecap:square;stroke-width:1.5;"/>
   </g>
   <g id="patch_3">
    <path d="M 33.64 366.5095 
L 33.64 26.88 
" style="fill:none;stroke:#000000;stroke-linecap:square;stroke-linejoin:miter;stroke-width:0.8;"/>
   </g>
   <g id="patch_4">
    <path d="M 493.2 366.5095 
L 493.2 26.88 
" style="fill:none;stroke:#000000;stroke-linecap:square;stroke-linejoin:miter;stroke-width:0.8;"/>
   </g>
   <g id="patch_5">
    <path d="M 33.64 366.5095 
L 493.2 366.5095 
" style="fill:none;stroke:#000000;stroke-linecap:square;stroke-linejoin:miter;stroke-width:0.8;"/>
   </g>
   <g id="patch_6">
    <path d="M 33.64 26.88 
L 493.2 26.88 
" style="fill:none;stroke:#000000;stroke-linecap:square;stroke-linejoin:miter;stroke-width:0.8;"/>
   </g>
   <g id="text_15">
    <text style="font-family:DejaVu Sans;font-size:12px;font-stretch:normal;font-style:normal;font-weight:normal;text-anchor:middle;" transform="rotate(-0, 263.42, 20.88)" x="263.42" y="20.88">Survival curves - model_type: ridge_cph_lifelines</text>
   </g>
   <g id="legend_1">
    <g id="patch_7">
     <path d="M 349.195312 78.914375 
L 486.2 78.914375 
Q 488.2 78.914375 488.2 76.914375 
L 488.2 33.88 
Q 488.2 31.88 486.2 31.88 
L 349.195312 31.88 
Q 347.195312 31.88 347.195312 33.88 
L 347.195312 76.914375 
Q 347.195312 78.914375 349.195312 78.914375 
z
" style="fill:#ffffff;opacity:0.8;stroke:#cccccc;stroke-linejoin:miter;"/>
    </g>
    <g id="line2d_33">
     <path d="M 351.195312 39.978437 
L 371.195312 39.978437 
" style="fill:none;stroke:#ff0000;stroke-linecap:square;stroke-width:1.5;"/>
    </g>
    <g id="line2d_34"/>
    <g id="text_16">
     <text style="font-family:DejaVu Sans;font-size:10px;font-stretch:normal;font-style:normal;font-weight:normal;text-anchor:start;" transform="rotate(-0, 379.195312, 43.478437)" x="379.195312" y="43.478437">adv. risk (n:78 c:3 )</text>
    </g>
    <g id="line2d_35">
     <path d="M 351.195312 54.656563 
L 371.195312 54.656563 
" style="fill:none;stroke:#0000ff;stroke-linecap:square;stroke-width:1.5;"/>
    </g>
    <g id="line2d_36"/>
    <g id="text_17">
     <text style="font-family:DejaVu Sans;font-size:10px;font-stretch:normal;font-style:normal;font-weight:normal;text-anchor:start;" transform="rotate(-0, 379.195312, 58.156563)" x="379.195312" y="58.156563">fav. risk (n:45 c:33)</text>
    </g>
    <g id="line2d_37">
     <path d="M 351.195312 69.334687 
L 371.195312 69.334687 
" style="fill:none;stroke:#808080;stroke-linecap:square;stroke-width:1.5;"/>
    </g>
    <g id="line2d_38"/>
    <g id="text_18">
     <text style="font-family:DejaVu Sans;font-size:10px;font-stretch:normal;font-style:normal;font-weight:normal;text-anchor:start;" transform="rotate(-0, 379.195312, 72.834687)" x="379.195312" y="72.834687">int. risk (n:177 c:41 )</text>
    </g>
   </g>
  </g>
 </g>
 <defs>
  <clipPath id="p0d233206a8">
   <rect height="339.6295" width="459.56" x="33.64" y="26.88"/>
  </clipPath>
 </defs>
</svg>
