<?xml version="1.0" encoding="utf-8" standalone="no"?>
<!DOCTYPE svg PUBLIC "-//W3C//DTD SVG 1.1//EN"
  "http://www.w3.org/Graphics/SVG/1.1/DTD/svg11.dtd">
<!-- Created with matplotlib (https://matplotlib.org/) -->
<svg height="432pt" version="1.1" viewBox="0 0 504 432" width="504pt" xmlns="http://www.w3.org/2000/svg" xmlns:xlink="http://www.w3.org/1999/xlink">
 <metadata>
  <rdf:RDF xmlns:cc="http://creativecommons.org/ns#" xmlns:dc="http://purl.org/dc/elements/1.1/" xmlns:rdf="http://www.w3.org/1999/02/22-rdf-syntax-ns#">
   <cc:Work>
    <dc:type rdf:resource="http://purl.org/dc/dcmitype/StillImage"/>
    <dc:date>2022-11-15T14:31:45.960959</dc:date>
    <dc:format>image/svg+xml</dc:format>
    <dc:creator>
     <cc:Agent>
      <dc:title>Matplotlib v3.3.4, https://matplotlib.org/</dc:title>
     </cc:Agent>
    </dc:creator>
   </cc:Work>
  </rdf:RDF>
 </metadata>
 <defs>
  <style type="text/css">*{stroke-linecap:butt;stroke-linejoin:round;}</style>
 </defs>
 <g id="figure_1">
  <g id="patch_1">
   <path d="M 0 432 
L 504 432 
L 504 0 
L 0 0 
z
" style="fill:#ffffff;"/>
  </g>
  <g id="axes_1">
   <g id="patch_2">
    <path d="M 33.64 366.5095 
L 493.2 366.5095 
L 493.2 26.88 
L 33.64 26.88 
z
" style="fill:#ffffff;"/>
   </g>
   <g id="PolyCollection_1">
    <defs>
     <path d="M 54.529091 -389.682295 
L 54.529091 -389.682295 
L 55.290835 -389.682295 
L 55.290835 -362.656101 
L 55.360084 -362.656101 
L 55.360084 -349.270897 
L 55.567832 -349.270897 
L 55.567832 -344.243842 
L 55.91408 -344.243842 
L 55.91408 -339.285032 
L 55.983329 -339.285032 
L 55.983329 -334.400771 
L 56.052578 -334.400771 
L 56.052578 -329.588339 
L 56.606574 -329.588339 
L 56.606574 -324.842672 
L 56.952821 -324.842672 
L 56.952821 -320.158431 
L 57.02207 -320.158431 
L 57.02207 -306.427345 
L 57.09132 -306.427345 
L 57.09132 -301.944595 
L 57.783814 -301.944595 
L 57.783814 -297.503733 
L 58.060812 -297.503733 
L 58.060812 -293.10221 
L 58.822556 -293.10221 
L 58.822556 -288.737801 
L 59.030304 -288.737801 
L 59.030304 -284.408556 
L 59.584299 -284.408556 
L 59.584299 -280.112759 
L 60.138295 -280.112759 
L 60.138295 -275.848897 
L 60.276794 -275.848897 
L 60.276794 -271.615636 
L 60.623041 -271.615636 
L 60.623041 -267.411792 
L 60.830789 -267.411792 
L 60.830789 -263.236314 
L 60.969288 -263.236314 
L 60.969288 -259.088271 
L 61.246286 -259.088271 
L 61.246286 -254.966837 
L 61.523283 -254.966837 
L 61.523283 -250.871276 
L 61.592533 -250.871276 
L 61.592533 -246.800939 
L 62.215778 -246.800939 
L 62.215778 -242.755251 
L 62.285027 -242.755251 
L 62.285027 -238.733706 
L 62.839023 -238.733706 
L 62.839023 -234.735861 
L 63.739265 -234.735861 
L 63.739265 -230.761333 
L 63.877764 -230.761333 
L 63.877764 -226.80979 
L 63.947014 -226.80979 
L 63.947014 -222.880953 
L 64.43176 -222.880953 
L 64.43176 -218.974591 
L 64.570258 -218.974591 
L 64.570258 -215.090517 
L 64.708757 -215.090517 
L 64.708757 -211.22859 
L 64.778007 -211.22859 
L 64.778007 -207.388709 
L 64.916506 -207.388709 
L 64.916506 -203.570817 
L 65.055004 -203.570817 
L 65.055004 -199.774896 
L 65.193503 -199.774896 
L 65.193503 -196.00097 
L 65.678249 -196.00097 
L 65.678249 -192.249103 
L 65.816748 -192.249103 
L 65.816748 -188.5194 
L 66.162995 -188.5194 
L 66.162995 -184.81201 
L 66.439993 -184.81201 
L 66.439993 -181.127124 
L 66.647741 -181.127124 
L 66.647741 -177.464981 
L 66.716991 -177.464981 
L 66.716991 -173.825864 
L 67.409485 -173.825864 
L 67.409485 -170.210109 
L 67.617233 -170.210109 
L 67.617233 -166.618106 
L 68.309728 -166.618106 
L 68.309728 -163.050302 
L 68.932973 -163.050302 
L 68.932973 -159.507208 
L 69.27922 -159.507208 
L 69.27922 -155.989401 
L 69.763966 -155.989401 
L 69.763966 -152.497537 
L 69.833215 -152.497537 
L 69.833215 -149.032353 
L 70.802707 -149.032353 
L 70.802707 -145.59468 
L 71.218204 -145.59468 
L 71.218204 -142.185455 
L 71.495202 -142.185455 
L 71.495202 -138.805731 
L 71.772199 -138.805731 
L 71.772199 -135.4567 
L 72.187696 -135.4567 
L 72.187696 -132.139707 
L 72.741691 -132.139707 
L 72.741691 -128.856279 
L 73.018689 -128.856279 
L 73.018689 -125.608154 
L 75.788666 -125.608154 
L 75.788666 -122.39732 
L 75.996415 -122.39732 
L 75.996415 -119.226061 
L 76.758158 -119.226061 
L 76.758158 -116.097022 
L 77.935399 -116.097022 
L 77.935399 -113.013282 
L 80.082131 -113.013282 
L 80.082131 -109.978463 
L 84.029349 -109.978463 
L 84.029349 -106.996862 
L 85.552836 -106.996862 
L 85.552836 -104.073643 
L 89.777051 -104.073643 
L 89.777051 -101.21509 
L 90.538795 -101.21509 
L 90.538795 -98.428985 
L 95.386255 -98.428985 
L 95.386255 -98.428985 
L 99.194974 -98.428985 
L 99.194974 -95.283191 
L 101.618704 -95.283191 
L 101.618704 -92.292141 
L 110.274883 -92.292141 
L 110.274883 -89.482248 
L 116.645831 -89.482248 
L 116.645831 -86.892147 
L 129.803223 -86.892147 
L 129.803223 -84.58204 
L 131.118962 -84.58204 
L 131.118962 -82.654831 
L 204.800357 -82.654831 
L 204.800357 -81.312453 
L 347.800432 -81.312453 
L 347.800432 -80.928205 
L 347.800432 -80.928205 
L 347.800432 -80.928205 
L 347.800432 -101.965037 
L 204.800357 -101.965037 
L 204.800357 -108.269448 
L 131.118962 -108.269448 
L 131.118962 -114.371554 
L 129.803223 -114.371554 
L 129.803223 -120.209704 
L 116.645831 -120.209704 
L 116.645831 -125.831439 
L 110.274883 -125.831439 
L 110.274883 -131.276518 
L 101.618704 -131.276518 
L 101.618704 -136.573693 
L 99.194974 -136.573693 
L 99.194974 -141.743809 
L 95.386255 -141.743809 
L 95.386255 -141.743809 
L 90.538795 -141.743809 
L 90.538795 -146.474114 
L 89.777051 -146.474114 
L 89.777051 -151.140571 
L 85.552836 -151.140571 
L 85.552836 -155.749723 
L 84.029349 -155.749723 
L 84.029349 -160.306898 
L 80.082131 -160.306898 
L 80.082131 -164.816492 
L 77.935399 -164.816492 
L 77.935399 -169.282184 
L 76.758158 -169.282184 
L 76.758158 -173.70708 
L 75.996415 -173.70708 
L 75.996415 -178.093829 
L 75.788666 -178.093829 
L 75.788666 -182.444708 
L 73.018689 -182.444708 
L 73.018689 -186.761688 
L 72.741691 -186.761688 
L 72.741691 -191.046483 
L 72.187696 -191.046483 
L 72.187696 -195.300593 
L 71.772199 -195.300593 
L 71.772199 -199.525333 
L 71.495202 -199.525333 
L 71.495202 -203.721864 
L 71.218204 -203.721864 
L 71.218204 -207.891207 
L 70.802707 -207.891207 
L 70.802707 -212.034268 
L 69.833215 -212.034268 
L 69.833215 -216.151848 
L 69.763966 -216.151848 
L 69.763966 -220.244654 
L 69.27922 -220.244654 
L 69.27922 -224.313312 
L 68.932973 -224.313312 
L 68.932973 -228.358373 
L 68.309728 -228.358373 
L 68.309728 -232.380322 
L 67.617233 -232.380322 
L 67.617233 -236.37958 
L 67.409485 -236.37958 
L 67.409485 -240.356515 
L 66.716991 -240.356515 
L 66.716991 -244.311438 
L 66.647741 -244.311438 
L 66.647741 -248.244614 
L 66.439993 -248.244614 
L 66.439993 -252.156261 
L 66.162995 -252.156261 
L 66.162995 -256.046553 
L 65.816748 -256.046553 
L 65.816748 -259.915621 
L 65.678249 -259.915621 
L 65.678249 -263.763555 
L 65.193503 -263.763555 
L 65.193503 -267.590405 
L 65.055004 -267.590405 
L 65.055004 -271.396182 
L 64.916506 -271.396182 
L 64.916506 -275.180856 
L 64.778007 -275.180856 
L 64.778007 -278.944358 
L 64.708757 -278.944358 
L 64.708757 -282.68658 
L 64.570258 -282.68658 
L 64.570258 -286.40737 
L 64.43176 -286.40737 
L 64.43176 -290.106536 
L 63.947014 -290.106536 
L 63.947014 -293.783839 
L 63.877764 -293.783839 
L 63.877764 -297.438996 
L 63.739265 -297.438996 
L 63.739265 -301.07167 
L 62.839023 -301.07167 
L 62.839023 -304.681475 
L 62.285027 -304.681475 
L 62.285027 -308.267964 
L 62.215778 -308.267964 
L 62.215778 -311.830629 
L 61.592533 -311.830629 
L 61.592533 -315.368893 
L 61.523283 -315.368893 
L 61.523283 -318.882105 
L 61.246286 -318.882105 
L 61.246286 -322.369526 
L 60.969288 -322.369526 
L 60.969288 -325.830325 
L 60.830789 -325.830325 
L 60.830789 -329.263565 
L 60.623041 -329.263565 
L 60.623041 -332.668185 
L 60.276794 -332.668185 
L 60.276794 -336.042985 
L 60.138295 -336.042985 
L 60.138295 -339.386606 
L 59.584299 -339.386606 
L 59.584299 -342.697497 
L 59.030304 -342.697497 
L 59.030304 -345.973889 
L 58.822556 -345.973889 
L 58.822556 -349.213746 
L 58.060812 -349.213746 
L 58.060812 -352.414714 
L 57.783814 -352.414714 
L 57.783814 -355.574055 
L 57.09132 -355.574055 
L 57.09132 -358.688552 
L 57.02207 -358.688552 
L 57.02207 -367.720807 
L 56.952821 -367.720807 
L 56.952821 -370.608951 
L 56.606574 -370.608951 
L 56.606574 -373.422767 
L 56.052578 -373.422767 
L 56.052578 -376.15108 
L 55.983329 -376.15108 
L 55.983329 -378.77903 
L 55.91408 -378.77903 
L 55.91408 -381.286092 
L 55.567832 -381.286092 
L 55.567832 -383.642439 
L 55.360084 -383.642439 
L 55.360084 -389.121616 
L 55.290835 -389.121616 
L 55.290835 -389.682295 
L 54.529091 -389.682295 
z
" id="m5aeda2dddd" style="stroke:#ff0000;stroke-opacity:0.25;"/>
    </defs>
    <g clip-path="url(#pea26427437)">
     <use style="fill:#ff0000;fill-opacity:0.25;stroke:#ff0000;stroke-opacity:0.25;" x="0" xlink:href="#m5aeda2dddd" y="432"/>
    </g>
   </g>
   <g id="PolyCollection_2">
    <defs>
     <path d="M 54.529091 -389.682295 
L 54.529091 -389.682295 
L 75.442419 -389.682295 
L 75.442419 -344.151354 
L 75.580918 -344.151354 
L 75.580918 -338.357461 
L 76.55041 -338.357461 
L 76.55041 -330.208997 
L 78.143147 -330.208997 
L 78.143147 -321.838936 
L 88.045816 -321.838936 
L 88.045816 -313.552427 
L 95.524754 -313.552427 
L 95.524754 -305.411739 
L 101.687954 -305.411739 
L 101.687954 -297.425142 
L 106.812411 -297.425142 
L 106.812411 -289.586707 
L 114.152851 -289.586707 
L 114.152851 -281.887116 
L 118.654064 -281.887116 
L 118.654064 -274.316949 
L 122.462783 -274.316949 
L 122.462783 -266.867683 
L 168.305906 -266.867683 
L 168.305906 -259.531921 
L 182.709788 -259.531921 
L 182.709788 -259.531921 
L 184.579523 -259.531921 
L 184.579523 -259.531921 
L 187.557248 -259.531921 
L 187.557248 -251.643423 
L 187.834246 -251.643423 
L 187.834246 -251.643423 
L 193.651198 -251.643423 
L 193.651198 -251.643423 
L 208.678325 -251.643423 
L 208.678325 -251.643423 
L 218.026998 -251.643423 
L 218.026998 -242.678589 
L 218.373245 -242.678589 
L 218.373245 -242.678589 
L 224.259447 -242.678589 
L 224.259447 -242.678589 
L 226.26768 -242.678589 
L 226.26768 -242.678589 
L 232.153882 -242.678589 
L 232.153882 -242.678589 
L 235.685603 -242.678589 
L 235.685603 -242.678589 
L 245.519022 -242.678589 
L 245.519022 -242.678589 
L 253.759704 -242.678589 
L 253.759704 -242.678589 
L 263.177627 -242.678589 
L 263.177627 -242.678589 
L 280.697733 -242.678589 
L 280.697733 -242.678589 
L 284.160205 -242.678589 
L 284.160205 -242.678589 
L 289.838658 -242.678589 
L 289.838658 -242.678589 
L 316.638188 -242.678589 
L 316.638188 -242.678589 
L 322.039643 -242.678589 
L 322.039643 -242.678589 
L 338.31326 -242.678589 
L 338.31326 -242.678589 
L 344.060963 -242.678589 
L 344.060963 -242.678589 
L 356.52586 -242.678589 
L 356.52586 -242.678589 
L 357.910849 -242.678589 
L 357.910849 -242.678589 
L 359.503586 -242.678589 
L 359.503586 -242.678589 
L 370.652744 -242.678589 
L 370.652744 -242.678589 
L 383.256141 -242.678589 
L 383.256141 -242.678589 
L 389.904086 -242.678589 
L 389.904086 -242.678589 
L 398.491015 -242.678589 
L 398.491015 -242.678589 
L 408.393684 -242.678589 
L 408.393684 -242.678589 
L 425.221296 -242.678589 
L 425.221296 -242.678589 
L 441.356413 -242.678589 
L 441.356413 -242.678589 
L 441.356413 -327.679109 
L 441.356413 -327.679109 
L 441.356413 -327.679109 
L 425.221296 -327.679109 
L 425.221296 -327.679109 
L 408.393684 -327.679109 
L 408.393684 -327.679109 
L 398.491015 -327.679109 
L 398.491015 -327.679109 
L 389.904086 -327.679109 
L 389.904086 -327.679109 
L 383.256141 -327.679109 
L 383.256141 -327.679109 
L 370.652744 -327.679109 
L 370.652744 -327.679109 
L 359.503586 -327.679109 
L 359.503586 -327.679109 
L 357.910849 -327.679109 
L 357.910849 -327.679109 
L 356.52586 -327.679109 
L 356.52586 -327.679109 
L 344.060963 -327.679109 
L 344.060963 -327.679109 
L 338.31326 -327.679109 
L 338.31326 -327.679109 
L 322.039643 -327.679109 
L 322.039643 -327.679109 
L 316.638188 -327.679109 
L 316.638188 -327.679109 
L 289.838658 -327.679109 
L 289.838658 -327.679109 
L 284.160205 -327.679109 
L 284.160205 -327.679109 
L 280.697733 -327.679109 
L 280.697733 -327.679109 
L 263.177627 -327.679109 
L 263.177627 -327.679109 
L 253.759704 -327.679109 
L 253.759704 -327.679109 
L 245.519022 -327.679109 
L 245.519022 -327.679109 
L 235.685603 -327.679109 
L 235.685603 -327.679109 
L 232.153882 -327.679109 
L 232.153882 -327.679109 
L 226.26768 -327.679109 
L 226.26768 -327.679109 
L 224.259447 -327.679109 
L 224.259447 -327.679109 
L 218.373245 -327.679109 
L 218.373245 -327.679109 
L 218.026998 -327.679109 
L 218.026998 -334.098303 
L 208.678325 -334.098303 
L 208.678325 -334.098303 
L 193.651198 -334.098303 
L 193.651198 -334.098303 
L 187.834246 -334.098303 
L 187.834246 -334.098303 
L 187.557248 -334.098303 
L 187.557248 -339.922134 
L 184.579523 -339.922134 
L 184.579523 -339.922134 
L 182.709788 -339.922134 
L 182.709788 -339.922134 
L 168.305906 -339.922134 
L 168.305906 -345.368151 
L 122.462783 -345.368151 
L 122.462783 -350.691469 
L 118.654064 -350.691469 
L 118.654064 -355.880502 
L 114.152851 -355.880502 
L 114.152851 -360.920483 
L 106.812411 -360.920483 
L 106.812411 -365.792193 
L 101.687954 -365.792193 
L 101.687954 -370.469937 
L 95.524754 -370.469937 
L 95.524754 -374.9181 
L 88.045816 -374.9181 
L 88.045816 -379.084849 
L 78.143147 -379.084849 
L 78.143147 -382.889381 
L 76.55041 -382.889381 
L 76.55041 -386.192048 
L 75.580918 -386.192048 
L 75.580918 -388.706488 
L 75.442419 -388.706488 
L 75.442419 -389.682295 
L 54.529091 -389.682295 
z
" id="m6d7eecbc2f" style="stroke:#0000ff;stroke-opacity:0.25;"/>
    </defs>
    <g clip-path="url(#pea26427437)">
     <use style="fill:#0000ff;fill-opacity:0.25;stroke:#0000ff;stroke-opacity:0.25;" x="0" xlink:href="#m6d7eecbc2f" y="432"/>
    </g>
   </g>
   <g id="PolyCollection_3">
    <defs>
     <path d="M 54.529091 -389.682295 
L 54.529091 -389.682295 
L 55.083086 -389.682295 
L 55.083086 -377.51015 
L 55.152336 -377.51015 
L 55.152336 -375.967193 
L 55.360084 -375.967193 
L 55.360084 -373.743475 
L 55.429334 -373.743475 
L 55.429334 -371.43891 
L 55.498583 -371.43891 
L 55.498583 -369.140674 
L 55.775581 -369.140674 
L 55.775581 -366.867643 
L 56.052578 -366.867643 
L 56.052578 -360.215559 
L 56.191077 -360.215559 
L 56.191077 -358.048082 
L 56.329576 -358.048082 
L 56.329576 -355.902004 
L 56.398826 -355.902004 
L 56.398826 -351.666741 
L 56.537324 -351.666741 
L 56.537324 -349.574448 
L 56.883572 -349.574448 
L 56.883572 -347.497293 
L 58.33781 -347.497293 
L 58.33781 -345.434164 
L 59.307302 -345.434164 
L 59.307302 -343.384081 
L 59.51505 -343.384081 
L 59.51505 -341.346179 
L 59.722798 -341.346179 
L 59.722798 -337.303935 
L 59.861297 -337.303935 
L 59.861297 -335.298296 
L 60.138295 -335.298296 
L 60.138295 -333.285815 
L 60.415293 -333.285815 
L 60.415293 -331.282776 
L 60.553791 -331.282776 
L 60.553791 -329.288692 
L 61.592533 -329.288692 
L 61.592533 -327.303124 
L 61.731032 -327.303124 
L 61.731032 -325.325673 
L 62.008029 -325.325673 
L 62.008029 -323.355977 
L 62.146528 -323.355977 
L 62.146528 -321.393704 
L 62.215778 -321.393704 
L 62.215778 -319.43855 
L 63.046771 -319.43855 
L 63.046771 -317.490236 
L 63.323769 -317.490236 
L 63.323769 -315.548506 
L 63.462268 -315.548506 
L 63.462268 -313.613123 
L 63.877764 -313.613123 
L 63.877764 -311.683866 
L 64.016263 -311.683866 
L 64.016263 -309.760533 
L 64.085512 -309.760533 
L 64.085512 -307.842935 
L 64.778007 -307.842935 
L 64.778007 -305.930895 
L 64.916506 -305.930895 
L 64.916506 -304.024249 
L 65.055004 -304.024249 
L 65.055004 -302.122845 
L 65.470501 -302.122845 
L 65.470501 -300.22654 
L 65.955247 -300.22654 
L 65.955247 -298.335198 
L 66.093746 -298.335198 
L 66.093746 -296.448696 
L 68.309728 -296.448696 
L 68.309728 -294.566913 
L 68.863723 -294.566913 
L 68.863723 -292.689741 
L 68.932973 -292.689741 
L 68.932973 -288.948813 
L 69.071471 -288.948813 
L 69.071471 -287.084868 
L 69.27922 -287.084868 
L 69.27922 -285.225151 
L 70.733458 -285.225151 
L 70.733458 -283.369578 
L 70.871957 -283.369578 
L 70.871957 -281.518073 
L 70.941206 -281.518073 
L 70.941206 -279.670562 
L 71.010456 -279.670562 
L 71.010456 -275.987249 
L 71.218204 -275.987249 
L 71.218204 -274.151318 
L 71.356703 -274.151318 
L 71.356703 -272.319126 
L 71.910698 -272.319126 
L 71.910698 -270.490616 
L 71.979948 -270.490616 
L 71.979948 -268.665736 
L 72.049197 -268.665736 
L 72.049197 -266.844436 
L 72.810941 -266.844436 
L 72.810941 -265.02667 
L 73.572684 -265.02667 
L 73.572684 -263.212391 
L 74.195929 -263.212391 
L 74.195929 -261.401559 
L 74.334428 -261.401559 
L 74.334428 -259.594132 
L 74.680675 -259.594132 
L 74.680675 -257.790075 
L 75.026923 -257.790075 
L 75.026923 -254.191925 
L 75.096172 -254.191925 
L 75.096172 -252.397767 
L 75.30392 -252.397767 
L 75.30392 -248.819136 
L 75.442419 -248.819136 
L 75.442419 -247.034608 
L 75.996415 -247.034608 
L 75.996415 -243.475004 
L 76.55041 -243.475004 
L 76.55041 -239.927856 
L 76.827408 -239.927856 
L 76.827408 -238.158902 
L 77.242904 -238.158902 
L 77.242904 -234.63015 
L 79.251138 -234.63015 
L 79.251138 -232.870321 
L 79.320387 -232.870321 
L 79.320387 -231.113505 
L 79.528136 -231.113505 
L 79.528136 -229.359689 
L 79.735884 -229.359689 
L 79.735884 -227.608863 
L 80.22063 -227.608863 
L 80.22063 -225.861017 
L 81.813367 -225.861017 
L 81.813367 -224.116142 
L 82.021115 -224.116142 
L 82.021115 -222.374232 
L 82.090365 -222.374232 
L 82.090365 -220.635279 
L 82.228863 -220.635279 
L 82.228863 -218.89928 
L 82.436612 -218.89928 
L 82.436612 -217.166229 
L 84.514095 -217.166229 
L 84.514095 -215.436125 
L 85.137339 -215.436125 
L 85.137339 -213.708966 
L 85.206589 -213.708966 
L 85.206589 -211.984751 
L 85.414337 -211.984751 
L 85.414337 -210.263481 
L 86.31458 -210.263481 
L 86.31458 -208.545157 
L 88.045816 -208.545157 
L 88.045816 -206.829783 
L 88.322813 -206.829783 
L 88.322813 -205.117363 
L 88.392063 -205.117363 
L 88.392063 -203.407901 
L 88.599811 -203.407901 
L 88.599811 -199.997879 
L 88.66906 -199.997879 
L 88.66906 -198.297336 
L 89.084557 -198.297336 
L 89.084557 -196.599783 
L 90.469546 -196.599783 
L 90.469546 -194.905232 
L 91.508287 -194.905232 
L 91.508287 -193.213694 
L 96.217248 -193.213694 
L 96.217248 -191.525185 
L 98.779477 -191.525185 
L 98.779477 -189.839717 
L 100.233715 -189.839717 
L 100.233715 -188.157308 
L 101.826452 -188.157308 
L 101.826452 -186.477975 
L 103.488439 -186.477975 
L 103.488439 -184.801736 
L 104.52718 -184.801736 
L 104.52718 -183.128611 
L 108.128151 -183.128611 
L 108.128151 -181.458623 
L 110.69038 -181.458623 
L 110.69038 -179.791795 
L 111.86762 -179.791795 
L 111.86762 -178.12815 
L 112.629364 -178.12815 
L 112.629364 -176.467715 
L 112.767863 -176.467715 
L 112.767863 -174.810519 
L 113.183359 -174.810519 
L 113.183359 -173.156591 
L 121.008545 -173.156591 
L 121.008545 -171.505962 
L 130.772715 -171.505962 
L 130.772715 -169.858666 
L 137.351411 -169.858666 
L 137.351411 -168.214738 
L 138.5979 -168.214738 
L 138.5979 -166.574214 
L 150.231805 -166.574214 
L 150.231805 -164.937136 
L 151.201297 -164.937136 
L 151.201297 -163.303543 
L 156.118006 -163.303543 
L 156.118006 -161.673481 
L 162.9737 -161.673481 
L 162.9737 -160.046995 
L 165.743677 -160.046995 
L 165.743677 -158.424135 
L 179.108818 -158.424135 
L 179.108818 -156.804952 
L 181.463298 -156.804952 
L 181.463298 -155.189501 
L 187.3495 -155.189501 
L 187.3495 -155.189501 
L 189.703981 -155.189501 
L 189.703981 -155.189501 
L 191.850713 -155.189501 
L 191.850713 -155.189501 
L 198.221661 -155.189501 
L 198.221661 -153.466896 
L 198.983404 -153.466896 
L 198.983404 -153.466896 
L 206.254595 -153.466896 
L 206.254595 -153.466896 
L 207.362585 -153.466896 
L 207.362585 -151.665068 
L 208.262828 -151.665068 
L 208.262828 -151.665068 
L 209.024572 -151.665068 
L 209.024572 -149.82317 
L 209.509318 -149.82317 
L 209.509318 -147.98787 
L 215.257021 -147.98787 
L 215.257021 -146.159256 
L 218.165497 -146.159256 
L 218.165497 -144.337426 
L 227.444921 -144.337426 
L 227.444921 -144.337426 
L 237.001342 -144.337426 
L 237.001342 -144.337426 
L 237.901585 -144.337426 
L 237.901585 -144.337426 
L 241.156308 -144.337426 
L 241.156308 -144.337426 
L 248.704496 -144.337426 
L 248.704496 -144.337426 
L 249.46624 -144.337426 
L 249.46624 -142.227226 
L 252.859462 -142.227226 
L 252.859462 -142.227226 
L 258.122419 -142.227226 
L 258.122419 -140.056693 
L 261.377142 -140.056693 
L 261.377142 -140.056693 
L 265.878355 -140.056693 
L 265.878355 -137.820578 
L 266.43235 -137.820578 
L 266.43235 -137.820578 
L 269.133078 -137.820578 
L 269.133078 -137.820578 
L 270.10257 -137.820578 
L 270.10257 -137.820578 
L 280.420735 -137.820578 
L 280.420735 -137.820578 
L 295.586361 -137.820578 
L 295.586361 -137.820578 
L 302.234306 -137.820578 
L 302.234306 -137.820578 
L 322.385891 -137.820578 
L 322.385891 -137.820578 
L 330.626573 -137.820578 
L 330.626573 -137.820578 
L 330.765072 -137.820578 
L 330.765072 -137.820578 
L 333.535049 -137.820578 
L 333.535049 -137.820578 
L 333.673548 -137.820578 
L 333.673548 -137.820578 
L 333.812047 -137.820578 
L 333.812047 -137.820578 
L 333.881296 -137.820578 
L 333.881296 -137.820578 
L 351.609151 -137.820578 
L 351.609151 -137.820578 
L 374.738461 -137.820578 
L 374.738461 -137.820578 
L 376.746694 -137.820578 
L 376.746694 -137.820578 
L 377.716186 -137.820578 
L 377.716186 -132.044884 
L 380.693912 -132.044884 
L 380.693912 -132.044884 
L 388.726846 -132.044884 
L 388.726846 -132.044884 
L 391.566072 -132.044884 
L 391.566072 -132.044884 
L 392.604814 -132.044884 
L 392.604814 -132.044884 
L 393.505056 -132.044884 
L 393.505056 -132.044884 
L 405.069711 -132.044884 
L 405.069711 -132.044884 
L 432.907983 -132.044884 
L 432.907983 -132.044884 
L 445.926876 -132.044884 
L 445.926876 -132.044884 
L 455.483297 -132.044884 
L 455.483297 -132.044884 
L 458.184025 -132.044884 
L 458.184025 -132.044884 
L 459.499764 -132.044884 
L 459.499764 -132.044884 
L 463.931728 -132.044884 
L 463.931728 -132.044884 
L 464.347225 -132.044884 
L 464.347225 -132.044884 
L 472.310909 -132.044884 
L 472.310909 -132.044884 
L 472.310909 -173.974943 
L 472.310909 -173.974943 
L 472.310909 -173.974943 
L 464.347225 -173.974943 
L 464.347225 -173.974943 
L 463.931728 -173.974943 
L 463.931728 -173.974943 
L 459.499764 -173.974943 
L 459.499764 -173.974943 
L 458.184025 -173.974943 
L 458.184025 -173.974943 
L 455.483297 -173.974943 
L 455.483297 -173.974943 
L 445.926876 -173.974943 
L 445.926876 -173.974943 
L 432.907983 -173.974943 
L 432.907983 -173.974943 
L 405.069711 -173.974943 
L 405.069711 -173.974943 
L 393.505056 -173.974943 
L 393.505056 -173.974943 
L 392.604814 -173.974943 
L 392.604814 -173.974943 
L 391.566072 -173.974943 
L 391.566072 -173.974943 
L 388.726846 -173.974943 
L 388.726846 -173.974943 
L 380.693912 -173.974943 
L 380.693912 -173.974943 
L 377.716186 -173.974943 
L 377.716186 -177.877964 
L 376.746694 -177.877964 
L 376.746694 -177.877964 
L 374.738461 -177.877964 
L 374.738461 -177.877964 
L 351.609151 -177.877964 
L 351.609151 -177.877964 
L 333.881296 -177.877964 
L 333.881296 -177.877964 
L 333.812047 -177.877964 
L 333.812047 -177.877964 
L 333.673548 -177.877964 
L 333.673548 -177.877964 
L 333.535049 -177.877964 
L 333.535049 -177.877964 
L 330.765072 -177.877964 
L 330.765072 -177.877964 
L 330.626573 -177.877964 
L 330.626573 -177.877964 
L 322.385891 -177.877964 
L 322.385891 -177.877964 
L 302.234306 -177.877964 
L 302.234306 -177.877964 
L 295.586361 -177.877964 
L 295.586361 -177.877964 
L 280.420735 -177.877964 
L 280.420735 -177.877964 
L 270.10257 -177.877964 
L 270.10257 -177.877964 
L 269.133078 -177.877964 
L 269.133078 -177.877964 
L 266.43235 -177.877964 
L 266.43235 -177.877964 
L 265.878355 -177.877964 
L 265.878355 -180.285329 
L 261.377142 -180.285329 
L 261.377142 -180.285329 
L 258.122419 -180.285329 
L 258.122419 -182.626152 
L 252.859462 -182.626152 
L 252.859462 -182.626152 
L 249.46624 -182.626152 
L 249.46624 -184.90572 
L 248.704496 -184.90572 
L 248.704496 -184.90572 
L 241.156308 -184.90572 
L 241.156308 -184.90572 
L 237.901585 -184.90572 
L 237.901585 -184.90572 
L 237.001342 -184.90572 
L 237.001342 -184.90572 
L 227.444921 -184.90572 
L 227.444921 -184.90572 
L 218.165497 -184.90572 
L 218.165497 -186.958119 
L 215.257021 -186.958119 
L 215.257021 -189.004525 
L 209.509318 -189.004525 
L 209.509318 -191.045037 
L 209.024572 -191.045037 
L 209.024572 -193.079741 
L 208.262828 -193.079741 
L 208.262828 -193.079741 
L 207.362585 -193.079741 
L 207.362585 -195.073383 
L 206.254595 -195.073383 
L 206.254595 -195.073383 
L 198.983404 -195.073383 
L 198.983404 -195.073383 
L 198.221661 -195.073383 
L 198.221661 -196.99598 
L 191.850713 -196.99598 
L 191.850713 -196.99598 
L 189.703981 -196.99598 
L 189.703981 -196.99598 
L 187.3495 -196.99598 
L 187.3495 -196.99598 
L 181.463298 -196.99598 
L 181.463298 -198.824677 
L 179.108818 -198.824677 
L 179.108818 -200.649845 
L 165.743677 -200.649845 
L 165.743677 -202.471532 
L 162.9737 -202.471532 
L 162.9737 -204.289785 
L 156.118006 -204.289785 
L 156.118006 -206.104647 
L 151.201297 -206.104647 
L 151.201297 -207.916161 
L 150.231805 -207.916161 
L 150.231805 -209.724365 
L 138.5979 -209.724365 
L 138.5979 -211.529297 
L 137.351411 -211.529297 
L 137.351411 -213.330991 
L 130.772715 -213.330991 
L 130.772715 -215.129481 
L 121.008545 -215.129481 
L 121.008545 -216.924798 
L 113.183359 -216.924798 
L 113.183359 -218.716972 
L 112.767863 -218.716972 
L 112.767863 -220.506031 
L 112.629364 -220.506031 
L 112.629364 -222.291999 
L 111.86762 -222.291999 
L 111.86762 -224.074903 
L 110.69038 -224.074903 
L 110.69038 -225.854765 
L 108.128151 -225.854765 
L 108.128151 -227.631606 
L 104.52718 -227.631606 
L 104.52718 -229.405447 
L 103.488439 -229.405447 
L 103.488439 -231.176307 
L 101.826452 -231.176307 
L 101.826452 -232.944201 
L 100.233715 -232.944201 
L 100.233715 -234.709148 
L 98.779477 -234.709148 
L 98.779477 -236.47116 
L 96.217248 -236.47116 
L 96.217248 -238.230253 
L 91.508287 -238.230253 
L 91.508287 -239.986437 
L 90.469546 -239.986437 
L 90.469546 -241.739725 
L 89.084557 -241.739725 
L 89.084557 -243.490125 
L 88.66906 -243.490125 
L 88.66906 -245.237647 
L 88.599811 -245.237647 
L 88.599811 -248.724086 
L 88.392063 -248.724086 
L 88.392063 -250.463014 
L 88.322813 -250.463014 
L 88.322813 -252.199087 
L 88.045816 -252.199087 
L 88.045816 -253.932309 
L 86.31458 -253.932309 
L 86.31458 -255.662681 
L 85.414337 -255.662681 
L 85.414337 -257.390204 
L 85.206589 -257.390204 
L 85.206589 -259.114879 
L 85.137339 -259.114879 
L 85.137339 -260.836704 
L 84.514095 -260.836704 
L 84.514095 -262.555678 
L 82.436612 -262.555678 
L 82.436612 -264.271795 
L 82.228863 -264.271795 
L 82.228863 -265.985053 
L 82.090365 -265.985053 
L 82.090365 -267.695446 
L 82.021115 -267.695446 
L 82.021115 -269.402966 
L 81.813367 -269.402966 
L 81.813367 -271.107607 
L 80.22063 -271.107607 
L 80.22063 -272.809359 
L 79.735884 -272.809359 
L 79.735884 -274.508213 
L 79.528136 -274.508213 
L 79.528136 -276.204156 
L 79.320387 -276.204156 
L 79.320387 -277.897178 
L 79.251138 -277.897178 
L 79.251138 -279.587264 
L 77.242904 -279.587264 
L 77.242904 -282.958567 
L 76.827408 -282.958567 
L 76.827408 -284.639751 
L 76.55041 -284.639751 
L 76.55041 -287.99309 
L 75.996415 -287.99309 
L 75.996415 -291.334248 
L 75.442419 -291.334248 
L 75.442419 -293.000201 
L 75.30392 -293.000201 
L 75.30392 -296.322725 
L 75.096172 -296.322725 
L 75.096172 -297.979237 
L 75.026923 -297.979237 
L 75.026923 -301.28261 
L 74.680675 -301.28261 
L 74.680675 -302.929401 
L 74.334428 -302.929401 
L 74.334428 -304.572881 
L 74.195929 -304.572881 
L 74.195929 -306.213009 
L 73.572684 -306.213009 
L 73.572684 -307.849746 
L 72.810941 -307.849746 
L 72.810941 -309.483047 
L 72.049197 -309.483047 
L 72.049197 -311.112866 
L 71.979948 -311.112866 
L 71.979948 -312.739155 
L 71.910698 -312.739155 
L 71.910698 -314.361862 
L 71.356703 -314.361862 
L 71.356703 -315.980933 
L 71.218204 -315.980933 
L 71.218204 -317.596312 
L 71.010456 -317.596312 
L 71.010456 -320.815745 
L 70.941206 -320.815745 
L 70.941206 -322.419669 
L 70.871957 -322.419669 
L 70.871957 -324.019638 
L 70.733458 -324.019638 
L 70.733458 -325.615575 
L 69.27922 -325.615575 
L 69.27922 -327.207402 
L 69.071471 -327.207402 
L 69.071471 -328.795034 
L 68.932973 -328.795034 
L 68.932973 -331.957351 
L 68.863723 -331.957351 
L 68.863723 -333.53184 
L 68.309728 -333.53184 
L 68.309728 -335.101743 
L 66.093746 -335.101743 
L 66.093746 -336.666945 
L 65.955247 -336.666945 
L 65.955247 -338.227326 
L 65.470501 -338.227326 
L 65.470501 -339.782756 
L 65.055004 -339.782756 
L 65.055004 -341.333099 
L 64.916506 -341.333099 
L 64.916506 -342.878207 
L 64.778007 -342.878207 
L 64.778007 -344.417923 
L 64.085512 -344.417923 
L 64.085512 -345.952078 
L 64.016263 -345.952078 
L 64.016263 -347.480491 
L 63.877764 -347.480491 
L 63.877764 -349.002968 
L 63.462268 -349.002968 
L 63.462268 -350.519298 
L 63.323769 -350.519298 
L 63.323769 -352.029255 
L 63.046771 -352.029255 
L 63.046771 -353.532593 
L 62.215778 -353.532593 
L 62.215778 -355.029048 
L 62.146528 -355.029048 
L 62.146528 -356.518329 
L 62.008029 -356.518329 
L 62.008029 -358.00012 
L 61.731032 -358.00012 
L 61.731032 -359.474078 
L 61.592533 -359.474078 
L 61.592533 -360.939823 
L 60.553791 -360.939823 
L 60.553791 -362.396938 
L 60.415293 -362.396938 
L 60.415293 -363.844962 
L 60.138295 -363.844962 
L 60.138295 -365.283384 
L 59.861297 -365.283384 
L 59.861297 -366.704284 
L 59.722798 -366.704284 
L 59.722798 -369.513545 
L 59.51505 -369.513545 
L 59.51505 -370.900409 
L 59.307302 -370.900409 
L 59.307302 -372.274256 
L 58.33781 -372.274256 
L 58.33781 -373.634044 
L 56.883572 -373.634044 
L 56.883572 -374.978566 
L 56.537324 -374.978566 
L 56.537324 -376.306411 
L 56.398826 -376.306411 
L 56.398826 -378.905068 
L 56.329576 -378.905068 
L 56.329576 -380.171459 
L 56.191077 -380.171459 
L 56.191077 -381.412092 
L 56.052578 -381.412092 
L 56.052578 -384.935734 
L 55.775581 -384.935734 
L 55.775581 -386.021733 
L 55.498583 -386.021733 
L 55.498583 -387.044859 
L 55.429334 -387.044859 
L 55.429334 -387.984742 
L 55.360084 -387.984742 
L 55.360084 -388.806053 
L 55.152336 -388.806053 
L 55.152336 -389.435979 
L 55.083086 -389.435979 
L 55.083086 -389.682295 
L 54.529091 -389.682295 
z
" id="mbe0f0710f2" style="stroke:#808080;stroke-opacity:0.25;"/>
    </defs>
    <g clip-path="url(#pea26427437)">
     <use style="fill:#808080;fill-opacity:0.25;stroke:#808080;stroke-opacity:0.25;" x="0" xlink:href="#mbe0f0710f2" y="432"/>
    </g>
   </g>
   <g id="matplotlib.axis_1">
    <g id="xtick_1">
     <g id="line2d_1">
      <path clip-path="url(#pea26427437)" d="M 54.529091 366.5095 
L 54.529091 26.88 
" style="fill:none;stroke:#b0b0b0;stroke-dasharray:2.96,1.28;stroke-dashoffset:0;stroke-opacity:0.5;stroke-width:0.8;"/>
     </g>
     <g id="line2d_2">
      <defs>
       <path d="M 0 0 
L 0 3.5 
" id="mda0df6f857" style="stroke:#000000;stroke-width:0.8;"/>
      </defs>
      <g>
       <use style="stroke:#000000;stroke-width:0.8;" x="54.529091" xlink:href="#mda0df6f857" y="366.5095"/>
      </g>
     </g>
     <g id="text_1">
      <text style="font-family:DejaVu Sans;font-size:10px;font-stretch:normal;font-style:normal;font-weight:normal;text-anchor:middle;" transform="rotate(-0, 54.529091, 381.107937)" x="54.529091" y="381.107937">0</text>
     </g>
    </g>
    <g id="xtick_2">
     <g id="line2d_3">
      <path clip-path="url(#pea26427437)" d="M 123.778522 366.5095 
L 123.778522 26.88 
" style="fill:none;stroke:#b0b0b0;stroke-dasharray:2.96,1.28;stroke-dashoffset:0;stroke-opacity:0.5;stroke-width:0.8;"/>
     </g>
     <g id="line2d_4">
      <g>
       <use style="stroke:#000000;stroke-width:0.8;" x="123.778522" xlink:href="#mda0df6f857" y="366.5095"/>
      </g>
     </g>
     <g id="text_2">
      <text style="font-family:DejaVu Sans;font-size:10px;font-stretch:normal;font-style:normal;font-weight:normal;text-anchor:middle;" transform="rotate(-0, 123.778522, 381.107937)" x="123.778522" y="381.107937">1000</text>
     </g>
    </g>
    <g id="xtick_3">
     <g id="line2d_5">
      <path clip-path="url(#pea26427437)" d="M 193.027953 366.5095 
L 193.027953 26.88 
" style="fill:none;stroke:#b0b0b0;stroke-dasharray:2.96,1.28;stroke-dashoffset:0;stroke-opacity:0.5;stroke-width:0.8;"/>
     </g>
     <g id="line2d_6">
      <g>
       <use style="stroke:#000000;stroke-width:0.8;" x="193.027953" xlink:href="#mda0df6f857" y="366.5095"/>
      </g>
     </g>
     <g id="text_3">
      <text style="font-family:DejaVu Sans;font-size:10px;font-stretch:normal;font-style:normal;font-weight:normal;text-anchor:middle;" transform="rotate(-0, 193.027953, 381.107937)" x="193.027953" y="381.107937">2000</text>
     </g>
    </g>
    <g id="xtick_4">
     <g id="line2d_7">
      <path clip-path="url(#pea26427437)" d="M 262.277384 366.5095 
L 262.277384 26.88 
" style="fill:none;stroke:#b0b0b0;stroke-dasharray:2.96,1.28;stroke-dashoffset:0;stroke-opacity:0.5;stroke-width:0.8;"/>
     </g>
     <g id="line2d_8">
      <g>
       <use style="stroke:#000000;stroke-width:0.8;" x="262.277384" xlink:href="#mda0df6f857" y="366.5095"/>
      </g>
     </g>
     <g id="text_4">
      <text style="font-family:DejaVu Sans;font-size:10px;font-stretch:normal;font-style:normal;font-weight:normal;text-anchor:middle;" transform="rotate(-0, 262.277384, 381.107937)" x="262.277384" y="381.107937">3000</text>
     </g>
    </g>
    <g id="xtick_5">
     <g id="line2d_9">
      <path clip-path="url(#pea26427437)" d="M 331.526816 366.5095 
L 331.526816 26.88 
" style="fill:none;stroke:#b0b0b0;stroke-dasharray:2.96,1.28;stroke-dashoffset:0;stroke-opacity:0.5;stroke-width:0.8;"/>
     </g>
     <g id="line2d_10">
      <g>
       <use style="stroke:#000000;stroke-width:0.8;" x="331.526816" xlink:href="#mda0df6f857" y="366.5095"/>
      </g>
     </g>
     <g id="text_5">
      <text style="font-family:DejaVu Sans;font-size:10px;font-stretch:normal;font-style:normal;font-weight:normal;text-anchor:middle;" transform="rotate(-0, 331.526816, 381.107937)" x="331.526816" y="381.107937">4000</text>
     </g>
    </g>
    <g id="xtick_6">
     <g id="line2d_11">
      <path clip-path="url(#pea26427437)" d="M 400.776247 366.5095 
L 400.776247 26.88 
" style="fill:none;stroke:#b0b0b0;stroke-dasharray:2.96,1.28;stroke-dashoffset:0;stroke-opacity:0.5;stroke-width:0.8;"/>
     </g>
     <g id="line2d_12">
      <g>
       <use style="stroke:#000000;stroke-width:0.8;" x="400.776247" xlink:href="#mda0df6f857" y="366.5095"/>
      </g>
     </g>
     <g id="text_6">
      <text style="font-family:DejaVu Sans;font-size:10px;font-stretch:normal;font-style:normal;font-weight:normal;text-anchor:middle;" transform="rotate(-0, 400.776247, 381.107937)" x="400.776247" y="381.107937">5000</text>
     </g>
    </g>
    <g id="xtick_7">
     <g id="line2d_13">
      <path clip-path="url(#pea26427437)" d="M 470.025678 366.5095 
L 470.025678 26.88 
" style="fill:none;stroke:#b0b0b0;stroke-dasharray:2.96,1.28;stroke-dashoffset:0;stroke-opacity:0.5;stroke-width:0.8;"/>
     </g>
     <g id="line2d_14">
      <g>
       <use style="stroke:#000000;stroke-width:0.8;" x="470.025678" xlink:href="#mda0df6f857" y="366.5095"/>
      </g>
     </g>
     <g id="text_7">
      <text style="font-family:DejaVu Sans;font-size:10px;font-stretch:normal;font-style:normal;font-weight:normal;text-anchor:middle;" transform="rotate(-0, 470.025678, 381.107937)" x="470.025678" y="381.107937">6000</text>
     </g>
    </g>
    <g id="text_8">
     <text style="font-family:DejaVu Sans;font-size:10px;font-stretch:normal;font-style:normal;font-weight:normal;" transform="translate(241.511406 394.786063)">timeline </text>
     <text style="font-family:DejaVu Sans;font-size:10px;font-stretch:normal;font-style:normal;font-weight:normal;" transform="translate(118.973125 405.983875)">    dataset: lgn_pronostic_clin_factors_PCA, input_dim: 50 </text>
     <text style="font-family:DejaVu Sans;font-size:10px;font-stretch:normal;font-style:normal;font-weight:normal;" transform="translate(186.430938 417.459812)">    c_index: [0.707 0.68  0.734]</text>
    </g>
   </g>
   <g id="matplotlib.axis_2">
    <g id="ytick_1">
     <g id="line2d_15">
      <path clip-path="url(#pea26427437)" d="M 33.64 351.071795 
L 493.2 351.071795 
" style="fill:none;stroke:#b0b0b0;stroke-dasharray:2.96,1.28;stroke-dashoffset:0;stroke-opacity:0.5;stroke-width:0.8;"/>
     </g>
     <g id="line2d_16">
      <defs>
       <path d="M 0 0 
L -3.5 0 
" id="m78d75cb903" style="stroke:#000000;stroke-width:0.8;"/>
      </defs>
      <g>
       <use style="stroke:#000000;stroke-width:0.8;" x="33.64" xlink:href="#m78d75cb903" y="351.071795"/>
      </g>
     </g>
     <g id="text_9">
      <text style="font-family:DejaVu Sans;font-size:10px;font-stretch:normal;font-style:normal;font-weight:normal;text-anchor:end;" transform="rotate(-0, 26.64, 354.871014)" x="26.64" y="354.871014">0.0</text>
     </g>
    </g>
    <g id="ytick_2">
     <g id="line2d_17">
      <path clip-path="url(#pea26427437)" d="M 33.64 289.320977 
L 493.2 289.320977 
" style="fill:none;stroke:#b0b0b0;stroke-dasharray:2.96,1.28;stroke-dashoffset:0;stroke-opacity:0.5;stroke-width:0.8;"/>
     </g>
     <g id="line2d_18">
      <g>
       <use style="stroke:#000000;stroke-width:0.8;" x="33.64" xlink:href="#m78d75cb903" y="289.320977"/>
      </g>
     </g>
     <g id="text_10">
      <text style="font-family:DejaVu Sans;font-size:10px;font-stretch:normal;font-style:normal;font-weight:normal;text-anchor:end;" transform="rotate(-0, 26.64, 293.120196)" x="26.64" y="293.120196">0.2</text>
     </g>
    </g>
    <g id="ytick_3">
     <g id="line2d_19">
      <path clip-path="url(#pea26427437)" d="M 33.64 227.570159 
L 493.2 227.570159 
" style="fill:none;stroke:#b0b0b0;stroke-dasharray:2.96,1.28;stroke-dashoffset:0;stroke-opacity:0.5;stroke-width:0.8;"/>
     </g>
     <g id="line2d_20">
      <g>
       <use style="stroke:#000000;stroke-width:0.8;" x="33.64" xlink:href="#m78d75cb903" y="227.570159"/>
      </g>
     </g>
     <g id="text_11">
      <text style="font-family:DejaVu Sans;font-size:10px;font-stretch:normal;font-style:normal;font-weight:normal;text-anchor:end;" transform="rotate(-0, 26.64, 231.369378)" x="26.64" y="231.369378">0.4</text>
     </g>
    </g>
    <g id="ytick_4">
     <g id="line2d_21">
      <path clip-path="url(#pea26427437)" d="M 33.64 165.819341 
L 493.2 165.819341 
" style="fill:none;stroke:#b0b0b0;stroke-dasharray:2.96,1.28;stroke-dashoffset:0;stroke-opacity:0.5;stroke-width:0.8;"/>
     </g>
     <g id="line2d_22">
      <g>
       <use style="stroke:#000000;stroke-width:0.8;" x="33.64" xlink:href="#m78d75cb903" y="165.819341"/>
      </g>
     </g>
     <g id="text_12">
      <text style="font-family:DejaVu Sans;font-size:10px;font-stretch:normal;font-style:normal;font-weight:normal;text-anchor:end;" transform="rotate(-0, 26.64, 169.61856)" x="26.64" y="169.61856">0.6</text>
     </g>
    </g>
    <g id="ytick_5">
     <g id="line2d_23">
      <path clip-path="url(#pea26427437)" d="M 33.64 104.068523 
L 493.2 104.068523 
" style="fill:none;stroke:#b0b0b0;stroke-dasharray:2.96,1.28;stroke-dashoffset:0;stroke-opacity:0.5;stroke-width:0.8;"/>
     </g>
     <g id="line2d_24">
      <g>
       <use style="stroke:#000000;stroke-width:0.8;" x="33.64" xlink:href="#m78d75cb903" y="104.068523"/>
      </g>
     </g>
     <g id="text_13">
      <text style="font-family:DejaVu Sans;font-size:10px;font-stretch:normal;font-style:normal;font-weight:normal;text-anchor:end;" transform="rotate(-0, 26.64, 107.867741)" x="26.64" y="107.867741">0.8</text>
     </g>
    </g>
    <g id="ytick_6">
     <g id="line2d_25">
      <path clip-path="url(#pea26427437)" d="M 33.64 42.317705 
L 493.2 42.317705 
" style="fill:none;stroke:#b0b0b0;stroke-dasharray:2.96,1.28;stroke-dashoffset:0;stroke-opacity:0.5;stroke-width:0.8;"/>
     </g>
     <g id="line2d_26">
      <g>
       <use style="stroke:#000000;stroke-width:0.8;" x="33.64" xlink:href="#m78d75cb903" y="42.317705"/>
      </g>
     </g>
     <g id="text_14">
      <text style="font-family:DejaVu Sans;font-size:10px;font-stretch:normal;font-style:normal;font-weight:normal;text-anchor:end;" transform="rotate(-0, 26.64, 46.116923)" x="26.64" y="46.116923">1.0</text>
     </g>
    </g>
   </g>
   <g id="line2d_27">
    <defs>
     <path d="M -3 3 
L 3 -3 
M -3 -3 
L 3 3 
" id="m2367fa61e9" style="stroke:#ff0000;"/>
    </defs>
    <g clip-path="url(#pea26427437)">
     <use style="fill:#ff0000;stroke:#ff0000;" x="95.386255" xlink:href="#m2367fa61e9" y="315.446323"/>
    </g>
   </g>
   <g id="line2d_28">
    <path clip-path="url(#pea26427437)" d="M 54.529091 42.317705 
L 55.290835 42.317705 
L 55.360084 58.151248 
L 55.567832 58.151248 
L 55.567832 62.109633 
L 55.91408 62.109633 
L 55.983329 70.026405 
L 56.052578 70.026405 
L 56.052578 73.984791 
L 56.606574 73.984791 
L 56.606574 77.943177 
L 56.952821 77.943177 
L 57.02207 93.77672 
L 57.09132 93.77672 
L 57.09132 97.735105 
L 57.783814 97.735105 
L 57.783814 101.693491 
L 58.060812 101.693491 
L 58.060812 105.651877 
L 58.822556 105.651877 
L 58.822556 109.610263 
L 59.030304 109.610263 
L 59.030304 113.568649 
L 59.584299 113.568649 
L 59.584299 117.527034 
L 60.138295 117.527034 
L 60.138295 121.48542 
L 60.276794 121.48542 
L 60.276794 125.443806 
L 60.623041 125.443806 
L 60.623041 129.402192 
L 60.830789 129.402192 
L 60.830789 133.360578 
L 60.969288 133.360578 
L 60.969288 137.318963 
L 61.246286 137.318963 
L 61.246286 141.277349 
L 61.523283 141.277349 
L 61.592533 149.194121 
L 62.215778 149.194121 
L 62.285027 157.110892 
L 62.839023 157.110892 
L 62.839023 161.069278 
L 63.739265 161.069278 
L 63.739265 165.027664 
L 63.877764 165.027664 
L 63.947014 172.944435 
L 64.43176 172.944435 
L 64.43176 176.902821 
L 64.570258 176.902821 
L 64.570258 180.861207 
L 64.708757 180.861207 
L 64.778007 188.777978 
L 64.916506 188.777978 
L 64.916506 192.736364 
L 65.055004 192.736364 
L 65.055004 196.69475 
L 65.193503 196.69475 
L 65.193503 200.653136 
L 65.678249 200.653136 
L 65.678249 204.611522 
L 65.816748 204.611522 
L 65.816748 208.569907 
L 66.162995 208.569907 
L 66.162995 212.528293 
L 66.439993 212.528293 
L 66.439993 216.486679 
L 66.647741 216.486679 
L 66.716991 224.40345 
L 67.409485 224.40345 
L 67.409485 228.361836 
L 67.617233 228.361836 
L 67.617233 232.320222 
L 68.309728 232.320222 
L 68.309728 236.278608 
L 68.932973 236.278608 
L 68.932973 240.236994 
L 69.27922 240.236994 
L 69.27922 244.195379 
L 69.763966 244.195379 
L 69.833215 252.112151 
L 70.802707 252.112151 
L 70.802707 256.070537 
L 71.218204 256.070537 
L 71.218204 260.028922 
L 71.495202 260.028922 
L 71.495202 263.987308 
L 71.772199 263.987308 
L 71.772199 267.945694 
L 72.187696 267.945694 
L 72.187696 271.90408 
L 72.741691 271.90408 
L 72.741691 275.862466 
L 73.018689 275.862466 
L 73.018689 279.820851 
L 75.788666 279.820851 
L 75.788666 283.779237 
L 75.996415 283.779237 
L 75.996415 287.737623 
L 76.758158 287.737623 
L 76.758158 291.696009 
L 77.935399 291.696009 
L 77.935399 295.654395 
L 80.082131 295.654395 
L 80.082131 299.61278 
L 84.029349 299.61278 
L 84.029349 303.571166 
L 85.552836 303.571166 
L 85.552836 307.529552 
L 89.777051 307.529552 
L 89.777051 311.487938 
L 90.538795 311.487938 
L 90.538795 315.446323 
L 99.194974 315.446323 
L 99.194974 319.899507 
L 101.618704 319.899507 
L 101.618704 324.352691 
L 110.274883 324.352691 
L 110.274883 328.805875 
L 116.645831 328.805875 
L 116.645831 333.259059 
L 129.803223 333.259059 
L 129.803223 337.712243 
L 131.118962 337.712243 
L 131.118962 342.165427 
L 204.800357 342.165427 
L 204.800357 346.618611 
L 347.800432 346.618611 
L 347.800432 351.071795 
L 347.800432 351.071795 
" style="fill:none;stroke:#ff0000;stroke-linecap:square;stroke-width:1.5;"/>
   </g>
   <g id="line2d_29">
    <defs>
     <path d="M -3 3 
L 3 -3 
M -3 -3 
L 3 3 
" id="ma802bf7d85" style="stroke:#0000ff;"/>
    </defs>
    <g clip-path="url(#pea26427437)">
     <use style="fill:#0000ff;stroke:#0000ff;" x="182.709788" xlink:href="#ma802bf7d85" y="124.652129"/>
     <use style="fill:#0000ff;stroke:#0000ff;" x="184.579523" xlink:href="#ma802bf7d85" y="124.652129"/>
     <use style="fill:#0000ff;stroke:#0000ff;" x="187.834246" xlink:href="#ma802bf7d85" y="131.955989"/>
     <use style="fill:#0000ff;stroke:#0000ff;" x="193.651198" xlink:href="#ma802bf7d85" y="131.955989"/>
     <use style="fill:#0000ff;stroke:#0000ff;" x="208.678325" xlink:href="#ma802bf7d85" y="131.955989"/>
     <use style="fill:#0000ff;stroke:#0000ff;" x="218.373245" xlink:href="#ma802bf7d85" y="140.071389"/>
     <use style="fill:#0000ff;stroke:#0000ff;" x="224.259447" xlink:href="#ma802bf7d85" y="140.071389"/>
     <use style="fill:#0000ff;stroke:#0000ff;" x="226.26768" xlink:href="#ma802bf7d85" y="140.071389"/>
     <use style="fill:#0000ff;stroke:#0000ff;" x="232.153882" xlink:href="#ma802bf7d85" y="140.071389"/>
     <use style="fill:#0000ff;stroke:#0000ff;" x="235.685603" xlink:href="#ma802bf7d85" y="140.071389"/>
     <use style="fill:#0000ff;stroke:#0000ff;" x="245.519022" xlink:href="#ma802bf7d85" y="140.071389"/>
     <use style="fill:#0000ff;stroke:#0000ff;" x="253.759704" xlink:href="#ma802bf7d85" y="140.071389"/>
     <use style="fill:#0000ff;stroke:#0000ff;" x="263.177627" xlink:href="#ma802bf7d85" y="140.071389"/>
     <use style="fill:#0000ff;stroke:#0000ff;" x="280.697733" xlink:href="#ma802bf7d85" y="140.071389"/>
     <use style="fill:#0000ff;stroke:#0000ff;" x="284.160205" xlink:href="#ma802bf7d85" y="140.071389"/>
     <use style="fill:#0000ff;stroke:#0000ff;" x="289.838658" xlink:href="#ma802bf7d85" y="140.071389"/>
     <use style="fill:#0000ff;stroke:#0000ff;" x="316.638188" xlink:href="#ma802bf7d85" y="140.071389"/>
     <use style="fill:#0000ff;stroke:#0000ff;" x="322.039643" xlink:href="#ma802bf7d85" y="140.071389"/>
     <use style="fill:#0000ff;stroke:#0000ff;" x="338.31326" xlink:href="#ma802bf7d85" y="140.071389"/>
     <use style="fill:#0000ff;stroke:#0000ff;" x="344.060963" xlink:href="#ma802bf7d85" y="140.071389"/>
     <use style="fill:#0000ff;stroke:#0000ff;" x="356.52586" xlink:href="#ma802bf7d85" y="140.071389"/>
     <use style="fill:#0000ff;stroke:#0000ff;" x="357.910849" xlink:href="#ma802bf7d85" y="140.071389"/>
     <use style="fill:#0000ff;stroke:#0000ff;" x="359.503586" xlink:href="#ma802bf7d85" y="140.071389"/>
     <use style="fill:#0000ff;stroke:#0000ff;" x="370.652744" xlink:href="#ma802bf7d85" y="140.071389"/>
     <use style="fill:#0000ff;stroke:#0000ff;" x="383.256141" xlink:href="#ma802bf7d85" y="140.071389"/>
     <use style="fill:#0000ff;stroke:#0000ff;" x="389.904086" xlink:href="#ma802bf7d85" y="140.071389"/>
     <use style="fill:#0000ff;stroke:#0000ff;" x="398.491015" xlink:href="#ma802bf7d85" y="140.071389"/>
     <use style="fill:#0000ff;stroke:#0000ff;" x="408.393684" xlink:href="#ma802bf7d85" y="140.071389"/>
     <use style="fill:#0000ff;stroke:#0000ff;" x="425.221296" xlink:href="#ma802bf7d85" y="140.071389"/>
     <use style="fill:#0000ff;stroke:#0000ff;" x="441.356413" xlink:href="#ma802bf7d85" y="140.071389"/>
    </g>
   </g>
   <g id="line2d_30">
    <path clip-path="url(#pea26427437)" d="M 54.529091 42.317705 
L 75.442419 42.317705 
L 75.442419 49.178907 
L 75.580918 49.178907 
L 75.580918 56.040109 
L 76.55041 56.040109 
L 76.55041 62.901311 
L 78.143147 62.901311 
L 78.143147 69.762513 
L 88.045816 69.762513 
L 88.045816 76.623715 
L 95.524754 76.623715 
L 95.524754 83.484917 
L 101.687954 83.484917 
L 101.687954 90.346119 
L 106.812411 90.346119 
L 106.812411 97.207321 
L 114.152851 97.207321 
L 114.152851 104.068523 
L 118.654064 104.068523 
L 118.654064 110.929725 
L 122.462783 110.929725 
L 122.462783 117.790927 
L 168.305906 117.790927 
L 168.305906 124.652129 
L 182.709788 124.652129 
L 182.709788 124.652129 
L 184.579523 124.652129 
L 184.579523 124.652129 
L 187.557248 124.652129 
L 187.557248 131.955989 
L 187.834246 131.955989 
L 187.834246 131.955989 
L 193.651198 131.955989 
L 193.651198 131.955989 
L 208.678325 131.955989 
L 208.678325 131.955989 
L 218.026998 131.955989 
L 218.026998 140.071389 
L 218.373245 140.071389 
L 218.373245 140.071389 
L 224.259447 140.071389 
L 224.259447 140.071389 
L 226.26768 140.071389 
L 226.26768 140.071389 
L 232.153882 140.071389 
L 232.153882 140.071389 
L 235.685603 140.071389 
L 235.685603 140.071389 
L 245.519022 140.071389 
L 245.519022 140.071389 
L 253.759704 140.071389 
L 253.759704 140.071389 
L 263.177627 140.071389 
L 263.177627 140.071389 
L 280.697733 140.071389 
L 280.697733 140.071389 
L 284.160205 140.071389 
L 284.160205 140.071389 
L 289.838658 140.071389 
L 289.838658 140.071389 
L 316.638188 140.071389 
L 316.638188 140.071389 
L 322.039643 140.071389 
L 322.039643 140.071389 
L 338.31326 140.071389 
L 338.31326 140.071389 
L 344.060963 140.071389 
L 344.060963 140.071389 
L 356.52586 140.071389 
L 356.52586 140.071389 
L 357.910849 140.071389 
L 357.910849 140.071389 
L 359.503586 140.071389 
L 359.503586 140.071389 
L 370.652744 140.071389 
L 370.652744 140.071389 
L 383.256141 140.071389 
L 383.256141 140.071389 
L 389.904086 140.071389 
L 389.904086 140.071389 
L 398.491015 140.071389 
L 398.491015 140.071389 
L 408.393684 140.071389 
L 408.393684 140.071389 
L 425.221296 140.071389 
L 425.221296 140.071389 
L 441.356413 140.071389 
L 441.356413 140.071389 
" style="fill:none;stroke:#0000ff;stroke-linecap:square;stroke-width:1.5;"/>
   </g>
   <g id="line2d_31">
    <defs>
     <path d="M -3 3 
L 3 -3 
M -3 -3 
L 3 3 
" id="m42d88ac0a6" style="stroke:#808080;"/>
    </defs>
    <g clip-path="url(#pea26427437)">
     <use style="fill:#808080;stroke:#808080;" x="59.861297" xlink:href="#m42d88ac0a6" y="78.949546"/>
     <use style="fill:#808080;stroke:#808080;" x="187.3495" xlink:href="#m42d88ac0a6" y="256.267915"/>
     <use style="fill:#808080;stroke:#808080;" x="189.703981" xlink:href="#m42d88ac0a6" y="256.267915"/>
     <use style="fill:#808080;stroke:#808080;" x="191.850713" xlink:href="#m42d88ac0a6" y="256.267915"/>
     <use style="fill:#808080;stroke:#808080;" x="198.983404" xlink:href="#m42d88ac0a6" y="258.126815"/>
     <use style="fill:#808080;stroke:#808080;" x="206.254595" xlink:href="#m42d88ac0a6" y="258.126815"/>
     <use style="fill:#808080;stroke:#808080;" x="208.262828" xlink:href="#m42d88ac0a6" y="260.063168"/>
     <use style="fill:#808080;stroke:#808080;" x="227.444921" xlink:href="#m42d88ac0a6" y="267.976962"/>
     <use style="fill:#808080;stroke:#808080;" x="237.001342" xlink:href="#m42d88ac0a6" y="267.976962"/>
     <use style="fill:#808080;stroke:#808080;" x="237.901585" xlink:href="#m42d88ac0a6" y="267.976962"/>
     <use style="fill:#808080;stroke:#808080;" x="241.156308" xlink:href="#m42d88ac0a6" y="267.976962"/>
     <use style="fill:#808080;stroke:#808080;" x="248.704496" xlink:href="#m42d88ac0a6" y="267.976962"/>
     <use style="fill:#808080;stroke:#808080;" x="252.859462" xlink:href="#m42d88ac0a6" y="270.222768"/>
     <use style="fill:#808080;stroke:#808080;" x="261.377142" xlink:href="#m42d88ac0a6" y="272.532741"/>
     <use style="fill:#808080;stroke:#808080;" x="266.43235" xlink:href="#m42d88ac0a6" y="274.912712"/>
     <use style="fill:#808080;stroke:#808080;" x="269.133078" xlink:href="#m42d88ac0a6" y="274.912712"/>
     <use style="fill:#808080;stroke:#808080;" x="270.10257" xlink:href="#m42d88ac0a6" y="274.912712"/>
     <use style="fill:#808080;stroke:#808080;" x="280.420735" xlink:href="#m42d88ac0a6" y="274.912712"/>
     <use style="fill:#808080;stroke:#808080;" x="295.586361" xlink:href="#m42d88ac0a6" y="274.912712"/>
     <use style="fill:#808080;stroke:#808080;" x="302.234306" xlink:href="#m42d88ac0a6" y="274.912712"/>
     <use style="fill:#808080;stroke:#808080;" x="322.385891" xlink:href="#m42d88ac0a6" y="274.912712"/>
     <use style="fill:#808080;stroke:#808080;" x="330.626573" xlink:href="#m42d88ac0a6" y="274.912712"/>
     <use style="fill:#808080;stroke:#808080;" x="330.765072" xlink:href="#m42d88ac0a6" y="274.912712"/>
     <use style="fill:#808080;stroke:#808080;" x="333.535049" xlink:href="#m42d88ac0a6" y="274.912712"/>
     <use style="fill:#808080;stroke:#808080;" x="333.673548" xlink:href="#m42d88ac0a6" y="274.912712"/>
     <use style="fill:#808080;stroke:#808080;" x="333.812047" xlink:href="#m42d88ac0a6" y="274.912712"/>
     <use style="fill:#808080;stroke:#808080;" x="333.881296" xlink:href="#m42d88ac0a6" y="274.912712"/>
     <use style="fill:#808080;stroke:#808080;" x="351.609151" xlink:href="#m42d88ac0a6" y="274.912712"/>
     <use style="fill:#808080;stroke:#808080;" x="374.738461" xlink:href="#m42d88ac0a6" y="274.912712"/>
     <use style="fill:#808080;stroke:#808080;" x="376.746694" xlink:href="#m42d88ac0a6" y="274.912712"/>
     <use style="fill:#808080;stroke:#808080;" x="380.693912" xlink:href="#m42d88ac0a6" y="279.989984"/>
     <use style="fill:#808080;stroke:#808080;" x="388.726846" xlink:href="#m42d88ac0a6" y="279.989984"/>
     <use style="fill:#808080;stroke:#808080;" x="391.566072" xlink:href="#m42d88ac0a6" y="279.989984"/>
     <use style="fill:#808080;stroke:#808080;" x="392.604814" xlink:href="#m42d88ac0a6" y="279.989984"/>
     <use style="fill:#808080;stroke:#808080;" x="393.505056" xlink:href="#m42d88ac0a6" y="279.989984"/>
     <use style="fill:#808080;stroke:#808080;" x="405.069711" xlink:href="#m42d88ac0a6" y="279.989984"/>
     <use style="fill:#808080;stroke:#808080;" x="432.907983" xlink:href="#m42d88ac0a6" y="279.989984"/>
     <use style="fill:#808080;stroke:#808080;" x="445.926876" xlink:href="#m42d88ac0a6" y="279.989984"/>
     <use style="fill:#808080;stroke:#808080;" x="455.483297" xlink:href="#m42d88ac0a6" y="279.989984"/>
     <use style="fill:#808080;stroke:#808080;" x="458.184025" xlink:href="#m42d88ac0a6" y="279.989984"/>
     <use style="fill:#808080;stroke:#808080;" x="459.499764" xlink:href="#m42d88ac0a6" y="279.989984"/>
     <use style="fill:#808080;stroke:#808080;" x="463.931728" xlink:href="#m42d88ac0a6" y="279.989984"/>
     <use style="fill:#808080;stroke:#808080;" x="464.347225" xlink:href="#m42d88ac0a6" y="279.989984"/>
     <use style="fill:#808080;stroke:#808080;" x="472.310909" xlink:href="#m42d88ac0a6" y="279.989984"/>
    </g>
   </g>
   <g id="line2d_32">
    <path clip-path="url(#pea26427437)" d="M 54.529091 42.317705 
L 55.083086 42.317705 
L 55.152336 45.806451 
L 55.360084 45.806451 
L 55.429334 49.295198 
L 55.498583 49.295198 
L 55.498583 51.039572 
L 55.775581 51.039572 
L 55.775581 52.783945 
L 56.052578 52.783945 
L 56.052578 58.017065 
L 56.191077 58.017065 
L 56.191077 59.761438 
L 56.329576 59.761438 
L 56.398826 64.994559 
L 56.537324 64.994559 
L 56.537324 66.738932 
L 56.883572 66.738932 
L 56.883572 68.483305 
L 58.33781 68.483305 
L 58.33781 70.227679 
L 59.307302 70.227679 
L 59.307302 71.972052 
L 59.51505 71.972052 
L 59.51505 73.716426 
L 59.722798 73.716426 
L 59.722798 77.205172 
L 59.861297 77.205172 
L 59.861297 78.949546 
L 60.138295 78.949546 
L 60.138295 80.705173 
L 60.415293 80.705173 
L 60.415293 82.460801 
L 60.553791 82.460801 
L 60.553791 84.216428 
L 61.592533 84.216428 
L 61.592533 85.972056 
L 61.731032 85.972056 
L 61.731032 87.727683 
L 62.008029 87.727683 
L 62.008029 89.48331 
L 62.146528 89.48331 
L 62.215778 92.994565 
L 63.046771 92.994565 
L 63.046771 94.750193 
L 63.323769 94.750193 
L 63.323769 96.50582 
L 63.462268 96.50582 
L 63.462268 98.261447 
L 63.877764 98.261447 
L 63.877764 100.017075 
L 64.016263 100.017075 
L 64.085512 103.52833 
L 64.778007 103.52833 
L 64.778007 105.283957 
L 64.916506 105.283957 
L 64.916506 107.039585 
L 65.055004 107.039585 
L 65.055004 108.795212 
L 65.470501 108.795212 
L 65.470501 110.550839 
L 65.955247 110.550839 
L 65.955247 112.306467 
L 66.093746 112.306467 
L 66.093746 114.062094 
L 68.309728 114.062094 
L 68.309728 115.817722 
L 68.863723 115.817722 
L 68.932973 121.084604 
L 69.071471 121.084604 
L 69.071471 122.840231 
L 69.27922 122.840231 
L 69.27922 124.595859 
L 70.733458 124.595859 
L 70.733458 126.351486 
L 70.871957 126.351486 
L 70.941206 129.862741 
L 71.010456 129.862741 
L 71.010456 133.373996 
L 71.218204 133.373996 
L 71.218204 135.129623 
L 71.356703 135.129623 
L 71.356703 136.885251 
L 71.910698 136.885251 
L 71.979948 140.396505 
L 72.049197 140.396505 
L 72.049197 142.152133 
L 72.810941 142.152133 
L 72.810941 143.90776 
L 73.572684 143.90776 
L 73.572684 145.663388 
L 74.195929 145.663388 
L 74.195929 147.419015 
L 74.334428 147.419015 
L 74.334428 149.174643 
L 74.680675 149.174643 
L 74.680675 150.93027 
L 75.026923 150.93027 
L 75.096172 156.197152 
L 75.30392 156.197152 
L 75.30392 159.708407 
L 75.442419 159.708407 
L 75.442419 161.464034 
L 75.996415 161.464034 
L 75.996415 164.975289 
L 76.55041 164.975289 
L 76.55041 168.486544 
L 76.827408 168.486544 
L 76.827408 170.242172 
L 77.242904 170.242172 
L 77.242904 173.753426 
L 79.251138 173.753426 
L 79.320387 177.264681 
L 79.528136 177.264681 
L 79.528136 179.020309 
L 79.735884 179.020309 
L 79.735884 180.775936 
L 80.22063 180.775936 
L 80.22063 182.531563 
L 81.813367 182.531563 
L 81.813367 184.287191 
L 82.021115 184.287191 
L 82.090365 187.798446 
L 82.228863 187.798446 
L 82.228863 189.554073 
L 82.436612 189.554073 
L 82.436612 191.309701 
L 84.514095 191.309701 
L 84.514095 193.065328 
L 85.137339 193.065328 
L 85.206589 196.576583 
L 85.414337 196.576583 
L 85.414337 198.33221 
L 86.31458 198.33221 
L 86.31458 200.087838 
L 88.045816 200.087838 
L 88.045816 201.843465 
L 88.322813 201.843465 
L 88.392063 205.35472 
L 88.599811 205.35472 
L 88.66906 210.621602 
L 89.084557 210.621602 
L 89.084557 212.37723 
L 90.469546 212.37723 
L 90.469546 214.132857 
L 91.508287 214.132857 
L 91.508287 215.888484 
L 96.217248 215.888484 
L 96.217248 217.644112 
L 98.779477 217.644112 
L 98.779477 219.399739 
L 100.233715 219.399739 
L 100.233715 221.155367 
L 101.826452 221.155367 
L 101.826452 222.910994 
L 103.488439 222.910994 
L 103.488439 224.666621 
L 104.52718 224.666621 
L 104.52718 226.422249 
L 108.128151 226.422249 
L 108.128151 228.177876 
L 110.69038 228.177876 
L 110.69038 229.933504 
L 111.86762 229.933504 
L 111.86762 231.689131 
L 112.629364 231.689131 
L 112.629364 233.444759 
L 112.767863 233.444759 
L 112.767863 235.200386 
L 113.183359 235.200386 
L 113.183359 236.956013 
L 121.008545 236.956013 
L 121.008545 238.711641 
L 130.772715 238.711641 
L 130.772715 240.467268 
L 137.351411 240.467268 
L 137.351411 242.222896 
L 138.5979 242.222896 
L 138.5979 243.978523 
L 150.231805 243.978523 
L 150.231805 245.73415 
L 151.201297 245.73415 
L 151.201297 247.489778 
L 156.118006 247.489778 
L 156.118006 249.245405 
L 162.9737 249.245405 
L 162.9737 251.001033 
L 165.743677 251.001033 
L 165.743677 252.75666 
L 179.108818 252.75666 
L 179.108818 254.512288 
L 181.463298 254.512288 
L 181.463298 256.267915 
L 198.221661 256.267915 
L 198.221661 258.126815 
L 207.362585 258.126815 
L 207.362585 260.063168 
L 209.024572 260.063168 
L 209.024572 262.041617 
L 209.509318 262.041617 
L 209.509318 264.020065 
L 215.257021 264.020065 
L 215.257021 265.998514 
L 218.165497 265.998514 
L 218.165497 267.976962 
L 249.46624 267.976962 
L 249.46624 270.222768 
L 258.122419 270.222768 
L 258.122419 272.532741 
L 265.878355 272.532741 
L 265.878355 274.912712 
L 377.716186 274.912712 
L 377.716186 279.989984 
L 472.310909 279.989984 
L 472.310909 279.989984 
" style="fill:none;stroke:#808080;stroke-linecap:square;stroke-width:1.5;"/>
   </g>
   <g id="patch_3">
    <path d="M 33.64 366.5095 
L 33.64 26.88 
" style="fill:none;stroke:#000000;stroke-linecap:square;stroke-linejoin:miter;stroke-width:0.8;"/>
   </g>
   <g id="patch_4">
    <path d="M 493.2 366.5095 
L 493.2 26.88 
" style="fill:none;stroke:#000000;stroke-linecap:square;stroke-linejoin:miter;stroke-width:0.8;"/>
   </g>
   <g id="patch_5">
    <path d="M 33.64 366.5095 
L 493.2 366.5095 
" style="fill:none;stroke:#000000;stroke-linecap:square;stroke-linejoin:miter;stroke-width:0.8;"/>
   </g>
   <g id="patch_6">
    <path d="M 33.64 26.88 
L 493.2 26.88 
" style="fill:none;stroke:#000000;stroke-linecap:square;stroke-linejoin:miter;stroke-width:0.8;"/>
   </g>
   <g id="text_15">
    <text style="font-family:DejaVu Sans;font-size:12px;font-stretch:normal;font-style:normal;font-weight:normal;text-anchor:middle;" transform="rotate(-0, 263.42, 20.88)" x="263.42" y="20.88">Survival curves - model_type: ridge_cph_lifelines</text>
   </g>
   <g id="legend_1">
    <g id="patch_7">
     <path d="M 349.195312 78.914375 
L 486.2 78.914375 
Q 488.2 78.914375 488.2 76.914375 
L 488.2 33.88 
Q 488.2 31.88 486.2 31.88 
L 349.195312 31.88 
Q 347.195312 31.88 347.195312 33.88 
L 347.195312 76.914375 
Q 347.195312 78.914375 349.195312 78.914375 
z
" style="fill:#ffffff;opacity:0.8;stroke:#cccccc;stroke-linejoin:miter;"/>
    </g>
    <g id="line2d_33">
     <path d="M 351.195312 39.978437 
L 371.195312 39.978437 
" style="fill:none;stroke:#ff0000;stroke-linecap:square;stroke-width:1.5;"/>
    </g>
    <g id="line2d_34"/>
    <g id="text_16">
     <text style="font-family:DejaVu Sans;font-size:10px;font-stretch:normal;font-style:normal;font-weight:normal;text-anchor:start;" transform="rotate(-0, 379.195312, 43.478437)" x="379.195312" y="43.478437">adv. risk (n:78 c:1 )</text>
    </g>
    <g id="line2d_35">
     <path d="M 351.195312 54.656563 
L 371.195312 54.656563 
" style="fill:none;stroke:#0000ff;stroke-linecap:square;stroke-width:1.5;"/>
    </g>
    <g id="line2d_36"/>
    <g id="text_17">
     <text style="font-family:DejaVu Sans;font-size:10px;font-stretch:normal;font-style:normal;font-weight:normal;text-anchor:start;" transform="rotate(-0, 379.195312, 58.156563)" x="379.195312" y="58.156563">fav. risk (n:45 c:31)</text>
    </g>
    <g id="line2d_37">
     <path d="M 351.195312 69.334687 
L 371.195312 69.334687 
" style="fill:none;stroke:#808080;stroke-linecap:square;stroke-width:1.5;"/>
    </g>
    <g id="line2d_38"/>
    <g id="text_18">
     <text style="font-family:DejaVu Sans;font-size:10px;font-stretch:normal;font-style:normal;font-weight:normal;text-anchor:start;" transform="rotate(-0, 379.195312, 72.834687)" x="379.195312" y="72.834687">int. risk (n:177 c:45 )</text>
    </g>
   </g>
  </g>
 </g>
 <defs>
  <clipPath id="pea26427437">
   <rect height="339.6295" width="459.56" x="33.64" y="26.88"/>
  </clipPath>
 </defs>
</svg>
