<?xml version="1.0" encoding="utf-8" standalone="no"?>
<!DOCTYPE svg PUBLIC "-//W3C//DTD SVG 1.1//EN"
  "http://www.w3.org/Graphics/SVG/1.1/DTD/svg11.dtd">
<!-- Created with matplotlib (https://matplotlib.org/) -->
<svg height="432pt" version="1.1" viewBox="0 0 504 432" width="504pt" xmlns="http://www.w3.org/2000/svg" xmlns:xlink="http://www.w3.org/1999/xlink">
 <metadata>
  <rdf:RDF xmlns:cc="http://creativecommons.org/ns#" xmlns:dc="http://purl.org/dc/elements/1.1/" xmlns:rdf="http://www.w3.org/1999/02/22-rdf-syntax-ns#">
   <cc:Work>
    <dc:type rdf:resource="http://purl.org/dc/dcmitype/StillImage"/>
    <dc:date>2022-11-28T13:17:24.067521</dc:date>
    <dc:format>image/svg+xml</dc:format>
    <dc:creator>
     <cc:Agent>
      <dc:title>Matplotlib v3.3.4, https://matplotlib.org/</dc:title>
     </cc:Agent>
    </dc:creator>
   </cc:Work>
  </rdf:RDF>
 </metadata>
 <defs>
  <style type="text/css">*{stroke-linecap:butt;stroke-linejoin:round;}</style>
 </defs>
 <g id="figure_1">
  <g id="patch_1">
   <path d="M 0 432 
L 504 432 
L 504 0 
L 0 0 
z
" style="fill:#ffffff;"/>
  </g>
  <g id="axes_1">
   <g id="patch_2">
    <path d="M 33.64 366.5095 
L 493.2 366.5095 
L 493.2 26.88 
L 33.64 26.88 
z
" style="fill:#ffffff;"/>
   </g>
   <g id="PolyCollection_1">
    <defs>
     <path d="M 54.529091 -389.682295 
L 54.529091 -389.682295 
L 55.152336 -389.682295 
L 55.152336 -362.261406 
L 55.290835 -362.261406 
L 55.290835 -358.777813 
L 55.360084 -358.777813 
L 55.360084 -348.680721 
L 56.052578 -348.680721 
L 56.052578 -338.549021 
L 56.606574 -338.549021 
L 56.606574 -333.593429 
L 56.952821 -333.593429 
L 56.952821 -328.710715 
L 57.02207 -328.710715 
L 57.02207 -319.143091 
L 57.783814 -319.143091 
L 57.783814 -314.447724 
L 58.060812 -314.447724 
L 58.060812 -309.805159 
L 58.822556 -309.805159 
L 58.822556 -305.211475 
L 59.030304 -305.211475 
L 59.030304 -300.663257 
L 59.584299 -300.663257 
L 59.584299 -296.15754 
L 60.138295 -296.15754 
L 60.138295 -291.691737 
L 60.276794 -291.691737 
L 60.276794 -287.263589 
L 60.415293 -287.263589 
L 60.415293 -282.871119 
L 60.623041 -282.871119 
L 60.623041 -278.512585 
L 60.830789 -278.512585 
L 60.830789 -274.186453 
L 60.969288 -274.186453 
L 60.969288 -269.891369 
L 61.246286 -269.891369 
L 61.246286 -265.62613 
L 61.523283 -265.62613 
L 61.523283 -261.389673 
L 61.592533 -261.389673 
L 61.592533 -257.181052 
L 62.215778 -257.181052 
L 62.215778 -252.999427 
L 62.285027 -252.999427 
L 62.285027 -248.844054 
L 62.839023 -248.844054 
L 62.839023 -244.714273 
L 63.462268 -244.714273 
L 63.462268 -240.609501 
L 63.739265 -240.609501 
L 63.739265 -236.529225 
L 63.877764 -236.529225 
L 63.877764 -232.472995 
L 64.085512 -232.472995 
L 64.085512 -228.440422 
L 64.43176 -228.440422 
L 64.43176 -224.43117 
L 64.708757 -224.43117 
L 64.708757 -220.444956 
L 64.778007 -220.444956 
L 64.778007 -216.481544 
L 64.916506 -216.481544 
L 64.916506 -208.622419 
L 65.055004 -208.622419 
L 65.055004 -204.72646 
L 65.678249 -204.72646 
L 65.678249 -200.852811 
L 65.816748 -200.852811 
L 65.816748 -197.001453 
L 66.162995 -197.001453 
L 66.162995 -193.172412 
L 66.439993 -193.172412 
L 66.439993 -189.365752 
L 66.647741 -189.365752 
L 66.647741 -185.58158 
L 66.716991 -185.58158 
L 66.716991 -181.820046 
L 67.409485 -181.820046 
L 67.409485 -178.081346 
L 67.617233 -178.081346 
L 67.617233 -174.365719 
L 68.309728 -174.365719 
L 68.309728 -170.673456 
L 69.27922 -170.673456 
L 69.27922 -167.004896 
L 69.833215 -167.004896 
L 69.833215 -163.360435 
L 70.802707 -163.360435 
L 70.802707 -159.740526 
L 71.218204 -159.740526 
L 71.218204 -156.145688 
L 71.495202 -156.145688 
L 71.495202 -152.576507 
L 72.049197 -152.576507 
L 72.049197 -149.033647 
L 72.187696 -149.033647 
L 72.187696 -145.517856 
L 72.741691 -145.517856 
L 72.741691 -142.029979 
L 73.018689 -142.029979 
L 73.018689 -138.570965 
L 75.026923 -138.570965 
L 75.026923 -131.743942 
L 75.788666 -131.743942 
L 75.788666 -128.378507 
L 75.996415 -128.378507 
L 75.996415 -121.751566 
L 80.22063 -121.751566 
L 80.22063 -118.49384 
L 82.090365 -118.49384 
L 82.090365 -115.276268 
L 90.538795 -115.276268 
L 90.538795 -112.101531 
L 95.386255 -112.101531 
L 95.386255 -112.101531 
L 104.52718 -112.101531 
L 104.52718 -108.688256 
L 110.69038 -108.688256 
L 110.69038 -105.341616 
L 112.767863 -105.341616 
L 112.767863 -102.06709 
L 116.645831 -102.06709 
L 116.645831 -98.871413 
L 118.654064 -98.871413 
L 118.654064 -95.762984 
L 179.108818 -95.762984 
L 179.108818 -92.752461 
L 181.463298 -92.752461 
L 181.463298 -89.853678 
L 204.800357 -89.853678 
L 204.800357 -87.085106 
L 237.001342 -87.085106 
L 237.001342 -87.085106 
L 261.377142 -87.085106 
L 261.377142 -87.085106 
L 269.133078 -87.085106 
L 269.133078 -87.085106 
L 347.800432 -87.085106 
L 347.800432 -80.928205 
L 351.609151 -80.928205 
L 351.609151 -80.928205 
L 376.746694 -80.928205 
L 376.746694 -80.928205 
L 376.746694 -119.455695 
L 376.746694 -119.455695 
L 376.746694 -119.455695 
L 351.609151 -119.455695 
L 351.609151 -119.455695 
L 347.800432 -119.455695 
L 347.800432 -126.014513 
L 269.133078 -126.014513 
L 269.133078 -126.014513 
L 261.377142 -126.014513 
L 261.377142 -126.014513 
L 237.001342 -126.014513 
L 237.001342 -126.014513 
L 204.800357 -126.014513 
L 204.800357 -131.325971 
L 181.463298 -131.325971 
L 181.463298 -136.52733 
L 179.108818 -136.52733 
L 179.108818 -141.633529 
L 118.654064 -141.633529 
L 118.654064 -146.656009 
L 116.645831 -146.656009 
L 116.645831 -151.60373 
L 112.767863 -151.60373 
L 112.767863 -156.483844 
L 110.69038 -156.483844 
L 110.69038 -161.302151 
L 104.52718 -161.302151 
L 104.52718 -166.06342 
L 95.386255 -166.06342 
L 95.386255 -166.06342 
L 90.538795 -166.06342 
L 90.538795 -170.552937 
L 82.090365 -170.552937 
L 82.090365 -175.003751 
L 80.22063 -175.003751 
L 80.22063 -179.418172 
L 75.996415 -179.418172 
L 75.996415 -188.145569 
L 75.788666 -188.145569 
L 75.788666 -192.461807 
L 75.026923 -192.461807 
L 75.026923 -201.006063 
L 73.018689 -201.006063 
L 73.018689 -205.236296 
L 72.741691 -205.236296 
L 72.741691 -209.439863 
L 72.187696 -209.439863 
L 72.187696 -213.617577 
L 72.049197 -213.617577 
L 72.049197 -217.770155 
L 71.495202 -217.770155 
L 71.495202 -221.898233 
L 71.218204 -221.898233 
L 71.218204 -226.002369 
L 70.802707 -226.002369 
L 70.802707 -230.083055 
L 69.833215 -230.083055 
L 69.833215 -234.140719 
L 69.27922 -234.140719 
L 69.27922 -238.175733 
L 68.309728 -238.175733 
L 68.309728 -242.188415 
L 67.617233 -242.188415 
L 67.617233 -246.179032 
L 67.409485 -246.179032 
L 67.409485 -250.147806 
L 66.716991 -250.147806 
L 66.716991 -254.094912 
L 66.647741 -254.094912 
L 66.647741 -258.020485 
L 66.439993 -258.020485 
L 66.439993 -261.924614 
L 66.162995 -261.924614 
L 66.162995 -265.807352 
L 65.816748 -265.807352 
L 65.816748 -269.668709 
L 65.678249 -269.668709 
L 65.678249 -273.508655 
L 65.055004 -273.508655 
L 65.055004 -277.32712 
L 64.916506 -277.32712 
L 64.916506 -284.899124 
L 64.778007 -284.899124 
L 64.778007 -288.652313 
L 64.708757 -288.652313 
L 64.708757 -292.38332 
L 64.43176 -292.38332 
L 64.43176 -296.091857 
L 64.085512 -296.091857 
L 64.085512 -299.777584 
L 63.877764 -299.777584 
L 63.877764 -303.440107 
L 63.739265 -303.440107 
L 63.739265 -307.078973 
L 63.462268 -307.078973 
L 63.462268 -310.693668 
L 62.839023 -310.693668 
L 62.839023 -314.283607 
L 62.285027 -314.283607 
L 62.285027 -317.848126 
L 62.215778 -317.848126 
L 62.215778 -321.386478 
L 61.592533 -321.386478 
L 61.592533 -324.897819 
L 61.523283 -324.897819 
L 61.523283 -328.381198 
L 61.246286 -328.381198 
L 61.246286 -331.83554 
L 60.969288 -331.83554 
L 60.969288 -335.259627 
L 60.830789 -335.259627 
L 60.830789 -338.652078 
L 60.623041 -338.652078 
L 60.623041 -342.011323 
L 60.415293 -342.011323 
L 60.415293 -345.335563 
L 60.276794 -345.335563 
L 60.276794 -348.622735 
L 60.138295 -348.622735 
L 60.138295 -351.870451 
L 59.584299 -351.870451 
L 59.584299 -355.075932 
L 59.030304 -355.075932 
L 59.030304 -358.235913 
L 58.822556 -358.235913 
L 58.822556 -361.346526 
L 58.060812 -361.346526 
L 58.060812 -364.403128 
L 57.783814 -364.403128 
L 57.783814 -367.400077 
L 57.02207 -367.400077 
L 57.02207 -373.18531 
L 56.952821 -373.18531 
L 56.952821 -375.953468 
L 56.606574 -375.953468 
L 56.606574 -378.619797 
L 56.052578 -378.619797 
L 56.052578 -383.554232 
L 55.360084 -383.554232 
L 55.360084 -387.653885 
L 55.290835 -387.653885 
L 55.290835 -389.113427 
L 55.152336 -389.113427 
L 55.152336 -389.682295 
L 54.529091 -389.682295 
z
" id="mc960337440" style="stroke:#ff0000;stroke-opacity:0.25;"/>
    </defs>
    <g clip-path="url(#p19df9a2ec0)">
     <use style="fill:#ff0000;fill-opacity:0.25;stroke:#ff0000;stroke-opacity:0.25;" x="0" xlink:href="#mc960337440" y="432"/>
    </g>
   </g>
   <g id="PolyCollection_2">
    <defs>
     <path d="M 54.529091 -389.682295 
L 54.529091 -389.682295 
L 65.955247 -389.682295 
L 65.955247 -343.486412 
L 71.010456 -343.486412 
L 71.010456 -337.607903 
L 71.356703 -337.607903 
L 71.356703 -329.340438 
L 74.195929 -329.340438 
L 74.195929 -320.848139 
L 75.580918 -320.848139 
L 75.580918 -312.440612 
L 88.045816 -312.440612 
L 88.045816 -304.181037 
L 95.524754 -304.181037 
L 95.524754 -296.077802 
L 101.687954 -296.077802 
L 101.687954 -288.124892 
L 106.812411 -288.124892 
L 106.812411 -280.312855 
L 122.462783 -280.312855 
L 122.462783 -272.632132 
L 168.305906 -272.632132 
L 168.305906 -265.074076 
L 182.709788 -265.074076 
L 182.709788 -265.074076 
L 184.579523 -265.074076 
L 184.579523 -265.074076 
L 187.834246 -265.074076 
L 187.834246 -265.074076 
L 193.651198 -265.074076 
L 193.651198 -265.074076 
L 208.678325 -265.074076 
L 208.678325 -265.074076 
L 218.026998 -265.074076 
L 218.026998 -255.743146 
L 218.373245 -255.743146 
L 218.373245 -255.743146 
L 224.259447 -255.743146 
L 224.259447 -255.743146 
L 226.26768 -255.743146 
L 226.26768 -255.743146 
L 235.685603 -255.743146 
L 235.685603 -255.743146 
L 245.519022 -255.743146 
L 245.519022 -255.743146 
L 253.759704 -255.743146 
L 253.759704 -255.743146 
L 263.177627 -255.743146 
L 263.177627 -255.743146 
L 270.10257 -255.743146 
L 270.10257 -255.743146 
L 280.697733 -255.743146 
L 280.697733 -255.743146 
L 284.160205 -255.743146 
L 284.160205 -255.743146 
L 316.638188 -255.743146 
L 316.638188 -255.743146 
L 322.039643 -255.743146 
L 322.039643 -255.743146 
L 330.765072 -255.743146 
L 330.765072 -255.743146 
L 338.31326 -255.743146 
L 338.31326 -255.743146 
L 344.060963 -255.743146 
L 344.060963 -255.743146 
L 357.910849 -255.743146 
L 357.910849 -255.743146 
L 383.256141 -255.743146 
L 383.256141 -255.743146 
L 388.726846 -255.743146 
L 388.726846 -255.743146 
L 389.904086 -255.743146 
L 389.904086 -255.743146 
L 393.505056 -255.743146 
L 393.505056 -255.743146 
L 398.491015 -255.743146 
L 398.491015 -255.743146 
L 408.393684 -255.743146 
L 408.393684 -255.743146 
L 425.221296 -255.743146 
L 425.221296 -255.743146 
L 441.356413 -255.743146 
L 441.356413 -255.743146 
L 455.483297 -255.743146 
L 455.483297 -255.743146 
L 458.184025 -255.743146 
L 458.184025 -255.743146 
L 459.499764 -255.743146 
L 459.499764 -255.743146 
L 459.499764 -338.519766 
L 459.499764 -338.519766 
L 459.499764 -338.519766 
L 458.184025 -338.519766 
L 458.184025 -338.519766 
L 455.483297 -338.519766 
L 455.483297 -338.519766 
L 441.356413 -338.519766 
L 441.356413 -338.519766 
L 425.221296 -338.519766 
L 425.221296 -338.519766 
L 408.393684 -338.519766 
L 408.393684 -338.519766 
L 398.491015 -338.519766 
L 398.491015 -338.519766 
L 393.505056 -338.519766 
L 393.505056 -338.519766 
L 389.904086 -338.519766 
L 389.904086 -338.519766 
L 388.726846 -338.519766 
L 388.726846 -338.519766 
L 383.256141 -338.519766 
L 383.256141 -338.519766 
L 357.910849 -338.519766 
L 357.910849 -338.519766 
L 344.060963 -338.519766 
L 344.060963 -338.519766 
L 338.31326 -338.519766 
L 338.31326 -338.519766 
L 330.765072 -338.519766 
L 330.765072 -338.519766 
L 322.039643 -338.519766 
L 322.039643 -338.519766 
L 316.638188 -338.519766 
L 316.638188 -338.519766 
L 284.160205 -338.519766 
L 284.160205 -338.519766 
L 280.697733 -338.519766 
L 280.697733 -338.519766 
L 270.10257 -338.519766 
L 270.10257 -338.519766 
L 263.177627 -338.519766 
L 263.177627 -338.519766 
L 253.759704 -338.519766 
L 253.759704 -338.519766 
L 245.519022 -338.519766 
L 245.519022 -338.519766 
L 235.685603 -338.519766 
L 235.685603 -338.519766 
L 226.26768 -338.519766 
L 226.26768 -338.519766 
L 224.259447 -338.519766 
L 224.259447 -338.519766 
L 218.373245 -338.519766 
L 218.373245 -338.519766 
L 218.026998 -338.519766 
L 218.026998 -344.720979 
L 208.678325 -344.720979 
L 208.678325 -344.720979 
L 193.651198 -344.720979 
L 193.651198 -344.720979 
L 187.834246 -344.720979 
L 187.834246 -344.720979 
L 184.579523 -344.720979 
L 184.579523 -344.720979 
L 182.709788 -344.720979 
L 182.709788 -344.720979 
L 168.305906 -344.720979 
L 168.305906 -350.122039 
L 122.462783 -350.122039 
L 122.462783 -355.386854 
L 106.812411 -355.386854 
L 106.812411 -360.50044 
L 101.687954 -360.50044 
L 101.687954 -365.443297 
L 95.524754 -365.443297 
L 95.524754 -370.189357 
L 88.045816 -370.189357 
L 88.045816 -374.702481 
L 75.580918 -374.702481 
L 75.580918 -378.930082 
L 74.195929 -378.930082 
L 74.195929 -382.790176 
L 71.356703 -382.790176 
L 71.356703 -386.141075 
L 71.010456 -386.141075 
L 71.010456 -388.692237 
L 65.955247 -388.692237 
L 65.955247 -389.682295 
L 54.529091 -389.682295 
z
" id="mcc3751db93" style="stroke:#0000ff;stroke-opacity:0.25;"/>
    </defs>
    <g clip-path="url(#p19df9a2ec0)">
     <use style="fill:#0000ff;fill-opacity:0.25;stroke:#0000ff;stroke-opacity:0.25;" x="0" xlink:href="#mcc3751db93" y="432"/>
    </g>
   </g>
   <g id="PolyCollection_3">
    <defs>
     <path d="M 54.529091 -389.682295 
L 54.529091 -389.682295 
L 55.083086 -389.682295 
L 55.083086 -377.332386 
L 55.360084 -377.332386 
L 55.360084 -373.510701 
L 55.429334 -373.510701 
L 55.429334 -371.17248 
L 55.498583 -371.17248 
L 55.498583 -368.84068 
L 55.567832 -368.84068 
L 55.567832 -366.534454 
L 55.775581 -366.534454 
L 55.775581 -364.257249 
L 55.91408 -364.257249 
L 55.91408 -362.00819 
L 55.983329 -362.00819 
L 55.983329 -359.785221 
L 56.052578 -359.785221 
L 56.052578 -355.40867 
L 56.191077 -355.40867 
L 56.191077 -353.251052 
L 56.329576 -353.251052 
L 56.329576 -351.111555 
L 56.398826 -351.111555 
L 56.398826 -346.881215 
L 56.537324 -346.881215 
L 56.537324 -344.787956 
L 56.883572 -344.787956 
L 56.883572 -342.707933 
L 57.02207 -342.707933 
L 57.02207 -340.64027 
L 57.09132 -340.64027 
L 57.09132 -338.584187 
L 58.33781 -338.584187 
L 58.33781 -336.538991 
L 59.307302 -336.538991 
L 59.307302 -334.504062 
L 59.51505 -334.504062 
L 59.51505 -332.47884 
L 59.722798 -332.47884 
L 59.722798 -328.455557 
L 59.861297 -328.455557 
L 59.861297 -326.456627 
L 60.138295 -326.456627 
L 60.138295 -324.449172 
L 60.553791 -324.449172 
L 60.553791 -322.449633 
L 61.592533 -322.449633 
L 61.592533 -320.457671 
L 61.731032 -320.457671 
L 61.731032 -318.472972 
L 62.008029 -318.472972 
L 62.008029 -316.49525 
L 62.146528 -316.49525 
L 62.146528 -314.524241 
L 62.215778 -314.524241 
L 62.215778 -312.559703 
L 63.046771 -312.559703 
L 63.046771 -310.601409 
L 63.323769 -310.601409 
L 63.323769 -308.649151 
L 63.877764 -308.649151 
L 63.877764 -306.702735 
L 63.947014 -306.702735 
L 63.947014 -304.761982 
L 64.016263 -304.761982 
L 64.016263 -302.826722 
L 64.570258 -302.826722 
L 64.570258 -300.8968 
L 64.778007 -300.8968 
L 64.778007 -298.972069 
L 65.055004 -298.972069 
L 65.055004 -297.052392 
L 65.193503 -297.052392 
L 65.193503 -295.137639 
L 65.470501 -295.137639 
L 65.470501 -293.227691 
L 66.093746 -293.227691 
L 66.093746 -291.322434 
L 68.309728 -291.322434 
L 68.309728 -289.421762 
L 68.863723 -289.421762 
L 68.863723 -287.525573 
L 68.932973 -287.525573 
L 68.932973 -281.862994 
L 69.071471 -281.862994 
L 69.071471 -279.983849 
L 69.27922 -279.983849 
L 69.27922 -278.108765 
L 69.763966 -278.108765 
L 69.763966 -276.237673 
L 70.733458 -276.237673 
L 70.733458 -274.370505 
L 70.871957 -274.370505 
L 70.871957 -272.507197 
L 70.941206 -272.507197 
L 70.941206 -270.64769 
L 71.010456 -270.64769 
L 71.010456 -268.791927 
L 71.218204 -268.791927 
L 71.218204 -266.939854 
L 71.772199 -266.939854 
L 71.772199 -265.09142 
L 71.910698 -265.09142 
L 71.910698 -263.246577 
L 71.979948 -263.246577 
L 71.979948 -261.40528 
L 72.810941 -261.40528 
L 72.810941 -259.567486 
L 73.572684 -259.567486 
L 73.572684 -257.733154 
L 74.334428 -257.733154 
L 74.334428 -255.902245 
L 74.680675 -255.902245 
L 74.680675 -254.074723 
L 75.096172 -254.074723 
L 75.096172 -252.250553 
L 75.30392 -252.250553 
L 75.30392 -248.612145 
L 75.442419 -248.612145 
L 75.442419 -244.986784 
L 75.996415 -244.986784 
L 75.996415 -243.178929 
L 76.55041 -243.178929 
L 76.55041 -237.774389 
L 76.758158 -237.774389 
L 76.758158 -235.979148 
L 76.827408 -235.979148 
L 76.827408 -234.187012 
L 77.242904 -234.187012 
L 77.242904 -230.611993 
L 77.935399 -230.611993 
L 77.935399 -228.829081 
L 78.143147 -228.829081 
L 78.143147 -227.049217 
L 79.251138 -227.049217 
L 79.251138 -225.272389 
L 79.320387 -225.272389 
L 79.320387 -223.498588 
L 79.528136 -223.498588 
L 79.528136 -221.727806 
L 79.735884 -221.727806 
L 79.735884 -219.960034 
L 80.082131 -219.960034 
L 80.082131 -218.195266 
L 81.813367 -218.195266 
L 81.813367 -216.433497 
L 82.021115 -216.433497 
L 82.021115 -214.674723 
L 82.228863 -214.674723 
L 82.228863 -212.918942 
L 82.436612 -212.918942 
L 82.436612 -211.166151 
L 84.029349 -211.166151 
L 84.029349 -209.41635 
L 84.514095 -209.41635 
L 84.514095 -207.669539 
L 85.137339 -207.669539 
L 85.137339 -205.925721 
L 85.206589 -205.925721 
L 85.206589 -204.184898 
L 85.414337 -204.184898 
L 85.414337 -202.447073 
L 85.552836 -202.447073 
L 85.552836 -200.712254 
L 86.31458 -200.712254 
L 86.31458 -198.980445 
L 88.045816 -198.980445 
L 88.045816 -197.251654 
L 88.322813 -197.251654 
L 88.322813 -195.525889 
L 88.392063 -195.525889 
L 88.392063 -193.803162 
L 88.599811 -193.803162 
L 88.599811 -190.366863 
L 88.66906 -190.366863 
L 88.66906 -188.653318 
L 89.084557 -188.653318 
L 89.084557 -186.942861 
L 89.777051 -186.942861 
L 89.777051 -185.23551 
L 90.469546 -185.23551 
L 90.469546 -183.531281 
L 91.508287 -183.531281 
L 91.508287 -181.830194 
L 96.217248 -181.830194 
L 96.217248 -180.132269 
L 98.779477 -180.132269 
L 98.779477 -178.437528 
L 99.194974 -178.437528 
L 99.194974 -176.745995 
L 100.233715 -176.745995 
L 100.233715 -175.057694 
L 101.618704 -175.057694 
L 101.618704 -173.372652 
L 101.826452 -173.372652 
L 101.826452 -171.690898 
L 103.488439 -171.690898 
L 103.488439 -170.012461 
L 108.128151 -170.012461 
L 108.128151 -168.337374 
L 110.274883 -168.337374 
L 110.274883 -166.66567 
L 111.86762 -166.66567 
L 111.86762 -164.997385 
L 112.629364 -164.997385 
L 112.629364 -163.332557 
L 113.183359 -163.332557 
L 113.183359 -161.671225 
L 114.152851 -161.671225 
L 114.152851 -160.013433 
L 121.008545 -160.013433 
L 121.008545 -158.359224 
L 129.803223 -158.359224 
L 129.803223 -156.708645 
L 130.772715 -156.708645 
L 130.772715 -155.061747 
L 131.118962 -155.061747 
L 131.118962 -153.418581 
L 137.351411 -153.418581 
L 137.351411 -151.779204 
L 138.5979 -151.779204 
L 138.5979 -150.143673 
L 150.231805 -150.143673 
L 150.231805 -148.51205 
L 151.201297 -148.51205 
L 151.201297 -146.884401 
L 156.118006 -146.884401 
L 156.118006 -145.260793 
L 162.9737 -145.260793 
L 162.9737 -143.641301 
L 165.743677 -143.641301 
L 165.743677 -142.026 
L 187.3495 -142.026 
L 187.3495 -142.026 
L 187.557248 -142.026 
L 187.557248 -140.374921 
L 189.703981 -140.374921 
L 189.703981 -140.374921 
L 191.850713 -140.374921 
L 191.850713 -140.374921 
L 198.221661 -140.374921 
L 198.221661 -138.640611 
L 198.983404 -138.640611 
L 198.983404 -138.640611 
L 206.254595 -138.640611 
L 206.254595 -138.640611 
L 207.362585 -138.640611 
L 207.362585 -136.812401 
L 208.262828 -136.812401 
L 208.262828 -136.812401 
L 209.024572 -136.812401 
L 209.024572 -134.936101 
L 209.509318 -134.936101 
L 209.509318 -133.068098 
L 215.257021 -133.068098 
L 215.257021 -131.208544 
L 218.165497 -131.208544 
L 218.165497 -129.357609 
L 227.444921 -129.357609 
L 227.444921 -129.357609 
L 232.153882 -129.357609 
L 232.153882 -129.357609 
L 237.901585 -129.357609 
L 237.901585 -129.357609 
L 241.156308 -129.357609 
L 241.156308 -129.357609 
L 248.704496 -129.357609 
L 248.704496 -129.357609 
L 249.46624 -129.357609 
L 249.46624 -127.140947 
L 252.859462 -127.140947 
L 252.859462 -127.140947 
L 258.122419 -127.140947 
L 258.122419 -124.845425 
L 265.878355 -124.845425 
L 265.878355 -122.569772 
L 266.43235 -122.569772 
L 266.43235 -122.569772 
L 269.133078 -122.569772 
L 269.133078 -122.569772 
L 280.420735 -122.569772 
L 280.420735 -122.569772 
L 289.838658 -122.569772 
L 289.838658 -122.569772 
L 295.586361 -122.569772 
L 295.586361 -122.569772 
L 302.234306 -122.569772 
L 302.234306 -122.569772 
L 322.385891 -122.569772 
L 322.385891 -122.569772 
L 330.626573 -122.569772 
L 330.626573 -122.569772 
L 333.535049 -122.569772 
L 333.535049 -122.569772 
L 333.673548 -122.569772 
L 333.673548 -122.569772 
L 333.812047 -122.569772 
L 333.812047 -122.569772 
L 333.881296 -122.569772 
L 333.881296 -122.569772 
L 356.52586 -122.569772 
L 356.52586 -122.569772 
L 359.503586 -122.569772 
L 359.503586 -122.569772 
L 370.652744 -122.569772 
L 370.652744 -122.569772 
L 374.738461 -122.569772 
L 374.738461 -122.569772 
L 377.716186 -122.569772 
L 377.716186 -114.912938 
L 380.693912 -114.912938 
L 380.693912 -114.912938 
L 391.566072 -114.912938 
L 391.566072 -114.912938 
L 392.604814 -114.912938 
L 392.604814 -114.912938 
L 405.069711 -114.912938 
L 405.069711 -114.912938 
L 432.907983 -114.912938 
L 432.907983 -114.912938 
L 445.926876 -114.912938 
L 445.926876 -114.912938 
L 463.931728 -114.912938 
L 463.931728 -114.912938 
L 464.347225 -114.912938 
L 464.347225 -114.912938 
L 472.310909 -114.912938 
L 472.310909 -114.912938 
L 472.310909 -156.751543 
L 472.310909 -156.751543 
L 472.310909 -156.751543 
L 464.347225 -156.751543 
L 464.347225 -156.751543 
L 463.931728 -156.751543 
L 463.931728 -156.751543 
L 445.926876 -156.751543 
L 445.926876 -156.751543 
L 432.907983 -156.751543 
L 432.907983 -156.751543 
L 405.069711 -156.751543 
L 405.069711 -156.751543 
L 392.604814 -156.751543 
L 392.604814 -156.751543 
L 391.566072 -156.751543 
L 391.566072 -156.751543 
L 380.693912 -156.751543 
L 380.693912 -156.751543 
L 377.716186 -156.751543 
L 377.716186 -160.967152 
L 374.738461 -160.967152 
L 374.738461 -160.967152 
L 370.652744 -160.967152 
L 370.652744 -160.967152 
L 359.503586 -160.967152 
L 359.503586 -160.967152 
L 356.52586 -160.967152 
L 356.52586 -160.967152 
L 333.881296 -160.967152 
L 333.881296 -160.967152 
L 333.812047 -160.967152 
L 333.812047 -160.967152 
L 333.673548 -160.967152 
L 333.673548 -160.967152 
L 333.535049 -160.967152 
L 333.535049 -160.967152 
L 330.626573 -160.967152 
L 330.626573 -160.967152 
L 322.385891 -160.967152 
L 322.385891 -160.967152 
L 302.234306 -160.967152 
L 302.234306 -160.967152 
L 295.586361 -160.967152 
L 295.586361 -160.967152 
L 289.838658 -160.967152 
L 289.838658 -160.967152 
L 280.420735 -160.967152 
L 280.420735 -160.967152 
L 269.133078 -160.967152 
L 269.133078 -160.967152 
L 266.43235 -160.967152 
L 266.43235 -160.967152 
L 265.878355 -160.967152 
L 265.878355 -163.498597 
L 258.122419 -163.498597 
L 258.122419 -166.01345 
L 252.859462 -166.01345 
L 252.859462 -166.01345 
L 249.46624 -166.01345 
L 249.46624 -168.44802 
L 248.704496 -168.44802 
L 248.704496 -168.44802 
L 241.156308 -168.44802 
L 241.156308 -168.44802 
L 237.901585 -168.44802 
L 237.901585 -168.44802 
L 232.153882 -168.44802 
L 232.153882 -168.44802 
L 227.444921 -168.44802 
L 227.444921 -168.44802 
L 218.165497 -168.44802 
L 218.165497 -170.597544 
L 215.257021 -170.597544 
L 215.257021 -172.739504 
L 209.509318 -172.739504 
L 209.509318 -174.87406 
L 209.024572 -174.87406 
L 209.024572 -177.00136 
L 208.262828 -177.00136 
L 208.262828 -177.00136 
L 207.362585 -177.00136 
L 207.362585 -179.078914 
L 206.254595 -179.078914 
L 206.254595 -179.078914 
L 198.983404 -179.078914 
L 198.983404 -179.078914 
L 198.221661 -179.078914 
L 198.221661 -181.071514 
L 191.850713 -181.071514 
L 191.850713 -181.071514 
L 189.703981 -181.071514 
L 189.703981 -181.071514 
L 187.557248 -181.071514 
L 187.557248 -182.987422 
L 187.3495 -182.987422 
L 187.3495 -182.987422 
L 165.743677 -182.987422 
L 165.743677 -184.86579 
L 162.9737 -184.86579 
L 162.9737 -186.740212 
L 156.118006 -186.740212 
L 156.118006 -188.610757 
L 151.201297 -188.610757 
L 151.201297 -190.477491 
L 150.231805 -190.477491 
L 150.231805 -192.340475 
L 138.5979 -192.340475 
L 138.5979 -194.199769 
L 137.351411 -194.199769 
L 137.351411 -196.055428 
L 131.118962 -196.055428 
L 131.118962 -197.907504 
L 130.772715 -197.907504 
L 130.772715 -199.756047 
L 129.803223 -199.756047 
L 129.803223 -201.601105 
L 121.008545 -201.601105 
L 121.008545 -203.442721 
L 114.152851 -203.442721 
L 114.152851 -205.280938 
L 113.183359 -205.280938 
L 113.183359 -207.115795 
L 112.629364 -207.115795 
L 112.629364 -208.947331 
L 111.86762 -208.947331 
L 111.86762 -210.775581 
L 110.274883 -210.775581 
L 110.274883 -212.600578 
L 108.128151 -212.600578 
L 108.128151 -214.422355 
L 103.488439 -214.422355 
L 103.488439 -216.240941 
L 101.826452 -216.240941 
L 101.826452 -218.056364 
L 101.618704 -218.056364 
L 101.618704 -219.868652 
L 100.233715 -219.868652 
L 100.233715 -221.677828 
L 99.194974 -221.677828 
L 99.194974 -223.483916 
L 98.779477 -223.483916 
L 98.779477 -225.286938 
L 96.217248 -225.286938 
L 96.217248 -227.086914 
L 91.508287 -227.086914 
L 91.508287 -228.883863 
L 90.469546 -228.883863 
L 90.469546 -230.677804 
L 89.777051 -230.677804 
L 89.777051 -232.468751 
L 89.084557 -232.468751 
L 89.084557 -234.25672 
L 88.66906 -234.25672 
L 88.66906 -236.041724 
L 88.599811 -236.041724 
L 88.599811 -239.602888 
L 88.392063 -239.602888 
L 88.392063 -241.379069 
L 88.322813 -241.379069 
L 88.322813 -243.152328 
L 88.045816 -243.152328 
L 88.045816 -244.922672 
L 86.31458 -244.922672 
L 86.31458 -246.690108 
L 85.552836 -246.690108 
L 85.552836 -248.454642 
L 85.414337 -248.454642 
L 85.414337 -250.216278 
L 85.206589 -250.216278 
L 85.206589 -251.975019 
L 85.137339 -251.975019 
L 85.137339 -253.730866 
L 84.514095 -253.730866 
L 84.514095 -255.483822 
L 84.029349 -255.483822 
L 84.029349 -257.233886 
L 82.436612 -257.233886 
L 82.436612 -258.981056 
L 82.228863 -258.981056 
L 82.228863 -260.725331 
L 82.021115 -260.725331 
L 82.021115 -262.466707 
L 81.813367 -262.466707 
L 81.813367 -264.205179 
L 80.082131 -264.205179 
L 80.082131 -265.940742 
L 79.735884 -265.940742 
L 79.735884 -267.673389 
L 79.528136 -267.673389 
L 79.528136 -269.403112 
L 79.320387 -269.403112 
L 79.320387 -271.129902 
L 79.251138 -271.129902 
L 79.251138 -272.853749 
L 78.143147 -272.853749 
L 78.143147 -274.574641 
L 77.935399 -274.574641 
L 77.935399 -276.292567 
L 77.242904 -276.292567 
L 77.242904 -279.719459 
L 76.827408 -279.719459 
L 76.827408 -281.428395 
L 76.758158 -281.428395 
L 76.758158 -283.1343 
L 76.55041 -283.1343 
L 76.55041 -288.233637 
L 75.996415 -288.233637 
L 75.996415 -289.927216 
L 75.442419 -289.927216 
L 75.442419 -293.304928 
L 75.30392 -293.304928 
L 75.30392 -296.669857 
L 75.096172 -296.669857 
L 75.096172 -298.347452 
L 74.680675 -298.347452 
L 74.680675 -300.021758 
L 74.334428 -300.021758 
L 74.334428 -301.692737 
L 73.572684 -301.692737 
L 73.572684 -303.360353 
L 72.810941 -303.360353 
L 72.810941 -305.024565 
L 71.979948 -305.024565 
L 71.979948 -306.685332 
L 71.910698 -306.685332 
L 71.910698 -308.34261 
L 71.772199 -308.34261 
L 71.772199 -309.996351 
L 71.218204 -309.996351 
L 71.218204 -311.646507 
L 71.010456 -311.646507 
L 71.010456 -313.293024 
L 70.941206 -313.293024 
L 70.941206 -314.935849 
L 70.871957 -314.935849 
L 70.871957 -316.574923 
L 70.733458 -316.574923 
L 70.733458 -318.210184 
L 69.763966 -318.210184 
L 69.763966 -319.841567 
L 69.27922 -319.841567 
L 69.27922 -321.469005 
L 69.071471 -321.469005 
L 69.071471 -323.092424 
L 68.932973 -323.092424 
L 68.932973 -327.937784 
L 68.863723 -327.937784 
L 68.863723 -329.544318 
L 68.309728 -329.544318 
L 68.309728 -331.146403 
L 66.093746 -331.146403 
L 66.093746 -332.743936 
L 65.470501 -332.743936 
L 65.470501 -334.336808 
L 65.193503 -334.336808 
L 65.193503 -335.924905 
L 65.055004 -335.924905 
L 65.055004 -337.508103 
L 64.778007 -337.508103 
L 64.778007 -339.08627 
L 64.570258 -339.08627 
L 64.570258 -340.659267 
L 64.016263 -340.659267 
L 64.016263 -342.226944 
L 63.947014 -342.226944 
L 63.947014 -343.789141 
L 63.877764 -343.789141 
L 63.877764 -345.345686 
L 63.323769 -345.345686 
L 63.323769 -346.896395 
L 63.046771 -346.896395 
L 63.046771 -348.44107 
L 62.215778 -348.44107 
L 62.215778 -349.979496 
L 62.146528 -349.979496 
L 62.146528 -351.511445 
L 62.008029 -351.511445 
L 62.008029 -353.036665 
L 61.731032 -353.036665 
L 61.731032 -354.554886 
L 61.592533 -354.554886 
L 61.592533 -356.065814 
L 60.553791 -356.065814 
L 60.553791 -357.569126 
L 60.138295 -357.569126 
L 60.138295 -359.064473 
L 59.861297 -359.064473 
L 59.861297 -360.543497 
L 59.722798 -360.543497 
L 59.722798 -363.475272 
L 59.51505 -363.475272 
L 59.51505 -364.927058 
L 59.307302 -364.927058 
L 59.307302 -366.368709 
L 58.33781 -366.368709 
L 58.33781 -367.799593 
L 57.09132 -367.799593 
L 57.09132 -369.218997 
L 57.02207 -369.218997 
L 57.02207 -370.626115 
L 56.883572 -370.626115 
L 56.883572 -372.020026 
L 56.537324 -372.020026 
L 56.537324 -373.399672 
L 56.398826 -373.399672 
L 56.398826 -376.111067 
L 56.329576 -376.111067 
L 56.329576 -377.439691 
L 56.191077 -377.439691 
L 56.191077 -378.747676 
L 56.052578 -378.747676 
L 56.052578 -381.291312 
L 55.983329 -381.291312 
L 55.983329 -382.520103 
L 55.91408 -382.520103 
L 55.91408 -383.713994 
L 55.775581 -383.713994 
L 55.775581 -384.866414 
L 55.567832 -384.866414 
L 55.567832 -385.968274 
L 55.498583 -385.968274 
L 55.498583 -387.006342 
L 55.429334 -387.006342 
L 55.429334 -387.959951 
L 55.360084 -387.959951 
L 55.360084 -389.432382 
L 55.083086 -389.432382 
L 55.083086 -389.682295 
L 54.529091 -389.682295 
z
" id="me3c45b4058" style="stroke:#808080;stroke-opacity:0.25;"/>
    </defs>
    <g clip-path="url(#p19df9a2ec0)">
     <use style="fill:#808080;fill-opacity:0.25;stroke:#808080;stroke-opacity:0.25;" x="0" xlink:href="#me3c45b4058" y="432"/>
    </g>
   </g>
   <g id="matplotlib.axis_1">
    <g id="xtick_1">
     <g id="line2d_1">
      <path clip-path="url(#p19df9a2ec0)" d="M 54.529091 366.5095 
L 54.529091 26.88 
" style="fill:none;stroke:#b0b0b0;stroke-dasharray:2.96,1.28;stroke-dashoffset:0;stroke-opacity:0.5;stroke-width:0.8;"/>
     </g>
     <g id="line2d_2">
      <defs>
       <path d="M 0 0 
L 0 3.5 
" id="mdee5c89155" style="stroke:#000000;stroke-width:0.8;"/>
      </defs>
      <g>
       <use style="stroke:#000000;stroke-width:0.8;" x="54.529091" xlink:href="#mdee5c89155" y="366.5095"/>
      </g>
     </g>
     <g id="text_1">
      <text style="font-family:DejaVu Sans;font-size:10px;font-stretch:normal;font-style:normal;font-weight:normal;text-anchor:middle;" transform="rotate(-0, 54.529091, 381.107937)" x="54.529091" y="381.107937">0</text>
     </g>
    </g>
    <g id="xtick_2">
     <g id="line2d_3">
      <path clip-path="url(#p19df9a2ec0)" d="M 123.778522 366.5095 
L 123.778522 26.88 
" style="fill:none;stroke:#b0b0b0;stroke-dasharray:2.96,1.28;stroke-dashoffset:0;stroke-opacity:0.5;stroke-width:0.8;"/>
     </g>
     <g id="line2d_4">
      <g>
       <use style="stroke:#000000;stroke-width:0.8;" x="123.778522" xlink:href="#mdee5c89155" y="366.5095"/>
      </g>
     </g>
     <g id="text_2">
      <text style="font-family:DejaVu Sans;font-size:10px;font-stretch:normal;font-style:normal;font-weight:normal;text-anchor:middle;" transform="rotate(-0, 123.778522, 381.107937)" x="123.778522" y="381.107937">1000</text>
     </g>
    </g>
    <g id="xtick_3">
     <g id="line2d_5">
      <path clip-path="url(#p19df9a2ec0)" d="M 193.027953 366.5095 
L 193.027953 26.88 
" style="fill:none;stroke:#b0b0b0;stroke-dasharray:2.96,1.28;stroke-dashoffset:0;stroke-opacity:0.5;stroke-width:0.8;"/>
     </g>
     <g id="line2d_6">
      <g>
       <use style="stroke:#000000;stroke-width:0.8;" x="193.027953" xlink:href="#mdee5c89155" y="366.5095"/>
      </g>
     </g>
     <g id="text_3">
      <text style="font-family:DejaVu Sans;font-size:10px;font-stretch:normal;font-style:normal;font-weight:normal;text-anchor:middle;" transform="rotate(-0, 193.027953, 381.107937)" x="193.027953" y="381.107937">2000</text>
     </g>
    </g>
    <g id="xtick_4">
     <g id="line2d_7">
      <path clip-path="url(#p19df9a2ec0)" d="M 262.277384 366.5095 
L 262.277384 26.88 
" style="fill:none;stroke:#b0b0b0;stroke-dasharray:2.96,1.28;stroke-dashoffset:0;stroke-opacity:0.5;stroke-width:0.8;"/>
     </g>
     <g id="line2d_8">
      <g>
       <use style="stroke:#000000;stroke-width:0.8;" x="262.277384" xlink:href="#mdee5c89155" y="366.5095"/>
      </g>
     </g>
     <g id="text_4">
      <text style="font-family:DejaVu Sans;font-size:10px;font-stretch:normal;font-style:normal;font-weight:normal;text-anchor:middle;" transform="rotate(-0, 262.277384, 381.107937)" x="262.277384" y="381.107937">3000</text>
     </g>
    </g>
    <g id="xtick_5">
     <g id="line2d_9">
      <path clip-path="url(#p19df9a2ec0)" d="M 331.526816 366.5095 
L 331.526816 26.88 
" style="fill:none;stroke:#b0b0b0;stroke-dasharray:2.96,1.28;stroke-dashoffset:0;stroke-opacity:0.5;stroke-width:0.8;"/>
     </g>
     <g id="line2d_10">
      <g>
       <use style="stroke:#000000;stroke-width:0.8;" x="331.526816" xlink:href="#mdee5c89155" y="366.5095"/>
      </g>
     </g>
     <g id="text_5">
      <text style="font-family:DejaVu Sans;font-size:10px;font-stretch:normal;font-style:normal;font-weight:normal;text-anchor:middle;" transform="rotate(-0, 331.526816, 381.107937)" x="331.526816" y="381.107937">4000</text>
     </g>
    </g>
    <g id="xtick_6">
     <g id="line2d_11">
      <path clip-path="url(#p19df9a2ec0)" d="M 400.776247 366.5095 
L 400.776247 26.88 
" style="fill:none;stroke:#b0b0b0;stroke-dasharray:2.96,1.28;stroke-dashoffset:0;stroke-opacity:0.5;stroke-width:0.8;"/>
     </g>
     <g id="line2d_12">
      <g>
       <use style="stroke:#000000;stroke-width:0.8;" x="400.776247" xlink:href="#mdee5c89155" y="366.5095"/>
      </g>
     </g>
     <g id="text_6">
      <text style="font-family:DejaVu Sans;font-size:10px;font-stretch:normal;font-style:normal;font-weight:normal;text-anchor:middle;" transform="rotate(-0, 400.776247, 381.107937)" x="400.776247" y="381.107937">5000</text>
     </g>
    </g>
    <g id="xtick_7">
     <g id="line2d_13">
      <path clip-path="url(#p19df9a2ec0)" d="M 470.025678 366.5095 
L 470.025678 26.88 
" style="fill:none;stroke:#b0b0b0;stroke-dasharray:2.96,1.28;stroke-dashoffset:0;stroke-opacity:0.5;stroke-width:0.8;"/>
     </g>
     <g id="line2d_14">
      <g>
       <use style="stroke:#000000;stroke-width:0.8;" x="470.025678" xlink:href="#mdee5c89155" y="366.5095"/>
      </g>
     </g>
     <g id="text_7">
      <text style="font-family:DejaVu Sans;font-size:10px;font-stretch:normal;font-style:normal;font-weight:normal;text-anchor:middle;" transform="rotate(-0, 470.025678, 381.107937)" x="470.025678" y="381.107937">6000</text>
     </g>
    </g>
    <g id="text_8">
     <text style="font-family:DejaVu Sans;font-size:10px;font-stretch:normal;font-style:normal;font-weight:normal;" transform="translate(241.511406 394.786063)">timeline </text>
     <text style="font-family:DejaVu Sans;font-size:10px;font-stretch:normal;font-style:normal;font-weight:normal;" transform="translate(167.239531 405.983875)">    dataset: clin_factors, input_dim: 17 </text>
     <text style="font-family:DejaVu Sans;font-size:10px;font-stretch:normal;font-style:normal;font-weight:normal;" transform="translate(184.83875 417.459812)">    c_index: [0.685 0.654 0.715]</text>
    </g>
   </g>
   <g id="matplotlib.axis_2">
    <g id="ytick_1">
     <g id="line2d_15">
      <path clip-path="url(#p19df9a2ec0)" d="M 33.64 355.580898 
L 493.2 355.580898 
" style="fill:none;stroke:#b0b0b0;stroke-dasharray:2.96,1.28;stroke-dashoffset:0;stroke-opacity:0.5;stroke-width:0.8;"/>
     </g>
     <g id="line2d_16">
      <defs>
       <path d="M 0 0 
L -3.5 0 
" id="md10f032c8c" style="stroke:#000000;stroke-width:0.8;"/>
      </defs>
      <g>
       <use style="stroke:#000000;stroke-width:0.8;" x="33.64" xlink:href="#md10f032c8c" y="355.580898"/>
      </g>
     </g>
     <g id="text_9">
      <text style="font-family:DejaVu Sans;font-size:10px;font-stretch:normal;font-style:normal;font-weight:normal;text-anchor:end;" transform="rotate(-0, 26.64, 359.380116)" x="26.64" y="359.380116">0.0</text>
     </g>
    </g>
    <g id="ytick_2">
     <g id="line2d_17">
      <path clip-path="url(#p19df9a2ec0)" d="M 33.64 292.928259 
L 493.2 292.928259 
" style="fill:none;stroke:#b0b0b0;stroke-dasharray:2.96,1.28;stroke-dashoffset:0;stroke-opacity:0.5;stroke-width:0.8;"/>
     </g>
     <g id="line2d_18">
      <g>
       <use style="stroke:#000000;stroke-width:0.8;" x="33.64" xlink:href="#md10f032c8c" y="292.928259"/>
      </g>
     </g>
     <g id="text_10">
      <text style="font-family:DejaVu Sans;font-size:10px;font-stretch:normal;font-style:normal;font-weight:normal;text-anchor:end;" transform="rotate(-0, 26.64, 296.727478)" x="26.64" y="296.727478">0.2</text>
     </g>
    </g>
    <g id="ytick_3">
     <g id="line2d_19">
      <path clip-path="url(#p19df9a2ec0)" d="M 33.64 230.27562 
L 493.2 230.27562 
" style="fill:none;stroke:#b0b0b0;stroke-dasharray:2.96,1.28;stroke-dashoffset:0;stroke-opacity:0.5;stroke-width:0.8;"/>
     </g>
     <g id="line2d_20">
      <g>
       <use style="stroke:#000000;stroke-width:0.8;" x="33.64" xlink:href="#md10f032c8c" y="230.27562"/>
      </g>
     </g>
     <g id="text_11">
      <text style="font-family:DejaVu Sans;font-size:10px;font-stretch:normal;font-style:normal;font-weight:normal;text-anchor:end;" transform="rotate(-0, 26.64, 234.074839)" x="26.64" y="234.074839">0.4</text>
     </g>
    </g>
    <g id="ytick_4">
     <g id="line2d_21">
      <path clip-path="url(#p19df9a2ec0)" d="M 33.64 167.622982 
L 493.2 167.622982 
" style="fill:none;stroke:#b0b0b0;stroke-dasharray:2.96,1.28;stroke-dashoffset:0;stroke-opacity:0.5;stroke-width:0.8;"/>
     </g>
     <g id="line2d_22">
      <g>
       <use style="stroke:#000000;stroke-width:0.8;" x="33.64" xlink:href="#md10f032c8c" y="167.622982"/>
      </g>
     </g>
     <g id="text_12">
      <text style="font-family:DejaVu Sans;font-size:10px;font-stretch:normal;font-style:normal;font-weight:normal;text-anchor:end;" transform="rotate(-0, 26.64, 171.422201)" x="26.64" y="171.422201">0.6</text>
     </g>
    </g>
    <g id="ytick_5">
     <g id="line2d_23">
      <path clip-path="url(#p19df9a2ec0)" d="M 33.64 104.970343 
L 493.2 104.970343 
" style="fill:none;stroke:#b0b0b0;stroke-dasharray:2.96,1.28;stroke-dashoffset:0;stroke-opacity:0.5;stroke-width:0.8;"/>
     </g>
     <g id="line2d_24">
      <g>
       <use style="stroke:#000000;stroke-width:0.8;" x="33.64" xlink:href="#md10f032c8c" y="104.970343"/>
      </g>
     </g>
     <g id="text_13">
      <text style="font-family:DejaVu Sans;font-size:10px;font-stretch:normal;font-style:normal;font-weight:normal;text-anchor:end;" transform="rotate(-0, 26.64, 108.769562)" x="26.64" y="108.769562">0.8</text>
     </g>
    </g>
    <g id="ytick_6">
     <g id="line2d_25">
      <path clip-path="url(#p19df9a2ec0)" d="M 33.64 42.317705 
L 493.2 42.317705 
" style="fill:none;stroke:#b0b0b0;stroke-dasharray:2.96,1.28;stroke-dashoffset:0;stroke-opacity:0.5;stroke-width:0.8;"/>
     </g>
     <g id="line2d_26">
      <g>
       <use style="stroke:#000000;stroke-width:0.8;" x="33.64" xlink:href="#md10f032c8c" y="42.317705"/>
      </g>
     </g>
     <g id="text_14">
      <text style="font-family:DejaVu Sans;font-size:10px;font-stretch:normal;font-style:normal;font-weight:normal;text-anchor:end;" transform="rotate(-0, 26.64, 46.116923)" x="26.64" y="46.116923">1.0</text>
     </g>
    </g>
   </g>
   <g id="line2d_27">
    <defs>
     <path d="M -3 3 
L 3 -3 
M -3 -3 
L 3 3 
" id="maafb792d18" style="stroke:#ff0000;"/>
    </defs>
    <g clip-path="url(#p19df9a2ec0)">
     <use style="fill:#ff0000;stroke:#ff0000;" x="95.386255" xlink:href="#maafb792d18" y="295.337976"/>
     <use style="fill:#ff0000;stroke:#ff0000;" x="237.001342" xlink:href="#maafb792d18" y="329.762503"/>
     <use style="fill:#ff0000;stroke:#ff0000;" x="261.377142" xlink:href="#maafb792d18" y="329.762503"/>
     <use style="fill:#ff0000;stroke:#ff0000;" x="269.133078" xlink:href="#maafb792d18" y="329.762503"/>
     <use style="fill:#ff0000;stroke:#ff0000;" x="351.609151" xlink:href="#maafb792d18" y="338.368634"/>
     <use style="fill:#ff0000;stroke:#ff0000;" x="376.746694" xlink:href="#maafb792d18" y="338.368634"/>
    </g>
   </g>
   <g id="line2d_28">
    <path clip-path="url(#p19df9a2ec0)" d="M 54.529091 42.317705 
L 55.152336 42.317705 
L 55.152336 46.333899 
L 55.290835 46.333899 
L 55.360084 58.382484 
L 56.052578 58.382484 
L 56.052578 66.414873 
L 56.606574 66.414873 
L 56.606574 70.431068 
L 56.952821 70.431068 
L 57.02207 82.479652 
L 57.783814 82.479652 
L 57.783814 86.495847 
L 58.060812 86.495847 
L 58.060812 90.512042 
L 58.822556 90.512042 
L 58.822556 94.528237 
L 59.030304 94.528237 
L 59.030304 98.544432 
L 59.584299 98.544432 
L 59.584299 102.560626 
L 60.138295 102.560626 
L 60.138295 106.576821 
L 60.276794 106.576821 
L 60.276794 110.593016 
L 60.415293 110.593016 
L 60.415293 114.609211 
L 60.623041 114.609211 
L 60.623041 118.625405 
L 60.830789 118.625405 
L 60.830789 122.6416 
L 60.969288 122.6416 
L 60.969288 126.657795 
L 61.246286 126.657795 
L 61.246286 130.67399 
L 61.523283 130.67399 
L 61.592533 138.706379 
L 62.215778 138.706379 
L 62.285027 146.738769 
L 62.839023 146.738769 
L 62.839023 150.754964 
L 63.462268 150.754964 
L 63.462268 154.771158 
L 63.739265 154.771158 
L 63.739265 158.787353 
L 63.877764 158.787353 
L 63.877764 162.803548 
L 64.085512 162.803548 
L 64.085512 166.819743 
L 64.43176 166.819743 
L 64.43176 170.835938 
L 64.708757 170.835938 
L 64.778007 178.868327 
L 64.916506 178.868327 
L 64.916506 186.900717 
L 65.055004 186.900717 
L 65.055004 190.916912 
L 65.678249 190.916912 
L 65.678249 194.933106 
L 65.816748 194.933106 
L 65.816748 198.949301 
L 66.162995 198.949301 
L 66.162995 202.965496 
L 66.439993 202.965496 
L 66.439993 206.981691 
L 66.647741 206.981691 
L 66.716991 215.01408 
L 67.409485 215.01408 
L 67.409485 219.030275 
L 67.617233 219.030275 
L 67.617233 223.04647 
L 68.309728 223.04647 
L 68.309728 227.062665 
L 69.27922 227.062665 
L 69.27922 231.078859 
L 69.833215 231.078859 
L 69.833215 235.095054 
L 70.802707 235.095054 
L 70.802707 239.111249 
L 71.218204 239.111249 
L 71.218204 243.127444 
L 71.495202 243.127444 
L 71.495202 247.143638 
L 72.049197 247.143638 
L 72.049197 251.159833 
L 72.187696 251.159833 
L 72.187696 255.176028 
L 72.741691 255.176028 
L 72.741691 259.192223 
L 73.018689 259.192223 
L 73.018689 263.208418 
L 75.026923 263.208418 
L 75.026923 271.240807 
L 75.788666 271.240807 
L 75.788666 275.257002 
L 75.996415 275.257002 
L 75.996415 283.289392 
L 80.22063 283.289392 
L 80.22063 287.305586 
L 82.090365 287.305586 
L 82.090365 291.321781 
L 90.538795 291.321781 
L 90.538795 295.337976 
L 104.52718 295.337976 
L 104.52718 299.641042 
L 110.69038 299.641042 
L 110.69038 303.944108 
L 112.767863 303.944108 
L 112.767863 308.247173 
L 116.645831 308.247173 
L 116.645831 312.550239 
L 118.654064 312.550239 
L 118.654064 316.853305 
L 179.108818 316.853305 
L 179.108818 321.156371 
L 181.463298 321.156371 
L 181.463298 325.459437 
L 204.800357 325.459437 
L 204.800357 329.762503 
L 347.800432 329.762503 
L 347.800432 338.368634 
L 376.746694 338.368634 
L 376.746694 338.368634 
" style="fill:none;stroke:#ff0000;stroke-linecap:square;stroke-width:1.5;"/>
   </g>
   <g id="line2d_29">
    <defs>
     <path d="M -3 3 
L 3 -3 
M -3 -3 
L 3 3 
" id="m975c150547" style="stroke:#0000ff;"/>
    </defs>
    <g clip-path="url(#p19df9a2ec0)">
     <use style="fill:#0000ff;stroke:#0000ff;" x="182.709788" xlink:href="#m975c150547" y="118.893152"/>
     <use style="fill:#0000ff;stroke:#0000ff;" x="184.579523" xlink:href="#m975c150547" y="118.893152"/>
     <use style="fill:#0000ff;stroke:#0000ff;" x="187.834246" xlink:href="#m975c150547" y="118.893152"/>
     <use style="fill:#0000ff;stroke:#0000ff;" x="193.651198" xlink:href="#m975c150547" y="118.893152"/>
     <use style="fill:#0000ff;stroke:#0000ff;" x="208.678325" xlink:href="#m975c150547" y="118.893152"/>
     <use style="fill:#0000ff;stroke:#0000ff;" x="218.373245" xlink:href="#m975c150547" y="127.054798"/>
     <use style="fill:#0000ff;stroke:#0000ff;" x="224.259447" xlink:href="#m975c150547" y="127.054798"/>
     <use style="fill:#0000ff;stroke:#0000ff;" x="226.26768" xlink:href="#m975c150547" y="127.054798"/>
     <use style="fill:#0000ff;stroke:#0000ff;" x="235.685603" xlink:href="#m975c150547" y="127.054798"/>
     <use style="fill:#0000ff;stroke:#0000ff;" x="245.519022" xlink:href="#m975c150547" y="127.054798"/>
     <use style="fill:#0000ff;stroke:#0000ff;" x="253.759704" xlink:href="#m975c150547" y="127.054798"/>
     <use style="fill:#0000ff;stroke:#0000ff;" x="263.177627" xlink:href="#m975c150547" y="127.054798"/>
     <use style="fill:#0000ff;stroke:#0000ff;" x="270.10257" xlink:href="#m975c150547" y="127.054798"/>
     <use style="fill:#0000ff;stroke:#0000ff;" x="280.697733" xlink:href="#m975c150547" y="127.054798"/>
     <use style="fill:#0000ff;stroke:#0000ff;" x="284.160205" xlink:href="#m975c150547" y="127.054798"/>
     <use style="fill:#0000ff;stroke:#0000ff;" x="316.638188" xlink:href="#m975c150547" y="127.054798"/>
     <use style="fill:#0000ff;stroke:#0000ff;" x="322.039643" xlink:href="#m975c150547" y="127.054798"/>
     <use style="fill:#0000ff;stroke:#0000ff;" x="330.765072" xlink:href="#m975c150547" y="127.054798"/>
     <use style="fill:#0000ff;stroke:#0000ff;" x="338.31326" xlink:href="#m975c150547" y="127.054798"/>
     <use style="fill:#0000ff;stroke:#0000ff;" x="344.060963" xlink:href="#m975c150547" y="127.054798"/>
     <use style="fill:#0000ff;stroke:#0000ff;" x="357.910849" xlink:href="#m975c150547" y="127.054798"/>
     <use style="fill:#0000ff;stroke:#0000ff;" x="383.256141" xlink:href="#m975c150547" y="127.054798"/>
     <use style="fill:#0000ff;stroke:#0000ff;" x="388.726846" xlink:href="#m975c150547" y="127.054798"/>
     <use style="fill:#0000ff;stroke:#0000ff;" x="389.904086" xlink:href="#m975c150547" y="127.054798"/>
     <use style="fill:#0000ff;stroke:#0000ff;" x="393.505056" xlink:href="#m975c150547" y="127.054798"/>
     <use style="fill:#0000ff;stroke:#0000ff;" x="398.491015" xlink:href="#m975c150547" y="127.054798"/>
     <use style="fill:#0000ff;stroke:#0000ff;" x="408.393684" xlink:href="#m975c150547" y="127.054798"/>
     <use style="fill:#0000ff;stroke:#0000ff;" x="425.221296" xlink:href="#m975c150547" y="127.054798"/>
     <use style="fill:#0000ff;stroke:#0000ff;" x="441.356413" xlink:href="#m975c150547" y="127.054798"/>
     <use style="fill:#0000ff;stroke:#0000ff;" x="455.483297" xlink:href="#m975c150547" y="127.054798"/>
     <use style="fill:#0000ff;stroke:#0000ff;" x="458.184025" xlink:href="#m975c150547" y="127.054798"/>
     <use style="fill:#0000ff;stroke:#0000ff;" x="459.499764" xlink:href="#m975c150547" y="127.054798"/>
    </g>
   </g>
   <g id="line2d_30">
    <path clip-path="url(#p19df9a2ec0)" d="M 54.529091 42.317705 
L 65.955247 42.317705 
L 65.955247 49.279109 
L 71.010456 49.279109 
L 71.010456 56.240513 
L 71.356703 56.240513 
L 71.356703 63.201917 
L 74.195929 63.201917 
L 74.195929 70.163322 
L 75.580918 70.163322 
L 75.580918 77.124726 
L 88.045816 77.124726 
L 88.045816 84.08613 
L 95.524754 84.08613 
L 95.524754 91.047535 
L 101.687954 91.047535 
L 101.687954 98.008939 
L 106.812411 98.008939 
L 106.812411 104.970343 
L 122.462783 104.970343 
L 122.462783 111.931747 
L 168.305906 111.931747 
L 168.305906 118.893152 
L 182.709788 118.893152 
L 182.709788 118.893152 
L 184.579523 118.893152 
L 184.579523 118.893152 
L 187.834246 118.893152 
L 187.834246 118.893152 
L 193.651198 118.893152 
L 193.651198 118.893152 
L 208.678325 118.893152 
L 208.678325 118.893152 
L 218.026998 118.893152 
L 218.026998 127.054798 
L 218.373245 127.054798 
L 218.373245 127.054798 
L 224.259447 127.054798 
L 224.259447 127.054798 
L 226.26768 127.054798 
L 226.26768 127.054798 
L 235.685603 127.054798 
L 235.685603 127.054798 
L 245.519022 127.054798 
L 245.519022 127.054798 
L 253.759704 127.054798 
L 253.759704 127.054798 
L 263.177627 127.054798 
L 263.177627 127.054798 
L 270.10257 127.054798 
L 270.10257 127.054798 
L 280.697733 127.054798 
L 280.697733 127.054798 
L 284.160205 127.054798 
L 284.160205 127.054798 
L 316.638188 127.054798 
L 316.638188 127.054798 
L 322.039643 127.054798 
L 322.039643 127.054798 
L 330.765072 127.054798 
L 330.765072 127.054798 
L 338.31326 127.054798 
L 338.31326 127.054798 
L 344.060963 127.054798 
L 344.060963 127.054798 
L 357.910849 127.054798 
L 357.910849 127.054798 
L 383.256141 127.054798 
L 383.256141 127.054798 
L 388.726846 127.054798 
L 388.726846 127.054798 
L 389.904086 127.054798 
L 389.904086 127.054798 
L 393.505056 127.054798 
L 393.505056 127.054798 
L 398.491015 127.054798 
L 398.491015 127.054798 
L 408.393684 127.054798 
L 408.393684 127.054798 
L 425.221296 127.054798 
L 425.221296 127.054798 
L 441.356413 127.054798 
L 441.356413 127.054798 
L 455.483297 127.054798 
L 455.483297 127.054798 
L 458.184025 127.054798 
L 458.184025 127.054798 
L 459.499764 127.054798 
L 459.499764 127.054798 
" style="fill:none;stroke:#0000ff;stroke-linecap:square;stroke-width:1.5;"/>
   </g>
   <g id="line2d_31">
    <defs>
     <path d="M -3 3 
L 3 -3 
M -3 -3 
L 3 3 
" id="m3bdd10c81f" style="stroke:#808080;"/>
    </defs>
    <g clip-path="url(#p19df9a2ec0)">
     <use style="fill:#808080;stroke:#808080;" x="59.861297" xlink:href="#m3bdd10c81f" y="86.563918"/>
     <use style="fill:#808080;stroke:#808080;" x="187.3495" xlink:href="#m3bdd10c81f" y="270.065566"/>
     <use style="fill:#808080;stroke:#808080;" x="189.703981" xlink:href="#m3bdd10c81f" y="271.885042"/>
     <use style="fill:#808080;stroke:#808080;" x="191.850713" xlink:href="#m3bdd10c81f" y="271.885042"/>
     <use style="fill:#808080;stroke:#808080;" x="198.983404" xlink:href="#m3bdd10c81f" y="273.78722"/>
     <use style="fill:#808080;stroke:#808080;" x="206.254595" xlink:href="#m3bdd10c81f" y="273.78722"/>
     <use style="fill:#808080;stroke:#808080;" x="208.262828" xlink:href="#m3bdd10c81f" y="275.782188"/>
     <use style="fill:#808080;stroke:#808080;" x="227.444921" xlink:href="#m3bdd10c81f" y="283.966671"/>
     <use style="fill:#808080;stroke:#808080;" x="232.153882" xlink:href="#m3bdd10c81f" y="283.966671"/>
     <use style="fill:#808080;stroke:#808080;" x="237.901585" xlink:href="#m3bdd10c81f" y="283.966671"/>
     <use style="fill:#808080;stroke:#808080;" x="241.156308" xlink:href="#m3bdd10c81f" y="283.966671"/>
     <use style="fill:#808080;stroke:#808080;" x="248.704496" xlink:href="#m3bdd10c81f" y="283.966671"/>
     <use style="fill:#808080;stroke:#808080;" x="252.859462" xlink:href="#m3bdd10c81f" y="286.353812"/>
     <use style="fill:#808080;stroke:#808080;" x="266.43235" xlink:href="#m3bdd10c81f" y="291.298604"/>
     <use style="fill:#808080;stroke:#808080;" x="269.133078" xlink:href="#m3bdd10c81f" y="291.298604"/>
     <use style="fill:#808080;stroke:#808080;" x="280.420735" xlink:href="#m3bdd10c81f" y="291.298604"/>
     <use style="fill:#808080;stroke:#808080;" x="289.838658" xlink:href="#m3bdd10c81f" y="291.298604"/>
     <use style="fill:#808080;stroke:#808080;" x="295.586361" xlink:href="#m3bdd10c81f" y="291.298604"/>
     <use style="fill:#808080;stroke:#808080;" x="302.234306" xlink:href="#m3bdd10c81f" y="291.298604"/>
     <use style="fill:#808080;stroke:#808080;" x="322.385891" xlink:href="#m3bdd10c81f" y="291.298604"/>
     <use style="fill:#808080;stroke:#808080;" x="330.626573" xlink:href="#m3bdd10c81f" y="291.298604"/>
     <use style="fill:#808080;stroke:#808080;" x="333.535049" xlink:href="#m3bdd10c81f" y="291.298604"/>
     <use style="fill:#808080;stroke:#808080;" x="333.673548" xlink:href="#m3bdd10c81f" y="291.298604"/>
     <use style="fill:#808080;stroke:#808080;" x="333.812047" xlink:href="#m3bdd10c81f" y="291.298604"/>
     <use style="fill:#808080;stroke:#808080;" x="333.881296" xlink:href="#m3bdd10c81f" y="291.298604"/>
     <use style="fill:#808080;stroke:#808080;" x="356.52586" xlink:href="#m3bdd10c81f" y="291.298604"/>
     <use style="fill:#808080;stroke:#808080;" x="359.503586" xlink:href="#m3bdd10c81f" y="291.298604"/>
     <use style="fill:#808080;stroke:#808080;" x="370.652744" xlink:href="#m3bdd10c81f" y="291.298604"/>
     <use style="fill:#808080;stroke:#808080;" x="374.738461" xlink:href="#m3bdd10c81f" y="291.298604"/>
     <use style="fill:#808080;stroke:#808080;" x="380.693912" xlink:href="#m3bdd10c81f" y="297.726833"/>
     <use style="fill:#808080;stroke:#808080;" x="391.566072" xlink:href="#m3bdd10c81f" y="297.726833"/>
     <use style="fill:#808080;stroke:#808080;" x="392.604814" xlink:href="#m3bdd10c81f" y="297.726833"/>
     <use style="fill:#808080;stroke:#808080;" x="405.069711" xlink:href="#m3bdd10c81f" y="297.726833"/>
     <use style="fill:#808080;stroke:#808080;" x="432.907983" xlink:href="#m3bdd10c81f" y="297.726833"/>
     <use style="fill:#808080;stroke:#808080;" x="445.926876" xlink:href="#m3bdd10c81f" y="297.726833"/>
     <use style="fill:#808080;stroke:#808080;" x="463.931728" xlink:href="#m3bdd10c81f" y="297.726833"/>
     <use style="fill:#808080;stroke:#808080;" x="464.347225" xlink:href="#m3bdd10c81f" y="297.726833"/>
     <use style="fill:#808080;stroke:#808080;" x="472.310909" xlink:href="#m3bdd10c81f" y="297.726833"/>
    </g>
   </g>
   <g id="line2d_32">
    <path clip-path="url(#p19df9a2ec0)" d="M 54.529091 42.317705 
L 55.083086 42.317705 
L 55.083086 44.087553 
L 55.360084 44.087553 
L 55.429334 49.397099 
L 55.498583 49.397099 
L 55.567832 52.936796 
L 55.775581 52.936796 
L 55.775581 54.706644 
L 55.91408 54.706644 
L 55.983329 58.246341 
L 56.052578 58.246341 
L 56.052578 61.786039 
L 56.191077 61.786039 
L 56.191077 63.555887 
L 56.329576 63.555887 
L 56.398826 68.865433 
L 56.537324 68.865433 
L 56.537324 70.635281 
L 56.883572 70.635281 
L 56.883572 72.40513 
L 57.02207 72.40513 
L 57.09132 75.944827 
L 58.33781 75.944827 
L 58.33781 77.714676 
L 59.307302 77.714676 
L 59.307302 79.484524 
L 59.51505 79.484524 
L 59.51505 81.254373 
L 59.722798 81.254373 
L 59.722798 84.79407 
L 59.861297 84.79407 
L 59.861297 86.563918 
L 60.138295 86.563918 
L 60.138295 88.345488 
L 60.553791 88.345488 
L 60.553791 90.127057 
L 61.592533 90.127057 
L 61.592533 91.908626 
L 61.731032 91.908626 
L 61.731032 93.690196 
L 62.008029 93.690196 
L 62.008029 95.471765 
L 62.146528 95.471765 
L 62.215778 99.034904 
L 63.046771 99.034904 
L 63.046771 100.816473 
L 63.323769 100.816473 
L 63.323769 102.598043 
L 63.877764 102.598043 
L 63.947014 106.161182 
L 64.016263 106.161182 
L 64.016263 107.942751 
L 64.570258 107.942751 
L 64.570258 109.72432 
L 64.778007 109.72432 
L 64.778007 111.50589 
L 65.055004 111.50589 
L 65.055004 113.287459 
L 65.193503 113.287459 
L 65.193503 115.069029 
L 65.470501 115.069029 
L 65.470501 116.850598 
L 66.093746 116.850598 
L 66.093746 118.632167 
L 68.309728 118.632167 
L 68.309728 120.413737 
L 68.863723 120.413737 
L 68.932973 127.540014 
L 69.071471 127.540014 
L 69.071471 129.321584 
L 69.27922 129.321584 
L 69.27922 131.103153 
L 69.763966 131.103153 
L 69.763966 132.884723 
L 70.733458 132.884723 
L 70.733458 134.666292 
L 70.871957 134.666292 
L 70.941206 138.229431 
L 71.010456 138.229431 
L 71.010456 140.011 
L 71.218204 140.011 
L 71.218204 141.79257 
L 71.772199 141.79257 
L 71.772199 143.574139 
L 71.910698 143.574139 
L 71.979948 147.137278 
L 72.810941 147.137278 
L 72.810941 148.918847 
L 73.572684 148.918847 
L 73.572684 150.700417 
L 74.334428 150.700417 
L 74.334428 152.481986 
L 74.680675 152.481986 
L 74.680675 154.263555 
L 75.096172 154.263555 
L 75.096172 156.045125 
L 75.30392 156.045125 
L 75.30392 159.608264 
L 75.442419 159.608264 
L 75.442419 163.171402 
L 75.996415 163.171402 
L 75.996415 164.952972 
L 76.55041 164.952972 
L 76.55041 170.29768 
L 76.758158 170.29768 
L 76.827408 173.860819 
L 77.242904 173.860819 
L 77.242904 177.423958 
L 77.935399 177.423958 
L 77.935399 179.205527 
L 78.143147 179.205527 
L 78.143147 180.987096 
L 79.251138 180.987096 
L 79.320387 184.550235 
L 79.528136 184.550235 
L 79.528136 186.331805 
L 79.735884 186.331805 
L 79.735884 188.113374 
L 80.082131 188.113374 
L 80.082131 189.894943 
L 81.813367 189.894943 
L 81.813367 191.676513 
L 82.021115 191.676513 
L 82.021115 193.458082 
L 82.228863 193.458082 
L 82.228863 195.239652 
L 82.436612 195.239652 
L 82.436612 197.021221 
L 84.029349 197.021221 
L 84.029349 198.80279 
L 84.514095 198.80279 
L 84.514095 200.58436 
L 85.137339 200.58436 
L 85.206589 204.147499 
L 85.414337 204.147499 
L 85.414337 205.929068 
L 85.552836 205.929068 
L 85.552836 207.710637 
L 86.31458 207.710637 
L 86.31458 209.492207 
L 88.045816 209.492207 
L 88.045816 211.273776 
L 88.322813 211.273776 
L 88.392063 214.836915 
L 88.599811 214.836915 
L 88.66906 220.181623 
L 89.084557 220.181623 
L 89.084557 221.963193 
L 89.777051 221.963193 
L 89.777051 223.744762 
L 90.469546 223.744762 
L 90.469546 225.526331 
L 91.508287 225.526331 
L 91.508287 227.307901 
L 96.217248 227.307901 
L 96.217248 229.08947 
L 98.779477 229.08947 
L 98.779477 230.87104 
L 99.194974 230.87104 
L 99.194974 232.652609 
L 100.233715 232.652609 
L 100.233715 234.434178 
L 101.618704 234.434178 
L 101.618704 236.215748 
L 101.826452 236.215748 
L 101.826452 237.997317 
L 103.488439 237.997317 
L 103.488439 239.778887 
L 108.128151 239.778887 
L 108.128151 241.560456 
L 110.274883 241.560456 
L 110.274883 243.342025 
L 111.86762 243.342025 
L 111.86762 245.123595 
L 112.629364 245.123595 
L 112.629364 246.905164 
L 113.183359 246.905164 
L 113.183359 248.686734 
L 114.152851 248.686734 
L 114.152851 250.468303 
L 121.008545 250.468303 
L 121.008545 252.249872 
L 129.803223 252.249872 
L 129.803223 254.031442 
L 130.772715 254.031442 
L 130.772715 255.813011 
L 131.118962 255.813011 
L 131.118962 257.594581 
L 137.351411 257.594581 
L 137.351411 259.37615 
L 138.5979 259.37615 
L 138.5979 261.157719 
L 150.231805 261.157719 
L 150.231805 262.939289 
L 151.201297 262.939289 
L 151.201297 264.720858 
L 156.118006 264.720858 
L 156.118006 266.502428 
L 162.9737 266.502428 
L 162.9737 268.283997 
L 165.743677 268.283997 
L 165.743677 270.065566 
L 187.557248 270.065566 
L 187.557248 271.885042 
L 198.221661 271.885042 
L 198.221661 273.78722 
L 207.362585 273.78722 
L 207.362585 275.782188 
L 209.024572 275.782188 
L 209.024572 277.828309 
L 209.509318 277.828309 
L 209.509318 279.874429 
L 215.257021 279.874429 
L 215.257021 281.92055 
L 218.165497 281.92055 
L 218.165497 283.966671 
L 249.46624 283.966671 
L 249.46624 286.353812 
L 258.122419 286.353812 
L 258.122419 288.826208 
L 265.878355 288.826208 
L 265.878355 291.298604 
L 377.716186 291.298604 
L 377.716186 297.726833 
L 472.310909 297.726833 
L 472.310909 297.726833 
" style="fill:none;stroke:#808080;stroke-linecap:square;stroke-width:1.5;"/>
   </g>
   <g id="patch_3">
    <path d="M 33.64 366.5095 
L 33.64 26.88 
" style="fill:none;stroke:#000000;stroke-linecap:square;stroke-linejoin:miter;stroke-width:0.8;"/>
   </g>
   <g id="patch_4">
    <path d="M 493.2 366.5095 
L 493.2 26.88 
" style="fill:none;stroke:#000000;stroke-linecap:square;stroke-linejoin:miter;stroke-width:0.8;"/>
   </g>
   <g id="patch_5">
    <path d="M 33.64 366.5095 
L 493.2 366.5095 
" style="fill:none;stroke:#000000;stroke-linecap:square;stroke-linejoin:miter;stroke-width:0.8;"/>
   </g>
   <g id="patch_6">
    <path d="M 33.64 26.88 
L 493.2 26.88 
" style="fill:none;stroke:#000000;stroke-linecap:square;stroke-linejoin:miter;stroke-width:0.8;"/>
   </g>
   <g id="text_15">
    <text style="font-family:DejaVu Sans;font-size:12px;font-stretch:normal;font-style:normal;font-weight:normal;text-anchor:middle;" transform="rotate(-0, 263.42, 20.88)" x="263.42" y="20.88">Survival curves - model_type: ridge_cph_lifelines</text>
   </g>
   <g id="legend_1">
    <g id="patch_7">
     <path d="M 349.195312 78.914375 
L 486.2 78.914375 
Q 488.2 78.914375 488.2 76.914375 
L 488.2 33.88 
Q 488.2 31.88 486.2 31.88 
L 349.195312 31.88 
Q 347.195312 31.88 347.195312 33.88 
L 347.195312 76.914375 
Q 347.195312 78.914375 349.195312 78.914375 
z
" style="fill:#ffffff;opacity:0.8;stroke:#cccccc;stroke-linejoin:miter;"/>
    </g>
    <g id="line2d_33">
     <path d="M 351.195312 39.978437 
L 371.195312 39.978437 
" style="fill:none;stroke:#ff0000;stroke-linecap:square;stroke-width:1.5;"/>
    </g>
    <g id="line2d_34"/>
    <g id="text_16">
     <text style="font-family:DejaVu Sans;font-size:10px;font-stretch:normal;font-style:normal;font-weight:normal;text-anchor:start;" transform="rotate(-0, 379.195312, 43.478437)" x="379.195312" y="43.478437">adv. risk (n:78 c:6 )</text>
    </g>
    <g id="line2d_35">
     <path d="M 351.195312 54.656563 
L 371.195312 54.656563 
" style="fill:none;stroke:#0000ff;stroke-linecap:square;stroke-width:1.5;"/>
    </g>
    <g id="line2d_36"/>
    <g id="text_17">
     <text style="font-family:DejaVu Sans;font-size:10px;font-stretch:normal;font-style:normal;font-weight:normal;text-anchor:start;" transform="rotate(-0, 379.195312, 58.156563)" x="379.195312" y="58.156563">fav. risk (n:45 c:33)</text>
    </g>
    <g id="line2d_37">
     <path d="M 351.195312 69.334687 
L 371.195312 69.334687 
" style="fill:none;stroke:#808080;stroke-linecap:square;stroke-width:1.5;"/>
    </g>
    <g id="line2d_38"/>
    <g id="text_18">
     <text style="font-family:DejaVu Sans;font-size:10px;font-stretch:normal;font-style:normal;font-weight:normal;text-anchor:start;" transform="rotate(-0, 379.195312, 72.834687)" x="379.195312" y="72.834687">int. risk (n:177 c:38 )</text>
    </g>
   </g>
  </g>
 </g>
 <defs>
  <clipPath id="p19df9a2ec0">
   <rect height="339.6295" width="459.56" x="33.64" y="26.88"/>
  </clipPath>
 </defs>
</svg>
