<?xml version="1.0" encoding="utf-8" standalone="no"?>
<!DOCTYPE svg PUBLIC "-//W3C//DTD SVG 1.1//EN"
  "http://www.w3.org/Graphics/SVG/1.1/DTD/svg11.dtd">
<!-- Created with matplotlib (https://matplotlib.org/) -->
<svg height="432pt" version="1.1" viewBox="0 0 504 432" width="504pt" xmlns="http://www.w3.org/2000/svg" xmlns:xlink="http://www.w3.org/1999/xlink">
 <metadata>
  <rdf:RDF xmlns:cc="http://creativecommons.org/ns#" xmlns:dc="http://purl.org/dc/elements/1.1/" xmlns:rdf="http://www.w3.org/1999/02/22-rdf-syntax-ns#">
   <cc:Work>
    <dc:type rdf:resource="http://purl.org/dc/dcmitype/StillImage"/>
    <dc:date>2022-10-27T18:02:15.644406</dc:date>
    <dc:format>image/svg+xml</dc:format>
    <dc:creator>
     <cc:Agent>
      <dc:title>Matplotlib v3.3.4, https://matplotlib.org/</dc:title>
     </cc:Agent>
    </dc:creator>
   </cc:Work>
  </rdf:RDF>
 </metadata>
 <defs>
  <style type="text/css">*{stroke-linecap:butt;stroke-linejoin:round;}</style>
 </defs>
 <g id="figure_1">
  <g id="patch_1">
   <path d="M 0 432 
L 504 432 
L 504 0 
L 0 0 
z
" style="fill:#ffffff;"/>
  </g>
  <g id="axes_1">
   <g id="patch_2">
    <path d="M 33.64 366.5095 
L 493.2 366.5095 
L 493.2 26.88 
L 33.64 26.88 
z
" style="fill:#ffffff;"/>
   </g>
   <g id="PolyCollection_1">
    <defs>
     <path d="M 54.529091 -389.682295 
L 54.529091 -389.682295 
L 55.290835 -389.682295 
L 55.290835 -362.656101 
L 55.498583 -362.656101 
L 55.498583 -359.222652 
L 55.567832 -359.222652 
L 55.567832 -354.326524 
L 55.775581 -354.326524 
L 55.775581 -349.270897 
L 55.91408 -349.270897 
L 55.91408 -344.243842 
L 55.983329 -344.243842 
L 55.983329 -339.285032 
L 56.052578 -339.285032 
L 56.052578 -329.588339 
L 56.952821 -329.588339 
L 56.952821 -324.842672 
L 57.02207 -324.842672 
L 57.02207 -315.530649 
L 57.783814 -315.530649 
L 57.783814 -310.954909 
L 58.060812 -310.954909 
L 58.060812 -306.427345 
L 58.33781 -306.427345 
L 58.33781 -301.944595 
L 58.822556 -301.944595 
L 58.822556 -297.503733 
L 59.722798 -297.503733 
L 59.722798 -288.737801 
L 59.861297 -288.737801 
L 59.861297 -284.408556 
L 60.276794 -284.408556 
L 60.276794 -280.112759 
L 60.415293 -280.112759 
L 60.415293 -275.848897 
L 60.553791 -275.848897 
L 60.553791 -271.615636 
L 60.623041 -271.615636 
L 60.623041 -267.411792 
L 60.830789 -267.411792 
L 60.830789 -263.236314 
L 60.969288 -263.236314 
L 60.969288 -259.088271 
L 61.246286 -259.088271 
L 61.246286 -254.966837 
L 62.146528 -254.966837 
L 62.146528 -250.871276 
L 62.215778 -250.871276 
L 62.215778 -246.800939 
L 62.285027 -246.800939 
L 62.285027 -242.755251 
L 63.046771 -242.755251 
L 63.046771 -238.733706 
L 63.323769 -238.733706 
L 63.323769 -234.735861 
L 63.739265 -234.735861 
L 63.739265 -230.761333 
L 63.877764 -230.761333 
L 63.877764 -222.880953 
L 63.947014 -222.880953 
L 63.947014 -218.974591 
L 64.016263 -218.974591 
L 64.016263 -215.090517 
L 64.43176 -215.090517 
L 64.43176 -211.22859 
L 64.708757 -211.22859 
L 64.708757 -207.388709 
L 64.778007 -207.388709 
L 64.778007 -203.570817 
L 65.055004 -203.570817 
L 65.055004 -196.00097 
L 65.193503 -196.00097 
L 65.193503 -192.249103 
L 65.678249 -192.249103 
L 65.678249 -188.5194 
L 66.162995 -188.5194 
L 66.162995 -184.81201 
L 66.647741 -184.81201 
L 66.647741 -181.127124 
L 68.932973 -181.127124 
L 68.932973 -177.464981 
L 69.763966 -177.464981 
L 69.763966 -173.825864 
L 70.733458 -173.825864 
L 70.733458 -170.210109 
L 70.802707 -170.210109 
L 70.802707 -166.618106 
L 70.871957 -166.618106 
L 70.871957 -163.050302 
L 70.941206 -163.050302 
L 70.941206 -159.507208 
L 71.010456 -159.507208 
L 71.010456 -155.989401 
L 71.218204 -155.989401 
L 71.218204 -152.497537 
L 71.495202 -152.497537 
L 71.495202 -149.032353 
L 72.187696 -149.032353 
L 72.187696 -145.59468 
L 74.334428 -145.59468 
L 74.334428 -142.185455 
L 75.442419 -142.185455 
L 75.442419 -138.805731 
L 75.788666 -138.805731 
L 75.788666 -135.4567 
L 77.242904 -135.4567 
L 77.242904 -132.139707 
L 79.320387 -132.139707 
L 79.320387 -128.856279 
L 81.813367 -128.856279 
L 81.813367 -125.608154 
L 82.021115 -125.608154 
L 82.021115 -122.39732 
L 84.029349 -122.39732 
L 84.029349 -119.226061 
L 84.514095 -119.226061 
L 84.514095 -116.097022 
L 85.414337 -116.097022 
L 85.414337 -113.013282 
L 88.599811 -113.013282 
L 88.599811 -109.978463 
L 99.194974 -109.978463 
L 99.194974 -106.996862 
L 108.128151 -106.996862 
L 108.128151 -104.073643 
L 110.274883 -104.073643 
L 110.274883 -101.21509 
L 111.86762 -101.21509 
L 111.86762 -98.428985 
L 116.645831 -98.428985 
L 116.645831 -95.725146 
L 150.231805 -95.725146 
L 150.231805 -93.116267 
L 206.254595 -93.116267 
L 206.254595 -93.116267 
L 209.024572 -93.116267 
L 209.024572 -90.070333 
L 248.704496 -90.070333 
L 248.704496 -90.070333 
L 266.43235 -90.070333 
L 266.43235 -90.070333 
L 269.133078 -90.070333 
L 269.133078 -90.070333 
L 347.800432 -90.070333 
L 347.800432 -80.928205 
L 347.800432 -80.928205 
L 347.800432 -80.928205 
L 347.800432 -126.626067 
L 269.133078 -126.626067 
L 269.133078 -126.626067 
L 266.43235 -126.626067 
L 266.43235 -126.626067 
L 248.704496 -126.626067 
L 248.704496 -126.626067 
L 209.024572 -126.626067 
L 209.024572 -132.056713 
L 206.254595 -132.056713 
L 206.254595 -132.056713 
L 150.231805 -132.056713 
L 150.231805 -136.941481 
L 116.645831 -136.941481 
L 116.645831 -141.743809 
L 111.86762 -141.743809 
L 111.86762 -146.474114 
L 110.274883 -146.474114 
L 110.274883 -151.140571 
L 108.128151 -151.140571 
L 108.128151 -155.749723 
L 99.194974 -155.749723 
L 99.194974 -160.306898 
L 88.599811 -160.306898 
L 88.599811 -164.816492 
L 85.414337 -164.816492 
L 85.414337 -169.282184 
L 84.514095 -169.282184 
L 84.514095 -173.70708 
L 84.029349 -173.70708 
L 84.029349 -178.093829 
L 82.021115 -178.093829 
L 82.021115 -182.444708 
L 81.813367 -182.444708 
L 81.813367 -186.761688 
L 79.320387 -186.761688 
L 79.320387 -191.046483 
L 77.242904 -191.046483 
L 77.242904 -195.300593 
L 75.788666 -195.300593 
L 75.788666 -199.525333 
L 75.442419 -199.525333 
L 75.442419 -203.721864 
L 74.334428 -203.721864 
L 74.334428 -207.891207 
L 72.187696 -207.891207 
L 72.187696 -212.034268 
L 71.495202 -212.034268 
L 71.495202 -216.151848 
L 71.218204 -216.151848 
L 71.218204 -220.244654 
L 71.010456 -220.244654 
L 71.010456 -224.313312 
L 70.941206 -224.313312 
L 70.941206 -228.358373 
L 70.871957 -228.358373 
L 70.871957 -232.380322 
L 70.802707 -232.380322 
L 70.802707 -236.37958 
L 70.733458 -236.37958 
L 70.733458 -240.356515 
L 69.763966 -240.356515 
L 69.763966 -244.311438 
L 68.932973 -244.311438 
L 68.932973 -248.244614 
L 66.647741 -248.244614 
L 66.647741 -252.156261 
L 66.162995 -252.156261 
L 66.162995 -256.046553 
L 65.678249 -256.046553 
L 65.678249 -259.915621 
L 65.193503 -259.915621 
L 65.193503 -263.763555 
L 65.055004 -263.763555 
L 65.055004 -271.396182 
L 64.778007 -271.396182 
L 64.778007 -275.180856 
L 64.708757 -275.180856 
L 64.708757 -278.944358 
L 64.43176 -278.944358 
L 64.43176 -282.68658 
L 64.016263 -282.68658 
L 64.016263 -286.40737 
L 63.947014 -286.40737 
L 63.947014 -290.106536 
L 63.877764 -290.106536 
L 63.877764 -297.438996 
L 63.739265 -297.438996 
L 63.739265 -301.07167 
L 63.323769 -301.07167 
L 63.323769 -304.681475 
L 63.046771 -304.681475 
L 63.046771 -308.267964 
L 62.285027 -308.267964 
L 62.285027 -311.830629 
L 62.215778 -311.830629 
L 62.215778 -315.368893 
L 62.146528 -315.368893 
L 62.146528 -318.882105 
L 61.246286 -318.882105 
L 61.246286 -322.369526 
L 60.969288 -322.369526 
L 60.969288 -325.830325 
L 60.830789 -325.830325 
L 60.830789 -329.263565 
L 60.623041 -329.263565 
L 60.623041 -332.668185 
L 60.553791 -332.668185 
L 60.553791 -336.042985 
L 60.415293 -336.042985 
L 60.415293 -339.386606 
L 60.276794 -339.386606 
L 60.276794 -342.697497 
L 59.861297 -342.697497 
L 59.861297 -345.973889 
L 59.722798 -345.973889 
L 59.722798 -352.414714 
L 58.822556 -352.414714 
L 58.822556 -355.574055 
L 58.33781 -355.574055 
L 58.33781 -358.688552 
L 58.060812 -358.688552 
L 58.060812 -361.75439 
L 57.783814 -361.75439 
L 57.783814 -364.766996 
L 57.02207 -364.766996 
L 57.02207 -370.608951 
L 56.952821 -370.608951 
L 56.952821 -373.422767 
L 56.052578 -373.422767 
L 56.052578 -378.77903 
L 55.983329 -378.77903 
L 55.983329 -381.286092 
L 55.91408 -381.286092 
L 55.91408 -383.642439 
L 55.775581 -383.642439 
L 55.775581 -385.801582 
L 55.567832 -385.801582 
L 55.567832 -387.683082 
L 55.498583 -387.683082 
L 55.498583 -389.121616 
L 55.290835 -389.121616 
L 55.290835 -389.682295 
L 54.529091 -389.682295 
z
" id="mf720f4ecbc" style="stroke:#ff0000;stroke-opacity:0.25;"/>
    </defs>
    <g clip-path="url(#pb525054f92)">
     <use style="fill:#ff0000;fill-opacity:0.25;stroke:#ff0000;stroke-opacity:0.25;" x="0" xlink:href="#mf720f4ecbc" y="432"/>
    </g>
   </g>
   <g id="PolyCollection_2">
    <defs>
     <path d="M 54.529091 -389.682295 
L 54.529091 -389.682295 
L 55.360084 -389.682295 
L 55.360084 -344.151354 
L 59.51505 -344.151354 
L 59.51505 -338.357461 
L 75.30392 -338.357461 
L 75.30392 -330.208997 
L 75.580918 -330.208997 
L 75.580918 -321.838936 
L 86.31458 -321.838936 
L 86.31458 -313.552427 
L 88.045816 -313.552427 
L 88.045816 -305.411739 
L 89.084557 -305.411739 
L 89.084557 -297.425142 
L 100.233715 -297.425142 
L 100.233715 -289.586707 
L 106.812411 -289.586707 
L 106.812411 -281.887116 
L 121.008545 -281.887116 
L 121.008545 -274.316949 
L 122.462783 -274.316949 
L 122.462783 -266.867683 
L 129.803223 -266.867683 
L 129.803223 -259.531921 
L 179.108818 -259.531921 
L 179.108818 -252.303368 
L 181.463298 -252.303368 
L 181.463298 -245.176725 
L 182.709788 -245.176725 
L 182.709788 -245.176725 
L 184.579523 -245.176725 
L 184.579523 -245.176725 
L 193.651198 -245.176725 
L 193.651198 -245.176725 
L 208.678325 -245.176725 
L 208.678325 -245.176725 
L 209.509318 -245.176725 
L 209.509318 -236.675852 
L 218.026998 -236.675852 
L 218.026998 -228.373319 
L 218.373245 -228.373319 
L 218.373245 -228.373319 
L 224.259447 -228.373319 
L 224.259447 -228.373319 
L 226.26768 -228.373319 
L 226.26768 -228.373319 
L 232.153882 -228.373319 
L 232.153882 -228.373319 
L 235.685603 -228.373319 
L 235.685603 -228.373319 
L 245.519022 -228.373319 
L 245.519022 -228.373319 
L 261.377142 -228.373319 
L 261.377142 -228.373319 
L 263.177627 -228.373319 
L 263.177627 -228.373319 
L 289.838658 -228.373319 
L 289.838658 -228.373319 
L 316.638188 -228.373319 
L 316.638188 -228.373319 
L 322.039643 -228.373319 
L 322.039643 -228.373319 
L 330.765072 -228.373319 
L 330.765072 -228.373319 
L 333.812047 -228.373319 
L 333.812047 -228.373319 
L 338.31326 -228.373319 
L 338.31326 -228.373319 
L 344.060963 -228.373319 
L 344.060963 -228.373319 
L 357.910849 -228.373319 
L 357.910849 -228.373319 
L 359.503586 -228.373319 
L 359.503586 -228.373319 
L 370.652744 -228.373319 
L 370.652744 -228.373319 
L 389.904086 -228.373319 
L 389.904086 -228.373319 
L 398.491015 -228.373319 
L 398.491015 -228.373319 
L 408.393684 -228.373319 
L 408.393684 -228.373319 
L 425.221296 -228.373319 
L 425.221296 -228.373319 
L 441.356413 -228.373319 
L 441.356413 -228.373319 
L 455.483297 -228.373319 
L 455.483297 -228.373319 
L 455.483297 -315.791098 
L 455.483297 -315.791098 
L 455.483297 -315.791098 
L 441.356413 -315.791098 
L 441.356413 -315.791098 
L 425.221296 -315.791098 
L 425.221296 -315.791098 
L 408.393684 -315.791098 
L 408.393684 -315.791098 
L 398.491015 -315.791098 
L 398.491015 -315.791098 
L 389.904086 -315.791098 
L 389.904086 -315.791098 
L 370.652744 -315.791098 
L 370.652744 -315.791098 
L 359.503586 -315.791098 
L 359.503586 -315.791098 
L 357.910849 -315.791098 
L 357.910849 -315.791098 
L 344.060963 -315.791098 
L 344.060963 -315.791098 
L 338.31326 -315.791098 
L 338.31326 -315.791098 
L 333.812047 -315.791098 
L 333.812047 -315.791098 
L 330.765072 -315.791098 
L 330.765072 -315.791098 
L 322.039643 -315.791098 
L 322.039643 -315.791098 
L 316.638188 -315.791098 
L 316.638188 -315.791098 
L 289.838658 -315.791098 
L 289.838658 -315.791098 
L 263.177627 -315.791098 
L 263.177627 -315.791098 
L 261.377142 -315.791098 
L 261.377142 -315.791098 
L 245.519022 -315.791098 
L 245.519022 -315.791098 
L 235.685603 -315.791098 
L 235.685603 -315.791098 
L 232.153882 -315.791098 
L 232.153882 -315.791098 
L 226.26768 -315.791098 
L 226.26768 -315.791098 
L 224.259447 -315.791098 
L 224.259447 -315.791098 
L 218.373245 -315.791098 
L 218.373245 -315.791098 
L 218.026998 -315.791098 
L 218.026998 -322.314195 
L 209.509318 -322.314195 
L 209.509318 -328.697122 
L 208.678325 -328.697122 
L 208.678325 -328.697122 
L 193.651198 -328.697122 
L 193.651198 -328.697122 
L 184.579523 -328.697122 
L 184.579523 -328.697122 
L 182.709788 -328.697122 
L 182.709788 -328.697122 
L 181.463298 -328.697122 
L 181.463298 -334.362647 
L 179.108818 -334.362647 
L 179.108818 -339.922134 
L 129.803223 -339.922134 
L 129.803223 -345.368151 
L 122.462783 -345.368151 
L 122.462783 -350.691469 
L 121.008545 -350.691469 
L 121.008545 -355.880502 
L 106.812411 -355.880502 
L 106.812411 -360.920483 
L 100.233715 -360.920483 
L 100.233715 -365.792193 
L 89.084557 -365.792193 
L 89.084557 -370.469937 
L 88.045816 -370.469937 
L 88.045816 -374.9181 
L 86.31458 -374.9181 
L 86.31458 -379.084849 
L 75.580918 -379.084849 
L 75.580918 -382.889381 
L 75.30392 -382.889381 
L 75.30392 -386.192048 
L 59.51505 -386.192048 
L 59.51505 -388.706488 
L 55.360084 -388.706488 
L 55.360084 -389.682295 
L 54.529091 -389.682295 
z
" id="mfb8f2f31ab" style="stroke:#0000ff;stroke-opacity:0.25;"/>
    </defs>
    <g clip-path="url(#pb525054f92)">
     <use style="fill:#0000ff;fill-opacity:0.25;stroke:#0000ff;stroke-opacity:0.25;" x="0" xlink:href="#mfb8f2f31ab" y="432"/>
    </g>
   </g>
   <g id="PolyCollection_3">
    <defs>
     <path d="M 54.529091 -389.682295 
L 54.529091 -389.682295 
L 55.083086 -389.682295 
L 55.083086 -377.51015 
L 55.152336 -377.51015 
L 55.152336 -375.967193 
L 55.360084 -375.967193 
L 55.360084 -369.140674 
L 55.429334 -369.140674 
L 55.429334 -366.867643 
L 56.052578 -366.867643 
L 56.052578 -362.406531 
L 56.191077 -362.406531 
L 56.191077 -360.215559 
L 56.329576 -360.215559 
L 56.329576 -358.048082 
L 56.398826 -358.048082 
L 56.398826 -353.775443 
L 56.537324 -353.775443 
L 56.537324 -351.666741 
L 56.606574 -351.666741 
L 56.606574 -349.574448 
L 56.883572 -349.574448 
L 56.883572 -347.497293 
L 57.02207 -347.497293 
L 57.02207 -345.434164 
L 57.09132 -345.434164 
L 57.09132 -343.384081 
L 59.030304 -343.384081 
L 59.030304 -341.346179 
L 59.307302 -341.346179 
L 59.307302 -339.319692 
L 59.584299 -339.319692 
L 59.584299 -337.303935 
L 59.861297 -337.303935 
L 59.861297 -337.303935 
L 60.138295 -337.303935 
L 60.138295 -333.269663 
L 61.523283 -333.269663 
L 61.523283 -331.266931 
L 61.592533 -331.266931 
L 61.592533 -327.287847 
L 61.731032 -327.287847 
L 61.731032 -325.310661 
L 62.008029 -325.310661 
L 62.008029 -323.341217 
L 62.215778 -323.341217 
L 62.215778 -321.379186 
L 62.839023 -321.379186 
L 62.839023 -319.424265 
L 63.462268 -319.424265 
L 63.462268 -317.476177 
L 64.085512 -317.476177 
L 64.085512 -315.534663 
L 64.570258 -315.534663 
L 64.570258 -313.599489 
L 64.778007 -313.599489 
L 64.778007 -311.670436 
L 64.916506 -311.670436 
L 64.916506 -307.829892 
L 65.470501 -307.829892 
L 65.470501 -305.918038 
L 65.816748 -305.918038 
L 65.816748 -304.011574 
L 65.955247 -304.011574 
L 65.955247 -302.110347 
L 66.093746 -302.110347 
L 66.093746 -300.214213 
L 66.439993 -300.214213 
L 66.439993 -298.32304 
L 66.716991 -298.32304 
L 66.716991 -296.436702 
L 67.409485 -296.436702 
L 67.409485 -294.555081 
L 67.617233 -294.555081 
L 67.617233 -292.678067 
L 68.309728 -292.678067 
L 68.309728 -288.937447 
L 68.863723 -288.937447 
L 68.863723 -287.073651 
L 68.932973 -287.073651 
L 68.932973 -283.358652 
L 69.071471 -283.358652 
L 69.071471 -281.507289 
L 69.27922 -281.507289 
L 69.27922 -277.816469 
L 69.833215 -277.816469 
L 69.833215 -275.976877 
L 71.010456 -275.976877 
L 71.010456 -274.14108 
L 71.218204 -274.14108 
L 71.218204 -272.309019 
L 71.356703 -272.309019 
L 71.356703 -270.48064 
L 71.772199 -270.48064 
L 71.772199 -268.655888 
L 71.910698 -268.655888 
L 71.910698 -266.834715 
L 71.979948 -266.834715 
L 71.979948 -265.017073 
L 72.049197 -265.017073 
L 72.049197 -263.202918 
L 72.741691 -263.202918 
L 72.741691 -261.392208 
L 72.810941 -261.392208 
L 72.810941 -259.584902 
L 73.018689 -259.584902 
L 73.018689 -257.780964 
L 73.572684 -257.780964 
L 73.572684 -255.980358 
L 74.195929 -255.980358 
L 74.195929 -254.183049 
L 74.680675 -254.183049 
L 74.680675 -252.389007 
L 75.026923 -252.389007 
L 75.026923 -248.810604 
L 75.096172 -248.810604 
L 75.096172 -247.026189 
L 75.30392 -247.026189 
L 75.30392 -245.244931 
L 75.442419 -245.244931 
L 75.442419 -243.466807 
L 75.996415 -243.466807 
L 75.996415 -238.15103 
L 76.55041 -238.15103 
L 76.55041 -232.862766 
L 76.758158 -232.862766 
L 76.758158 -231.106053 
L 76.827408 -231.106053 
L 76.827408 -229.352341 
L 77.242904 -229.352341 
L 77.242904 -227.601617 
L 77.935399 -227.601617 
L 77.935399 -225.853873 
L 78.143147 -225.853873 
L 78.143147 -224.109099 
L 79.251138 -224.109099 
L 79.251138 -222.367289 
L 79.528136 -222.367289 
L 79.528136 -220.628436 
L 79.735884 -220.628436 
L 79.735884 -218.892535 
L 80.082131 -218.892535 
L 80.082131 -217.159583 
L 80.22063 -217.159583 
L 80.22063 -215.429576 
L 82.090365 -215.429576 
L 82.090365 -213.702514 
L 82.228863 -213.702514 
L 82.228863 -211.978395 
L 82.436612 -211.978395 
L 82.436612 -210.257221 
L 85.137339 -210.257221 
L 85.137339 -208.538992 
L 85.206589 -208.538992 
L 85.206589 -206.823712 
L 85.552836 -206.823712 
L 85.552836 -205.111386 
L 88.045816 -205.111386 
L 88.045816 -203.402017 
L 88.322813 -203.402017 
L 88.322813 -201.695612 
L 88.392063 -201.695612 
L 88.392063 -199.99218 
L 88.599811 -199.99218 
L 88.599811 -198.291728 
L 88.66906 -198.291728 
L 88.66906 -196.594266 
L 89.777051 -196.594266 
L 89.777051 -194.899805 
L 90.469546 -194.899805 
L 90.469546 -193.208358 
L 90.538795 -193.208358 
L 90.538795 -191.519938 
L 91.508287 -191.519938 
L 91.508287 -189.834559 
L 95.386255 -189.834559 
L 95.386255 -189.834559 
L 95.524754 -189.834559 
L 95.524754 -188.125945 
L 96.217248 -188.125945 
L 96.217248 -186.420595 
L 98.779477 -186.420595 
L 98.779477 -184.718529 
L 101.618704 -184.718529 
L 101.618704 -183.019766 
L 101.687954 -183.019766 
L 101.687954 -181.324326 
L 101.826452 -181.324326 
L 101.826452 -179.632232 
L 103.488439 -179.632232 
L 103.488439 -177.94351 
L 104.52718 -177.94351 
L 104.52718 -176.258184 
L 110.69038 -176.258184 
L 110.69038 -174.576283 
L 112.629364 -174.576283 
L 112.629364 -172.897837 
L 112.767863 -172.897837 
L 112.767863 -171.222879 
L 113.183359 -171.222879 
L 113.183359 -169.55144 
L 114.152851 -169.55144 
L 114.152851 -167.883559 
L 118.654064 -167.883559 
L 118.654064 -166.219272 
L 130.772715 -166.219272 
L 130.772715 -164.558621 
L 131.118962 -164.558621 
L 131.118962 -162.901649 
L 137.351411 -162.901649 
L 137.351411 -161.2484 
L 138.5979 -161.2484 
L 138.5979 -159.598924 
L 151.201297 -159.598924 
L 151.201297 -157.953271 
L 156.118006 -157.953271 
L 156.118006 -156.311495 
L 162.9737 -156.311495 
L 162.9737 -154.673654 
L 165.743677 -154.673654 
L 165.743677 -153.039807 
L 168.305906 -153.039807 
L 168.305906 -151.410019 
L 187.3495 -151.410019 
L 187.3495 -151.410019 
L 187.557248 -151.410019 
L 187.557248 -149.746412 
L 187.834246 -149.746412 
L 187.834246 -149.746412 
L 189.703981 -149.746412 
L 189.703981 -149.746412 
L 191.850713 -149.746412 
L 191.850713 -149.746412 
L 198.221661 -149.746412 
L 198.221661 -147.95996 
L 198.983404 -147.95996 
L 198.983404 -147.95996 
L 204.800357 -147.95996 
L 204.800357 -146.131853 
L 207.362585 -146.131853 
L 207.362585 -144.310543 
L 208.262828 -144.310543 
L 208.262828 -144.310543 
L 215.257021 -144.310543 
L 215.257021 -142.443707 
L 218.165497 -142.443707 
L 218.165497 -140.584635 
L 227.444921 -140.584635 
L 227.444921 -140.584635 
L 237.001342 -140.584635 
L 237.001342 -140.584635 
L 237.901585 -140.584635 
L 237.901585 -140.584635 
L 241.156308 -140.584635 
L 241.156308 -140.584635 
L 249.46624 -140.584635 
L 249.46624 -138.478382 
L 252.859462 -138.478382 
L 252.859462 -138.478382 
L 253.759704 -138.478382 
L 253.759704 -138.478382 
L 258.122419 -138.478382 
L 258.122419 -136.225948 
L 265.878355 -136.225948 
L 265.878355 -133.989838 
L 270.10257 -133.989838 
L 270.10257 -133.989838 
L 280.420735 -133.989838 
L 280.420735 -133.989838 
L 280.697733 -133.989838 
L 280.697733 -133.989838 
L 284.160205 -133.989838 
L 284.160205 -133.989838 
L 295.586361 -133.989838 
L 295.586361 -133.989838 
L 302.234306 -133.989838 
L 302.234306 -133.989838 
L 322.385891 -133.989838 
L 322.385891 -133.989838 
L 330.626573 -133.989838 
L 330.626573 -133.989838 
L 333.535049 -133.989838 
L 333.535049 -133.989838 
L 333.673548 -133.989838 
L 333.673548 -133.989838 
L 333.881296 -133.989838 
L 333.881296 -133.989838 
L 351.609151 -133.989838 
L 351.609151 -133.989838 
L 356.52586 -133.989838 
L 356.52586 -133.989838 
L 374.738461 -133.989838 
L 374.738461 -133.989838 
L 376.746694 -133.989838 
L 376.746694 -133.989838 
L 377.716186 -133.989838 
L 377.716186 -128.673386 
L 380.693912 -128.673386 
L 380.693912 -128.673386 
L 383.256141 -128.673386 
L 383.256141 -128.673386 
L 388.726846 -128.673386 
L 388.726846 -128.673386 
L 391.566072 -128.673386 
L 391.566072 -128.673386 
L 392.604814 -128.673386 
L 392.604814 -128.673386 
L 393.505056 -128.673386 
L 393.505056 -128.673386 
L 405.069711 -128.673386 
L 405.069711 -128.673386 
L 432.907983 -128.673386 
L 432.907983 -128.673386 
L 445.926876 -128.673386 
L 445.926876 -128.673386 
L 458.184025 -128.673386 
L 458.184025 -128.673386 
L 459.499764 -128.673386 
L 459.499764 -128.673386 
L 463.931728 -128.673386 
L 463.931728 -128.673386 
L 464.347225 -128.673386 
L 464.347225 -128.673386 
L 472.310909 -128.673386 
L 472.310909 -128.673386 
L 472.310909 -169.646109 
L 472.310909 -169.646109 
L 472.310909 -169.646109 
L 464.347225 -169.646109 
L 464.347225 -169.646109 
L 463.931728 -169.646109 
L 463.931728 -169.646109 
L 459.499764 -169.646109 
L 459.499764 -169.646109 
L 458.184025 -169.646109 
L 458.184025 -169.646109 
L 445.926876 -169.646109 
L 445.926876 -169.646109 
L 432.907983 -169.646109 
L 432.907983 -169.646109 
L 405.069711 -169.646109 
L 405.069711 -169.646109 
L 393.505056 -169.646109 
L 393.505056 -169.646109 
L 392.604814 -169.646109 
L 392.604814 -169.646109 
L 391.566072 -169.646109 
L 391.566072 -169.646109 
L 388.726846 -169.646109 
L 388.726846 -169.646109 
L 383.256141 -169.646109 
L 383.256141 -169.646109 
L 380.693912 -169.646109 
L 380.693912 -169.646109 
L 377.716186 -169.646109 
L 377.716186 -173.459119 
L 376.746694 -173.459119 
L 376.746694 -173.459119 
L 374.738461 -173.459119 
L 374.738461 -173.459119 
L 356.52586 -173.459119 
L 356.52586 -173.459119 
L 351.609151 -173.459119 
L 351.609151 -173.459119 
L 333.881296 -173.459119 
L 333.881296 -173.459119 
L 333.673548 -173.459119 
L 333.673548 -173.459119 
L 333.535049 -173.459119 
L 333.535049 -173.459119 
L 330.626573 -173.459119 
L 330.626573 -173.459119 
L 322.385891 -173.459119 
L 322.385891 -173.459119 
L 302.234306 -173.459119 
L 302.234306 -173.459119 
L 295.586361 -173.459119 
L 295.586361 -173.459119 
L 284.160205 -173.459119 
L 284.160205 -173.459119 
L 280.697733 -173.459119 
L 280.697733 -173.459119 
L 280.420735 -173.459119 
L 280.420735 -173.459119 
L 270.10257 -173.459119 
L 270.10257 -173.459119 
L 265.878355 -173.459119 
L 265.878355 -175.896623 
L 258.122419 -175.896623 
L 258.122419 -178.320516 
L 253.759704 -178.320516 
L 253.759704 -178.320516 
L 252.859462 -178.320516 
L 252.859462 -178.320516 
L 249.46624 -178.320516 
L 249.46624 -180.622248 
L 241.156308 -180.622248 
L 241.156308 -180.622248 
L 237.901585 -180.622248 
L 237.901585 -180.622248 
L 237.001342 -180.622248 
L 237.001342 -180.622248 
L 227.444921 -180.622248 
L 227.444921 -180.622248 
L 218.165497 -180.622248 
L 218.165497 -182.726487 
L 215.257021 -182.726487 
L 215.257021 -184.823928 
L 208.262828 -184.823928 
L 208.262828 -184.823928 
L 207.362585 -184.823928 
L 207.362585 -186.874431 
L 204.800357 -186.874431 
L 204.800357 -188.918936 
L 198.983404 -188.918936 
L 198.983404 -188.918936 
L 198.221661 -188.918936 
L 198.221661 -190.920551 
L 191.850713 -190.920551 
L 191.850713 -190.920551 
L 189.703981 -190.920551 
L 189.703981 -190.920551 
L 187.834246 -190.920551 
L 187.834246 -190.920551 
L 187.557248 -190.920551 
L 187.557248 -192.815408 
L 187.3495 -192.815408 
L 187.3495 -192.815408 
L 168.305906 -192.815408 
L 168.305906 -194.675098 
L 165.743677 -194.675098 
L 165.743677 -196.530978 
L 162.9737 -196.530978 
L 162.9737 -198.383107 
L 156.118006 -198.383107 
L 156.118006 -200.231539 
L 151.201297 -200.231539 
L 151.201297 -202.076326 
L 138.5979 -202.076326 
L 138.5979 -203.917517 
L 137.351411 -203.917517 
L 137.351411 -205.755158 
L 131.118962 -205.755158 
L 131.118962 -207.589292 
L 130.772715 -207.589292 
L 130.772715 -209.419961 
L 118.654064 -209.419961 
L 118.654064 -211.247204 
L 114.152851 -211.247204 
L 114.152851 -213.071058 
L 113.183359 -213.071058 
L 113.183359 -214.891557 
L 112.767863 -214.891557 
L 112.767863 -216.708734 
L 112.629364 -216.708734 
L 112.629364 -218.52262 
L 110.69038 -218.52262 
L 110.69038 -220.333243 
L 104.52718 -220.333243 
L 104.52718 -222.140631 
L 103.488439 -222.140631 
L 103.488439 -223.944809 
L 101.826452 -223.944809 
L 101.826452 -225.745801 
L 101.687954 -225.745801 
L 101.687954 -227.543628 
L 101.618704 -227.543628 
L 101.618704 -229.338311 
L 98.779477 -229.338311 
L 98.779477 -231.12987 
L 96.217248 -231.12987 
L 96.217248 -232.918322 
L 95.524754 -232.918322 
L 95.524754 -234.703683 
L 95.386255 -234.703683 
L 95.386255 -234.703683 
L 91.508287 -234.703683 
L 91.508287 -236.465642 
L 90.538795 -236.465642 
L 90.538795 -238.224681 
L 90.469546 -238.224681 
L 90.469546 -239.980813 
L 89.777051 -239.980813 
L 89.777051 -241.734048 
L 88.66906 -241.734048 
L 88.66906 -243.484397 
L 88.599811 -243.484397 
L 88.599811 -245.231867 
L 88.392063 -245.231867 
L 88.392063 -246.976467 
L 88.322813 -246.976467 
L 88.322813 -248.718203 
L 88.045816 -248.718203 
L 88.045816 -250.457081 
L 85.552836 -250.457081 
L 85.552836 -252.193104 
L 85.206589 -252.193104 
L 85.206589 -253.926276 
L 85.137339 -253.926276 
L 85.137339 -255.656599 
L 82.436612 -255.656599 
L 82.436612 -257.384074 
L 82.228863 -257.384074 
L 82.228863 -259.1087 
L 82.090365 -259.1087 
L 82.090365 -260.830478 
L 80.22063 -260.830478 
L 80.22063 -262.549403 
L 80.082131 -262.549403 
L 80.082131 -264.265474 
L 79.735884 -264.265474 
L 79.735884 -265.978685 
L 79.528136 -265.978685 
L 79.528136 -267.689032 
L 79.251138 -267.689032 
L 79.251138 -269.396507 
L 78.143147 -269.396507 
L 78.143147 -271.101102 
L 77.935399 -271.101102 
L 77.935399 -272.80281 
L 77.242904 -272.80281 
L 77.242904 -274.50162 
L 76.827408 -274.50162 
L 76.827408 -276.19752 
L 76.758158 -276.19752 
L 76.758158 -277.890498 
L 76.55041 -277.890498 
L 76.55041 -282.951762 
L 75.996415 -282.951762 
L 75.996415 -287.986164 
L 75.442419 -287.986164 
L 75.442419 -289.658238 
L 75.30392 -289.658238 
L 75.30392 -291.327245 
L 75.096172 -291.327245 
L 75.096172 -292.993161 
L 75.026923 -292.993161 
L 75.026923 -296.315611 
L 74.680675 -296.315611 
L 74.680675 -297.972088 
L 74.195929 -297.972088 
L 74.195929 -299.625359 
L 73.572684 -299.625359 
L 73.572684 -301.275391 
L 73.018689 -301.275391 
L 73.018689 -302.922149 
L 72.810941 -302.922149 
L 72.810941 -304.565596 
L 72.741691 -304.565596 
L 72.741691 -306.205693 
L 72.049197 -306.205693 
L 72.049197 -307.842399 
L 71.979948 -307.842399 
L 71.979948 -309.47567 
L 71.910698 -309.47567 
L 71.910698 -311.105459 
L 71.772199 -311.105459 
L 71.772199 -312.73172 
L 71.356703 -312.73172 
L 71.356703 -314.3544 
L 71.218204 -314.3544 
L 71.218204 -315.973445 
L 71.010456 -315.973445 
L 71.010456 -317.588798 
L 69.833215 -317.588798 
L 69.833215 -319.200399 
L 69.27922 -319.200399 
L 69.27922 -322.412086 
L 69.071471 -322.412086 
L 69.071471 -324.012034 
L 68.932973 -324.012034 
L 68.932973 -327.19976 
L 68.863723 -327.19976 
L 68.863723 -328.787376 
L 68.309728 -328.787376 
L 68.309728 -331.949662 
L 67.617233 -331.949662 
L 67.617233 -333.524139 
L 67.409485 -333.524139 
L 67.409485 -335.09403 
L 66.716991 -335.09403 
L 66.716991 -336.659223 
L 66.439993 -336.659223 
L 66.439993 -338.219596 
L 66.093746 -338.219596 
L 66.093746 -339.775021 
L 65.955247 -339.775021 
L 65.955247 -341.32536 
L 65.816748 -341.32536 
L 65.816748 -342.870467 
L 65.470501 -342.870467 
L 65.470501 -344.410183 
L 64.916506 -344.410183 
L 64.916506 -347.472759 
L 64.778007 -347.472759 
L 64.778007 -348.995243 
L 64.570258 -348.995243 
L 64.570258 -350.511583 
L 64.085512 -350.511583 
L 64.085512 -352.021554 
L 63.462268 -352.021554 
L 63.462268 -353.524909 
L 62.839023 -353.524909 
L 62.839023 -355.021383 
L 62.215778 -355.021383 
L 62.215778 -356.510687 
L 62.008029 -356.510687 
L 62.008029 -357.992507 
L 61.731032 -357.992507 
L 61.731032 -359.466496 
L 61.592533 -359.466496 
L 61.592533 -362.389433 
L 61.523283 -362.389433 
L 61.523283 -363.837503 
L 60.138295 -363.837503 
L 60.138295 -366.704284 
L 59.861297 -366.704284 
L 59.861297 -366.704284 
L 59.584299 -366.704284 
L 59.584299 -368.114572 
L 59.307302 -368.114572 
L 59.307302 -369.513545 
L 59.030304 -369.513545 
L 59.030304 -370.900409 
L 57.09132 -370.900409 
L 57.09132 -372.274256 
L 57.02207 -372.274256 
L 57.02207 -373.634044 
L 56.883572 -373.634044 
L 56.883572 -374.978566 
L 56.606574 -374.978566 
L 56.606574 -376.306411 
L 56.537324 -376.306411 
L 56.537324 -377.615911 
L 56.398826 -377.615911 
L 56.398826 -380.171459 
L 56.329576 -380.171459 
L 56.329576 -381.412092 
L 56.191077 -381.412092 
L 56.191077 -382.623195 
L 56.052578 -382.623195 
L 56.052578 -384.935734 
L 55.429334 -384.935734 
L 55.429334 -386.021733 
L 55.360084 -386.021733 
L 55.360084 -388.806053 
L 55.152336 -388.806053 
L 55.152336 -389.435979 
L 55.083086 -389.435979 
L 55.083086 -389.682295 
L 54.529091 -389.682295 
z
" id="m9b2aadddd6" style="stroke:#808080;stroke-opacity:0.25;"/>
    </defs>
    <g clip-path="url(#pb525054f92)">
     <use style="fill:#808080;fill-opacity:0.25;stroke:#808080;stroke-opacity:0.25;" x="0" xlink:href="#m9b2aadddd6" y="432"/>
    </g>
   </g>
   <g id="matplotlib.axis_1">
    <g id="xtick_1">
     <g id="line2d_1">
      <path clip-path="url(#pb525054f92)" d="M 54.529091 366.5095 
L 54.529091 26.88 
" style="fill:none;stroke:#b0b0b0;stroke-dasharray:2.96,1.28;stroke-dashoffset:0;stroke-opacity:0.5;stroke-width:0.8;"/>
     </g>
     <g id="line2d_2">
      <defs>
       <path d="M 0 0 
L 0 3.5 
" id="m8b0c03a744" style="stroke:#000000;stroke-width:0.8;"/>
      </defs>
      <g>
       <use style="stroke:#000000;stroke-width:0.8;" x="54.529091" xlink:href="#m8b0c03a744" y="366.5095"/>
      </g>
     </g>
     <g id="text_1">
      <text style="font-family:DejaVu Sans;font-size:10px;font-stretch:normal;font-style:normal;font-weight:normal;text-anchor:middle;" transform="rotate(-0, 54.529091, 381.107937)" x="54.529091" y="381.107937">0</text>
     </g>
    </g>
    <g id="xtick_2">
     <g id="line2d_3">
      <path clip-path="url(#pb525054f92)" d="M 123.778522 366.5095 
L 123.778522 26.88 
" style="fill:none;stroke:#b0b0b0;stroke-dasharray:2.96,1.28;stroke-dashoffset:0;stroke-opacity:0.5;stroke-width:0.8;"/>
     </g>
     <g id="line2d_4">
      <g>
       <use style="stroke:#000000;stroke-width:0.8;" x="123.778522" xlink:href="#m8b0c03a744" y="366.5095"/>
      </g>
     </g>
     <g id="text_2">
      <text style="font-family:DejaVu Sans;font-size:10px;font-stretch:normal;font-style:normal;font-weight:normal;text-anchor:middle;" transform="rotate(-0, 123.778522, 381.107937)" x="123.778522" y="381.107937">1000</text>
     </g>
    </g>
    <g id="xtick_3">
     <g id="line2d_5">
      <path clip-path="url(#pb525054f92)" d="M 193.027953 366.5095 
L 193.027953 26.88 
" style="fill:none;stroke:#b0b0b0;stroke-dasharray:2.96,1.28;stroke-dashoffset:0;stroke-opacity:0.5;stroke-width:0.8;"/>
     </g>
     <g id="line2d_6">
      <g>
       <use style="stroke:#000000;stroke-width:0.8;" x="193.027953" xlink:href="#m8b0c03a744" y="366.5095"/>
      </g>
     </g>
     <g id="text_3">
      <text style="font-family:DejaVu Sans;font-size:10px;font-stretch:normal;font-style:normal;font-weight:normal;text-anchor:middle;" transform="rotate(-0, 193.027953, 381.107937)" x="193.027953" y="381.107937">2000</text>
     </g>
    </g>
    <g id="xtick_4">
     <g id="line2d_7">
      <path clip-path="url(#pb525054f92)" d="M 262.277384 366.5095 
L 262.277384 26.88 
" style="fill:none;stroke:#b0b0b0;stroke-dasharray:2.96,1.28;stroke-dashoffset:0;stroke-opacity:0.5;stroke-width:0.8;"/>
     </g>
     <g id="line2d_8">
      <g>
       <use style="stroke:#000000;stroke-width:0.8;" x="262.277384" xlink:href="#m8b0c03a744" y="366.5095"/>
      </g>
     </g>
     <g id="text_4">
      <text style="font-family:DejaVu Sans;font-size:10px;font-stretch:normal;font-style:normal;font-weight:normal;text-anchor:middle;" transform="rotate(-0, 262.277384, 381.107937)" x="262.277384" y="381.107937">3000</text>
     </g>
    </g>
    <g id="xtick_5">
     <g id="line2d_9">
      <path clip-path="url(#pb525054f92)" d="M 331.526816 366.5095 
L 331.526816 26.88 
" style="fill:none;stroke:#b0b0b0;stroke-dasharray:2.96,1.28;stroke-dashoffset:0;stroke-opacity:0.5;stroke-width:0.8;"/>
     </g>
     <g id="line2d_10">
      <g>
       <use style="stroke:#000000;stroke-width:0.8;" x="331.526816" xlink:href="#m8b0c03a744" y="366.5095"/>
      </g>
     </g>
     <g id="text_5">
      <text style="font-family:DejaVu Sans;font-size:10px;font-stretch:normal;font-style:normal;font-weight:normal;text-anchor:middle;" transform="rotate(-0, 331.526816, 381.107937)" x="331.526816" y="381.107937">4000</text>
     </g>
    </g>
    <g id="xtick_6">
     <g id="line2d_11">
      <path clip-path="url(#pb525054f92)" d="M 400.776247 366.5095 
L 400.776247 26.88 
" style="fill:none;stroke:#b0b0b0;stroke-dasharray:2.96,1.28;stroke-dashoffset:0;stroke-opacity:0.5;stroke-width:0.8;"/>
     </g>
     <g id="line2d_12">
      <g>
       <use style="stroke:#000000;stroke-width:0.8;" x="400.776247" xlink:href="#m8b0c03a744" y="366.5095"/>
      </g>
     </g>
     <g id="text_6">
      <text style="font-family:DejaVu Sans;font-size:10px;font-stretch:normal;font-style:normal;font-weight:normal;text-anchor:middle;" transform="rotate(-0, 400.776247, 381.107937)" x="400.776247" y="381.107937">5000</text>
     </g>
    </g>
    <g id="xtick_7">
     <g id="line2d_13">
      <path clip-path="url(#pb525054f92)" d="M 470.025678 366.5095 
L 470.025678 26.88 
" style="fill:none;stroke:#b0b0b0;stroke-dasharray:2.96,1.28;stroke-dashoffset:0;stroke-opacity:0.5;stroke-width:0.8;"/>
     </g>
     <g id="line2d_14">
      <g>
       <use style="stroke:#000000;stroke-width:0.8;" x="470.025678" xlink:href="#m8b0c03a744" y="366.5095"/>
      </g>
     </g>
     <g id="text_7">
      <text style="font-family:DejaVu Sans;font-size:10px;font-stretch:normal;font-style:normal;font-weight:normal;text-anchor:middle;" transform="rotate(-0, 470.025678, 381.107937)" x="470.025678" y="381.107937">6000</text>
     </g>
    </g>
    <g id="text_8">
     <text style="font-family:DejaVu Sans;font-size:10px;font-stretch:normal;font-style:normal;font-weight:normal;" transform="translate(241.511406 394.786063)">timeline </text>
     <text style="font-family:DejaVu Sans;font-size:10px;font-stretch:normal;font-style:normal;font-weight:normal;" transform="translate(144.034844 405.983875)">    dataset: lgn_pronostic_LSC17, input_dim: 17 </text>
     <text style="font-family:DejaVu Sans;font-size:10px;font-stretch:normal;font-style:normal;font-weight:normal;" transform="translate(184.83875 417.459812)">    c_index: [0.671 0.639 0.701]</text>
    </g>
   </g>
   <g id="matplotlib.axis_2">
    <g id="ytick_1">
     <g id="line2d_15">
      <path clip-path="url(#pb525054f92)" d="M 33.64 351.071795 
L 493.2 351.071795 
" style="fill:none;stroke:#b0b0b0;stroke-dasharray:2.96,1.28;stroke-dashoffset:0;stroke-opacity:0.5;stroke-width:0.8;"/>
     </g>
     <g id="line2d_16">
      <defs>
       <path d="M 0 0 
L -3.5 0 
" id="md8662194e7" style="stroke:#000000;stroke-width:0.8;"/>
      </defs>
      <g>
       <use style="stroke:#000000;stroke-width:0.8;" x="33.64" xlink:href="#md8662194e7" y="351.071795"/>
      </g>
     </g>
     <g id="text_9">
      <text style="font-family:DejaVu Sans;font-size:10px;font-stretch:normal;font-style:normal;font-weight:normal;text-anchor:end;" transform="rotate(-0, 26.64, 354.871014)" x="26.64" y="354.871014">0.0</text>
     </g>
    </g>
    <g id="ytick_2">
     <g id="line2d_17">
      <path clip-path="url(#pb525054f92)" d="M 33.64 289.320977 
L 493.2 289.320977 
" style="fill:none;stroke:#b0b0b0;stroke-dasharray:2.96,1.28;stroke-dashoffset:0;stroke-opacity:0.5;stroke-width:0.8;"/>
     </g>
     <g id="line2d_18">
      <g>
       <use style="stroke:#000000;stroke-width:0.8;" x="33.64" xlink:href="#md8662194e7" y="289.320977"/>
      </g>
     </g>
     <g id="text_10">
      <text style="font-family:DejaVu Sans;font-size:10px;font-stretch:normal;font-style:normal;font-weight:normal;text-anchor:end;" transform="rotate(-0, 26.64, 293.120196)" x="26.64" y="293.120196">0.2</text>
     </g>
    </g>
    <g id="ytick_3">
     <g id="line2d_19">
      <path clip-path="url(#pb525054f92)" d="M 33.64 227.570159 
L 493.2 227.570159 
" style="fill:none;stroke:#b0b0b0;stroke-dasharray:2.96,1.28;stroke-dashoffset:0;stroke-opacity:0.5;stroke-width:0.8;"/>
     </g>
     <g id="line2d_20">
      <g>
       <use style="stroke:#000000;stroke-width:0.8;" x="33.64" xlink:href="#md8662194e7" y="227.570159"/>
      </g>
     </g>
     <g id="text_11">
      <text style="font-family:DejaVu Sans;font-size:10px;font-stretch:normal;font-style:normal;font-weight:normal;text-anchor:end;" transform="rotate(-0, 26.64, 231.369378)" x="26.64" y="231.369378">0.4</text>
     </g>
    </g>
    <g id="ytick_4">
     <g id="line2d_21">
      <path clip-path="url(#pb525054f92)" d="M 33.64 165.819341 
L 493.2 165.819341 
" style="fill:none;stroke:#b0b0b0;stroke-dasharray:2.96,1.28;stroke-dashoffset:0;stroke-opacity:0.5;stroke-width:0.8;"/>
     </g>
     <g id="line2d_22">
      <g>
       <use style="stroke:#000000;stroke-width:0.8;" x="33.64" xlink:href="#md8662194e7" y="165.819341"/>
      </g>
     </g>
     <g id="text_12">
      <text style="font-family:DejaVu Sans;font-size:10px;font-stretch:normal;font-style:normal;font-weight:normal;text-anchor:end;" transform="rotate(-0, 26.64, 169.61856)" x="26.64" y="169.61856">0.6</text>
     </g>
    </g>
    <g id="ytick_5">
     <g id="line2d_23">
      <path clip-path="url(#pb525054f92)" d="M 33.64 104.068523 
L 493.2 104.068523 
" style="fill:none;stroke:#b0b0b0;stroke-dasharray:2.96,1.28;stroke-dashoffset:0;stroke-opacity:0.5;stroke-width:0.8;"/>
     </g>
     <g id="line2d_24">
      <g>
       <use style="stroke:#000000;stroke-width:0.8;" x="33.64" xlink:href="#md8662194e7" y="104.068523"/>
      </g>
     </g>
     <g id="text_13">
      <text style="font-family:DejaVu Sans;font-size:10px;font-stretch:normal;font-style:normal;font-weight:normal;text-anchor:end;" transform="rotate(-0, 26.64, 107.867741)" x="26.64" y="107.867741">0.8</text>
     </g>
    </g>
    <g id="ytick_6">
     <g id="line2d_25">
      <path clip-path="url(#pb525054f92)" d="M 33.64 42.317705 
L 493.2 42.317705 
" style="fill:none;stroke:#b0b0b0;stroke-dasharray:2.96,1.28;stroke-dashoffset:0;stroke-opacity:0.5;stroke-width:0.8;"/>
     </g>
     <g id="line2d_26">
      <g>
       <use style="stroke:#000000;stroke-width:0.8;" x="33.64" xlink:href="#md8662194e7" y="42.317705"/>
      </g>
     </g>
     <g id="text_14">
      <text style="font-family:DejaVu Sans;font-size:10px;font-stretch:normal;font-style:normal;font-weight:normal;text-anchor:end;" transform="rotate(-0, 26.64, 46.116923)" x="26.64" y="46.116923">1.0</text>
     </g>
    </g>
   </g>
   <g id="line2d_27">
    <defs>
     <path d="M -3 3 
L 3 -3 
M -3 -3 
L 3 3 
" id="mec3a613e8b" style="stroke:#ff0000;"/>
    </defs>
    <g clip-path="url(#pb525054f92)">
     <use style="fill:#ff0000;stroke:#ff0000;" x="206.254595" xlink:href="#mec3a613e8b" y="323.363095"/>
     <use style="fill:#ff0000;stroke:#ff0000;" x="248.704496" xlink:href="#mec3a613e8b" y="327.981212"/>
     <use style="fill:#ff0000;stroke:#ff0000;" x="266.43235" xlink:href="#mec3a613e8b" y="327.981212"/>
     <use style="fill:#ff0000;stroke:#ff0000;" x="269.133078" xlink:href="#mec3a613e8b" y="327.981212"/>
    </g>
   </g>
   <g id="line2d_28">
    <path clip-path="url(#pb525054f92)" d="M 54.529091 42.317705 
L 55.290835 42.317705 
L 55.290835 46.27609 
L 55.498583 46.27609 
L 55.567832 54.192862 
L 55.775581 54.192862 
L 55.775581 58.151248 
L 55.91408 58.151248 
L 55.983329 66.068019 
L 56.052578 66.068019 
L 56.052578 73.984791 
L 56.952821 73.984791 
L 57.02207 85.859948 
L 57.783814 85.859948 
L 57.783814 89.818334 
L 58.060812 89.818334 
L 58.060812 93.77672 
L 58.33781 93.77672 
L 58.33781 97.735105 
L 58.822556 97.735105 
L 58.822556 101.693491 
L 59.722798 101.693491 
L 59.722798 109.610263 
L 59.861297 109.610263 
L 59.861297 113.568649 
L 60.276794 113.568649 
L 60.276794 117.527034 
L 60.415293 117.527034 
L 60.415293 121.48542 
L 60.553791 121.48542 
L 60.623041 129.402192 
L 60.830789 129.402192 
L 60.830789 133.360578 
L 60.969288 133.360578 
L 60.969288 137.318963 
L 61.246286 137.318963 
L 61.246286 141.277349 
L 62.146528 141.277349 
L 62.215778 149.194121 
L 62.285027 149.194121 
L 62.285027 153.152506 
L 63.046771 153.152506 
L 63.046771 157.110892 
L 63.323769 157.110892 
L 63.323769 161.069278 
L 63.739265 161.069278 
L 63.739265 165.027664 
L 63.877764 165.027664 
L 63.947014 176.902821 
L 64.016263 176.902821 
L 64.016263 180.861207 
L 64.43176 180.861207 
L 64.43176 184.819593 
L 64.708757 184.819593 
L 64.778007 192.736364 
L 65.055004 192.736364 
L 65.055004 200.653136 
L 65.193503 200.653136 
L 65.193503 204.611522 
L 65.678249 204.611522 
L 65.678249 208.569907 
L 66.162995 208.569907 
L 66.162995 212.528293 
L 66.647741 212.528293 
L 66.647741 216.486679 
L 68.932973 216.486679 
L 68.932973 220.445065 
L 69.763966 220.445065 
L 69.763966 224.40345 
L 70.733458 224.40345 
L 70.802707 232.320222 
L 70.871957 232.320222 
L 70.941206 240.236994 
L 71.010456 240.236994 
L 71.010456 244.195379 
L 71.218204 244.195379 
L 71.218204 248.153765 
L 71.495202 248.153765 
L 71.495202 252.112151 
L 72.187696 252.112151 
L 72.187696 256.070537 
L 74.334428 256.070537 
L 74.334428 260.028922 
L 75.442419 260.028922 
L 75.442419 263.987308 
L 75.788666 263.987308 
L 75.788666 267.945694 
L 77.242904 267.945694 
L 77.242904 271.90408 
L 79.320387 271.90408 
L 79.320387 275.862466 
L 81.813367 275.862466 
L 81.813367 279.820851 
L 82.021115 279.820851 
L 82.021115 283.779237 
L 84.029349 283.779237 
L 84.029349 287.737623 
L 84.514095 287.737623 
L 84.514095 291.696009 
L 85.414337 291.696009 
L 85.414337 295.654395 
L 88.599811 295.654395 
L 88.599811 299.61278 
L 99.194974 299.61278 
L 99.194974 303.571166 
L 108.128151 303.571166 
L 108.128151 307.529552 
L 110.274883 307.529552 
L 110.274883 311.487938 
L 111.86762 311.487938 
L 111.86762 315.446323 
L 116.645831 315.446323 
L 116.645831 319.404709 
L 150.231805 319.404709 
L 150.231805 323.363095 
L 209.024572 323.363095 
L 209.024572 327.981212 
L 347.800432 327.981212 
L 347.800432 351.071795 
L 347.800432 351.071795 
" style="fill:none;stroke:#ff0000;stroke-linecap:square;stroke-width:1.5;"/>
   </g>
   <g id="line2d_29">
    <defs>
     <path d="M -3 3 
L 3 -3 
M -3 -3 
L 3 3 
" id="m70691961d8" style="stroke:#0000ff;"/>
    </defs>
    <g clip-path="url(#pb525054f92)">
     <use style="fill:#0000ff;stroke:#0000ff;" x="182.709788" xlink:href="#m70691961d8" y="138.374533"/>
     <use style="fill:#0000ff;stroke:#0000ff;" x="184.579523" xlink:href="#m70691961d8" y="138.374533"/>
     <use style="fill:#0000ff;stroke:#0000ff;" x="193.651198" xlink:href="#m70691961d8" y="138.374533"/>
     <use style="fill:#0000ff;stroke:#0000ff;" x="208.678325" xlink:href="#m70691961d8" y="138.374533"/>
     <use style="fill:#0000ff;stroke:#0000ff;" x="218.373245" xlink:href="#m70691961d8" y="154.129886"/>
     <use style="fill:#0000ff;stroke:#0000ff;" x="224.259447" xlink:href="#m70691961d8" y="154.129886"/>
     <use style="fill:#0000ff;stroke:#0000ff;" x="226.26768" xlink:href="#m70691961d8" y="154.129886"/>
     <use style="fill:#0000ff;stroke:#0000ff;" x="232.153882" xlink:href="#m70691961d8" y="154.129886"/>
     <use style="fill:#0000ff;stroke:#0000ff;" x="235.685603" xlink:href="#m70691961d8" y="154.129886"/>
     <use style="fill:#0000ff;stroke:#0000ff;" x="245.519022" xlink:href="#m70691961d8" y="154.129886"/>
     <use style="fill:#0000ff;stroke:#0000ff;" x="261.377142" xlink:href="#m70691961d8" y="154.129886"/>
     <use style="fill:#0000ff;stroke:#0000ff;" x="263.177627" xlink:href="#m70691961d8" y="154.129886"/>
     <use style="fill:#0000ff;stroke:#0000ff;" x="289.838658" xlink:href="#m70691961d8" y="154.129886"/>
     <use style="fill:#0000ff;stroke:#0000ff;" x="316.638188" xlink:href="#m70691961d8" y="154.129886"/>
     <use style="fill:#0000ff;stroke:#0000ff;" x="322.039643" xlink:href="#m70691961d8" y="154.129886"/>
     <use style="fill:#0000ff;stroke:#0000ff;" x="330.765072" xlink:href="#m70691961d8" y="154.129886"/>
     <use style="fill:#0000ff;stroke:#0000ff;" x="333.812047" xlink:href="#m70691961d8" y="154.129886"/>
     <use style="fill:#0000ff;stroke:#0000ff;" x="338.31326" xlink:href="#m70691961d8" y="154.129886"/>
     <use style="fill:#0000ff;stroke:#0000ff;" x="344.060963" xlink:href="#m70691961d8" y="154.129886"/>
     <use style="fill:#0000ff;stroke:#0000ff;" x="357.910849" xlink:href="#m70691961d8" y="154.129886"/>
     <use style="fill:#0000ff;stroke:#0000ff;" x="359.503586" xlink:href="#m70691961d8" y="154.129886"/>
     <use style="fill:#0000ff;stroke:#0000ff;" x="370.652744" xlink:href="#m70691961d8" y="154.129886"/>
     <use style="fill:#0000ff;stroke:#0000ff;" x="389.904086" xlink:href="#m70691961d8" y="154.129886"/>
     <use style="fill:#0000ff;stroke:#0000ff;" x="398.491015" xlink:href="#m70691961d8" y="154.129886"/>
     <use style="fill:#0000ff;stroke:#0000ff;" x="408.393684" xlink:href="#m70691961d8" y="154.129886"/>
     <use style="fill:#0000ff;stroke:#0000ff;" x="425.221296" xlink:href="#m70691961d8" y="154.129886"/>
     <use style="fill:#0000ff;stroke:#0000ff;" x="441.356413" xlink:href="#m70691961d8" y="154.129886"/>
     <use style="fill:#0000ff;stroke:#0000ff;" x="455.483297" xlink:href="#m70691961d8" y="154.129886"/>
    </g>
   </g>
   <g id="line2d_30">
    <path clip-path="url(#pb525054f92)" d="M 54.529091 42.317705 
L 55.360084 42.317705 
L 55.360084 49.178907 
L 59.51505 49.178907 
L 59.51505 56.040109 
L 75.30392 56.040109 
L 75.30392 62.901311 
L 75.580918 62.901311 
L 75.580918 69.762513 
L 86.31458 69.762513 
L 86.31458 76.623715 
L 88.045816 76.623715 
L 88.045816 83.484917 
L 89.084557 83.484917 
L 89.084557 90.346119 
L 100.233715 90.346119 
L 100.233715 97.207321 
L 106.812411 97.207321 
L 106.812411 104.068523 
L 121.008545 104.068523 
L 121.008545 110.929725 
L 122.462783 110.929725 
L 122.462783 117.790927 
L 129.803223 117.790927 
L 129.803223 124.652129 
L 179.108818 124.652129 
L 179.108818 131.513331 
L 181.463298 131.513331 
L 181.463298 138.374533 
L 182.709788 138.374533 
L 182.709788 138.374533 
L 184.579523 138.374533 
L 184.579523 138.374533 
L 193.651198 138.374533 
L 193.651198 138.374533 
L 208.678325 138.374533 
L 208.678325 138.374533 
L 209.509318 138.374533 
L 209.509318 146.252209 
L 218.026998 146.252209 
L 218.026998 154.129886 
L 218.373245 154.129886 
L 218.373245 154.129886 
L 224.259447 154.129886 
L 224.259447 154.129886 
L 226.26768 154.129886 
L 226.26768 154.129886 
L 232.153882 154.129886 
L 232.153882 154.129886 
L 235.685603 154.129886 
L 235.685603 154.129886 
L 245.519022 154.129886 
L 245.519022 154.129886 
L 261.377142 154.129886 
L 261.377142 154.129886 
L 263.177627 154.129886 
L 263.177627 154.129886 
L 289.838658 154.129886 
L 289.838658 154.129886 
L 316.638188 154.129886 
L 316.638188 154.129886 
L 322.039643 154.129886 
L 322.039643 154.129886 
L 330.765072 154.129886 
L 330.765072 154.129886 
L 333.812047 154.129886 
L 333.812047 154.129886 
L 338.31326 154.129886 
L 338.31326 154.129886 
L 344.060963 154.129886 
L 344.060963 154.129886 
L 357.910849 154.129886 
L 357.910849 154.129886 
L 359.503586 154.129886 
L 359.503586 154.129886 
L 370.652744 154.129886 
L 370.652744 154.129886 
L 389.904086 154.129886 
L 389.904086 154.129886 
L 398.491015 154.129886 
L 398.491015 154.129886 
L 408.393684 154.129886 
L 408.393684 154.129886 
L 425.221296 154.129886 
L 425.221296 154.129886 
L 441.356413 154.129886 
L 441.356413 154.129886 
L 455.483297 154.129886 
L 455.483297 154.129886 
" style="fill:none;stroke:#0000ff;stroke-linecap:square;stroke-width:1.5;"/>
   </g>
   <g id="line2d_31">
    <defs>
     <path d="M -3 3 
L 3 -3 
M -3 -3 
L 3 3 
" id="m91744cfbc4" style="stroke:#808080;"/>
    </defs>
    <g clip-path="url(#pb525054f92)">
     <use style="fill:#808080;stroke:#808080;" x="59.861297" xlink:href="#m91744cfbc4" y="77.205172"/>
     <use style="fill:#808080;stroke:#808080;" x="95.386255" xlink:href="#m91744cfbc4" y="219.40515"/>
     <use style="fill:#808080;stroke:#808080;" x="187.3495" xlink:href="#m91744cfbc4" y="260.328567"/>
     <use style="fill:#808080;stroke:#808080;" x="187.834246" xlink:href="#m91744cfbc4" y="262.143431"/>
     <use style="fill:#808080;stroke:#808080;" x="189.703981" xlink:href="#m91744cfbc4" y="262.143431"/>
     <use style="fill:#808080;stroke:#808080;" x="191.850713" xlink:href="#m91744cfbc4" y="262.143431"/>
     <use style="fill:#808080;stroke:#808080;" x="198.983404" xlink:href="#m91744cfbc4" y="264.076657"/>
     <use style="fill:#808080;stroke:#808080;" x="208.262828" xlink:href="#m91744cfbc4" y="268.030981"/>
     <use style="fill:#808080;stroke:#808080;" x="227.444921" xlink:href="#m91744cfbc4" y="272.081752"/>
     <use style="fill:#808080;stroke:#808080;" x="237.001342" xlink:href="#m91744cfbc4" y="272.081752"/>
     <use style="fill:#808080;stroke:#808080;" x="237.901585" xlink:href="#m91744cfbc4" y="272.081752"/>
     <use style="fill:#808080;stroke:#808080;" x="241.156308" xlink:href="#m91744cfbc4" y="272.081752"/>
     <use style="fill:#808080;stroke:#808080;" x="252.859462" xlink:href="#m91744cfbc4" y="274.338611"/>
     <use style="fill:#808080;stroke:#808080;" x="253.759704" xlink:href="#m91744cfbc4" y="274.338611"/>
     <use style="fill:#808080;stroke:#808080;" x="270.10257" xlink:href="#m91744cfbc4" y="279.134435"/>
     <use style="fill:#808080;stroke:#808080;" x="280.420735" xlink:href="#m91744cfbc4" y="279.134435"/>
     <use style="fill:#808080;stroke:#808080;" x="280.697733" xlink:href="#m91744cfbc4" y="279.134435"/>
     <use style="fill:#808080;stroke:#808080;" x="284.160205" xlink:href="#m91744cfbc4" y="279.134435"/>
     <use style="fill:#808080;stroke:#808080;" x="295.586361" xlink:href="#m91744cfbc4" y="279.134435"/>
     <use style="fill:#808080;stroke:#808080;" x="302.234306" xlink:href="#m91744cfbc4" y="279.134435"/>
     <use style="fill:#808080;stroke:#808080;" x="322.385891" xlink:href="#m91744cfbc4" y="279.134435"/>
     <use style="fill:#808080;stroke:#808080;" x="330.626573" xlink:href="#m91744cfbc4" y="279.134435"/>
     <use style="fill:#808080;stroke:#808080;" x="333.535049" xlink:href="#m91744cfbc4" y="279.134435"/>
     <use style="fill:#808080;stroke:#808080;" x="333.673548" xlink:href="#m91744cfbc4" y="279.134435"/>
     <use style="fill:#808080;stroke:#808080;" x="333.881296" xlink:href="#m91744cfbc4" y="279.134435"/>
     <use style="fill:#808080;stroke:#808080;" x="351.609151" xlink:href="#m91744cfbc4" y="279.134435"/>
     <use style="fill:#808080;stroke:#808080;" x="356.52586" xlink:href="#m91744cfbc4" y="279.134435"/>
     <use style="fill:#808080;stroke:#808080;" x="374.738461" xlink:href="#m91744cfbc4" y="279.134435"/>
     <use style="fill:#808080;stroke:#808080;" x="376.746694" xlink:href="#m91744cfbc4" y="279.134435"/>
     <use style="fill:#808080;stroke:#808080;" x="380.693912" xlink:href="#m91744cfbc4" y="283.930259"/>
     <use style="fill:#808080;stroke:#808080;" x="383.256141" xlink:href="#m91744cfbc4" y="283.930259"/>
     <use style="fill:#808080;stroke:#808080;" x="388.726846" xlink:href="#m91744cfbc4" y="283.930259"/>
     <use style="fill:#808080;stroke:#808080;" x="391.566072" xlink:href="#m91744cfbc4" y="283.930259"/>
     <use style="fill:#808080;stroke:#808080;" x="392.604814" xlink:href="#m91744cfbc4" y="283.930259"/>
     <use style="fill:#808080;stroke:#808080;" x="393.505056" xlink:href="#m91744cfbc4" y="283.930259"/>
     <use style="fill:#808080;stroke:#808080;" x="405.069711" xlink:href="#m91744cfbc4" y="283.930259"/>
     <use style="fill:#808080;stroke:#808080;" x="432.907983" xlink:href="#m91744cfbc4" y="283.930259"/>
     <use style="fill:#808080;stroke:#808080;" x="445.926876" xlink:href="#m91744cfbc4" y="283.930259"/>
     <use style="fill:#808080;stroke:#808080;" x="458.184025" xlink:href="#m91744cfbc4" y="283.930259"/>
     <use style="fill:#808080;stroke:#808080;" x="459.499764" xlink:href="#m91744cfbc4" y="283.930259"/>
     <use style="fill:#808080;stroke:#808080;" x="463.931728" xlink:href="#m91744cfbc4" y="283.930259"/>
     <use style="fill:#808080;stroke:#808080;" x="464.347225" xlink:href="#m91744cfbc4" y="283.930259"/>
     <use style="fill:#808080;stroke:#808080;" x="472.310909" xlink:href="#m91744cfbc4" y="283.930259"/>
    </g>
   </g>
   <g id="line2d_32">
    <path clip-path="url(#pb525054f92)" d="M 54.529091 42.317705 
L 55.083086 42.317705 
L 55.152336 45.806451 
L 55.360084 45.806451 
L 55.429334 52.783945 
L 56.052578 52.783945 
L 56.052578 56.272692 
L 56.191077 56.272692 
L 56.191077 58.017065 
L 56.329576 58.017065 
L 56.398826 63.250185 
L 56.537324 63.250185 
L 56.606574 66.738932 
L 56.883572 66.738932 
L 56.883572 68.483305 
L 57.02207 68.483305 
L 57.09132 71.972052 
L 59.030304 71.972052 
L 59.030304 73.716426 
L 59.307302 73.716426 
L 59.307302 75.460799 
L 59.584299 75.460799 
L 59.584299 77.205172 
L 60.138295 77.205172 
L 60.138295 80.716283 
L 61.523283 80.716283 
L 61.592533 85.982949 
L 61.731032 85.982949 
L 61.731032 87.738504 
L 62.008029 87.738504 
L 62.008029 89.494059 
L 62.215778 89.494059 
L 62.215778 91.249615 
L 62.839023 91.249615 
L 62.839023 93.00517 
L 63.462268 93.00517 
L 63.462268 94.760725 
L 64.085512 94.760725 
L 64.085512 96.51628 
L 64.570258 96.51628 
L 64.570258 98.271836 
L 64.778007 98.271836 
L 64.778007 100.027391 
L 64.916506 100.027391 
L 64.916506 103.538502 
L 65.470501 103.538502 
L 65.470501 105.294057 
L 65.816748 105.294057 
L 65.816748 107.049612 
L 65.955247 107.049612 
L 65.955247 108.805167 
L 66.093746 108.805167 
L 66.093746 110.560723 
L 66.439993 110.560723 
L 66.439993 112.316278 
L 66.716991 112.316278 
L 66.716991 114.071833 
L 67.409485 114.071833 
L 67.409485 115.827389 
L 67.617233 115.827389 
L 67.617233 117.582944 
L 68.309728 117.582944 
L 68.309728 121.094054 
L 68.863723 121.094054 
L 68.932973 126.36072 
L 69.071471 126.36072 
L 69.071471 128.116275 
L 69.27922 128.116275 
L 69.27922 131.627386 
L 69.833215 131.627386 
L 69.833215 133.382941 
L 71.010456 133.382941 
L 71.010456 135.138497 
L 71.218204 135.138497 
L 71.218204 136.894052 
L 71.356703 136.894052 
L 71.356703 138.649607 
L 71.772199 138.649607 
L 71.772199 140.405162 
L 71.910698 140.405162 
L 71.979948 143.916273 
L 72.049197 143.916273 
L 72.049197 145.671828 
L 72.741691 145.671828 
L 72.810941 149.182939 
L 73.018689 149.182939 
L 73.018689 150.938494 
L 73.572684 150.938494 
L 73.572684 152.694049 
L 74.195929 152.694049 
L 74.195929 154.449605 
L 74.680675 154.449605 
L 74.680675 156.20516 
L 75.026923 156.20516 
L 75.096172 161.471826 
L 75.30392 161.471826 
L 75.30392 163.227381 
L 75.442419 163.227381 
L 75.442419 164.982936 
L 75.996415 164.982936 
L 75.996415 170.249602 
L 76.55041 170.249602 
L 76.55041 175.516268 
L 76.758158 175.516268 
L 76.827408 179.027378 
L 77.242904 179.027378 
L 77.242904 180.782934 
L 77.935399 180.782934 
L 77.935399 182.538489 
L 78.143147 182.538489 
L 78.143147 184.294044 
L 79.251138 184.294044 
L 79.251138 186.0496 
L 79.528136 186.0496 
L 79.528136 187.805155 
L 79.735884 187.805155 
L 79.735884 189.56071 
L 80.082131 189.56071 
L 80.082131 191.316265 
L 80.22063 191.316265 
L 80.22063 193.071821 
L 82.090365 193.071821 
L 82.090365 194.827376 
L 82.228863 194.827376 
L 82.228863 196.582931 
L 82.436612 196.582931 
L 82.436612 198.338486 
L 85.137339 198.338486 
L 85.206589 201.849597 
L 85.552836 201.849597 
L 85.552836 203.605152 
L 88.045816 203.605152 
L 88.045816 205.360708 
L 88.322813 205.360708 
L 88.392063 208.871818 
L 88.599811 208.871818 
L 88.66906 212.382929 
L 89.777051 212.382929 
L 89.777051 214.138484 
L 90.469546 214.138484 
L 90.538795 217.649595 
L 91.508287 217.649595 
L 91.508287 219.40515 
L 95.524754 219.40515 
L 95.524754 221.184429 
L 96.217248 221.184429 
L 96.217248 222.963708 
L 98.779477 222.963708 
L 98.779477 224.742987 
L 101.618704 224.742987 
L 101.687954 228.301545 
L 101.826452 228.301545 
L 101.826452 230.080824 
L 103.488439 230.080824 
L 103.488439 231.860103 
L 104.52718 231.860103 
L 104.52718 233.639382 
L 110.69038 233.639382 
L 110.69038 235.418661 
L 112.629364 235.418661 
L 112.629364 237.19794 
L 112.767863 237.19794 
L 112.767863 238.977219 
L 113.183359 238.977219 
L 113.183359 240.756498 
L 114.152851 240.756498 
L 114.152851 242.535777 
L 118.654064 242.535777 
L 118.654064 244.315056 
L 130.772715 244.315056 
L 130.772715 246.094335 
L 131.118962 246.094335 
L 131.118962 247.873614 
L 137.351411 247.873614 
L 137.351411 249.652893 
L 138.5979 249.652893 
L 138.5979 251.432172 
L 151.201297 251.432172 
L 151.201297 253.211451 
L 156.118006 253.211451 
L 156.118006 254.99073 
L 162.9737 254.99073 
L 162.9737 256.770009 
L 165.743677 256.770009 
L 165.743677 258.549288 
L 168.305906 258.549288 
L 168.305906 260.328567 
L 187.557248 260.328567 
L 187.557248 262.143431 
L 198.221661 262.143431 
L 198.221661 264.076657 
L 204.800357 264.076657 
L 204.800357 266.053819 
L 207.362585 266.053819 
L 207.362585 268.030981 
L 215.257021 268.030981 
L 215.257021 270.056367 
L 218.165497 270.056367 
L 218.165497 272.081752 
L 249.46624 272.081752 
L 249.46624 274.338611 
L 258.122419 274.338611 
L 258.122419 276.736523 
L 265.878355 276.736523 
L 265.878355 279.134435 
L 377.716186 279.134435 
L 377.716186 283.930259 
L 472.310909 283.930259 
L 472.310909 283.930259 
" style="fill:none;stroke:#808080;stroke-linecap:square;stroke-width:1.5;"/>
   </g>
   <g id="patch_3">
    <path d="M 33.64 366.5095 
L 33.64 26.88 
" style="fill:none;stroke:#000000;stroke-linecap:square;stroke-linejoin:miter;stroke-width:0.8;"/>
   </g>
   <g id="patch_4">
    <path d="M 493.2 366.5095 
L 493.2 26.88 
" style="fill:none;stroke:#000000;stroke-linecap:square;stroke-linejoin:miter;stroke-width:0.8;"/>
   </g>
   <g id="patch_5">
    <path d="M 33.64 366.5095 
L 493.2 366.5095 
" style="fill:none;stroke:#000000;stroke-linecap:square;stroke-linejoin:miter;stroke-width:0.8;"/>
   </g>
   <g id="patch_6">
    <path d="M 33.64 26.88 
L 493.2 26.88 
" style="fill:none;stroke:#000000;stroke-linecap:square;stroke-linejoin:miter;stroke-width:0.8;"/>
   </g>
   <g id="text_15">
    <text style="font-family:DejaVu Sans;font-size:12px;font-stretch:normal;font-style:normal;font-weight:normal;text-anchor:middle;" transform="rotate(-0, 263.42, 20.88)" x="263.42" y="20.88">Survival curves - model_type: ridge_cph_lifelines</text>
   </g>
   <g id="legend_1">
    <g id="patch_7">
     <path d="M 349.195312 78.914375 
L 486.2 78.914375 
Q 488.2 78.914375 488.2 76.914375 
L 488.2 33.88 
Q 488.2 31.88 486.2 31.88 
L 349.195312 31.88 
Q 347.195312 31.88 347.195312 33.88 
L 347.195312 76.914375 
Q 347.195312 78.914375 349.195312 78.914375 
z
" style="fill:#ffffff;opacity:0.8;stroke:#cccccc;stroke-linejoin:miter;"/>
    </g>
    <g id="line2d_33">
     <path d="M 351.195312 39.978437 
L 371.195312 39.978437 
" style="fill:none;stroke:#ff0000;stroke-linecap:square;stroke-width:1.5;"/>
    </g>
    <g id="line2d_34"/>
    <g id="text_16">
     <text style="font-family:DejaVu Sans;font-size:10px;font-stretch:normal;font-style:normal;font-weight:normal;text-anchor:start;" transform="rotate(-0, 379.195312, 43.478437)" x="379.195312" y="43.478437">adv. risk (n:78 c:5 )</text>
    </g>
    <g id="line2d_35">
     <path d="M 351.195312 54.656563 
L 371.195312 54.656563 
" style="fill:none;stroke:#0000ff;stroke-linecap:square;stroke-width:1.5;"/>
    </g>
    <g id="line2d_36"/>
    <g id="text_17">
     <text style="font-family:DejaVu Sans;font-size:10px;font-stretch:normal;font-style:normal;font-weight:normal;text-anchor:start;" transform="rotate(-0, 379.195312, 58.156563)" x="379.195312" y="58.156563">fav. risk (n:45 c:29)</text>
    </g>
    <g id="line2d_37">
     <path d="M 351.195312 69.334687 
L 371.195312 69.334687 
" style="fill:none;stroke:#808080;stroke-linecap:square;stroke-width:1.5;"/>
    </g>
    <g id="line2d_38"/>
    <g id="text_18">
     <text style="font-family:DejaVu Sans;font-size:10px;font-stretch:normal;font-style:normal;font-weight:normal;text-anchor:start;" transform="rotate(-0, 379.195312, 72.834687)" x="379.195312" y="72.834687">int. risk (n:177 c:43 )</text>
    </g>
   </g>
  </g>
 </g>
 <defs>
  <clipPath id="pb525054f92">
   <rect height="339.6295" width="459.56" x="33.64" y="26.88"/>
  </clipPath>
 </defs>
</svg>
