<?xml version="1.0" encoding="utf-8" standalone="no"?>
<!DOCTYPE svg PUBLIC "-//W3C//DTD SVG 1.1//EN"
  "http://www.w3.org/Graphics/SVG/1.1/DTD/svg11.dtd">
<!-- Created with matplotlib (https://matplotlib.org/) -->
<svg height="432pt" version="1.1" viewBox="0 0 504 432" width="504pt" xmlns="http://www.w3.org/2000/svg" xmlns:xlink="http://www.w3.org/1999/xlink">
 <metadata>
  <rdf:RDF xmlns:cc="http://creativecommons.org/ns#" xmlns:dc="http://purl.org/dc/elements/1.1/" xmlns:rdf="http://www.w3.org/1999/02/22-rdf-syntax-ns#">
   <cc:Work>
    <dc:type rdf:resource="http://purl.org/dc/dcmitype/StillImage"/>
    <dc:date>2022-11-28T13:23:30.352350</dc:date>
    <dc:format>image/svg+xml</dc:format>
    <dc:creator>
     <cc:Agent>
      <dc:title>Matplotlib v3.3.4, https://matplotlib.org/</dc:title>
     </cc:Agent>
    </dc:creator>
   </cc:Work>
  </rdf:RDF>
 </metadata>
 <defs>
  <style type="text/css">*{stroke-linecap:butt;stroke-linejoin:round;}</style>
 </defs>
 <g id="figure_1">
  <g id="patch_1">
   <path d="M 0 432 
L 504 432 
L 504 0 
L 0 0 
z
" style="fill:#ffffff;"/>
  </g>
  <g id="axes_1">
   <g id="patch_2">
    <path d="M 33.64 366.5095 
L 493.2 366.5095 
L 493.2 26.88 
L 33.64 26.88 
z
" style="fill:#ffffff;"/>
   </g>
   <g id="PolyCollection_1">
    <defs>
     <path d="M 54.529091 -389.682295 
L 54.529091 -389.682295 
L 55.083086 -389.682295 
L 55.083086 -364.346226 
L 55.152336 -364.346226 
L 55.152336 -361.128835 
L 55.290835 -361.128835 
L 55.290835 -356.530069 
L 55.360084 -356.530069 
L 55.360084 -347.048694 
L 55.498583 -347.048694 
L 55.498583 -342.381168 
L 55.983329 -342.381168 
L 55.983329 -337.781121 
L 56.052578 -337.781121 
L 56.052578 -328.771646 
L 57.09132 -328.771646 
L 57.09132 -324.352644 
L 58.33781 -324.352644 
L 58.33781 -319.984553 
L 59.030304 -319.984553 
L 59.030304 -315.663269 
L 59.307302 -315.663269 
L 59.307302 -311.385193 
L 59.584299 -311.385193 
L 59.584299 -307.147189 
L 60.623041 -307.147189 
L 60.623041 -302.946521 
L 61.246286 -302.946521 
L 61.246286 -298.780802 
L 61.592533 -298.780802 
L 61.592533 -294.647939 
L 62.146528 -294.647939 
L 62.146528 -290.546093 
L 62.215778 -290.546093 
L 62.215778 -286.47364 
L 62.839023 -286.47364 
L 62.839023 -282.429143 
L 63.046771 -282.429143 
L 63.046771 -278.411324 
L 63.877764 -278.411324 
L 63.877764 -270.451287 
L 64.016263 -270.451287 
L 64.016263 -266.50714 
L 64.778007 -266.50714 
L 64.778007 -262.585785 
L 64.916506 -262.585785 
L 64.916506 -258.686488 
L 65.055004 -258.686488 
L 65.055004 -254.808588 
L 65.193503 -254.808588 
L 65.193503 -250.95149 
L 65.470501 -250.95149 
L 65.470501 -247.114659 
L 65.816748 -247.114659 
L 65.816748 -243.297614 
L 66.093746 -243.297614 
L 66.093746 -239.499922 
L 66.647741 -239.499922 
L 66.647741 -235.721196 
L 66.716991 -235.721196 
L 66.716991 -231.96109 
L 67.409485 -231.96109 
L 67.409485 -228.219297 
L 68.309728 -228.219297 
L 68.309728 -224.495544 
L 68.932973 -224.495544 
L 68.932973 -217.101231 
L 69.071471 -217.101231 
L 69.071471 -213.430287 
L 69.27922 -213.430287 
L 69.27922 -209.776607 
L 70.802707 -209.776607 
L 70.802707 -206.140069 
L 70.871957 -206.140069 
L 70.871957 -202.520576 
L 71.010456 -202.520576 
L 71.010456 -195.332465 
L 71.218204 -195.332465 
L 71.218204 -188.211999 
L 71.495202 -188.211999 
L 71.495202 -184.677154 
L 71.772199 -184.677154 
L 71.772199 -181.159294 
L 71.910698 -181.159294 
L 71.910698 -177.658495 
L 72.741691 -177.658495 
L 72.741691 -174.174859 
L 73.018689 -174.174859 
L 73.018689 -170.708512 
L 75.30392 -170.708512 
L 75.30392 -167.259609 
L 75.788666 -167.259609 
L 75.788666 -163.828332 
L 75.996415 -163.828332 
L 75.996415 -160.414892 
L 76.55041 -160.414892 
L 76.55041 -157.019534 
L 77.935399 -157.019534 
L 77.935399 -153.642532 
L 79.528136 -153.642532 
L 79.528136 -150.284197 
L 79.735884 -150.284197 
L 79.735884 -146.944879 
L 80.082131 -146.944879 
L 80.082131 -143.624968 
L 81.813367 -143.624968 
L 81.813367 -140.324898 
L 82.436612 -140.324898 
L 82.436612 -137.045152 
L 85.414337 -137.045152 
L 85.414337 -133.786267 
L 85.552836 -133.786267 
L 85.552836 -130.54884 
L 88.045816 -130.54884 
L 88.045816 -127.333532 
L 88.392063 -127.333532 
L 88.392063 -124.141079 
L 88.599811 -124.141079 
L 88.599811 -120.972298 
L 91.508287 -120.972298 
L 91.508287 -117.828103 
L 98.779477 -117.828103 
L 98.779477 -114.709512 
L 111.86762 -114.709512 
L 111.86762 -111.617667 
L 112.629364 -111.617667 
L 112.629364 -108.553852 
L 116.645831 -108.553852 
L 116.645831 -105.519513 
L 131.118962 -105.519513 
L 131.118962 -102.516293 
L 137.351411 -102.516293 
L 137.351411 -99.54606 
L 151.201297 -99.54606 
L 151.201297 -96.610959 
L 165.743677 -96.610959 
L 165.743677 -93.713462 
L 181.463298 -93.713462 
L 181.463298 -90.856444 
L 208.262828 -90.856444 
L 208.262828 -90.856444 
L 209.024572 -90.856444 
L 209.024572 -87.768179 
L 215.257021 -87.768179 
L 215.257021 -84.745331 
L 227.444921 -84.745331 
L 227.444921 -84.745331 
L 248.704496 -84.745331 
L 248.704496 -84.745331 
L 265.878355 -84.745331 
L 265.878355 -80.928205 
L 266.43235 -80.928205 
L 266.43235 -80.928205 
L 269.133078 -80.928205 
L 269.133078 -80.928205 
L 295.586361 -80.928205 
L 295.586361 -80.928205 
L 333.535049 -80.928205 
L 333.535049 -80.928205 
L 333.673548 -80.928205 
L 333.673548 -80.928205 
L 376.746694 -80.928205 
L 376.746694 -80.928205 
L 463.931728 -80.928205 
L 463.931728 -80.928205 
L 472.310909 -80.928205 
L 472.310909 -80.928205 
L 472.310909 -125.70378 
L 472.310909 -125.70378 
L 472.310909 -125.70378 
L 463.931728 -125.70378 
L 463.931728 -125.70378 
L 376.746694 -125.70378 
L 376.746694 -125.70378 
L 333.673548 -125.70378 
L 333.673548 -125.70378 
L 333.535049 -125.70378 
L 333.535049 -125.70378 
L 295.586361 -125.70378 
L 295.586361 -125.70378 
L 269.133078 -125.70378 
L 269.133078 -125.70378 
L 266.43235 -125.70378 
L 266.43235 -125.70378 
L 265.878355 -125.70378 
L 265.878355 -130.928804 
L 248.704496 -130.928804 
L 248.704496 -130.928804 
L 227.444921 -130.928804 
L 227.444921 -130.928804 
L 215.257021 -130.928804 
L 215.257021 -135.473256 
L 209.024572 -135.473256 
L 209.024572 -139.96167 
L 208.262828 -139.96167 
L 208.262828 -139.96167 
L 181.463298 -139.96167 
L 181.463298 -144.181194 
L 165.743677 -144.181194 
L 165.743677 -148.364289 
L 151.201297 -148.364289 
L 151.201297 -152.51344 
L 137.351411 -152.51344 
L 137.351411 -156.630788 
L 131.118962 -156.630788 
L 131.118962 -160.718192 
L 116.645831 -160.718192 
L 116.645831 -164.777275 
L 112.629364 -164.777275 
L 112.629364 -168.809465 
L 111.86762 -168.809465 
L 111.86762 -172.81602 
L 98.779477 -172.81602 
L 98.779477 -176.798057 
L 91.508287 -176.798057 
L 91.508287 -180.756569 
L 88.599811 -180.756569 
L 88.599811 -184.69244 
L 88.392063 -184.69244 
L 88.392063 -188.606465 
L 88.045816 -188.606465 
L 88.045816 -192.499351 
L 85.552836 -192.499351 
L 85.552836 -196.371736 
L 85.414337 -196.371736 
L 85.414337 -200.224192 
L 82.436612 -200.224192 
L 82.436612 -204.057232 
L 81.813367 -204.057232 
L 81.813367 -207.871318 
L 80.082131 -207.871318 
L 80.082131 -211.666861 
L 79.735884 -211.666861 
L 79.735884 -215.444232 
L 79.528136 -215.444232 
L 79.528136 -219.20376 
L 77.935399 -219.20376 
L 77.935399 -222.945739 
L 76.55041 -222.945739 
L 76.55041 -226.670426 
L 75.996415 -226.670426 
L 75.996415 -230.378047 
L 75.788666 -230.378047 
L 75.788666 -234.0688 
L 75.30392 -234.0688 
L 75.30392 -237.742851 
L 73.018689 -237.742851 
L 73.018689 -241.400342 
L 72.741691 -241.400342 
L 72.741691 -245.041386 
L 71.910698 -245.041386 
L 71.910698 -248.666073 
L 71.772199 -248.666073 
L 71.772199 -252.274468 
L 71.495202 -252.274468 
L 71.495202 -255.866612 
L 71.218204 -255.866612 
L 71.218204 -263.002191 
L 71.010456 -263.002191 
L 71.010456 -270.072664 
L 70.871957 -270.072664 
L 70.871957 -273.583338 
L 70.802707 -273.583338 
L 70.802707 -277.077507 
L 69.27922 -277.077507 
L 69.27922 -280.555044 
L 69.071471 -280.555044 
L 69.071471 -284.015796 
L 68.932973 -284.015796 
L 68.932973 -290.886188 
L 68.309728 -290.886188 
L 68.309728 -294.295377 
L 67.409485 -294.295377 
L 67.409485 -297.686873 
L 66.716991 -297.686873 
L 66.716991 -301.060369 
L 66.647741 -301.060369 
L 66.647741 -304.415518 
L 66.093746 -304.415518 
L 66.093746 -307.751934 
L 65.816748 -307.751934 
L 65.816748 -311.069186 
L 65.470501 -311.069186 
L 65.470501 -314.366793 
L 65.193503 -314.366793 
L 65.193503 -317.644222 
L 65.055004 -317.644222 
L 65.055004 -320.900879 
L 64.916506 -320.900879 
L 64.916506 -324.136105 
L 64.778007 -324.136105 
L 64.778007 -327.349165 
L 64.016263 -327.349165 
L 64.016263 -330.539239 
L 63.877764 -330.539239 
L 63.877764 -336.846661 
L 63.046771 -336.846661 
L 63.046771 -339.961831 
L 62.839023 -339.961831 
L 62.839023 -343.049623 
L 62.215778 -343.049623 
L 62.215778 -346.108566 
L 62.146528 -346.108566 
L 62.146528 -349.136983 
L 61.592533 -349.136983 
L 61.592533 -352.132955 
L 61.246286 -352.132955 
L 61.246286 -355.09427 
L 60.623041 -355.09427 
L 60.623041 -358.018358 
L 59.584299 -358.018358 
L 59.584299 -360.902206 
L 59.307302 -360.902206 
L 59.307302 -363.74225 
L 59.030304 -363.74225 
L 59.030304 -366.534218 
L 58.33781 -366.534218 
L 58.33781 -369.272923 
L 57.09132 -369.272923 
L 57.09132 -371.951957 
L 56.052578 -371.951957 
L 56.052578 -377.096395 
L 55.983329 -377.096395 
L 55.983329 -379.537549 
L 55.498583 -379.537549 
L 55.498583 -381.867592 
L 55.360084 -381.867592 
L 55.360084 -386.067652 
L 55.290835 -386.067652 
L 55.290835 -387.819336 
L 55.152336 -387.819336 
L 55.152336 -389.159558 
L 55.083086 -389.159558 
L 55.083086 -389.682295 
L 54.529091 -389.682295 
z
" id="m608baffd15" style="stroke:#ff0000;stroke-opacity:0.25;"/>
    </defs>
    <g clip-path="url(#pa86a1b7526)">
     <use style="fill:#ff0000;fill-opacity:0.25;stroke:#ff0000;stroke-opacity:0.25;" x="0" xlink:href="#m608baffd15" y="432"/>
    </g>
   </g>
   <g id="PolyCollection_2">
    <defs>
     <path d="M 54.529091 -389.682295 
L 54.529091 -389.682295 
L 56.052578 -389.682295 
L 56.052578 -360.81544 
L 56.191077 -360.81544 
L 56.191077 -356.166929 
L 56.398826 -356.166929 
L 56.398826 -351.363316 
L 56.606574 -351.363316 
L 56.606574 -346.58389 
L 56.883572 -346.58389 
L 56.883572 -341.866674 
L 59.722798 -341.866674 
L 59.722798 -337.217871 
L 62.285027 -337.217871 
L 62.285027 -332.635049 
L 64.085512 -332.635049 
L 64.085512 -328.113507 
L 64.43176 -328.113507 
L 64.43176 -323.648253 
L 64.778007 -323.648253 
L 64.778007 -319.234628 
L 65.955247 -319.234628 
L 65.955247 -314.868482 
L 67.617233 -314.868482 
L 67.617233 -310.546173 
L 68.309728 -310.546173 
L 68.309728 -306.264527 
L 68.863723 -306.264527 
L 68.863723 -302.020781 
L 68.932973 -302.020781 
L 68.932973 -297.812518 
L 69.27922 -297.812518 
L 69.27922 -293.637624 
L 71.356703 -293.637624 
L 71.356703 -289.494239 
L 73.572684 -289.494239 
L 73.572684 -285.380723 
L 74.334428 -285.380723 
L 74.334428 -281.295624 
L 74.680675 -281.295624 
L 74.680675 -277.237651 
L 75.026923 -277.237651 
L 75.026923 -273.205654 
L 75.996415 -273.205654 
L 75.996415 -269.198609 
L 76.55041 -269.198609 
L 76.55041 -265.215594 
L 76.758158 -265.215594 
L 76.758158 -261.255786 
L 77.242904 -261.255786 
L 77.242904 -253.402908 
L 79.251138 -253.402908 
L 79.251138 -249.508575 
L 82.021115 -249.508575 
L 82.021115 -245.634909 
L 82.090365 -245.634909 
L 82.090365 -241.781428 
L 82.228863 -241.781428 
L 82.228863 -237.947699 
L 84.514095 -237.947699 
L 84.514095 -234.133337 
L 85.137339 -234.133337 
L 85.137339 -230.337997 
L 88.322813 -230.337997 
L 88.322813 -226.561372 
L 88.66906 -226.561372 
L 88.66906 -222.803195 
L 90.469546 -222.803195 
L 90.469546 -219.063229 
L 90.538795 -219.063229 
L 90.538795 -215.341272 
L 95.386255 -215.341272 
L 95.386255 -215.341272 
L 96.217248 -215.341272 
L 96.217248 -211.545726 
L 100.233715 -211.545726 
L 100.233715 -207.769701 
L 101.826452 -207.769701 
L 101.826452 -204.013011 
L 108.128151 -204.013011 
L 108.128151 -200.275507 
L 110.69038 -200.275507 
L 110.69038 -196.557072 
L 112.767863 -196.557072 
L 112.767863 -192.857626 
L 113.183359 -192.857626 
L 113.183359 -189.177117 
L 114.152851 -189.177117 
L 114.152851 -185.515526 
L 118.654064 -185.515526 
L 118.654064 -181.872866 
L 121.008545 -181.872866 
L 121.008545 -178.249182 
L 129.803223 -178.249182 
L 129.803223 -174.644547 
L 138.5979 -174.644547 
L 138.5979 -171.059071 
L 156.118006 -171.059071 
L 156.118006 -167.492893 
L 162.9737 -167.492893 
L 162.9737 -163.946187 
L 179.108818 -163.946187 
L 179.108818 -160.419164 
L 182.709788 -160.419164 
L 182.709788 -160.419164 
L 187.3495 -160.419164 
L 187.3495 -160.419164 
L 187.557248 -160.419164 
L 187.557248 -156.649769 
L 189.703981 -156.649769 
L 189.703981 -156.649769 
L 191.850713 -156.649769 
L 191.850713 -156.649769 
L 198.221661 -156.649769 
L 198.221661 -152.596141 
L 198.983404 -152.596141 
L 198.983404 -152.596141 
L 206.254595 -152.596141 
L 206.254595 -152.596141 
L 207.362585 -152.596141 
L 207.362585 -148.203808 
L 209.509318 -148.203808 
L 209.509318 -143.859816 
L 232.153882 -143.859816 
L 232.153882 -143.859816 
L 237.001342 -143.859816 
L 237.001342 -143.859816 
L 237.901585 -143.859816 
L 237.901585 -143.859816 
L 241.156308 -143.859816 
L 241.156308 -143.859816 
L 249.46624 -143.859816 
L 249.46624 -138.504819 
L 252.859462 -138.504819 
L 252.859462 -138.504819 
L 258.122419 -138.504819 
L 258.122419 -132.893151 
L 261.377142 -132.893151 
L 261.377142 -132.893151 
L 269.133078 -132.893151 
L 269.133078 -132.893151 
L 280.420735 -132.893151 
L 280.420735 -132.893151 
L 289.838658 -132.893151 
L 289.838658 -132.893151 
L 302.234306 -132.893151 
L 302.234306 -132.893151 
L 322.385891 -132.893151 
L 322.385891 -132.893151 
L 330.626573 -132.893151 
L 330.626573 -132.893151 
L 333.812047 -132.893151 
L 333.812047 -132.893151 
L 333.881296 -132.893151 
L 333.881296 -132.893151 
L 351.609151 -132.893151 
L 351.609151 -132.893151 
L 356.52586 -132.893151 
L 356.52586 -132.893151 
L 370.652744 -132.893151 
L 370.652744 -132.893151 
L 377.716186 -132.893151 
L 377.716186 -109.662694 
L 391.566072 -109.662694 
L 391.566072 -109.662694 
L 392.604814 -109.662694 
L 392.604814 -109.662694 
L 393.505056 -109.662694 
L 393.505056 -109.662694 
L 405.069711 -109.662694 
L 405.069711 -109.662694 
L 445.926876 -109.662694 
L 445.926876 -109.662694 
L 445.926876 -191.381572 
L 445.926876 -191.381572 
L 445.926876 -191.381572 
L 405.069711 -191.381572 
L 405.069711 -191.381572 
L 393.505056 -191.381572 
L 393.505056 -191.381572 
L 392.604814 -191.381572 
L 392.604814 -191.381572 
L 391.566072 -191.381572 
L 391.566072 -191.381572 
L 377.716186 -191.381572 
L 377.716186 -199.38094 
L 370.652744 -199.38094 
L 370.652744 -199.38094 
L 356.52586 -199.38094 
L 356.52586 -199.38094 
L 351.609151 -199.38094 
L 351.609151 -199.38094 
L 333.881296 -199.38094 
L 333.881296 -199.38094 
L 333.812047 -199.38094 
L 333.812047 -199.38094 
L 330.626573 -199.38094 
L 330.626573 -199.38094 
L 322.385891 -199.38094 
L 322.385891 -199.38094 
L 302.234306 -199.38094 
L 302.234306 -199.38094 
L 289.838658 -199.38094 
L 289.838658 -199.38094 
L 280.420735 -199.38094 
L 280.420735 -199.38094 
L 269.133078 -199.38094 
L 269.133078 -199.38094 
L 261.377142 -199.38094 
L 261.377142 -199.38094 
L 258.122419 -199.38094 
L 258.122419 -204.85505 
L 252.859462 -204.85505 
L 252.859462 -204.85505 
L 249.46624 -204.85505 
L 249.46624 -210.065887 
L 241.156308 -210.065887 
L 241.156308 -210.065887 
L 237.901585 -210.065887 
L 237.901585 -210.065887 
L 237.001342 -210.065887 
L 237.001342 -210.065887 
L 232.153882 -210.065887 
L 232.153882 -210.065887 
L 209.509318 -210.065887 
L 209.509318 -214.620696 
L 207.362585 -214.620696 
L 207.362585 -219.137403 
L 206.254595 -219.137403 
L 206.254595 -219.137403 
L 198.983404 -219.137403 
L 198.983404 -219.137403 
L 198.221661 -219.137403 
L 198.221661 -223.38556 
L 191.850713 -223.38556 
L 191.850713 -223.38556 
L 189.703981 -223.38556 
L 189.703981 -223.38556 
L 187.557248 -223.38556 
L 187.557248 -227.401948 
L 187.3495 -227.401948 
L 187.3495 -227.401948 
L 182.709788 -227.401948 
L 182.709788 -227.401948 
L 179.108818 -227.401948 
L 179.108818 -231.21578 
L 162.9737 -231.21578 
L 162.9737 -235.011262 
L 156.118006 -235.011262 
L 156.118006 -238.788572 
L 138.5979 -238.788572 
L 138.5979 -242.547855 
L 129.803223 -242.547855 
L 129.803223 -246.289228 
L 121.008545 -246.289228 
L 121.008545 -250.012778 
L 118.654064 -250.012778 
L 118.654064 -253.718564 
L 114.152851 -253.718564 
L 114.152851 -257.406617 
L 113.183359 -257.406617 
L 113.183359 -261.076941 
L 112.767863 -261.076941 
L 112.767863 -264.729511 
L 110.69038 -264.729511 
L 110.69038 -268.364276 
L 108.128151 -268.364276 
L 108.128151 -271.981158 
L 101.826452 -271.981158 
L 101.826452 -275.580048 
L 100.233715 -275.580048 
L 100.233715 -279.160808 
L 96.217248 -279.160808 
L 96.217248 -282.723273 
L 95.386255 -282.723273 
L 95.386255 -282.723273 
L 90.538795 -282.723273 
L 90.538795 -286.21142 
L 90.469546 -286.21142 
L 90.469546 -289.681998 
L 88.66906 -289.681998 
L 88.66906 -293.134772 
L 88.322813 -293.134772 
L 88.322813 -296.569469 
L 85.137339 -296.569469 
L 85.137339 -299.985784 
L 84.514095 -299.985784 
L 84.514095 -303.383371 
L 82.228863 -303.383371 
L 82.228863 -306.761844 
L 82.090365 -306.761844 
L 82.090365 -310.120772 
L 82.021115 -310.120772 
L 82.021115 -313.459673 
L 79.251138 -313.459673 
L 79.251138 -316.778012 
L 77.242904 -316.778012 
L 77.242904 -323.350547 
L 76.758158 -323.350547 
L 76.758158 -326.60334 
L 76.55041 -326.60334 
L 76.55041 -329.832745 
L 75.996415 -329.832745 
L 75.996415 -333.037837 
L 75.026923 -333.037837 
L 75.026923 -336.217582 
L 74.680675 -336.217582 
L 74.680675 -339.370818 
L 74.334428 -339.370818 
L 74.334428 -342.496232 
L 73.572684 -342.496232 
L 73.572684 -345.592336 
L 71.356703 -345.592336 
L 71.356703 -348.657438 
L 69.27922 -348.657438 
L 69.27922 -351.689598 
L 68.932973 -351.689598 
L 68.932973 -354.686578 
L 68.863723 -354.686578 
L 68.863723 -357.64578 
L 68.309728 -357.64578 
L 68.309728 -360.56416 
L 67.617233 -360.56416 
L 67.617233 -363.438111 
L 65.955247 -363.438111 
L 65.955247 -366.263314 
L 64.778007 -366.263314 
L 64.778007 -369.03452 
L 64.43176 -369.03452 
L 64.43176 -371.745251 
L 64.085512 -371.745251 
L 64.085512 -374.387344 
L 62.285027 -374.387344 
L 62.285027 -376.950268 
L 59.722798 -376.950268 
L 59.722798 -379.420024 
L 56.883572 -379.420024 
L 56.883572 -381.777271 
L 56.606574 -381.777271 
L 56.606574 -383.993903 
L 56.398826 -383.993903 
L 56.398826 -386.026094 
L 56.191077 -386.026094 
L 56.191077 -387.797984 
L 56.052578 -387.797984 
L 56.052578 -389.682295 
L 54.529091 -389.682295 
z
" id="m44123df62f" style="stroke:#0000ff;stroke-opacity:0.25;"/>
    </defs>
    <g clip-path="url(#pa86a1b7526)">
     <use style="fill:#0000ff;fill-opacity:0.25;stroke:#0000ff;stroke-opacity:0.25;" x="0" xlink:href="#m44123df62f" y="432"/>
    </g>
   </g>
   <g id="matplotlib.axis_1">
    <g id="xtick_1">
     <g id="line2d_1">
      <path clip-path="url(#pa86a1b7526)" d="M 54.529091 366.5095 
L 54.529091 26.88 
" style="fill:none;stroke:#b0b0b0;stroke-dasharray:2.96,1.28;stroke-dashoffset:0;stroke-opacity:0.5;stroke-width:0.8;"/>
     </g>
     <g id="line2d_2">
      <defs>
       <path d="M 0 0 
L 0 3.5 
" id="md89987200f" style="stroke:#000000;stroke-width:0.8;"/>
      </defs>
      <g>
       <use style="stroke:#000000;stroke-width:0.8;" x="54.529091" xlink:href="#md89987200f" y="366.5095"/>
      </g>
     </g>
     <g id="text_1">
      <text style="font-family:DejaVu Sans;font-size:10px;font-stretch:normal;font-style:normal;font-weight:normal;text-anchor:middle;" transform="rotate(-0, 54.529091, 381.107937)" x="54.529091" y="381.107937">0</text>
     </g>
    </g>
    <g id="xtick_2">
     <g id="line2d_3">
      <path clip-path="url(#pa86a1b7526)" d="M 123.778522 366.5095 
L 123.778522 26.88 
" style="fill:none;stroke:#b0b0b0;stroke-dasharray:2.96,1.28;stroke-dashoffset:0;stroke-opacity:0.5;stroke-width:0.8;"/>
     </g>
     <g id="line2d_4">
      <g>
       <use style="stroke:#000000;stroke-width:0.8;" x="123.778522" xlink:href="#md89987200f" y="366.5095"/>
      </g>
     </g>
     <g id="text_2">
      <text style="font-family:DejaVu Sans;font-size:10px;font-stretch:normal;font-style:normal;font-weight:normal;text-anchor:middle;" transform="rotate(-0, 123.778522, 381.107937)" x="123.778522" y="381.107937">1000</text>
     </g>
    </g>
    <g id="xtick_3">
     <g id="line2d_5">
      <path clip-path="url(#pa86a1b7526)" d="M 193.027953 366.5095 
L 193.027953 26.88 
" style="fill:none;stroke:#b0b0b0;stroke-dasharray:2.96,1.28;stroke-dashoffset:0;stroke-opacity:0.5;stroke-width:0.8;"/>
     </g>
     <g id="line2d_6">
      <g>
       <use style="stroke:#000000;stroke-width:0.8;" x="193.027953" xlink:href="#md89987200f" y="366.5095"/>
      </g>
     </g>
     <g id="text_3">
      <text style="font-family:DejaVu Sans;font-size:10px;font-stretch:normal;font-style:normal;font-weight:normal;text-anchor:middle;" transform="rotate(-0, 193.027953, 381.107937)" x="193.027953" y="381.107937">2000</text>
     </g>
    </g>
    <g id="xtick_4">
     <g id="line2d_7">
      <path clip-path="url(#pa86a1b7526)" d="M 262.277384 366.5095 
L 262.277384 26.88 
" style="fill:none;stroke:#b0b0b0;stroke-dasharray:2.96,1.28;stroke-dashoffset:0;stroke-opacity:0.5;stroke-width:0.8;"/>
     </g>
     <g id="line2d_8">
      <g>
       <use style="stroke:#000000;stroke-width:0.8;" x="262.277384" xlink:href="#md89987200f" y="366.5095"/>
      </g>
     </g>
     <g id="text_4">
      <text style="font-family:DejaVu Sans;font-size:10px;font-stretch:normal;font-style:normal;font-weight:normal;text-anchor:middle;" transform="rotate(-0, 262.277384, 381.107937)" x="262.277384" y="381.107937">3000</text>
     </g>
    </g>
    <g id="xtick_5">
     <g id="line2d_9">
      <path clip-path="url(#pa86a1b7526)" d="M 331.526816 366.5095 
L 331.526816 26.88 
" style="fill:none;stroke:#b0b0b0;stroke-dasharray:2.96,1.28;stroke-dashoffset:0;stroke-opacity:0.5;stroke-width:0.8;"/>
     </g>
     <g id="line2d_10">
      <g>
       <use style="stroke:#000000;stroke-width:0.8;" x="331.526816" xlink:href="#md89987200f" y="366.5095"/>
      </g>
     </g>
     <g id="text_5">
      <text style="font-family:DejaVu Sans;font-size:10px;font-stretch:normal;font-style:normal;font-weight:normal;text-anchor:middle;" transform="rotate(-0, 331.526816, 381.107937)" x="331.526816" y="381.107937">4000</text>
     </g>
    </g>
    <g id="xtick_6">
     <g id="line2d_11">
      <path clip-path="url(#pa86a1b7526)" d="M 400.776247 366.5095 
L 400.776247 26.88 
" style="fill:none;stroke:#b0b0b0;stroke-dasharray:2.96,1.28;stroke-dashoffset:0;stroke-opacity:0.5;stroke-width:0.8;"/>
     </g>
     <g id="line2d_12">
      <g>
       <use style="stroke:#000000;stroke-width:0.8;" x="400.776247" xlink:href="#md89987200f" y="366.5095"/>
      </g>
     </g>
     <g id="text_6">
      <text style="font-family:DejaVu Sans;font-size:10px;font-stretch:normal;font-style:normal;font-weight:normal;text-anchor:middle;" transform="rotate(-0, 400.776247, 381.107937)" x="400.776247" y="381.107937">5000</text>
     </g>
    </g>
    <g id="xtick_7">
     <g id="line2d_13">
      <path clip-path="url(#pa86a1b7526)" d="M 470.025678 366.5095 
L 470.025678 26.88 
" style="fill:none;stroke:#b0b0b0;stroke-dasharray:2.96,1.28;stroke-dashoffset:0;stroke-opacity:0.5;stroke-width:0.8;"/>
     </g>
     <g id="line2d_14">
      <g>
       <use style="stroke:#000000;stroke-width:0.8;" x="470.025678" xlink:href="#md89987200f" y="366.5095"/>
      </g>
     </g>
     <g id="text_7">
      <text style="font-family:DejaVu Sans;font-size:10px;font-stretch:normal;font-style:normal;font-weight:normal;text-anchor:middle;" transform="rotate(-0, 470.025678, 381.107937)" x="470.025678" y="381.107937">6000</text>
     </g>
    </g>
    <g id="text_8">
     <text style="font-family:DejaVu Sans;font-size:10px;font-stretch:normal;font-style:normal;font-weight:normal;" transform="translate(241.511406 394.786063)">timeline </text>
     <text style="font-family:DejaVu Sans;font-size:10px;font-stretch:normal;font-style:normal;font-weight:normal;" transform="translate(112.362188 405.983875)">    dataset: lgn_pronostic_intermediate_PCA, Input type: PCA</text>
     <text style="font-family:DejaVu Sans;font-size:10px;font-stretch:normal;font-style:normal;font-weight:normal;" transform="translate(112.703594 417.459812)">    input_dim: 17 c_index: [0.633 0.59  0.675], pvalue: 1e-05</text>
    </g>
   </g>
   <g id="matplotlib.axis_2">
    <g id="ytick_1">
     <g id="line2d_15">
      <path clip-path="url(#pa86a1b7526)" d="M 33.64 305.262341 
L 493.2 305.262341 
" style="fill:none;stroke:#b0b0b0;stroke-dasharray:2.96,1.28;stroke-dashoffset:0;stroke-opacity:0.5;stroke-width:0.8;"/>
     </g>
     <g id="line2d_16">
      <defs>
       <path d="M 0 0 
L -3.5 0 
" id="mca3fe84042" style="stroke:#000000;stroke-width:0.8;"/>
      </defs>
      <g>
       <use style="stroke:#000000;stroke-width:0.8;" x="33.64" xlink:href="#mca3fe84042" y="305.262341"/>
      </g>
     </g>
     <g id="text_9">
      <text style="font-family:DejaVu Sans;font-size:10px;font-stretch:normal;font-style:normal;font-weight:normal;text-anchor:end;" transform="rotate(-0, 26.64, 309.06156)" x="26.64" y="309.06156">0.2</text>
     </g>
    </g>
    <g id="ytick_2">
     <g id="line2d_17">
      <path clip-path="url(#pa86a1b7526)" d="M 33.64 239.526182 
L 493.2 239.526182 
" style="fill:none;stroke:#b0b0b0;stroke-dasharray:2.96,1.28;stroke-dashoffset:0;stroke-opacity:0.5;stroke-width:0.8;"/>
     </g>
     <g id="line2d_18">
      <g>
       <use style="stroke:#000000;stroke-width:0.8;" x="33.64" xlink:href="#mca3fe84042" y="239.526182"/>
      </g>
     </g>
     <g id="text_10">
      <text style="font-family:DejaVu Sans;font-size:10px;font-stretch:normal;font-style:normal;font-weight:normal;text-anchor:end;" transform="rotate(-0, 26.64, 243.3254)" x="26.64" y="243.3254">0.4</text>
     </g>
    </g>
    <g id="ytick_3">
     <g id="line2d_19">
      <path clip-path="url(#pa86a1b7526)" d="M 33.64 173.790023 
L 493.2 173.790023 
" style="fill:none;stroke:#b0b0b0;stroke-dasharray:2.96,1.28;stroke-dashoffset:0;stroke-opacity:0.5;stroke-width:0.8;"/>
     </g>
     <g id="line2d_20">
      <g>
       <use style="stroke:#000000;stroke-width:0.8;" x="33.64" xlink:href="#mca3fe84042" y="173.790023"/>
      </g>
     </g>
     <g id="text_11">
      <text style="font-family:DejaVu Sans;font-size:10px;font-stretch:normal;font-style:normal;font-weight:normal;text-anchor:end;" transform="rotate(-0, 26.64, 177.589241)" x="26.64" y="177.589241">0.6</text>
     </g>
    </g>
    <g id="ytick_4">
     <g id="line2d_21">
      <path clip-path="url(#pa86a1b7526)" d="M 33.64 108.053864 
L 493.2 108.053864 
" style="fill:none;stroke:#b0b0b0;stroke-dasharray:2.96,1.28;stroke-dashoffset:0;stroke-opacity:0.5;stroke-width:0.8;"/>
     </g>
     <g id="line2d_22">
      <g>
       <use style="stroke:#000000;stroke-width:0.8;" x="33.64" xlink:href="#mca3fe84042" y="108.053864"/>
      </g>
     </g>
     <g id="text_12">
      <text style="font-family:DejaVu Sans;font-size:10px;font-stretch:normal;font-style:normal;font-weight:normal;text-anchor:end;" transform="rotate(-0, 26.64, 111.853082)" x="26.64" y="111.853082">0.8</text>
     </g>
    </g>
    <g id="ytick_5">
     <g id="line2d_23">
      <path clip-path="url(#pa86a1b7526)" d="M 33.64 42.317705 
L 493.2 42.317705 
" style="fill:none;stroke:#b0b0b0;stroke-dasharray:2.96,1.28;stroke-dashoffset:0;stroke-opacity:0.5;stroke-width:0.8;"/>
     </g>
     <g id="line2d_24">
      <g>
       <use style="stroke:#000000;stroke-width:0.8;" x="33.64" xlink:href="#mca3fe84042" y="42.317705"/>
      </g>
     </g>
     <g id="text_13">
      <text style="font-family:DejaVu Sans;font-size:10px;font-stretch:normal;font-style:normal;font-weight:normal;text-anchor:end;" transform="rotate(-0, 26.64, 46.116923)" x="26.64" y="46.116923">1.0</text>
     </g>
    </g>
   </g>
   <g id="line2d_25">
    <defs>
     <path d="M -3 3 
L 3 -3 
M -3 -3 
L 3 3 
" id="mf06588f919" style="stroke:#ff0000;"/>
    </defs>
    <g clip-path="url(#pa86a1b7526)">
     <use style="fill:#ff0000;stroke:#ff0000;" x="208.262828" xlink:href="#mf06588f919" y="319.295903"/>
     <use style="fill:#ff0000;stroke:#ff0000;" x="227.444921" xlink:href="#mf06588f919" y="327.250149"/>
     <use style="fill:#ff0000;stroke:#ff0000;" x="248.704496" xlink:href="#mf06588f919" y="327.250149"/>
     <use style="fill:#ff0000;stroke:#ff0000;" x="266.43235" xlink:href="#mf06588f919" y="332.111076"/>
     <use style="fill:#ff0000;stroke:#ff0000;" x="269.133078" xlink:href="#mf06588f919" y="332.111076"/>
     <use style="fill:#ff0000;stroke:#ff0000;" x="295.586361" xlink:href="#mf06588f919" y="332.111076"/>
     <use style="fill:#ff0000;stroke:#ff0000;" x="333.535049" xlink:href="#mf06588f919" y="332.111076"/>
     <use style="fill:#ff0000;stroke:#ff0000;" x="333.673548" xlink:href="#mf06588f919" y="332.111076"/>
     <use style="fill:#ff0000;stroke:#ff0000;" x="376.746694" xlink:href="#mf06588f919" y="332.111076"/>
     <use style="fill:#ff0000;stroke:#ff0000;" x="463.931728" xlink:href="#mf06588f919" y="332.111076"/>
     <use style="fill:#ff0000;stroke:#ff0000;" x="472.310909" xlink:href="#mf06588f919" y="332.111076"/>
    </g>
   </g>
   <g id="line2d_26">
    <path clip-path="url(#pa86a1b7526)" d="M 54.529091 42.317705 
L 55.083086 42.317705 
L 55.152336 49.70379 
L 55.290835 49.70379 
L 55.360084 60.782918 
L 55.498583 60.782918 
L 55.498583 64.47596 
L 55.983329 64.47596 
L 56.052578 75.555088 
L 57.09132 75.555088 
L 57.09132 79.248131 
L 58.33781 79.248131 
L 58.33781 82.941174 
L 59.030304 82.941174 
L 59.030304 86.634216 
L 59.307302 86.634216 
L 59.307302 90.327259 
L 59.584299 90.327259 
L 59.584299 94.020302 
L 60.623041 94.020302 
L 60.623041 97.713344 
L 61.246286 97.713344 
L 61.246286 101.406387 
L 61.592533 101.406387 
L 61.592533 105.099429 
L 62.146528 105.099429 
L 62.215778 112.485515 
L 62.839023 112.485515 
L 62.839023 116.178557 
L 63.046771 116.178557 
L 63.046771 119.8716 
L 63.877764 119.8716 
L 63.877764 127.257685 
L 64.016263 127.257685 
L 64.016263 130.950728 
L 64.778007 130.950728 
L 64.778007 134.643771 
L 64.916506 134.643771 
L 64.916506 138.336813 
L 65.055004 138.336813 
L 65.055004 142.029856 
L 65.193503 142.029856 
L 65.193503 145.722899 
L 65.470501 145.722899 
L 65.470501 149.415941 
L 65.816748 149.415941 
L 65.816748 153.108984 
L 66.093746 153.108984 
L 66.093746 156.802027 
L 66.647741 156.802027 
L 66.716991 164.188112 
L 67.409485 164.188112 
L 67.409485 167.881154 
L 68.309728 167.881154 
L 68.309728 171.574197 
L 68.932973 171.574197 
L 68.932973 178.960282 
L 69.071471 178.960282 
L 69.071471 182.653325 
L 69.27922 182.653325 
L 69.27922 186.346368 
L 70.802707 186.346368 
L 70.871957 193.732453 
L 71.010456 193.732453 
L 71.010456 201.118538 
L 71.218204 201.118538 
L 71.218204 208.504624 
L 71.495202 208.504624 
L 71.495202 212.197666 
L 71.772199 212.197666 
L 71.772199 215.890709 
L 71.910698 215.890709 
L 71.910698 219.583751 
L 72.741691 219.583751 
L 72.741691 223.276794 
L 73.018689 223.276794 
L 73.018689 226.969837 
L 75.30392 226.969837 
L 75.30392 230.662879 
L 75.788666 230.662879 
L 75.788666 234.355922 
L 75.996415 234.355922 
L 75.996415 238.048965 
L 76.55041 238.048965 
L 76.55041 241.742007 
L 77.935399 241.742007 
L 77.935399 245.43505 
L 79.528136 245.43505 
L 79.528136 249.128093 
L 79.735884 249.128093 
L 79.735884 252.821135 
L 80.082131 252.821135 
L 80.082131 256.514178 
L 81.813367 256.514178 
L 81.813367 260.207221 
L 82.436612 260.207221 
L 82.436612 263.900263 
L 85.414337 263.900263 
L 85.414337 267.593306 
L 85.552836 267.593306 
L 85.552836 271.286348 
L 88.045816 271.286348 
L 88.045816 274.979391 
L 88.392063 274.979391 
L 88.392063 278.672434 
L 88.599811 278.672434 
L 88.599811 282.365476 
L 91.508287 282.365476 
L 91.508287 286.058519 
L 98.779477 286.058519 
L 98.779477 289.751562 
L 111.86762 289.751562 
L 111.86762 293.444604 
L 112.629364 293.444604 
L 112.629364 297.137647 
L 116.645831 297.137647 
L 116.645831 300.83069 
L 131.118962 300.83069 
L 131.118962 304.523732 
L 137.351411 304.523732 
L 137.351411 308.216775 
L 151.201297 308.216775 
L 151.201297 311.909818 
L 165.743677 311.909818 
L 165.743677 315.60286 
L 181.463298 315.60286 
L 181.463298 319.295903 
L 209.024572 319.295903 
L 209.024572 323.273026 
L 215.257021 323.273026 
L 215.257021 327.250149 
L 265.878355 327.250149 
L 265.878355 332.111076 
L 472.310909 332.111076 
L 472.310909 332.111076 
" style="fill:none;stroke:#ff0000;stroke-linecap:square;stroke-width:1.5;"/>
   </g>
   <g id="line2d_27">
    <defs>
     <path d="M -3 3 
L 3 -3 
M -3 -3 
L 3 3 
" id="m0045c40116" style="stroke:#0000ff;"/>
    </defs>
    <g clip-path="url(#pa86a1b7526)">
     <use style="fill:#0000ff;stroke:#0000ff;" x="95.386255" xlink:href="#m0045c40116" y="180.513039"/>
     <use style="fill:#0000ff;stroke:#0000ff;" x="182.709788" xlink:href="#m0045c40116" y="237.658677"/>
     <use style="fill:#0000ff;stroke:#0000ff;" x="187.3495" xlink:href="#m0045c40116" y="237.658677"/>
     <use style="fill:#0000ff;stroke:#0000ff;" x="189.703981" xlink:href="#m0045c40116" y="241.699278"/>
     <use style="fill:#0000ff;stroke:#0000ff;" x="191.850713" xlink:href="#m0045c40116" y="241.699278"/>
     <use style="fill:#0000ff;stroke:#0000ff;" x="198.983404" xlink:href="#m0045c40116" y="246.009252"/>
     <use style="fill:#0000ff;stroke:#0000ff;" x="206.254595" xlink:href="#m0045c40116" y="246.009252"/>
     <use style="fill:#0000ff;stroke:#0000ff;" x="232.153882" xlink:href="#m0045c40116" y="255.267715"/>
     <use style="fill:#0000ff;stroke:#0000ff;" x="237.001342" xlink:href="#m0045c40116" y="255.267715"/>
     <use style="fill:#0000ff;stroke:#0000ff;" x="237.901585" xlink:href="#m0045c40116" y="255.267715"/>
     <use style="fill:#0000ff;stroke:#0000ff;" x="241.156308" xlink:href="#m0045c40116" y="255.267715"/>
     <use style="fill:#0000ff;stroke:#0000ff;" x="252.859462" xlink:href="#m0045c40116" y="260.778705"/>
     <use style="fill:#0000ff;stroke:#0000ff;" x="261.377142" xlink:href="#m0045c40116" y="266.579746"/>
     <use style="fill:#0000ff;stroke:#0000ff;" x="269.133078" xlink:href="#m0045c40116" y="266.579746"/>
     <use style="fill:#0000ff;stroke:#0000ff;" x="280.420735" xlink:href="#m0045c40116" y="266.579746"/>
     <use style="fill:#0000ff;stroke:#0000ff;" x="289.838658" xlink:href="#m0045c40116" y="266.579746"/>
     <use style="fill:#0000ff;stroke:#0000ff;" x="302.234306" xlink:href="#m0045c40116" y="266.579746"/>
     <use style="fill:#0000ff;stroke:#0000ff;" x="322.385891" xlink:href="#m0045c40116" y="266.579746"/>
     <use style="fill:#0000ff;stroke:#0000ff;" x="330.626573" xlink:href="#m0045c40116" y="266.579746"/>
     <use style="fill:#0000ff;stroke:#0000ff;" x="333.812047" xlink:href="#m0045c40116" y="266.579746"/>
     <use style="fill:#0000ff;stroke:#0000ff;" x="333.881296" xlink:href="#m0045c40116" y="266.579746"/>
     <use style="fill:#0000ff;stroke:#0000ff;" x="351.609151" xlink:href="#m0045c40116" y="266.579746"/>
     <use style="fill:#0000ff;stroke:#0000ff;" x="356.52586" xlink:href="#m0045c40116" y="266.579746"/>
     <use style="fill:#0000ff;stroke:#0000ff;" x="370.652744" xlink:href="#m0045c40116" y="266.579746"/>
     <use style="fill:#0000ff;stroke:#0000ff;" x="391.566072" xlink:href="#m0045c40116" y="283.982872"/>
     <use style="fill:#0000ff;stroke:#0000ff;" x="392.604814" xlink:href="#m0045c40116" y="283.982872"/>
     <use style="fill:#0000ff;stroke:#0000ff;" x="393.505056" xlink:href="#m0045c40116" y="283.982872"/>
     <use style="fill:#0000ff;stroke:#0000ff;" x="405.069711" xlink:href="#m0045c40116" y="283.982872"/>
     <use style="fill:#0000ff;stroke:#0000ff;" x="445.926876" xlink:href="#m0045c40116" y="283.982872"/>
    </g>
   </g>
   <g id="line2d_28">
    <path clip-path="url(#pa86a1b7526)" d="M 54.529091 42.317705 
L 56.052578 42.317705 
L 56.052578 49.787723 
L 56.191077 49.787723 
L 56.191077 53.522732 
L 56.398826 53.522732 
L 56.398826 57.257741 
L 56.606574 57.257741 
L 56.606574 60.99275 
L 56.883572 60.99275 
L 56.883572 64.727759 
L 59.722798 64.727759 
L 59.722798 68.462768 
L 62.285027 68.462768 
L 62.285027 72.197777 
L 64.085512 72.197777 
L 64.085512 75.932786 
L 64.43176 75.932786 
L 64.43176 79.667795 
L 64.778007 79.667795 
L 64.778007 83.402804 
L 65.955247 83.402804 
L 65.955247 87.137813 
L 67.617233 87.137813 
L 67.617233 90.872822 
L 68.309728 90.872822 
L 68.309728 94.607831 
L 68.863723 94.607831 
L 68.932973 102.077849 
L 69.27922 102.077849 
L 69.27922 105.812858 
L 71.356703 105.812858 
L 71.356703 109.547867 
L 73.572684 109.547867 
L 73.572684 113.282876 
L 74.334428 113.282876 
L 74.334428 117.017885 
L 74.680675 117.017885 
L 74.680675 120.752894 
L 75.026923 120.752894 
L 75.026923 124.487903 
L 75.996415 124.487903 
L 75.996415 128.222912 
L 76.55041 128.222912 
L 76.55041 131.957921 
L 76.758158 131.957921 
L 76.758158 135.69293 
L 77.242904 135.69293 
L 77.242904 143.162949 
L 79.251138 143.162949 
L 79.251138 146.897958 
L 82.021115 146.897958 
L 82.090365 154.367976 
L 82.228863 154.367976 
L 82.228863 158.102985 
L 84.514095 158.102985 
L 84.514095 161.837994 
L 85.137339 161.837994 
L 85.137339 165.573003 
L 88.322813 165.573003 
L 88.322813 169.308012 
L 88.66906 169.308012 
L 88.66906 173.043021 
L 90.469546 173.043021 
L 90.538795 180.513039 
L 96.217248 180.513039 
L 96.217248 184.322748 
L 100.233715 184.322748 
L 100.233715 188.132457 
L 101.826452 188.132457 
L 101.826452 191.942167 
L 108.128151 191.942167 
L 108.128151 195.751876 
L 110.69038 195.751876 
L 110.69038 199.561585 
L 112.767863 199.561585 
L 112.767863 203.371294 
L 113.183359 203.371294 
L 113.183359 207.181003 
L 114.152851 207.181003 
L 114.152851 210.990713 
L 118.654064 210.990713 
L 118.654064 214.800422 
L 121.008545 214.800422 
L 121.008545 218.610131 
L 129.803223 218.610131 
L 129.803223 222.41984 
L 138.5979 222.41984 
L 138.5979 226.22955 
L 156.118006 226.22955 
L 156.118006 230.039259 
L 162.9737 230.039259 
L 162.9737 233.848968 
L 179.108818 233.848968 
L 179.108818 237.658677 
L 187.557248 237.658677 
L 187.557248 241.699278 
L 198.221661 241.699278 
L 198.221661 246.009252 
L 207.362585 246.009252 
L 207.362585 250.638483 
L 209.509318 250.638483 
L 209.509318 255.267715 
L 249.46624 255.267715 
L 249.46624 260.778705 
L 258.122419 260.778705 
L 258.122419 266.579746 
L 377.716186 266.579746 
L 377.716186 283.982872 
L 445.926876 283.982872 
L 445.926876 283.982872 
" style="fill:none;stroke:#0000ff;stroke-linecap:square;stroke-width:1.5;"/>
   </g>
   <g id="patch_3">
    <path d="M 33.64 366.5095 
L 33.64 26.88 
" style="fill:none;stroke:#000000;stroke-linecap:square;stroke-linejoin:miter;stroke-width:0.8;"/>
   </g>
   <g id="patch_4">
    <path d="M 493.2 366.5095 
L 493.2 26.88 
" style="fill:none;stroke:#000000;stroke-linecap:square;stroke-linejoin:miter;stroke-width:0.8;"/>
   </g>
   <g id="patch_5">
    <path d="M 33.64 366.5095 
L 493.2 366.5095 
" style="fill:none;stroke:#000000;stroke-linecap:square;stroke-linejoin:miter;stroke-width:0.8;"/>
   </g>
   <g id="patch_6">
    <path d="M 33.64 26.88 
L 493.2 26.88 
" style="fill:none;stroke:#000000;stroke-linecap:square;stroke-linejoin:miter;stroke-width:0.8;"/>
   </g>
   <g id="text_14">
    <text style="font-family:DejaVu Sans;font-size:12px;font-stretch:normal;font-style:normal;font-weight:normal;text-anchor:middle;" transform="rotate(-0, 263.42, 20.88)" x="263.42" y="20.88">Survival curves - model_type: ridge_cph_lifelines</text>
   </g>
   <g id="legend_1">
    <g id="patch_7">
     <path d="M 330.451562 64.23625 
L 486.2 64.23625 
Q 488.2 64.23625 488.2 62.23625 
L 488.2 33.88 
Q 488.2 31.88 486.2 31.88 
L 330.451562 31.88 
Q 328.451562 31.88 328.451562 33.88 
L 328.451562 62.23625 
Q 328.451562 64.23625 330.451562 64.23625 
z
" style="fill:#ffffff;opacity:0.8;stroke:#cccccc;stroke-linejoin:miter;"/>
    </g>
    <g id="line2d_29">
     <path d="M 332.451562 39.978437 
L 352.451562 39.978437 
" style="fill:none;stroke:#ff0000;stroke-linecap:square;stroke-width:1.5;"/>
    </g>
    <g id="line2d_30"/>
    <g id="text_15">
     <text style="font-family:DejaVu Sans;font-size:10px;font-stretch:normal;font-style:normal;font-weight:normal;text-anchor:start;" transform="rotate(-0, 360.451562, 43.478437)" x="360.451562" y="43.478437">high. risk (n:88 c:11)</text>
    </g>
    <g id="line2d_31">
     <path d="M 332.451562 54.656563 
L 352.451562 54.656563 
" style="fill:none;stroke:#0000ff;stroke-linecap:square;stroke-width:1.5;"/>
    </g>
    <g id="line2d_32"/>
    <g id="text_16">
     <text style="font-family:DejaVu Sans;font-size:10px;font-stretch:normal;font-style:normal;font-weight:normal;text-anchor:start;" transform="rotate(-0, 360.451562, 58.156563)" x="360.451562" y="58.156563">low risk. risk (n:89 c:29 )</text>
    </g>
   </g>
  </g>
 </g>
 <defs>
  <clipPath id="pa86a1b7526">
   <rect height="339.6295" width="459.56" x="33.64" y="26.88"/>
  </clipPath>
 </defs>
</svg>
