<?xml version="1.0" encoding="utf-8" standalone="no"?>
<!DOCTYPE svg PUBLIC "-//W3C//DTD SVG 1.1//EN"
  "http://www.w3.org/Graphics/SVG/1.1/DTD/svg11.dtd">
<!-- Created with matplotlib (https://matplotlib.org/) -->
<svg height="432pt" version="1.1" viewBox="0 0 504 432" width="504pt" xmlns="http://www.w3.org/2000/svg" xmlns:xlink="http://www.w3.org/1999/xlink">
 <metadata>
  <rdf:RDF xmlns:cc="http://creativecommons.org/ns#" xmlns:dc="http://purl.org/dc/elements/1.1/" xmlns:rdf="http://www.w3.org/1999/02/22-rdf-syntax-ns#">
   <cc:Work>
    <dc:type rdf:resource="http://purl.org/dc/dcmitype/StillImage"/>
    <dc:date>2022-11-28T13:22:51.486511</dc:date>
    <dc:format>image/svg+xml</dc:format>
    <dc:creator>
     <cc:Agent>
      <dc:title>Matplotlib v3.3.4, https://matplotlib.org/</dc:title>
     </cc:Agent>
    </dc:creator>
   </cc:Work>
  </rdf:RDF>
 </metadata>
 <defs>
  <style type="text/css">*{stroke-linecap:butt;stroke-linejoin:round;}</style>
 </defs>
 <g id="figure_1">
  <g id="patch_1">
   <path d="M 0 432 
L 504 432 
L 504 0 
L 0 0 
z
" style="fill:#ffffff;"/>
  </g>
  <g id="axes_1">
   <g id="patch_2">
    <path d="M 33.64 366.5095 
L 493.2 366.5095 
L 493.2 26.88 
L 33.64 26.88 
z
" style="fill:#ffffff;"/>
   </g>
   <g id="PolyCollection_1">
    <defs>
     <path d="M 54.529091 -389.682295 
L 54.529091 -389.682295 
L 55.083086 -389.682295 
L 55.083086 -363.528998 
L 55.152336 -363.528998 
L 55.152336 -360.20783 
L 55.290835 -360.20783 
L 55.290835 -355.460728 
L 55.983329 -355.460728 
L 55.983329 -350.554906 
L 56.052578 -350.554906 
L 56.052578 -336.107024 
L 56.398826 -336.107024 
L 56.398826 -331.425786 
L 58.33781 -331.425786 
L 58.33781 -326.806943 
L 59.030304 -326.806943 
L 59.030304 -322.245404 
L 59.307302 -322.245404 
L 59.307302 -317.736418 
L 59.584299 -317.736418 
L 59.584299 -313.275749 
L 59.722798 -313.275749 
L 59.722798 -308.859682 
L 60.623041 -308.859682 
L 60.623041 -304.484979 
L 61.246286 -304.484979 
L 61.246286 -300.148816 
L 61.592533 -300.148816 
L 61.592533 -295.84873 
L 62.146528 -295.84873 
L 62.146528 -291.582559 
L 62.215778 -291.582559 
L 62.215778 -287.348406 
L 62.285027 -287.348406 
L 62.285027 -283.144595 
L 62.839023 -283.144595 
L 62.839023 -278.969641 
L 63.046771 -278.969641 
L 63.046771 -274.822225 
L 63.877764 -274.822225 
L 63.877764 -266.605433 
L 64.016263 -266.605433 
L 64.016263 -262.534065 
L 64.43176 -262.534065 
L 64.43176 -258.486225 
L 64.778007 -258.486225 
L 64.778007 -254.461155 
L 65.055004 -254.461155 
L 65.055004 -250.458171 
L 65.193503 -250.458171 
L 65.193503 -246.476661 
L 66.647741 -246.476661 
L 66.647741 -242.516071 
L 68.309728 -242.516071 
L 68.309728 -238.575905 
L 68.863723 -238.575905 
L 68.863723 -234.655716 
L 68.932973 -234.655716 
L 68.932973 -226.873716 
L 69.071471 -226.873716 
L 69.071471 -223.01123 
L 70.802707 -223.01123 
L 70.802707 -219.167365 
L 70.871957 -219.167365 
L 70.871957 -215.341875 
L 71.010456 -215.341875 
L 71.010456 -207.745192 
L 71.218204 -207.745192 
L 71.218204 -200.219825 
L 71.356703 -200.219825 
L 71.356703 -196.483583 
L 71.495202 -196.483583 
L 71.495202 -192.764863 
L 72.741691 -192.764863 
L 72.741691 -189.063616 
L 73.572684 -189.063616 
L 73.572684 -185.37982 
L 74.334428 -185.37982 
L 74.334428 -181.713477 
L 75.026923 -181.713477 
L 75.026923 -178.064613 
L 75.30392 -178.064613 
L 75.30392 -174.433283 
L 75.788666 -174.433283 
L 75.788666 -170.819565 
L 75.996415 -170.819565 
L 75.996415 -167.223562 
L 76.55041 -167.223562 
L 76.55041 -163.645406 
L 77.242904 -163.645406 
L 77.242904 -156.543302 
L 77.935399 -156.543302 
L 77.935399 -153.019761 
L 79.251138 -153.019761 
L 79.251138 -149.514883 
L 80.082131 -149.514883 
L 80.082131 -146.028954 
L 81.813367 -146.028954 
L 81.813367 -142.562295 
L 82.021115 -142.562295 
L 82.021115 -139.115266 
L 82.090365 -139.115266 
L 82.090365 -135.688269 
L 82.436612 -135.688269 
L 82.436612 -132.281754 
L 84.514095 -132.281754 
L 84.514095 -128.896218 
L 85.414337 -128.896218 
L 85.414337 -125.532217 
L 85.552836 -125.532217 
L 85.552836 -122.190365 
L 88.392063 -122.190365 
L 88.392063 -118.871345 
L 88.599811 -118.871345 
L 88.599811 -115.575918 
L 108.128151 -115.575918 
L 108.128151 -112.304927 
L 111.86762 -112.304927 
L 111.86762 -109.059314 
L 113.183359 -109.059314 
L 113.183359 -105.840131 
L 116.645831 -105.840131 
L 116.645831 -102.648558 
L 131.118962 -102.648558 
L 131.118962 -99.485917 
L 137.351411 -99.485917 
L 137.351411 -96.353704 
L 165.743677 -96.353704 
L 165.743677 -93.253614 
L 206.254595 -93.253614 
L 206.254595 -93.253614 
L 208.262828 -93.253614 
L 208.262828 -93.253614 
L 209.024572 -93.253614 
L 209.024572 -89.701518 
L 215.257021 -89.701518 
L 215.257021 -86.209198 
L 237.901585 -86.209198 
L 237.901585 -86.209198 
L 241.156308 -86.209198 
L 241.156308 -86.209198 
L 248.704496 -86.209198 
L 248.704496 -86.209198 
L 252.859462 -86.209198 
L 252.859462 -86.209198 
L 265.878355 -86.209198 
L 265.878355 -80.928205 
L 266.43235 -80.928205 
L 266.43235 -80.928205 
L 269.133078 -80.928205 
L 269.133078 -80.928205 
L 302.234306 -80.928205 
L 302.234306 -80.928205 
L 322.385891 -80.928205 
L 322.385891 -80.928205 
L 356.52586 -80.928205 
L 356.52586 -80.928205 
L 376.746694 -80.928205 
L 376.746694 -80.928205 
L 405.069711 -80.928205 
L 405.069711 -80.928205 
L 472.310909 -80.928205 
L 472.310909 -80.928205 
L 472.310909 -133.937313 
L 472.310909 -133.937313 
L 472.310909 -133.937313 
L 405.069711 -133.937313 
L 405.069711 -133.937313 
L 376.746694 -133.937313 
L 376.746694 -133.937313 
L 356.52586 -133.937313 
L 356.52586 -133.937313 
L 322.385891 -133.937313 
L 322.385891 -133.937313 
L 302.234306 -133.937313 
L 302.234306 -133.937313 
L 269.133078 -133.937313 
L 269.133078 -133.937313 
L 266.43235 -133.937313 
L 266.43235 -133.937313 
L 265.878355 -133.937313 
L 265.878355 -139.795647 
L 252.859462 -139.795647 
L 252.859462 -139.795647 
L 248.704496 -139.795647 
L 248.704496 -139.795647 
L 241.156308 -139.795647 
L 241.156308 -139.795647 
L 237.901585 -139.795647 
L 237.901585 -139.795647 
L 215.257021 -139.795647 
L 215.257021 -144.479772 
L 209.024572 -144.479772 
L 209.024572 -149.113599 
L 208.262828 -149.113599 
L 208.262828 -149.113599 
L 206.254595 -149.113599 
L 206.254595 -149.113599 
L 165.743677 -149.113599 
L 165.743677 -153.332844 
L 137.351411 -153.332844 
L 137.351411 -157.522855 
L 131.118962 -157.522855 
L 131.118962 -161.685105 
L 116.645831 -161.685105 
L 116.645831 -165.820893 
L 113.183359 -165.820893 
L 113.183359 -169.931373 
L 111.86762 -169.931373 
L 111.86762 -174.017568 
L 108.128151 -174.017568 
L 108.128151 -178.080393 
L 88.599811 -178.080393 
L 88.599811 -182.120666 
L 88.392063 -182.120666 
L 88.392063 -186.139119 
L 85.552836 -186.139119 
L 85.552836 -190.13641 
L 85.414337 -190.13641 
L 85.414337 -194.113129 
L 84.514095 -194.113129 
L 84.514095 -198.069806 
L 82.436612 -198.069806 
L 82.436612 -202.006916 
L 82.090365 -202.006916 
L 82.090365 -205.924887 
L 82.021115 -205.924887 
L 82.021115 -209.824099 
L 81.813367 -209.824099 
L 81.813367 -213.704892 
L 80.082131 -213.704892 
L 80.082131 -217.56757 
L 79.251138 -217.56757 
L 79.251138 -221.412398 
L 77.935399 -221.412398 
L 77.935399 -225.239611 
L 77.242904 -225.239611 
L 77.242904 -232.84197 
L 76.55041 -232.84197 
L 76.55041 -236.617435 
L 75.996415 -236.617435 
L 75.996415 -240.375923 
L 75.788666 -240.375923 
L 75.788666 -244.117526 
L 75.30392 -244.117526 
L 75.30392 -247.842312 
L 75.026923 -247.842312 
L 75.026923 -251.550322 
L 74.334428 -251.550322 
L 74.334428 -255.241575 
L 73.572684 -255.241575 
L 73.572684 -258.916063 
L 72.741691 -258.916063 
L 72.741691 -262.573755 
L 71.495202 -262.573755 
L 71.495202 -266.214598 
L 71.356703 -266.214598 
L 71.356703 -269.838509 
L 71.218204 -269.838509 
L 71.218204 -277.035092 
L 71.010456 -277.035092 
L 71.010456 -284.162338 
L 70.871957 -284.162338 
L 70.871957 -287.699472 
L 70.802707 -287.699472 
L 70.802707 -291.218625 
L 69.071471 -291.218625 
L 69.071471 -294.719516 
L 68.932973 -294.719516 
L 68.932973 -301.665197 
L 68.863723 -301.665197 
L 68.863723 -305.109231 
L 68.309728 -305.109231 
L 68.309728 -308.533482 
L 66.647741 -308.533482 
L 66.647741 -311.937455 
L 65.193503 -311.937455 
L 65.193503 -315.320599 
L 65.055004 -315.320599 
L 65.055004 -318.682301 
L 64.778007 -318.682301 
L 64.778007 -322.021881 
L 64.43176 -322.021881 
L 64.43176 -325.33858 
L 64.016263 -325.33858 
L 64.016263 -328.631551 
L 63.877764 -328.631551 
L 63.877764 -335.142422 
L 63.046771 -335.142422 
L 63.046771 -338.358073 
L 62.839023 -338.358073 
L 62.839023 -341.545464 
L 62.285027 -341.545464 
L 62.285027 -344.703074 
L 62.215778 -344.703074 
L 62.215778 -347.829174 
L 62.146528 -347.829174 
L 62.146528 -350.921783 
L 61.592533 -350.921783 
L 61.592533 -353.978617 
L 61.246286 -353.978617 
L 61.246286 -356.997022 
L 60.623041 -356.997022 
L 60.623041 -359.97389 
L 59.722798 -359.97389 
L 59.722798 -362.905541 
L 59.584299 -362.905541 
L 59.584299 -365.787566 
L 59.307302 -365.787566 
L 59.307302 -368.614608 
L 59.030304 -368.614608 
L 59.030304 -371.380056 
L 58.33781 -371.380056 
L 58.33781 -374.075579 
L 56.398826 -374.075579 
L 56.398826 -376.690431 
L 56.052578 -376.690431 
L 56.052578 -383.877346 
L 55.983329 -383.877346 
L 55.983329 -385.95106 
L 55.290835 -385.95106 
L 55.290835 -387.759246 
L 55.152336 -387.759246 
L 55.152336 -389.142696 
L 55.083086 -389.142696 
L 55.083086 -389.682295 
L 54.529091 -389.682295 
z
" id="m3587c5f531" style="stroke:#ff0000;stroke-opacity:0.25;"/>
    </defs>
    <g clip-path="url(#p4b90c4d8f1)">
     <use style="fill:#ff0000;fill-opacity:0.25;stroke:#ff0000;stroke-opacity:0.25;" x="0" xlink:href="#m3587c5f531" y="432"/>
    </g>
   </g>
   <g id="PolyCollection_2">
    <defs>
     <path d="M 54.529091 -389.682295 
L 54.529091 -389.682295 
L 55.360084 -389.682295 
L 55.360084 -359.884325 
L 55.498583 -359.884325 
L 55.498583 -355.085875 
L 56.052578 -355.085875 
L 56.052578 -350.127318 
L 56.191077 -350.127318 
L 56.191077 -345.19373 
L 56.606574 -345.19373 
L 56.606574 -340.324358 
L 56.883572 -340.324358 
L 56.883572 -335.525606 
L 57.09132 -335.525606 
L 57.09132 -330.794963 
L 64.085512 -330.794963 
L 64.085512 -326.127576 
L 64.778007 -326.127576 
L 64.778007 -321.518292 
L 64.916506 -321.518292 
L 64.916506 -316.962304 
L 65.470501 -316.962304 
L 65.470501 -312.455326 
L 65.816748 -312.455326 
L 65.816748 -307.993599 
L 65.955247 -307.993599 
L 65.955247 -303.573847 
L 66.093746 -303.573847 
L 66.093746 -299.193216 
L 66.716991 -299.193216 
L 66.716991 -294.849213 
L 67.409485 -294.849213 
L 67.409485 -290.539656 
L 67.617233 -290.539656 
L 67.617233 -286.262624 
L 68.309728 -286.262624 
L 68.309728 -282.016425 
L 68.932973 -282.016425 
L 68.932973 -277.799559 
L 69.27922 -277.799559 
L 69.27922 -269.448644 
L 71.772199 -269.448644 
L 71.772199 -265.312349 
L 71.910698 -265.312349 
L 71.910698 -261.20086 
L 73.018689 -261.20086 
L 73.018689 -257.113327 
L 74.680675 -257.113327 
L 74.680675 -253.048986 
L 75.996415 -253.048986 
L 75.996415 -249.00715 
L 76.55041 -249.00715 
L 76.55041 -244.987203 
L 76.758158 -244.987203 
L 76.758158 -240.98859 
L 79.528136 -240.98859 
L 79.528136 -237.010813 
L 79.735884 -237.010813 
L 79.735884 -233.053426 
L 82.228863 -233.053426 
L 82.228863 -229.11603 
L 85.137339 -229.11603 
L 85.137339 -225.198269 
L 88.045816 -225.198269 
L 88.045816 -221.299828 
L 88.322813 -221.299828 
L 88.322813 -217.420429 
L 88.66906 -217.420429 
L 88.66906 -213.559828 
L 90.469546 -213.559828 
L 90.469546 -209.717818 
L 90.538795 -209.717818 
L 90.538795 -205.894219 
L 91.508287 -205.894219 
L 91.508287 -202.088884 
L 95.386255 -202.088884 
L 95.386255 -202.088884 
L 96.217248 -202.088884 
L 96.217248 -198.204554 
L 98.779477 -198.204554 
L 98.779477 -194.340197 
L 100.233715 -194.340197 
L 100.233715 -190.495684 
L 101.826452 -190.495684 
L 101.826452 -186.670923 
L 110.69038 -186.670923 
L 110.69038 -182.865854 
L 112.629364 -182.865854 
L 112.629364 -179.080449 
L 112.767863 -179.080449 
L 112.767863 -175.314715 
L 114.152851 -175.314715 
L 114.152851 -171.568692 
L 118.654064 -171.568692 
L 118.654064 -167.842453 
L 121.008545 -167.842453 
L 121.008545 -164.136103 
L 129.803223 -164.136103 
L 129.803223 -160.449783 
L 138.5979 -160.449783 
L 138.5979 -156.783668 
L 151.201297 -156.783668 
L 151.201297 -153.137972 
L 156.118006 -153.137972 
L 156.118006 -149.512946 
L 162.9737 -149.512946 
L 162.9737 -145.908881 
L 179.108818 -145.908881 
L 179.108818 -142.326113 
L 181.463298 -142.326113 
L 181.463298 -138.765023 
L 182.709788 -138.765023 
L 182.709788 -138.765023 
L 187.3495 -138.765023 
L 187.3495 -138.765023 
L 187.557248 -138.765023 
L 187.557248 -134.924047 
L 189.703981 -134.924047 
L 189.703981 -134.924047 
L 191.850713 -134.924047 
L 191.850713 -134.924047 
L 198.221661 -134.924047 
L 198.221661 -130.747011 
L 198.983404 -130.747011 
L 198.983404 -130.747011 
L 207.362585 -130.747011 
L 207.362585 -126.396486 
L 209.509318 -126.396486 
L 209.509318 -122.097356 
L 227.444921 -122.097356 
L 227.444921 -122.097356 
L 232.153882 -122.097356 
L 232.153882 -122.097356 
L 237.001342 -122.097356 
L 237.001342 -122.097356 
L 249.46624 -122.097356 
L 249.46624 -116.986051 
L 258.122419 -116.986051 
L 258.122419 -111.971952 
L 261.377142 -111.971952 
L 261.377142 -111.971952 
L 280.420735 -111.971952 
L 280.420735 -111.971952 
L 289.838658 -111.971952 
L 289.838658 -111.971952 
L 295.586361 -111.971952 
L 295.586361 -111.971952 
L 330.626573 -111.971952 
L 330.626573 -111.971952 
L 333.535049 -111.971952 
L 333.535049 -111.971952 
L 333.673548 -111.971952 
L 333.673548 -111.971952 
L 333.812047 -111.971952 
L 333.812047 -111.971952 
L 333.881296 -111.971952 
L 333.881296 -111.971952 
L 351.609151 -111.971952 
L 351.609151 -111.971952 
L 370.652744 -111.971952 
L 370.652744 -111.971952 
L 377.716186 -111.971952 
L 377.716186 -92.764677 
L 391.566072 -92.764677 
L 391.566072 -92.764677 
L 392.604814 -92.764677 
L 392.604814 -92.764677 
L 393.505056 -92.764677 
L 393.505056 -92.764677 
L 445.926876 -92.764677 
L 445.926876 -92.764677 
L 463.931728 -92.764677 
L 463.931728 -92.764677 
L 463.931728 -169.197918 
L 463.931728 -169.197918 
L 463.931728 -169.197918 
L 445.926876 -169.197918 
L 445.926876 -169.197918 
L 393.505056 -169.197918 
L 393.505056 -169.197918 
L 392.604814 -169.197918 
L 392.604814 -169.197918 
L 391.566072 -169.197918 
L 391.566072 -169.197918 
L 377.716186 -169.197918 
L 377.716186 -177.344502 
L 370.652744 -177.344502 
L 370.652744 -177.344502 
L 351.609151 -177.344502 
L 351.609151 -177.344502 
L 333.881296 -177.344502 
L 333.881296 -177.344502 
L 333.812047 -177.344502 
L 333.812047 -177.344502 
L 333.673548 -177.344502 
L 333.673548 -177.344502 
L 333.535049 -177.344502 
L 333.535049 -177.344502 
L 330.626573 -177.344502 
L 330.626573 -177.344502 
L 295.586361 -177.344502 
L 295.586361 -177.344502 
L 289.838658 -177.344502 
L 289.838658 -177.344502 
L 280.420735 -177.344502 
L 280.420735 -177.344502 
L 261.377142 -177.344502 
L 261.377142 -177.344502 
L 258.122419 -177.344502 
L 258.122419 -182.745126 
L 249.46624 -182.745126 
L 249.46624 -188.071768 
L 237.001342 -188.071768 
L 237.001342 -188.071768 
L 232.153882 -188.071768 
L 232.153882 -188.071768 
L 227.444921 -188.071768 
L 227.444921 -188.071768 
L 209.509318 -188.071768 
L 209.509318 -192.823384 
L 207.362585 -192.823384 
L 207.362585 -197.533737 
L 198.983404 -197.533737 
L 198.983404 -197.533737 
L 198.221661 -197.533737 
L 198.221661 -202.06679 
L 191.850713 -202.06679 
L 191.850713 -202.06679 
L 189.703981 -202.06679 
L 189.703981 -202.06679 
L 187.557248 -202.06679 
L 187.557248 -206.322327 
L 187.3495 -206.322327 
L 187.3495 -206.322327 
L 182.709788 -206.322327 
L 182.709788 -206.322327 
L 181.463298 -206.322327 
L 181.463298 -210.33927 
L 179.108818 -210.33927 
L 179.108818 -214.336125 
L 162.9737 -214.336125 
L 162.9737 -218.313222 
L 156.118006 -218.313222 
L 156.118006 -222.270851 
L 151.201297 -222.270851 
L 151.201297 -226.209265 
L 138.5979 -226.209265 
L 138.5979 -230.128679 
L 129.803223 -230.128679 
L 129.803223 -234.029275 
L 121.008545 -234.029275 
L 121.008545 -237.911203 
L 118.654064 -237.911203 
L 118.654064 -241.774582 
L 114.152851 -241.774582 
L 114.152851 -245.619499 
L 112.767863 -245.619499 
L 112.767863 -249.446015 
L 112.629364 -249.446015 
L 112.629364 -253.254159 
L 110.69038 -253.254159 
L 110.69038 -257.043932 
L 101.826452 -257.043932 
L 101.826452 -260.815309 
L 100.233715 -260.815309 
L 100.233715 -264.568233 
L 98.779477 -264.568233 
L 98.779477 -268.30262 
L 96.217248 -268.30262 
L 96.217248 -272.018356 
L 95.386255 -272.018356 
L 95.386255 -272.018356 
L 91.508287 -272.018356 
L 91.508287 -275.654677 
L 90.538795 -275.654677 
L 90.538795 -279.273257 
L 90.469546 -279.273257 
L 90.469546 -282.873916 
L 88.66906 -282.873916 
L 88.66906 -286.45644 
L 88.322813 -286.45644 
L 88.322813 -290.020584 
L 88.045816 -290.020584 
L 88.045816 -293.566069 
L 85.137339 -293.566069 
L 85.137339 -297.092579 
L 82.228863 -297.092579 
L 82.228863 -300.599757 
L 79.735884 -300.599757 
L 79.735884 -304.087205 
L 79.528136 -304.087205 
L 79.528136 -307.554476 
L 76.758158 -307.554476 
L 76.758158 -311.001075 
L 76.55041 -311.001075 
L 76.55041 -314.426448 
L 75.996415 -314.426448 
L 75.996415 -317.82998 
L 74.680675 -317.82998 
L 74.680675 -321.210985 
L 73.018689 -321.210985 
L 73.018689 -324.568698 
L 71.910698 -324.568698 
L 71.910698 -327.902268 
L 71.772199 -327.902268 
L 71.772199 -331.210742 
L 69.27922 -331.210742 
L 69.27922 -337.747997 
L 68.932973 -337.747997 
L 68.932973 -340.974222 
L 68.309728 -340.974222 
L 68.309728 -344.170193 
L 67.617233 -344.170193 
L 67.617233 -347.334161 
L 67.409485 -347.334161 
L 67.409485 -350.464125 
L 66.716991 -350.464125 
L 66.716991 -353.557774 
L 66.093746 -353.557774 
L 66.093746 -356.612427 
L 65.955247 -356.612427 
L 65.955247 -359.62494 
L 65.816748 -359.62494 
L 65.816748 -362.591592 
L 65.470501 -362.591592 
L 65.470501 -365.507923 
L 64.916506 -365.507923 
L 64.916506 -368.368516 
L 64.778007 -368.368516 
L 64.778007 -371.166683 
L 64.085512 -371.166683 
L 64.085512 -373.893997 
L 57.09132 -373.893997 
L 57.09132 -376.53959 
L 56.883572 -376.53959 
L 56.883572 -379.089009 
L 56.606574 -379.089009 
L 56.606574 -381.522291 
L 56.191077 -381.522291 
L 56.191077 -383.810421 
L 56.052578 -383.810421 
L 56.052578 -385.908161 
L 55.498583 -385.908161 
L 55.498583 -387.737205 
L 55.360084 -387.737205 
L 55.360084 -389.682295 
L 54.529091 -389.682295 
z
" id="m24ab29e4f8" style="stroke:#0000ff;stroke-opacity:0.25;"/>
    </defs>
    <g clip-path="url(#p4b90c4d8f1)">
     <use style="fill:#0000ff;fill-opacity:0.25;stroke:#0000ff;stroke-opacity:0.25;" x="0" xlink:href="#m24ab29e4f8" y="432"/>
    </g>
   </g>
   <g id="matplotlib.axis_1">
    <g id="xtick_1">
     <g id="line2d_1">
      <path clip-path="url(#p4b90c4d8f1)" d="M 54.529091 366.5095 
L 54.529091 26.88 
" style="fill:none;stroke:#b0b0b0;stroke-dasharray:2.96,1.28;stroke-dashoffset:0;stroke-opacity:0.5;stroke-width:0.8;"/>
     </g>
     <g id="line2d_2">
      <defs>
       <path d="M 0 0 
L 0 3.5 
" id="mf84c2d0515" style="stroke:#000000;stroke-width:0.8;"/>
      </defs>
      <g>
       <use style="stroke:#000000;stroke-width:0.8;" x="54.529091" xlink:href="#mf84c2d0515" y="366.5095"/>
      </g>
     </g>
     <g id="text_1">
      <text style="font-family:DejaVu Sans;font-size:10px;font-stretch:normal;font-style:normal;font-weight:normal;text-anchor:middle;" transform="rotate(-0, 54.529091, 381.107937)" x="54.529091" y="381.107937">0</text>
     </g>
    </g>
    <g id="xtick_2">
     <g id="line2d_3">
      <path clip-path="url(#p4b90c4d8f1)" d="M 123.778522 366.5095 
L 123.778522 26.88 
" style="fill:none;stroke:#b0b0b0;stroke-dasharray:2.96,1.28;stroke-dashoffset:0;stroke-opacity:0.5;stroke-width:0.8;"/>
     </g>
     <g id="line2d_4">
      <g>
       <use style="stroke:#000000;stroke-width:0.8;" x="123.778522" xlink:href="#mf84c2d0515" y="366.5095"/>
      </g>
     </g>
     <g id="text_2">
      <text style="font-family:DejaVu Sans;font-size:10px;font-stretch:normal;font-style:normal;font-weight:normal;text-anchor:middle;" transform="rotate(-0, 123.778522, 381.107937)" x="123.778522" y="381.107937">1000</text>
     </g>
    </g>
    <g id="xtick_3">
     <g id="line2d_5">
      <path clip-path="url(#p4b90c4d8f1)" d="M 193.027953 366.5095 
L 193.027953 26.88 
" style="fill:none;stroke:#b0b0b0;stroke-dasharray:2.96,1.28;stroke-dashoffset:0;stroke-opacity:0.5;stroke-width:0.8;"/>
     </g>
     <g id="line2d_6">
      <g>
       <use style="stroke:#000000;stroke-width:0.8;" x="193.027953" xlink:href="#mf84c2d0515" y="366.5095"/>
      </g>
     </g>
     <g id="text_3">
      <text style="font-family:DejaVu Sans;font-size:10px;font-stretch:normal;font-style:normal;font-weight:normal;text-anchor:middle;" transform="rotate(-0, 193.027953, 381.107937)" x="193.027953" y="381.107937">2000</text>
     </g>
    </g>
    <g id="xtick_4">
     <g id="line2d_7">
      <path clip-path="url(#p4b90c4d8f1)" d="M 262.277384 366.5095 
L 262.277384 26.88 
" style="fill:none;stroke:#b0b0b0;stroke-dasharray:2.96,1.28;stroke-dashoffset:0;stroke-opacity:0.5;stroke-width:0.8;"/>
     </g>
     <g id="line2d_8">
      <g>
       <use style="stroke:#000000;stroke-width:0.8;" x="262.277384" xlink:href="#mf84c2d0515" y="366.5095"/>
      </g>
     </g>
     <g id="text_4">
      <text style="font-family:DejaVu Sans;font-size:10px;font-stretch:normal;font-style:normal;font-weight:normal;text-anchor:middle;" transform="rotate(-0, 262.277384, 381.107937)" x="262.277384" y="381.107937">3000</text>
     </g>
    </g>
    <g id="xtick_5">
     <g id="line2d_9">
      <path clip-path="url(#p4b90c4d8f1)" d="M 331.526816 366.5095 
L 331.526816 26.88 
" style="fill:none;stroke:#b0b0b0;stroke-dasharray:2.96,1.28;stroke-dashoffset:0;stroke-opacity:0.5;stroke-width:0.8;"/>
     </g>
     <g id="line2d_10">
      <g>
       <use style="stroke:#000000;stroke-width:0.8;" x="331.526816" xlink:href="#mf84c2d0515" y="366.5095"/>
      </g>
     </g>
     <g id="text_5">
      <text style="font-family:DejaVu Sans;font-size:10px;font-stretch:normal;font-style:normal;font-weight:normal;text-anchor:middle;" transform="rotate(-0, 331.526816, 381.107937)" x="331.526816" y="381.107937">4000</text>
     </g>
    </g>
    <g id="xtick_6">
     <g id="line2d_11">
      <path clip-path="url(#p4b90c4d8f1)" d="M 400.776247 366.5095 
L 400.776247 26.88 
" style="fill:none;stroke:#b0b0b0;stroke-dasharray:2.96,1.28;stroke-dashoffset:0;stroke-opacity:0.5;stroke-width:0.8;"/>
     </g>
     <g id="line2d_12">
      <g>
       <use style="stroke:#000000;stroke-width:0.8;" x="400.776247" xlink:href="#mf84c2d0515" y="366.5095"/>
      </g>
     </g>
     <g id="text_6">
      <text style="font-family:DejaVu Sans;font-size:10px;font-stretch:normal;font-style:normal;font-weight:normal;text-anchor:middle;" transform="rotate(-0, 400.776247, 381.107937)" x="400.776247" y="381.107937">5000</text>
     </g>
    </g>
    <g id="xtick_7">
     <g id="line2d_13">
      <path clip-path="url(#p4b90c4d8f1)" d="M 470.025678 366.5095 
L 470.025678 26.88 
" style="fill:none;stroke:#b0b0b0;stroke-dasharray:2.96,1.28;stroke-dashoffset:0;stroke-opacity:0.5;stroke-width:0.8;"/>
     </g>
     <g id="line2d_14">
      <g>
       <use style="stroke:#000000;stroke-width:0.8;" x="470.025678" xlink:href="#mf84c2d0515" y="366.5095"/>
      </g>
     </g>
     <g id="text_7">
      <text style="font-family:DejaVu Sans;font-size:10px;font-stretch:normal;font-style:normal;font-weight:normal;text-anchor:middle;" transform="rotate(-0, 470.025678, 381.107937)" x="470.025678" y="381.107937">6000</text>
     </g>
    </g>
    <g id="text_8">
     <text style="font-family:DejaVu Sans;font-size:10px;font-stretch:normal;font-style:normal;font-weight:normal;" transform="translate(241.511406 394.786063)">timeline </text>
     <text style="font-family:DejaVu Sans;font-size:10px;font-stretch:normal;font-style:normal;font-weight:normal;" transform="translate(100.587187 405.983875)">    dataset: lgn_pronostic_intermediate_LSC17, Input type: LSC17</text>
     <text style="font-family:DejaVu Sans;font-size:10px;font-stretch:normal;font-style:normal;font-weight:normal;" transform="translate(106.45125 417.459812)">    input_dim: 17 c_index: [0.595 0.55  0.637], pvalue: 0.00278</text>
    </g>
   </g>
   <g id="matplotlib.axis_2">
    <g id="ytick_1">
     <g id="line2d_15">
      <path clip-path="url(#p4b90c4d8f1)" d="M 33.64 313.743748 
L 493.2 313.743748 
" style="fill:none;stroke:#b0b0b0;stroke-dasharray:2.96,1.28;stroke-dashoffset:0;stroke-opacity:0.5;stroke-width:0.8;"/>
     </g>
     <g id="line2d_16">
      <defs>
       <path d="M 0 0 
L -3.5 0 
" id="me37b8d9aca" style="stroke:#000000;stroke-width:0.8;"/>
      </defs>
      <g>
       <use style="stroke:#000000;stroke-width:0.8;" x="33.64" xlink:href="#me37b8d9aca" y="313.743748"/>
      </g>
     </g>
     <g id="text_9">
      <text style="font-family:DejaVu Sans;font-size:10px;font-stretch:normal;font-style:normal;font-weight:normal;text-anchor:end;" transform="rotate(-0, 26.64, 317.542967)" x="26.64" y="317.542967">0.2</text>
     </g>
    </g>
    <g id="ytick_2">
     <g id="line2d_17">
      <path clip-path="url(#p4b90c4d8f1)" d="M 33.64 245.887237 
L 493.2 245.887237 
" style="fill:none;stroke:#b0b0b0;stroke-dasharray:2.96,1.28;stroke-dashoffset:0;stroke-opacity:0.5;stroke-width:0.8;"/>
     </g>
     <g id="line2d_18">
      <g>
       <use style="stroke:#000000;stroke-width:0.8;" x="33.64" xlink:href="#me37b8d9aca" y="245.887237"/>
      </g>
     </g>
     <g id="text_10">
      <text style="font-family:DejaVu Sans;font-size:10px;font-stretch:normal;font-style:normal;font-weight:normal;text-anchor:end;" transform="rotate(-0, 26.64, 249.686456)" x="26.64" y="249.686456">0.4</text>
     </g>
    </g>
    <g id="ytick_3">
     <g id="line2d_19">
      <path clip-path="url(#p4b90c4d8f1)" d="M 33.64 178.030726 
L 493.2 178.030726 
" style="fill:none;stroke:#b0b0b0;stroke-dasharray:2.96,1.28;stroke-dashoffset:0;stroke-opacity:0.5;stroke-width:0.8;"/>
     </g>
     <g id="line2d_20">
      <g>
       <use style="stroke:#000000;stroke-width:0.8;" x="33.64" xlink:href="#me37b8d9aca" y="178.030726"/>
      </g>
     </g>
     <g id="text_11">
      <text style="font-family:DejaVu Sans;font-size:10px;font-stretch:normal;font-style:normal;font-weight:normal;text-anchor:end;" transform="rotate(-0, 26.64, 181.829945)" x="26.64" y="181.829945">0.6</text>
     </g>
    </g>
    <g id="ytick_4">
     <g id="line2d_21">
      <path clip-path="url(#p4b90c4d8f1)" d="M 33.64 110.174215 
L 493.2 110.174215 
" style="fill:none;stroke:#b0b0b0;stroke-dasharray:2.96,1.28;stroke-dashoffset:0;stroke-opacity:0.5;stroke-width:0.8;"/>
     </g>
     <g id="line2d_22">
      <g>
       <use style="stroke:#000000;stroke-width:0.8;" x="33.64" xlink:href="#me37b8d9aca" y="110.174215"/>
      </g>
     </g>
     <g id="text_12">
      <text style="font-family:DejaVu Sans;font-size:10px;font-stretch:normal;font-style:normal;font-weight:normal;text-anchor:end;" transform="rotate(-0, 26.64, 113.973434)" x="26.64" y="113.973434">0.8</text>
     </g>
    </g>
    <g id="ytick_5">
     <g id="line2d_23">
      <path clip-path="url(#p4b90c4d8f1)" d="M 33.64 42.317705 
L 493.2 42.317705 
" style="fill:none;stroke:#b0b0b0;stroke-dasharray:2.96,1.28;stroke-dashoffset:0;stroke-opacity:0.5;stroke-width:0.8;"/>
     </g>
     <g id="line2d_24">
      <g>
       <use style="stroke:#000000;stroke-width:0.8;" x="33.64" xlink:href="#me37b8d9aca" y="42.317705"/>
      </g>
     </g>
     <g id="text_13">
      <text style="font-family:DejaVu Sans;font-size:10px;font-stretch:normal;font-style:normal;font-weight:normal;text-anchor:end;" transform="rotate(-0, 26.64, 46.116923)" x="26.64" y="46.116923">1.0</text>
     </g>
    </g>
   </g>
   <g id="line2d_25">
    <defs>
     <path d="M -3 3 
L 3 -3 
M -3 -3 
L 3 3 
" id="m99128ab6b5" style="stroke:#ff0000;"/>
    </defs>
    <g clip-path="url(#p4b90c4d8f1)">
     <use style="fill:#ff0000;stroke:#ff0000;" x="206.254595" xlink:href="#m99128ab6b5" y="312.981315"/>
     <use style="fill:#ff0000;stroke:#ff0000;" x="208.262828" xlink:href="#m99128ab6b5" y="312.981315"/>
     <use style="fill:#ff0000;stroke:#ff0000;" x="237.901585" xlink:href="#m99128ab6b5" y="321.558683"/>
     <use style="fill:#ff0000;stroke:#ff0000;" x="241.156308" xlink:href="#m99128ab6b5" y="321.558683"/>
     <use style="fill:#ff0000;stroke:#ff0000;" x="248.704496" xlink:href="#m99128ab6b5" y="321.558683"/>
     <use style="fill:#ff0000;stroke:#ff0000;" x="252.859462" xlink:href="#m99128ab6b5" y="321.558683"/>
     <use style="fill:#ff0000;stroke:#ff0000;" x="266.43235" xlink:href="#m99128ab6b5" y="327.562841"/>
     <use style="fill:#ff0000;stroke:#ff0000;" x="269.133078" xlink:href="#m99128ab6b5" y="327.562841"/>
     <use style="fill:#ff0000;stroke:#ff0000;" x="302.234306" xlink:href="#m99128ab6b5" y="327.562841"/>
     <use style="fill:#ff0000;stroke:#ff0000;" x="322.385891" xlink:href="#m99128ab6b5" y="327.562841"/>
     <use style="fill:#ff0000;stroke:#ff0000;" x="356.52586" xlink:href="#m99128ab6b5" y="327.562841"/>
     <use style="fill:#ff0000;stroke:#ff0000;" x="376.746694" xlink:href="#m99128ab6b5" y="327.562841"/>
     <use style="fill:#ff0000;stroke:#ff0000;" x="405.069711" xlink:href="#m99128ab6b5" y="327.562841"/>
     <use style="fill:#ff0000;stroke:#ff0000;" x="472.310909" xlink:href="#m99128ab6b5" y="327.562841"/>
    </g>
   </g>
   <g id="line2d_26">
    <path clip-path="url(#p4b90c4d8f1)" d="M 54.529091 42.317705 
L 55.083086 42.317705 
L 55.152336 49.942032 
L 55.290835 49.942032 
L 55.290835 53.754195 
L 55.983329 53.754195 
L 56.052578 69.002849 
L 56.398826 69.002849 
L 56.398826 72.815013 
L 58.33781 72.815013 
L 58.33781 76.627176 
L 59.030304 76.627176 
L 59.030304 80.43934 
L 59.307302 80.43934 
L 59.307302 84.251503 
L 59.584299 84.251503 
L 59.584299 88.063667 
L 59.722798 88.063667 
L 59.722798 91.87583 
L 60.623041 91.87583 
L 60.623041 95.687994 
L 61.246286 95.687994 
L 61.246286 99.500157 
L 61.592533 99.500157 
L 61.592533 103.312321 
L 62.146528 103.312321 
L 62.215778 110.936648 
L 62.285027 110.936648 
L 62.285027 114.748812 
L 62.839023 114.748812 
L 62.839023 118.560975 
L 63.046771 118.560975 
L 63.046771 122.373139 
L 63.877764 122.373139 
L 63.877764 129.997466 
L 64.016263 129.997466 
L 64.016263 133.809629 
L 64.43176 133.809629 
L 64.43176 137.621793 
L 64.778007 137.621793 
L 64.778007 141.433956 
L 65.055004 141.433956 
L 65.055004 145.24612 
L 65.193503 145.24612 
L 65.193503 149.058283 
L 66.647741 149.058283 
L 66.647741 152.870447 
L 68.309728 152.870447 
L 68.309728 156.68261 
L 68.863723 156.68261 
L 68.932973 168.119101 
L 69.071471 168.119101 
L 69.071471 171.931265 
L 70.802707 171.931265 
L 70.871957 179.555592 
L 71.010456 179.555592 
L 71.010456 187.179919 
L 71.218204 187.179919 
L 71.218204 194.804246 
L 71.356703 194.804246 
L 71.356703 198.616409 
L 71.495202 198.616409 
L 71.495202 202.428573 
L 72.741691 202.428573 
L 72.741691 206.240736 
L 73.572684 206.240736 
L 73.572684 210.0529 
L 74.334428 210.0529 
L 74.334428 213.865063 
L 75.026923 213.865063 
L 75.026923 217.677227 
L 75.30392 217.677227 
L 75.30392 221.48939 
L 75.788666 221.48939 
L 75.788666 225.301554 
L 75.996415 225.301554 
L 75.996415 229.113717 
L 76.55041 229.113717 
L 76.55041 232.925881 
L 77.242904 232.925881 
L 77.242904 240.550208 
L 77.935399 240.550208 
L 77.935399 244.362372 
L 79.251138 244.362372 
L 79.251138 248.174535 
L 80.082131 248.174535 
L 80.082131 251.986699 
L 81.813367 251.986699 
L 81.813367 255.798862 
L 82.021115 255.798862 
L 82.090365 263.423189 
L 82.436612 263.423189 
L 82.436612 267.235353 
L 84.514095 267.235353 
L 84.514095 271.047516 
L 85.414337 271.047516 
L 85.414337 274.85968 
L 85.552836 274.85968 
L 85.552836 278.671843 
L 88.392063 278.671843 
L 88.392063 282.484007 
L 88.599811 282.484007 
L 88.599811 286.29617 
L 108.128151 286.29617 
L 108.128151 290.108334 
L 111.86762 290.108334 
L 111.86762 293.920497 
L 113.183359 293.920497 
L 113.183359 297.732661 
L 116.645831 297.732661 
L 116.645831 301.544825 
L 131.118962 301.544825 
L 131.118962 305.356988 
L 137.351411 305.356988 
L 137.351411 309.169152 
L 165.743677 309.169152 
L 165.743677 312.981315 
L 209.024572 312.981315 
L 209.024572 317.269999 
L 215.257021 317.269999 
L 215.257021 321.558683 
L 265.878355 321.558683 
L 265.878355 327.562841 
L 472.310909 327.562841 
L 472.310909 327.562841 
" style="fill:none;stroke:#ff0000;stroke-linecap:square;stroke-width:1.5;"/>
   </g>
   <g id="line2d_27">
    <defs>
     <path d="M -3 3 
L 3 -3 
M -3 -3 
L 3 3 
" id="me7e0bd9c92" style="stroke:#0000ff;"/>
    </defs>
    <g clip-path="url(#p4b90c4d8f1)">
     <use style="fill:#0000ff;stroke:#0000ff;" x="95.386255" xlink:href="#me7e0bd9c92" y="192.681564"/>
     <use style="fill:#0000ff;stroke:#0000ff;" x="182.709788" xlink:href="#me7e0bd9c92" y="259.590268"/>
     <use style="fill:#0000ff;stroke:#0000ff;" x="187.3495" xlink:href="#me7e0bd9c92" y="259.590268"/>
     <use style="fill:#0000ff;stroke:#0000ff;" x="189.703981" xlink:href="#me7e0bd9c92" y="263.797509"/>
     <use style="fill:#0000ff;stroke:#0000ff;" x="191.850713" xlink:href="#me7e0bd9c92" y="263.797509"/>
     <use style="fill:#0000ff;stroke:#0000ff;" x="198.983404" xlink:href="#me7e0bd9c92" y="268.328384"/>
     <use style="fill:#0000ff;stroke:#0000ff;" x="227.444921" xlink:href="#me7e0bd9c92" y="277.767707"/>
     <use style="fill:#0000ff;stroke:#0000ff;" x="232.153882" xlink:href="#me7e0bd9c92" y="277.767707"/>
     <use style="fill:#0000ff;stroke:#0000ff;" x="237.001342" xlink:href="#me7e0bd9c92" y="277.767707"/>
     <use style="fill:#0000ff;stroke:#0000ff;" x="261.377142" xlink:href="#me7e0bd9c92" y="288.697449"/>
     <use style="fill:#0000ff;stroke:#0000ff;" x="280.420735" xlink:href="#me7e0bd9c92" y="288.697449"/>
     <use style="fill:#0000ff;stroke:#0000ff;" x="289.838658" xlink:href="#me7e0bd9c92" y="288.697449"/>
     <use style="fill:#0000ff;stroke:#0000ff;" x="295.586361" xlink:href="#me7e0bd9c92" y="288.697449"/>
     <use style="fill:#0000ff;stroke:#0000ff;" x="330.626573" xlink:href="#me7e0bd9c92" y="288.697449"/>
     <use style="fill:#0000ff;stroke:#0000ff;" x="333.535049" xlink:href="#me7e0bd9c92" y="288.697449"/>
     <use style="fill:#0000ff;stroke:#0000ff;" x="333.673548" xlink:href="#me7e0bd9c92" y="288.697449"/>
     <use style="fill:#0000ff;stroke:#0000ff;" x="333.812047" xlink:href="#me7e0bd9c92" y="288.697449"/>
     <use style="fill:#0000ff;stroke:#0000ff;" x="333.881296" xlink:href="#me7e0bd9c92" y="288.697449"/>
     <use style="fill:#0000ff;stroke:#0000ff;" x="351.609151" xlink:href="#me7e0bd9c92" y="288.697449"/>
     <use style="fill:#0000ff;stroke:#0000ff;" x="370.652744" xlink:href="#me7e0bd9c92" y="288.697449"/>
     <use style="fill:#0000ff;stroke:#0000ff;" x="391.566072" xlink:href="#me7e0bd9c92" y="304.181251"/>
     <use style="fill:#0000ff;stroke:#0000ff;" x="392.604814" xlink:href="#me7e0bd9c92" y="304.181251"/>
     <use style="fill:#0000ff;stroke:#0000ff;" x="393.505056" xlink:href="#me7e0bd9c92" y="304.181251"/>
     <use style="fill:#0000ff;stroke:#0000ff;" x="445.926876" xlink:href="#me7e0bd9c92" y="304.181251"/>
     <use style="fill:#0000ff;stroke:#0000ff;" x="463.931728" xlink:href="#me7e0bd9c92" y="304.181251"/>
    </g>
   </g>
   <g id="line2d_28">
    <path clip-path="url(#p4b90c4d8f1)" d="M 54.529091 42.317705 
L 55.360084 42.317705 
L 55.360084 50.028672 
L 55.498583 50.028672 
L 55.498583 53.884155 
L 56.052578 53.884155 
L 56.052578 57.739639 
L 56.191077 57.739639 
L 56.191077 61.595122 
L 56.606574 61.595122 
L 56.606574 65.450606 
L 56.883572 65.450606 
L 56.883572 69.30609 
L 57.09132 69.30609 
L 57.09132 73.161573 
L 64.085512 73.161573 
L 64.085512 77.017057 
L 64.778007 77.017057 
L 64.778007 80.87254 
L 64.916506 80.87254 
L 64.916506 84.728024 
L 65.470501 84.728024 
L 65.470501 88.583507 
L 65.816748 88.583507 
L 65.816748 92.438991 
L 65.955247 92.438991 
L 65.955247 96.294475 
L 66.093746 96.294475 
L 66.093746 100.149958 
L 66.716991 100.149958 
L 66.716991 104.005442 
L 67.409485 104.005442 
L 67.409485 107.860925 
L 67.617233 107.860925 
L 67.617233 111.716409 
L 68.309728 111.716409 
L 68.309728 115.571892 
L 68.932973 115.571892 
L 68.932973 119.427376 
L 69.27922 119.427376 
L 69.27922 127.138343 
L 71.772199 127.138343 
L 71.772199 130.993827 
L 71.910698 130.993827 
L 71.910698 134.84931 
L 73.018689 134.84931 
L 73.018689 138.704794 
L 74.680675 138.704794 
L 74.680675 142.560277 
L 75.996415 142.560277 
L 75.996415 146.415761 
L 76.55041 146.415761 
L 76.55041 150.271244 
L 76.758158 150.271244 
L 76.758158 154.126728 
L 79.528136 154.126728 
L 79.528136 157.982212 
L 79.735884 157.982212 
L 79.735884 161.837695 
L 82.228863 161.837695 
L 82.228863 165.693179 
L 85.137339 165.693179 
L 85.137339 169.548662 
L 88.045816 169.548662 
L 88.045816 173.404146 
L 88.322813 173.404146 
L 88.322813 177.259629 
L 88.66906 177.259629 
L 88.66906 181.115113 
L 90.469546 181.115113 
L 90.538795 188.82608 
L 91.508287 188.82608 
L 91.508287 192.681564 
L 96.217248 192.681564 
L 96.217248 196.61737 
L 98.779477 196.61737 
L 98.779477 200.553176 
L 100.233715 200.553176 
L 100.233715 204.488982 
L 101.826452 204.488982 
L 101.826452 208.424788 
L 110.69038 208.424788 
L 110.69038 212.360594 
L 112.629364 212.360594 
L 112.629364 216.296401 
L 112.767863 216.296401 
L 112.767863 220.232207 
L 114.152851 220.232207 
L 114.152851 224.168013 
L 118.654064 224.168013 
L 118.654064 228.103819 
L 121.008545 228.103819 
L 121.008545 232.039625 
L 129.803223 232.039625 
L 129.803223 235.975431 
L 138.5979 235.975431 
L 138.5979 239.911237 
L 151.201297 239.911237 
L 151.201297 243.847044 
L 156.118006 243.847044 
L 156.118006 247.78285 
L 162.9737 247.78285 
L 162.9737 251.718656 
L 179.108818 251.718656 
L 179.108818 255.654462 
L 181.463298 255.654462 
L 181.463298 259.590268 
L 187.557248 259.590268 
L 187.557248 263.797509 
L 198.221661 263.797509 
L 198.221661 268.328384 
L 207.362585 268.328384 
L 207.362585 273.048046 
L 209.509318 273.048046 
L 209.509318 277.767707 
L 249.46624 277.767707 
L 249.46624 283.232578 
L 258.122419 283.232578 
L 258.122419 288.697449 
L 377.716186 288.697449 
L 377.716186 304.181251 
L 463.931728 304.181251 
L 463.931728 304.181251 
" style="fill:none;stroke:#0000ff;stroke-linecap:square;stroke-width:1.5;"/>
   </g>
   <g id="patch_3">
    <path d="M 33.64 366.5095 
L 33.64 26.88 
" style="fill:none;stroke:#000000;stroke-linecap:square;stroke-linejoin:miter;stroke-width:0.8;"/>
   </g>
   <g id="patch_4">
    <path d="M 493.2 366.5095 
L 493.2 26.88 
" style="fill:none;stroke:#000000;stroke-linecap:square;stroke-linejoin:miter;stroke-width:0.8;"/>
   </g>
   <g id="patch_5">
    <path d="M 33.64 366.5095 
L 493.2 366.5095 
" style="fill:none;stroke:#000000;stroke-linecap:square;stroke-linejoin:miter;stroke-width:0.8;"/>
   </g>
   <g id="patch_6">
    <path d="M 33.64 26.88 
L 493.2 26.88 
" style="fill:none;stroke:#000000;stroke-linecap:square;stroke-linejoin:miter;stroke-width:0.8;"/>
   </g>
   <g id="text_14">
    <text style="font-family:DejaVu Sans;font-size:12px;font-stretch:normal;font-style:normal;font-weight:normal;text-anchor:middle;" transform="rotate(-0, 263.42, 20.88)" x="263.42" y="20.88">Survival curves - model_type: ridge_cph_lifelines</text>
   </g>
   <g id="legend_1">
    <g id="patch_7">
     <path d="M 330.451562 64.23625 
L 486.2 64.23625 
Q 488.2 64.23625 488.2 62.23625 
L 488.2 33.88 
Q 488.2 31.88 486.2 31.88 
L 330.451562 31.88 
Q 328.451562 31.88 328.451562 33.88 
L 328.451562 62.23625 
Q 328.451562 64.23625 330.451562 64.23625 
z
" style="fill:#ffffff;opacity:0.8;stroke:#cccccc;stroke-linejoin:miter;"/>
    </g>
    <g id="line2d_29">
     <path d="M 332.451562 39.978437 
L 352.451562 39.978437 
" style="fill:none;stroke:#ff0000;stroke-linecap:square;stroke-width:1.5;"/>
    </g>
    <g id="line2d_30"/>
    <g id="text_15">
     <text style="font-family:DejaVu Sans;font-size:10px;font-stretch:normal;font-style:normal;font-weight:normal;text-anchor:start;" transform="rotate(-0, 360.451562, 43.478437)" x="360.451562" y="43.478437">high. risk (n:88 c:15)</text>
    </g>
    <g id="line2d_31">
     <path d="M 332.451562 54.656563 
L 352.451562 54.656563 
" style="fill:none;stroke:#0000ff;stroke-linecap:square;stroke-width:1.5;"/>
    </g>
    <g id="line2d_32"/>
    <g id="text_16">
     <text style="font-family:DejaVu Sans;font-size:10px;font-stretch:normal;font-style:normal;font-weight:normal;text-anchor:start;" transform="rotate(-0, 360.451562, 58.156563)" x="360.451562" y="58.156563">low risk. risk (n:89 c:25 )</text>
    </g>
   </g>
  </g>
 </g>
 <defs>
  <clipPath id="p4b90c4d8f1">
   <rect height="339.6295" width="459.56" x="33.64" y="26.88"/>
  </clipPath>
 </defs>
</svg>
