<?xml version="1.0" encoding="utf-8" standalone="no"?>
<!DOCTYPE svg PUBLIC "-//W3C//DTD SVG 1.1//EN"
  "http://www.w3.org/Graphics/SVG/1.1/DTD/svg11.dtd">
<!-- Created with matplotlib (https://matplotlib.org/) -->
<svg height="432pt" version="1.1" viewBox="0 0 504 432" width="504pt" xmlns="http://www.w3.org/2000/svg" xmlns:xlink="http://www.w3.org/1999/xlink">
 <metadata>
  <rdf:RDF xmlns:cc="http://creativecommons.org/ns#" xmlns:dc="http://purl.org/dc/elements/1.1/" xmlns:rdf="http://www.w3.org/1999/02/22-rdf-syntax-ns#">
   <cc:Work>
    <dc:type rdf:resource="http://purl.org/dc/dcmitype/StillImage"/>
    <dc:date>2022-11-15T14:31:50.535306</dc:date>
    <dc:format>image/svg+xml</dc:format>
    <dc:creator>
     <cc:Agent>
      <dc:title>Matplotlib v3.3.4, https://matplotlib.org/</dc:title>
     </cc:Agent>
    </dc:creator>
   </cc:Work>
  </rdf:RDF>
 </metadata>
 <defs>
  <style type="text/css">*{stroke-linecap:butt;stroke-linejoin:round;}</style>
 </defs>
 <g id="figure_1">
  <g id="patch_1">
   <path d="M 0 432 
L 504 432 
L 504 0 
L 0 0 
z
" style="fill:#ffffff;"/>
  </g>
  <g id="axes_1">
   <g id="patch_2">
    <path d="M 33.64 366.5095 
L 493.2 366.5095 
L 493.2 26.88 
L 33.64 26.88 
z
" style="fill:#ffffff;"/>
   </g>
   <g id="PolyCollection_1">
    <defs>
     <path d="M 54.529091 -389.682295 
L 54.529091 -389.682295 
L 55.083086 -389.682295 
L 55.083086 -363.587218 
L 55.152336 -363.587218 
L 55.152336 -360.273442 
L 55.290835 -360.273442 
L 55.290835 -355.536908 
L 55.983329 -355.536908 
L 55.983329 -350.642007 
L 56.052578 -350.642007 
L 56.052578 -336.226287 
L 56.398826 -336.226287 
L 56.398826 -331.55547 
L 58.33781 -331.55547 
L 58.33781 -326.946909 
L 59.030304 -326.946909 
L 59.030304 -322.395524 
L 59.307302 -322.395524 
L 59.307302 -317.896576 
L 59.584299 -317.896576 
L 59.584299 -313.445837 
L 60.623041 -313.445837 
L 60.623041 -309.0396 
L 61.246286 -309.0396 
L 61.246286 -304.674635 
L 61.592533 -304.674635 
L 61.592533 -300.348125 
L 62.146528 -300.348125 
L 62.146528 -296.057611 
L 62.839023 -296.057611 
L 62.839023 -291.800938 
L 63.046771 -291.800938 
L 63.046771 -287.57621 
L 63.877764 -287.57621 
L 63.877764 -279.216096 
L 64.016263 -279.216096 
L 64.016263 -275.077913 
L 64.43176 -275.077913 
L 64.43176 -270.966035 
L 64.778007 -270.966035 
L 64.778007 -266.879412 
L 65.055004 -266.879412 
L 65.055004 -262.817108 
L 65.193503 -262.817108 
L 65.193503 -258.778279 
L 66.647741 -258.778279 
L 66.647741 -254.762168 
L 66.716991 -254.762168 
L 66.716991 -250.768096 
L 68.309728 -250.768096 
L 68.309728 -246.795448 
L 68.863723 -246.795448 
L 68.863723 -242.843675 
L 68.932973 -242.843675 
L 68.932973 -235.000819 
L 69.071471 -235.000819 
L 69.071471 -231.108891 
L 69.27922 -231.108891 
L 69.27922 -227.236142 
L 70.802707 -227.236142 
L 70.802707 -223.382253 
L 70.871957 -223.382253 
L 70.871957 -219.546945 
L 71.010456 -219.546945 
L 71.010456 -211.931117 
L 71.218204 -211.931117 
L 71.218204 -204.387064 
L 71.356703 -204.387064 
L 71.356703 -200.641584 
L 71.495202 -200.641584 
L 71.495202 -196.91366 
L 72.741691 -196.91366 
L 72.741691 -193.203218 
L 73.018689 -193.203218 
L 73.018689 -189.51021 
L 73.572684 -189.51021 
L 73.572684 -185.834614 
L 74.334428 -185.834614 
L 74.334428 -182.176432 
L 75.026923 -182.176432 
L 75.026923 -178.535692 
L 75.30392 -178.535692 
L 75.30392 -174.912445 
L 75.788666 -174.912445 
L 75.788666 -171.306771 
L 75.996415 -171.306771 
L 75.996415 -167.718773 
L 76.55041 -167.718773 
L 76.55041 -164.148583 
L 77.242904 -164.148583 
L 77.242904 -157.062289 
L 77.935399 -157.062289 
L 77.935399 -153.546591 
L 79.251138 -153.546591 
L 79.251138 -150.049516 
L 79.735884 -150.049516 
L 79.735884 -146.571347 
L 80.082131 -146.571347 
L 80.082131 -143.112405 
L 81.813367 -143.112405 
L 81.813367 -139.673049 
L 82.090365 -139.673049 
L 82.090365 -136.253681 
L 82.436612 -136.253681 
L 82.436612 -132.854749 
L 84.514095 -132.854749 
L 84.514095 -129.47675 
L 85.414337 -129.47675 
L 85.414337 -126.120237 
L 85.552836 -126.120237 
L 85.552836 -122.785824 
L 88.392063 -122.785824 
L 88.392063 -119.474193 
L 88.599811 -119.474193 
L 88.599811 -116.186101 
L 108.128151 -116.186101 
L 108.128151 -112.922392 
L 111.86762 -112.922392 
L 111.86762 -109.684004 
L 112.767863 -109.684004 
L 112.767863 -106.471988 
L 113.183359 -106.471988 
L 113.183359 -103.287519 
L 116.645831 -103.287519 
L 116.645831 -100.131918 
L 131.118962 -100.131918 
L 131.118962 -97.006678 
L 137.351411 -97.006678 
L 137.351411 -93.913489 
L 165.743677 -93.913489 
L 165.743677 -90.854275 
L 191.850713 -90.854275 
L 191.850713 -90.854275 
L 206.254595 -90.854275 
L 206.254595 -90.854275 
L 208.262828 -90.854275 
L 208.262828 -90.854275 
L 209.024572 -90.854275 
L 209.024572 -86.995312 
L 237.901585 -86.995312 
L 237.901585 -86.995312 
L 241.156308 -86.995312 
L 241.156308 -86.995312 
L 248.704496 -86.995312 
L 248.704496 -86.995312 
L 252.859462 -86.995312 
L 252.859462 -86.995312 
L 265.878355 -86.995312 
L 265.878355 -80.928205 
L 266.43235 -80.928205 
L 266.43235 -80.928205 
L 269.133078 -80.928205 
L 269.133078 -80.928205 
L 302.234306 -80.928205 
L 302.234306 -80.928205 
L 356.52586 -80.928205 
L 356.52586 -80.928205 
L 376.746694 -80.928205 
L 376.746694 -80.928205 
L 405.069711 -80.928205 
L 405.069711 -80.928205 
L 472.310909 -80.928205 
L 472.310909 -80.928205 
L 472.310909 -134.320363 
L 472.310909 -134.320363 
L 472.310909 -134.320363 
L 405.069711 -134.320363 
L 405.069711 -134.320363 
L 376.746694 -134.320363 
L 376.746694 -134.320363 
L 356.52586 -134.320363 
L 356.52586 -134.320363 
L 302.234306 -134.320363 
L 302.234306 -134.320363 
L 269.133078 -134.320363 
L 269.133078 -134.320363 
L 266.43235 -134.320363 
L 266.43235 -134.320363 
L 265.878355 -134.320363 
L 265.878355 -140.499776 
L 252.859462 -140.499776 
L 252.859462 -140.499776 
L 248.704496 -140.499776 
L 248.704496 -140.499776 
L 241.156308 -140.499776 
L 241.156308 -140.499776 
L 237.901585 -140.499776 
L 237.901585 -140.499776 
L 209.024572 -140.499776 
L 209.024572 -145.408431 
L 208.262828 -145.408431 
L 208.262828 -145.408431 
L 206.254595 -145.408431 
L 206.254595 -145.408431 
L 191.850713 -145.408431 
L 191.850713 -145.408431 
L 165.743677 -145.408431 
L 165.743677 -149.649125 
L 137.351411 -149.649125 
L 137.351411 -153.858977 
L 131.118962 -153.858977 
L 131.118962 -158.039661 
L 116.645831 -158.039661 
L 116.645831 -162.192645 
L 113.183359 -162.192645 
L 113.183359 -166.319227 
L 112.767863 -166.319227 
L 112.767863 -170.420557 
L 111.86762 -170.420557 
L 111.86762 -174.497656 
L 108.128151 -174.497656 
L 108.128151 -178.551437 
L 88.599811 -178.551437 
L 88.599811 -182.582715 
L 88.392063 -182.582715 
L 88.392063 -186.592223 
L 85.552836 -186.592223 
L 85.552836 -190.580616 
L 85.414337 -190.580616 
L 85.414337 -194.548482 
L 84.514095 -194.548482 
L 84.514095 -198.496351 
L 82.436612 -198.496351 
L 82.436612 -202.424697 
L 82.090365 -202.424697 
L 82.090365 -206.333946 
L 81.813367 -206.333946 
L 81.813367 -210.224478 
L 80.082131 -210.224478 
L 80.082131 -214.096633 
L 79.735884 -214.096633 
L 79.735884 -217.950712 
L 79.251138 -217.950712 
L 79.251138 -221.786981 
L 77.935399 -221.786981 
L 77.935399 -225.605674 
L 77.242904 -225.605674 
L 77.242904 -233.19111 
L 76.55041 -233.19111 
L 76.55041 -236.95817 
L 75.996415 -236.95817 
L 75.996415 -240.708291 
L 75.788666 -240.708291 
L 75.788666 -244.441566 
L 75.30392 -244.441566 
L 75.30392 -248.15806 
L 75.026923 -248.15806 
L 75.026923 -251.857816 
L 74.334428 -251.857816 
L 74.334428 -255.540851 
L 73.572684 -255.540851 
L 73.572684 -259.207159 
L 73.018689 -259.207159 
L 73.018689 -262.856709 
L 72.741691 -262.856709 
L 72.741691 -266.489447 
L 71.495202 -266.489447 
L 71.495202 -270.105292 
L 71.356703 -270.105292 
L 71.356703 -273.704138 
L 71.218204 -273.704138 
L 71.218204 -280.850282 
L 71.010456 -280.850282 
L 71.010456 -287.926494 
L 70.871957 -287.926494 
L 70.871957 -291.437814 
L 70.802707 -291.437814 
L 70.802707 -294.930911 
L 69.27922 -294.930911 
L 69.27922 -298.405469 
L 69.071471 -298.405469 
L 69.071471 -301.861131 
L 68.932973 -301.861131 
L 68.932973 -308.714126 
L 68.863723 -308.714126 
L 68.863723 -312.110521 
L 68.309728 -312.110521 
L 68.309728 -315.486134 
L 66.716991 -315.486134 
L 66.716991 -318.840353 
L 66.647741 -318.840353 
L 66.647741 -322.172499 
L 65.193503 -322.172499 
L 65.193503 -325.481814 
L 65.055004 -325.481814 
L 65.055004 -328.767455 
L 64.778007 -328.767455 
L 64.778007 -332.02848 
L 64.43176 -332.02848 
L 64.43176 -335.263833 
L 64.016263 -335.263833 
L 64.016263 -338.472325 
L 63.877764 -338.472325 
L 63.877764 -344.803202 
L 63.046771 -344.803202 
L 63.046771 -347.922343 
L 62.839023 -347.922343 
L 62.839023 -351.008067 
L 62.146528 -351.008067 
L 62.146528 -354.058096 
L 61.592533 -354.058096 
L 61.592533 -357.069782 
L 61.246286 -357.069782 
L 61.246286 -360.040024 
L 60.623041 -360.040024 
L 60.623041 -362.965148 
L 59.584299 -362.965148 
L 59.584299 -365.840757 
L 59.307302 -365.840757 
L 59.307302 -368.661507 
L 59.030304 -368.661507 
L 59.030304 -371.420798 
L 58.33781 -371.420798 
L 58.33781 -374.110321 
L 56.398826 -374.110321 
L 56.398826 -376.719352 
L 56.052578 -376.719352 
L 56.052578 -383.890268 
L 55.983329 -383.890268 
L 55.983329 -385.959366 
L 55.290835 -385.959366 
L 55.290835 -387.763527 
L 55.152336 -387.763527 
L 55.152336 -389.143898 
L 55.083086 -389.143898 
L 55.083086 -389.682295 
L 54.529091 -389.682295 
z
" id="m8fe92584c8" style="stroke:#ff0000;stroke-opacity:0.25;"/>
    </defs>
    <g clip-path="url(#p9a07f09ea4)">
     <use style="fill:#ff0000;fill-opacity:0.25;stroke:#ff0000;stroke-opacity:0.25;" x="0" xlink:href="#m8fe92584c8" y="432"/>
    </g>
   </g>
   <g id="PolyCollection_2">
    <defs>
     <path d="M 54.529091 -389.682295 
L 54.529091 -389.682295 
L 55.360084 -389.682295 
L 55.360084 -359.950658 
L 55.498583 -359.950658 
L 55.498583 -355.16289 
L 56.052578 -355.16289 
L 56.052578 -350.215371 
L 56.191077 -350.215371 
L 56.191077 -345.292766 
L 56.606574 -345.292766 
L 56.606574 -340.434233 
L 56.883572 -340.434233 
L 56.883572 -335.646163 
L 57.09132 -335.646163 
L 57.09132 -330.926051 
L 59.722798 -330.926051 
L 59.722798 -326.269054 
L 62.215778 -326.269054 
L 62.215778 -321.670031 
L 62.285027 -321.670031 
L 62.285027 -317.124185 
L 64.085512 -317.124185 
L 64.085512 -312.627239 
L 64.778007 -312.627239 
L 64.778007 -308.175444 
L 64.916506 -308.175444 
L 64.916506 -303.765531 
L 65.470501 -303.765531 
L 65.470501 -299.394652 
L 65.816748 -299.394652 
L 65.816748 -295.06032 
L 65.955247 -295.06032 
L 65.955247 -290.760356 
L 66.093746 -290.760356 
L 66.093746 -286.492845 
L 67.409485 -286.492845 
L 67.409485 -282.256098 
L 67.617233 -282.256098 
L 67.617233 -278.048619 
L 68.309728 -278.048619 
L 68.309728 -273.869079 
L 68.932973 -273.869079 
L 68.932973 -269.716294 
L 69.27922 -269.716294 
L 69.27922 -265.589207 
L 71.772199 -265.589207 
L 71.772199 -261.48687 
L 71.910698 -261.48687 
L 71.910698 -257.408436 
L 74.680675 -257.408436 
L 74.680675 -253.353143 
L 75.996415 -253.353143 
L 75.996415 -249.320305 
L 76.55041 -249.320305 
L 76.55041 -245.309306 
L 76.758158 -245.309306 
L 76.758158 -241.319595 
L 79.528136 -241.319595 
L 79.528136 -237.350673 
L 82.021115 -237.350673 
L 82.021115 -233.402095 
L 82.228863 -233.402095 
L 82.228863 -229.473464 
L 85.137339 -229.473464 
L 85.137339 -225.564424 
L 88.045816 -225.564424 
L 88.045816 -221.674661 
L 88.322813 -221.674661 
L 88.322813 -217.803898 
L 88.66906 -217.803898 
L 88.66906 -213.951892 
L 90.469546 -213.951892 
L 90.469546 -210.118434 
L 90.538795 -210.118434 
L 90.538795 -206.303347 
L 91.508287 -206.303347 
L 91.508287 -202.506483 
L 95.386255 -202.506483 
L 95.386255 -202.506483 
L 96.217248 -202.506483 
L 96.217248 -198.630799 
L 98.779477 -198.630799 
L 98.779477 -194.775044 
L 100.233715 -194.775044 
L 100.233715 -190.93909 
L 101.826452 -190.93909 
L 101.826452 -187.122844 
L 110.69038 -187.122844 
L 110.69038 -183.326244 
L 112.629364 -183.326244 
L 112.629364 -179.549266 
L 114.152851 -179.549266 
L 114.152851 -175.791915 
L 118.654064 -175.791915 
L 118.654064 -172.054231 
L 121.008545 -172.054231 
L 121.008545 -168.336287 
L 129.803223 -168.336287 
L 129.803223 -164.638188 
L 138.5979 -164.638188 
L 138.5979 -160.960074 
L 151.201297 -160.960074 
L 151.201297 -157.30212 
L 156.118006 -157.30212 
L 156.118006 -153.66454 
L 162.9737 -153.66454 
L 162.9737 -150.047583 
L 179.108818 -150.047583 
L 179.108818 -146.451541 
L 181.463298 -146.451541 
L 181.463298 -142.876748 
L 182.709788 -142.876748 
L 182.709788 -142.876748 
L 187.3495 -142.876748 
L 187.3495 -142.876748 
L 187.557248 -142.876748 
L 187.557248 -139.030726 
L 189.703981 -139.030726 
L 189.703981 -139.030726 
L 198.221661 -139.030726 
L 198.221661 -135.045086 
L 198.983404 -135.045086 
L 198.983404 -135.045086 
L 207.362585 -135.045086 
L 207.362585 -130.904846 
L 209.509318 -130.904846 
L 209.509318 -126.806246 
L 215.257021 -126.806246 
L 215.257021 -122.749904 
L 227.444921 -122.749904 
L 227.444921 -122.749904 
L 232.153882 -122.749904 
L 232.153882 -122.749904 
L 237.001342 -122.749904 
L 237.001342 -122.749904 
L 249.46624 -122.749904 
L 249.46624 -117.966134 
L 258.122419 -117.966134 
L 258.122419 -113.261417 
L 261.377142 -113.261417 
L 261.377142 -113.261417 
L 280.420735 -113.261417 
L 280.420735 -113.261417 
L 289.838658 -113.261417 
L 289.838658 -113.261417 
L 295.586361 -113.261417 
L 295.586361 -113.261417 
L 322.385891 -113.261417 
L 322.385891 -113.261417 
L 330.626573 -113.261417 
L 330.626573 -113.261417 
L 333.535049 -113.261417 
L 333.535049 -113.261417 
L 333.673548 -113.261417 
L 333.673548 -113.261417 
L 333.812047 -113.261417 
L 333.812047 -113.261417 
L 333.881296 -113.261417 
L 333.881296 -113.261417 
L 351.609151 -113.261417 
L 351.609151 -113.261417 
L 370.652744 -113.261417 
L 370.652744 -113.261417 
L 377.716186 -113.261417 
L 377.716186 -93.826742 
L 391.566072 -93.826742 
L 391.566072 -93.826742 
L 392.604814 -93.826742 
L 392.604814 -93.826742 
L 393.505056 -93.826742 
L 393.505056 -93.826742 
L 445.926876 -93.826742 
L 445.926876 -93.826742 
L 463.931728 -93.826742 
L 463.931728 -93.826742 
L 463.931728 -170.146212 
L 463.931728 -170.146212 
L 463.931728 -170.146212 
L 445.926876 -170.146212 
L 445.926876 -170.146212 
L 393.505056 -170.146212 
L 393.505056 -170.146212 
L 392.604814 -170.146212 
L 392.604814 -170.146212 
L 391.566072 -170.146212 
L 391.566072 -170.146212 
L 377.716186 -170.146212 
L 377.716186 -178.190723 
L 370.652744 -178.190723 
L 370.652744 -178.190723 
L 351.609151 -178.190723 
L 351.609151 -178.190723 
L 333.881296 -178.190723 
L 333.881296 -178.190723 
L 333.812047 -178.190723 
L 333.812047 -178.190723 
L 333.673548 -178.190723 
L 333.673548 -178.190723 
L 333.535049 -178.190723 
L 333.535049 -178.190723 
L 330.626573 -178.190723 
L 330.626573 -178.190723 
L 322.385891 -178.190723 
L 322.385891 -178.190723 
L 295.586361 -178.190723 
L 295.586361 -178.190723 
L 289.838658 -178.190723 
L 289.838658 -178.190723 
L 280.420735 -178.190723 
L 280.420735 -178.190723 
L 261.377142 -178.190723 
L 261.377142 -178.190723 
L 258.122419 -178.190723 
L 258.122419 -183.375616 
L 249.46624 -183.375616 
L 249.46624 -188.499182 
L 237.001342 -188.499182 
L 237.001342 -188.499182 
L 232.153882 -188.499182 
L 232.153882 -188.499182 
L 227.444921 -188.499182 
L 227.444921 -188.499182 
L 215.257021 -188.499182 
L 215.257021 -193.087473 
L 209.509318 -193.087473 
L 209.509318 -197.64074 
L 207.362585 -197.64074 
L 207.362585 -202.15972 
L 198.983404 -202.15972 
L 198.983404 -202.15972 
L 198.221661 -202.15972 
L 198.221661 -206.520531 
L 189.703981 -206.520531 
L 189.703981 -206.520531 
L 187.557248 -206.520531 
L 187.557248 -210.738503 
L 187.3495 -210.738503 
L 187.3495 -210.738503 
L 182.709788 -210.738503 
L 182.709788 -210.738503 
L 181.463298 -210.738503 
L 181.463298 -214.72646 
L 179.108818 -214.72646 
L 179.108818 -218.694704 
L 162.9737 -218.694704 
L 162.9737 -222.643523 
L 156.118006 -222.643523 
L 156.118006 -226.573169 
L 151.201297 -226.573169 
L 151.201297 -230.483858 
L 138.5979 -230.483858 
L 138.5979 -234.375772 
L 129.803223 -234.375772 
L 129.803223 -238.249058 
L 121.008545 -238.249058 
L 121.008545 -242.103837 
L 118.654064 -242.103837 
L 118.654064 -245.940195 
L 114.152851 -245.940195 
L 114.152851 -249.758193 
L 112.629364 -249.758193 
L 112.629364 -253.557859 
L 110.69038 -253.557859 
L 110.69038 -257.339196 
L 101.826452 -257.339196 
L 101.826452 -261.102177 
L 100.233715 -261.102177 
L 100.233715 -264.846747 
L 98.779477 -264.846747 
L 98.779477 -268.572821 
L 96.217248 -268.572821 
L 96.217248 -272.280286 
L 95.386255 -272.280286 
L 95.386255 -272.280286 
L 91.508287 -272.280286 
L 91.508287 -275.908512 
L 90.538795 -275.908512 
L 90.538795 -279.519037 
L 90.469546 -279.519037 
L 90.469546 -283.11168 
L 88.66906 -283.11168 
L 88.66906 -286.686229 
L 88.322813 -286.686229 
L 88.322813 -290.24244 
L 88.045816 -290.24244 
L 88.045816 -293.780032 
L 85.137339 -293.780032 
L 85.137339 -297.298691 
L 82.228863 -297.298691 
L 82.228863 -300.798062 
L 82.021115 -300.798062 
L 82.021115 -304.277746 
L 79.528136 -304.277746 
L 79.528136 -307.7373 
L 76.758158 -307.7373 
L 76.758158 -311.176226 
L 76.55041 -311.176226 
L 76.55041 -314.593974 
L 75.996415 -314.593974 
L 75.996415 -317.989929 
L 74.680675 -317.989929 
L 74.680675 -321.363407 
L 71.910698 -321.363407 
L 71.910698 -324.713646 
L 71.772199 -324.713646 
L 71.772199 -328.039796 
L 69.27922 -328.039796 
L 69.27922 -331.340905 
L 68.932973 -331.340905 
L 68.932973 -334.615908 
L 68.309728 -334.615908 
L 68.309728 -337.863607 
L 67.617233 -337.863607 
L 67.617233 -341.082651 
L 67.409485 -341.082651 
L 67.409485 -344.271507 
L 66.093746 -344.271507 
L 66.093746 -347.428432 
L 65.955247 -347.428432 
L 65.955247 -350.551427 
L 65.816748 -350.551427 
L 65.816748 -353.63819 
L 65.470501 -353.63819 
L 65.470501 -356.686043 
L 64.916506 -356.686043 
L 64.916506 -359.691851 
L 64.778007 -359.691851 
L 64.778007 -362.651898 
L 64.085512 -362.651898 
L 64.085512 -365.561737 
L 62.285027 -365.561737 
L 62.285027 -368.415962 
L 62.215778 -368.415962 
L 62.215778 -371.2079 
L 59.722798 -371.2079 
L 59.722798 -373.929143 
L 57.09132 -373.929143 
L 57.09132 -376.568847 
L 56.883572 -376.568847 
L 56.883572 -379.112591 
L 56.606574 -379.112591 
L 56.606574 -381.540456 
L 56.191077 -381.540456 
L 56.191077 -383.823493 
L 56.052578 -383.823493 
L 56.052578 -385.916563 
L 55.498583 -385.916563 
L 55.498583 -387.741535 
L 55.360084 -387.741535 
L 55.360084 -389.682295 
L 54.529091 -389.682295 
z
" id="med150f4d88" style="stroke:#0000ff;stroke-opacity:0.25;"/>
    </defs>
    <g clip-path="url(#p9a07f09ea4)">
     <use style="fill:#0000ff;fill-opacity:0.25;stroke:#0000ff;stroke-opacity:0.25;" x="0" xlink:href="#med150f4d88" y="432"/>
    </g>
   </g>
   <g id="matplotlib.axis_1">
    <g id="xtick_1">
     <g id="line2d_1">
      <path clip-path="url(#p9a07f09ea4)" d="M 54.529091 366.5095 
L 54.529091 26.88 
" style="fill:none;stroke:#b0b0b0;stroke-dasharray:2.96,1.28;stroke-dashoffset:0;stroke-opacity:0.5;stroke-width:0.8;"/>
     </g>
     <g id="line2d_2">
      <defs>
       <path d="M 0 0 
L 0 3.5 
" id="m1af7cd763f" style="stroke:#000000;stroke-width:0.8;"/>
      </defs>
      <g>
       <use style="stroke:#000000;stroke-width:0.8;" x="54.529091" xlink:href="#m1af7cd763f" y="366.5095"/>
      </g>
     </g>
     <g id="text_1">
      <text style="font-family:DejaVu Sans;font-size:10px;font-stretch:normal;font-style:normal;font-weight:normal;text-anchor:middle;" transform="rotate(-0, 54.529091, 381.107937)" x="54.529091" y="381.107937">0</text>
     </g>
    </g>
    <g id="xtick_2">
     <g id="line2d_3">
      <path clip-path="url(#p9a07f09ea4)" d="M 123.778522 366.5095 
L 123.778522 26.88 
" style="fill:none;stroke:#b0b0b0;stroke-dasharray:2.96,1.28;stroke-dashoffset:0;stroke-opacity:0.5;stroke-width:0.8;"/>
     </g>
     <g id="line2d_4">
      <g>
       <use style="stroke:#000000;stroke-width:0.8;" x="123.778522" xlink:href="#m1af7cd763f" y="366.5095"/>
      </g>
     </g>
     <g id="text_2">
      <text style="font-family:DejaVu Sans;font-size:10px;font-stretch:normal;font-style:normal;font-weight:normal;text-anchor:middle;" transform="rotate(-0, 123.778522, 381.107937)" x="123.778522" y="381.107937">1000</text>
     </g>
    </g>
    <g id="xtick_3">
     <g id="line2d_5">
      <path clip-path="url(#p9a07f09ea4)" d="M 193.027953 366.5095 
L 193.027953 26.88 
" style="fill:none;stroke:#b0b0b0;stroke-dasharray:2.96,1.28;stroke-dashoffset:0;stroke-opacity:0.5;stroke-width:0.8;"/>
     </g>
     <g id="line2d_6">
      <g>
       <use style="stroke:#000000;stroke-width:0.8;" x="193.027953" xlink:href="#m1af7cd763f" y="366.5095"/>
      </g>
     </g>
     <g id="text_3">
      <text style="font-family:DejaVu Sans;font-size:10px;font-stretch:normal;font-style:normal;font-weight:normal;text-anchor:middle;" transform="rotate(-0, 193.027953, 381.107937)" x="193.027953" y="381.107937">2000</text>
     </g>
    </g>
    <g id="xtick_4">
     <g id="line2d_7">
      <path clip-path="url(#p9a07f09ea4)" d="M 262.277384 366.5095 
L 262.277384 26.88 
" style="fill:none;stroke:#b0b0b0;stroke-dasharray:2.96,1.28;stroke-dashoffset:0;stroke-opacity:0.5;stroke-width:0.8;"/>
     </g>
     <g id="line2d_8">
      <g>
       <use style="stroke:#000000;stroke-width:0.8;" x="262.277384" xlink:href="#m1af7cd763f" y="366.5095"/>
      </g>
     </g>
     <g id="text_4">
      <text style="font-family:DejaVu Sans;font-size:10px;font-stretch:normal;font-style:normal;font-weight:normal;text-anchor:middle;" transform="rotate(-0, 262.277384, 381.107937)" x="262.277384" y="381.107937">3000</text>
     </g>
    </g>
    <g id="xtick_5">
     <g id="line2d_9">
      <path clip-path="url(#p9a07f09ea4)" d="M 331.526816 366.5095 
L 331.526816 26.88 
" style="fill:none;stroke:#b0b0b0;stroke-dasharray:2.96,1.28;stroke-dashoffset:0;stroke-opacity:0.5;stroke-width:0.8;"/>
     </g>
     <g id="line2d_10">
      <g>
       <use style="stroke:#000000;stroke-width:0.8;" x="331.526816" xlink:href="#m1af7cd763f" y="366.5095"/>
      </g>
     </g>
     <g id="text_5">
      <text style="font-family:DejaVu Sans;font-size:10px;font-stretch:normal;font-style:normal;font-weight:normal;text-anchor:middle;" transform="rotate(-0, 331.526816, 381.107937)" x="331.526816" y="381.107937">4000</text>
     </g>
    </g>
    <g id="xtick_6">
     <g id="line2d_11">
      <path clip-path="url(#p9a07f09ea4)" d="M 400.776247 366.5095 
L 400.776247 26.88 
" style="fill:none;stroke:#b0b0b0;stroke-dasharray:2.96,1.28;stroke-dashoffset:0;stroke-opacity:0.5;stroke-width:0.8;"/>
     </g>
     <g id="line2d_12">
      <g>
       <use style="stroke:#000000;stroke-width:0.8;" x="400.776247" xlink:href="#m1af7cd763f" y="366.5095"/>
      </g>
     </g>
     <g id="text_6">
      <text style="font-family:DejaVu Sans;font-size:10px;font-stretch:normal;font-style:normal;font-weight:normal;text-anchor:middle;" transform="rotate(-0, 400.776247, 381.107937)" x="400.776247" y="381.107937">5000</text>
     </g>
    </g>
    <g id="xtick_7">
     <g id="line2d_13">
      <path clip-path="url(#p9a07f09ea4)" d="M 470.025678 366.5095 
L 470.025678 26.88 
" style="fill:none;stroke:#b0b0b0;stroke-dasharray:2.96,1.28;stroke-dashoffset:0;stroke-opacity:0.5;stroke-width:0.8;"/>
     </g>
     <g id="line2d_14">
      <g>
       <use style="stroke:#000000;stroke-width:0.8;" x="470.025678" xlink:href="#m1af7cd763f" y="366.5095"/>
      </g>
     </g>
     <g id="text_7">
      <text style="font-family:DejaVu Sans;font-size:10px;font-stretch:normal;font-style:normal;font-weight:normal;text-anchor:middle;" transform="rotate(-0, 470.025678, 381.107937)" x="470.025678" y="381.107937">6000</text>
     </g>
    </g>
    <g id="text_8">
     <text style="font-family:DejaVu Sans;font-size:10px;font-stretch:normal;font-style:normal;font-weight:normal;" transform="translate(241.511406 394.786063)">timeline </text>
     <text style="font-family:DejaVu Sans;font-size:10px;font-stretch:normal;font-style:normal;font-weight:normal;" transform="translate(100.587187 405.983875)">    dataset: lgn_pronostic_intermediate_LSC17, Input type: LSC17</text>
     <text style="font-family:DejaVu Sans;font-size:10px;font-stretch:normal;font-style:normal;font-weight:normal;" transform="translate(104.859062 417.459812)">    input_dim: 17 c_index: [0.598 0.552 0.639], pvalue: 0.00277</text>
    </g>
   </g>
   <g id="matplotlib.axis_2">
    <g id="ytick_1">
     <g id="line2d_15">
      <path clip-path="url(#p9a07f09ea4)" d="M 33.64 313.139531 
L 493.2 313.139531 
" style="fill:none;stroke:#b0b0b0;stroke-dasharray:2.96,1.28;stroke-dashoffset:0;stroke-opacity:0.5;stroke-width:0.8;"/>
     </g>
     <g id="line2d_16">
      <defs>
       <path d="M 0 0 
L -3.5 0 
" id="m39e0256218" style="stroke:#000000;stroke-width:0.8;"/>
      </defs>
      <g>
       <use style="stroke:#000000;stroke-width:0.8;" x="33.64" xlink:href="#m39e0256218" y="313.139531"/>
      </g>
     </g>
     <g id="text_9">
      <text style="font-family:DejaVu Sans;font-size:10px;font-stretch:normal;font-style:normal;font-weight:normal;text-anchor:end;" transform="rotate(-0, 26.64, 316.93875)" x="26.64" y="316.93875">0.2</text>
     </g>
    </g>
    <g id="ytick_2">
     <g id="line2d_17">
      <path clip-path="url(#p9a07f09ea4)" d="M 33.64 245.434074 
L 493.2 245.434074 
" style="fill:none;stroke:#b0b0b0;stroke-dasharray:2.96,1.28;stroke-dashoffset:0;stroke-opacity:0.5;stroke-width:0.8;"/>
     </g>
     <g id="line2d_18">
      <g>
       <use style="stroke:#000000;stroke-width:0.8;" x="33.64" xlink:href="#m39e0256218" y="245.434074"/>
      </g>
     </g>
     <g id="text_10">
      <text style="font-family:DejaVu Sans;font-size:10px;font-stretch:normal;font-style:normal;font-weight:normal;text-anchor:end;" transform="rotate(-0, 26.64, 249.233293)" x="26.64" y="249.233293">0.4</text>
     </g>
    </g>
    <g id="ytick_3">
     <g id="line2d_19">
      <path clip-path="url(#p9a07f09ea4)" d="M 33.64 177.728618 
L 493.2 177.728618 
" style="fill:none;stroke:#b0b0b0;stroke-dasharray:2.96,1.28;stroke-dashoffset:0;stroke-opacity:0.5;stroke-width:0.8;"/>
     </g>
     <g id="line2d_20">
      <g>
       <use style="stroke:#000000;stroke-width:0.8;" x="33.64" xlink:href="#m39e0256218" y="177.728618"/>
      </g>
     </g>
     <g id="text_11">
      <text style="font-family:DejaVu Sans;font-size:10px;font-stretch:normal;font-style:normal;font-weight:normal;text-anchor:end;" transform="rotate(-0, 26.64, 181.527836)" x="26.64" y="181.527836">0.6</text>
     </g>
    </g>
    <g id="ytick_4">
     <g id="line2d_21">
      <path clip-path="url(#p9a07f09ea4)" d="M 33.64 110.023161 
L 493.2 110.023161 
" style="fill:none;stroke:#b0b0b0;stroke-dasharray:2.96,1.28;stroke-dashoffset:0;stroke-opacity:0.5;stroke-width:0.8;"/>
     </g>
     <g id="line2d_22">
      <g>
       <use style="stroke:#000000;stroke-width:0.8;" x="33.64" xlink:href="#m39e0256218" y="110.023161"/>
      </g>
     </g>
     <g id="text_12">
      <text style="font-family:DejaVu Sans;font-size:10px;font-stretch:normal;font-style:normal;font-weight:normal;text-anchor:end;" transform="rotate(-0, 26.64, 113.82238)" x="26.64" y="113.82238">0.8</text>
     </g>
    </g>
    <g id="ytick_5">
     <g id="line2d_23">
      <path clip-path="url(#p9a07f09ea4)" d="M 33.64 42.317705 
L 493.2 42.317705 
" style="fill:none;stroke:#b0b0b0;stroke-dasharray:2.96,1.28;stroke-dashoffset:0;stroke-opacity:0.5;stroke-width:0.8;"/>
     </g>
     <g id="line2d_24">
      <g>
       <use style="stroke:#000000;stroke-width:0.8;" x="33.64" xlink:href="#m39e0256218" y="42.317705"/>
      </g>
     </g>
     <g id="text_13">
      <text style="font-family:DejaVu Sans;font-size:10px;font-stretch:normal;font-style:normal;font-weight:normal;text-anchor:end;" transform="rotate(-0, 26.64, 46.116923)" x="26.64" y="46.116923">1.0</text>
     </g>
    </g>
   </g>
   <g id="line2d_25">
    <defs>
     <path d="M -3 3 
L 3 -3 
M -3 -3 
L 3 3 
" id="m9d59858490" style="stroke:#ff0000;"/>
    </defs>
    <g clip-path="url(#p9a07f09ea4)">
     <use style="fill:#ff0000;stroke:#ff0000;" x="191.850713" xlink:href="#m9d59858490" y="316.182473"/>
     <use style="fill:#ff0000;stroke:#ff0000;" x="206.254595" xlink:href="#m9d59858490" y="316.182473"/>
     <use style="fill:#ff0000;stroke:#ff0000;" x="208.262828" xlink:href="#m9d59858490" y="316.182473"/>
     <use style="fill:#ff0000;stroke:#ff0000;" x="237.901585" xlink:href="#m9d59858490" y="320.801224"/>
     <use style="fill:#ff0000;stroke:#ff0000;" x="241.156308" xlink:href="#m9d59858490" y="320.801224"/>
     <use style="fill:#ff0000;stroke:#ff0000;" x="248.704496" xlink:href="#m9d59858490" y="320.801224"/>
     <use style="fill:#ff0000;stroke:#ff0000;" x="252.859462" xlink:href="#m9d59858490" y="320.801224"/>
     <use style="fill:#ff0000;stroke:#ff0000;" x="266.43235" xlink:href="#m9d59858490" y="327.472753"/>
     <use style="fill:#ff0000;stroke:#ff0000;" x="269.133078" xlink:href="#m9d59858490" y="327.472753"/>
     <use style="fill:#ff0000;stroke:#ff0000;" x="302.234306" xlink:href="#m9d59858490" y="327.472753"/>
     <use style="fill:#ff0000;stroke:#ff0000;" x="356.52586" xlink:href="#m9d59858490" y="327.472753"/>
     <use style="fill:#ff0000;stroke:#ff0000;" x="376.746694" xlink:href="#m9d59858490" y="327.472753"/>
     <use style="fill:#ff0000;stroke:#ff0000;" x="405.069711" xlink:href="#m9d59858490" y="327.472753"/>
     <use style="fill:#ff0000;stroke:#ff0000;" x="472.310909" xlink:href="#m9d59858490" y="327.472753"/>
    </g>
   </g>
   <g id="line2d_26">
    <path clip-path="url(#p9a07f09ea4)" d="M 54.529091 42.317705 
L 55.083086 42.317705 
L 55.152336 49.925059 
L 55.290835 49.925059 
L 55.290835 53.728737 
L 55.983329 53.728737 
L 56.052578 68.943446 
L 56.398826 68.943446 
L 56.398826 72.747123 
L 58.33781 72.747123 
L 58.33781 76.550801 
L 59.030304 76.550801 
L 59.030304 80.354478 
L 59.307302 80.354478 
L 59.307302 84.158155 
L 59.584299 84.158155 
L 59.584299 87.961833 
L 60.623041 87.961833 
L 60.623041 91.76551 
L 61.246286 91.76551 
L 61.246286 95.569187 
L 61.592533 95.569187 
L 61.592533 99.372865 
L 62.146528 99.372865 
L 62.146528 103.176542 
L 62.839023 103.176542 
L 62.839023 106.980219 
L 63.046771 106.980219 
L 63.046771 110.783897 
L 63.877764 110.783897 
L 63.877764 118.391251 
L 64.016263 118.391251 
L 64.016263 122.194929 
L 64.43176 122.194929 
L 64.43176 125.998606 
L 64.778007 125.998606 
L 64.778007 129.802283 
L 65.055004 129.802283 
L 65.055004 133.605961 
L 65.193503 133.605961 
L 65.193503 137.409638 
L 66.647741 137.409638 
L 66.716991 145.016993 
L 68.309728 145.016993 
L 68.309728 148.82067 
L 68.863723 148.82067 
L 68.932973 160.231702 
L 69.071471 160.231702 
L 69.071471 164.035379 
L 69.27922 164.035379 
L 69.27922 167.839057 
L 70.802707 167.839057 
L 70.871957 175.446411 
L 71.010456 175.446411 
L 71.010456 183.053766 
L 71.218204 183.053766 
L 71.218204 190.661121 
L 71.356703 190.661121 
L 71.356703 194.464798 
L 71.495202 194.464798 
L 71.495202 198.268475 
L 72.741691 198.268475 
L 72.741691 202.072153 
L 73.018689 202.072153 
L 73.018689 205.87583 
L 73.572684 205.87583 
L 73.572684 209.679507 
L 74.334428 209.679507 
L 74.334428 213.483185 
L 75.026923 213.483185 
L 75.026923 217.286862 
L 75.30392 217.286862 
L 75.30392 221.090539 
L 75.788666 221.090539 
L 75.788666 224.894217 
L 75.996415 224.894217 
L 75.996415 228.697894 
L 76.55041 228.697894 
L 76.55041 232.501571 
L 77.242904 232.501571 
L 77.242904 240.108926 
L 77.935399 240.108926 
L 77.935399 243.912603 
L 79.251138 243.912603 
L 79.251138 247.716281 
L 79.735884 247.716281 
L 79.735884 251.519958 
L 80.082131 251.519958 
L 80.082131 255.323635 
L 81.813367 255.323635 
L 81.813367 259.127313 
L 82.090365 259.127313 
L 82.090365 262.93099 
L 82.436612 262.93099 
L 82.436612 266.734667 
L 84.514095 266.734667 
L 84.514095 270.538345 
L 85.414337 270.538345 
L 85.414337 274.342022 
L 85.552836 274.342022 
L 85.552836 278.145699 
L 88.392063 278.145699 
L 88.392063 281.949377 
L 88.599811 281.949377 
L 88.599811 285.753054 
L 108.128151 285.753054 
L 108.128151 289.556731 
L 111.86762 289.556731 
L 111.86762 293.360409 
L 112.767863 293.360409 
L 112.767863 297.164086 
L 113.183359 297.164086 
L 113.183359 300.967763 
L 116.645831 300.967763 
L 116.645831 304.771441 
L 131.118962 304.771441 
L 131.118962 308.575118 
L 137.351411 308.575118 
L 137.351411 312.378795 
L 165.743677 312.378795 
L 165.743677 316.182473 
L 209.024572 316.182473 
L 209.024572 320.801224 
L 265.878355 320.801224 
L 265.878355 327.472753 
L 472.310909 327.472753 
L 472.310909 327.472753 
" style="fill:none;stroke:#ff0000;stroke-linecap:square;stroke-width:1.5;"/>
   </g>
   <g id="line2d_27">
    <defs>
     <path d="M -3 3 
L 3 -3 
M -3 -3 
L 3 3 
" id="m30d43c779e" style="stroke:#0000ff;"/>
    </defs>
    <g clip-path="url(#p9a07f09ea4)">
     <use style="fill:#0000ff;stroke:#0000ff;" x="95.386255" xlink:href="#m30d43c779e" y="192.346841"/>
     <use style="fill:#0000ff;stroke:#0000ff;" x="182.709788" xlink:href="#m30d43c779e" y="255.179557"/>
     <use style="fill:#0000ff;stroke:#0000ff;" x="187.3495" xlink:href="#m30d43c779e" y="255.179557"/>
     <use style="fill:#0000ff;stroke:#0000ff;" x="189.703981" xlink:href="#m30d43c779e" y="259.368404"/>
     <use style="fill:#0000ff;stroke:#0000ff;" x="198.983404" xlink:href="#m30d43c779e" y="263.706854"/>
     <use style="fill:#0000ff;stroke:#0000ff;" x="227.444921" xlink:href="#m30d43c779e" y="277.222792"/>
     <use style="fill:#0000ff;stroke:#0000ff;" x="232.153882" xlink:href="#m30d43c779e" y="277.222792"/>
     <use style="fill:#0000ff;stroke:#0000ff;" x="237.001342" xlink:href="#m30d43c779e" y="277.222792"/>
     <use style="fill:#0000ff;stroke:#0000ff;" x="261.377142" xlink:href="#m30d43c779e" y="287.585012"/>
     <use style="fill:#0000ff;stroke:#0000ff;" x="280.420735" xlink:href="#m30d43c779e" y="287.585012"/>
     <use style="fill:#0000ff;stroke:#0000ff;" x="289.838658" xlink:href="#m30d43c779e" y="287.585012"/>
     <use style="fill:#0000ff;stroke:#0000ff;" x="295.586361" xlink:href="#m30d43c779e" y="287.585012"/>
     <use style="fill:#0000ff;stroke:#0000ff;" x="322.385891" xlink:href="#m30d43c779e" y="287.585012"/>
     <use style="fill:#0000ff;stroke:#0000ff;" x="330.626573" xlink:href="#m30d43c779e" y="287.585012"/>
     <use style="fill:#0000ff;stroke:#0000ff;" x="333.535049" xlink:href="#m30d43c779e" y="287.585012"/>
     <use style="fill:#0000ff;stroke:#0000ff;" x="333.673548" xlink:href="#m30d43c779e" y="287.585012"/>
     <use style="fill:#0000ff;stroke:#0000ff;" x="333.812047" xlink:href="#m30d43c779e" y="287.585012"/>
     <use style="fill:#0000ff;stroke:#0000ff;" x="333.881296" xlink:href="#m30d43c779e" y="287.585012"/>
     <use style="fill:#0000ff;stroke:#0000ff;" x="351.609151" xlink:href="#m30d43c779e" y="287.585012"/>
     <use style="fill:#0000ff;stroke:#0000ff;" x="370.652744" xlink:href="#m30d43c779e" y="287.585012"/>
     <use style="fill:#0000ff;stroke:#0000ff;" x="391.566072" xlink:href="#m30d43c779e" y="303.128341"/>
     <use style="fill:#0000ff;stroke:#0000ff;" x="392.604814" xlink:href="#m30d43c779e" y="303.128341"/>
     <use style="fill:#0000ff;stroke:#0000ff;" x="393.505056" xlink:href="#m30d43c779e" y="303.128341"/>
     <use style="fill:#0000ff;stroke:#0000ff;" x="445.926876" xlink:href="#m30d43c779e" y="303.128341"/>
     <use style="fill:#0000ff;stroke:#0000ff;" x="463.931728" xlink:href="#m30d43c779e" y="303.128341"/>
    </g>
   </g>
   <g id="line2d_28">
    <path clip-path="url(#p9a07f09ea4)" d="M 54.529091 42.317705 
L 55.360084 42.317705 
L 55.360084 50.011506 
L 55.498583 50.011506 
L 55.498583 53.858407 
L 56.052578 53.858407 
L 56.052578 57.705308 
L 56.191077 57.705308 
L 56.191077 61.552209 
L 56.606574 61.552209 
L 56.606574 65.39911 
L 56.883572 65.39911 
L 56.883572 69.246011 
L 57.09132 69.246011 
L 57.09132 73.092912 
L 59.722798 73.092912 
L 59.722798 76.939813 
L 62.215778 76.939813 
L 62.285027 84.633615 
L 64.085512 84.633615 
L 64.085512 88.480516 
L 64.778007 88.480516 
L 64.778007 92.327417 
L 64.916506 92.327417 
L 64.916506 96.174318 
L 65.470501 96.174318 
L 65.470501 100.021219 
L 65.816748 100.021219 
L 65.816748 103.86812 
L 65.955247 103.86812 
L 65.955247 107.715021 
L 66.093746 107.715021 
L 66.093746 111.561921 
L 67.409485 111.561921 
L 67.409485 115.408822 
L 67.617233 115.408822 
L 67.617233 119.255723 
L 68.309728 119.255723 
L 68.309728 123.102624 
L 68.932973 123.102624 
L 68.932973 126.949525 
L 69.27922 126.949525 
L 69.27922 130.796426 
L 71.772199 130.796426 
L 71.772199 134.643327 
L 71.910698 134.643327 
L 71.910698 138.490228 
L 74.680675 138.490228 
L 74.680675 142.337129 
L 75.996415 142.337129 
L 75.996415 146.18403 
L 76.55041 146.18403 
L 76.55041 150.030931 
L 76.758158 150.030931 
L 76.758158 153.877832 
L 79.528136 153.877832 
L 79.528136 157.724733 
L 82.021115 157.724733 
L 82.021115 161.571634 
L 82.228863 161.571634 
L 82.228863 165.418535 
L 85.137339 165.418535 
L 85.137339 169.265436 
L 88.045816 169.265436 
L 88.045816 173.112337 
L 88.322813 173.112337 
L 88.322813 176.959237 
L 88.66906 176.959237 
L 88.66906 180.806138 
L 90.469546 180.806138 
L 90.538795 188.49994 
L 91.508287 188.49994 
L 91.508287 192.346841 
L 96.217248 192.346841 
L 96.217248 196.273886 
L 98.779477 196.273886 
L 98.779477 200.200931 
L 100.233715 200.200931 
L 100.233715 204.127975 
L 101.826452 204.127975 
L 101.826452 208.05502 
L 110.69038 208.05502 
L 110.69038 211.982065 
L 112.629364 211.982065 
L 112.629364 215.90911 
L 114.152851 215.90911 
L 114.152851 219.836154 
L 118.654064 219.836154 
L 118.654064 223.763199 
L 121.008545 223.763199 
L 121.008545 227.690244 
L 129.803223 227.690244 
L 129.803223 231.617288 
L 138.5979 231.617288 
L 138.5979 235.544333 
L 151.201297 235.544333 
L 151.201297 239.471378 
L 156.118006 239.471378 
L 156.118006 243.398423 
L 162.9737 243.398423 
L 162.9737 247.325467 
L 179.108818 247.325467 
L 179.108818 251.252512 
L 181.463298 251.252512 
L 181.463298 255.179557 
L 187.557248 255.179557 
L 187.557248 259.368404 
L 198.221661 259.368404 
L 198.221661 263.706854 
L 207.362585 263.706854 
L 207.362585 268.212167 
L 209.509318 268.212167 
L 209.509318 272.717479 
L 215.257021 272.717479 
L 215.257021 277.222792 
L 249.46624 277.222792 
L 249.46624 282.403902 
L 258.122419 282.403902 
L 258.122419 287.585012 
L 377.716186 287.585012 
L 377.716186 303.128341 
L 463.931728 303.128341 
L 463.931728 303.128341 
" style="fill:none;stroke:#0000ff;stroke-linecap:square;stroke-width:1.5;"/>
   </g>
   <g id="patch_3">
    <path d="M 33.64 366.5095 
L 33.64 26.88 
" style="fill:none;stroke:#000000;stroke-linecap:square;stroke-linejoin:miter;stroke-width:0.8;"/>
   </g>
   <g id="patch_4">
    <path d="M 493.2 366.5095 
L 493.2 26.88 
" style="fill:none;stroke:#000000;stroke-linecap:square;stroke-linejoin:miter;stroke-width:0.8;"/>
   </g>
   <g id="patch_5">
    <path d="M 33.64 366.5095 
L 493.2 366.5095 
" style="fill:none;stroke:#000000;stroke-linecap:square;stroke-linejoin:miter;stroke-width:0.8;"/>
   </g>
   <g id="patch_6">
    <path d="M 33.64 26.88 
L 493.2 26.88 
" style="fill:none;stroke:#000000;stroke-linecap:square;stroke-linejoin:miter;stroke-width:0.8;"/>
   </g>
   <g id="text_14">
    <text style="font-family:DejaVu Sans;font-size:12px;font-stretch:normal;font-style:normal;font-weight:normal;text-anchor:middle;" transform="rotate(-0, 263.42, 20.88)" x="263.42" y="20.88">Survival curves - model_type: ridge_cph_lifelines</text>
   </g>
   <g id="legend_1">
    <g id="patch_7">
     <path d="M 330.451562 64.23625 
L 486.2 64.23625 
Q 488.2 64.23625 488.2 62.23625 
L 488.2 33.88 
Q 488.2 31.88 486.2 31.88 
L 330.451562 31.88 
Q 328.451562 31.88 328.451562 33.88 
L 328.451562 62.23625 
Q 328.451562 64.23625 330.451562 64.23625 
z
" style="fill:#ffffff;opacity:0.8;stroke:#cccccc;stroke-linejoin:miter;"/>
    </g>
    <g id="line2d_29">
     <path d="M 332.451562 39.978437 
L 352.451562 39.978437 
" style="fill:none;stroke:#ff0000;stroke-linecap:square;stroke-width:1.5;"/>
    </g>
    <g id="line2d_30"/>
    <g id="text_15">
     <text style="font-family:DejaVu Sans;font-size:10px;font-stretch:normal;font-style:normal;font-weight:normal;text-anchor:start;" transform="rotate(-0, 360.451562, 43.478437)" x="360.451562" y="43.478437">high. risk (n:88 c:15)</text>
    </g>
    <g id="line2d_31">
     <path d="M 332.451562 54.656563 
L 352.451562 54.656563 
" style="fill:none;stroke:#0000ff;stroke-linecap:square;stroke-width:1.5;"/>
    </g>
    <g id="line2d_32"/>
    <g id="text_16">
     <text style="font-family:DejaVu Sans;font-size:10px;font-stretch:normal;font-style:normal;font-weight:normal;text-anchor:start;" transform="rotate(-0, 360.451562, 58.156563)" x="360.451562" y="58.156563">low risk. risk (n:89 c:25 )</text>
    </g>
   </g>
  </g>
 </g>
 <defs>
  <clipPath id="p9a07f09ea4">
   <rect height="339.6295" width="459.56" x="33.64" y="26.88"/>
  </clipPath>
 </defs>
</svg>
