<?xml version="1.0" encoding="utf-8" standalone="no"?>
<!DOCTYPE svg PUBLIC "-//W3C//DTD SVG 1.1//EN"
  "http://www.w3.org/Graphics/SVG/1.1/DTD/svg11.dtd">
<!-- Created with matplotlib (https://matplotlib.org/) -->
<svg height="432pt" version="1.1" viewBox="0 0 504 432" width="504pt" xmlns="http://www.w3.org/2000/svg" xmlns:xlink="http://www.w3.org/1999/xlink">
 <metadata>
  <rdf:RDF xmlns:cc="http://creativecommons.org/ns#" xmlns:dc="http://purl.org/dc/elements/1.1/" xmlns:rdf="http://www.w3.org/1999/02/22-rdf-syntax-ns#">
   <cc:Work>
    <dc:type rdf:resource="http://purl.org/dc/dcmitype/StillImage"/>
    <dc:date>2022-11-28T13:19:23.228230</dc:date>
    <dc:format>image/svg+xml</dc:format>
    <dc:creator>
     <cc:Agent>
      <dc:title>Matplotlib v3.3.4, https://matplotlib.org/</dc:title>
     </cc:Agent>
    </dc:creator>
   </cc:Work>
  </rdf:RDF>
 </metadata>
 <defs>
  <style type="text/css">*{stroke-linecap:butt;stroke-linejoin:round;}</style>
 </defs>
 <g id="figure_1">
  <g id="patch_1">
   <path d="M 0 432 
L 504 432 
L 504 0 
L 0 0 
z
" style="fill:#ffffff;"/>
  </g>
  <g id="axes_1">
   <g id="patch_2">
    <path d="M 33.64 366.5095 
L 493.2 366.5095 
L 493.2 26.88 
L 33.64 26.88 
z
" style="fill:#ffffff;"/>
   </g>
   <g id="PolyCollection_1">
    <defs>
     <path d="M 54.529091 -389.682295 
L 54.529091 -389.682295 
L 55.152336 -389.682295 
L 55.152336 -362.626329 
L 55.290835 -362.626329 
L 55.290835 -359.189096 
L 55.360084 -359.189096 
L 55.360084 -344.193786 
L 55.567832 -344.193786 
L 55.567832 -339.229514 
L 55.91408 -339.229514 
L 55.91408 -334.339871 
L 55.983329 -334.339871 
L 55.983329 -329.522138 
L 56.052578 -329.522138 
L 56.052578 -324.771243 
L 56.606574 -324.771243 
L 56.606574 -320.081841 
L 56.952821 -320.081841 
L 56.952821 -315.448962 
L 57.02207 -315.448962 
L 57.02207 -306.33563 
L 57.783814 -306.33563 
L 57.783814 -301.847941 
L 58.060812 -301.847941 
L 58.060812 -297.402187 
L 58.33781 -297.402187 
L 58.33781 -292.995815 
L 58.822556 -292.995815 
L 58.822556 -288.626599 
L 59.030304 -288.626599 
L 59.030304 -284.292584 
L 59.584299 -284.292584 
L 59.584299 -279.992054 
L 60.138295 -279.992054 
L 60.138295 -275.723496 
L 60.276794 -275.723496 
L 60.276794 -271.485571 
L 60.623041 -271.485571 
L 60.623041 -267.277096 
L 60.830789 -267.277096 
L 60.830789 -263.097018 
L 60.969288 -263.097018 
L 60.969288 -258.944406 
L 61.246286 -258.944406 
L 61.246286 -254.818431 
L 61.523283 -254.818431 
L 61.523283 -250.718359 
L 61.592533 -250.718359 
L 61.592533 -246.643538 
L 62.215778 -246.643538 
L 62.215778 -242.593393 
L 62.285027 -242.593393 
L 62.285027 -238.567418 
L 62.839023 -238.567418 
L 62.839023 -234.565169 
L 63.323769 -234.565169 
L 63.323769 -230.586262 
L 63.739265 -230.586262 
L 63.739265 -226.630366 
L 63.877764 -226.630366 
L 63.877764 -222.697201 
L 63.947014 -222.697201 
L 63.947014 -218.786536 
L 64.43176 -218.786536 
L 64.43176 -214.898183 
L 64.708757 -214.898183 
L 64.708757 -211.032002 
L 64.778007 -211.032002 
L 64.778007 -207.187891 
L 64.916506 -207.187891 
L 64.916506 -199.56569 
L 65.055004 -199.56569 
L 65.055004 -192.031606 
L 65.678249 -192.031606 
L 65.678249 -188.297794 
L 65.816748 -188.297794 
L 65.816748 -184.58632 
L 66.162995 -184.58632 
L 66.162995 -180.897375 
L 66.439993 -180.897375 
L 66.439993 -177.231197 
L 66.647741 -177.231197 
L 66.647741 -173.588071 
L 66.716991 -173.588071 
L 66.716991 -169.968334 
L 67.409485 -169.968334 
L 67.409485 -166.372374 
L 67.617233 -166.372374 
L 67.617233 -162.800639 
L 68.309728 -162.800639 
L 68.309728 -159.253642 
L 68.932973 -159.253642 
L 68.932973 -155.73196 
L 69.27922 -155.73196 
L 69.27922 -152.236249 
L 69.833215 -152.236249 
L 69.833215 -148.767248 
L 70.802707 -148.767248 
L 70.802707 -145.325788 
L 70.871957 -145.325788 
L 70.871957 -141.912807 
L 71.218204 -141.912807 
L 71.218204 -138.52936 
L 71.495202 -138.52936 
L 71.495202 -135.176639 
L 71.910698 -135.176639 
L 71.910698 -131.855992 
L 72.187696 -131.855992 
L 72.187696 -128.568947 
L 72.741691 -128.568947 
L 72.741691 -125.317244 
L 73.018689 -125.317244 
L 73.018689 -122.102873 
L 75.026923 -122.102873 
L 75.026923 -118.928121 
L 75.442419 -118.928121 
L 75.442419 -115.795634 
L 75.788666 -115.795634 
L 75.788666 -112.708497 
L 76.55041 -112.708497 
L 76.55041 -109.670335 
L 76.758158 -109.670335 
L 76.758158 -106.68545 
L 80.082131 -106.68545 
L 80.082131 -103.75901 
L 84.029349 -103.75901 
L 84.029349 -100.897309 
L 89.777051 -100.897309 
L 89.777051 -98.108134 
L 90.538795 -98.108134 
L 90.538795 -95.401316 
L 99.194974 -95.401316 
L 99.194974 -92.789563 
L 101.618704 -92.789563 
L 101.618704 -90.289796 
L 110.274883 -90.289796 
L 110.274883 -87.925413 
L 110.69038 -87.925413 
L 110.69038 -85.730404 
L 116.645831 -85.730404 
L 116.645831 -83.757593 
L 204.800357 -83.757593 
L 204.800357 -82.09738 
L 347.800432 -82.09738 
L 347.800432 -80.928205 
L 376.746694 -80.928205 
L 376.746694 -80.928205 
L 376.746694 -99.642178 
L 376.746694 -99.642178 
L 376.746694 -99.642178 
L 347.800432 -99.642178 
L 347.800432 -105.409808 
L 204.800357 -105.409808 
L 204.800357 -111.033995 
L 116.645831 -111.033995 
L 116.645831 -116.446502 
L 110.69038 -116.446502 
L 110.69038 -121.686103 
L 110.274883 -121.686103 
L 110.274883 -126.786639 
L 101.618704 -126.786639 
L 101.618704 -131.772907 
L 99.194974 -131.772907 
L 99.194974 -136.663056 
L 90.538795 -136.663056 
L 90.538795 -141.470675 
L 89.777051 -141.470675 
L 89.777051 -146.20619 
L 84.029349 -146.20619 
L 84.029349 -150.877788 
L 80.082131 -150.877788 
L 80.082131 -155.492018 
L 76.758158 -155.492018 
L 76.758158 -160.054213 
L 76.55041 -160.054213 
L 76.55041 -164.568775 
L 75.788666 -164.568775 
L 75.788666 -169.039386 
L 75.442419 -169.039386 
L 75.442419 -173.469157 
L 75.026923 -173.469157 
L 75.026923 -177.860738 
L 73.018689 -177.860738 
L 73.018689 -182.216411 
L 72.741691 -182.216411 
L 72.741691 -186.538146 
L 72.187696 -186.538146 
L 72.187696 -190.827662 
L 71.910698 -190.827662 
L 71.910698 -195.086458 
L 71.495202 -195.086458 
L 71.495202 -199.315852 
L 71.218204 -199.315852 
L 71.218204 -203.517006 
L 70.871957 -203.517006 
L 70.871957 -207.690942 
L 70.802707 -207.690942 
L 70.802707 -211.838567 
L 69.833215 -211.838567 
L 69.833215 -215.960683 
L 69.27922 -215.960683 
L 69.27922 -220.057998 
L 68.932973 -220.057998 
L 68.932973 -224.131138 
L 68.309728 -224.131138 
L 68.309728 -228.180655 
L 67.617233 -228.180655 
L 67.617233 -232.207035 
L 67.409485 -232.207035 
L 67.409485 -236.210699 
L 66.716991 -236.210699 
L 66.716991 -240.192014 
L 66.647741 -240.192014 
L 66.647741 -244.151294 
L 66.439993 -244.151294 
L 66.439993 -248.088803 
L 66.162995 -248.088803 
L 66.162995 -252.00476 
L 65.816748 -252.00476 
L 65.816748 -255.899337 
L 65.678249 -255.899337 
L 65.678249 -259.772667 
L 65.055004 -259.772667 
L 65.055004 -267.455906 
L 64.916506 -267.455906 
L 64.916506 -275.054718 
L 64.778007 -275.054718 
L 64.778007 -278.822367 
L 64.708757 -278.822367 
L 64.708757 -282.568711 
L 64.43176 -282.568711 
L 64.43176 -286.2936 
L 63.947014 -286.2936 
L 63.947014 -289.996841 
L 63.877764 -289.996841 
L 63.877764 -293.678196 
L 63.739265 -293.678196 
L 63.739265 -297.337378 
L 63.323769 -297.337378 
L 63.323769 -300.974055 
L 62.839023 -300.974055 
L 62.839023 -304.587836 
L 62.285027 -304.587836 
L 62.285027 -308.178276 
L 62.215778 -308.178276 
L 62.215778 -311.744866 
L 61.592533 -311.744866 
L 61.592533 -315.287028 
L 61.523283 -315.287028 
L 61.523283 -318.80411 
L 61.246286 -318.80411 
L 61.246286 -322.295373 
L 60.969288 -322.295373 
L 60.969288 -325.759985 
L 60.830789 -325.759985 
L 60.830789 -329.197006 
L 60.623041 -329.197006 
L 60.623041 -332.605377 
L 60.276794 -332.605377 
L 60.276794 -335.983895 
L 60.138295 -335.983895 
L 60.138295 -339.331199 
L 59.584299 -339.331199 
L 59.584299 -342.645738 
L 59.030304 -342.645738 
L 59.030304 -345.925739 
L 58.822556 -345.925739 
L 58.822556 -349.169165 
L 58.33781 -349.169165 
L 58.33781 -352.373659 
L 58.060812 -352.373659 
L 58.060812 -355.536481 
L 57.783814 -355.536481 
L 57.783814 -358.654408 
L 57.02207 -358.654408 
L 57.02207 -364.739549 
L 56.952821 -364.739549 
L 56.952821 -367.696614 
L 56.606574 -367.696614 
L 56.606574 -370.587939 
L 56.052578 -370.587939 
L 56.052578 -373.404855 
L 55.983329 -373.404855 
L 55.983329 -376.136174 
L 55.91408 -376.136174 
L 55.91408 -378.767019 
L 55.567832 -378.767019 
L 55.567832 -381.276842 
L 55.360084 -381.276842 
L 55.360084 -387.680879 
L 55.290835 -387.680879 
L 55.290835 -389.120998 
L 55.152336 -389.120998 
L 55.152336 -389.682295 
L 54.529091 -389.682295 
z
" id="mb9545981bd" style="stroke:#ff0000;stroke-opacity:0.25;"/>
    </defs>
    <g clip-path="url(#pc15c074d4d)">
     <use style="fill:#ff0000;fill-opacity:0.25;stroke:#ff0000;stroke-opacity:0.25;" x="0" xlink:href="#mb9545981bd" y="432"/>
    </g>
   </g>
   <g id="PolyCollection_2">
    <defs>
     <path d="M 54.529091 -389.682295 
L 54.529091 -389.682295 
L 74.680675 -389.682295 
L 74.680675 -344.101196 
L 75.442419 -344.101196 
L 75.442419 -338.30092 
L 75.580918 -338.30092 
L 75.580918 -330.14348 
L 88.045816 -330.14348 
L 88.045816 -321.764198 
L 95.524754 -321.764198 
L 95.524754 -313.468561 
L 100.233715 -313.468561 
L 100.233715 -305.318905 
L 101.687954 -305.318905 
L 101.687954 -297.32351 
L 106.812411 -297.32351 
L 106.812411 -289.476439 
L 108.128151 -289.476439 
L 108.128151 -281.768366 
L 114.152851 -281.768366 
L 114.152851 -274.18986 
L 122.462783 -274.18986 
L 122.462783 -266.732388 
L 168.305906 -266.732388 
L 168.305906 -259.388545 
L 182.709788 -259.388545 
L 182.709788 -259.388545 
L 184.579523 -259.388545 
L 184.579523 -259.388545 
L 187.834246 -259.388545 
L 187.834246 -259.388545 
L 193.651198 -259.388545 
L 193.651198 -259.388545 
L 208.678325 -259.388545 
L 208.678325 -259.388545 
L 218.026998 -259.388545 
L 218.026998 -250.273393 
L 218.373245 -250.273393 
L 218.373245 -250.273393 
L 224.259447 -250.273393 
L 224.259447 -250.273393 
L 226.26768 -250.273393 
L 226.26768 -250.273393 
L 232.153882 -250.273393 
L 232.153882 -250.273393 
L 235.685603 -250.273393 
L 235.685603 -250.273393 
L 245.519022 -250.273393 
L 245.519022 -250.273393 
L 253.759704 -250.273393 
L 253.759704 -250.273393 
L 263.177627 -250.273393 
L 263.177627 -250.273393 
L 280.420735 -250.273393 
L 280.420735 -250.273393 
L 280.697733 -250.273393 
L 280.697733 -250.273393 
L 284.160205 -250.273393 
L 284.160205 -250.273393 
L 289.838658 -250.273393 
L 289.838658 -250.273393 
L 316.638188 -250.273393 
L 316.638188 -250.273393 
L 322.039643 -250.273393 
L 322.039643 -250.273393 
L 330.765072 -250.273393 
L 330.765072 -250.273393 
L 338.31326 -250.273393 
L 338.31326 -250.273393 
L 344.060963 -250.273393 
L 344.060963 -250.273393 
L 357.910849 -250.273393 
L 357.910849 -250.273393 
L 370.652744 -250.273393 
L 370.652744 -250.273393 
L 383.256141 -250.273393 
L 383.256141 -250.273393 
L 389.904086 -250.273393 
L 389.904086 -250.273393 
L 393.505056 -250.273393 
L 393.505056 -250.273393 
L 398.491015 -250.273393 
L 398.491015 -250.273393 
L 408.393684 -250.273393 
L 408.393684 -250.273393 
L 425.221296 -250.273393 
L 425.221296 -250.273393 
L 441.356413 -250.273393 
L 441.356413 -250.273393 
L 458.184025 -250.273393 
L 458.184025 -250.273393 
L 458.184025 -333.594879 
L 458.184025 -333.594879 
L 458.184025 -333.594879 
L 441.356413 -333.594879 
L 441.356413 -333.594879 
L 425.221296 -333.594879 
L 425.221296 -333.594879 
L 408.393684 -333.594879 
L 408.393684 -333.594879 
L 398.491015 -333.594879 
L 398.491015 -333.594879 
L 393.505056 -333.594879 
L 393.505056 -333.594879 
L 389.904086 -333.594879 
L 389.904086 -333.594879 
L 383.256141 -333.594879 
L 383.256141 -333.594879 
L 370.652744 -333.594879 
L 370.652744 -333.594879 
L 357.910849 -333.594879 
L 357.910849 -333.594879 
L 344.060963 -333.594879 
L 344.060963 -333.594879 
L 338.31326 -333.594879 
L 338.31326 -333.594879 
L 330.765072 -333.594879 
L 330.765072 -333.594879 
L 322.039643 -333.594879 
L 322.039643 -333.594879 
L 316.638188 -333.594879 
L 316.638188 -333.594879 
L 289.838658 -333.594879 
L 289.838658 -333.594879 
L 284.160205 -333.594879 
L 284.160205 -333.594879 
L 280.697733 -333.594879 
L 280.697733 -333.594879 
L 280.420735 -333.594879 
L 280.420735 -333.594879 
L 263.177627 -333.594879 
L 263.177627 -333.594879 
L 253.759704 -333.594879 
L 253.759704 -333.594879 
L 245.519022 -333.594879 
L 245.519022 -333.594879 
L 235.685603 -333.594879 
L 235.685603 -333.594879 
L 232.153882 -333.594879 
L 232.153882 -333.594879 
L 226.26768 -333.594879 
L 226.26768 -333.594879 
L 224.259447 -333.594879 
L 224.259447 -333.594879 
L 218.373245 -333.594879 
L 218.373245 -333.594879 
L 218.026998 -333.594879 
L 218.026998 -339.867317 
L 208.678325 -339.867317 
L 208.678325 -339.867317 
L 193.651198 -339.867317 
L 193.651198 -339.867317 
L 187.834246 -339.867317 
L 187.834246 -339.867317 
L 184.579523 -339.867317 
L 184.579523 -339.867317 
L 182.709788 -339.867317 
L 182.709788 -339.867317 
L 168.305906 -339.867317 
L 168.305906 -345.319334 
L 122.462783 -345.319334 
L 122.462783 -350.648515 
L 114.152851 -350.648515 
L 114.152851 -355.843265 
L 108.128151 -355.843265 
L 108.128151 -360.888798 
L 106.812411 -360.888798 
L 106.812411 -365.765875 
L 101.687954 -365.765875 
L 101.687954 -370.448773 
L 100.233715 -370.448773 
L 100.233715 -374.901836 
L 95.524754 -374.901836 
L 95.524754 -379.073175 
L 88.045816 -379.073175 
L 88.045816 -382.881897 
L 75.580918 -382.881897 
L 75.580918 -386.188203 
L 75.442419 -386.188203 
L 75.442419 -388.705413 
L 74.680675 -388.705413 
L 74.680675 -389.682295 
L 54.529091 -389.682295 
z
" id="mcddca04a68" style="stroke:#0000ff;stroke-opacity:0.25;"/>
    </defs>
    <g clip-path="url(#pc15c074d4d)">
     <use style="fill:#0000ff;fill-opacity:0.25;stroke:#0000ff;stroke-opacity:0.25;" x="0" xlink:href="#mcddca04a68" y="432"/>
    </g>
   </g>
   <g id="PolyCollection_3">
    <defs>
     <path d="M 54.529091 -389.682295 
L 54.529091 -389.682295 
L 55.083086 -389.682295 
L 55.083086 -377.496741 
L 55.360084 -377.496741 
L 55.360084 -375.952084 
L 55.429334 -375.952084 
L 55.429334 -373.725916 
L 55.498583 -373.725916 
L 55.498583 -371.418812 
L 55.775581 -371.418812 
L 55.775581 -369.118045 
L 56.052578 -369.118045 
L 56.052578 -362.376483 
L 56.191077 -362.376483 
L 56.191077 -360.183098 
L 56.329576 -360.183098 
L 56.329576 -358.013233 
L 56.398826 -358.013233 
L 56.398826 -353.735887 
L 56.537324 -353.735887 
L 56.537324 -351.624862 
L 56.883572 -351.624862 
L 56.883572 -349.530264 
L 57.02207 -349.530264 
L 57.02207 -347.450821 
L 57.09132 -347.450821 
L 57.09132 -345.385419 
L 59.307302 -345.385419 
L 59.307302 -343.333078 
L 59.51505 -343.333078 
L 59.51505 -341.292931 
L 59.722798 -341.292931 
L 59.722798 -337.246234 
L 59.861297 -337.246234 
L 59.861297 -335.238385 
L 60.138295 -335.238385 
L 60.138295 -333.223688 
L 60.415293 -333.223688 
L 60.415293 -331.218442 
L 60.553791 -331.218442 
L 60.553791 -329.222161 
L 61.592533 -329.222161 
L 61.592533 -327.234406 
L 61.731032 -327.234406 
L 61.731032 -325.254777 
L 62.008029 -325.254777 
L 62.008029 -323.28291 
L 62.146528 -323.28291 
L 62.146528 -321.318475 
L 62.215778 -321.318475 
L 62.215778 -319.361168 
L 63.046771 -319.361168 
L 63.046771 -317.410708 
L 63.462268 -317.410708 
L 63.462268 -315.466839 
L 63.877764 -315.466839 
L 63.877764 -313.529324 
L 64.016263 -313.529324 
L 64.016263 -311.597942 
L 64.085512 -311.597942 
L 64.085512 -309.67249 
L 64.570258 -309.67249 
L 64.570258 -307.752779 
L 64.778007 -307.752779 
L 64.778007 -305.838632 
L 65.193503 -305.838632 
L 65.193503 -303.929887 
L 65.470501 -303.929887 
L 65.470501 -302.026388 
L 65.955247 -302.026388 
L 65.955247 -300.127993 
L 66.093746 -300.127993 
L 66.093746 -298.234568 
L 68.309728 -298.234568 
L 68.309728 -296.345987 
L 68.863723 -296.345987 
L 68.863723 -294.462132 
L 68.932973 -294.462132 
L 68.932973 -290.708161 
L 69.071471 -290.708161 
L 69.071471 -288.837843 
L 69.27922 -288.837843 
L 69.27922 -286.971845 
L 69.763966 -286.971845 
L 69.763966 -285.110078 
L 70.733458 -285.110078 
L 70.733458 -283.252462 
L 70.941206 -283.252462 
L 70.941206 -281.398917 
L 71.010456 -281.398917 
L 71.010456 -277.703754 
L 71.218204 -277.703754 
L 71.218204 -275.862 
L 71.356703 -275.862 
L 71.356703 -274.024047 
L 71.772199 -274.024047 
L 71.772199 -272.189836 
L 71.979948 -272.189836 
L 71.979948 -270.359312 
L 72.049197 -270.359312 
L 72.049197 -268.532422 
L 72.810941 -268.532422 
L 72.810941 -266.709116 
L 73.572684 -266.709116 
L 73.572684 -264.889346 
L 74.195929 -264.889346 
L 74.195929 -263.073069 
L 74.334428 -263.073069 
L 74.334428 -261.260242 
L 75.026923 -261.260242 
L 75.026923 -259.450824 
L 75.096172 -259.450824 
L 75.096172 -257.644779 
L 75.30392 -257.644779 
L 75.30392 -254.042666 
L 75.996415 -254.042666 
L 75.996415 -248.663958 
L 76.55041 -248.663958 
L 76.55041 -245.094132 
L 76.827408 -245.094132 
L 76.827408 -243.313939 
L 77.242904 -243.313939 
L 77.242904 -239.762883 
L 77.935399 -239.762883 
L 77.935399 -237.991981 
L 78.143147 -237.991981 
L 78.143147 -236.224139 
L 79.251138 -236.224139 
L 79.251138 -234.459341 
L 79.320387 -234.459341 
L 79.320387 -232.697574 
L 79.528136 -232.697574 
L 79.528136 -230.938822 
L 79.735884 -230.938822 
L 79.735884 -229.183074 
L 80.22063 -229.183074 
L 80.22063 -227.430319 
L 81.813367 -227.430319 
L 81.813367 -225.680547 
L 82.021115 -225.680547 
L 82.021115 -223.933751 
L 82.090365 -223.933751 
L 82.090365 -222.189921 
L 82.228863 -222.189921 
L 82.228863 -220.449053 
L 82.436612 -220.449053 
L 82.436612 -218.711141 
L 84.514095 -218.711141 
L 84.514095 -216.976182 
L 85.137339 -216.976182 
L 85.137339 -215.244172 
L 85.206589 -215.244172 
L 85.206589 -213.51511 
L 85.414337 -213.51511 
L 85.414337 -211.788995 
L 85.552836 -211.788995 
L 85.552836 -210.065829 
L 86.31458 -210.065829 
L 86.31458 -208.345613 
L 88.045816 -208.345613 
L 88.045816 -206.628349 
L 88.322813 -206.628349 
L 88.322813 -204.914042 
L 88.392063 -204.914042 
L 88.392063 -203.202697 
L 88.599811 -203.202697 
L 88.599811 -199.788919 
L 88.66906 -199.788919 
L 88.66906 -198.086502 
L 89.084557 -198.086502 
L 89.084557 -196.387079 
L 90.469546 -196.387079 
L 90.469546 -194.690661 
L 91.508287 -194.690661 
L 91.508287 -192.99726 
L 95.386255 -192.99726 
L 95.386255 -192.99726 
L 96.217248 -192.99726 
L 96.217248 -191.28117 
L 98.779477 -191.28117 
L 98.779477 -189.568309 
L 101.826452 -189.568309 
L 101.826452 -187.858692 
L 103.488439 -187.858692 
L 103.488439 -186.152336 
L 104.52718 -186.152336 
L 104.52718 -184.449259 
L 111.86762 -184.449259 
L 111.86762 -182.749481 
L 112.629364 -182.749481 
L 112.629364 -181.053022 
L 112.767863 -181.053022 
L 112.767863 -179.359906 
L 113.183359 -179.359906 
L 113.183359 -177.670157 
L 118.654064 -177.670157 
L 118.654064 -175.983802 
L 121.008545 -175.983802 
L 121.008545 -174.300869 
L 129.803223 -174.300869 
L 129.803223 -172.621387 
L 130.772715 -172.621387 
L 130.772715 -170.945389 
L 131.118962 -170.945389 
L 131.118962 -169.272909 
L 137.351411 -169.272909 
L 137.351411 -167.603983 
L 138.5979 -167.603983 
L 138.5979 -165.938649 
L 150.231805 -165.938649 
L 150.231805 -164.276948 
L 151.201297 -164.276948 
L 151.201297 -162.618923 
L 156.118006 -162.618923 
L 156.118006 -160.96462 
L 162.9737 -160.96462 
L 162.9737 -159.314087 
L 165.743677 -159.314087 
L 165.743677 -157.667376 
L 179.108818 -157.667376 
L 179.108818 -156.024539 
L 181.463298 -156.024539 
L 181.463298 -154.385635 
L 187.3495 -154.385635 
L 187.3495 -154.385635 
L 187.557248 -154.385635 
L 187.557248 -152.714076 
L 189.703981 -152.714076 
L 189.703981 -152.714076 
L 191.850713 -152.714076 
L 191.850713 -152.714076 
L 198.221661 -152.714076 
L 198.221661 -150.967158 
L 198.983404 -150.967158 
L 198.983404 -150.967158 
L 206.254595 -150.967158 
L 206.254595 -150.967158 
L 207.362585 -150.967158 
L 207.362585 -149.136301 
L 208.262828 -149.136301 
L 208.262828 -149.136301 
L 209.024572 -149.136301 
L 209.024572 -147.262908 
L 209.509318 -147.262908 
L 209.509318 -145.396714 
L 215.257021 -145.396714 
L 215.257021 -143.53782 
L 218.165497 -143.53782 
L 218.165497 -141.68634 
L 224.259447 -141.68634 
L 224.259447 -141.68634 
L 227.444921 -141.68634 
L 227.444921 -141.68634 
L 237.001342 -141.68634 
L 237.001342 -141.68634 
L 237.901585 -141.68634 
L 237.901585 -141.68634 
L 241.156308 -141.68634 
L 241.156308 -141.68634 
L 248.704496 -141.68634 
L 248.704496 -141.68634 
L 249.46624 -141.68634 
L 249.46624 -139.447155 
L 252.859462 -139.447155 
L 252.859462 -139.447155 
L 258.122419 -139.447155 
L 258.122419 -137.138637 
L 261.377142 -137.138637 
L 261.377142 -137.138637 
L 265.878355 -137.138637 
L 265.878355 -134.754188 
L 266.43235 -134.754188 
L 266.43235 -134.754188 
L 269.133078 -134.754188 
L 269.133078 -134.754188 
L 270.10257 -134.754188 
L 270.10257 -134.754188 
L 295.586361 -134.754188 
L 295.586361 -134.754188 
L 302.234306 -134.754188 
L 302.234306 -134.754188 
L 322.385891 -134.754188 
L 322.385891 -134.754188 
L 330.626573 -134.754188 
L 330.626573 -134.754188 
L 333.535049 -134.754188 
L 333.535049 -134.754188 
L 333.673548 -134.754188 
L 333.673548 -134.754188 
L 333.812047 -134.754188 
L 333.812047 -134.754188 
L 333.881296 -134.754188 
L 333.881296 -134.754188 
L 351.609151 -134.754188 
L 351.609151 -134.754188 
L 356.52586 -134.754188 
L 356.52586 -134.754188 
L 359.503586 -134.754188 
L 359.503586 -134.754188 
L 374.738461 -134.754188 
L 374.738461 -134.754188 
L 377.716186 -134.754188 
L 377.716186 -128.193063 
L 380.693912 -128.193063 
L 380.693912 -128.193063 
L 388.726846 -128.193063 
L 388.726846 -128.193063 
L 391.566072 -128.193063 
L 391.566072 -128.193063 
L 392.604814 -128.193063 
L 392.604814 -128.193063 
L 405.069711 -128.193063 
L 405.069711 -128.193063 
L 432.907983 -128.193063 
L 432.907983 -128.193063 
L 445.926876 -128.193063 
L 445.926876 -128.193063 
L 455.483297 -128.193063 
L 455.483297 -128.193063 
L 459.499764 -128.193063 
L 459.499764 -128.193063 
L 463.931728 -128.193063 
L 463.931728 -128.193063 
L 464.347225 -128.193063 
L 464.347225 -128.193063 
L 472.310909 -128.193063 
L 472.310909 -128.193063 
L 472.310909 -170.592748 
L 472.310909 -170.592748 
L 472.310909 -170.592748 
L 464.347225 -170.592748 
L 464.347225 -170.592748 
L 463.931728 -170.592748 
L 463.931728 -170.592748 
L 459.499764 -170.592748 
L 459.499764 -170.592748 
L 455.483297 -170.592748 
L 455.483297 -170.592748 
L 445.926876 -170.592748 
L 445.926876 -170.592748 
L 432.907983 -170.592748 
L 432.907983 -170.592748 
L 405.069711 -170.592748 
L 405.069711 -170.592748 
L 392.604814 -170.592748 
L 392.604814 -170.592748 
L 391.566072 -170.592748 
L 391.566072 -170.592748 
L 388.726846 -170.592748 
L 388.726846 -170.592748 
L 380.693912 -170.592748 
L 380.693912 -170.592748 
L 377.716186 -170.592748 
L 377.716186 -174.688126 
L 374.738461 -174.688126 
L 374.738461 -174.688126 
L 359.503586 -174.688126 
L 359.503586 -174.688126 
L 356.52586 -174.688126 
L 356.52586 -174.688126 
L 351.609151 -174.688126 
L 351.609151 -174.688126 
L 333.881296 -174.688126 
L 333.881296 -174.688126 
L 333.812047 -174.688126 
L 333.812047 -174.688126 
L 333.673548 -174.688126 
L 333.673548 -174.688126 
L 333.535049 -174.688126 
L 333.535049 -174.688126 
L 330.626573 -174.688126 
L 330.626573 -174.688126 
L 322.385891 -174.688126 
L 322.385891 -174.688126 
L 302.234306 -174.688126 
L 302.234306 -174.688126 
L 295.586361 -174.688126 
L 295.586361 -174.688126 
L 270.10257 -174.688126 
L 270.10257 -174.688126 
L 269.133078 -174.688126 
L 269.133078 -174.688126 
L 266.43235 -174.688126 
L 266.43235 -174.688126 
L 265.878355 -174.688126 
L 265.878355 -177.225764 
L 261.377142 -177.225764 
L 261.377142 -177.225764 
L 258.122419 -177.225764 
L 258.122419 -179.686587 
L 252.859462 -179.686587 
L 252.859462 -179.686587 
L 249.46624 -179.686587 
L 249.46624 -182.077231 
L 248.704496 -182.077231 
L 248.704496 -182.077231 
L 241.156308 -182.077231 
L 241.156308 -182.077231 
L 237.901585 -182.077231 
L 237.901585 -182.077231 
L 237.001342 -182.077231 
L 237.001342 -182.077231 
L 227.444921 -182.077231 
L 227.444921 -182.077231 
L 224.259447 -182.077231 
L 224.259447 -182.077231 
L 218.165497 -182.077231 
L 218.165497 -184.171357 
L 215.257021 -184.171357 
L 215.257021 -186.258967 
L 209.509318 -186.258967 
L 209.509318 -188.340172 
L 209.024572 -188.340172 
L 209.024572 -190.415073 
L 208.262828 -190.415073 
L 208.262828 -190.415073 
L 207.362585 -190.415073 
L 207.362585 -192.446351 
L 206.254595 -192.446351 
L 206.254595 -192.446351 
L 198.983404 -192.446351 
L 198.983404 -192.446351 
L 198.221661 -192.446351 
L 198.221661 -194.402485 
L 191.850713 -194.402485 
L 191.850713 -194.402485 
L 189.703981 -194.402485 
L 189.703981 -194.402485 
L 187.557248 -194.402485 
L 187.557248 -196.290132 
L 187.3495 -196.290132 
L 187.3495 -196.290132 
L 181.463298 -196.290132 
L 181.463298 -198.143951 
L 179.108818 -198.143951 
L 179.108818 -199.994074 
L 165.743677 -199.994074 
L 165.743677 -201.840552 
L 162.9737 -201.840552 
L 162.9737 -203.683434 
L 156.118006 -203.683434 
L 156.118006 -205.522767 
L 151.201297 -205.522767 
L 151.201297 -207.358594 
L 150.231805 -207.358594 
L 150.231805 -209.190956 
L 138.5979 -209.190956 
L 138.5979 -211.019893 
L 137.351411 -211.019893 
L 137.351411 -212.845441 
L 131.118962 -212.845441 
L 131.118962 -214.667635 
L 130.772715 -214.667635 
L 130.772715 -216.486508 
L 129.803223 -216.486508 
L 129.803223 -218.302091 
L 121.008545 -218.302091 
L 121.008545 -220.114412 
L 118.654064 -220.114412 
L 118.654064 -221.923499 
L 113.183359 -221.923499 
L 113.183359 -223.729377 
L 112.767863 -223.729377 
L 112.767863 -225.53207 
L 112.629364 -225.53207 
L 112.629364 -227.3316 
L 111.86762 -227.3316 
L 111.86762 -229.127988 
L 104.52718 -229.127988 
L 104.52718 -230.921252 
L 103.488439 -230.921252 
L 103.488439 -232.711411 
L 101.826452 -232.711411 
L 101.826452 -234.49848 
L 98.779477 -234.49848 
L 98.779477 -236.282476 
L 96.217248 -236.282476 
L 96.217248 -238.06341 
L 95.386255 -238.06341 
L 95.386255 -238.06341 
L 91.508287 -238.06341 
L 91.508287 -239.821529 
L 90.469546 -239.821529 
L 90.469546 -241.576748 
L 89.084557 -241.576748 
L 89.084557 -243.329077 
L 88.66906 -243.329077 
L 88.66906 -245.078524 
L 88.599811 -245.078524 
L 88.599811 -248.568803 
L 88.392063 -248.568803 
L 88.392063 -250.309647 
L 88.322813 -250.309647 
L 88.322813 -252.047632 
L 88.045816 -252.047632 
L 88.045816 -253.782763 
L 86.31458 -253.782763 
L 86.31458 -255.515042 
L 85.552836 -255.515042 
L 85.552836 -257.244469 
L 85.414337 -257.244469 
L 85.414337 -258.971043 
L 85.206589 -258.971043 
L 85.206589 -260.694765 
L 85.137339 -260.694765 
L 85.137339 -262.415632 
L 84.514095 -262.415632 
L 84.514095 -264.13364 
L 82.436612 -264.13364 
L 82.436612 -265.848785 
L 82.228863 -265.848785 
L 82.228863 -267.561062 
L 82.090365 -267.561062 
L 82.090365 -269.270464 
L 82.021115 -269.270464 
L 82.021115 -270.976982 
L 81.813367 -270.976982 
L 81.813367 -272.680609 
L 80.22063 -272.680609 
L 80.22063 -274.381334 
L 79.735884 -274.381334 
L 79.735884 -276.079146 
L 79.528136 -276.079146 
L 79.528136 -277.774033 
L 79.320387 -277.774033 
L 79.320387 -279.46598 
L 79.251138 -279.46598 
L 79.251138 -281.154974 
L 78.143147 -281.154974 
L 78.143147 -282.840998 
L 77.935399 -282.840998 
L 77.935399 -284.524034 
L 77.242904 -284.524034 
L 77.242904 -287.881067 
L 76.827408 -287.881067 
L 76.827408 -289.555022 
L 76.55041 -289.555022 
L 76.55041 -292.893694 
L 75.996415 -292.893694 
L 75.996415 -297.878215 
L 75.30392 -297.878215 
L 75.30392 -301.185227 
L 75.096172 -301.185227 
L 75.096172 -302.833832 
L 75.026923 -302.833832 
L 75.026923 -304.479122 
L 74.334428 -304.479122 
L 74.334428 -306.121058 
L 74.195929 -306.121058 
L 74.195929 -307.759597 
L 73.572684 -307.759597 
L 73.572684 -309.394698 
L 72.810941 -309.394698 
L 72.810941 -311.026312 
L 72.049197 -311.026312 
L 72.049197 -312.654392 
L 71.979948 -312.654392 
L 71.979948 -314.278887 
L 71.772199 -314.278887 
L 71.772199 -315.899742 
L 71.356703 -315.899742 
L 71.356703 -317.5169 
L 71.218204 -317.5169 
L 71.218204 -319.130301 
L 71.010456 -319.130301 
L 71.010456 -322.345571 
L 70.941206 -322.345571 
L 70.941206 -323.947302 
L 70.733458 -323.947302 
L 70.733458 -325.544998 
L 69.763966 -325.544998 
L 69.763966 -327.138578 
L 69.27922 -327.138578 
L 69.27922 -328.72796 
L 69.071471 -328.72796 
L 69.071471 -330.313052 
L 68.932973 -330.313052 
L 68.932973 -333.469984 
L 68.863723 -333.469984 
L 68.863723 -335.041615 
L 68.309728 -335.041615 
L 68.309728 -336.608542 
L 66.093746 -336.608542 
L 66.093746 -338.170642 
L 65.955247 -338.170642 
L 65.955247 -339.727786 
L 65.470501 -339.727786 
L 65.470501 -341.279837 
L 65.193503 -341.279837 
L 65.193503 -342.826647 
L 64.778007 -342.826647 
L 64.778007 -344.368059 
L 64.570258 -344.368059 
L 64.570258 -345.903904 
L 64.085512 -345.903904 
L 64.085512 -347.434001 
L 64.016263 -347.434001 
L 64.016263 -348.958154 
L 63.877764 -348.958154 
L 63.877764 -350.476155 
L 63.462268 -350.476155 
L 63.462268 -351.987775 
L 63.046771 -351.987775 
L 63.046771 -353.49277 
L 62.215778 -353.49277 
L 62.215778 -354.990873 
L 62.146528 -354.990873 
L 62.146528 -356.481794 
L 62.008029 -356.481794 
L 62.008029 -357.965219 
L 61.731032 -357.965219 
L 61.731032 -359.4408 
L 61.592533 -359.4408 
L 61.592533 -360.90816 
L 60.553791 -360.90816 
L 60.553791 -362.36688 
L 60.415293 -362.36688 
L 60.415293 -363.816499 
L 60.138295 -363.816499 
L 60.138295 -365.256505 
L 59.861297 -365.256505 
L 59.861297 -366.678971 
L 59.722798 -366.678971 
L 59.722798 -369.491327 
L 59.51505 -369.491327 
L 59.51505 -370.879719 
L 59.307302 -370.879719 
L 59.307302 -372.255079 
L 57.09132 -372.255079 
L 57.09132 -373.616365 
L 57.02207 -373.616365 
L 57.02207 -374.962368 
L 56.883572 -374.962368 
L 56.883572 -376.291676 
L 56.537324 -376.291676 
L 56.537324 -377.602618 
L 56.398826 -377.602618 
L 56.398826 -380.160982 
L 56.329576 -380.160982 
L 56.329576 -381.402981 
L 56.191077 -381.402981 
L 56.191077 -382.615418 
L 56.052578 -382.615418 
L 56.052578 -386.017701 
L 55.775581 -386.017701 
L 55.775581 -387.041954 
L 55.498583 -387.041954 
L 55.498583 -387.982872 
L 55.429334 -387.982872 
L 55.429334 -388.805088 
L 55.360084 -388.805088 
L 55.360084 -389.435708 
L 55.083086 -389.435708 
L 55.083086 -389.682295 
L 54.529091 -389.682295 
z
" id="ma470aefd71" style="stroke:#808080;stroke-opacity:0.25;"/>
    </defs>
    <g clip-path="url(#pc15c074d4d)">
     <use style="fill:#808080;fill-opacity:0.25;stroke:#808080;stroke-opacity:0.25;" x="0" xlink:href="#ma470aefd71" y="432"/>
    </g>
   </g>
   <g id="matplotlib.axis_1">
    <g id="xtick_1">
     <g id="line2d_1">
      <path clip-path="url(#pc15c074d4d)" d="M 54.529091 366.5095 
L 54.529091 26.88 
" style="fill:none;stroke:#b0b0b0;stroke-dasharray:2.96,1.28;stroke-dashoffset:0;stroke-opacity:0.5;stroke-width:0.8;"/>
     </g>
     <g id="line2d_2">
      <defs>
       <path d="M 0 0 
L 0 3.5 
" id="me75cbcd5c8" style="stroke:#000000;stroke-width:0.8;"/>
      </defs>
      <g>
       <use style="stroke:#000000;stroke-width:0.8;" x="54.529091" xlink:href="#me75cbcd5c8" y="366.5095"/>
      </g>
     </g>
     <g id="text_1">
      <text style="font-family:DejaVu Sans;font-size:10px;font-stretch:normal;font-style:normal;font-weight:normal;text-anchor:middle;" transform="rotate(-0, 54.529091, 381.107937)" x="54.529091" y="381.107937">0</text>
     </g>
    </g>
    <g id="xtick_2">
     <g id="line2d_3">
      <path clip-path="url(#pc15c074d4d)" d="M 123.778522 366.5095 
L 123.778522 26.88 
" style="fill:none;stroke:#b0b0b0;stroke-dasharray:2.96,1.28;stroke-dashoffset:0;stroke-opacity:0.5;stroke-width:0.8;"/>
     </g>
     <g id="line2d_4">
      <g>
       <use style="stroke:#000000;stroke-width:0.8;" x="123.778522" xlink:href="#me75cbcd5c8" y="366.5095"/>
      </g>
     </g>
     <g id="text_2">
      <text style="font-family:DejaVu Sans;font-size:10px;font-stretch:normal;font-style:normal;font-weight:normal;text-anchor:middle;" transform="rotate(-0, 123.778522, 381.107937)" x="123.778522" y="381.107937">1000</text>
     </g>
    </g>
    <g id="xtick_3">
     <g id="line2d_5">
      <path clip-path="url(#pc15c074d4d)" d="M 193.027953 366.5095 
L 193.027953 26.88 
" style="fill:none;stroke:#b0b0b0;stroke-dasharray:2.96,1.28;stroke-dashoffset:0;stroke-opacity:0.5;stroke-width:0.8;"/>
     </g>
     <g id="line2d_6">
      <g>
       <use style="stroke:#000000;stroke-width:0.8;" x="193.027953" xlink:href="#me75cbcd5c8" y="366.5095"/>
      </g>
     </g>
     <g id="text_3">
      <text style="font-family:DejaVu Sans;font-size:10px;font-stretch:normal;font-style:normal;font-weight:normal;text-anchor:middle;" transform="rotate(-0, 193.027953, 381.107937)" x="193.027953" y="381.107937">2000</text>
     </g>
    </g>
    <g id="xtick_4">
     <g id="line2d_7">
      <path clip-path="url(#pc15c074d4d)" d="M 262.277384 366.5095 
L 262.277384 26.88 
" style="fill:none;stroke:#b0b0b0;stroke-dasharray:2.96,1.28;stroke-dashoffset:0;stroke-opacity:0.5;stroke-width:0.8;"/>
     </g>
     <g id="line2d_8">
      <g>
       <use style="stroke:#000000;stroke-width:0.8;" x="262.277384" xlink:href="#me75cbcd5c8" y="366.5095"/>
      </g>
     </g>
     <g id="text_4">
      <text style="font-family:DejaVu Sans;font-size:10px;font-stretch:normal;font-style:normal;font-weight:normal;text-anchor:middle;" transform="rotate(-0, 262.277384, 381.107937)" x="262.277384" y="381.107937">3000</text>
     </g>
    </g>
    <g id="xtick_5">
     <g id="line2d_9">
      <path clip-path="url(#pc15c074d4d)" d="M 331.526816 366.5095 
L 331.526816 26.88 
" style="fill:none;stroke:#b0b0b0;stroke-dasharray:2.96,1.28;stroke-dashoffset:0;stroke-opacity:0.5;stroke-width:0.8;"/>
     </g>
     <g id="line2d_10">
      <g>
       <use style="stroke:#000000;stroke-width:0.8;" x="331.526816" xlink:href="#me75cbcd5c8" y="366.5095"/>
      </g>
     </g>
     <g id="text_5">
      <text style="font-family:DejaVu Sans;font-size:10px;font-stretch:normal;font-style:normal;font-weight:normal;text-anchor:middle;" transform="rotate(-0, 331.526816, 381.107937)" x="331.526816" y="381.107937">4000</text>
     </g>
    </g>
    <g id="xtick_6">
     <g id="line2d_11">
      <path clip-path="url(#pc15c074d4d)" d="M 400.776247 366.5095 
L 400.776247 26.88 
" style="fill:none;stroke:#b0b0b0;stroke-dasharray:2.96,1.28;stroke-dashoffset:0;stroke-opacity:0.5;stroke-width:0.8;"/>
     </g>
     <g id="line2d_12">
      <g>
       <use style="stroke:#000000;stroke-width:0.8;" x="400.776247" xlink:href="#me75cbcd5c8" y="366.5095"/>
      </g>
     </g>
     <g id="text_6">
      <text style="font-family:DejaVu Sans;font-size:10px;font-stretch:normal;font-style:normal;font-weight:normal;text-anchor:middle;" transform="rotate(-0, 400.776247, 381.107937)" x="400.776247" y="381.107937">5000</text>
     </g>
    </g>
    <g id="xtick_7">
     <g id="line2d_13">
      <path clip-path="url(#pc15c074d4d)" d="M 470.025678 366.5095 
L 470.025678 26.88 
" style="fill:none;stroke:#b0b0b0;stroke-dasharray:2.96,1.28;stroke-dashoffset:0;stroke-opacity:0.5;stroke-width:0.8;"/>
     </g>
     <g id="line2d_14">
      <g>
       <use style="stroke:#000000;stroke-width:0.8;" x="470.025678" xlink:href="#me75cbcd5c8" y="366.5095"/>
      </g>
     </g>
     <g id="text_7">
      <text style="font-family:DejaVu Sans;font-size:10px;font-stretch:normal;font-style:normal;font-weight:normal;text-anchor:middle;" transform="rotate(-0, 470.025678, 381.107937)" x="470.025678" y="381.107937">6000</text>
     </g>
    </g>
    <g id="text_8">
     <text style="font-family:DejaVu Sans;font-size:10px;font-stretch:normal;font-style:normal;font-weight:normal;" transform="translate(241.511406 394.786063)">timeline </text>
     <text style="font-family:DejaVu Sans;font-size:10px;font-stretch:normal;font-style:normal;font-weight:normal;" transform="translate(118.973125 405.983875)">    dataset: lgn_pronostic_clin_factors_PCA, input_dim: 34 </text>
     <text style="font-family:DejaVu Sans;font-size:10px;font-stretch:normal;font-style:normal;font-weight:normal;" transform="translate(184.83875 417.459812)">    c_index: [0.723 0.694 0.749]</text>
    </g>
   </g>
   <g id="matplotlib.axis_2">
    <g id="ytick_1">
     <g id="line2d_15">
      <path clip-path="url(#pc15c074d4d)" d="M 33.64 351.411926 
L 493.2 351.411926 
" style="fill:none;stroke:#b0b0b0;stroke-dasharray:2.96,1.28;stroke-dashoffset:0;stroke-opacity:0.5;stroke-width:0.8;"/>
     </g>
     <g id="line2d_16">
      <defs>
       <path d="M 0 0 
L -3.5 0 
" id="m69e8694ba7" style="stroke:#000000;stroke-width:0.8;"/>
      </defs>
      <g>
       <use style="stroke:#000000;stroke-width:0.8;" x="33.64" xlink:href="#m69e8694ba7" y="351.411926"/>
      </g>
     </g>
     <g id="text_9">
      <text style="font-family:DejaVu Sans;font-size:10px;font-stretch:normal;font-style:normal;font-weight:normal;text-anchor:end;" transform="rotate(-0, 26.64, 355.211145)" x="26.64" y="355.211145">0.0</text>
     </g>
    </g>
    <g id="ytick_2">
     <g id="line2d_17">
      <path clip-path="url(#pc15c074d4d)" d="M 33.64 289.593082 
L 493.2 289.593082 
" style="fill:none;stroke:#b0b0b0;stroke-dasharray:2.96,1.28;stroke-dashoffset:0;stroke-opacity:0.5;stroke-width:0.8;"/>
     </g>
     <g id="line2d_18">
      <g>
       <use style="stroke:#000000;stroke-width:0.8;" x="33.64" xlink:href="#m69e8694ba7" y="289.593082"/>
      </g>
     </g>
     <g id="text_10">
      <text style="font-family:DejaVu Sans;font-size:10px;font-stretch:normal;font-style:normal;font-weight:normal;text-anchor:end;" transform="rotate(-0, 26.64, 293.3923)" x="26.64" y="293.3923">0.2</text>
     </g>
    </g>
    <g id="ytick_3">
     <g id="line2d_19">
      <path clip-path="url(#pc15c074d4d)" d="M 33.64 227.774237 
L 493.2 227.774237 
" style="fill:none;stroke:#b0b0b0;stroke-dasharray:2.96,1.28;stroke-dashoffset:0;stroke-opacity:0.5;stroke-width:0.8;"/>
     </g>
     <g id="line2d_20">
      <g>
       <use style="stroke:#000000;stroke-width:0.8;" x="33.64" xlink:href="#m69e8694ba7" y="227.774237"/>
      </g>
     </g>
     <g id="text_11">
      <text style="font-family:DejaVu Sans;font-size:10px;font-stretch:normal;font-style:normal;font-weight:normal;text-anchor:end;" transform="rotate(-0, 26.64, 231.573456)" x="26.64" y="231.573456">0.4</text>
     </g>
    </g>
    <g id="ytick_4">
     <g id="line2d_21">
      <path clip-path="url(#pc15c074d4d)" d="M 33.64 165.955393 
L 493.2 165.955393 
" style="fill:none;stroke:#b0b0b0;stroke-dasharray:2.96,1.28;stroke-dashoffset:0;stroke-opacity:0.5;stroke-width:0.8;"/>
     </g>
     <g id="line2d_22">
      <g>
       <use style="stroke:#000000;stroke-width:0.8;" x="33.64" xlink:href="#m69e8694ba7" y="165.955393"/>
      </g>
     </g>
     <g id="text_12">
      <text style="font-family:DejaVu Sans;font-size:10px;font-stretch:normal;font-style:normal;font-weight:normal;text-anchor:end;" transform="rotate(-0, 26.64, 169.754612)" x="26.64" y="169.754612">0.6</text>
     </g>
    </g>
    <g id="ytick_5">
     <g id="line2d_23">
      <path clip-path="url(#pc15c074d4d)" d="M 33.64 104.136549 
L 493.2 104.136549 
" style="fill:none;stroke:#b0b0b0;stroke-dasharray:2.96,1.28;stroke-dashoffset:0;stroke-opacity:0.5;stroke-width:0.8;"/>
     </g>
     <g id="line2d_24">
      <g>
       <use style="stroke:#000000;stroke-width:0.8;" x="33.64" xlink:href="#m69e8694ba7" y="104.136549"/>
      </g>
     </g>
     <g id="text_13">
      <text style="font-family:DejaVu Sans;font-size:10px;font-stretch:normal;font-style:normal;font-weight:normal;text-anchor:end;" transform="rotate(-0, 26.64, 107.935768)" x="26.64" y="107.935768">0.8</text>
     </g>
    </g>
    <g id="ytick_6">
     <g id="line2d_25">
      <path clip-path="url(#pc15c074d4d)" d="M 33.64 42.317705 
L 493.2 42.317705 
" style="fill:none;stroke:#b0b0b0;stroke-dasharray:2.96,1.28;stroke-dashoffset:0;stroke-opacity:0.5;stroke-width:0.8;"/>
     </g>
     <g id="line2d_26">
      <g>
       <use style="stroke:#000000;stroke-width:0.8;" x="33.64" xlink:href="#m69e8694ba7" y="42.317705"/>
      </g>
     </g>
     <g id="text_14">
      <text style="font-family:DejaVu Sans;font-size:10px;font-stretch:normal;font-style:normal;font-weight:normal;text-anchor:end;" transform="rotate(-0, 26.64, 46.116923)" x="26.64" y="46.116923">1.0</text>
     </g>
    </g>
   </g>
   <g id="line2d_27">
    <defs>
     <path d="M -3 3 
L 3 -3 
M -3 -3 
L 3 3 
" id="ma255e747b7" style="stroke:#ff0000;"/>
    </defs>
    <g clip-path="url(#pc15c074d4d)">
     <use style="fill:#ff0000;stroke:#ff0000;" x="376.746694" xlink:href="#ma255e747b7" y="347.449179"/>
    </g>
   </g>
   <g id="line2d_28">
    <path clip-path="url(#pc15c074d4d)" d="M 54.529091 42.317705 
L 55.152336 42.317705 
L 55.152336 46.280451 
L 55.290835 46.280451 
L 55.360084 62.131437 
L 55.567832 62.131437 
L 55.567832 66.094183 
L 55.91408 66.094183 
L 55.983329 74.019676 
L 56.052578 74.019676 
L 56.052578 77.982422 
L 56.606574 77.982422 
L 56.606574 81.945169 
L 56.952821 81.945169 
L 57.02207 93.833408 
L 57.783814 93.833408 
L 57.783814 97.796155 
L 58.060812 97.796155 
L 58.060812 101.758901 
L 58.33781 101.758901 
L 58.33781 105.721647 
L 58.822556 105.721647 
L 58.822556 109.684394 
L 59.030304 109.684394 
L 59.030304 113.64714 
L 59.584299 113.64714 
L 59.584299 117.609887 
L 60.138295 117.609887 
L 60.138295 121.572633 
L 60.276794 121.572633 
L 60.276794 125.535379 
L 60.623041 125.535379 
L 60.623041 129.498126 
L 60.830789 129.498126 
L 60.830789 133.460872 
L 60.969288 133.460872 
L 60.969288 137.423619 
L 61.246286 137.423619 
L 61.246286 141.386365 
L 61.523283 141.386365 
L 61.592533 149.311858 
L 62.215778 149.311858 
L 62.285027 157.237351 
L 62.839023 157.237351 
L 62.839023 161.200097 
L 63.323769 161.200097 
L 63.323769 165.162844 
L 63.739265 165.162844 
L 63.739265 169.12559 
L 63.877764 169.12559 
L 63.947014 177.051083 
L 64.43176 177.051083 
L 64.43176 181.013829 
L 64.708757 181.013829 
L 64.778007 188.939322 
L 64.916506 188.939322 
L 64.916506 196.864815 
L 65.055004 196.864815 
L 65.055004 204.790308 
L 65.678249 204.790308 
L 65.678249 208.753054 
L 65.816748 208.753054 
L 65.816748 212.715801 
L 66.162995 212.715801 
L 66.162995 216.678547 
L 66.439993 216.678547 
L 66.439993 220.641294 
L 66.647741 220.641294 
L 66.716991 228.566787 
L 67.409485 228.566787 
L 67.409485 232.529533 
L 67.617233 232.529533 
L 67.617233 236.492279 
L 68.309728 236.492279 
L 68.309728 240.455026 
L 68.932973 240.455026 
L 68.932973 244.417772 
L 69.27922 244.417772 
L 69.27922 248.380519 
L 69.833215 248.380519 
L 69.833215 252.343265 
L 70.802707 252.343265 
L 70.871957 260.268758 
L 71.218204 260.268758 
L 71.218204 264.231504 
L 71.495202 264.231504 
L 71.495202 268.194251 
L 71.910698 268.194251 
L 71.910698 272.156997 
L 72.187696 272.156997 
L 72.187696 276.119744 
L 72.741691 276.119744 
L 72.741691 280.08249 
L 73.018689 280.08249 
L 73.018689 284.045237 
L 75.026923 284.045237 
L 75.026923 288.007983 
L 75.442419 288.007983 
L 75.442419 291.970729 
L 75.788666 291.970729 
L 75.788666 295.933476 
L 76.55041 295.933476 
L 76.55041 299.896222 
L 76.758158 299.896222 
L 76.758158 303.858969 
L 80.082131 303.858969 
L 80.082131 307.821715 
L 84.029349 307.821715 
L 84.029349 311.784461 
L 89.777051 311.784461 
L 89.777051 315.747208 
L 90.538795 315.747208 
L 90.538795 319.709954 
L 99.194974 319.709954 
L 99.194974 323.672701 
L 101.618704 323.672701 
L 101.618704 327.635447 
L 110.274883 327.635447 
L 110.274883 331.598194 
L 110.69038 331.598194 
L 110.69038 335.56094 
L 116.645831 335.56094 
L 116.645831 339.523686 
L 204.800357 339.523686 
L 204.800357 343.486433 
L 347.800432 343.486433 
L 347.800432 347.449179 
L 376.746694 347.449179 
L 376.746694 347.449179 
" style="fill:none;stroke:#ff0000;stroke-linecap:square;stroke-width:1.5;"/>
   </g>
   <g id="line2d_29">
    <defs>
     <path d="M -3 3 
L 3 -3 
M -3 -3 
L 3 3 
" id="ma8e8a30f0c" style="stroke:#0000ff;"/>
    </defs>
    <g clip-path="url(#pc15c074d4d)">
     <use style="fill:#0000ff;stroke:#0000ff;" x="182.709788" xlink:href="#ma8e8a30f0c" y="124.74283"/>
     <use style="fill:#0000ff;stroke:#0000ff;" x="184.579523" xlink:href="#ma8e8a30f0c" y="124.74283"/>
     <use style="fill:#0000ff;stroke:#0000ff;" x="187.834246" xlink:href="#ma8e8a30f0c" y="124.74283"/>
     <use style="fill:#0000ff;stroke:#0000ff;" x="193.651198" xlink:href="#ma8e8a30f0c" y="124.74283"/>
     <use style="fill:#0000ff;stroke:#0000ff;" x="208.678325" xlink:href="#ma8e8a30f0c" y="124.74283"/>
     <use style="fill:#0000ff;stroke:#0000ff;" x="218.373245" xlink:href="#ma8e8a30f0c" y="132.838155"/>
     <use style="fill:#0000ff;stroke:#0000ff;" x="224.259447" xlink:href="#ma8e8a30f0c" y="132.838155"/>
     <use style="fill:#0000ff;stroke:#0000ff;" x="226.26768" xlink:href="#ma8e8a30f0c" y="132.838155"/>
     <use style="fill:#0000ff;stroke:#0000ff;" x="232.153882" xlink:href="#ma8e8a30f0c" y="132.838155"/>
     <use style="fill:#0000ff;stroke:#0000ff;" x="235.685603" xlink:href="#ma8e8a30f0c" y="132.838155"/>
     <use style="fill:#0000ff;stroke:#0000ff;" x="245.519022" xlink:href="#ma8e8a30f0c" y="132.838155"/>
     <use style="fill:#0000ff;stroke:#0000ff;" x="253.759704" xlink:href="#ma8e8a30f0c" y="132.838155"/>
     <use style="fill:#0000ff;stroke:#0000ff;" x="263.177627" xlink:href="#ma8e8a30f0c" y="132.838155"/>
     <use style="fill:#0000ff;stroke:#0000ff;" x="280.420735" xlink:href="#ma8e8a30f0c" y="132.838155"/>
     <use style="fill:#0000ff;stroke:#0000ff;" x="280.697733" xlink:href="#ma8e8a30f0c" y="132.838155"/>
     <use style="fill:#0000ff;stroke:#0000ff;" x="284.160205" xlink:href="#ma8e8a30f0c" y="132.838155"/>
     <use style="fill:#0000ff;stroke:#0000ff;" x="289.838658" xlink:href="#ma8e8a30f0c" y="132.838155"/>
     <use style="fill:#0000ff;stroke:#0000ff;" x="316.638188" xlink:href="#ma8e8a30f0c" y="132.838155"/>
     <use style="fill:#0000ff;stroke:#0000ff;" x="322.039643" xlink:href="#ma8e8a30f0c" y="132.838155"/>
     <use style="fill:#0000ff;stroke:#0000ff;" x="330.765072" xlink:href="#ma8e8a30f0c" y="132.838155"/>
     <use style="fill:#0000ff;stroke:#0000ff;" x="338.31326" xlink:href="#ma8e8a30f0c" y="132.838155"/>
     <use style="fill:#0000ff;stroke:#0000ff;" x="344.060963" xlink:href="#ma8e8a30f0c" y="132.838155"/>
     <use style="fill:#0000ff;stroke:#0000ff;" x="357.910849" xlink:href="#ma8e8a30f0c" y="132.838155"/>
     <use style="fill:#0000ff;stroke:#0000ff;" x="370.652744" xlink:href="#ma8e8a30f0c" y="132.838155"/>
     <use style="fill:#0000ff;stroke:#0000ff;" x="383.256141" xlink:href="#ma8e8a30f0c" y="132.838155"/>
     <use style="fill:#0000ff;stroke:#0000ff;" x="389.904086" xlink:href="#ma8e8a30f0c" y="132.838155"/>
     <use style="fill:#0000ff;stroke:#0000ff;" x="393.505056" xlink:href="#ma8e8a30f0c" y="132.838155"/>
     <use style="fill:#0000ff;stroke:#0000ff;" x="398.491015" xlink:href="#ma8e8a30f0c" y="132.838155"/>
     <use style="fill:#0000ff;stroke:#0000ff;" x="408.393684" xlink:href="#ma8e8a30f0c" y="132.838155"/>
     <use style="fill:#0000ff;stroke:#0000ff;" x="425.221296" xlink:href="#ma8e8a30f0c" y="132.838155"/>
     <use style="fill:#0000ff;stroke:#0000ff;" x="441.356413" xlink:href="#ma8e8a30f0c" y="132.838155"/>
     <use style="fill:#0000ff;stroke:#0000ff;" x="458.184025" xlink:href="#ma8e8a30f0c" y="132.838155"/>
    </g>
   </g>
   <g id="line2d_30">
    <path clip-path="url(#pc15c074d4d)" d="M 54.529091 42.317705 
L 74.680675 42.317705 
L 74.680675 49.186465 
L 75.442419 49.186465 
L 75.442419 56.055225 
L 75.580918 56.055225 
L 75.580918 62.923986 
L 88.045816 62.923986 
L 88.045816 69.792746 
L 95.524754 69.792746 
L 95.524754 76.661507 
L 100.233715 76.661507 
L 100.233715 83.530267 
L 101.687954 83.530267 
L 101.687954 90.399028 
L 106.812411 90.399028 
L 106.812411 97.267788 
L 108.128151 97.267788 
L 108.128151 104.136549 
L 114.152851 104.136549 
L 114.152851 111.005309 
L 122.462783 111.005309 
L 122.462783 117.87407 
L 168.305906 117.87407 
L 168.305906 124.74283 
L 182.709788 124.74283 
L 182.709788 124.74283 
L 184.579523 124.74283 
L 184.579523 124.74283 
L 187.834246 124.74283 
L 187.834246 124.74283 
L 193.651198 124.74283 
L 193.651198 124.74283 
L 208.678325 124.74283 
L 208.678325 124.74283 
L 218.026998 124.74283 
L 218.026998 132.838155 
L 218.373245 132.838155 
L 218.373245 132.838155 
L 224.259447 132.838155 
L 224.259447 132.838155 
L 226.26768 132.838155 
L 226.26768 132.838155 
L 232.153882 132.838155 
L 232.153882 132.838155 
L 235.685603 132.838155 
L 235.685603 132.838155 
L 245.519022 132.838155 
L 245.519022 132.838155 
L 253.759704 132.838155 
L 253.759704 132.838155 
L 263.177627 132.838155 
L 263.177627 132.838155 
L 280.420735 132.838155 
L 280.420735 132.838155 
L 280.697733 132.838155 
L 280.697733 132.838155 
L 284.160205 132.838155 
L 284.160205 132.838155 
L 289.838658 132.838155 
L 289.838658 132.838155 
L 316.638188 132.838155 
L 316.638188 132.838155 
L 322.039643 132.838155 
L 322.039643 132.838155 
L 330.765072 132.838155 
L 330.765072 132.838155 
L 338.31326 132.838155 
L 338.31326 132.838155 
L 344.060963 132.838155 
L 344.060963 132.838155 
L 357.910849 132.838155 
L 357.910849 132.838155 
L 370.652744 132.838155 
L 370.652744 132.838155 
L 383.256141 132.838155 
L 383.256141 132.838155 
L 389.904086 132.838155 
L 389.904086 132.838155 
L 393.505056 132.838155 
L 393.505056 132.838155 
L 398.491015 132.838155 
L 398.491015 132.838155 
L 408.393684 132.838155 
L 408.393684 132.838155 
L 425.221296 132.838155 
L 425.221296 132.838155 
L 441.356413 132.838155 
L 441.356413 132.838155 
L 458.184025 132.838155 
L 458.184025 132.838155 
" style="fill:none;stroke:#0000ff;stroke-linecap:square;stroke-width:1.5;"/>
   </g>
   <g id="line2d_31">
    <defs>
     <path d="M -3 3 
L 3 -3 
M -3 -3 
L 3 3 
" id="m75cb9afefb" style="stroke:#808080;"/>
    </defs>
    <g clip-path="url(#pc15c074d4d)">
     <use style="fill:#808080;stroke:#808080;" x="59.861297" xlink:href="#m75cb9afefb" y="78.9899"/>
     <use style="fill:#808080;stroke:#808080;" x="95.386255" xlink:href="#m75cb9afefb" y="216.079694"/>
     <use style="fill:#808080;stroke:#808080;" x="187.3495" xlink:href="#m75cb9afefb" y="257.035501"/>
     <use style="fill:#808080;stroke:#808080;" x="189.703981" xlink:href="#m75cb9afefb" y="258.850432"/>
     <use style="fill:#808080;stroke:#808080;" x="191.850713" xlink:href="#m75cb9afefb" y="258.850432"/>
     <use style="fill:#808080;stroke:#808080;" x="198.983404" xlink:href="#m75cb9afefb" y="260.739442"/>
     <use style="fill:#808080;stroke:#808080;" x="206.254595" xlink:href="#m75cb9afefb" y="260.739442"/>
     <use style="fill:#808080;stroke:#808080;" x="208.262828" xlink:href="#m75cb9afefb" y="262.710583"/>
     <use style="fill:#808080;stroke:#808080;" x="224.259447" xlink:href="#m75cb9afefb" y="270.774342"/>
     <use style="fill:#808080;stroke:#808080;" x="227.444921" xlink:href="#m75cb9afefb" y="270.774342"/>
     <use style="fill:#808080;stroke:#808080;" x="237.001342" xlink:href="#m75cb9afefb" y="270.774342"/>
     <use style="fill:#808080;stroke:#808080;" x="237.901585" xlink:href="#m75cb9afefb" y="270.774342"/>
     <use style="fill:#808080;stroke:#808080;" x="241.156308" xlink:href="#m75cb9afefb" y="270.774342"/>
     <use style="fill:#808080;stroke:#808080;" x="248.704496" xlink:href="#m75cb9afefb" y="270.774342"/>
     <use style="fill:#808080;stroke:#808080;" x="252.859462" xlink:href="#m75cb9afefb" y="273.146035"/>
     <use style="fill:#808080;stroke:#808080;" x="261.377142" xlink:href="#m75cb9afefb" y="275.591844"/>
     <use style="fill:#808080;stroke:#808080;" x="266.43235" xlink:href="#m75cb9afefb" y="278.11918"/>
     <use style="fill:#808080;stroke:#808080;" x="269.133078" xlink:href="#m75cb9afefb" y="278.11918"/>
     <use style="fill:#808080;stroke:#808080;" x="270.10257" xlink:href="#m75cb9afefb" y="278.11918"/>
     <use style="fill:#808080;stroke:#808080;" x="295.586361" xlink:href="#m75cb9afefb" y="278.11918"/>
     <use style="fill:#808080;stroke:#808080;" x="302.234306" xlink:href="#m75cb9afefb" y="278.11918"/>
     <use style="fill:#808080;stroke:#808080;" x="322.385891" xlink:href="#m75cb9afefb" y="278.11918"/>
     <use style="fill:#808080;stroke:#808080;" x="330.626573" xlink:href="#m75cb9afefb" y="278.11918"/>
     <use style="fill:#808080;stroke:#808080;" x="333.535049" xlink:href="#m75cb9afefb" y="278.11918"/>
     <use style="fill:#808080;stroke:#808080;" x="333.673548" xlink:href="#m75cb9afefb" y="278.11918"/>
     <use style="fill:#808080;stroke:#808080;" x="333.812047" xlink:href="#m75cb9afefb" y="278.11918"/>
     <use style="fill:#808080;stroke:#808080;" x="333.881296" xlink:href="#m75cb9afefb" y="278.11918"/>
     <use style="fill:#808080;stroke:#808080;" x="351.609151" xlink:href="#m75cb9afefb" y="278.11918"/>
     <use style="fill:#808080;stroke:#808080;" x="356.52586" xlink:href="#m75cb9afefb" y="278.11918"/>
     <use style="fill:#808080;stroke:#808080;" x="359.503586" xlink:href="#m75cb9afefb" y="278.11918"/>
     <use style="fill:#808080;stroke:#808080;" x="374.738461" xlink:href="#m75cb9afefb" y="278.11918"/>
     <use style="fill:#808080;stroke:#808080;" x="380.693912" xlink:href="#m75cb9afefb" y="283.757084"/>
     <use style="fill:#808080;stroke:#808080;" x="388.726846" xlink:href="#m75cb9afefb" y="283.757084"/>
     <use style="fill:#808080;stroke:#808080;" x="391.566072" xlink:href="#m75cb9afefb" y="283.757084"/>
     <use style="fill:#808080;stroke:#808080;" x="392.604814" xlink:href="#m75cb9afefb" y="283.757084"/>
     <use style="fill:#808080;stroke:#808080;" x="405.069711" xlink:href="#m75cb9afefb" y="283.757084"/>
     <use style="fill:#808080;stroke:#808080;" x="432.907983" xlink:href="#m75cb9afefb" y="283.757084"/>
     <use style="fill:#808080;stroke:#808080;" x="445.926876" xlink:href="#m75cb9afefb" y="283.757084"/>
     <use style="fill:#808080;stroke:#808080;" x="455.483297" xlink:href="#m75cb9afefb" y="283.757084"/>
     <use style="fill:#808080;stroke:#808080;" x="459.499764" xlink:href="#m75cb9afefb" y="283.757084"/>
     <use style="fill:#808080;stroke:#808080;" x="463.931728" xlink:href="#m75cb9afefb" y="283.757084"/>
     <use style="fill:#808080;stroke:#808080;" x="464.347225" xlink:href="#m75cb9afefb" y="283.757084"/>
     <use style="fill:#808080;stroke:#808080;" x="472.310909" xlink:href="#m75cb9afefb" y="283.757084"/>
    </g>
   </g>
   <g id="line2d_32">
    <path clip-path="url(#pc15c074d4d)" d="M 54.529091 42.317705 
L 55.083086 42.317705 
L 55.083086 44.064 
L 55.360084 44.064 
L 55.429334 47.55659 
L 55.498583 47.55659 
L 55.498583 49.302885 
L 55.775581 49.302885 
L 55.775581 51.04918 
L 56.052578 51.04918 
L 56.052578 56.288065 
L 56.191077 56.288065 
L 56.191077 58.03436 
L 56.329576 58.03436 
L 56.398826 63.273245 
L 56.537324 63.273245 
L 56.537324 65.01954 
L 56.883572 65.01954 
L 56.883572 66.765835 
L 57.02207 66.765835 
L 57.09132 70.258425 
L 59.307302 70.258425 
L 59.307302 72.00472 
L 59.51505 72.00472 
L 59.51505 73.751015 
L 59.722798 73.751015 
L 59.722798 77.243605 
L 59.861297 77.243605 
L 59.861297 78.9899 
L 60.138295 78.9899 
L 60.138295 80.747462 
L 60.415293 80.747462 
L 60.415293 82.505023 
L 60.553791 82.505023 
L 60.553791 84.262585 
L 61.592533 84.262585 
L 61.592533 86.020146 
L 61.731032 86.020146 
L 61.731032 87.777708 
L 62.008029 87.777708 
L 62.008029 89.535269 
L 62.146528 89.535269 
L 62.215778 93.050392 
L 63.046771 93.050392 
L 63.046771 94.807953 
L 63.462268 94.807953 
L 63.462268 96.565515 
L 63.877764 96.565515 
L 63.877764 98.323076 
L 64.016263 98.323076 
L 64.085512 101.838199 
L 64.570258 101.838199 
L 64.570258 103.595761 
L 64.778007 103.595761 
L 64.778007 105.353322 
L 65.193503 105.353322 
L 65.193503 107.110884 
L 65.470501 107.110884 
L 65.470501 108.868445 
L 65.955247 108.868445 
L 65.955247 110.626006 
L 66.093746 110.626006 
L 66.093746 112.383568 
L 68.309728 112.383568 
L 68.309728 114.141129 
L 68.863723 114.141129 
L 68.932973 119.413814 
L 69.071471 119.413814 
L 69.071471 121.171375 
L 69.27922 121.171375 
L 69.27922 122.928937 
L 69.763966 122.928937 
L 69.763966 124.686498 
L 70.733458 124.686498 
L 70.733458 126.44406 
L 70.941206 126.44406 
L 71.010456 131.716744 
L 71.218204 131.716744 
L 71.218204 133.474305 
L 71.356703 133.474305 
L 71.356703 135.231867 
L 71.772199 135.231867 
L 71.772199 136.989428 
L 71.979948 136.989428 
L 72.049197 140.504551 
L 72.810941 140.504551 
L 72.810941 142.262113 
L 73.572684 142.262113 
L 73.572684 144.019674 
L 74.195929 144.019674 
L 74.195929 145.777236 
L 74.334428 145.777236 
L 74.334428 147.534797 
L 75.026923 147.534797 
L 75.096172 151.04992 
L 75.30392 151.04992 
L 75.30392 154.565043 
L 75.996415 154.565043 
L 75.996415 159.837727 
L 76.55041 159.837727 
L 76.55041 163.35285 
L 76.827408 163.35285 
L 76.827408 165.110412 
L 77.242904 165.110412 
L 77.242904 168.625534 
L 77.935399 168.625534 
L 77.935399 170.383096 
L 78.143147 170.383096 
L 78.143147 172.140657 
L 79.251138 172.140657 
L 79.320387 175.65578 
L 79.528136 175.65578 
L 79.528136 177.413342 
L 79.735884 177.413342 
L 79.735884 179.170903 
L 80.22063 179.170903 
L 80.22063 180.928465 
L 81.813367 180.928465 
L 81.813367 182.686026 
L 82.021115 182.686026 
L 82.090365 186.201149 
L 82.228863 186.201149 
L 82.228863 187.95871 
L 82.436612 187.95871 
L 82.436612 189.716272 
L 84.514095 189.716272 
L 84.514095 191.473833 
L 85.137339 191.473833 
L 85.206589 194.988956 
L 85.414337 194.988956 
L 85.414337 196.746518 
L 85.552836 196.746518 
L 85.552836 198.504079 
L 86.31458 198.504079 
L 86.31458 200.261641 
L 88.045816 200.261641 
L 88.045816 202.019202 
L 88.322813 202.019202 
L 88.392063 205.534325 
L 88.599811 205.534325 
L 88.66906 210.807009 
L 89.084557 210.807009 
L 89.084557 212.564571 
L 90.469546 212.564571 
L 90.469546 214.322132 
L 91.508287 214.322132 
L 91.508287 216.079694 
L 96.217248 216.079694 
L 96.217248 217.860381 
L 98.779477 217.860381 
L 98.779477 219.641068 
L 101.826452 219.641068 
L 101.826452 221.421756 
L 103.488439 221.421756 
L 103.488439 223.202443 
L 104.52718 223.202443 
L 104.52718 224.98313 
L 111.86762 224.98313 
L 111.86762 226.763817 
L 112.629364 226.763817 
L 112.629364 228.544505 
L 112.767863 228.544505 
L 112.767863 230.325192 
L 113.183359 230.325192 
L 113.183359 232.105879 
L 118.654064 232.105879 
L 118.654064 233.886566 
L 121.008545 233.886566 
L 121.008545 235.667254 
L 129.803223 235.667254 
L 129.803223 237.447941 
L 130.772715 237.447941 
L 130.772715 239.228628 
L 131.118962 239.228628 
L 131.118962 241.009315 
L 137.351411 241.009315 
L 137.351411 242.790003 
L 138.5979 242.790003 
L 138.5979 244.57069 
L 150.231805 244.57069 
L 150.231805 246.351377 
L 151.201297 246.351377 
L 151.201297 248.132064 
L 156.118006 248.132064 
L 156.118006 249.912752 
L 162.9737 249.912752 
L 162.9737 251.693439 
L 165.743677 251.693439 
L 165.743677 253.474126 
L 179.108818 253.474126 
L 179.108818 255.254814 
L 181.463298 255.254814 
L 181.463298 257.035501 
L 187.557248 257.035501 
L 187.557248 258.850432 
L 198.221661 258.850432 
L 198.221661 260.739442 
L 207.362585 260.739442 
L 207.362585 262.710583 
L 209.024572 262.710583 
L 209.024572 264.726523 
L 209.509318 264.726523 
L 209.509318 266.742462 
L 215.257021 266.742462 
L 215.257021 268.758402 
L 218.165497 268.758402 
L 218.165497 270.774342 
L 249.46624 270.774342 
L 249.46624 273.146035 
L 258.122419 273.146035 
L 258.122419 275.591844 
L 265.878355 275.591844 
L 265.878355 278.11918 
L 377.716186 278.11918 
L 377.716186 283.757084 
L 472.310909 283.757084 
L 472.310909 283.757084 
" style="fill:none;stroke:#808080;stroke-linecap:square;stroke-width:1.5;"/>
   </g>
   <g id="patch_3">
    <path d="M 33.64 366.5095 
L 33.64 26.88 
" style="fill:none;stroke:#000000;stroke-linecap:square;stroke-linejoin:miter;stroke-width:0.8;"/>
   </g>
   <g id="patch_4">
    <path d="M 493.2 366.5095 
L 493.2 26.88 
" style="fill:none;stroke:#000000;stroke-linecap:square;stroke-linejoin:miter;stroke-width:0.8;"/>
   </g>
   <g id="patch_5">
    <path d="M 33.64 366.5095 
L 493.2 366.5095 
" style="fill:none;stroke:#000000;stroke-linecap:square;stroke-linejoin:miter;stroke-width:0.8;"/>
   </g>
   <g id="patch_6">
    <path d="M 33.64 26.88 
L 493.2 26.88 
" style="fill:none;stroke:#000000;stroke-linecap:square;stroke-linejoin:miter;stroke-width:0.8;"/>
   </g>
   <g id="text_15">
    <text style="font-family:DejaVu Sans;font-size:12px;font-stretch:normal;font-style:normal;font-weight:normal;text-anchor:middle;" transform="rotate(-0, 263.42, 20.88)" x="263.42" y="20.88">Survival curves - model_type: ridge_cph_lifelines</text>
   </g>
   <g id="legend_1">
    <g id="patch_7">
     <path d="M 349.195312 78.914375 
L 486.2 78.914375 
Q 488.2 78.914375 488.2 76.914375 
L 488.2 33.88 
Q 488.2 31.88 486.2 31.88 
L 349.195312 31.88 
Q 347.195312 31.88 347.195312 33.88 
L 347.195312 76.914375 
Q 347.195312 78.914375 349.195312 78.914375 
z
" style="fill:#ffffff;opacity:0.8;stroke:#cccccc;stroke-linejoin:miter;"/>
    </g>
    <g id="line2d_33">
     <path d="M 351.195312 39.978437 
L 371.195312 39.978437 
" style="fill:none;stroke:#ff0000;stroke-linecap:square;stroke-width:1.5;"/>
    </g>
    <g id="line2d_34"/>
    <g id="text_16">
     <text style="font-family:DejaVu Sans;font-size:10px;font-stretch:normal;font-style:normal;font-weight:normal;text-anchor:start;" transform="rotate(-0, 379.195312, 43.478437)" x="379.195312" y="43.478437">adv. risk (n:78 c:1 )</text>
    </g>
    <g id="line2d_35">
     <path d="M 351.195312 54.656563 
L 371.195312 54.656563 
" style="fill:none;stroke:#0000ff;stroke-linecap:square;stroke-width:1.5;"/>
    </g>
    <g id="line2d_36"/>
    <g id="text_17">
     <text style="font-family:DejaVu Sans;font-size:10px;font-stretch:normal;font-style:normal;font-weight:normal;text-anchor:start;" transform="rotate(-0, 379.195312, 58.156563)" x="379.195312" y="58.156563">fav. risk (n:45 c:32)</text>
    </g>
    <g id="line2d_37">
     <path d="M 351.195312 69.334687 
L 371.195312 69.334687 
" style="fill:none;stroke:#808080;stroke-linecap:square;stroke-width:1.5;"/>
    </g>
    <g id="line2d_38"/>
    <g id="text_18">
     <text style="font-family:DejaVu Sans;font-size:10px;font-stretch:normal;font-style:normal;font-weight:normal;text-anchor:start;" transform="rotate(-0, 379.195312, 72.834687)" x="379.195312" y="72.834687">int. risk (n:177 c:44 )</text>
    </g>
   </g>
  </g>
 </g>
 <defs>
  <clipPath id="pc15c074d4d">
   <rect height="339.6295" width="459.56" x="33.64" y="26.88"/>
  </clipPath>
 </defs>
</svg>
