<?xml version="1.0" encoding="utf-8" standalone="no"?>
<!DOCTYPE svg PUBLIC "-//W3C//DTD SVG 1.1//EN"
  "http://www.w3.org/Graphics/SVG/1.1/DTD/svg11.dtd">
<!-- Created with matplotlib (https://matplotlib.org/) -->
<svg height="432pt" version="1.1" viewBox="0 0 504 432" width="504pt" xmlns="http://www.w3.org/2000/svg" xmlns:xlink="http://www.w3.org/1999/xlink">
 <metadata>
  <rdf:RDF xmlns:cc="http://creativecommons.org/ns#" xmlns:dc="http://purl.org/dc/elements/1.1/" xmlns:rdf="http://www.w3.org/1999/02/22-rdf-syntax-ns#">
   <cc:Work>
    <dc:type rdf:resource="http://purl.org/dc/dcmitype/StillImage"/>
    <dc:date>2022-11-28T13:18:20.116440</dc:date>
    <dc:format>image/svg+xml</dc:format>
    <dc:creator>
     <cc:Agent>
      <dc:title>Matplotlib v3.3.4, https://matplotlib.org/</dc:title>
     </cc:Agent>
    </dc:creator>
   </cc:Work>
  </rdf:RDF>
 </metadata>
 <defs>
  <style type="text/css">*{stroke-linecap:butt;stroke-linejoin:round;}</style>
 </defs>
 <g id="figure_1">
  <g id="patch_1">
   <path d="M 0 432 
L 504 432 
L 504 0 
L 0 0 
z
" style="fill:#ffffff;"/>
  </g>
  <g id="axes_1">
   <g id="patch_2">
    <path d="M 33.64 366.5095 
L 493.2 366.5095 
L 493.2 26.88 
L 33.64 26.88 
z
" style="fill:#ffffff;"/>
   </g>
   <g id="PolyCollection_1">
    <defs>
     <path d="M 54.529091 -389.682295 
L 54.529091 -389.682295 
L 55.290835 -389.682295 
L 55.290835 -362.341864 
L 55.360084 -362.341864 
L 55.360084 -358.868493 
L 55.498583 -358.868493 
L 55.498583 -353.915438 
L 55.567832 -353.915438 
L 55.567832 -348.801028 
L 55.775581 -348.801028 
L 55.775581 -343.715523 
L 55.91408 -343.715523 
L 55.91408 -338.699057 
L 56.052578 -338.699057 
L 56.052578 -324.088773 
L 56.329576 -324.088773 
L 56.329576 -319.350067 
L 56.606574 -319.350067 
L 56.606574 -314.668478 
L 56.952821 -314.668478 
L 56.952821 -310.039535 
L 57.02207 -310.039535 
L 57.02207 -300.924457 
L 57.783814 -300.924457 
L 57.783814 -296.43196 
L 58.060812 -296.43196 
L 58.060812 -291.97926 
L 58.33781 -291.97926 
L 58.33781 -287.564106 
L 58.822556 -287.564106 
L 58.822556 -283.184524 
L 59.030304 -283.184524 
L 59.030304 -278.838779 
L 59.861297 -278.838779 
L 59.861297 -274.525341 
L 60.138295 -274.525341 
L 60.138295 -270.242859 
L 60.276794 -270.242859 
L 60.276794 -265.990136 
L 60.415293 -265.990136 
L 60.415293 -261.766109 
L 60.623041 -261.766109 
L 60.623041 -257.569837 
L 60.830789 -257.569837 
L 60.830789 -253.400482 
L 60.969288 -253.400482 
L 60.969288 -249.257302 
L 61.246286 -249.257302 
L 61.246286 -245.139638 
L 61.523283 -245.139638 
L 61.523283 -241.04691 
L 61.592533 -241.04691 
L 61.592533 -236.978606 
L 62.215778 -236.978606 
L 62.215778 -232.934278 
L 62.285027 -232.934278 
L 62.285027 -228.913538 
L 62.839023 -228.913538 
L 62.839023 -224.91605 
L 63.046771 -224.91605 
L 63.046771 -220.941532 
L 63.323769 -220.941532 
L 63.323769 -216.98975 
L 63.462268 -216.98975 
L 63.462268 -213.060515 
L 63.739265 -213.060515 
L 63.739265 -209.153685 
L 63.877764 -209.153685 
L 63.877764 -205.269157 
L 63.947014 -205.269157 
L 63.947014 -201.406874 
L 64.085512 -201.406874 
L 64.085512 -197.566818 
L 64.43176 -197.566818 
L 64.43176 -193.749011 
L 64.708757 -193.749011 
L 64.708757 -189.95352 
L 64.778007 -189.95352 
L 64.778007 -186.180452 
L 64.916506 -186.180452 
L 64.916506 -182.429956 
L 65.055004 -182.429956 
L 65.055004 -174.997501 
L 65.193503 -174.997501 
L 65.193503 -171.316072 
L 65.678249 -171.316072 
L 65.678249 -167.658276 
L 65.816748 -167.658276 
L 65.816748 -164.024509 
L 66.162995 -164.024509 
L 66.162995 -160.415222 
L 66.439993 -160.415222 
L 66.439993 -156.830931 
L 66.647741 -156.830931 
L 66.647741 -153.272222 
L 67.409485 -153.272222 
L 67.409485 -149.739758 
L 67.617233 -149.739758 
L 67.617233 -146.234284 
L 69.833215 -146.234284 
L 69.833215 -142.756641 
L 70.802707 -142.756641 
L 70.802707 -139.307776 
L 71.218204 -139.307776 
L 71.218204 -135.888756 
L 71.495202 -135.888756 
L 71.495202 -132.500785 
L 72.741691 -132.500785 
L 72.741691 -129.145225 
L 73.018689 -129.145225 
L 73.018689 -125.82362 
L 74.334428 -125.82362 
L 74.334428 -122.537728 
L 75.026923 -122.537728 
L 75.026923 -119.289561 
L 75.788666 -119.289561 
L 75.788666 -116.08143 
L 77.242904 -116.08143 
L 77.242904 -112.916009 
L 84.029349 -112.916009 
L 84.029349 -109.796414 
L 88.599811 -109.796414 
L 88.599811 -106.726309 
L 90.538795 -106.726309 
L 90.538795 -103.710041 
L 95.386255 -103.710041 
L 95.386255 -103.710041 
L 110.274883 -103.710041 
L 110.274883 -100.40645 
L 110.69038 -100.40645 
L 110.69038 -97.197234 
L 113.183359 -97.197234 
L 113.183359 -94.093126 
L 116.645831 -94.093126 
L 116.645831 -91.108122 
L 156.118006 -91.108122 
L 156.118006 -88.260962 
L 209.024572 -88.260962 
L 209.024572 -85.577655 
L 237.001342 -85.577655 
L 237.001342 -85.577655 
L 266.43235 -85.577655 
L 266.43235 -85.577655 
L 347.800432 -85.577655 
L 347.800432 -80.928205 
L 351.609151 -80.928205 
L 351.609151 -80.928205 
L 405.069711 -80.928205 
L 405.069711 -80.928205 
L 405.069711 -115.414861 
L 405.069711 -115.414861 
L 405.069711 -115.414861 
L 351.609151 -115.414861 
L 351.609151 -115.414861 
L 347.800432 -115.414861 
L 347.800432 -121.919029 
L 266.43235 -121.919029 
L 266.43235 -121.919029 
L 237.001342 -121.919029 
L 237.001342 -121.919029 
L 209.024572 -121.919029 
L 209.024572 -127.387178 
L 156.118006 -127.387178 
L 156.118006 -132.719502 
L 116.645831 -132.719502 
L 116.645831 -137.936394 
L 113.183359 -137.936394 
L 113.183359 -143.053071 
L 110.69038 -143.053071 
L 110.69038 -148.081165 
L 110.274883 -148.081165 
L 110.274883 -153.029758 
L 95.386255 -153.029758 
L 95.386255 -153.029758 
L 90.538795 -153.029758 
L 90.538795 -157.639919 
L 88.599811 -157.639919 
L 88.599811 -162.201947 
L 84.029349 -162.201947 
L 84.029349 -166.719562 
L 77.242904 -166.719562 
L 77.242904 -171.195907 
L 75.788666 -171.195907 
L 75.788666 -175.633661 
L 75.026923 -175.633661 
L 75.026923 -180.035129 
L 74.334428 -180.035129 
L 74.334428 -184.402303 
L 73.018689 -184.402303 
L 73.018689 -188.736918 
L 72.741691 -188.736918 
L 72.741691 -193.040491 
L 71.495202 -193.040491 
L 71.495202 -197.314353 
L 71.218204 -197.314353 
L 71.218204 -201.559677 
L 70.802707 -201.559677 
L 70.802707 -205.777498 
L 69.833215 -205.777498 
L 69.833215 -209.968731 
L 67.617233 -209.968731 
L 67.617233 -214.134186 
L 67.409485 -214.134186 
L 67.409485 -218.27458 
L 66.647741 -218.27458 
L 66.647741 -222.390545 
L 66.439993 -222.390545 
L 66.439993 -226.482639 
L 66.162995 -226.482639 
L 66.162995 -230.551351 
L 65.816748 -230.551351 
L 65.816748 -234.597109 
L 65.678249 -234.597109 
L 65.678249 -238.620284 
L 65.193503 -238.620284 
L 65.193503 -242.621191 
L 65.055004 -242.621191 
L 65.055004 -250.557228 
L 64.916506 -250.557228 
L 64.916506 -254.492753 
L 64.778007 -254.492753 
L 64.778007 -258.406807 
L 64.708757 -258.406807 
L 64.708757 -262.299481 
L 64.43176 -262.299481 
L 64.43176 -266.170826 
L 64.085512 -266.170826 
L 64.085512 -270.020853 
L 63.947014 -270.020853 
L 63.947014 -273.849532 
L 63.877764 -273.849532 
L 63.877764 -277.656793 
L 63.739265 -277.656793 
L 63.739265 -281.442526 
L 63.462268 -281.442526 
L 63.462268 -285.206579 
L 63.323769 -285.206579 
L 63.323769 -288.948755 
L 63.046771 -288.948755 
L 63.046771 -292.668815 
L 62.839023 -292.668815 
L 62.839023 -296.36647 
L 62.285027 -296.36647 
L 62.285027 -300.041382 
L 62.215778 -300.041382 
L 62.215778 -303.693159 
L 61.592533 -303.693159 
L 61.592533 -307.321348 
L 61.523283 -307.321348 
L 61.523283 -310.925437 
L 61.246286 -310.925437 
L 61.246286 -314.504841 
L 60.969288 -314.504841 
L 60.969288 -318.058901 
L 60.830789 -318.058901 
L 60.830789 -321.586871 
L 60.623041 -321.586871 
L 60.623041 -325.08791 
L 60.415293 -325.08791 
L 60.415293 -328.561068 
L 60.276794 -328.561068 
L 60.276794 -332.005274 
L 60.138295 -332.005274 
L 60.138295 -335.419314 
L 59.861297 -335.419314 
L 59.861297 -338.801811 
L 59.030304 -338.801811 
L 59.030304 -342.151199 
L 58.822556 -342.151199 
L 58.822556 -345.465686 
L 58.33781 -345.465686 
L 58.33781 -348.743212 
L 58.060812 -348.743212 
L 58.060812 -351.981399 
L 57.783814 -351.981399 
L 57.783814 -355.177474 
L 57.02207 -355.177474 
L 57.02207 -361.429669 
L 56.952821 -361.429669 
L 56.952821 -364.477302 
L 56.606574 -364.477302 
L 56.606574 -367.465458 
L 56.329576 -367.465458 
L 56.329576 -370.387182 
L 56.052578 -370.387182 
L 56.052578 -378.652256 
L 55.91408 -378.652256 
L 55.91408 -381.188468 
L 55.775581 -381.188468 
L 55.775581 -383.572213 
L 55.567832 -383.572213 
L 55.567832 -385.756461 
L 55.498583 -385.756461 
L 55.498583 -387.659837 
L 55.360084 -387.659837 
L 55.360084 -389.115096 
L 55.290835 -389.115096 
L 55.290835 -389.682295 
L 54.529091 -389.682295 
z
" id="m09e0419d8e" style="stroke:#ff0000;stroke-opacity:0.25;"/>
    </defs>
    <g clip-path="url(#p4dcdb1da26)">
     <use style="fill:#ff0000;fill-opacity:0.25;stroke:#ff0000;stroke-opacity:0.25;" x="0" xlink:href="#m09e0419d8e" y="432"/>
    </g>
   </g>
   <g id="PolyCollection_2">
    <defs>
     <path d="M 54.529091 -389.682295 
L 54.529091 -389.682295 
L 65.955247 -389.682295 
L 65.955247 -343.62196 
L 74.195929 -343.62196 
L 74.195929 -337.7607 
L 75.442419 -337.7607 
L 75.442419 -329.517493 
L 75.580918 -329.517493 
L 75.580918 -321.050112 
L 88.045816 -321.050112 
L 88.045816 -312.667255 
L 100.233715 -312.667255 
L 100.233715 -304.431914 
L 106.812411 -304.431914 
L 106.812411 -296.352456 
L 114.152851 -296.352456 
L 114.152851 -288.422882 
L 122.462783 -288.422882 
L 122.462783 -280.633767 
L 151.201297 -280.633767 
L 151.201297 -272.975581 
L 168.305906 -272.975581 
L 168.305906 -265.439701 
L 182.709788 -265.439701 
L 182.709788 -265.439701 
L 184.579523 -265.439701 
L 184.579523 -265.439701 
L 193.651198 -265.439701 
L 193.651198 -265.439701 
L 208.678325 -265.439701 
L 208.678325 -265.439701 
L 218.026998 -265.439701 
L 218.026998 -256.576319 
L 218.373245 -256.576319 
L 218.373245 -256.576319 
L 224.259447 -256.576319 
L 224.259447 -256.576319 
L 226.26768 -256.576319 
L 226.26768 -256.576319 
L 235.685603 -256.576319 
L 235.685603 -256.576319 
L 245.519022 -256.576319 
L 245.519022 -256.576319 
L 253.759704 -256.576319 
L 253.759704 -256.576319 
L 263.177627 -256.576319 
L 263.177627 -256.576319 
L 280.420735 -256.576319 
L 280.420735 -256.576319 
L 280.697733 -256.576319 
L 280.697733 -256.576319 
L 284.160205 -256.576319 
L 284.160205 -256.576319 
L 289.838658 -256.576319 
L 289.838658 -256.576319 
L 316.638188 -256.576319 
L 316.638188 -256.576319 
L 322.039643 -256.576319 
L 322.039643 -256.576319 
L 330.765072 -256.576319 
L 330.765072 -256.576319 
L 333.812047 -256.576319 
L 333.812047 -256.576319 
L 338.31326 -256.576319 
L 338.31326 -256.576319 
L 344.060963 -256.576319 
L 344.060963 -256.576319 
L 370.652744 -256.576319 
L 370.652744 -256.576319 
L 380.693912 -256.576319 
L 380.693912 -256.576319 
L 383.256141 -256.576319 
L 383.256141 -256.576319 
L 389.904086 -256.576319 
L 389.904086 -256.576319 
L 393.505056 -256.576319 
L 393.505056 -256.576319 
L 398.491015 -256.576319 
L 398.491015 -256.576319 
L 408.393684 -256.576319 
L 408.393684 -256.576319 
L 425.221296 -256.576319 
L 425.221296 -256.576319 
L 441.356413 -256.576319 
L 441.356413 -256.576319 
L 455.483297 -256.576319 
L 455.483297 -256.576319 
L 458.184025 -256.576319 
L 458.184025 -256.576319 
L 458.184025 -338.816093 
L 458.184025 -338.816093 
L 458.184025 -338.816093 
L 455.483297 -338.816093 
L 455.483297 -338.816093 
L 441.356413 -338.816093 
L 441.356413 -338.816093 
L 425.221296 -338.816093 
L 425.221296 -338.816093 
L 408.393684 -338.816093 
L 408.393684 -338.816093 
L 398.491015 -338.816093 
L 398.491015 -338.816093 
L 393.505056 -338.816093 
L 393.505056 -338.816093 
L 389.904086 -338.816093 
L 389.904086 -338.816093 
L 383.256141 -338.816093 
L 383.256141 -338.816093 
L 380.693912 -338.816093 
L 380.693912 -338.816093 
L 370.652744 -338.816093 
L 370.652744 -338.816093 
L 344.060963 -338.816093 
L 344.060963 -338.816093 
L 338.31326 -338.816093 
L 338.31326 -338.816093 
L 333.812047 -338.816093 
L 333.812047 -338.816093 
L 330.765072 -338.816093 
L 330.765072 -338.816093 
L 322.039643 -338.816093 
L 322.039643 -338.816093 
L 316.638188 -338.816093 
L 316.638188 -338.816093 
L 289.838658 -338.816093 
L 289.838658 -338.816093 
L 284.160205 -338.816093 
L 284.160205 -338.816093 
L 280.697733 -338.816093 
L 280.697733 -338.816093 
L 280.420735 -338.816093 
L 280.420735 -338.816093 
L 263.177627 -338.816093 
L 263.177627 -338.816093 
L 253.759704 -338.816093 
L 253.759704 -338.816093 
L 245.519022 -338.816093 
L 245.519022 -338.816093 
L 235.685603 -338.816093 
L 235.685603 -338.816093 
L 226.26768 -338.816093 
L 226.26768 -338.816093 
L 224.259447 -338.816093 
L 224.259447 -338.816093 
L 218.373245 -338.816093 
L 218.373245 -338.816093 
L 218.026998 -338.816093 
L 218.026998 -344.852904 
L 208.678325 -344.852904 
L 208.678325 -344.852904 
L 193.651198 -344.852904 
L 193.651198 -344.852904 
L 184.579523 -344.852904 
L 184.579523 -344.852904 
L 182.709788 -344.852904 
L 182.709788 -344.852904 
L 168.305906 -344.852904 
L 168.305906 -350.238117 
L 151.201297 -350.238117 
L 151.201297 -355.487484 
L 122.462783 -355.487484 
L 122.462783 -360.586065 
L 114.152851 -360.586065 
L 114.152851 -365.51442 
L 106.812411 -365.51442 
L 106.812411 -370.246553 
L 100.233715 -370.246553 
L 100.233715 -374.746435 
L 88.045816 -374.746435 
L 88.045816 -378.961631 
L 75.580918 -378.961631 
L 75.580918 -382.810398 
L 75.442419 -382.810398 
L 75.442419 -386.151466 
L 74.195929 -386.151466 
L 74.195929 -388.695142 
L 65.955247 -388.695142 
L 65.955247 -389.682295 
L 54.529091 -389.682295 
z
" id="ma2409b5dc4" style="stroke:#0000ff;stroke-opacity:0.25;"/>
    </defs>
    <g clip-path="url(#p4dcdb1da26)">
     <use style="fill:#0000ff;fill-opacity:0.25;stroke:#0000ff;stroke-opacity:0.25;" x="0" xlink:href="#ma2409b5dc4" y="432"/>
    </g>
   </g>
   <g id="PolyCollection_3">
    <defs>
     <path d="M 54.529091 -389.682295 
L 54.529091 -389.682295 
L 55.083086 -389.682295 
L 55.083086 -377.368623 
L 55.152336 -377.368623 
L 55.152336 -375.807726 
L 55.360084 -375.807726 
L 55.360084 -368.901834 
L 55.429334 -368.901834 
L 55.429334 -366.602374 
L 55.983329 -366.602374 
L 55.983329 -364.331851 
L 56.052578 -364.331851 
L 56.052578 -362.089392 
L 56.191077 -362.089392 
L 56.191077 -359.872945 
L 56.398826 -359.872945 
L 56.398826 -355.509236 
L 56.537324 -355.509236 
L 56.537324 -353.357949 
L 56.883572 -353.357949 
L 56.883572 -351.224729 
L 57.02207 -351.224729 
L 57.02207 -349.108108 
L 57.09132 -349.108108 
L 57.09132 -347.006802 
L 59.307302 -347.006802 
L 59.307302 -344.919685 
L 59.51505 -344.919685 
L 59.51505 -342.845765 
L 59.584299 -342.845765 
L 59.584299 -340.784169 
L 59.722798 -340.784169 
L 59.722798 -336.694924 
L 59.861297 -336.694924 
L 59.861297 -336.694924 
L 60.138295 -336.694924 
L 60.138295 -334.649297 
L 60.553791 -334.649297 
L 60.553791 -332.613746 
L 61.592533 -332.613746 
L 61.592533 -330.587728 
L 61.731032 -330.587728 
L 61.731032 -328.570753 
L 62.008029 -328.570753 
L 62.008029 -326.562379 
L 62.146528 -326.562379 
L 62.146528 -324.562203 
L 62.215778 -324.562203 
L 62.215778 -322.569861 
L 63.877764 -322.569861 
L 63.877764 -320.585017 
L 64.016263 -320.585017 
L 64.016263 -318.607366 
L 64.570258 -318.607366 
L 64.570258 -316.636626 
L 64.778007 -316.636626 
L 64.778007 -314.672539 
L 64.916506 -314.672539 
L 64.916506 -312.714864 
L 65.470501 -312.714864 
L 65.470501 -310.763381 
L 66.093746 -310.763381 
L 66.093746 -308.817885 
L 66.716991 -308.817885 
L 66.716991 -306.878183 
L 68.309728 -306.878183 
L 68.309728 -303.015469 
L 68.863723 -303.015469 
L 68.863723 -301.092136 
L 68.932973 -301.092136 
L 68.932973 -295.352523 
L 69.071471 -295.352523 
L 69.071471 -293.449025 
L 69.27922 -293.449025 
L 69.27922 -289.655901 
L 69.763966 -289.655901 
L 69.763966 -287.766073 
L 70.733458 -287.766073 
L 70.733458 -285.880606 
L 70.871957 -285.880606 
L 70.871957 -283.999414 
L 70.941206 -283.999414 
L 70.941206 -282.122413 
L 71.010456 -282.122413 
L 71.010456 -278.380673 
L 71.218204 -278.380673 
L 71.218204 -276.51579 
L 71.356703 -276.51579 
L 71.356703 -274.654809 
L 71.772199 -274.654809 
L 71.772199 -272.797667 
L 71.910698 -272.797667 
L 71.910698 -270.944305 
L 71.979948 -270.944305 
L 71.979948 -269.094666 
L 72.049197 -269.094666 
L 72.049197 -267.248698 
L 72.187696 -267.248698 
L 72.187696 -265.406349 
L 72.810941 -265.406349 
L 72.810941 -263.567574 
L 73.572684 -263.567574 
L 73.572684 -261.732325 
L 74.680675 -261.732325 
L 74.680675 -259.900562 
L 75.026923 -259.900562 
L 75.026923 -258.072242 
L 75.096172 -258.072242 
L 75.096172 -256.24733 
L 75.30392 -256.24733 
L 75.30392 -252.607581 
L 75.442419 -252.607581 
L 75.442419 -250.792679 
L 75.996415 -250.792679 
L 75.996415 -245.367507 
L 76.55041 -245.367507 
L 76.55041 -239.97109 
L 76.758158 -239.97109 
L 76.758158 -238.178568 
L 76.827408 -238.178568 
L 76.827408 -236.389155 
L 77.242904 -236.389155 
L 77.242904 -234.602834 
L 77.935399 -234.602834 
L 77.935399 -232.819589 
L 78.143147 -232.819589 
L 78.143147 -231.039404 
L 79.251138 -231.039404 
L 79.251138 -229.262266 
L 79.320387 -229.262266 
L 79.320387 -227.488163 
L 79.528136 -227.488163 
L 79.528136 -225.717083 
L 79.735884 -225.717083 
L 79.735884 -223.949018 
L 80.082131 -223.949018 
L 80.082131 -222.183957 
L 80.22063 -222.183957 
L 80.22063 -220.421895 
L 81.813367 -220.421895 
L 81.813367 -218.662824 
L 82.021115 -218.662824 
L 82.021115 -216.90674 
L 82.090365 -216.90674 
L 82.090365 -215.153638 
L 82.228863 -215.153638 
L 82.228863 -213.403517 
L 82.436612 -213.403517 
L 82.436612 -211.656373 
L 84.514095 -211.656373 
L 84.514095 -209.912208 
L 85.137339 -209.912208 
L 85.137339 -208.171021 
L 85.206589 -208.171021 
L 85.206589 -206.432815 
L 85.414337 -206.432815 
L 85.414337 -204.697591 
L 85.552836 -204.697591 
L 85.552836 -202.965355 
L 86.31458 -202.965355 
L 86.31458 -201.236111 
L 88.045816 -201.236111 
L 88.045816 -199.509866 
L 88.322813 -199.509866 
L 88.322813 -197.786627 
L 88.392063 -197.786627 
L 88.392063 -196.066404 
L 88.599811 -196.066404 
L 88.599811 -194.349205 
L 88.66906 -194.349205 
L 88.66906 -192.635043 
L 89.084557 -192.635043 
L 89.084557 -190.923929 
L 89.777051 -190.923929 
L 89.777051 -189.215877 
L 90.469546 -189.215877 
L 90.469546 -187.510903 
L 91.508287 -187.510903 
L 91.508287 -185.809021 
L 95.524754 -185.809021 
L 95.524754 -184.110251 
L 96.217248 -184.110251 
L 96.217248 -182.414611 
L 98.779477 -182.414611 
L 98.779477 -180.722121 
L 99.194974 -180.722121 
L 99.194974 -179.032803 
L 101.618704 -179.032803 
L 101.618704 -177.346681 
L 101.687954 -177.346681 
L 101.687954 -175.663779 
L 101.826452 -175.663779 
L 101.826452 -173.984124 
L 103.488439 -173.984124 
L 103.488439 -172.307746 
L 104.52718 -172.307746 
L 104.52718 -170.634672 
L 108.128151 -170.634672 
L 108.128151 -168.964936 
L 111.86762 -168.964936 
L 111.86762 -167.29857 
L 112.629364 -167.29857 
L 112.629364 -165.635612 
L 112.767863 -165.635612 
L 112.767863 -163.976097 
L 118.654064 -163.976097 
L 118.654064 -162.320067 
L 121.008545 -162.320067 
L 121.008545 -160.667563 
L 129.803223 -160.667563 
L 129.803223 -159.01863 
L 130.772715 -159.01863 
L 130.772715 -157.373314 
L 131.118962 -157.373314 
L 131.118962 -155.731666 
L 137.351411 -155.731666 
L 137.351411 -154.093737 
L 138.5979 -154.093737 
L 138.5979 -152.459584 
L 150.231805 -152.459584 
L 150.231805 -150.829263 
L 162.9737 -150.829263 
L 162.9737 -149.202836 
L 165.743677 -149.202836 
L 165.743677 -147.580369 
L 179.108818 -147.580369 
L 179.108818 -145.961931 
L 181.463298 -145.961931 
L 181.463298 -144.347592 
L 187.3495 -144.347592 
L 187.3495 -144.347592 
L 187.557248 -144.347592 
L 187.557248 -142.698264 
L 187.834246 -142.698264 
L 187.834246 -142.698264 
L 189.703981 -142.698264 
L 189.703981 -142.698264 
L 191.850713 -142.698264 
L 191.850713 -142.698264 
L 198.221661 -142.698264 
L 198.221661 -140.921404 
L 198.983404 -140.921404 
L 198.983404 -140.921404 
L 204.800357 -140.921404 
L 204.800357 -139.101029 
L 206.254595 -139.101029 
L 206.254595 -139.101029 
L 207.362585 -139.101029 
L 207.362585 -137.233968 
L 208.262828 -137.233968 
L 208.262828 -137.233968 
L 209.509318 -137.233968 
L 209.509318 -135.316652 
L 215.257021 -135.316652 
L 215.257021 -133.408367 
L 218.165497 -133.408367 
L 218.165497 -131.509276 
L 227.444921 -131.509276 
L 227.444921 -131.509276 
L 232.153882 -131.509276 
L 232.153882 -131.509276 
L 237.901585 -131.509276 
L 237.901585 -131.509276 
L 241.156308 -131.509276 
L 241.156308 -131.509276 
L 248.704496 -131.509276 
L 248.704496 -131.509276 
L 249.46624 -131.509276 
L 249.46624 -129.234671 
L 252.859462 -129.234671 
L 252.859462 -129.234671 
L 258.122419 -129.234671 
L 258.122419 -126.879604 
L 261.377142 -126.879604 
L 261.377142 -126.879604 
L 265.878355 -126.879604 
L 265.878355 -124.435297 
L 269.133078 -124.435297 
L 269.133078 -124.435297 
L 270.10257 -124.435297 
L 270.10257 -124.435297 
L 295.586361 -124.435297 
L 295.586361 -124.435297 
L 302.234306 -124.435297 
L 302.234306 -124.435297 
L 322.385891 -124.435297 
L 322.385891 -124.435297 
L 330.626573 -124.435297 
L 330.626573 -124.435297 
L 333.535049 -124.435297 
L 333.535049 -124.435297 
L 333.673548 -124.435297 
L 333.673548 -124.435297 
L 333.881296 -124.435297 
L 333.881296 -124.435297 
L 356.52586 -124.435297 
L 356.52586 -124.435297 
L 357.910849 -124.435297 
L 357.910849 -124.435297 
L 359.503586 -124.435297 
L 359.503586 -124.435297 
L 374.738461 -124.435297 
L 374.738461 -124.435297 
L 376.746694 -124.435297 
L 376.746694 -124.435297 
L 377.716186 -124.435297 
L 377.716186 -116.597719 
L 388.726846 -116.597719 
L 388.726846 -116.597719 
L 391.566072 -116.597719 
L 391.566072 -116.597719 
L 392.604814 -116.597719 
L 392.604814 -116.597719 
L 432.907983 -116.597719 
L 432.907983 -116.597719 
L 445.926876 -116.597719 
L 445.926876 -116.597719 
L 459.499764 -116.597719 
L 459.499764 -116.597719 
L 463.931728 -116.597719 
L 463.931728 -116.597719 
L 464.347225 -116.597719 
L 464.347225 -116.597719 
L 472.310909 -116.597719 
L 472.310909 -116.597719 
L 472.310909 -158.935008 
L 472.310909 -158.935008 
L 472.310909 -158.935008 
L 464.347225 -158.935008 
L 464.347225 -158.935008 
L 463.931728 -158.935008 
L 463.931728 -158.935008 
L 459.499764 -158.935008 
L 459.499764 -158.935008 
L 445.926876 -158.935008 
L 445.926876 -158.935008 
L 432.907983 -158.935008 
L 432.907983 -158.935008 
L 392.604814 -158.935008 
L 392.604814 -158.935008 
L 391.566072 -158.935008 
L 391.566072 -158.935008 
L 388.726846 -158.935008 
L 388.726846 -158.935008 
L 377.716186 -158.935008 
L 377.716186 -163.189514 
L 376.746694 -163.189514 
L 376.746694 -163.189514 
L 374.738461 -163.189514 
L 374.738461 -163.189514 
L 359.503586 -163.189514 
L 359.503586 -163.189514 
L 357.910849 -163.189514 
L 357.910849 -163.189514 
L 356.52586 -163.189514 
L 356.52586 -163.189514 
L 333.881296 -163.189514 
L 333.881296 -163.189514 
L 333.673548 -163.189514 
L 333.673548 -163.189514 
L 333.535049 -163.189514 
L 333.535049 -163.189514 
L 330.626573 -163.189514 
L 330.626573 -163.189514 
L 322.385891 -163.189514 
L 322.385891 -163.189514 
L 302.234306 -163.189514 
L 302.234306 -163.189514 
L 295.586361 -163.189514 
L 295.586361 -163.189514 
L 270.10257 -163.189514 
L 270.10257 -163.189514 
L 269.133078 -163.189514 
L 269.133078 -163.189514 
L 265.878355 -163.189514 
L 265.878355 -165.827644 
L 261.377142 -165.827644 
L 261.377142 -165.827644 
L 258.122419 -165.827644 
L 258.122419 -168.375314 
L 252.859462 -168.375314 
L 252.859462 -168.375314 
L 249.46624 -168.375314 
L 249.46624 -170.841342 
L 248.704496 -170.841342 
L 248.704496 -170.841342 
L 241.156308 -170.841342 
L 241.156308 -170.841342 
L 237.901585 -170.841342 
L 237.901585 -170.841342 
L 232.153882 -170.841342 
L 232.153882 -170.841342 
L 227.444921 -170.841342 
L 227.444921 -170.841342 
L 218.165497 -170.841342 
L 218.165497 -173.019369 
L 215.257021 -173.019369 
L 215.257021 -175.189396 
L 209.509318 -175.189396 
L 209.509318 -177.351581 
L 208.262828 -177.351581 
L 208.262828 -177.351581 
L 207.362585 -177.351581 
L 207.362585 -179.461916 
L 206.254595 -179.461916 
L 206.254595 -179.461916 
L 204.800357 -179.461916 
L 204.800357 -181.52401 
L 198.983404 -181.52401 
L 198.983404 -181.52401 
L 198.221661 -181.52401 
L 198.221661 -183.541065 
L 191.850713 -183.541065 
L 191.850713 -183.541065 
L 189.703981 -183.541065 
L 189.703981 -183.541065 
L 187.834246 -183.541065 
L 187.834246 -183.541065 
L 187.557248 -183.541065 
L 187.557248 -185.446298 
L 187.3495 -185.446298 
L 187.3495 -185.446298 
L 181.463298 -185.446298 
L 181.463298 -187.314895 
L 179.108818 -187.314895 
L 179.108818 -189.179629 
L 165.743677 -189.179629 
L 165.743677 -191.040564 
L 162.9737 -191.040564 
L 162.9737 -192.897763 
L 150.231805 -192.897763 
L 150.231805 -194.751284 
L 138.5979 -194.751284 
L 138.5979 -196.601182 
L 137.351411 -196.601182 
L 137.351411 -198.44751 
L 131.118962 -198.44751 
L 131.118962 -200.290317 
L 130.772715 -200.290317 
L 130.772715 -202.129651 
L 129.803223 -202.129651 
L 129.803223 -203.965554 
L 121.008545 -203.965554 
L 121.008545 -205.798071 
L 118.654064 -205.798071 
L 118.654064 -207.627239 
L 112.767863 -207.627239 
L 112.767863 -209.453098 
L 112.629364 -209.453098 
L 112.629364 -211.275682 
L 111.86762 -211.275682 
L 111.86762 -213.095025 
L 108.128151 -213.095025 
L 108.128151 -214.911158 
L 104.52718 -214.911158 
L 104.52718 -216.724112 
L 103.488439 -216.724112 
L 103.488439 -218.533915 
L 101.826452 -218.533915 
L 101.826452 -220.340592 
L 101.687954 -220.340592 
L 101.687954 -222.144169 
L 101.618704 -222.144169 
L 101.618704 -223.944669 
L 99.194974 -223.944669 
L 99.194974 -225.742114 
L 98.779477 -225.742114 
L 98.779477 -227.536524 
L 96.217248 -227.536524 
L 96.217248 -229.327918 
L 95.524754 -229.327918 
L 95.524754 -231.116313 
L 91.508287 -231.116313 
L 91.508287 -232.901726 
L 90.469546 -232.901726 
L 90.469546 -234.684172 
L 89.777051 -234.684172 
L 89.777051 -236.463663 
L 89.084557 -236.463663 
L 89.084557 -238.240214 
L 88.66906 -238.240214 
L 88.66906 -240.013834 
L 88.599811 -240.013834 
L 88.599811 -241.784534 
L 88.392063 -241.784534 
L 88.392063 -243.552322 
L 88.322813 -243.552322 
L 88.322813 -245.317207 
L 88.045816 -245.317207 
L 88.045816 -247.079195 
L 86.31458 -247.079195 
L 86.31458 -248.838291 
L 85.552836 -248.838291 
L 85.552836 -250.594499 
L 85.414337 -250.594499 
L 85.414337 -252.347823 
L 85.206589 -252.347823 
L 85.206589 -254.098264 
L 85.137339 -254.098264 
L 85.137339 -255.845825 
L 84.514095 -255.845825 
L 84.514095 -257.590504 
L 82.436612 -257.590504 
L 82.436612 -259.3323 
L 82.228863 -259.3323 
L 82.228863 -261.071212 
L 82.090365 -261.071212 
L 82.090365 -262.807236 
L 82.021115 -262.807236 
L 82.021115 -264.540367 
L 81.813367 -264.540367 
L 81.813367 -266.2706 
L 80.22063 -266.2706 
L 80.22063 -267.997928 
L 80.082131 -267.997928 
L 80.082131 -269.722343 
L 79.735884 -269.722343 
L 79.735884 -271.443837 
L 79.528136 -271.443837 
L 79.528136 -273.162398 
L 79.320387 -273.162398 
L 79.320387 -274.878017 
L 79.251138 -274.878017 
L 79.251138 -276.59068 
L 78.143147 -276.59068 
L 78.143147 -278.300374 
L 77.935399 -278.300374 
L 77.935399 -280.007083 
L 77.242904 -280.007083 
L 77.242904 -281.710791 
L 76.827408 -281.710791 
L 76.827408 -283.411481 
L 76.758158 -283.411481 
L 76.758158 -285.109134 
L 76.55041 -285.109134 
L 76.55041 -290.183658 
L 75.996415 -290.183658 
L 75.996415 -295.230024 
L 75.442419 -295.230024 
L 75.442419 -296.905761 
L 75.30392 -296.905761 
L 75.30392 -300.247472 
L 75.096172 -300.247472 
L 75.096172 -301.913378 
L 75.026923 -301.913378 
L 75.026923 -303.575933 
L 74.680675 -303.575933 
L 74.680675 -305.2351 
L 73.572684 -305.2351 
L 73.572684 -306.890835 
L 72.810941 -306.890835 
L 72.810941 -308.543096 
L 72.187696 -308.543096 
L 72.187696 -310.191836 
L 72.049197 -310.191836 
L 72.049197 -311.837005 
L 71.979948 -311.837005 
L 71.979948 -313.478552 
L 71.910698 -313.478552 
L 71.910698 -315.116422 
L 71.772199 -315.116422 
L 71.772199 -316.750557 
L 71.356703 -316.750557 
L 71.356703 -318.380897 
L 71.218204 -318.380897 
L 71.218204 -320.007376 
L 71.010456 -320.007376 
L 71.010456 -323.248477 
L 70.941206 -323.248477 
L 70.941206 -324.862951 
L 70.871957 -324.862951 
L 70.871957 -326.473268 
L 70.733458 -326.473268 
L 70.733458 -328.079342 
L 69.763966 -328.079342 
L 69.763966 -329.681084 
L 69.27922 -329.681084 
L 69.27922 -332.87118 
L 69.071471 -332.87118 
L 69.071471 -334.459325 
L 68.932973 -334.459325 
L 68.932973 -339.194743 
L 68.863723 -339.194743 
L 68.863723 -340.763108 
L 68.309728 -340.763108 
L 68.309728 -343.883798 
L 66.716991 -343.883798 
L 66.716991 -345.435794 
L 66.093746 -345.435794 
L 66.093746 -346.981983 
L 65.470501 -346.981983 
L 65.470501 -348.522169 
L 64.916506 -348.522169 
L 64.916506 -350.05614 
L 64.778007 -350.05614 
L 64.778007 -351.583667 
L 64.570258 -351.583667 
L 64.570258 -353.104502 
L 64.016263 -353.104502 
L 64.016263 -354.618376 
L 63.877764 -354.618376 
L 63.877764 -356.124997 
L 62.215778 -356.124997 
L 62.215778 -357.624045 
L 62.146528 -357.624045 
L 62.146528 -359.115173 
L 62.008029 -359.115173 
L 62.008029 -360.597997 
L 61.731032 -360.597997 
L 61.731032 -362.072095 
L 61.592533 -362.072095 
L 61.592533 -363.537003 
L 60.553791 -363.537003 
L 60.553791 -364.992202 
L 60.138295 -364.992202 
L 60.138295 -366.437116 
L 59.861297 -366.437116 
L 59.861297 -366.437116 
L 59.722798 -366.437116 
L 59.722798 -369.279041 
L 59.584299 -369.279041 
L 59.584299 -370.68203 
L 59.51505 -370.68203 
L 59.51505 -372.07185 
L 59.307302 -372.07185 
L 59.307302 -373.447449 
L 57.09132 -373.447449 
L 57.09132 -374.807604 
L 57.02207 -374.807604 
L 57.02207 -376.150888 
L 56.883572 -376.150888 
L 56.883572 -377.475613 
L 56.537324 -377.475613 
L 56.537324 -378.77976 
L 56.398826 -378.77976 
L 56.398826 -381.315933 
L 56.191077 -381.315933 
L 56.191077 -382.541118 
L 56.052578 -382.541118 
L 56.052578 -383.731506 
L 55.983329 -383.731506 
L 55.983329 -384.880545 
L 55.429334 -384.880545 
L 55.429334 -385.979171 
L 55.360084 -385.979171 
L 55.360084 -388.795865 
L 55.152336 -388.795865 
L 55.152336 -389.433115 
L 55.083086 -389.433115 
L 55.083086 -389.682295 
L 54.529091 -389.682295 
z
" id="m661bf727e7" style="stroke:#808080;stroke-opacity:0.25;"/>
    </defs>
    <g clip-path="url(#p4dcdb1da26)">
     <use style="fill:#808080;fill-opacity:0.25;stroke:#808080;stroke-opacity:0.25;" x="0" xlink:href="#m661bf727e7" y="432"/>
    </g>
   </g>
   <g id="matplotlib.axis_1">
    <g id="xtick_1">
     <g id="line2d_1">
      <path clip-path="url(#p4dcdb1da26)" d="M 54.529091 366.5095 
L 54.529091 26.88 
" style="fill:none;stroke:#b0b0b0;stroke-dasharray:2.96,1.28;stroke-dashoffset:0;stroke-opacity:0.5;stroke-width:0.8;"/>
     </g>
     <g id="line2d_2">
      <defs>
       <path d="M 0 0 
L 0 3.5 
" id="m90363575f1" style="stroke:#000000;stroke-width:0.8;"/>
      </defs>
      <g>
       <use style="stroke:#000000;stroke-width:0.8;" x="54.529091" xlink:href="#m90363575f1" y="366.5095"/>
      </g>
     </g>
     <g id="text_1">
      <text style="font-family:DejaVu Sans;font-size:10px;font-stretch:normal;font-style:normal;font-weight:normal;text-anchor:middle;" transform="rotate(-0, 54.529091, 381.107937)" x="54.529091" y="381.107937">0</text>
     </g>
    </g>
    <g id="xtick_2">
     <g id="line2d_3">
      <path clip-path="url(#p4dcdb1da26)" d="M 123.778522 366.5095 
L 123.778522 26.88 
" style="fill:none;stroke:#b0b0b0;stroke-dasharray:2.96,1.28;stroke-dashoffset:0;stroke-opacity:0.5;stroke-width:0.8;"/>
     </g>
     <g id="line2d_4">
      <g>
       <use style="stroke:#000000;stroke-width:0.8;" x="123.778522" xlink:href="#m90363575f1" y="366.5095"/>
      </g>
     </g>
     <g id="text_2">
      <text style="font-family:DejaVu Sans;font-size:10px;font-stretch:normal;font-style:normal;font-weight:normal;text-anchor:middle;" transform="rotate(-0, 123.778522, 381.107937)" x="123.778522" y="381.107937">1000</text>
     </g>
    </g>
    <g id="xtick_3">
     <g id="line2d_5">
      <path clip-path="url(#p4dcdb1da26)" d="M 193.027953 366.5095 
L 193.027953 26.88 
" style="fill:none;stroke:#b0b0b0;stroke-dasharray:2.96,1.28;stroke-dashoffset:0;stroke-opacity:0.5;stroke-width:0.8;"/>
     </g>
     <g id="line2d_6">
      <g>
       <use style="stroke:#000000;stroke-width:0.8;" x="193.027953" xlink:href="#m90363575f1" y="366.5095"/>
      </g>
     </g>
     <g id="text_3">
      <text style="font-family:DejaVu Sans;font-size:10px;font-stretch:normal;font-style:normal;font-weight:normal;text-anchor:middle;" transform="rotate(-0, 193.027953, 381.107937)" x="193.027953" y="381.107937">2000</text>
     </g>
    </g>
    <g id="xtick_4">
     <g id="line2d_7">
      <path clip-path="url(#p4dcdb1da26)" d="M 262.277384 366.5095 
L 262.277384 26.88 
" style="fill:none;stroke:#b0b0b0;stroke-dasharray:2.96,1.28;stroke-dashoffset:0;stroke-opacity:0.5;stroke-width:0.8;"/>
     </g>
     <g id="line2d_8">
      <g>
       <use style="stroke:#000000;stroke-width:0.8;" x="262.277384" xlink:href="#m90363575f1" y="366.5095"/>
      </g>
     </g>
     <g id="text_4">
      <text style="font-family:DejaVu Sans;font-size:10px;font-stretch:normal;font-style:normal;font-weight:normal;text-anchor:middle;" transform="rotate(-0, 262.277384, 381.107937)" x="262.277384" y="381.107937">3000</text>
     </g>
    </g>
    <g id="xtick_5">
     <g id="line2d_9">
      <path clip-path="url(#p4dcdb1da26)" d="M 331.526816 366.5095 
L 331.526816 26.88 
" style="fill:none;stroke:#b0b0b0;stroke-dasharray:2.96,1.28;stroke-dashoffset:0;stroke-opacity:0.5;stroke-width:0.8;"/>
     </g>
     <g id="line2d_10">
      <g>
       <use style="stroke:#000000;stroke-width:0.8;" x="331.526816" xlink:href="#m90363575f1" y="366.5095"/>
      </g>
     </g>
     <g id="text_5">
      <text style="font-family:DejaVu Sans;font-size:10px;font-stretch:normal;font-style:normal;font-weight:normal;text-anchor:middle;" transform="rotate(-0, 331.526816, 381.107937)" x="331.526816" y="381.107937">4000</text>
     </g>
    </g>
    <g id="xtick_6">
     <g id="line2d_11">
      <path clip-path="url(#p4dcdb1da26)" d="M 400.776247 366.5095 
L 400.776247 26.88 
" style="fill:none;stroke:#b0b0b0;stroke-dasharray:2.96,1.28;stroke-dashoffset:0;stroke-opacity:0.5;stroke-width:0.8;"/>
     </g>
     <g id="line2d_12">
      <g>
       <use style="stroke:#000000;stroke-width:0.8;" x="400.776247" xlink:href="#m90363575f1" y="366.5095"/>
      </g>
     </g>
     <g id="text_6">
      <text style="font-family:DejaVu Sans;font-size:10px;font-stretch:normal;font-style:normal;font-weight:normal;text-anchor:middle;" transform="rotate(-0, 400.776247, 381.107937)" x="400.776247" y="381.107937">5000</text>
     </g>
    </g>
    <g id="xtick_7">
     <g id="line2d_13">
      <path clip-path="url(#p4dcdb1da26)" d="M 470.025678 366.5095 
L 470.025678 26.88 
" style="fill:none;stroke:#b0b0b0;stroke-dasharray:2.96,1.28;stroke-dashoffset:0;stroke-opacity:0.5;stroke-width:0.8;"/>
     </g>
     <g id="line2d_14">
      <g>
       <use style="stroke:#000000;stroke-width:0.8;" x="470.025678" xlink:href="#m90363575f1" y="366.5095"/>
      </g>
     </g>
     <g id="text_7">
      <text style="font-family:DejaVu Sans;font-size:10px;font-stretch:normal;font-style:normal;font-weight:normal;text-anchor:middle;" transform="rotate(-0, 470.025678, 381.107937)" x="470.025678" y="381.107937">6000</text>
     </g>
    </g>
    <g id="text_8">
     <text style="font-family:DejaVu Sans;font-size:10px;font-stretch:normal;font-style:normal;font-weight:normal;" transform="translate(241.511406 394.786063)">timeline </text>
     <text style="font-family:DejaVu Sans;font-size:10px;font-stretch:normal;font-style:normal;font-weight:normal;" transform="translate(113.085625 405.983875)">    dataset: lgn_pronostic_clin_factors_LSC17, input_dim: 33 </text>
     <text style="font-family:DejaVu Sans;font-size:10px;font-stretch:normal;font-style:normal;font-weight:normal;" transform="translate(184.83875 417.459812)">    c_index: [0.715 0.686 0.742]</text>
    </g>
   </g>
   <g id="matplotlib.axis_2">
    <g id="ytick_1">
     <g id="line2d_15">
      <path clip-path="url(#p4dcdb1da26)" d="M 33.64 354.661721 
L 493.2 354.661721 
" style="fill:none;stroke:#b0b0b0;stroke-dasharray:2.96,1.28;stroke-dashoffset:0;stroke-opacity:0.5;stroke-width:0.8;"/>
     </g>
     <g id="line2d_16">
      <defs>
       <path d="M 0 0 
L -3.5 0 
" id="m460dbaf00c" style="stroke:#000000;stroke-width:0.8;"/>
      </defs>
      <g>
       <use style="stroke:#000000;stroke-width:0.8;" x="33.64" xlink:href="#m460dbaf00c" y="354.661721"/>
      </g>
     </g>
     <g id="text_9">
      <text style="font-family:DejaVu Sans;font-size:10px;font-stretch:normal;font-style:normal;font-weight:normal;text-anchor:end;" transform="rotate(-0, 26.64, 358.460939)" x="26.64" y="358.460939">0.0</text>
     </g>
    </g>
    <g id="ytick_2">
     <g id="line2d_17">
      <path clip-path="url(#p4dcdb1da26)" d="M 33.64 292.192917 
L 493.2 292.192917 
" style="fill:none;stroke:#b0b0b0;stroke-dasharray:2.96,1.28;stroke-dashoffset:0;stroke-opacity:0.5;stroke-width:0.8;"/>
     </g>
     <g id="line2d_18">
      <g>
       <use style="stroke:#000000;stroke-width:0.8;" x="33.64" xlink:href="#m460dbaf00c" y="292.192917"/>
      </g>
     </g>
     <g id="text_10">
      <text style="font-family:DejaVu Sans;font-size:10px;font-stretch:normal;font-style:normal;font-weight:normal;text-anchor:end;" transform="rotate(-0, 26.64, 295.992136)" x="26.64" y="295.992136">0.2</text>
     </g>
    </g>
    <g id="ytick_3">
     <g id="line2d_19">
      <path clip-path="url(#p4dcdb1da26)" d="M 33.64 229.724114 
L 493.2 229.724114 
" style="fill:none;stroke:#b0b0b0;stroke-dasharray:2.96,1.28;stroke-dashoffset:0;stroke-opacity:0.5;stroke-width:0.8;"/>
     </g>
     <g id="line2d_20">
      <g>
       <use style="stroke:#000000;stroke-width:0.8;" x="33.64" xlink:href="#m460dbaf00c" y="229.724114"/>
      </g>
     </g>
     <g id="text_11">
      <text style="font-family:DejaVu Sans;font-size:10px;font-stretch:normal;font-style:normal;font-weight:normal;text-anchor:end;" transform="rotate(-0, 26.64, 233.523333)" x="26.64" y="233.523333">0.4</text>
     </g>
    </g>
    <g id="ytick_4">
     <g id="line2d_21">
      <path clip-path="url(#p4dcdb1da26)" d="M 33.64 167.255311 
L 493.2 167.255311 
" style="fill:none;stroke:#b0b0b0;stroke-dasharray:2.96,1.28;stroke-dashoffset:0;stroke-opacity:0.5;stroke-width:0.8;"/>
     </g>
     <g id="line2d_22">
      <g>
       <use style="stroke:#000000;stroke-width:0.8;" x="33.64" xlink:href="#m460dbaf00c" y="167.255311"/>
      </g>
     </g>
     <g id="text_12">
      <text style="font-family:DejaVu Sans;font-size:10px;font-stretch:normal;font-style:normal;font-weight:normal;text-anchor:end;" transform="rotate(-0, 26.64, 171.05453)" x="26.64" y="171.05453">0.6</text>
     </g>
    </g>
    <g id="ytick_5">
     <g id="line2d_23">
      <path clip-path="url(#p4dcdb1da26)" d="M 33.64 104.786508 
L 493.2 104.786508 
" style="fill:none;stroke:#b0b0b0;stroke-dasharray:2.96,1.28;stroke-dashoffset:0;stroke-opacity:0.5;stroke-width:0.8;"/>
     </g>
     <g id="line2d_24">
      <g>
       <use style="stroke:#000000;stroke-width:0.8;" x="33.64" xlink:href="#m460dbaf00c" y="104.786508"/>
      </g>
     </g>
     <g id="text_13">
      <text style="font-family:DejaVu Sans;font-size:10px;font-stretch:normal;font-style:normal;font-weight:normal;text-anchor:end;" transform="rotate(-0, 26.64, 108.585727)" x="26.64" y="108.585727">0.8</text>
     </g>
    </g>
    <g id="ytick_6">
     <g id="line2d_25">
      <path clip-path="url(#p4dcdb1da26)" d="M 33.64 42.317705 
L 493.2 42.317705 
" style="fill:none;stroke:#b0b0b0;stroke-dasharray:2.96,1.28;stroke-dashoffset:0;stroke-opacity:0.5;stroke-width:0.8;"/>
     </g>
     <g id="line2d_26">
      <g>
       <use style="stroke:#000000;stroke-width:0.8;" x="33.64" xlink:href="#m460dbaf00c" y="42.317705"/>
      </g>
     </g>
     <g id="text_14">
      <text style="font-family:DejaVu Sans;font-size:10px;font-stretch:normal;font-style:normal;font-weight:normal;text-anchor:end;" transform="rotate(-0, 26.64, 46.116923)" x="26.64" y="46.116923">1.0</text>
     </g>
    </g>
   </g>
   <g id="line2d_27">
    <defs>
     <path d="M -3 3 
L 3 -3 
M -3 -3 
L 3 3 
" id="me2cb073de9" style="stroke:#ff0000;"/>
    </defs>
    <g clip-path="url(#p4dcdb1da26)">
     <use style="fill:#ff0000;stroke:#ff0000;" x="95.386255" xlink:href="#me2cb073de9" y="306.608795"/>
     <use style="fill:#ff0000;stroke:#ff0000;" x="237.001342" xlink:href="#me2cb073de9" y="332.819482"/>
     <use style="fill:#ff0000;stroke:#ff0000;" x="266.43235" xlink:href="#me2cb073de9" y="332.819482"/>
     <use style="fill:#ff0000;stroke:#ff0000;" x="351.609151" xlink:href="#me2cb073de9" y="340.100228"/>
     <use style="fill:#ff0000;stroke:#ff0000;" x="405.069711" xlink:href="#me2cb073de9" y="340.100228"/>
    </g>
   </g>
   <g id="line2d_28">
    <path clip-path="url(#p4dcdb1da26)" d="M 54.529091 42.317705 
L 55.290835 42.317705 
L 55.360084 50.326525 
L 55.498583 50.326525 
L 55.567832 58.335346 
L 55.775581 58.335346 
L 55.775581 62.339757 
L 55.91408 62.339757 
L 55.91408 66.344167 
L 56.052578 66.344167 
L 56.052578 78.357399 
L 56.329576 78.357399 
L 56.329576 82.361809 
L 56.606574 82.361809 
L 56.606574 86.36622 
L 56.952821 86.36622 
L 57.02207 98.379451 
L 57.783814 98.379451 
L 57.783814 102.383861 
L 58.060812 102.383861 
L 58.060812 106.388272 
L 58.33781 106.388272 
L 58.33781 110.392682 
L 58.822556 110.392682 
L 58.822556 114.397093 
L 59.030304 114.397093 
L 59.030304 118.401503 
L 59.861297 118.401503 
L 59.861297 122.405914 
L 60.138295 122.405914 
L 60.138295 126.410324 
L 60.276794 126.410324 
L 60.276794 130.414735 
L 60.415293 130.414735 
L 60.415293 134.419145 
L 60.623041 134.419145 
L 60.623041 138.423556 
L 60.830789 138.423556 
L 60.830789 142.427966 
L 60.969288 142.427966 
L 60.969288 146.432377 
L 61.246286 146.432377 
L 61.246286 150.436787 
L 61.523283 150.436787 
L 61.592533 158.445608 
L 62.215778 158.445608 
L 62.285027 166.454429 
L 62.839023 166.454429 
L 62.839023 170.458839 
L 63.046771 170.458839 
L 63.046771 174.46325 
L 63.323769 174.46325 
L 63.323769 178.46766 
L 63.462268 178.46766 
L 63.462268 182.472071 
L 63.739265 182.472071 
L 63.739265 186.476481 
L 63.877764 186.476481 
L 63.947014 194.485302 
L 64.085512 194.485302 
L 64.085512 198.489713 
L 64.43176 198.489713 
L 64.43176 202.494123 
L 64.708757 202.494123 
L 64.778007 210.502944 
L 64.916506 210.502944 
L 64.916506 214.507354 
L 65.055004 214.507354 
L 65.055004 222.516175 
L 65.193503 222.516175 
L 65.193503 226.520586 
L 65.678249 226.520586 
L 65.678249 230.524996 
L 65.816748 230.524996 
L 65.816748 234.529407 
L 66.162995 234.529407 
L 66.162995 238.533817 
L 66.439993 238.533817 
L 66.439993 242.538228 
L 66.647741 242.538228 
L 66.647741 246.542638 
L 67.409485 246.542638 
L 67.409485 250.547049 
L 67.617233 250.547049 
L 67.617233 254.551459 
L 69.833215 254.551459 
L 69.833215 258.55587 
L 70.802707 258.55587 
L 70.802707 262.56028 
L 71.218204 262.56028 
L 71.218204 266.564691 
L 71.495202 266.564691 
L 71.495202 270.569101 
L 72.741691 270.569101 
L 72.741691 274.573511 
L 73.018689 274.573511 
L 73.018689 278.577922 
L 74.334428 278.577922 
L 74.334428 282.582332 
L 75.026923 282.582332 
L 75.026923 286.586743 
L 75.788666 286.586743 
L 75.788666 290.591153 
L 77.242904 290.591153 
L 77.242904 294.595564 
L 84.029349 294.595564 
L 84.029349 298.599974 
L 88.599811 298.599974 
L 88.599811 302.604385 
L 90.538795 302.604385 
L 90.538795 306.608795 
L 110.274883 306.608795 
L 110.274883 310.977243 
L 110.69038 310.977243 
L 110.69038 315.345691 
L 113.183359 315.345691 
L 113.183359 319.714138 
L 116.645831 319.714138 
L 116.645831 324.082586 
L 156.118006 324.082586 
L 156.118006 328.451034 
L 209.024572 328.451034 
L 209.024572 332.819482 
L 347.800432 332.819482 
L 347.800432 340.100228 
L 405.069711 340.100228 
L 405.069711 340.100228 
" style="fill:none;stroke:#ff0000;stroke-linecap:square;stroke-width:1.5;"/>
   </g>
   <g id="line2d_29">
    <defs>
     <path d="M -3 3 
L 3 -3 
M -3 -3 
L 3 3 
" id="m060c602494" style="stroke:#0000ff;"/>
    </defs>
    <g clip-path="url(#p4dcdb1da26)">
     <use style="fill:#0000ff;stroke:#0000ff;" x="182.709788" xlink:href="#m060c602494" y="118.668464"/>
     <use style="fill:#0000ff;stroke:#0000ff;" x="184.579523" xlink:href="#m060c602494" y="118.668464"/>
     <use style="fill:#0000ff;stroke:#0000ff;" x="193.651198" xlink:href="#m060c602494" y="118.668464"/>
     <use style="fill:#0000ff;stroke:#0000ff;" x="208.678325" xlink:href="#m060c602494" y="118.668464"/>
     <use style="fill:#0000ff;stroke:#0000ff;" x="218.373245" xlink:href="#m060c602494" y="126.534906"/>
     <use style="fill:#0000ff;stroke:#0000ff;" x="224.259447" xlink:href="#m060c602494" y="126.534906"/>
     <use style="fill:#0000ff;stroke:#0000ff;" x="226.26768" xlink:href="#m060c602494" y="126.534906"/>
     <use style="fill:#0000ff;stroke:#0000ff;" x="235.685603" xlink:href="#m060c602494" y="126.534906"/>
     <use style="fill:#0000ff;stroke:#0000ff;" x="245.519022" xlink:href="#m060c602494" y="126.534906"/>
     <use style="fill:#0000ff;stroke:#0000ff;" x="253.759704" xlink:href="#m060c602494" y="126.534906"/>
     <use style="fill:#0000ff;stroke:#0000ff;" x="263.177627" xlink:href="#m060c602494" y="126.534906"/>
     <use style="fill:#0000ff;stroke:#0000ff;" x="280.420735" xlink:href="#m060c602494" y="126.534906"/>
     <use style="fill:#0000ff;stroke:#0000ff;" x="280.697733" xlink:href="#m060c602494" y="126.534906"/>
     <use style="fill:#0000ff;stroke:#0000ff;" x="284.160205" xlink:href="#m060c602494" y="126.534906"/>
     <use style="fill:#0000ff;stroke:#0000ff;" x="289.838658" xlink:href="#m060c602494" y="126.534906"/>
     <use style="fill:#0000ff;stroke:#0000ff;" x="316.638188" xlink:href="#m060c602494" y="126.534906"/>
     <use style="fill:#0000ff;stroke:#0000ff;" x="322.039643" xlink:href="#m060c602494" y="126.534906"/>
     <use style="fill:#0000ff;stroke:#0000ff;" x="330.765072" xlink:href="#m060c602494" y="126.534906"/>
     <use style="fill:#0000ff;stroke:#0000ff;" x="333.812047" xlink:href="#m060c602494" y="126.534906"/>
     <use style="fill:#0000ff;stroke:#0000ff;" x="338.31326" xlink:href="#m060c602494" y="126.534906"/>
     <use style="fill:#0000ff;stroke:#0000ff;" x="344.060963" xlink:href="#m060c602494" y="126.534906"/>
     <use style="fill:#0000ff;stroke:#0000ff;" x="370.652744" xlink:href="#m060c602494" y="126.534906"/>
     <use style="fill:#0000ff;stroke:#0000ff;" x="380.693912" xlink:href="#m060c602494" y="126.534906"/>
     <use style="fill:#0000ff;stroke:#0000ff;" x="383.256141" xlink:href="#m060c602494" y="126.534906"/>
     <use style="fill:#0000ff;stroke:#0000ff;" x="389.904086" xlink:href="#m060c602494" y="126.534906"/>
     <use style="fill:#0000ff;stroke:#0000ff;" x="393.505056" xlink:href="#m060c602494" y="126.534906"/>
     <use style="fill:#0000ff;stroke:#0000ff;" x="398.491015" xlink:href="#m060c602494" y="126.534906"/>
     <use style="fill:#0000ff;stroke:#0000ff;" x="408.393684" xlink:href="#m060c602494" y="126.534906"/>
     <use style="fill:#0000ff;stroke:#0000ff;" x="425.221296" xlink:href="#m060c602494" y="126.534906"/>
     <use style="fill:#0000ff;stroke:#0000ff;" x="441.356413" xlink:href="#m060c602494" y="126.534906"/>
     <use style="fill:#0000ff;stroke:#0000ff;" x="455.483297" xlink:href="#m060c602494" y="126.534906"/>
     <use style="fill:#0000ff;stroke:#0000ff;" x="458.184025" xlink:href="#m060c602494" y="126.534906"/>
    </g>
   </g>
   <g id="line2d_30">
    <path clip-path="url(#p4dcdb1da26)" d="M 54.529091 42.317705 
L 65.955247 42.317705 
L 65.955247 49.258683 
L 74.195929 49.258683 
L 74.195929 56.199661 
L 75.442419 56.199661 
L 75.442419 63.140639 
L 75.580918 63.140639 
L 75.580918 70.081617 
L 88.045816 70.081617 
L 88.045816 77.022595 
L 100.233715 77.022595 
L 100.233715 83.963573 
L 106.812411 83.963573 
L 106.812411 90.904552 
L 114.152851 90.904552 
L 114.152851 97.84553 
L 122.462783 97.84553 
L 122.462783 104.786508 
L 151.201297 104.786508 
L 151.201297 111.727486 
L 168.305906 111.727486 
L 168.305906 118.668464 
L 182.709788 118.668464 
L 182.709788 118.668464 
L 184.579523 118.668464 
L 184.579523 118.668464 
L 193.651198 118.668464 
L 193.651198 118.668464 
L 208.678325 118.668464 
L 208.678325 118.668464 
L 218.026998 118.668464 
L 218.026998 126.534906 
L 218.373245 126.534906 
L 218.373245 126.534906 
L 224.259447 126.534906 
L 224.259447 126.534906 
L 226.26768 126.534906 
L 226.26768 126.534906 
L 235.685603 126.534906 
L 235.685603 126.534906 
L 245.519022 126.534906 
L 245.519022 126.534906 
L 253.759704 126.534906 
L 253.759704 126.534906 
L 263.177627 126.534906 
L 263.177627 126.534906 
L 280.420735 126.534906 
L 280.420735 126.534906 
L 280.697733 126.534906 
L 280.697733 126.534906 
L 284.160205 126.534906 
L 284.160205 126.534906 
L 289.838658 126.534906 
L 289.838658 126.534906 
L 316.638188 126.534906 
L 316.638188 126.534906 
L 322.039643 126.534906 
L 322.039643 126.534906 
L 330.765072 126.534906 
L 330.765072 126.534906 
L 333.812047 126.534906 
L 333.812047 126.534906 
L 338.31326 126.534906 
L 338.31326 126.534906 
L 344.060963 126.534906 
L 344.060963 126.534906 
L 370.652744 126.534906 
L 370.652744 126.534906 
L 380.693912 126.534906 
L 380.693912 126.534906 
L 383.256141 126.534906 
L 383.256141 126.534906 
L 389.904086 126.534906 
L 389.904086 126.534906 
L 393.505056 126.534906 
L 393.505056 126.534906 
L 398.491015 126.534906 
L 398.491015 126.534906 
L 408.393684 126.534906 
L 408.393684 126.534906 
L 425.221296 126.534906 
L 425.221296 126.534906 
L 441.356413 126.534906 
L 441.356413 126.534906 
L 455.483297 126.534906 
L 455.483297 126.534906 
L 458.184025 126.534906 
L 458.184025 126.534906 
" style="fill:none;stroke:#0000ff;stroke-linecap:square;stroke-width:1.5;"/>
   </g>
   <g id="line2d_31">
    <defs>
     <path d="M -3 3 
L 3 -3 
M -3 -3 
L 3 3 
" id="m77b4742aa2" style="stroke:#808080;"/>
    </defs>
    <g clip-path="url(#p4dcdb1da26)">
     <use style="fill:#808080;stroke:#808080;" x="59.861297" xlink:href="#m77b4742aa2" y="77.610814"/>
     <use style="fill:#808080;stroke:#808080;" x="187.3495" xlink:href="#m77b4742aa2" y="267.63932"/>
     <use style="fill:#808080;stroke:#808080;" x="187.834246" xlink:href="#m77b4742aa2" y="269.452287"/>
     <use style="fill:#808080;stroke:#808080;" x="189.703981" xlink:href="#m77b4742aa2" y="269.452287"/>
     <use style="fill:#808080;stroke:#808080;" x="191.850713" xlink:href="#m77b4742aa2" y="269.452287"/>
     <use style="fill:#808080;stroke:#808080;" x="198.983404" xlink:href="#m77b4742aa2" y="271.388865"/>
     <use style="fill:#808080;stroke:#808080;" x="206.254595" xlink:href="#m77b4742aa2" y="273.371552"/>
     <use style="fill:#808080;stroke:#808080;" x="208.262828" xlink:href="#m77b4742aa2" y="275.403806"/>
     <use style="fill:#808080;stroke:#808080;" x="227.444921" xlink:href="#m77b4742aa2" y="281.66101"/>
     <use style="fill:#808080;stroke:#808080;" x="232.153882" xlink:href="#m77b4742aa2" y="281.66101"/>
     <use style="fill:#808080;stroke:#808080;" x="237.901585" xlink:href="#m77b4742aa2" y="281.66101"/>
     <use style="fill:#808080;stroke:#808080;" x="241.156308" xlink:href="#m77b4742aa2" y="281.66101"/>
     <use style="fill:#808080;stroke:#808080;" x="248.704496" xlink:href="#m77b4742aa2" y="281.66101"/>
     <use style="fill:#808080;stroke:#808080;" x="252.859462" xlink:href="#m77b4742aa2" y="284.094367"/>
     <use style="fill:#808080;stroke:#808080;" x="261.377142" xlink:href="#m77b4742aa2" y="286.61463"/>
     <use style="fill:#808080;stroke:#808080;" x="269.133078" xlink:href="#m77b4742aa2" y="289.231826"/>
     <use style="fill:#808080;stroke:#808080;" x="270.10257" xlink:href="#m77b4742aa2" y="289.231826"/>
     <use style="fill:#808080;stroke:#808080;" x="295.586361" xlink:href="#m77b4742aa2" y="289.231826"/>
     <use style="fill:#808080;stroke:#808080;" x="302.234306" xlink:href="#m77b4742aa2" y="289.231826"/>
     <use style="fill:#808080;stroke:#808080;" x="322.385891" xlink:href="#m77b4742aa2" y="289.231826"/>
     <use style="fill:#808080;stroke:#808080;" x="330.626573" xlink:href="#m77b4742aa2" y="289.231826"/>
     <use style="fill:#808080;stroke:#808080;" x="333.535049" xlink:href="#m77b4742aa2" y="289.231826"/>
     <use style="fill:#808080;stroke:#808080;" x="333.673548" xlink:href="#m77b4742aa2" y="289.231826"/>
     <use style="fill:#808080;stroke:#808080;" x="333.881296" xlink:href="#m77b4742aa2" y="289.231826"/>
     <use style="fill:#808080;stroke:#808080;" x="356.52586" xlink:href="#m77b4742aa2" y="289.231826"/>
     <use style="fill:#808080;stroke:#808080;" x="357.910849" xlink:href="#m77b4742aa2" y="289.231826"/>
     <use style="fill:#808080;stroke:#808080;" x="359.503586" xlink:href="#m77b4742aa2" y="289.231826"/>
     <use style="fill:#808080;stroke:#808080;" x="374.738461" xlink:href="#m77b4742aa2" y="289.231826"/>
     <use style="fill:#808080;stroke:#808080;" x="376.746694" xlink:href="#m77b4742aa2" y="289.231826"/>
     <use style="fill:#808080;stroke:#808080;" x="388.726846" xlink:href="#m77b4742aa2" y="295.774815"/>
     <use style="fill:#808080;stroke:#808080;" x="391.566072" xlink:href="#m77b4742aa2" y="295.774815"/>
     <use style="fill:#808080;stroke:#808080;" x="392.604814" xlink:href="#m77b4742aa2" y="295.774815"/>
     <use style="fill:#808080;stroke:#808080;" x="432.907983" xlink:href="#m77b4742aa2" y="295.774815"/>
     <use style="fill:#808080;stroke:#808080;" x="445.926876" xlink:href="#m77b4742aa2" y="295.774815"/>
     <use style="fill:#808080;stroke:#808080;" x="459.499764" xlink:href="#m77b4742aa2" y="295.774815"/>
     <use style="fill:#808080;stroke:#808080;" x="463.931728" xlink:href="#m77b4742aa2" y="295.774815"/>
     <use style="fill:#808080;stroke:#808080;" x="464.347225" xlink:href="#m77b4742aa2" y="295.774815"/>
     <use style="fill:#808080;stroke:#808080;" x="472.310909" xlink:href="#m77b4742aa2" y="295.774815"/>
    </g>
   </g>
   <g id="line2d_32">
    <path clip-path="url(#p4dcdb1da26)" d="M 54.529091 42.317705 
L 55.083086 42.317705 
L 55.152336 45.847015 
L 55.360084 45.847015 
L 55.429334 52.905637 
L 55.983329 52.905637 
L 56.052578 56.434948 
L 56.191077 56.434948 
L 56.191077 58.199604 
L 56.398826 58.199604 
L 56.398826 61.728915 
L 56.537324 61.728915 
L 56.537324 63.49357 
L 56.883572 63.49357 
L 56.883572 65.258226 
L 57.02207 65.258226 
L 57.09132 68.787536 
L 59.307302 68.787536 
L 59.307302 70.552192 
L 59.51505 70.552192 
L 59.584299 74.081503 
L 59.722798 74.081503 
L 59.722798 77.610814 
L 60.138295 77.610814 
L 60.138295 79.386781 
L 60.553791 79.386781 
L 60.553791 81.162748 
L 61.592533 81.162748 
L 61.592533 82.938716 
L 61.731032 82.938716 
L 61.731032 84.714683 
L 62.008029 84.714683 
L 62.008029 86.49065 
L 62.146528 86.49065 
L 62.215778 90.042585 
L 63.877764 90.042585 
L 63.877764 91.818553 
L 64.016263 91.818553 
L 64.016263 93.59452 
L 64.570258 93.59452 
L 64.570258 95.370487 
L 64.778007 95.370487 
L 64.778007 97.146455 
L 64.916506 97.146455 
L 64.916506 98.922422 
L 65.470501 98.922422 
L 65.470501 100.698389 
L 66.093746 100.698389 
L 66.093746 102.474357 
L 66.716991 102.474357 
L 66.716991 104.250324 
L 68.309728 104.250324 
L 68.309728 107.802259 
L 68.863723 107.802259 
L 68.932973 114.906128 
L 69.071471 114.906128 
L 69.071471 116.682095 
L 69.27922 116.682095 
L 69.27922 120.23403 
L 69.763966 120.23403 
L 69.763966 122.009998 
L 70.733458 122.009998 
L 70.733458 123.785965 
L 70.871957 123.785965 
L 70.941206 127.3379 
L 71.010456 127.3379 
L 71.010456 130.889834 
L 71.218204 130.889834 
L 71.218204 132.665802 
L 71.356703 132.665802 
L 71.356703 134.441769 
L 71.772199 134.441769 
L 71.772199 136.217736 
L 71.910698 136.217736 
L 71.979948 139.769671 
L 72.049197 139.769671 
L 72.049197 141.545638 
L 72.187696 141.545638 
L 72.187696 143.321606 
L 72.810941 143.321606 
L 72.810941 145.097573 
L 73.572684 145.097573 
L 73.572684 146.87354 
L 74.680675 146.87354 
L 74.680675 148.649508 
L 75.026923 148.649508 
L 75.096172 152.201443 
L 75.30392 152.201443 
L 75.30392 155.753377 
L 75.442419 155.753377 
L 75.442419 157.529345 
L 75.996415 157.529345 
L 75.996415 162.857247 
L 76.55041 162.857247 
L 76.55041 168.185149 
L 76.758158 168.185149 
L 76.827408 171.737083 
L 77.242904 171.737083 
L 77.242904 173.513051 
L 77.935399 173.513051 
L 77.935399 175.289018 
L 78.143147 175.289018 
L 78.143147 177.064985 
L 79.251138 177.064985 
L 79.320387 180.61692 
L 79.528136 180.61692 
L 79.528136 182.392888 
L 79.735884 182.392888 
L 79.735884 184.168855 
L 80.082131 184.168855 
L 80.082131 185.944822 
L 80.22063 185.944822 
L 80.22063 187.72079 
L 81.813367 187.72079 
L 81.813367 189.496757 
L 82.021115 189.496757 
L 82.090365 193.048692 
L 82.228863 193.048692 
L 82.228863 194.824659 
L 82.436612 194.824659 
L 82.436612 196.600626 
L 84.514095 196.600626 
L 84.514095 198.376594 
L 85.137339 198.376594 
L 85.206589 201.928528 
L 85.414337 201.928528 
L 85.414337 203.704496 
L 85.552836 203.704496 
L 85.552836 205.480463 
L 86.31458 205.480463 
L 86.31458 207.25643 
L 88.045816 207.25643 
L 88.045816 209.032398 
L 88.322813 209.032398 
L 88.392063 212.584333 
L 88.599811 212.584333 
L 88.66906 216.136267 
L 89.084557 216.136267 
L 89.084557 217.912235 
L 89.777051 217.912235 
L 89.777051 219.688202 
L 90.469546 219.688202 
L 90.469546 221.464169 
L 91.508287 221.464169 
L 91.508287 223.240137 
L 95.524754 223.240137 
L 95.524754 225.016104 
L 96.217248 225.016104 
L 96.217248 226.792071 
L 98.779477 226.792071 
L 98.779477 228.568039 
L 99.194974 228.568039 
L 99.194974 230.344006 
L 101.618704 230.344006 
L 101.687954 233.895941 
L 101.826452 233.895941 
L 101.826452 235.671908 
L 103.488439 235.671908 
L 103.488439 237.447875 
L 104.52718 237.447875 
L 104.52718 239.223843 
L 108.128151 239.223843 
L 108.128151 240.99981 
L 111.86762 240.99981 
L 111.86762 242.775777 
L 112.629364 242.775777 
L 112.629364 244.551745 
L 112.767863 244.551745 
L 112.767863 246.327712 
L 118.654064 246.327712 
L 118.654064 248.10368 
L 121.008545 248.10368 
L 121.008545 249.879647 
L 129.803223 249.879647 
L 129.803223 251.655614 
L 130.772715 251.655614 
L 130.772715 253.431582 
L 131.118962 253.431582 
L 131.118962 255.207549 
L 137.351411 255.207549 
L 137.351411 256.983516 
L 138.5979 256.983516 
L 138.5979 258.759484 
L 150.231805 258.759484 
L 150.231805 260.535451 
L 162.9737 260.535451 
L 162.9737 262.311418 
L 165.743677 262.311418 
L 165.743677 264.087386 
L 179.108818 264.087386 
L 179.108818 265.863353 
L 181.463298 265.863353 
L 181.463298 267.63932 
L 187.557248 267.63932 
L 187.557248 269.452287 
L 198.221661 269.452287 
L 198.221661 271.388865 
L 204.800357 271.388865 
L 204.800357 273.371552 
L 207.362585 273.371552 
L 207.362585 275.403806 
L 209.509318 275.403806 
L 209.509318 277.489541 
L 215.257021 277.489541 
L 215.257021 279.575276 
L 218.165497 279.575276 
L 218.165497 281.66101 
L 249.46624 281.66101 
L 249.46624 284.094367 
L 258.122419 284.094367 
L 258.122419 286.61463 
L 265.878355 286.61463 
L 265.878355 289.231826 
L 377.716186 289.231826 
L 377.716186 295.774815 
L 472.310909 295.774815 
L 472.310909 295.774815 
" style="fill:none;stroke:#808080;stroke-linecap:square;stroke-width:1.5;"/>
   </g>
   <g id="patch_3">
    <path d="M 33.64 366.5095 
L 33.64 26.88 
" style="fill:none;stroke:#000000;stroke-linecap:square;stroke-linejoin:miter;stroke-width:0.8;"/>
   </g>
   <g id="patch_4">
    <path d="M 493.2 366.5095 
L 493.2 26.88 
" style="fill:none;stroke:#000000;stroke-linecap:square;stroke-linejoin:miter;stroke-width:0.8;"/>
   </g>
   <g id="patch_5">
    <path d="M 33.64 366.5095 
L 493.2 366.5095 
" style="fill:none;stroke:#000000;stroke-linecap:square;stroke-linejoin:miter;stroke-width:0.8;"/>
   </g>
   <g id="patch_6">
    <path d="M 33.64 26.88 
L 493.2 26.88 
" style="fill:none;stroke:#000000;stroke-linecap:square;stroke-linejoin:miter;stroke-width:0.8;"/>
   </g>
   <g id="text_15">
    <text style="font-family:DejaVu Sans;font-size:12px;font-stretch:normal;font-style:normal;font-weight:normal;text-anchor:middle;" transform="rotate(-0, 263.42, 20.88)" x="263.42" y="20.88">Survival curves - model_type: ridge_cph_lifelines</text>
   </g>
   <g id="legend_1">
    <g id="patch_7">
     <path d="M 349.195312 78.914375 
L 486.2 78.914375 
Q 488.2 78.914375 488.2 76.914375 
L 488.2 33.88 
Q 488.2 31.88 486.2 31.88 
L 349.195312 31.88 
Q 347.195312 31.88 347.195312 33.88 
L 347.195312 76.914375 
Q 347.195312 78.914375 349.195312 78.914375 
z
" style="fill:#ffffff;opacity:0.8;stroke:#cccccc;stroke-linejoin:miter;"/>
    </g>
    <g id="line2d_33">
     <path d="M 351.195312 39.978437 
L 371.195312 39.978437 
" style="fill:none;stroke:#ff0000;stroke-linecap:square;stroke-width:1.5;"/>
    </g>
    <g id="line2d_34"/>
    <g id="text_16">
     <text style="font-family:DejaVu Sans;font-size:10px;font-stretch:normal;font-style:normal;font-weight:normal;text-anchor:start;" transform="rotate(-0, 379.195312, 43.478437)" x="379.195312" y="43.478437">adv. risk (n:78 c:5 )</text>
    </g>
    <g id="line2d_35">
     <path d="M 351.195312 54.656563 
L 371.195312 54.656563 
" style="fill:none;stroke:#0000ff;stroke-linecap:square;stroke-width:1.5;"/>
    </g>
    <g id="line2d_36"/>
    <g id="text_17">
     <text style="font-family:DejaVu Sans;font-size:10px;font-stretch:normal;font-style:normal;font-weight:normal;text-anchor:start;" transform="rotate(-0, 379.195312, 58.156563)" x="379.195312" y="58.156563">fav. risk (n:45 c:33)</text>
    </g>
    <g id="line2d_37">
     <path d="M 351.195312 69.334687 
L 371.195312 69.334687 
" style="fill:none;stroke:#808080;stroke-linecap:square;stroke-width:1.5;"/>
    </g>
    <g id="line2d_38"/>
    <g id="text_18">
     <text style="font-family:DejaVu Sans;font-size:10px;font-stretch:normal;font-style:normal;font-weight:normal;text-anchor:start;" transform="rotate(-0, 379.195312, 72.834687)" x="379.195312" y="72.834687">int. risk (n:177 c:39 )</text>
    </g>
   </g>
  </g>
 </g>
 <defs>
  <clipPath id="p4dcdb1da26">
   <rect height="339.6295" width="459.56" x="33.64" y="26.88"/>
  </clipPath>
 </defs>
</svg>
