<?xml version="1.0" encoding="utf-8" standalone="no"?>
<!DOCTYPE svg PUBLIC "-//W3C//DTD SVG 1.1//EN"
  "http://www.w3.org/Graphics/SVG/1.1/DTD/svg11.dtd">
<!-- Created with matplotlib (https://matplotlib.org/) -->
<svg height="432pt" version="1.1" viewBox="0 0 504 432" width="504pt" xmlns="http://www.w3.org/2000/svg" xmlns:xlink="http://www.w3.org/1999/xlink">
 <metadata>
  <rdf:RDF xmlns:cc="http://creativecommons.org/ns#" xmlns:dc="http://purl.org/dc/elements/1.1/" xmlns:rdf="http://www.w3.org/1999/02/22-rdf-syntax-ns#">
   <cc:Work>
    <dc:type rdf:resource="http://purl.org/dc/dcmitype/StillImage"/>
    <dc:date>2022-11-28T13:20:16.759902</dc:date>
    <dc:format>image/svg+xml</dc:format>
    <dc:creator>
     <cc:Agent>
      <dc:title>Matplotlib v3.3.4, https://matplotlib.org/</dc:title>
     </cc:Agent>
    </dc:creator>
   </cc:Work>
  </rdf:RDF>
 </metadata>
 <defs>
  <style type="text/css">*{stroke-linecap:butt;stroke-linejoin:round;}</style>
 </defs>
 <g id="figure_1">
  <g id="patch_1">
   <path d="M 0 432 
L 504 432 
L 504 0 
L 0 0 
z
" style="fill:#ffffff;"/>
  </g>
  <g id="axes_1">
   <g id="patch_2">
    <path d="M 33.64 366.5095 
L 481.102663 366.5095 
L 481.102663 26.88 
L 33.64 26.88 
z
" style="fill:#ffffff;"/>
   </g>
   <g id="PolyCollection_1">
    <defs>
     <path d="M 53.979212 -380.188813 
L 53.979212 -309.381821 
L 57.960323 -309.381821 
L 57.960323 -309.381821 
L 58.244688 -309.381821 
L 58.244688 -296.684775 
L 58.386871 -296.684775 
L 58.386871 -284.534754 
L 62.652347 -284.534754 
L 62.652347 -272.823396 
L 66.77564 -272.823396 
L 66.77564 -272.823396 
L 71.467664 -272.823396 
L 71.467664 -260.728844 
L 75.306593 -260.728844 
L 75.306593 -249.074108 
L 75.73314 -249.074108 
L 75.73314 -237.792005 
L 79.998616 -237.792005 
L 79.998616 -226.838687 
L 80.140799 -226.838687 
L 80.140799 -216.184219 
L 84.12191 -216.184219 
L 84.12191 -185.836577 
L 84.406275 -185.836577 
L 84.406275 -166.864334 
L 84.548457 -166.864334 
L 84.548457 -157.750074 
L 88.387386 -157.750074 
L 88.387386 -148.888911 
L 88.529568 -148.888911 
L 88.529568 -140.289142 
L 92.795045 -140.289142 
L 92.795045 -130.811834 
L 97.202703 -130.811834 
L 97.202703 -121.785176 
L 106.018021 -121.785176 
L 106.018021 -113.232759 
L 123.222108 -113.232759 
L 123.222108 -113.232759 
L 127.629766 -113.232759 
L 127.629766 -103.339755 
L 136.018536 -103.339755 
L 136.018536 -94.541692 
L 140.426195 -94.541692 
L 140.426195 -86.978398 
L 184.076233 -86.978398 
L 184.076233 -80.928205 
L 274.504327 -80.928205 
L 274.504327 -80.928205 
L 291.850597 -80.928205 
L 291.850597 -80.928205 
L 291.850597 -150.116712 
L 291.850597 -150.116712 
L 291.850597 -150.116712 
L 274.504327 -150.116712 
L 274.504327 -150.116712 
L 184.076233 -150.116712 
L 184.076233 -166.595569 
L 140.426195 -166.595569 
L 140.426195 -181.95082 
L 136.018536 -181.95082 
L 136.018536 -196.390338 
L 127.629766 -196.390338 
L 127.629766 -210.044495 
L 123.222108 -210.044495 
L 123.222108 -210.044495 
L 106.018021 -210.044495 
L 106.018021 -222.131715 
L 97.202703 -222.131715 
L 97.202703 -233.841899 
L 92.795045 -233.841899 
L 92.795045 -245.201392 
L 88.529568 -245.201392 
L 88.529568 -255.613193 
L 88.387386 -255.613193 
L 88.387386 -265.788372 
L 84.548457 -265.788372 
L 84.548457 -275.733312 
L 84.406275 -275.733312 
L 84.406275 -294.943052 
L 84.12191 -294.943052 
L 84.12191 -322.022715 
L 80.140799 -322.022715 
L 80.140799 -330.555666 
L 79.998616 -330.555666 
L 79.998616 -338.817476 
L 75.73314 -338.817476 
L 75.73314 -346.785152 
L 75.306593 -346.785152 
L 75.306593 -354.427307 
L 71.467664 -354.427307 
L 71.467664 -361.700403 
L 66.77564 -361.700403 
L 66.77564 -361.700403 
L 62.652347 -361.700403 
L 62.652347 -368.378674 
L 58.386871 -368.378674 
L 58.386871 -374.58434 
L 58.244688 -374.58434 
L 58.244688 -380.188813 
L 57.960323 -380.188813 
L 57.960323 -380.188813 
L 53.979212 -380.188813 
z
" id="m29b6e8b25e" style="stroke:#ff0000;stroke-opacity:0.25;"/>
    </defs>
    <g clip-path="url(#p11f61ac210)">
     <use style="fill:#ff0000;fill-opacity:0.25;stroke:#ff0000;stroke-opacity:0.25;" x="0" xlink:href="#m29b6e8b25e" y="432"/>
    </g>
   </g>
   <g id="PolyCollection_2">
    <defs>
     <path d="M 53.979212 -389.682295 
L 53.979212 -389.682295 
L 57.960323 -389.682295 
L 57.960323 -322.568334 
L 58.386871 -322.568334 
L 58.386871 -302.209576 
L 62.652347 -302.209576 
L 62.652347 -302.209576 
L 75.306593 -302.209576 
L 75.306593 -302.209576 
L 80.140799 -302.209576 
L 80.140799 -288.257994 
L 84.548457 -288.257994 
L 84.548457 -274.983317 
L 88.529568 -274.983317 
L 88.529568 -274.983317 
L 109.856949 -274.983317 
L 109.856949 -274.983317 
L 110.283497 -274.983317 
L 110.283497 -274.983317 
L 118.956631 -274.983317 
L 118.956631 -274.983317 
L 123.506473 -274.983317 
L 123.506473 -257.568701 
L 144.691671 -257.568701 
L 144.691671 -257.568701 
L 153.364805 -257.568701 
L 153.364805 -257.568701 
L 170.853258 -257.568701 
L 170.853258 -238.357377 
L 175.403099 -238.357377 
L 175.403099 -220.915003 
L 188.34171 -220.915003 
L 188.34171 -204.726096 
L 218.484407 -204.726096 
L 218.484407 -204.726096 
L 227.299725 -204.726096 
L 227.299725 -204.726096 
L 253.176947 -204.726096 
L 253.176947 -185.257783 
L 253.319129 -185.257783 
L 253.319129 -167.583486 
L 257.30024 -167.583486 
L 257.30024 -167.583486 
L 278.769803 -167.583486 
L 278.769803 -167.583486 
L 296.54262 -167.583486 
L 296.54262 -138.794521 
L 300.665914 -138.794521 
L 300.665914 -138.794521 
L 309.623414 -138.794521 
L 309.623414 -138.794521 
L 313.604525 -138.794521 
L 313.604525 -138.794521 
L 321.993295 -138.794521 
L 321.993295 -138.794521 
L 322.27766 -138.794521 
L 322.27766 -138.794521 
L 322.27766 -279.61801 
L 322.27766 -279.61801 
L 322.27766 -279.61801 
L 321.993295 -279.61801 
L 321.993295 -279.61801 
L 313.604525 -279.61801 
L 313.604525 -279.61801 
L 309.623414 -279.61801 
L 309.623414 -279.61801 
L 300.665914 -279.61801 
L 300.665914 -279.61801 
L 296.54262 -279.61801 
L 296.54262 -298.253626 
L 278.769803 -298.253626 
L 278.769803 -298.253626 
L 257.30024 -298.253626 
L 257.30024 -298.253626 
L 253.319129 -298.253626 
L 253.319129 -312.469081 
L 253.176947 -312.469081 
L 253.176947 -325.750665 
L 227.299725 -325.750665 
L 227.299725 -325.750665 
L 218.484407 -325.750665 
L 218.484407 -325.750665 
L 188.34171 -325.750665 
L 188.34171 -337.095902 
L 175.403099 -337.095902 
L 175.403099 -347.749882 
L 170.853258 -347.749882 
L 170.853258 -357.604245 
L 153.364805 -357.604245 
L 153.364805 -357.604245 
L 144.691671 -357.604245 
L 144.691671 -357.604245 
L 123.506473 -357.604245 
L 123.506473 -366.058255 
L 118.956631 -366.058255 
L 118.956631 -366.058255 
L 110.283497 -366.058255 
L 110.283497 -366.058255 
L 109.856949 -366.058255 
L 109.856949 -366.058255 
L 88.529568 -366.058255 
L 88.529568 -366.058255 
L 84.548457 -366.058255 
L 84.548457 -372.974505 
L 80.140799 -372.974505 
L 80.140799 -379.205614 
L 75.306593 -379.205614 
L 75.306593 -379.205614 
L 62.652347 -379.205614 
L 62.652347 -379.205614 
L 58.386871 -379.205614 
L 58.386871 -388.187748 
L 57.960323 -388.187748 
L 57.960323 -389.682295 
L 53.979212 -389.682295 
z
" id="maa51d2d6a7" style="stroke:#0000ff;stroke-opacity:0.25;"/>
    </defs>
    <g clip-path="url(#p11f61ac210)">
     <use style="fill:#0000ff;fill-opacity:0.25;stroke:#0000ff;stroke-opacity:0.25;" x="0" xlink:href="#maa51d2d6a7" y="432"/>
    </g>
   </g>
   <g id="PolyCollection_3">
    <defs>
     <path d="M 53.979212 -380.679928 
L 53.979212 -341.13517 
L 58.386871 -341.13517 
L 58.386871 -330.634898 
L 62.367982 -330.634898 
L 62.367982 -330.634898 
L 62.652347 -330.634898 
L 62.652347 -325.260078 
L 66.633458 -325.260078 
L 66.633458 -319.980746 
L 66.77564 -319.980746 
L 66.77564 -314.784918 
L 71.325481 -314.784918 
L 71.325481 -304.608423 
L 75.73314 -304.608423 
L 75.73314 -299.614322 
L 79.714251 -299.614322 
L 79.714251 -294.558896 
L 80.140799 -294.558896 
L 80.140799 -289.439399 
L 84.12191 -289.439399 
L 84.12191 -289.439399 
L 88.529568 -289.439399 
L 88.529568 -284.252273 
L 88.813934 -284.252273 
L 88.813934 -279.126001 
L 92.795045 -279.126001 
L 92.795045 -279.126001 
L 92.937227 -279.126001 
L 92.937227 -273.923069 
L 97.060521 -273.923069 
L 97.060521 -268.778363 
L 97.202703 -268.778363 
L 97.202703 -258.648362 
L 97.344886 -258.648362 
L 97.344886 -253.515003 
L 97.487068 -253.515003 
L 97.487068 -248.432834 
L 101.468179 -248.432834 
L 101.468179 -248.432834 
L 101.610362 -248.432834 
L 101.610362 -237.797936 
L 105.875838 -237.797936 
L 105.875838 -227.38622 
L 106.018021 -227.38622 
L 106.018021 -222.258094 
L 109.856949 -222.258094 
L 109.856949 -222.258094 
L 118.672266 -222.258094 
L 118.672266 -222.258094 
L 123.079925 -222.258094 
L 123.079925 -216.803794 
L 123.506473 -216.803794 
L 123.506473 -211.41184 
L 136.018536 -211.41184 
L 136.018536 -200.806543 
L 136.445084 -200.806543 
L 136.445084 -195.589947 
L 140.568377 -195.589947 
L 140.568377 -190.429103 
L 145.118218 -190.429103 
L 145.118218 -190.429103 
L 149.383694 -190.429103 
L 149.383694 -185.089519 
L 153.364805 -185.089519 
L 153.364805 -185.089519 
L 157.772464 -185.089519 
L 157.772464 -185.089519 
L 157.914647 -185.089519 
L 157.914647 -172.918633 
L 166.587781 -172.918633 
L 166.587781 -161.159785 
L 167.725242 -161.159785 
L 167.725242 -155.038129 
L 170.853258 -155.038129 
L 170.853258 -143.166833 
L 179.38421 -143.166833 
L 179.38421 -143.166833 
L 188.057345 -143.166833 
L 188.057345 -143.166833 
L 192.322821 -143.166833 
L 192.322821 -136.324137 
L 222.607701 -136.324137 
L 222.607701 -136.324137 
L 226.873177 -136.324137 
L 226.873177 -136.324137 
L 231.565201 -136.324137 
L 231.565201 -136.324137 
L 257.442423 -136.324137 
L 257.442423 -125.532971 
L 278.769803 -125.532971 
L 278.769803 -125.532971 
L 287.442938 -125.532971 
L 287.442938 -113.737501 
L 369.624444 -113.737501 
L 369.624444 -113.737501 
L 373.036825 -113.737501 
L 373.036825 -113.737501 
L 373.32119 -113.737501 
L 373.32119 -113.737501 
L 378.724127 -113.737501 
L 378.724127 -113.737501 
L 408.866825 -113.737501 
L 408.866825 -113.737501 
L 460.763451 -113.737501 
L 460.763451 -113.737501 
L 460.763451 -192.617835 
L 460.763451 -192.617835 
L 460.763451 -192.617835 
L 408.866825 -192.617835 
L 408.866825 -192.617835 
L 378.724127 -192.617835 
L 378.724127 -192.617835 
L 373.32119 -192.617835 
L 373.32119 -192.617835 
L 373.036825 -192.617835 
L 373.036825 -192.617835 
L 369.624444 -192.617835 
L 369.624444 -192.617835 
L 287.442938 -192.617835 
L 287.442938 -202.750429 
L 278.769803 -202.750429 
L 278.769803 -202.750429 
L 257.442423 -202.750429 
L 257.442423 -211.692705 
L 231.565201 -211.692705 
L 231.565201 -211.692705 
L 226.873177 -211.692705 
L 226.873177 -211.692705 
L 222.607701 -211.692705 
L 222.607701 -211.692705 
L 192.322821 -211.692705 
L 192.322821 -218.809812 
L 188.057345 -218.809812 
L 188.057345 -218.809812 
L 179.38421 -218.809812 
L 179.38421 -218.809812 
L 170.853258 -218.809812 
L 170.853258 -231.529549 
L 167.725242 -231.529549 
L 167.725242 -237.750072 
L 166.587781 -237.750072 
L 166.587781 -249.515334 
L 157.914647 -249.515334 
L 157.914647 -260.97736 
L 157.772464 -260.97736 
L 157.772464 -260.97736 
L 153.364805 -260.97736 
L 153.364805 -260.97736 
L 149.383694 -260.97736 
L 149.383694 -266.144803 
L 145.118218 -266.144803 
L 145.118218 -266.144803 
L 140.568377 -266.144803 
L 140.568377 -271.130649 
L 136.445084 -271.130649 
L 136.445084 -276.070872 
L 136.018536 -276.070872 
L 136.018536 -285.812785 
L 123.506473 -285.812785 
L 123.506473 -290.613205 
L 123.079925 -290.613205 
L 123.079925 -295.36544 
L 118.672266 -295.36544 
L 118.672266 -295.36544 
L 109.856949 -295.36544 
L 109.856949 -295.36544 
L 106.018021 -295.36544 
L 106.018021 -299.877842 
L 105.875838 -299.877842 
L 105.875838 -308.775405 
L 101.610362 -308.775405 
L 101.610362 -317.494975 
L 101.468179 -317.494975 
L 101.468179 -317.494975 
L 97.487068 -317.494975 
L 97.487068 -321.637404 
L 97.344886 -321.637404 
L 97.344886 -325.736991 
L 97.202703 -325.736991 
L 97.202703 -333.672838 
L 97.060521 -333.672838 
L 97.060521 -337.572889 
L 92.937227 -337.572889 
L 92.937227 -341.424387 
L 92.795045 -341.424387 
L 92.795045 -341.424387 
L 88.813934 -341.424387 
L 88.813934 -345.170032 
L 88.529568 -345.170032 
L 88.529568 -348.863763 
L 84.12191 -348.863763 
L 84.12191 -348.863763 
L 80.140799 -348.863763 
L 80.140799 -352.453005 
L 79.714251 -352.453005 
L 79.714251 -355.939522 
L 75.73314 -355.939522 
L 75.73314 -359.324307 
L 71.325481 -359.324307 
L 71.325481 -365.902819 
L 66.77564 -365.902819 
L 66.77564 -369.082188 
L 66.633458 -369.082188 
L 66.633458 -372.1756 
L 62.652347 -372.1756 
L 62.652347 -375.170033 
L 62.367982 -375.170033 
L 62.367982 -375.170033 
L 58.386871 -375.170033 
L 58.386871 -380.679928 
L 53.979212 -380.679928 
z
" id="m5955e484e1" style="stroke:#808080;stroke-opacity:0.25;"/>
    </defs>
    <g clip-path="url(#p11f61ac210)">
     <use style="fill:#808080;fill-opacity:0.25;stroke:#808080;stroke-opacity:0.25;" x="0" xlink:href="#m5955e484e1" y="432"/>
    </g>
   </g>
   <g id="matplotlib.axis_1">
    <g id="xtick_1">
     <g id="line2d_1">
      <path clip-path="url(#p11f61ac210)" d="M 53.979212 366.5095 
L 53.979212 26.88 
" style="fill:none;stroke:#b0b0b0;stroke-dasharray:2.96,1.28;stroke-dashoffset:0;stroke-opacity:0.5;stroke-width:0.8;"/>
     </g>
     <g id="line2d_2">
      <defs>
       <path d="M 0 0 
L 0 3.5 
" id="m7b9fd33bcf" style="stroke:#000000;stroke-width:0.8;"/>
      </defs>
      <g>
       <use style="stroke:#000000;stroke-width:0.8;" x="53.979212" xlink:href="#m7b9fd33bcf" y="366.5095"/>
      </g>
     </g>
     <g id="text_1">
      <text style="font-family:DejaVu Sans;font-size:10px;font-stretch:normal;font-style:normal;font-weight:normal;text-anchor:middle;" transform="rotate(-0, 53.979212, 381.107937)" x="53.979212" y="381.107937">0</text>
     </g>
    </g>
    <g id="xtick_2">
     <g id="line2d_3">
      <path clip-path="url(#p11f61ac210)" d="M 125.070481 366.5095 
L 125.070481 26.88 
" style="fill:none;stroke:#b0b0b0;stroke-dasharray:2.96,1.28;stroke-dashoffset:0;stroke-opacity:0.5;stroke-width:0.8;"/>
     </g>
     <g id="line2d_4">
      <g>
       <use style="stroke:#000000;stroke-width:0.8;" x="125.070481" xlink:href="#m7b9fd33bcf" y="366.5095"/>
      </g>
     </g>
     <g id="text_2">
      <text style="font-family:DejaVu Sans;font-size:10px;font-stretch:normal;font-style:normal;font-weight:normal;text-anchor:middle;" transform="rotate(-0, 125.070481, 381.107937)" x="125.070481" y="381.107937">500</text>
     </g>
    </g>
    <g id="xtick_3">
     <g id="line2d_5">
      <path clip-path="url(#p11f61ac210)" d="M 196.161749 366.5095 
L 196.161749 26.88 
" style="fill:none;stroke:#b0b0b0;stroke-dasharray:2.96,1.28;stroke-dashoffset:0;stroke-opacity:0.5;stroke-width:0.8;"/>
     </g>
     <g id="line2d_6">
      <g>
       <use style="stroke:#000000;stroke-width:0.8;" x="196.161749" xlink:href="#m7b9fd33bcf" y="366.5095"/>
      </g>
     </g>
     <g id="text_3">
      <text style="font-family:DejaVu Sans;font-size:10px;font-stretch:normal;font-style:normal;font-weight:normal;text-anchor:middle;" transform="rotate(-0, 196.161749, 381.107937)" x="196.161749" y="381.107937">1000</text>
     </g>
    </g>
    <g id="xtick_4">
     <g id="line2d_7">
      <path clip-path="url(#p11f61ac210)" d="M 267.253018 366.5095 
L 267.253018 26.88 
" style="fill:none;stroke:#b0b0b0;stroke-dasharray:2.96,1.28;stroke-dashoffset:0;stroke-opacity:0.5;stroke-width:0.8;"/>
     </g>
     <g id="line2d_8">
      <g>
       <use style="stroke:#000000;stroke-width:0.8;" x="267.253018" xlink:href="#m7b9fd33bcf" y="366.5095"/>
      </g>
     </g>
     <g id="text_4">
      <text style="font-family:DejaVu Sans;font-size:10px;font-stretch:normal;font-style:normal;font-weight:normal;text-anchor:middle;" transform="rotate(-0, 267.253018, 381.107937)" x="267.253018" y="381.107937">1500</text>
     </g>
    </g>
    <g id="xtick_5">
     <g id="line2d_9">
      <path clip-path="url(#p11f61ac210)" d="M 338.344286 366.5095 
L 338.344286 26.88 
" style="fill:none;stroke:#b0b0b0;stroke-dasharray:2.96,1.28;stroke-dashoffset:0;stroke-opacity:0.5;stroke-width:0.8;"/>
     </g>
     <g id="line2d_10">
      <g>
       <use style="stroke:#000000;stroke-width:0.8;" x="338.344286" xlink:href="#m7b9fd33bcf" y="366.5095"/>
      </g>
     </g>
     <g id="text_5">
      <text style="font-family:DejaVu Sans;font-size:10px;font-stretch:normal;font-style:normal;font-weight:normal;text-anchor:middle;" transform="rotate(-0, 338.344286, 381.107937)" x="338.344286" y="381.107937">2000</text>
     </g>
    </g>
    <g id="xtick_6">
     <g id="line2d_11">
      <path clip-path="url(#p11f61ac210)" d="M 409.435555 366.5095 
L 409.435555 26.88 
" style="fill:none;stroke:#b0b0b0;stroke-dasharray:2.96,1.28;stroke-dashoffset:0;stroke-opacity:0.5;stroke-width:0.8;"/>
     </g>
     <g id="line2d_12">
      <g>
       <use style="stroke:#000000;stroke-width:0.8;" x="409.435555" xlink:href="#m7b9fd33bcf" y="366.5095"/>
      </g>
     </g>
     <g id="text_6">
      <text style="font-family:DejaVu Sans;font-size:10px;font-stretch:normal;font-style:normal;font-weight:normal;text-anchor:middle;" transform="rotate(-0, 409.435555, 381.107937)" x="409.435555" y="381.107937">2500</text>
     </g>
    </g>
    <g id="xtick_7">
     <g id="line2d_13">
      <path clip-path="url(#p11f61ac210)" d="M 480.526823 366.5095 
L 480.526823 26.88 
" style="fill:none;stroke:#b0b0b0;stroke-dasharray:2.96,1.28;stroke-dashoffset:0;stroke-opacity:0.5;stroke-width:0.8;"/>
     </g>
     <g id="line2d_14">
      <g>
       <use style="stroke:#000000;stroke-width:0.8;" x="480.526823" xlink:href="#m7b9fd33bcf" y="366.5095"/>
      </g>
     </g>
     <g id="text_7">
      <text style="font-family:DejaVu Sans;font-size:10px;font-stretch:normal;font-style:normal;font-weight:normal;text-anchor:middle;" transform="rotate(-0, 480.526823, 381.107937)" x="480.526823" y="381.107937">3000</text>
     </g>
    </g>
    <g id="text_8">
     <text style="font-family:DejaVu Sans;font-size:10px;font-stretch:normal;font-style:normal;font-weight:normal;" transform="translate(235.462738 394.786063)">timeline </text>
     <text style="font-family:DejaVu Sans;font-size:10px;font-stretch:normal;font-style:normal;font-weight:normal;" transform="translate(136.7393 405.983875)">    dataset: tcga_target_aml_PCA, input_dim: 17 </text>
     <text style="font-family:DejaVu Sans;font-size:10px;font-stretch:normal;font-style:normal;font-weight:normal;" transform="translate(178.790081 417.459812)">    c_index: [0.673 0.616 0.727]</text>
    </g>
   </g>
   <g id="matplotlib.axis_2">
    <g id="ytick_1">
     <g id="line2d_15">
      <path clip-path="url(#p11f61ac210)" d="M 33.64 356.056917 
L 481.102663 356.056917 
" style="fill:none;stroke:#b0b0b0;stroke-dasharray:2.96,1.28;stroke-dashoffset:0;stroke-opacity:0.5;stroke-width:0.8;"/>
     </g>
     <g id="line2d_16">
      <defs>
       <path d="M 0 0 
L -3.5 0 
" id="m71ecd5101a" style="stroke:#000000;stroke-width:0.8;"/>
      </defs>
      <g>
       <use style="stroke:#000000;stroke-width:0.8;" x="33.64" xlink:href="#m71ecd5101a" y="356.056917"/>
      </g>
     </g>
     <g id="text_9">
      <text style="font-family:DejaVu Sans;font-size:10px;font-stretch:normal;font-style:normal;font-weight:normal;text-anchor:end;" transform="rotate(-0, 26.64, 359.856136)" x="26.64" y="359.856136">0.0</text>
     </g>
    </g>
    <g id="ytick_2">
     <g id="line2d_17">
      <path clip-path="url(#p11f61ac210)" d="M 33.64 293.309075 
L 481.102663 293.309075 
" style="fill:none;stroke:#b0b0b0;stroke-dasharray:2.96,1.28;stroke-dashoffset:0;stroke-opacity:0.5;stroke-width:0.8;"/>
     </g>
     <g id="line2d_18">
      <g>
       <use style="stroke:#000000;stroke-width:0.8;" x="33.64" xlink:href="#m71ecd5101a" y="293.309075"/>
      </g>
     </g>
     <g id="text_10">
      <text style="font-family:DejaVu Sans;font-size:10px;font-stretch:normal;font-style:normal;font-weight:normal;text-anchor:end;" transform="rotate(-0, 26.64, 297.108294)" x="26.64" y="297.108294">0.2</text>
     </g>
    </g>
    <g id="ytick_3">
     <g id="line2d_19">
      <path clip-path="url(#p11f61ac210)" d="M 33.64 230.561232 
L 481.102663 230.561232 
" style="fill:none;stroke:#b0b0b0;stroke-dasharray:2.96,1.28;stroke-dashoffset:0;stroke-opacity:0.5;stroke-width:0.8;"/>
     </g>
     <g id="line2d_20">
      <g>
       <use style="stroke:#000000;stroke-width:0.8;" x="33.64" xlink:href="#m71ecd5101a" y="230.561232"/>
      </g>
     </g>
     <g id="text_11">
      <text style="font-family:DejaVu Sans;font-size:10px;font-stretch:normal;font-style:normal;font-weight:normal;text-anchor:end;" transform="rotate(-0, 26.64, 234.360451)" x="26.64" y="234.360451">0.4</text>
     </g>
    </g>
    <g id="ytick_4">
     <g id="line2d_21">
      <path clip-path="url(#p11f61ac210)" d="M 33.64 167.81339 
L 481.102663 167.81339 
" style="fill:none;stroke:#b0b0b0;stroke-dasharray:2.96,1.28;stroke-dashoffset:0;stroke-opacity:0.5;stroke-width:0.8;"/>
     </g>
     <g id="line2d_22">
      <g>
       <use style="stroke:#000000;stroke-width:0.8;" x="33.64" xlink:href="#m71ecd5101a" y="167.81339"/>
      </g>
     </g>
     <g id="text_12">
      <text style="font-family:DejaVu Sans;font-size:10px;font-stretch:normal;font-style:normal;font-weight:normal;text-anchor:end;" transform="rotate(-0, 26.64, 171.612608)" x="26.64" y="171.612608">0.6</text>
     </g>
    </g>
    <g id="ytick_5">
     <g id="line2d_23">
      <path clip-path="url(#p11f61ac210)" d="M 33.64 105.065547 
L 481.102663 105.065547 
" style="fill:none;stroke:#b0b0b0;stroke-dasharray:2.96,1.28;stroke-dashoffset:0;stroke-opacity:0.5;stroke-width:0.8;"/>
     </g>
     <g id="line2d_24">
      <g>
       <use style="stroke:#000000;stroke-width:0.8;" x="33.64" xlink:href="#m71ecd5101a" y="105.065547"/>
      </g>
     </g>
     <g id="text_13">
      <text style="font-family:DejaVu Sans;font-size:10px;font-stretch:normal;font-style:normal;font-weight:normal;text-anchor:end;" transform="rotate(-0, 26.64, 108.864766)" x="26.64" y="108.864766">0.8</text>
     </g>
    </g>
    <g id="ytick_6">
     <g id="line2d_25">
      <path clip-path="url(#p11f61ac210)" d="M 33.64 42.317705 
L 481.102663 42.317705 
" style="fill:none;stroke:#b0b0b0;stroke-dasharray:2.96,1.28;stroke-dashoffset:0;stroke-opacity:0.5;stroke-width:0.8;"/>
     </g>
     <g id="line2d_26">
      <g>
       <use style="stroke:#000000;stroke-width:0.8;" x="33.64" xlink:href="#m71ecd5101a" y="42.317705"/>
      </g>
     </g>
     <g id="text_14">
      <text style="font-family:DejaVu Sans;font-size:10px;font-stretch:normal;font-style:normal;font-weight:normal;text-anchor:end;" transform="rotate(-0, 26.64, 46.116923)" x="26.64" y="46.116923">1.0</text>
     </g>
    </g>
   </g>
   <g id="line2d_27">
    <defs>
     <path d="M -3 3 
L 3 -3 
M -3 -3 
L 3 3 
" id="ma5128d615f" style="stroke:#ff0000;"/>
    </defs>
    <g clip-path="url(#p11f61ac210)">
     <use style="fill:#ff0000;stroke:#ff0000;" x="53.979212" xlink:href="#ma5128d615f" y="70.839451"/>
     <use style="fill:#ff0000;stroke:#ff0000;" x="57.960323" xlink:href="#ma5128d615f" y="70.839451"/>
     <use style="fill:#ff0000;stroke:#ff0000;" x="66.77564" xlink:href="#ma5128d615f" y="101.398465"/>
     <use style="fill:#ff0000;stroke:#ff0000;" x="88.529568" xlink:href="#ma5128d615f" y="239.33846"/>
     <use style="fill:#ff0000;stroke:#ff0000;" x="123.222108" xlink:href="#ma5128d615f" y="274.353997"/>
     <use style="fill:#ff0000;stroke:#ff0000;" x="274.504327" xlink:href="#ma5128d615f" y="328.822611"/>
     <use style="fill:#ff0000;stroke:#ff0000;" x="291.850597" xlink:href="#ma5128d615f" y="328.822611"/>
    </g>
   </g>
   <g id="line2d_28">
    <path clip-path="url(#p11f61ac210)" d="M 53.979212 70.839451 
L 57.960323 70.839451 
L 57.960323 70.839451 
L 58.244688 70.839451 
L 58.244688 81.025789 
L 58.386871 81.025789 
L 58.386871 91.212127 
L 62.652347 91.212127 
L 62.652347 101.398465 
L 66.77564 101.398465 
L 66.77564 101.398465 
L 71.467664 101.398465 
L 71.467664 112.009234 
L 75.306593 112.009234 
L 75.306593 122.620003 
L 75.73314 122.620003 
L 75.73314 133.230772 
L 79.998616 133.230772 
L 79.998616 143.841541 
L 80.140799 143.841541 
L 80.140799 154.45231 
L 84.12191 154.45231 
L 84.12191 186.284616 
L 84.406275 186.284616 
L 84.406275 207.506154 
L 84.548457 207.506154 
L 84.548457 218.116923 
L 88.387386 218.116923 
L 88.387386 228.727691 
L 88.529568 228.727691 
L 88.529568 239.33846 
L 92.795045 239.33846 
L 92.795045 251.010306 
L 97.202703 251.010306 
L 97.202703 262.682152 
L 106.018021 262.682152 
L 106.018021 274.353997 
L 123.222108 274.353997 
L 123.222108 274.353997 
L 127.629766 274.353997 
L 127.629766 287.971151 
L 136.018536 287.971151 
L 136.018536 301.588304 
L 140.426195 301.588304 
L 140.426195 315.205457 
L 184.076233 315.205457 
L 184.076233 328.822611 
L 274.504327 328.822611 
L 274.504327 328.822611 
L 291.850597 328.822611 
L 291.850597 328.822611 
" style="fill:none;stroke:#ff0000;stroke-linecap:square;stroke-width:1.5;"/>
   </g>
   <g id="line2d_29">
    <defs>
     <path d="M -3 3 
L 3 -3 
M -3 -3 
L 3 3 
" id="ma8a24d8c7c" style="stroke:#0000ff;"/>
    </defs>
    <g clip-path="url(#p11f61ac210)">
     <use style="fill:#0000ff;stroke:#0000ff;" x="62.652347" xlink:href="#ma8a24d8c7c" y="73.691626"/>
     <use style="fill:#0000ff;stroke:#0000ff;" x="75.306593" xlink:href="#ma8a24d8c7c" y="73.691626"/>
     <use style="fill:#0000ff;stroke:#0000ff;" x="88.529568" xlink:href="#ma8a24d8c7c" y="96.280849"/>
     <use style="fill:#0000ff;stroke:#0000ff;" x="109.856949" xlink:href="#ma8a24d8c7c" y="96.280849"/>
     <use style="fill:#0000ff;stroke:#0000ff;" x="110.283497" xlink:href="#ma8a24d8c7c" y="96.280849"/>
     <use style="fill:#0000ff;stroke:#0000ff;" x="118.956631" xlink:href="#ma8a24d8c7c" y="96.280849"/>
     <use style="fill:#0000ff;stroke:#0000ff;" x="144.691671" xlink:href="#ma8a24d8c7c" y="109.953274"/>
     <use style="fill:#0000ff;stroke:#0000ff;" x="153.364805" xlink:href="#ma8a24d8c7c" y="109.953274"/>
     <use style="fill:#0000ff;stroke:#0000ff;" x="218.484407" xlink:href="#ma8a24d8c7c" y="156.097707"/>
     <use style="fill:#0000ff;stroke:#0000ff;" x="227.299725" xlink:href="#ma8a24d8c7c" y="156.097707"/>
     <use style="fill:#0000ff;stroke:#0000ff;" x="257.30024" xlink:href="#ma8a24d8c7c" y="192.453927"/>
     <use style="fill:#0000ff;stroke:#0000ff;" x="278.769803" xlink:href="#ma8a24d8c7c" y="192.453927"/>
     <use style="fill:#0000ff;stroke:#0000ff;" x="300.665914" xlink:href="#ma8a24d8c7c" y="219.721092"/>
     <use style="fill:#0000ff;stroke:#0000ff;" x="309.623414" xlink:href="#ma8a24d8c7c" y="219.721092"/>
     <use style="fill:#0000ff;stroke:#0000ff;" x="313.604525" xlink:href="#ma8a24d8c7c" y="219.721092"/>
     <use style="fill:#0000ff;stroke:#0000ff;" x="321.993295" xlink:href="#ma8a24d8c7c" y="219.721092"/>
     <use style="fill:#0000ff;stroke:#0000ff;" x="322.27766" xlink:href="#ma8a24d8c7c" y="219.721092"/>
    </g>
   </g>
   <g id="line2d_30">
    <path clip-path="url(#p11f61ac210)" d="M 53.979212 42.317705 
L 57.960323 42.317705 
L 57.960323 52.775678 
L 58.386871 52.775678 
L 58.386871 73.691626 
L 62.652347 73.691626 
L 62.652347 73.691626 
L 75.306593 73.691626 
L 75.306593 73.691626 
L 80.140799 73.691626 
L 80.140799 84.986237 
L 84.548457 84.986237 
L 84.548457 96.280849 
L 88.529568 96.280849 
L 88.529568 96.280849 
L 109.856949 96.280849 
L 109.856949 96.280849 
L 110.283497 96.280849 
L 110.283497 96.280849 
L 118.956631 96.280849 
L 118.956631 96.280849 
L 123.506473 96.280849 
L 123.506473 109.953274 
L 144.691671 109.953274 
L 144.691671 109.953274 
L 153.364805 109.953274 
L 153.364805 109.953274 
L 170.853258 109.953274 
L 170.853258 125.334752 
L 175.403099 125.334752 
L 175.403099 140.716229 
L 188.34171 140.716229 
L 188.34171 156.097707 
L 218.484407 156.097707 
L 218.484407 156.097707 
L 227.299725 156.097707 
L 227.299725 156.097707 
L 253.176947 156.097707 
L 253.176947 174.275817 
L 253.319129 174.275817 
L 253.319129 192.453927 
L 257.30024 192.453927 
L 257.30024 192.453927 
L 278.769803 192.453927 
L 278.769803 192.453927 
L 296.54262 192.453927 
L 296.54262 219.721092 
L 300.665914 219.721092 
L 300.665914 219.721092 
L 309.623414 219.721092 
L 309.623414 219.721092 
L 313.604525 219.721092 
L 313.604525 219.721092 
L 321.993295 219.721092 
L 321.993295 219.721092 
L 322.27766 219.721092 
L 322.27766 219.721092 
" style="fill:none;stroke:#0000ff;stroke-linecap:square;stroke-width:1.5;"/>
   </g>
   <g id="line2d_31">
    <defs>
     <path d="M -3 3 
L 3 -3 
M -3 -3 
L 3 3 
" id="mcbc1ac8d38" style="stroke:#808080;"/>
    </defs>
    <g clip-path="url(#p11f61ac210)">
     <use style="fill:#808080;stroke:#808080;" x="62.367982" xlink:href="#mcbc1ac8d38" y="71.995738"/>
     <use style="fill:#808080;stroke:#808080;" x="75.73314" xlink:href="#mcbc1ac8d38" y="98.21677"/>
     <use style="fill:#808080;stroke:#808080;" x="79.714251" xlink:href="#mcbc1ac8d38" y="102.66229"/>
     <use style="fill:#808080;stroke:#808080;" x="84.12191" xlink:href="#mcbc1ac8d38" y="107.187194"/>
     <use style="fill:#808080;stroke:#808080;" x="92.795045" xlink:href="#mcbc1ac8d38" y="116.404591"/>
     <use style="fill:#808080;stroke:#808080;" x="97.202703" xlink:href="#mcbc1ac8d38" y="135.200852"/>
     <use style="fill:#808080;stroke:#808080;" x="97.487068" xlink:href="#mcbc1ac8d38" y="144.80329"/>
     <use style="fill:#808080;stroke:#808080;" x="101.468179" xlink:href="#mcbc1ac8d38" y="144.80329"/>
     <use style="fill:#808080;stroke:#808080;" x="109.856949" xlink:href="#mcbc1ac8d38" y="169.952531"/>
     <use style="fill:#808080;stroke:#808080;" x="118.672266" xlink:href="#mcbc1ac8d38" y="169.952531"/>
     <use style="fill:#808080;stroke:#808080;" x="145.118218" xlink:href="#mcbc1ac8d38" y="201.85614"/>
     <use style="fill:#808080;stroke:#808080;" x="149.383694" xlink:href="#mcbc1ac8d38" y="207.363311"/>
     <use style="fill:#808080;stroke:#808080;" x="153.364805" xlink:href="#mcbc1ac8d38" y="207.363311"/>
     <use style="fill:#808080;stroke:#808080;" x="157.772464" xlink:href="#mcbc1ac8d38" y="207.363311"/>
     <use style="fill:#808080;stroke:#808080;" x="166.587781" xlink:href="#mcbc1ac8d38" y="232.145578"/>
     <use style="fill:#808080;stroke:#808080;" x="179.38421" xlink:href="#mcbc1ac8d38" y="251.710527"/>
     <use style="fill:#808080;stroke:#808080;" x="188.057345" xlink:href="#mcbc1ac8d38" y="251.710527"/>
     <use style="fill:#808080;stroke:#808080;" x="222.607701" xlink:href="#mcbc1ac8d38" y="259.16384"/>
     <use style="fill:#808080;stroke:#808080;" x="226.873177" xlink:href="#mcbc1ac8d38" y="259.16384"/>
     <use style="fill:#808080;stroke:#808080;" x="231.565201" xlink:href="#mcbc1ac8d38" y="259.16384"/>
     <use style="fill:#808080;stroke:#808080;" x="278.769803" xlink:href="#mcbc1ac8d38" y="269.929738"/>
     <use style="fill:#808080;stroke:#808080;" x="369.624444" xlink:href="#mcbc1ac8d38" y="282.233621"/>
     <use style="fill:#808080;stroke:#808080;" x="373.036825" xlink:href="#mcbc1ac8d38" y="282.233621"/>
     <use style="fill:#808080;stroke:#808080;" x="373.32119" xlink:href="#mcbc1ac8d38" y="282.233621"/>
     <use style="fill:#808080;stroke:#808080;" x="378.724127" xlink:href="#mcbc1ac8d38" y="282.233621"/>
     <use style="fill:#808080;stroke:#808080;" x="408.866825" xlink:href="#mcbc1ac8d38" y="282.233621"/>
     <use style="fill:#808080;stroke:#808080;" x="460.763451" xlink:href="#mcbc1ac8d38" y="282.233621"/>
    </g>
   </g>
   <g id="line2d_32">
    <path clip-path="url(#p11f61ac210)" d="M 53.979212 63.5163 
L 58.386871 63.5163 
L 58.386871 71.995738 
L 62.367982 71.995738 
L 62.367982 71.995738 
L 62.652347 71.995738 
L 62.652347 76.36591 
L 66.633458 76.36591 
L 66.633458 80.736082 
L 66.77564 80.736082 
L 66.77564 85.106254 
L 71.325481 85.106254 
L 71.325481 93.846598 
L 75.73314 93.846598 
L 75.73314 98.21677 
L 79.714251 98.21677 
L 79.714251 102.66229 
L 80.140799 102.66229 
L 80.140799 107.187194 
L 84.12191 107.187194 
L 84.12191 107.187194 
L 88.529568 107.187194 
L 88.529568 111.795893 
L 88.813934 111.795893 
L 88.813934 116.404591 
L 92.795045 116.404591 
L 92.795045 116.404591 
L 92.937227 116.404591 
L 92.937227 121.103656 
L 97.060521 121.103656 
L 97.060521 125.802722 
L 97.202703 125.802722 
L 97.202703 135.200852 
L 97.344886 135.200852 
L 97.344886 140.002071 
L 97.487068 140.002071 
L 97.487068 144.80329 
L 101.468179 144.80329 
L 101.468179 144.80329 
L 101.610362 144.80329 
L 101.610362 154.862986 
L 105.875838 154.862986 
L 105.875838 164.922683 
L 106.018021 164.922683 
L 106.018021 169.952531 
L 109.856949 169.952531 
L 109.856949 169.952531 
L 118.672266 169.952531 
L 118.672266 169.952531 
L 123.079925 169.952531 
L 123.079925 175.269799 
L 123.506473 175.269799 
L 123.506473 180.587067 
L 136.018536 180.587067 
L 136.018536 191.221604 
L 136.445084 191.221604 
L 136.445084 196.538872 
L 140.568377 196.538872 
L 140.568377 201.85614 
L 145.118218 201.85614 
L 145.118218 201.85614 
L 149.383694 201.85614 
L 149.383694 207.363311 
L 153.364805 207.363311 
L 153.364805 207.363311 
L 157.772464 207.363311 
L 157.772464 207.363311 
L 157.914647 207.363311 
L 157.914647 219.754445 
L 166.587781 219.754445 
L 166.587781 232.145578 
L 167.725242 232.145578 
L 167.725242 238.667228 
L 170.853258 238.667228 
L 170.853258 251.710527 
L 179.38421 251.710527 
L 179.38421 251.710527 
L 188.057345 251.710527 
L 188.057345 251.710527 
L 192.322821 251.710527 
L 192.322821 259.16384 
L 222.607701 259.16384 
L 222.607701 259.16384 
L 226.873177 259.16384 
L 226.873177 259.16384 
L 231.565201 259.16384 
L 231.565201 259.16384 
L 257.442423 259.16384 
L 257.442423 269.929738 
L 278.769803 269.929738 
L 278.769803 269.929738 
L 287.442938 269.929738 
L 287.442938 282.233621 
L 369.624444 282.233621 
L 369.624444 282.233621 
L 373.036825 282.233621 
L 373.036825 282.233621 
L 373.32119 282.233621 
L 373.32119 282.233621 
L 378.724127 282.233621 
L 378.724127 282.233621 
L 408.866825 282.233621 
L 408.866825 282.233621 
L 460.763451 282.233621 
L 460.763451 282.233621 
" style="fill:none;stroke:#808080;stroke-linecap:square;stroke-width:1.5;"/>
   </g>
   <g id="patch_3">
    <path d="M 33.64 366.5095 
L 33.64 26.88 
" style="fill:none;stroke:#000000;stroke-linecap:square;stroke-linejoin:miter;stroke-width:0.8;"/>
   </g>
   <g id="patch_4">
    <path d="M 481.102663 366.5095 
L 481.102663 26.88 
" style="fill:none;stroke:#000000;stroke-linecap:square;stroke-linejoin:miter;stroke-width:0.8;"/>
   </g>
   <g id="patch_5">
    <path d="M 33.64 366.5095 
L 481.102663 366.5095 
" style="fill:none;stroke:#000000;stroke-linecap:square;stroke-linejoin:miter;stroke-width:0.8;"/>
   </g>
   <g id="patch_6">
    <path d="M 33.64 26.88 
L 481.102663 26.88 
" style="fill:none;stroke:#000000;stroke-linecap:square;stroke-linejoin:miter;stroke-width:0.8;"/>
   </g>
   <g id="text_15">
    <text style="font-family:DejaVu Sans;font-size:12px;font-stretch:normal;font-style:normal;font-weight:normal;text-anchor:middle;" transform="rotate(-0, 257.371331, 20.88)" x="257.371331" y="20.88">Survival curves - model_type: ridge_cph_lifelines</text>
   </g>
   <g id="legend_1">
    <g id="patch_7">
     <path d="M 343.460475 78.914375 
L 474.102663 78.914375 
Q 476.102663 78.914375 476.102663 76.914375 
L 476.102663 33.88 
Q 476.102663 31.88 474.102663 31.88 
L 343.460475 31.88 
Q 341.460475 31.88 341.460475 33.88 
L 341.460475 76.914375 
Q 341.460475 78.914375 343.460475 78.914375 
z
" style="fill:#ffffff;opacity:0.8;stroke:#cccccc;stroke-linejoin:miter;"/>
    </g>
    <g id="line2d_33">
     <path d="M 345.460475 39.978437 
L 365.460475 39.978437 
" style="fill:none;stroke:#ff0000;stroke-linecap:square;stroke-width:1.5;"/>
    </g>
    <g id="line2d_34"/>
    <g id="text_16">
     <text style="font-family:DejaVu Sans;font-size:10px;font-stretch:normal;font-style:normal;font-weight:normal;text-anchor:start;" transform="rotate(-0, 373.460475, 43.478437)" x="373.460475" y="43.478437">adv. risk (n:33 c:7 )</text>
    </g>
    <g id="line2d_35">
     <path d="M 345.460475 54.656563 
L 365.460475 54.656563 
" style="fill:none;stroke:#0000ff;stroke-linecap:square;stroke-width:1.5;"/>
    </g>
    <g id="line2d_36"/>
    <g id="text_17">
     <text style="font-family:DejaVu Sans;font-size:10px;font-stretch:normal;font-style:normal;font-weight:normal;text-anchor:start;" transform="rotate(-0, 373.460475, 58.156563)" x="373.460475" y="58.156563">fav. risk (n:30 c:18)</text>
    </g>
    <g id="line2d_37">
     <path d="M 345.460475 69.334687 
L 365.460475 69.334687 
" style="fill:none;stroke:#808080;stroke-linecap:square;stroke-width:1.5;"/>
    </g>
    <g id="line2d_38"/>
    <g id="text_18">
     <text style="font-family:DejaVu Sans;font-size:10px;font-stretch:normal;font-style:normal;font-weight:normal;text-anchor:start;" transform="rotate(-0, 373.460475, 72.834687)" x="373.460475" y="72.834687">int. risk (n:74 c:29 )</text>
    </g>
   </g>
  </g>
 </g>
 <defs>
  <clipPath id="p11f61ac210">
   <rect height="339.6295" width="447.462663" x="33.64" y="26.88"/>
  </clipPath>
 </defs>
</svg>
