<?xml version="1.0" encoding="utf-8" standalone="no"?>
<!DOCTYPE svg PUBLIC "-//W3C//DTD SVG 1.1//EN"
  "http://www.w3.org/Graphics/SVG/1.1/DTD/svg11.dtd">
<!-- Created with matplotlib (https://matplotlib.org/) -->
<svg height="432pt" version="1.1" viewBox="0 0 504 432" width="504pt" xmlns="http://www.w3.org/2000/svg" xmlns:xlink="http://www.w3.org/1999/xlink">
 <metadata>
  <rdf:RDF xmlns:cc="http://creativecommons.org/ns#" xmlns:dc="http://purl.org/dc/elements/1.1/" xmlns:rdf="http://www.w3.org/1999/02/22-rdf-syntax-ns#">
   <cc:Work>
    <dc:type rdf:resource="http://purl.org/dc/dcmitype/StillImage"/>
    <dc:date>2022-10-27T18:01:44.070082</dc:date>
    <dc:format>image/svg+xml</dc:format>
    <dc:creator>
     <cc:Agent>
      <dc:title>Matplotlib v3.3.4, https://matplotlib.org/</dc:title>
     </cc:Agent>
    </dc:creator>
   </cc:Work>
  </rdf:RDF>
 </metadata>
 <defs>
  <style type="text/css">*{stroke-linecap:butt;stroke-linejoin:round;}</style>
 </defs>
 <g id="figure_1">
  <g id="patch_1">
   <path d="M 0 432 
L 504 432 
L 504 0 
L 0 0 
z
" style="fill:#ffffff;"/>
  </g>
  <g id="axes_1">
   <g id="patch_2">
    <path d="M 33.64 366.5095 
L 493.2 366.5095 
L 493.2 26.88 
L 33.64 26.88 
z
" style="fill:#ffffff;"/>
   </g>
   <g id="PolyCollection_1">
    <defs>
     <path d="M 54.529091 -389.682295 
L 54.529091 -389.682295 
L 55.290835 -389.682295 
L 55.290835 -362.656101 
L 55.360084 -362.656101 
L 55.360084 -354.326524 
L 55.775581 -354.326524 
L 55.775581 -349.270897 
L 55.91408 -349.270897 
L 55.91408 -344.243842 
L 56.052578 -344.243842 
L 56.052578 -334.400771 
L 56.537324 -334.400771 
L 56.537324 -329.588339 
L 56.606574 -329.588339 
L 56.606574 -324.842672 
L 56.952821 -324.842672 
L 56.952821 -320.158431 
L 57.02207 -320.158431 
L 57.02207 -310.954909 
L 57.783814 -310.954909 
L 57.783814 -306.427345 
L 58.060812 -306.427345 
L 58.060812 -301.944595 
L 58.822556 -301.944595 
L 58.822556 -297.503733 
L 59.584299 -297.503733 
L 59.584299 -293.10221 
L 59.861297 -293.10221 
L 59.861297 -288.737801 
L 60.138295 -288.737801 
L 60.138295 -284.408556 
L 60.276794 -284.408556 
L 60.276794 -280.112759 
L 60.415293 -280.112759 
L 60.415293 -275.848897 
L 60.623041 -275.848897 
L 60.623041 -271.615636 
L 60.830789 -271.615636 
L 60.830789 -267.411792 
L 60.969288 -267.411792 
L 60.969288 -263.236314 
L 61.246286 -263.236314 
L 61.246286 -259.088271 
L 61.523283 -259.088271 
L 61.523283 -254.966837 
L 61.592533 -254.966837 
L 61.592533 -250.871276 
L 62.215778 -250.871276 
L 62.215778 -242.755251 
L 62.285027 -242.755251 
L 62.285027 -238.733706 
L 62.839023 -238.733706 
L 62.839023 -234.735861 
L 63.046771 -234.735861 
L 63.046771 -230.761333 
L 63.323769 -230.761333 
L 63.323769 -226.80979 
L 63.462268 -226.80979 
L 63.462268 -222.880953 
L 63.739265 -222.880953 
L 63.739265 -218.974591 
L 63.947014 -218.974591 
L 63.947014 -215.090517 
L 64.43176 -215.090517 
L 64.43176 -211.22859 
L 64.708757 -211.22859 
L 64.708757 -207.388709 
L 64.778007 -207.388709 
L 64.778007 -203.570817 
L 64.916506 -203.570817 
L 64.916506 -199.774896 
L 65.055004 -199.774896 
L 65.055004 -192.249103 
L 65.678249 -192.249103 
L 65.678249 -188.5194 
L 65.816748 -188.5194 
L 65.816748 -184.81201 
L 66.162995 -184.81201 
L 66.162995 -181.127124 
L 66.439993 -181.127124 
L 66.439993 -177.464981 
L 66.647741 -177.464981 
L 66.647741 -173.825864 
L 66.716991 -173.825864 
L 66.716991 -170.210109 
L 67.409485 -170.210109 
L 67.409485 -166.618106 
L 69.833215 -166.618106 
L 69.833215 -163.050302 
L 70.733458 -163.050302 
L 70.733458 -159.507208 
L 70.802707 -159.507208 
L 70.802707 -155.989401 
L 71.495202 -155.989401 
L 71.495202 -152.497537 
L 72.741691 -152.497537 
L 72.741691 -149.032353 
L 73.018689 -149.032353 
L 73.018689 -145.59468 
L 74.334428 -145.59468 
L 74.334428 -142.185455 
L 75.026923 -142.185455 
L 75.026923 -138.805731 
L 75.442419 -138.805731 
L 75.442419 -135.4567 
L 75.788666 -135.4567 
L 75.788666 -132.139707 
L 75.996415 -132.139707 
L 75.996415 -128.856279 
L 77.242904 -128.856279 
L 77.242904 -125.608154 
L 80.22063 -125.608154 
L 80.22063 -122.39732 
L 84.029349 -122.39732 
L 84.029349 -119.226061 
L 88.599811 -119.226061 
L 88.599811 -116.097022 
L 89.777051 -116.097022 
L 89.777051 -113.013282 
L 90.469546 -113.013282 
L 90.469546 -109.978463 
L 96.217248 -109.978463 
L 96.217248 -106.996862 
L 99.194974 -106.996862 
L 99.194974 -104.073643 
L 101.618704 -104.073643 
L 101.618704 -101.21509 
L 104.52718 -101.21509 
L 104.52718 -98.428985 
L 108.128151 -98.428985 
L 108.128151 -95.725146 
L 110.274883 -95.725146 
L 110.274883 -93.116267 
L 110.69038 -93.116267 
L 110.69038 -90.619251 
L 111.86762 -90.619251 
L 111.86762 -88.257469 
L 112.767863 -88.257469 
L 112.767863 -86.064875 
L 116.645831 -86.064875 
L 116.645831 -84.094235 
L 150.231805 -84.094235 
L 150.231805 -82.435849 
L 269.133078 -82.435849 
L 269.133078 -82.435849 
L 347.800432 -82.435849 
L 347.800432 -80.928205 
L 347.800432 -80.928205 
L 347.800432 -80.928205 
L 347.800432 -105.722624 
L 269.133078 -105.722624 
L 269.133078 -105.722624 
L 150.231805 -105.722624 
L 150.231805 -111.340622 
L 116.645831 -111.340622 
L 116.645831 -116.747173 
L 112.767863 -116.747173 
L 112.767863 -121.981009 
L 111.86762 -121.981009 
L 111.86762 -127.075932 
L 110.69038 -127.075932 
L 110.69038 -132.056713 
L 110.274883 -132.056713 
L 110.274883 -136.941481 
L 108.128151 -136.941481 
L 108.128151 -141.743809 
L 104.52718 -141.743809 
L 104.52718 -146.474114 
L 101.618704 -146.474114 
L 101.618704 -151.140571 
L 99.194974 -151.140571 
L 99.194974 -155.749723 
L 96.217248 -155.749723 
L 96.217248 -160.306898 
L 90.469546 -160.306898 
L 90.469546 -164.816492 
L 89.777051 -164.816492 
L 89.777051 -169.282184 
L 88.599811 -169.282184 
L 88.599811 -173.70708 
L 84.029349 -173.70708 
L 84.029349 -178.093829 
L 80.22063 -178.093829 
L 80.22063 -182.444708 
L 77.242904 -182.444708 
L 77.242904 -186.761688 
L 75.996415 -186.761688 
L 75.996415 -191.046483 
L 75.788666 -191.046483 
L 75.788666 -195.300593 
L 75.442419 -195.300593 
L 75.442419 -199.525333 
L 75.026923 -199.525333 
L 75.026923 -203.721864 
L 74.334428 -203.721864 
L 74.334428 -207.891207 
L 73.018689 -207.891207 
L 73.018689 -212.034268 
L 72.741691 -212.034268 
L 72.741691 -216.151848 
L 71.495202 -216.151848 
L 71.495202 -220.244654 
L 70.802707 -220.244654 
L 70.802707 -224.313312 
L 70.733458 -224.313312 
L 70.733458 -228.358373 
L 69.833215 -228.358373 
L 69.833215 -232.380322 
L 67.409485 -232.380322 
L 67.409485 -236.37958 
L 66.716991 -236.37958 
L 66.716991 -240.356515 
L 66.647741 -240.356515 
L 66.647741 -244.311438 
L 66.439993 -244.311438 
L 66.439993 -248.244614 
L 66.162995 -248.244614 
L 66.162995 -252.156261 
L 65.816748 -252.156261 
L 65.816748 -256.046553 
L 65.678249 -256.046553 
L 65.678249 -259.915621 
L 65.055004 -259.915621 
L 65.055004 -267.590405 
L 64.916506 -267.590405 
L 64.916506 -271.396182 
L 64.778007 -271.396182 
L 64.778007 -275.180856 
L 64.708757 -275.180856 
L 64.708757 -278.944358 
L 64.43176 -278.944358 
L 64.43176 -282.68658 
L 63.947014 -282.68658 
L 63.947014 -286.40737 
L 63.739265 -286.40737 
L 63.739265 -290.106536 
L 63.462268 -290.106536 
L 63.462268 -293.783839 
L 63.323769 -293.783839 
L 63.323769 -297.438996 
L 63.046771 -297.438996 
L 63.046771 -301.07167 
L 62.839023 -301.07167 
L 62.839023 -304.681475 
L 62.285027 -304.681475 
L 62.285027 -308.267964 
L 62.215778 -308.267964 
L 62.215778 -315.368893 
L 61.592533 -315.368893 
L 61.592533 -318.882105 
L 61.523283 -318.882105 
L 61.523283 -322.369526 
L 61.246286 -322.369526 
L 61.246286 -325.830325 
L 60.969288 -325.830325 
L 60.969288 -329.263565 
L 60.830789 -329.263565 
L 60.830789 -332.668185 
L 60.623041 -332.668185 
L 60.623041 -336.042985 
L 60.415293 -336.042985 
L 60.415293 -339.386606 
L 60.276794 -339.386606 
L 60.276794 -342.697497 
L 60.138295 -342.697497 
L 60.138295 -345.973889 
L 59.861297 -345.973889 
L 59.861297 -349.213746 
L 59.584299 -349.213746 
L 59.584299 -352.414714 
L 58.822556 -352.414714 
L 58.822556 -355.574055 
L 58.060812 -355.574055 
L 58.060812 -358.688552 
L 57.783814 -358.688552 
L 57.783814 -361.75439 
L 57.02207 -361.75439 
L 57.02207 -367.720807 
L 56.952821 -367.720807 
L 56.952821 -370.608951 
L 56.606574 -370.608951 
L 56.606574 -373.422767 
L 56.537324 -373.422767 
L 56.537324 -376.15108 
L 56.052578 -376.15108 
L 56.052578 -381.286092 
L 55.91408 -381.286092 
L 55.91408 -383.642439 
L 55.775581 -383.642439 
L 55.775581 -385.801582 
L 55.360084 -385.801582 
L 55.360084 -389.121616 
L 55.290835 -389.121616 
L 55.290835 -389.682295 
L 54.529091 -389.682295 
z
" id="m435b5950cc" style="stroke:#ff0000;stroke-opacity:0.25;"/>
    </defs>
    <g clip-path="url(#p58309a27d9)">
     <use style="fill:#ff0000;fill-opacity:0.25;stroke:#ff0000;stroke-opacity:0.25;" x="0" xlink:href="#m435b5950cc" y="432"/>
    </g>
   </g>
   <g id="PolyCollection_2">
    <defs>
     <path d="M 54.529091 -389.682295 
L 54.529091 -389.682295 
L 65.955247 -389.682295 
L 65.955247 -344.151354 
L 74.680675 -344.151354 
L 74.680675 -338.357461 
L 75.442419 -338.357461 
L 75.442419 -330.208997 
L 75.580918 -330.208997 
L 75.580918 -321.838936 
L 88.045816 -321.838936 
L 88.045816 -313.552427 
L 89.084557 -313.552427 
L 89.084557 -305.411739 
L 100.233715 -305.411739 
L 100.233715 -297.425142 
L 106.812411 -297.425142 
L 106.812411 -289.586707 
L 114.152851 -289.586707 
L 114.152851 -281.887116 
L 121.008545 -281.887116 
L 121.008545 -274.316949 
L 122.462783 -274.316949 
L 122.462783 -266.867683 
L 162.9737 -266.867683 
L 162.9737 -259.531921 
L 182.709788 -259.531921 
L 182.709788 -259.531921 
L 184.579523 -259.531921 
L 184.579523 -259.531921 
L 193.651198 -259.531921 
L 193.651198 -259.531921 
L 208.678325 -259.531921 
L 208.678325 -259.531921 
L 218.026998 -259.531921 
L 218.026998 -250.867483 
L 218.373245 -250.867483 
L 218.373245 -250.867483 
L 224.259447 -250.867483 
L 224.259447 -250.867483 
L 226.26768 -250.867483 
L 226.26768 -250.867483 
L 232.153882 -250.867483 
L 232.153882 -250.867483 
L 235.685603 -250.867483 
L 235.685603 -250.867483 
L 245.519022 -250.867483 
L 245.519022 -250.867483 
L 253.759704 -250.867483 
L 253.759704 -250.867483 
L 263.177627 -250.867483 
L 263.177627 -250.867483 
L 280.697733 -250.867483 
L 280.697733 -250.867483 
L 284.160205 -250.867483 
L 284.160205 -250.867483 
L 289.838658 -250.867483 
L 289.838658 -250.867483 
L 316.638188 -250.867483 
L 316.638188 -250.867483 
L 322.039643 -250.867483 
L 322.039643 -250.867483 
L 330.765072 -250.867483 
L 330.765072 -250.867483 
L 333.812047 -250.867483 
L 333.812047 -250.867483 
L 333.881296 -250.867483 
L 333.881296 -250.867483 
L 338.31326 -250.867483 
L 338.31326 -250.867483 
L 344.060963 -250.867483 
L 344.060963 -250.867483 
L 370.652744 -250.867483 
L 370.652744 -250.867483 
L 383.256141 -250.867483 
L 383.256141 -250.867483 
L 389.904086 -250.867483 
L 389.904086 -250.867483 
L 398.491015 -250.867483 
L 398.491015 -250.867483 
L 408.393684 -250.867483 
L 408.393684 -250.867483 
L 425.221296 -250.867483 
L 425.221296 -250.867483 
L 441.356413 -250.867483 
L 441.356413 -250.867483 
L 455.483297 -250.867483 
L 455.483297 -250.867483 
L 459.499764 -250.867483 
L 459.499764 -250.867483 
L 459.499764 -333.810293 
L 459.499764 -333.810293 
L 459.499764 -333.810293 
L 455.483297 -333.810293 
L 455.483297 -333.810293 
L 441.356413 -333.810293 
L 441.356413 -333.810293 
L 425.221296 -333.810293 
L 425.221296 -333.810293 
L 408.393684 -333.810293 
L 408.393684 -333.810293 
L 398.491015 -333.810293 
L 398.491015 -333.810293 
L 389.904086 -333.810293 
L 389.904086 -333.810293 
L 383.256141 -333.810293 
L 383.256141 -333.810293 
L 370.652744 -333.810293 
L 370.652744 -333.810293 
L 344.060963 -333.810293 
L 344.060963 -333.810293 
L 338.31326 -333.810293 
L 338.31326 -333.810293 
L 333.881296 -333.810293 
L 333.881296 -333.810293 
L 333.812047 -333.810293 
L 333.812047 -333.810293 
L 330.765072 -333.810293 
L 330.765072 -333.810293 
L 322.039643 -333.810293 
L 322.039643 -333.810293 
L 316.638188 -333.810293 
L 316.638188 -333.810293 
L 289.838658 -333.810293 
L 289.838658 -333.810293 
L 284.160205 -333.810293 
L 284.160205 -333.810293 
L 280.697733 -333.810293 
L 280.697733 -333.810293 
L 263.177627 -333.810293 
L 263.177627 -333.810293 
L 253.759704 -333.810293 
L 253.759704 -333.810293 
L 245.519022 -333.810293 
L 245.519022 -333.810293 
L 235.685603 -333.810293 
L 235.685603 -333.810293 
L 232.153882 -333.810293 
L 232.153882 -333.810293 
L 226.26768 -333.810293 
L 226.26768 -333.810293 
L 224.259447 -333.810293 
L 224.259447 -333.810293 
L 218.373245 -333.810293 
L 218.373245 -333.810293 
L 218.026998 -333.810293 
L 218.026998 -339.922134 
L 208.678325 -339.922134 
L 208.678325 -339.922134 
L 193.651198 -339.922134 
L 193.651198 -339.922134 
L 184.579523 -339.922134 
L 184.579523 -339.922134 
L 182.709788 -339.922134 
L 182.709788 -339.922134 
L 162.9737 -339.922134 
L 162.9737 -345.368151 
L 122.462783 -345.368151 
L 122.462783 -350.691469 
L 121.008545 -350.691469 
L 121.008545 -355.880502 
L 114.152851 -355.880502 
L 114.152851 -360.920483 
L 106.812411 -360.920483 
L 106.812411 -365.792193 
L 100.233715 -365.792193 
L 100.233715 -370.469937 
L 89.084557 -370.469937 
L 89.084557 -374.9181 
L 88.045816 -374.9181 
L 88.045816 -379.084849 
L 75.580918 -379.084849 
L 75.580918 -382.889381 
L 75.442419 -382.889381 
L 75.442419 -386.192048 
L 74.680675 -386.192048 
L 74.680675 -388.706488 
L 65.955247 -388.706488 
L 65.955247 -389.682295 
L 54.529091 -389.682295 
z
" id="m3de37b884b" style="stroke:#0000ff;stroke-opacity:0.25;"/>
    </defs>
    <g clip-path="url(#p58309a27d9)">
     <use style="fill:#0000ff;fill-opacity:0.25;stroke:#0000ff;stroke-opacity:0.25;" x="0" xlink:href="#m3de37b884b" y="432"/>
    </g>
   </g>
   <g id="PolyCollection_3">
    <defs>
     <path d="M 54.529091 -389.682295 
L 54.529091 -389.682295 
L 55.083086 -389.682295 
L 55.083086 -377.51015 
L 55.152336 -377.51015 
L 55.152336 -375.967193 
L 55.360084 -375.967193 
L 55.360084 -371.43891 
L 55.429334 -371.43891 
L 55.429334 -369.140674 
L 55.498583 -369.140674 
L 55.498583 -366.867643 
L 55.567832 -366.867643 
L 55.567832 -364.623216 
L 55.983329 -364.623216 
L 55.983329 -362.406531 
L 56.052578 -362.406531 
L 56.052578 -358.048082 
L 56.191077 -358.048082 
L 56.191077 -355.902004 
L 56.329576 -355.902004 
L 56.329576 -353.775443 
L 56.398826 -353.775443 
L 56.398826 -349.574448 
L 56.883572 -349.574448 
L 56.883572 -347.497293 
L 57.02207 -347.497293 
L 57.02207 -345.434164 
L 57.09132 -345.434164 
L 57.09132 -343.384081 
L 58.33781 -343.384081 
L 58.33781 -341.346179 
L 59.030304 -341.346179 
L 59.030304 -339.319692 
L 59.307302 -339.319692 
L 59.307302 -337.303935 
L 59.51505 -337.303935 
L 59.51505 -335.298296 
L 59.722798 -335.298296 
L 59.722798 -331.315227 
L 59.861297 -331.315227 
L 59.861297 -331.315227 
L 60.138295 -331.315227 
L 60.138295 -329.320544 
L 60.553791 -329.320544 
L 60.553791 -327.334405 
L 61.592533 -327.334405 
L 61.592533 -325.356411 
L 61.731032 -325.356411 
L 61.731032 -323.386194 
L 62.008029 -323.386194 
L 62.008029 -321.423422 
L 62.146528 -321.423422 
L 62.146528 -319.467789 
L 63.877764 -319.467789 
L 63.877764 -315.576838 
L 64.016263 -315.576838 
L 64.016263 -313.641024 
L 64.085512 -313.641024 
L 64.085512 -311.711351 
L 64.570258 -311.711351 
L 64.570258 -309.787613 
L 64.778007 -309.787613 
L 64.778007 -307.869622 
L 64.916506 -307.869622 
L 64.916506 -305.957199 
L 65.193503 -305.957199 
L 65.193503 -304.050182 
L 65.470501 -304.050182 
L 65.470501 -302.148415 
L 66.093746 -302.148415 
L 66.093746 -300.251755 
L 67.617233 -300.251755 
L 67.617233 -298.360068 
L 68.309728 -298.360068 
L 68.309728 -294.591113 
L 68.863723 -294.591113 
L 68.863723 -292.713616 
L 68.932973 -292.713616 
L 68.932973 -287.107808 
L 69.071471 -287.107808 
L 69.071471 -285.247789 
L 69.27922 -285.247789 
L 69.27922 -281.540125 
L 69.763966 -281.540125 
L 69.763966 -279.692328 
L 70.871957 -279.692328 
L 70.871957 -277.84846 
L 70.941206 -277.84846 
L 70.941206 -276.008455 
L 71.010456 -276.008455 
L 71.010456 -272.339788 
L 71.218204 -272.339788 
L 71.218204 -268.685869 
L 71.356703 -268.685869 
L 71.356703 -266.86431 
L 71.772199 -266.86431 
L 71.772199 -265.046287 
L 71.910698 -265.046287 
L 71.910698 -263.231755 
L 71.979948 -263.231755 
L 71.979948 -261.420672 
L 72.049197 -261.420672 
L 72.049197 -259.612999 
L 72.187696 -259.612999 
L 72.187696 -257.808696 
L 72.810941 -257.808696 
L 72.810941 -256.00773 
L 73.572684 -256.00773 
L 73.572684 -254.210065 
L 74.195929 -254.210065 
L 74.195929 -252.41567 
L 75.026923 -252.41567 
L 75.026923 -250.624515 
L 75.096172 -250.624515 
L 75.096172 -248.836572 
L 75.30392 -248.836572 
L 75.30392 -245.270217 
L 75.996415 -245.270217 
L 75.996415 -241.716412 
L 76.55041 -241.716412 
L 76.55041 -236.408874 
L 76.758158 -236.408874 
L 76.758158 -234.645802 
L 76.827408 -234.645802 
L 76.827408 -232.885758 
L 77.242904 -232.885758 
L 77.242904 -231.128729 
L 77.935399 -231.128729 
L 77.935399 -229.374702 
L 78.143147 -229.374702 
L 78.143147 -227.623666 
L 79.251138 -227.623666 
L 79.251138 -225.875612 
L 79.320387 -225.875612 
L 79.320387 -224.130531 
L 79.528136 -224.130531 
L 79.528136 -222.388415 
L 79.735884 -222.388415 
L 79.735884 -220.649259 
L 80.082131 -220.649259 
L 80.082131 -218.913058 
L 81.813367 -218.913058 
L 81.813367 -217.179807 
L 82.021115 -217.179807 
L 82.021115 -215.449503 
L 82.090365 -215.449503 
L 82.090365 -213.722146 
L 82.228863 -213.722146 
L 82.228863 -211.997734 
L 82.436612 -211.997734 
L 82.436612 -210.276269 
L 84.514095 -210.276269 
L 84.514095 -208.557751 
L 85.137339 -208.557751 
L 85.137339 -206.842184 
L 85.206589 -206.842184 
L 85.206589 -205.129572 
L 85.414337 -205.129572 
L 85.414337 -203.419919 
L 85.552836 -203.419919 
L 85.552836 -201.713233 
L 86.31458 -201.713233 
L 86.31458 -200.00952 
L 88.045816 -200.00952 
L 88.045816 -198.308789 
L 88.322813 -198.308789 
L 88.322813 -196.61105 
L 88.392063 -196.61105 
L 88.392063 -194.916314 
L 88.599811 -194.916314 
L 88.599811 -193.224593 
L 88.66906 -193.224593 
L 88.66906 -191.535901 
L 90.538795 -191.535901 
L 90.538795 -189.850252 
L 91.508287 -189.850252 
L 91.508287 -188.167662 
L 95.386255 -188.167662 
L 95.386255 -188.167662 
L 95.524754 -188.167662 
L 95.524754 -186.461536 
L 98.779477 -186.461536 
L 98.779477 -184.7587 
L 101.687954 -184.7587 
L 101.687954 -183.059172 
L 101.826452 -183.059172 
L 101.826452 -181.362973 
L 103.488439 -181.362973 
L 103.488439 -179.670127 
L 112.629364 -179.670127 
L 112.629364 -177.980657 
L 113.183359 -177.980657 
L 113.183359 -176.294589 
L 118.654064 -176.294589 
L 118.654064 -174.611952 
L 129.803223 -174.611952 
L 129.803223 -172.932776 
L 130.772715 -172.932776 
L 130.772715 -171.257091 
L 131.118962 -171.257091 
L 131.118962 -169.584933 
L 137.351411 -169.584933 
L 137.351411 -167.916336 
L 138.5979 -167.916336 
L 138.5979 -166.25134 
L 151.201297 -166.25134 
L 151.201297 -164.589984 
L 156.118006 -164.589984 
L 156.118006 -162.932312 
L 165.743677 -162.932312 
L 165.743677 -161.278368 
L 168.305906 -161.278368 
L 168.305906 -159.628202 
L 179.108818 -159.628202 
L 179.108818 -157.981864 
L 181.463298 -157.981864 
L 181.463298 -156.339409 
L 187.3495 -156.339409 
L 187.3495 -156.339409 
L 187.557248 -156.339409 
L 187.557248 -154.664873 
L 187.834246 -154.664873 
L 187.834246 -154.664873 
L 189.703981 -154.664873 
L 189.703981 -154.664873 
L 191.850713 -154.664873 
L 191.850713 -154.664873 
L 198.221661 -154.664873 
L 198.221661 -152.874536 
L 198.983404 -152.874536 
L 198.983404 -152.874536 
L 204.800357 -152.874536 
L 204.800357 -151.045186 
L 206.254595 -151.045186 
L 206.254595 -151.045186 
L 207.362585 -151.045186 
L 207.362585 -149.174297 
L 208.262828 -149.174297 
L 208.262828 -149.174297 
L 209.024572 -149.174297 
L 209.024572 -147.259063 
L 209.509318 -147.259063 
L 209.509318 -145.351634 
L 215.257021 -145.351634 
L 215.257021 -143.452114 
L 218.165497 -143.452114 
L 218.165497 -141.560621 
L 227.444921 -141.560621 
L 227.444921 -141.560621 
L 237.001342 -141.560621 
L 237.001342 -141.560621 
L 237.901585 -141.560621 
L 237.901585 -141.560621 
L 241.156308 -141.560621 
L 241.156308 -141.560621 
L 248.704496 -141.560621 
L 248.704496 -141.560621 
L 249.46624 -141.560621 
L 249.46624 -139.341467 
L 252.859462 -139.341467 
L 252.859462 -139.341467 
L 258.122419 -139.341467 
L 258.122419 -137.053397 
L 261.377142 -137.053397 
L 261.377142 -137.053397 
L 265.878355 -137.053397 
L 265.878355 -134.689849 
L 266.43235 -134.689849 
L 266.43235 -134.689849 
L 269.133078 -134.689849 
L 269.133078 -134.689849 
L 270.10257 -134.689849 
L 270.10257 -134.689849 
L 280.420735 -134.689849 
L 280.420735 -134.689849 
L 295.586361 -134.689849 
L 295.586361 -134.689849 
L 302.234306 -134.689849 
L 302.234306 -134.689849 
L 322.385891 -134.689849 
L 322.385891 -134.689849 
L 330.626573 -134.689849 
L 330.626573 -134.689849 
L 333.535049 -134.689849 
L 333.535049 -134.689849 
L 333.673548 -134.689849 
L 333.673548 -134.689849 
L 351.609151 -134.689849 
L 351.609151 -134.689849 
L 356.52586 -134.689849 
L 356.52586 -134.689849 
L 357.910849 -134.689849 
L 357.910849 -134.689849 
L 359.503586 -134.689849 
L 359.503586 -134.689849 
L 374.738461 -134.689849 
L 374.738461 -134.689849 
L 376.746694 -134.689849 
L 376.746694 -134.689849 
L 377.716186 -134.689849 
L 377.716186 -128.188747 
L 380.693912 -128.188747 
L 380.693912 -128.188747 
L 388.726846 -128.188747 
L 388.726846 -128.188747 
L 391.566072 -128.188747 
L 391.566072 -128.188747 
L 392.604814 -128.188747 
L 392.604814 -128.188747 
L 393.505056 -128.188747 
L 393.505056 -128.188747 
L 405.069711 -128.188747 
L 405.069711 -128.188747 
L 432.907983 -128.188747 
L 432.907983 -128.188747 
L 445.926876 -128.188747 
L 445.926876 -128.188747 
L 458.184025 -128.188747 
L 458.184025 -128.188747 
L 463.931728 -128.188747 
L 463.931728 -128.188747 
L 464.347225 -128.188747 
L 464.347225 -128.188747 
L 472.310909 -128.188747 
L 472.310909 -128.188747 
L 472.310909 -170.520794 
L 472.310909 -170.520794 
L 472.310909 -170.520794 
L 464.347225 -170.520794 
L 464.347225 -170.520794 
L 463.931728 -170.520794 
L 463.931728 -170.520794 
L 458.184025 -170.520794 
L 458.184025 -170.520794 
L 445.926876 -170.520794 
L 445.926876 -170.520794 
L 432.907983 -170.520794 
L 432.907983 -170.520794 
L 405.069711 -170.520794 
L 405.069711 -170.520794 
L 393.505056 -170.520794 
L 393.505056 -170.520794 
L 392.604814 -170.520794 
L 392.604814 -170.520794 
L 391.566072 -170.520794 
L 391.566072 -170.520794 
L 388.726846 -170.520794 
L 388.726846 -170.520794 
L 380.693912 -170.520794 
L 380.693912 -170.520794 
L 377.716186 -170.520794 
L 377.716186 -174.613401 
L 376.746694 -174.613401 
L 376.746694 -174.613401 
L 374.738461 -174.613401 
L 374.738461 -174.613401 
L 359.503586 -174.613401 
L 359.503586 -174.613401 
L 357.910849 -174.613401 
L 357.910849 -174.613401 
L 356.52586 -174.613401 
L 356.52586 -174.613401 
L 351.609151 -174.613401 
L 351.609151 -174.613401 
L 333.673548 -174.613401 
L 333.673548 -174.613401 
L 333.535049 -174.613401 
L 333.535049 -174.613401 
L 330.626573 -174.613401 
L 330.626573 -174.613401 
L 322.385891 -174.613401 
L 322.385891 -174.613401 
L 302.234306 -174.613401 
L 302.234306 -174.613401 
L 295.586361 -174.613401 
L 295.586361 -174.613401 
L 280.420735 -174.613401 
L 280.420735 -174.613401 
L 270.10257 -174.613401 
L 270.10257 -174.613401 
L 269.133078 -174.613401 
L 269.133078 -174.613401 
L 266.43235 -174.613401 
L 266.43235 -174.613401 
L 265.878355 -174.613401 
L 265.878355 -177.143602 
L 261.377142 -177.143602 
L 261.377142 -177.143602 
L 258.122419 -177.143602 
L 258.122419 -179.597349 
L 252.859462 -179.597349 
L 252.859462 -179.597349 
L 249.46624 -179.597349 
L 249.46624 -181.981244 
L 248.704496 -181.981244 
L 248.704496 -181.981244 
L 241.156308 -181.981244 
L 241.156308 -181.981244 
L 237.901585 -181.981244 
L 237.901585 -181.981244 
L 237.001342 -181.981244 
L 237.001342 -181.981244 
L 227.444921 -181.981244 
L 227.444921 -181.981244 
L 218.165497 -181.981244 
L 218.165497 -184.111917 
L 215.257021 -184.111917 
L 215.257021 -186.235584 
L 209.509318 -186.235584 
L 209.509318 -188.352363 
L 209.024572 -188.352363 
L 209.024572 -190.462361 
L 208.262828 -190.462361 
L 208.262828 -190.462361 
L 207.362585 -190.462361 
L 207.362585 -192.526979 
L 206.254595 -192.526979 
L 206.254595 -192.526979 
L 204.800357 -192.526979 
L 204.800357 -194.549051 
L 198.983404 -194.549051 
L 198.983404 -194.549051 
L 198.221661 -194.549051 
L 198.221661 -196.531125 
L 191.850713 -196.531125 
L 191.850713 -196.531125 
L 189.703981 -196.531125 
L 189.703981 -196.531125 
L 187.834246 -196.531125 
L 187.834246 -196.531125 
L 187.557248 -196.531125 
L 187.557248 -198.413113 
L 187.3495 -198.413113 
L 187.3495 -198.413113 
L 181.463298 -198.413113 
L 181.463298 -200.26194 
L 179.108818 -200.26194 
L 179.108818 -202.107119 
L 168.305906 -202.107119 
L 168.305906 -203.948698 
L 165.743677 -203.948698 
L 165.743677 -205.786724 
L 156.118006 -205.786724 
L 156.118006 -207.62124 
L 151.201297 -207.62124 
L 151.201297 -209.452287 
L 138.5979 -209.452287 
L 138.5979 -211.279904 
L 137.351411 -211.279904 
L 137.351411 -213.104128 
L 131.118962 -213.104128 
L 131.118962 -214.924994 
L 130.772715 -214.924994 
L 130.772715 -216.742534 
L 129.803223 -216.742534 
L 129.803223 -218.55678 
L 118.654064 -218.55678 
L 118.654064 -220.367759 
L 113.183359 -220.367759 
L 113.183359 -222.175498 
L 112.629364 -222.175498 
L 112.629364 -223.980024 
L 103.488439 -223.980024 
L 103.488439 -225.78136 
L 101.826452 -225.78136 
L 101.826452 -227.579528 
L 101.687954 -227.579528 
L 101.687954 -229.374548 
L 98.779477 -229.374548 
L 98.779477 -231.166439 
L 95.524754 -231.166439 
L 95.524754 -232.95522 
L 95.386255 -232.95522 
L 95.386255 -232.95522 
L 91.508287 -232.95522 
L 91.508287 -234.720276 
L 90.538795 -234.720276 
L 90.538795 -236.482398 
L 88.66906 -236.482398 
L 88.66906 -238.241598 
L 88.599811 -238.241598 
L 88.599811 -239.99789 
L 88.392063 -239.99789 
L 88.392063 -241.751284 
L 88.322813 -241.751284 
L 88.322813 -243.501791 
L 88.045816 -243.501791 
L 88.045816 -245.249418 
L 86.31458 -245.249418 
L 86.31458 -246.994173 
L 85.552836 -246.994173 
L 85.552836 -248.736064 
L 85.414337 -248.736064 
L 85.414337 -250.475094 
L 85.206589 -250.475094 
L 85.206589 -252.211269 
L 85.137339 -252.211269 
L 85.137339 -253.944592 
L 84.514095 -253.944592 
L 84.514095 -255.675064 
L 82.436612 -255.675064 
L 82.436612 -257.402686 
L 82.228863 -257.402686 
L 82.228863 -259.127459 
L 82.090365 -259.127459 
L 82.090365 -260.849382 
L 82.021115 -260.849382 
L 82.021115 -262.568451 
L 81.813367 -262.568451 
L 81.813367 -264.284664 
L 80.082131 -264.284664 
L 80.082131 -265.998017 
L 79.735884 -265.998017 
L 79.735884 -267.708502 
L 79.528136 -267.708502 
L 79.528136 -269.416115 
L 79.320387 -269.416115 
L 79.320387 -271.120848 
L 79.251138 -271.120848 
L 79.251138 -272.82269 
L 78.143147 -272.82269 
L 78.143147 -274.521633 
L 77.935399 -274.521633 
L 77.935399 -276.217665 
L 77.242904 -276.217665 
L 77.242904 -277.910774 
L 76.827408 -277.910774 
L 76.827408 -279.600946 
L 76.758158 -279.600946 
L 76.758158 -281.288166 
L 76.55041 -281.288166 
L 76.55041 -286.331947 
L 75.996415 -286.331947 
L 75.996415 -289.679377 
L 75.30392 -289.679377 
L 75.30392 -293.014529 
L 75.096172 -293.014529 
L 75.096172 -294.677439 
L 75.026923 -294.677439 
L 75.026923 -296.337201 
L 74.195929 -296.337201 
L 74.195929 -297.993786 
L 73.572684 -297.993786 
L 73.572684 -299.647162 
L 72.810941 -299.647162 
L 72.810941 -301.297297 
L 72.187696 -301.297297 
L 72.187696 -302.944156 
L 72.049197 -302.944156 
L 72.049197 -304.587702 
L 71.979948 -304.587702 
L 71.979948 -306.227895 
L 71.910698 -306.227895 
L 71.910698 -307.864694 
L 71.772199 -307.864694 
L 71.772199 -309.498055 
L 71.356703 -309.498055 
L 71.356703 -311.127933 
L 71.218204 -311.127933 
L 71.218204 -314.377041 
L 71.010456 -314.377041 
L 71.010456 -317.611595 
L 70.941206 -317.611595 
L 70.941206 -319.223269 
L 70.871957 -319.223269 
L 70.871957 -320.831123 
L 69.763966 -320.831123 
L 69.763966 -322.435091 
L 69.27922 -322.435091 
L 69.27922 -325.631078 
L 69.071471 -325.631078 
L 69.071471 -327.222942 
L 68.932973 -327.222942 
L 68.932973 -331.972984 
L 68.863723 -331.972984 
L 68.863723 -333.547498 
L 68.309728 -333.547498 
L 68.309728 -336.682642 
L 67.617233 -336.682642 
L 67.617233 -338.243038 
L 66.093746 -338.243038 
L 66.093746 -339.798479 
L 65.470501 -339.798479 
L 65.470501 -341.348829 
L 65.193503 -341.348829 
L 65.193503 -342.89394 
L 64.916506 -342.89394 
L 64.916506 -344.433654 
L 64.778007 -344.433654 
L 64.778007 -345.967802 
L 64.570258 -345.967802 
L 64.570258 -347.496204 
L 64.085512 -347.496204 
L 64.085512 -349.018663 
L 64.016263 -349.018663 
L 64.016263 -350.534971 
L 63.877764 -350.534971 
L 63.877764 -353.548203 
L 62.146528 -353.548203 
L 62.146528 -355.044616 
L 62.008029 -355.044616 
L 62.008029 -356.533847 
L 61.731032 -356.533847 
L 61.731032 -358.015582 
L 61.592533 -358.015582 
L 61.592533 -359.489474 
L 60.553791 -359.489474 
L 60.553791 -360.955144 
L 60.138295 -360.955144 
L 60.138295 -362.412174 
L 59.861297 -362.412174 
L 59.861297 -362.412174 
L 59.722798 -362.412174 
L 59.722798 -365.283384 
L 59.51505 -365.283384 
L 59.51505 -366.704284 
L 59.307302 -366.704284 
L 59.307302 -368.114572 
L 59.030304 -368.114572 
L 59.030304 -369.513545 
L 58.33781 -369.513545 
L 58.33781 -370.900409 
L 57.09132 -370.900409 
L 57.09132 -372.274256 
L 57.02207 -372.274256 
L 57.02207 -373.634044 
L 56.883572 -373.634044 
L 56.883572 -374.978566 
L 56.398826 -374.978566 
L 56.398826 -377.615911 
L 56.329576 -377.615911 
L 56.329576 -378.905068 
L 56.191077 -378.905068 
L 56.191077 -380.171459 
L 56.052578 -380.171459 
L 56.052578 -382.623195 
L 55.983329 -382.623195 
L 55.983329 -383.799901 
L 55.567832 -383.799901 
L 55.567832 -384.935734 
L 55.498583 -384.935734 
L 55.498583 -386.021733 
L 55.429334 -386.021733 
L 55.429334 -387.044859 
L 55.360084 -387.044859 
L 55.360084 -388.806053 
L 55.152336 -388.806053 
L 55.152336 -389.435979 
L 55.083086 -389.435979 
L 55.083086 -389.682295 
L 54.529091 -389.682295 
z
" id="m534eca3cf6" style="stroke:#808080;stroke-opacity:0.25;"/>
    </defs>
    <g clip-path="url(#p58309a27d9)">
     <use style="fill:#808080;fill-opacity:0.25;stroke:#808080;stroke-opacity:0.25;" x="0" xlink:href="#m534eca3cf6" y="432"/>
    </g>
   </g>
   <g id="matplotlib.axis_1">
    <g id="xtick_1">
     <g id="line2d_1">
      <path clip-path="url(#p58309a27d9)" d="M 54.529091 366.5095 
L 54.529091 26.88 
" style="fill:none;stroke:#b0b0b0;stroke-dasharray:2.96,1.28;stroke-dashoffset:0;stroke-opacity:0.5;stroke-width:0.8;"/>
     </g>
     <g id="line2d_2">
      <defs>
       <path d="M 0 0 
L 0 3.5 
" id="m5fe3a91e25" style="stroke:#000000;stroke-width:0.8;"/>
      </defs>
      <g>
       <use style="stroke:#000000;stroke-width:0.8;" x="54.529091" xlink:href="#m5fe3a91e25" y="366.5095"/>
      </g>
     </g>
     <g id="text_1">
      <text style="font-family:DejaVu Sans;font-size:10px;font-stretch:normal;font-style:normal;font-weight:normal;text-anchor:middle;" transform="rotate(-0, 54.529091, 381.107937)" x="54.529091" y="381.107937">0</text>
     </g>
    </g>
    <g id="xtick_2">
     <g id="line2d_3">
      <path clip-path="url(#p58309a27d9)" d="M 123.778522 366.5095 
L 123.778522 26.88 
" style="fill:none;stroke:#b0b0b0;stroke-dasharray:2.96,1.28;stroke-dashoffset:0;stroke-opacity:0.5;stroke-width:0.8;"/>
     </g>
     <g id="line2d_4">
      <g>
       <use style="stroke:#000000;stroke-width:0.8;" x="123.778522" xlink:href="#m5fe3a91e25" y="366.5095"/>
      </g>
     </g>
     <g id="text_2">
      <text style="font-family:DejaVu Sans;font-size:10px;font-stretch:normal;font-style:normal;font-weight:normal;text-anchor:middle;" transform="rotate(-0, 123.778522, 381.107937)" x="123.778522" y="381.107937">1000</text>
     </g>
    </g>
    <g id="xtick_3">
     <g id="line2d_5">
      <path clip-path="url(#p58309a27d9)" d="M 193.027953 366.5095 
L 193.027953 26.88 
" style="fill:none;stroke:#b0b0b0;stroke-dasharray:2.96,1.28;stroke-dashoffset:0;stroke-opacity:0.5;stroke-width:0.8;"/>
     </g>
     <g id="line2d_6">
      <g>
       <use style="stroke:#000000;stroke-width:0.8;" x="193.027953" xlink:href="#m5fe3a91e25" y="366.5095"/>
      </g>
     </g>
     <g id="text_3">
      <text style="font-family:DejaVu Sans;font-size:10px;font-stretch:normal;font-style:normal;font-weight:normal;text-anchor:middle;" transform="rotate(-0, 193.027953, 381.107937)" x="193.027953" y="381.107937">2000</text>
     </g>
    </g>
    <g id="xtick_4">
     <g id="line2d_7">
      <path clip-path="url(#p58309a27d9)" d="M 262.277384 366.5095 
L 262.277384 26.88 
" style="fill:none;stroke:#b0b0b0;stroke-dasharray:2.96,1.28;stroke-dashoffset:0;stroke-opacity:0.5;stroke-width:0.8;"/>
     </g>
     <g id="line2d_8">
      <g>
       <use style="stroke:#000000;stroke-width:0.8;" x="262.277384" xlink:href="#m5fe3a91e25" y="366.5095"/>
      </g>
     </g>
     <g id="text_4">
      <text style="font-family:DejaVu Sans;font-size:10px;font-stretch:normal;font-style:normal;font-weight:normal;text-anchor:middle;" transform="rotate(-0, 262.277384, 381.107937)" x="262.277384" y="381.107937">3000</text>
     </g>
    </g>
    <g id="xtick_5">
     <g id="line2d_9">
      <path clip-path="url(#p58309a27d9)" d="M 331.526816 366.5095 
L 331.526816 26.88 
" style="fill:none;stroke:#b0b0b0;stroke-dasharray:2.96,1.28;stroke-dashoffset:0;stroke-opacity:0.5;stroke-width:0.8;"/>
     </g>
     <g id="line2d_10">
      <g>
       <use style="stroke:#000000;stroke-width:0.8;" x="331.526816" xlink:href="#m5fe3a91e25" y="366.5095"/>
      </g>
     </g>
     <g id="text_5">
      <text style="font-family:DejaVu Sans;font-size:10px;font-stretch:normal;font-style:normal;font-weight:normal;text-anchor:middle;" transform="rotate(-0, 331.526816, 381.107937)" x="331.526816" y="381.107937">4000</text>
     </g>
    </g>
    <g id="xtick_6">
     <g id="line2d_11">
      <path clip-path="url(#p58309a27d9)" d="M 400.776247 366.5095 
L 400.776247 26.88 
" style="fill:none;stroke:#b0b0b0;stroke-dasharray:2.96,1.28;stroke-dashoffset:0;stroke-opacity:0.5;stroke-width:0.8;"/>
     </g>
     <g id="line2d_12">
      <g>
       <use style="stroke:#000000;stroke-width:0.8;" x="400.776247" xlink:href="#m5fe3a91e25" y="366.5095"/>
      </g>
     </g>
     <g id="text_6">
      <text style="font-family:DejaVu Sans;font-size:10px;font-stretch:normal;font-style:normal;font-weight:normal;text-anchor:middle;" transform="rotate(-0, 400.776247, 381.107937)" x="400.776247" y="381.107937">5000</text>
     </g>
    </g>
    <g id="xtick_7">
     <g id="line2d_13">
      <path clip-path="url(#p58309a27d9)" d="M 470.025678 366.5095 
L 470.025678 26.88 
" style="fill:none;stroke:#b0b0b0;stroke-dasharray:2.96,1.28;stroke-dashoffset:0;stroke-opacity:0.5;stroke-width:0.8;"/>
     </g>
     <g id="line2d_14">
      <g>
       <use style="stroke:#000000;stroke-width:0.8;" x="470.025678" xlink:href="#m5fe3a91e25" y="366.5095"/>
      </g>
     </g>
     <g id="text_7">
      <text style="font-family:DejaVu Sans;font-size:10px;font-stretch:normal;font-style:normal;font-weight:normal;text-anchor:middle;" transform="rotate(-0, 470.025678, 381.107937)" x="470.025678" y="381.107937">6000</text>
     </g>
    </g>
    <g id="text_8">
     <text style="font-family:DejaVu Sans;font-size:10px;font-stretch:normal;font-style:normal;font-weight:normal;" transform="translate(241.511406 394.786063)">timeline </text>
     <text style="font-family:DejaVu Sans;font-size:10px;font-stretch:normal;font-style:normal;font-weight:normal;" transform="translate(113.085625 405.983875)">    dataset: lgn_pronostic_clin_factors_LSC17, input_dim: 34 </text>
     <text style="font-family:DejaVu Sans;font-size:10px;font-stretch:normal;font-style:normal;font-weight:normal;" transform="translate(188.023125 417.459812)">    c_index: [0.701 0.67  0.73 ]</text>
    </g>
   </g>
   <g id="matplotlib.axis_2">
    <g id="ytick_1">
     <g id="line2d_15">
      <path clip-path="url(#p58309a27d9)" d="M 33.64 351.071795 
L 493.2 351.071795 
" style="fill:none;stroke:#b0b0b0;stroke-dasharray:2.96,1.28;stroke-dashoffset:0;stroke-opacity:0.5;stroke-width:0.8;"/>
     </g>
     <g id="line2d_16">
      <defs>
       <path d="M 0 0 
L -3.5 0 
" id="mdac4e5bea6" style="stroke:#000000;stroke-width:0.8;"/>
      </defs>
      <g>
       <use style="stroke:#000000;stroke-width:0.8;" x="33.64" xlink:href="#mdac4e5bea6" y="351.071795"/>
      </g>
     </g>
     <g id="text_9">
      <text style="font-family:DejaVu Sans;font-size:10px;font-stretch:normal;font-style:normal;font-weight:normal;text-anchor:end;" transform="rotate(-0, 26.64, 354.871014)" x="26.64" y="354.871014">0.0</text>
     </g>
    </g>
    <g id="ytick_2">
     <g id="line2d_17">
      <path clip-path="url(#p58309a27d9)" d="M 33.64 289.320977 
L 493.2 289.320977 
" style="fill:none;stroke:#b0b0b0;stroke-dasharray:2.96,1.28;stroke-dashoffset:0;stroke-opacity:0.5;stroke-width:0.8;"/>
     </g>
     <g id="line2d_18">
      <g>
       <use style="stroke:#000000;stroke-width:0.8;" x="33.64" xlink:href="#mdac4e5bea6" y="289.320977"/>
      </g>
     </g>
     <g id="text_10">
      <text style="font-family:DejaVu Sans;font-size:10px;font-stretch:normal;font-style:normal;font-weight:normal;text-anchor:end;" transform="rotate(-0, 26.64, 293.120196)" x="26.64" y="293.120196">0.2</text>
     </g>
    </g>
    <g id="ytick_3">
     <g id="line2d_19">
      <path clip-path="url(#p58309a27d9)" d="M 33.64 227.570159 
L 493.2 227.570159 
" style="fill:none;stroke:#b0b0b0;stroke-dasharray:2.96,1.28;stroke-dashoffset:0;stroke-opacity:0.5;stroke-width:0.8;"/>
     </g>
     <g id="line2d_20">
      <g>
       <use style="stroke:#000000;stroke-width:0.8;" x="33.64" xlink:href="#mdac4e5bea6" y="227.570159"/>
      </g>
     </g>
     <g id="text_11">
      <text style="font-family:DejaVu Sans;font-size:10px;font-stretch:normal;font-style:normal;font-weight:normal;text-anchor:end;" transform="rotate(-0, 26.64, 231.369378)" x="26.64" y="231.369378">0.4</text>
     </g>
    </g>
    <g id="ytick_4">
     <g id="line2d_21">
      <path clip-path="url(#p58309a27d9)" d="M 33.64 165.819341 
L 493.2 165.819341 
" style="fill:none;stroke:#b0b0b0;stroke-dasharray:2.96,1.28;stroke-dashoffset:0;stroke-opacity:0.5;stroke-width:0.8;"/>
     </g>
     <g id="line2d_22">
      <g>
       <use style="stroke:#000000;stroke-width:0.8;" x="33.64" xlink:href="#mdac4e5bea6" y="165.819341"/>
      </g>
     </g>
     <g id="text_12">
      <text style="font-family:DejaVu Sans;font-size:10px;font-stretch:normal;font-style:normal;font-weight:normal;text-anchor:end;" transform="rotate(-0, 26.64, 169.61856)" x="26.64" y="169.61856">0.6</text>
     </g>
    </g>
    <g id="ytick_5">
     <g id="line2d_23">
      <path clip-path="url(#p58309a27d9)" d="M 33.64 104.068523 
L 493.2 104.068523 
" style="fill:none;stroke:#b0b0b0;stroke-dasharray:2.96,1.28;stroke-dashoffset:0;stroke-opacity:0.5;stroke-width:0.8;"/>
     </g>
     <g id="line2d_24">
      <g>
       <use style="stroke:#000000;stroke-width:0.8;" x="33.64" xlink:href="#mdac4e5bea6" y="104.068523"/>
      </g>
     </g>
     <g id="text_13">
      <text style="font-family:DejaVu Sans;font-size:10px;font-stretch:normal;font-style:normal;font-weight:normal;text-anchor:end;" transform="rotate(-0, 26.64, 107.867741)" x="26.64" y="107.867741">0.8</text>
     </g>
    </g>
    <g id="ytick_6">
     <g id="line2d_25">
      <path clip-path="url(#p58309a27d9)" d="M 33.64 42.317705 
L 493.2 42.317705 
" style="fill:none;stroke:#b0b0b0;stroke-dasharray:2.96,1.28;stroke-dashoffset:0;stroke-opacity:0.5;stroke-width:0.8;"/>
     </g>
     <g id="line2d_26">
      <g>
       <use style="stroke:#000000;stroke-width:0.8;" x="33.64" xlink:href="#mdac4e5bea6" y="42.317705"/>
      </g>
     </g>
     <g id="text_14">
      <text style="font-family:DejaVu Sans;font-size:10px;font-stretch:normal;font-style:normal;font-weight:normal;text-anchor:end;" transform="rotate(-0, 26.64, 46.116923)" x="26.64" y="46.116923">1.0</text>
     </g>
    </g>
   </g>
   <g id="line2d_27">
    <defs>
     <path d="M -3 3 
L 3 -3 
M -3 -3 
L 3 3 
" id="m298a813f3c" style="stroke:#ff0000;"/>
    </defs>
    <g clip-path="url(#p58309a27d9)">
     <use style="fill:#ff0000;stroke:#ff0000;" x="269.133078" xlink:href="#m298a813f3c" y="343.155024"/>
    </g>
   </g>
   <g id="line2d_28">
    <path clip-path="url(#p58309a27d9)" d="M 54.529091 42.317705 
L 55.290835 42.317705 
L 55.360084 54.192862 
L 55.775581 54.192862 
L 55.775581 58.151248 
L 55.91408 58.151248 
L 55.91408 62.109633 
L 56.052578 62.109633 
L 56.052578 70.026405 
L 56.537324 70.026405 
L 56.606574 77.943177 
L 56.952821 77.943177 
L 57.02207 89.818334 
L 57.783814 89.818334 
L 57.783814 93.77672 
L 58.060812 93.77672 
L 58.060812 97.735105 
L 58.822556 97.735105 
L 58.822556 101.693491 
L 59.584299 101.693491 
L 59.584299 105.651877 
L 59.861297 105.651877 
L 59.861297 109.610263 
L 60.138295 109.610263 
L 60.138295 113.568649 
L 60.276794 113.568649 
L 60.276794 117.527034 
L 60.415293 117.527034 
L 60.415293 121.48542 
L 60.623041 121.48542 
L 60.623041 125.443806 
L 60.830789 125.443806 
L 60.830789 129.402192 
L 60.969288 129.402192 
L 60.969288 133.360578 
L 61.246286 133.360578 
L 61.246286 137.318963 
L 61.523283 137.318963 
L 61.592533 145.235735 
L 62.215778 145.235735 
L 62.285027 157.110892 
L 62.839023 157.110892 
L 62.839023 161.069278 
L 63.046771 161.069278 
L 63.046771 165.027664 
L 63.323769 165.027664 
L 63.323769 168.98605 
L 63.462268 168.98605 
L 63.462268 172.944435 
L 63.739265 172.944435 
L 63.739265 176.902821 
L 63.947014 176.902821 
L 63.947014 180.861207 
L 64.43176 180.861207 
L 64.43176 184.819593 
L 64.708757 184.819593 
L 64.778007 192.736364 
L 64.916506 192.736364 
L 64.916506 196.69475 
L 65.055004 196.69475 
L 65.055004 204.611522 
L 65.678249 204.611522 
L 65.678249 208.569907 
L 65.816748 208.569907 
L 65.816748 212.528293 
L 66.162995 212.528293 
L 66.162995 216.486679 
L 66.439993 216.486679 
L 66.439993 220.445065 
L 66.647741 220.445065 
L 66.716991 228.361836 
L 67.409485 228.361836 
L 67.409485 232.320222 
L 69.833215 232.320222 
L 69.833215 236.278608 
L 70.733458 236.278608 
L 70.802707 244.195379 
L 71.495202 244.195379 
L 71.495202 248.153765 
L 72.741691 248.153765 
L 72.741691 252.112151 
L 73.018689 252.112151 
L 73.018689 256.070537 
L 74.334428 256.070537 
L 74.334428 260.028922 
L 75.026923 260.028922 
L 75.026923 263.987308 
L 75.442419 263.987308 
L 75.442419 267.945694 
L 75.788666 267.945694 
L 75.788666 271.90408 
L 75.996415 271.90408 
L 75.996415 275.862466 
L 77.242904 275.862466 
L 77.242904 279.820851 
L 80.22063 279.820851 
L 80.22063 283.779237 
L 84.029349 283.779237 
L 84.029349 287.737623 
L 88.599811 287.737623 
L 88.599811 291.696009 
L 89.777051 291.696009 
L 89.777051 295.654395 
L 90.469546 295.654395 
L 90.469546 299.61278 
L 96.217248 299.61278 
L 96.217248 303.571166 
L 99.194974 303.571166 
L 99.194974 307.529552 
L 101.618704 307.529552 
L 101.618704 311.487938 
L 104.52718 311.487938 
L 104.52718 315.446323 
L 108.128151 315.446323 
L 108.128151 319.404709 
L 110.274883 319.404709 
L 110.274883 323.363095 
L 110.69038 323.363095 
L 110.69038 327.321481 
L 111.86762 327.321481 
L 111.86762 331.279867 
L 112.767863 331.279867 
L 112.767863 335.238252 
L 116.645831 335.238252 
L 116.645831 339.196638 
L 150.231805 339.196638 
L 150.231805 343.155024 
L 347.800432 343.155024 
L 347.800432 351.071795 
L 347.800432 351.071795 
" style="fill:none;stroke:#ff0000;stroke-linecap:square;stroke-width:1.5;"/>
   </g>
   <g id="line2d_29">
    <defs>
     <path d="M -3 3 
L 3 -3 
M -3 -3 
L 3 3 
" id="mac3abf5b75" style="stroke:#0000ff;"/>
    </defs>
    <g clip-path="url(#p58309a27d9)">
     <use style="fill:#0000ff;stroke:#0000ff;" x="182.709788" xlink:href="#mac3abf5b75" y="124.652129"/>
     <use style="fill:#0000ff;stroke:#0000ff;" x="184.579523" xlink:href="#mac3abf5b75" y="124.652129"/>
     <use style="fill:#0000ff;stroke:#0000ff;" x="193.651198" xlink:href="#mac3abf5b75" y="124.652129"/>
     <use style="fill:#0000ff;stroke:#0000ff;" x="208.678325" xlink:href="#mac3abf5b75" y="124.652129"/>
     <use style="fill:#0000ff;stroke:#0000ff;" x="218.373245" xlink:href="#mac3abf5b75" y="132.459704"/>
     <use style="fill:#0000ff;stroke:#0000ff;" x="224.259447" xlink:href="#mac3abf5b75" y="132.459704"/>
     <use style="fill:#0000ff;stroke:#0000ff;" x="226.26768" xlink:href="#mac3abf5b75" y="132.459704"/>
     <use style="fill:#0000ff;stroke:#0000ff;" x="232.153882" xlink:href="#mac3abf5b75" y="132.459704"/>
     <use style="fill:#0000ff;stroke:#0000ff;" x="235.685603" xlink:href="#mac3abf5b75" y="132.459704"/>
     <use style="fill:#0000ff;stroke:#0000ff;" x="245.519022" xlink:href="#mac3abf5b75" y="132.459704"/>
     <use style="fill:#0000ff;stroke:#0000ff;" x="253.759704" xlink:href="#mac3abf5b75" y="132.459704"/>
     <use style="fill:#0000ff;stroke:#0000ff;" x="263.177627" xlink:href="#mac3abf5b75" y="132.459704"/>
     <use style="fill:#0000ff;stroke:#0000ff;" x="280.697733" xlink:href="#mac3abf5b75" y="132.459704"/>
     <use style="fill:#0000ff;stroke:#0000ff;" x="284.160205" xlink:href="#mac3abf5b75" y="132.459704"/>
     <use style="fill:#0000ff;stroke:#0000ff;" x="289.838658" xlink:href="#mac3abf5b75" y="132.459704"/>
     <use style="fill:#0000ff;stroke:#0000ff;" x="316.638188" xlink:href="#mac3abf5b75" y="132.459704"/>
     <use style="fill:#0000ff;stroke:#0000ff;" x="322.039643" xlink:href="#mac3abf5b75" y="132.459704"/>
     <use style="fill:#0000ff;stroke:#0000ff;" x="330.765072" xlink:href="#mac3abf5b75" y="132.459704"/>
     <use style="fill:#0000ff;stroke:#0000ff;" x="333.812047" xlink:href="#mac3abf5b75" y="132.459704"/>
     <use style="fill:#0000ff;stroke:#0000ff;" x="333.881296" xlink:href="#mac3abf5b75" y="132.459704"/>
     <use style="fill:#0000ff;stroke:#0000ff;" x="338.31326" xlink:href="#mac3abf5b75" y="132.459704"/>
     <use style="fill:#0000ff;stroke:#0000ff;" x="344.060963" xlink:href="#mac3abf5b75" y="132.459704"/>
     <use style="fill:#0000ff;stroke:#0000ff;" x="370.652744" xlink:href="#mac3abf5b75" y="132.459704"/>
     <use style="fill:#0000ff;stroke:#0000ff;" x="383.256141" xlink:href="#mac3abf5b75" y="132.459704"/>
     <use style="fill:#0000ff;stroke:#0000ff;" x="389.904086" xlink:href="#mac3abf5b75" y="132.459704"/>
     <use style="fill:#0000ff;stroke:#0000ff;" x="398.491015" xlink:href="#mac3abf5b75" y="132.459704"/>
     <use style="fill:#0000ff;stroke:#0000ff;" x="408.393684" xlink:href="#mac3abf5b75" y="132.459704"/>
     <use style="fill:#0000ff;stroke:#0000ff;" x="425.221296" xlink:href="#mac3abf5b75" y="132.459704"/>
     <use style="fill:#0000ff;stroke:#0000ff;" x="441.356413" xlink:href="#mac3abf5b75" y="132.459704"/>
     <use style="fill:#0000ff;stroke:#0000ff;" x="455.483297" xlink:href="#mac3abf5b75" y="132.459704"/>
     <use style="fill:#0000ff;stroke:#0000ff;" x="459.499764" xlink:href="#mac3abf5b75" y="132.459704"/>
    </g>
   </g>
   <g id="line2d_30">
    <path clip-path="url(#p58309a27d9)" d="M 54.529091 42.317705 
L 65.955247 42.317705 
L 65.955247 49.178907 
L 74.680675 49.178907 
L 74.680675 56.040109 
L 75.442419 56.040109 
L 75.442419 62.901311 
L 75.580918 62.901311 
L 75.580918 69.762513 
L 88.045816 69.762513 
L 88.045816 76.623715 
L 89.084557 76.623715 
L 89.084557 83.484917 
L 100.233715 83.484917 
L 100.233715 90.346119 
L 106.812411 90.346119 
L 106.812411 97.207321 
L 114.152851 97.207321 
L 114.152851 104.068523 
L 121.008545 104.068523 
L 121.008545 110.929725 
L 122.462783 110.929725 
L 122.462783 117.790927 
L 162.9737 117.790927 
L 162.9737 124.652129 
L 182.709788 124.652129 
L 182.709788 124.652129 
L 184.579523 124.652129 
L 184.579523 124.652129 
L 193.651198 124.652129 
L 193.651198 124.652129 
L 208.678325 124.652129 
L 208.678325 124.652129 
L 218.026998 124.652129 
L 218.026998 132.459704 
L 218.373245 132.459704 
L 218.373245 132.459704 
L 224.259447 132.459704 
L 224.259447 132.459704 
L 226.26768 132.459704 
L 226.26768 132.459704 
L 232.153882 132.459704 
L 232.153882 132.459704 
L 235.685603 132.459704 
L 235.685603 132.459704 
L 245.519022 132.459704 
L 245.519022 132.459704 
L 253.759704 132.459704 
L 253.759704 132.459704 
L 263.177627 132.459704 
L 263.177627 132.459704 
L 280.697733 132.459704 
L 280.697733 132.459704 
L 284.160205 132.459704 
L 284.160205 132.459704 
L 289.838658 132.459704 
L 289.838658 132.459704 
L 316.638188 132.459704 
L 316.638188 132.459704 
L 322.039643 132.459704 
L 322.039643 132.459704 
L 330.765072 132.459704 
L 330.765072 132.459704 
L 333.812047 132.459704 
L 333.812047 132.459704 
L 333.881296 132.459704 
L 333.881296 132.459704 
L 338.31326 132.459704 
L 338.31326 132.459704 
L 344.060963 132.459704 
L 344.060963 132.459704 
L 370.652744 132.459704 
L 370.652744 132.459704 
L 383.256141 132.459704 
L 383.256141 132.459704 
L 389.904086 132.459704 
L 389.904086 132.459704 
L 398.491015 132.459704 
L 398.491015 132.459704 
L 408.393684 132.459704 
L 408.393684 132.459704 
L 425.221296 132.459704 
L 425.221296 132.459704 
L 441.356413 132.459704 
L 441.356413 132.459704 
L 455.483297 132.459704 
L 455.483297 132.459704 
L 459.499764 132.459704 
L 459.499764 132.459704 
" style="fill:none;stroke:#0000ff;stroke-linecap:square;stroke-width:1.5;"/>
   </g>
   <g id="line2d_31">
    <defs>
     <path d="M -3 3 
L 3 -3 
M -3 -3 
L 3 3 
" id="meef13f32ef" style="stroke:#808080;"/>
    </defs>
    <g clip-path="url(#p58309a27d9)">
     <use style="fill:#808080;stroke:#808080;" x="59.861297" xlink:href="#meef13f32ef" y="82.438293"/>
     <use style="fill:#808080;stroke:#808080;" x="95.386255" xlink:href="#meef13f32ef" y="221.14448"/>
     <use style="fill:#808080;stroke:#808080;" x="187.3495" xlink:href="#meef13f32ef" y="254.961179"/>
     <use style="fill:#808080;stroke:#808080;" x="187.834246" xlink:href="#meef13f32ef" y="256.774587"/>
     <use style="fill:#808080;stroke:#808080;" x="189.703981" xlink:href="#meef13f32ef" y="256.774587"/>
     <use style="fill:#808080;stroke:#808080;" x="191.850713" xlink:href="#meef13f32ef" y="256.774587"/>
     <use style="fill:#808080;stroke:#808080;" x="198.983404" xlink:href="#meef13f32ef" y="258.69902"/>
     <use style="fill:#808080;stroke:#808080;" x="206.254595" xlink:href="#meef13f32ef" y="260.664398"/>
     <use style="fill:#808080;stroke:#808080;" x="208.262828" xlink:href="#meef13f32ef" y="262.673451"/>
     <use style="fill:#808080;stroke:#808080;" x="227.444921" xlink:href="#meef13f32ef" y="270.896553"/>
     <use style="fill:#808080;stroke:#808080;" x="237.001342" xlink:href="#meef13f32ef" y="270.896553"/>
     <use style="fill:#808080;stroke:#808080;" x="237.901585" xlink:href="#meef13f32ef" y="270.896553"/>
     <use style="fill:#808080;stroke:#808080;" x="241.156308" xlink:href="#meef13f32ef" y="270.896553"/>
     <use style="fill:#808080;stroke:#808080;" x="248.704496" xlink:href="#meef13f32ef" y="270.896553"/>
     <use style="fill:#808080;stroke:#808080;" x="252.859462" xlink:href="#meef13f32ef" y="273.254648"/>
     <use style="fill:#808080;stroke:#808080;" x="261.377142" xlink:href="#meef13f32ef" y="275.686434"/>
     <use style="fill:#808080;stroke:#808080;" x="266.43235" xlink:href="#meef13f32ef" y="278.199279"/>
     <use style="fill:#808080;stroke:#808080;" x="269.133078" xlink:href="#meef13f32ef" y="278.199279"/>
     <use style="fill:#808080;stroke:#808080;" x="270.10257" xlink:href="#meef13f32ef" y="278.199279"/>
     <use style="fill:#808080;stroke:#808080;" x="280.420735" xlink:href="#meef13f32ef" y="278.199279"/>
     <use style="fill:#808080;stroke:#808080;" x="295.586361" xlink:href="#meef13f32ef" y="278.199279"/>
     <use style="fill:#808080;stroke:#808080;" x="302.234306" xlink:href="#meef13f32ef" y="278.199279"/>
     <use style="fill:#808080;stroke:#808080;" x="322.385891" xlink:href="#meef13f32ef" y="278.199279"/>
     <use style="fill:#808080;stroke:#808080;" x="330.626573" xlink:href="#meef13f32ef" y="278.199279"/>
     <use style="fill:#808080;stroke:#808080;" x="333.535049" xlink:href="#meef13f32ef" y="278.199279"/>
     <use style="fill:#808080;stroke:#808080;" x="333.673548" xlink:href="#meef13f32ef" y="278.199279"/>
     <use style="fill:#808080;stroke:#808080;" x="351.609151" xlink:href="#meef13f32ef" y="278.199279"/>
     <use style="fill:#808080;stroke:#808080;" x="356.52586" xlink:href="#meef13f32ef" y="278.199279"/>
     <use style="fill:#808080;stroke:#808080;" x="357.910849" xlink:href="#meef13f32ef" y="278.199279"/>
     <use style="fill:#808080;stroke:#808080;" x="359.503586" xlink:href="#meef13f32ef" y="278.199279"/>
     <use style="fill:#808080;stroke:#808080;" x="374.738461" xlink:href="#meef13f32ef" y="278.199279"/>
     <use style="fill:#808080;stroke:#808080;" x="376.746694" xlink:href="#meef13f32ef" y="278.199279"/>
     <use style="fill:#808080;stroke:#808080;" x="380.693912" xlink:href="#meef13f32ef" y="283.804858"/>
     <use style="fill:#808080;stroke:#808080;" x="388.726846" xlink:href="#meef13f32ef" y="283.804858"/>
     <use style="fill:#808080;stroke:#808080;" x="391.566072" xlink:href="#meef13f32ef" y="283.804858"/>
     <use style="fill:#808080;stroke:#808080;" x="392.604814" xlink:href="#meef13f32ef" y="283.804858"/>
     <use style="fill:#808080;stroke:#808080;" x="393.505056" xlink:href="#meef13f32ef" y="283.804858"/>
     <use style="fill:#808080;stroke:#808080;" x="405.069711" xlink:href="#meef13f32ef" y="283.804858"/>
     <use style="fill:#808080;stroke:#808080;" x="432.907983" xlink:href="#meef13f32ef" y="283.804858"/>
     <use style="fill:#808080;stroke:#808080;" x="445.926876" xlink:href="#meef13f32ef" y="283.804858"/>
     <use style="fill:#808080;stroke:#808080;" x="458.184025" xlink:href="#meef13f32ef" y="283.804858"/>
     <use style="fill:#808080;stroke:#808080;" x="463.931728" xlink:href="#meef13f32ef" y="283.804858"/>
     <use style="fill:#808080;stroke:#808080;" x="464.347225" xlink:href="#meef13f32ef" y="283.804858"/>
     <use style="fill:#808080;stroke:#808080;" x="472.310909" xlink:href="#meef13f32ef" y="283.804858"/>
    </g>
   </g>
   <g id="line2d_32">
    <path clip-path="url(#p58309a27d9)" d="M 54.529091 42.317705 
L 55.083086 42.317705 
L 55.152336 45.806451 
L 55.360084 45.806451 
L 55.429334 51.039572 
L 55.498583 51.039572 
L 55.567832 54.528318 
L 55.983329 54.528318 
L 56.052578 59.761438 
L 56.191077 59.761438 
L 56.191077 61.505812 
L 56.329576 61.505812 
L 56.398826 66.738932 
L 56.883572 66.738932 
L 56.883572 68.483305 
L 57.02207 68.483305 
L 57.09132 71.972052 
L 58.33781 71.972052 
L 58.33781 73.716426 
L 59.030304 73.716426 
L 59.030304 75.460799 
L 59.307302 75.460799 
L 59.307302 77.205172 
L 59.51505 77.205172 
L 59.51505 78.949546 
L 59.722798 78.949546 
L 59.722798 82.438293 
L 60.138295 82.438293 
L 60.138295 84.194067 
L 60.553791 84.194067 
L 60.553791 85.949842 
L 61.592533 85.949842 
L 61.592533 87.705616 
L 61.731032 87.705616 
L 61.731032 89.461391 
L 62.008029 89.461391 
L 62.008029 91.217165 
L 62.146528 91.217165 
L 62.146528 92.97294 
L 63.877764 92.97294 
L 63.877764 96.484489 
L 64.016263 96.484489 
L 64.085512 99.996038 
L 64.570258 99.996038 
L 64.570258 101.751812 
L 64.778007 101.751812 
L 64.778007 103.507587 
L 64.916506 103.507587 
L 64.916506 105.263361 
L 65.193503 105.263361 
L 65.193503 107.019136 
L 65.470501 107.019136 
L 65.470501 108.774911 
L 66.093746 108.774911 
L 66.093746 110.530685 
L 67.617233 110.530685 
L 67.617233 112.28646 
L 68.309728 112.28646 
L 68.309728 115.798009 
L 68.863723 115.798009 
L 68.932973 122.821107 
L 69.071471 122.821107 
L 69.071471 124.576881 
L 69.27922 124.576881 
L 69.27922 128.08843 
L 69.763966 128.08843 
L 69.763966 129.844205 
L 70.871957 129.844205 
L 70.941206 133.355754 
L 71.010456 133.355754 
L 71.010456 136.867303 
L 71.218204 136.867303 
L 71.218204 140.378852 
L 71.356703 140.378852 
L 71.356703 142.134627 
L 71.772199 142.134627 
L 71.772199 143.890401 
L 71.910698 143.890401 
L 71.979948 147.40195 
L 72.049197 147.40195 
L 72.049197 149.157725 
L 72.187696 149.157725 
L 72.187696 150.913499 
L 72.810941 150.913499 
L 72.810941 152.669274 
L 73.572684 152.669274 
L 73.572684 154.425048 
L 74.195929 154.425048 
L 74.195929 156.180823 
L 75.026923 156.180823 
L 75.096172 159.692372 
L 75.30392 159.692372 
L 75.30392 163.203921 
L 75.996415 163.203921 
L 75.996415 166.71547 
L 76.55041 166.71547 
L 76.55041 171.982794 
L 76.758158 171.982794 
L 76.827408 175.494343 
L 77.242904 175.494343 
L 77.242904 177.250117 
L 77.935399 177.250117 
L 77.935399 179.005892 
L 78.143147 179.005892 
L 78.143147 180.761666 
L 79.251138 180.761666 
L 79.320387 184.273215 
L 79.528136 184.273215 
L 79.528136 186.02899 
L 79.735884 186.02899 
L 79.735884 187.784764 
L 80.082131 187.784764 
L 80.082131 189.540539 
L 81.813367 189.540539 
L 81.813367 191.296313 
L 82.021115 191.296313 
L 82.090365 194.807862 
L 82.228863 194.807862 
L 82.228863 196.563637 
L 82.436612 196.563637 
L 82.436612 198.319411 
L 84.514095 198.319411 
L 84.514095 200.075186 
L 85.137339 200.075186 
L 85.206589 203.586735 
L 85.414337 203.586735 
L 85.414337 205.34251 
L 85.552836 205.34251 
L 85.552836 207.098284 
L 86.31458 207.098284 
L 86.31458 208.854059 
L 88.045816 208.854059 
L 88.045816 210.609833 
L 88.322813 210.609833 
L 88.392063 214.121382 
L 88.599811 214.121382 
L 88.66906 217.632931 
L 90.538795 217.632931 
L 90.538795 219.388706 
L 91.508287 219.388706 
L 91.508287 221.14448 
L 95.524754 221.14448 
L 95.524754 222.924307 
L 98.779477 222.924307 
L 98.779477 224.704133 
L 101.687954 224.704133 
L 101.687954 226.483959 
L 101.826452 226.483959 
L 101.826452 228.263785 
L 103.488439 228.263785 
L 103.488439 230.043612 
L 112.629364 230.043612 
L 112.629364 231.823438 
L 113.183359 231.823438 
L 113.183359 233.603264 
L 118.654064 233.603264 
L 118.654064 235.38309 
L 129.803223 235.38309 
L 129.803223 237.162916 
L 130.772715 237.162916 
L 130.772715 238.942743 
L 131.118962 238.942743 
L 131.118962 240.722569 
L 137.351411 240.722569 
L 137.351411 242.502395 
L 138.5979 242.502395 
L 138.5979 244.282221 
L 151.201297 244.282221 
L 151.201297 246.062048 
L 156.118006 246.062048 
L 156.118006 247.841874 
L 165.743677 247.841874 
L 165.743677 249.6217 
L 168.305906 249.6217 
L 168.305906 251.401526 
L 179.108818 251.401526 
L 179.108818 253.181353 
L 181.463298 253.181353 
L 181.463298 254.961179 
L 187.557248 254.961179 
L 187.557248 256.774587 
L 198.221661 256.774587 
L 198.221661 258.69902 
L 204.800357 258.69902 
L 204.800357 260.664398 
L 207.362585 260.664398 
L 207.362585 262.673451 
L 209.024572 262.673451 
L 209.024572 264.729226 
L 209.509318 264.729226 
L 209.509318 266.785002 
L 215.257021 266.785002 
L 215.257021 268.840777 
L 218.165497 268.840777 
L 218.165497 270.896553 
L 249.46624 270.896553 
L 249.46624 273.254648 
L 258.122419 273.254648 
L 258.122419 275.686434 
L 265.878355 275.686434 
L 265.878355 278.199279 
L 377.716186 278.199279 
L 377.716186 283.804858 
L 472.310909 283.804858 
L 472.310909 283.804858 
" style="fill:none;stroke:#808080;stroke-linecap:square;stroke-width:1.5;"/>
   </g>
   <g id="patch_3">
    <path d="M 33.64 366.5095 
L 33.64 26.88 
" style="fill:none;stroke:#000000;stroke-linecap:square;stroke-linejoin:miter;stroke-width:0.8;"/>
   </g>
   <g id="patch_4">
    <path d="M 493.2 366.5095 
L 493.2 26.88 
" style="fill:none;stroke:#000000;stroke-linecap:square;stroke-linejoin:miter;stroke-width:0.8;"/>
   </g>
   <g id="patch_5">
    <path d="M 33.64 366.5095 
L 493.2 366.5095 
" style="fill:none;stroke:#000000;stroke-linecap:square;stroke-linejoin:miter;stroke-width:0.8;"/>
   </g>
   <g id="patch_6">
    <path d="M 33.64 26.88 
L 493.2 26.88 
" style="fill:none;stroke:#000000;stroke-linecap:square;stroke-linejoin:miter;stroke-width:0.8;"/>
   </g>
   <g id="text_15">
    <text style="font-family:DejaVu Sans;font-size:12px;font-stretch:normal;font-style:normal;font-weight:normal;text-anchor:middle;" transform="rotate(-0, 263.42, 20.88)" x="263.42" y="20.88">Survival curves - model_type: ridge_cph_lifelines</text>
   </g>
   <g id="legend_1">
    <g id="patch_7">
     <path d="M 349.195312 78.914375 
L 486.2 78.914375 
Q 488.2 78.914375 488.2 76.914375 
L 488.2 33.88 
Q 488.2 31.88 486.2 31.88 
L 349.195312 31.88 
Q 347.195312 31.88 347.195312 33.88 
L 347.195312 76.914375 
Q 347.195312 78.914375 349.195312 78.914375 
z
" style="fill:#ffffff;opacity:0.8;stroke:#cccccc;stroke-linejoin:miter;"/>
    </g>
    <g id="line2d_33">
     <path d="M 351.195312 39.978437 
L 371.195312 39.978437 
" style="fill:none;stroke:#ff0000;stroke-linecap:square;stroke-width:1.5;"/>
    </g>
    <g id="line2d_34"/>
    <g id="text_16">
     <text style="font-family:DejaVu Sans;font-size:10px;font-stretch:normal;font-style:normal;font-weight:normal;text-anchor:start;" transform="rotate(-0, 379.195312, 43.478437)" x="379.195312" y="43.478437">adv. risk (n:78 c:1 )</text>
    </g>
    <g id="line2d_35">
     <path d="M 351.195312 54.656563 
L 371.195312 54.656563 
" style="fill:none;stroke:#0000ff;stroke-linecap:square;stroke-width:1.5;"/>
    </g>
    <g id="line2d_36"/>
    <g id="text_17">
     <text style="font-family:DejaVu Sans;font-size:10px;font-stretch:normal;font-style:normal;font-weight:normal;text-anchor:start;" transform="rotate(-0, 379.195312, 58.156563)" x="379.195312" y="58.156563">fav. risk (n:45 c:32)</text>
    </g>
    <g id="line2d_37">
     <path d="M 351.195312 69.334687 
L 371.195312 69.334687 
" style="fill:none;stroke:#808080;stroke-linecap:square;stroke-width:1.5;"/>
    </g>
    <g id="line2d_38"/>
    <g id="text_18">
     <text style="font-family:DejaVu Sans;font-size:10px;font-stretch:normal;font-style:normal;font-weight:normal;text-anchor:start;" transform="rotate(-0, 379.195312, 72.834687)" x="379.195312" y="72.834687">int. risk (n:177 c:44 )</text>
    </g>
   </g>
  </g>
 </g>
 <defs>
  <clipPath id="p58309a27d9">
   <rect height="339.6295" width="459.56" x="33.64" y="26.88"/>
  </clipPath>
 </defs>
</svg>
