<?xml version="1.0" encoding="utf-8" standalone="no"?>
<!DOCTYPE svg PUBLIC "-//W3C//DTD SVG 1.1//EN"
  "http://www.w3.org/Graphics/SVG/1.1/DTD/svg11.dtd">
<!-- Created with matplotlib (https://matplotlib.org/) -->
<svg height="432pt" version="1.1" viewBox="0 0 504 432" width="504pt" xmlns="http://www.w3.org/2000/svg" xmlns:xlink="http://www.w3.org/1999/xlink">
 <metadata>
  <rdf:RDF xmlns:cc="http://creativecommons.org/ns#" xmlns:dc="http://purl.org/dc/elements/1.1/" xmlns:rdf="http://www.w3.org/1999/02/22-rdf-syntax-ns#">
   <cc:Work>
    <dc:type rdf:resource="http://purl.org/dc/dcmitype/StillImage"/>
    <dc:date>2022-10-27T18:02:09.365233</dc:date>
    <dc:format>image/svg+xml</dc:format>
    <dc:creator>
     <cc:Agent>
      <dc:title>Matplotlib v3.3.4, https://matplotlib.org/</dc:title>
     </cc:Agent>
    </dc:creator>
   </cc:Work>
  </rdf:RDF>
 </metadata>
 <defs>
  <style type="text/css">*{stroke-linecap:butt;stroke-linejoin:round;}</style>
 </defs>
 <g id="figure_1">
  <g id="patch_1">
   <path d="M 0 432 
L 504 432 
L 504 0 
L 0 0 
z
" style="fill:#ffffff;"/>
  </g>
  <g id="axes_1">
   <g id="patch_2">
    <path d="M 33.64 366.5095 
L 481.102663 366.5095 
L 481.102663 26.88 
L 33.64 26.88 
z
" style="fill:#ffffff;"/>
   </g>
   <g id="PolyCollection_1">
    <defs>
     <path d="M 53.979212 -376.050173 
L 53.979212 -297.82548 
L 57.960323 -297.82548 
L 57.960323 -297.82548 
L 58.244688 -297.82548 
L 58.244688 -285.131233 
L 58.386871 -285.131233 
L 58.386871 -272.975488 
L 62.367982 -272.975488 
L 62.367982 -272.975488 
L 62.652347 -272.975488 
L 62.652347 -260.467746 
L 71.467664 -260.467746 
L 71.467664 -248.443564 
L 75.306593 -248.443564 
L 75.306593 -236.822128 
L 79.998616 -236.822128 
L 79.998616 -225.551806 
L 80.140799 -225.551806 
L 80.140799 -214.597868 
L 84.12191 -214.597868 
L 84.12191 -193.550879 
L 84.406275 -193.550879 
L 84.406275 -173.568765 
L 84.548457 -173.568765 
L 84.548457 -163.963118 
L 88.387386 -163.963118 
L 88.387386 -154.614477 
L 88.529568 -154.614477 
L 88.529568 -136.709748 
L 92.795045 -136.709748 
L 92.795045 -128.1743 
L 97.202703 -128.1743 
L 97.202703 -112.02662 
L 106.018021 -112.02662 
L 106.018021 -104.471503 
L 123.222108 -104.471503 
L 123.222108 -104.471503 
L 127.629766 -104.471503 
L 127.629766 -95.675988 
L 136.018536 -95.675988 
L 136.018536 -87.778495 
L 149.383694 -87.778495 
L 149.383694 -80.928205 
L 153.364805 -80.928205 
L 153.364805 -80.928205 
L 274.504327 -80.928205 
L 274.504327 -80.928205 
L 291.850597 -80.928205 
L 291.850597 -80.928205 
L 291.850597 -156.719631 
L 291.850597 -156.719631 
L 291.850597 -156.719631 
L 274.504327 -156.719631 
L 274.504327 -156.719631 
L 153.364805 -156.719631 
L 153.364805 -156.719631 
L 149.383694 -156.719631 
L 149.383694 -171.460394 
L 136.018536 -171.460394 
L 136.018536 -185.402002 
L 127.629766 -185.402002 
L 127.629766 -198.670778 
L 123.222108 -198.670778 
L 123.222108 -198.670778 
L 106.018021 -198.670778 
L 106.018021 -210.439614 
L 97.202703 -210.439614 
L 97.202703 -233.061417 
L 92.795045 -233.061417 
L 92.795045 -243.961201 
L 88.529568 -243.961201 
L 88.529568 -265.011346 
L 88.387386 -265.011346 
L 88.387386 -275.178197 
L 84.548457 -275.178197 
L 84.548457 -285.11172 
L 84.406275 -285.11172 
L 84.406275 -304.277629 
L 84.12191 -304.277629 
L 84.12191 -322.477038 
L 80.140799 -322.477038 
L 80.140799 -331.1896 
L 79.998616 -331.1896 
L 79.998616 -339.622143 
L 75.306593 -339.622143 
L 75.306593 -347.750563 
L 71.467664 -347.750563 
L 71.467664 -355.541912 
L 62.652347 -355.541912 
L 62.652347 -362.950389 
L 62.367982 -362.950389 
L 62.367982 -362.950389 
L 58.386871 -362.950389 
L 58.386871 -369.746313 
L 58.244688 -369.746313 
L 58.244688 -376.050173 
L 57.960323 -376.050173 
L 57.960323 -376.050173 
L 53.979212 -376.050173 
z
" id="m6210f947cb" style="stroke:#ff0000;stroke-opacity:0.25;"/>
    </defs>
    <g clip-path="url(#p64bd778fcb)">
     <use style="fill:#ff0000;fill-opacity:0.25;stroke:#ff0000;stroke-opacity:0.25;" x="0" xlink:href="#m6210f947cb" y="432"/>
    </g>
   </g>
   <g id="PolyCollection_2">
    <defs>
     <path d="M 53.979212 -389.682295 
L 53.979212 -322.663451 
L 57.960323 -322.663451 
L 57.960323 -313.939799 
L 58.386871 -313.939799 
L 58.386871 -289.558466 
L 75.306593 -289.558466 
L 75.306593 -289.558466 
L 80.140799 -289.558466 
L 80.140799 -276.586643 
L 88.529568 -276.586643 
L 88.529568 -276.586643 
L 97.202703 -276.586643 
L 97.202703 -263.162 
L 109.856949 -263.162 
L 109.856949 -263.162 
L 110.283497 -263.162 
L 110.283497 -263.162 
L 118.956631 -263.162 
L 118.956631 -263.162 
L 123.506473 -263.162 
L 123.506473 -246.951469 
L 136.018536 -246.951469 
L 136.018536 -231.825069 
L 153.364805 -231.825069 
L 153.364805 -231.825069 
L 166.587781 -231.825069 
L 166.587781 -216.147408 
L 170.853258 -216.147408 
L 170.853258 -201.373719 
L 175.403099 -201.373719 
L 175.403099 -187.350447 
L 218.484407 -187.350447 
L 218.484407 -187.350447 
L 227.299725 -187.350447 
L 227.299725 -187.350447 
L 253.176947 -187.350447 
L 253.176947 -170.343811 
L 253.319129 -170.343811 
L 253.319129 -154.634457 
L 257.30024 -154.634457 
L 257.30024 -154.634457 
L 278.769803 -154.634457 
L 278.769803 -154.634457 
L 296.54262 -154.634457 
L 296.54262 -128.940855 
L 300.665914 -128.940855 
L 300.665914 -128.940855 
L 309.623414 -128.940855 
L 309.623414 -128.940855 
L 313.604525 -128.940855 
L 313.604525 -128.940855 
L 321.993295 -128.940855 
L 321.993295 -128.940855 
L 322.27766 -128.940855 
L 322.27766 -128.940855 
L 322.27766 -263.754025 
L 322.27766 -263.754025 
L 322.27766 -263.754025 
L 321.993295 -263.754025 
L 321.993295 -263.754025 
L 313.604525 -263.754025 
L 313.604525 -263.754025 
L 309.623414 -263.754025 
L 309.623414 -263.754025 
L 300.665914 -263.754025 
L 300.665914 -263.754025 
L 296.54262 -263.754025 
L 296.54262 -281.892914 
L 278.769803 -281.892914 
L 278.769803 -281.892914 
L 257.30024 -281.892914 
L 257.30024 -281.892914 
L 253.319129 -281.892914 
L 253.319129 -295.854294 
L 253.176947 -295.854294 
L 253.176947 -309.070662 
L 227.299725 -309.070662 
L 227.299725 -309.070662 
L 218.484407 -309.070662 
L 218.484407 -309.070662 
L 175.403099 -309.070662 
L 175.403099 -320.479165 
L 170.853258 -320.479165 
L 170.853258 -331.387736 
L 166.587781 -331.387736 
L 166.587781 -341.754198 
L 153.364805 -341.754198 
L 153.364805 -341.754198 
L 136.018536 -341.754198 
L 136.018536 -351.204108 
L 123.506473 -351.204108 
L 123.506473 -360.069981 
L 118.956631 -360.069981 
L 118.956631 -360.069981 
L 110.283497 -360.069981 
L 110.283497 -360.069981 
L 109.856949 -360.069981 
L 109.856949 -360.069981 
L 97.202703 -360.069981 
L 97.202703 -367.637115 
L 88.529568 -367.637115 
L 88.529568 -367.637115 
L 80.140799 -367.637115 
L 80.140799 -374.466582 
L 75.306593 -374.466582 
L 75.306593 -374.466582 
L 58.386871 -374.466582 
L 58.386871 -385.72863 
L 57.960323 -385.72863 
L 57.960323 -389.682295 
L 53.979212 -389.682295 
z
" id="mf6830e68d0" style="stroke:#0000ff;stroke-opacity:0.25;"/>
    </defs>
    <g clip-path="url(#p64bd778fcb)">
     <use style="fill:#0000ff;fill-opacity:0.25;stroke:#0000ff;stroke-opacity:0.25;" x="0" xlink:href="#mf6830e68d0" y="432"/>
    </g>
   </g>
   <g id="PolyCollection_3">
    <defs>
     <path d="M 53.979212 -386.960494 
L 53.979212 -352.617631 
L 58.386871 -352.617631 
L 58.386871 -341.626252 
L 62.367982 -341.626252 
L 62.367982 -341.626252 
L 62.652347 -341.626252 
L 62.652347 -336.090789 
L 66.633458 -336.090789 
L 66.633458 -330.524534 
L 66.77564 -330.524534 
L 66.77564 -325.06387 
L 71.325481 -325.06387 
L 71.325481 -314.164616 
L 75.73314 -314.164616 
L 75.73314 -303.592587 
L 79.714251 -303.592587 
L 79.714251 -298.283863 
L 80.140799 -298.283863 
L 80.140799 -292.913035 
L 84.12191 -292.913035 
L 84.12191 -287.610434 
L 84.548457 -287.610434 
L 84.548457 -282.236115 
L 88.529568 -282.236115 
L 88.529568 -282.236115 
L 88.813934 -282.236115 
L 88.813934 -276.785526 
L 92.795045 -276.785526 
L 92.795045 -276.785526 
L 92.937227 -276.785526 
L 92.937227 -271.253435 
L 97.060521 -271.253435 
L 97.060521 -265.789113 
L 97.202703 -265.789113 
L 97.202703 -265.789113 
L 97.344886 -265.789113 
L 97.344886 -260.23179 
L 97.487068 -260.23179 
L 97.487068 -254.739954 
L 101.468179 -254.739954 
L 101.468179 -254.739954 
L 101.610362 -254.739954 
L 101.610362 -243.2674 
L 105.875838 -243.2674 
L 105.875838 -232.067853 
L 106.018021 -232.067853 
L 106.018021 -226.561276 
L 109.856949 -226.561276 
L 109.856949 -226.561276 
L 118.672266 -226.561276 
L 118.672266 -226.561276 
L 123.079925 -226.561276 
L 123.079925 -220.706938 
L 123.506473 -220.706938 
L 123.506473 -214.925738 
L 136.018536 -214.925738 
L 136.018536 -209.214471 
L 136.445084 -209.214471 
L 136.445084 -203.570508 
L 140.426195 -203.570508 
L 140.426195 -197.991711 
L 140.568377 -197.991711 
L 140.568377 -192.476372 
L 144.691671 -192.476372 
L 144.691671 -192.476372 
L 145.118218 -192.476372 
L 145.118218 -192.476372 
L 149.383694 -192.476372 
L 149.383694 -192.476372 
L 157.772464 -192.476372 
L 157.772464 -192.476372 
L 157.914647 -192.476372 
L 157.914647 -179.385288 
L 166.587781 -179.385288 
L 166.587781 -173.012558 
L 167.725242 -173.012558 
L 167.725242 -166.360408 
L 170.853258 -166.360408 
L 170.853258 -153.450118 
L 179.38421 -153.450118 
L 179.38421 -153.450118 
L 184.076233 -153.450118 
L 184.076233 -146.704046 
L 188.057345 -146.704046 
L 188.057345 -146.704046 
L 188.34171 -146.704046 
L 188.34171 -139.540377 
L 192.322821 -139.540377 
L 192.322821 -132.589478 
L 222.607701 -132.589478 
L 222.607701 -132.589478 
L 226.873177 -132.589478 
L 226.873177 -132.589478 
L 231.565201 -132.589478 
L 231.565201 -132.589478 
L 257.442423 -132.589478 
L 257.442423 -121.604112 
L 278.769803 -121.604112 
L 278.769803 -121.604112 
L 287.442938 -121.604112 
L 287.442938 -109.561789 
L 369.624444 -109.561789 
L 369.624444 -109.561789 
L 373.036825 -109.561789 
L 373.036825 -109.561789 
L 373.32119 -109.561789 
L 373.32119 -109.561789 
L 378.724127 -109.561789 
L 378.724127 -109.561789 
L 408.866825 -109.561789 
L 408.866825 -109.561789 
L 460.763451 -109.561789 
L 460.763451 -109.561789 
L 460.763451 -192.062697 
L 460.763451 -192.062697 
L 460.763451 -192.062697 
L 408.866825 -192.062697 
L 408.866825 -192.062697 
L 378.724127 -192.062697 
L 378.724127 -192.062697 
L 373.32119 -192.062697 
L 373.32119 -192.062697 
L 373.036825 -192.062697 
L 373.036825 -192.062697 
L 369.624444 -192.062697 
L 369.624444 -192.062697 
L 287.442938 -192.062697 
L 287.442938 -202.722695 
L 278.769803 -202.722695 
L 278.769803 -202.722695 
L 257.442423 -202.722695 
L 257.442423 -212.152703 
L 231.565201 -212.152703 
L 231.565201 -212.152703 
L 226.873177 -212.152703 
L 226.873177 -212.152703 
L 222.607701 -212.152703 
L 222.607701 -212.152703 
L 192.322821 -212.152703 
L 192.322821 -219.627779 
L 188.34171 -219.627779 
L 188.34171 -226.95003 
L 188.057345 -226.95003 
L 188.057345 -226.95003 
L 184.076233 -226.95003 
L 184.076233 -233.840216 
L 179.38421 -233.840216 
L 179.38421 -233.840216 
L 170.853258 -233.840216 
L 170.853258 -246.792747 
L 167.725242 -246.792747 
L 167.725242 -253.125818 
L 166.587781 -253.125818 
L 166.587781 -259.170026 
L 157.914647 -259.170026 
L 157.914647 -271.011563 
L 157.772464 -271.011563 
L 157.772464 -271.011563 
L 149.383694 -271.011563 
L 149.383694 -271.011563 
L 145.118218 -271.011563 
L 145.118218 -271.011563 
L 144.691671 -271.011563 
L 144.691671 -271.011563 
L 140.568377 -271.011563 
L 140.568377 -276.227492 
L 140.426195 -276.227492 
L 140.426195 -281.392252 
L 136.445084 -281.392252 
L 136.445084 -286.505204 
L 136.018536 -286.505204 
L 136.018536 -291.565496 
L 123.506473 -291.565496 
L 123.506473 -296.572038 
L 123.079925 -296.572038 
L 123.079925 -301.523482 
L 118.672266 -301.523482 
L 118.672266 -301.523482 
L 109.856949 -301.523482 
L 109.856949 -301.523482 
L 106.018021 -301.523482 
L 106.018021 -306.222054 
L 105.875838 -306.222054 
L 105.875838 -315.471523 
L 101.610362 -315.471523 
L 101.610362 -324.511954 
L 101.468179 -324.511954 
L 101.468179 -324.511954 
L 97.487068 -324.511954 
L 97.487068 -328.798882 
L 97.344886 -328.798882 
L 97.344886 -333.034195 
L 97.202703 -333.034195 
L 97.202703 -333.034195 
L 97.060521 -333.034195 
L 97.060521 -337.149356 
L 92.937227 -337.149356 
L 92.937227 -341.210688 
L 92.795045 -341.210688 
L 92.795045 -341.210688 
L 88.813934 -341.210688 
L 88.813934 -345.155908 
L 88.529568 -345.155908 
L 88.529568 -345.155908 
L 84.548457 -345.155908 
L 84.548457 -348.988557 
L 84.12191 -348.988557 
L 84.12191 -352.711404 
L 80.140799 -352.711404 
L 80.140799 -356.374592 
L 79.714251 -356.374592 
L 79.714251 -359.926951 
L 75.73314 -359.926951 
L 75.73314 -366.739163 
L 71.325481 -366.739163 
L 71.325481 -373.230031 
L 66.77564 -373.230031 
L 66.77564 -376.293003 
L 66.633458 -376.293003 
L 66.633458 -379.238248 
L 62.652347 -379.238248 
L 62.652347 -382.01436 
L 62.367982 -382.01436 
L 62.367982 -382.01436 
L 58.386871 -382.01436 
L 58.386871 -386.960494 
L 53.979212 -386.960494 
z
" id="m4072cf5976" style="stroke:#808080;stroke-opacity:0.25;"/>
    </defs>
    <g clip-path="url(#p64bd778fcb)">
     <use style="fill:#808080;fill-opacity:0.25;stroke:#808080;stroke-opacity:0.25;" x="0" xlink:href="#m4072cf5976" y="432"/>
    </g>
   </g>
   <g id="matplotlib.axis_1">
    <g id="xtick_1">
     <g id="line2d_1">
      <path clip-path="url(#p64bd778fcb)" d="M 53.979212 366.5095 
L 53.979212 26.88 
" style="fill:none;stroke:#b0b0b0;stroke-dasharray:2.96,1.28;stroke-dashoffset:0;stroke-opacity:0.5;stroke-width:0.8;"/>
     </g>
     <g id="line2d_2">
      <defs>
       <path d="M 0 0 
L 0 3.5 
" id="m7f0aaa3b05" style="stroke:#000000;stroke-width:0.8;"/>
      </defs>
      <g>
       <use style="stroke:#000000;stroke-width:0.8;" x="53.979212" xlink:href="#m7f0aaa3b05" y="366.5095"/>
      </g>
     </g>
     <g id="text_1">
      <text style="font-family:DejaVu Sans;font-size:10px;font-stretch:normal;font-style:normal;font-weight:normal;text-anchor:middle;" transform="rotate(-0, 53.979212, 381.107937)" x="53.979212" y="381.107937">0</text>
     </g>
    </g>
    <g id="xtick_2">
     <g id="line2d_3">
      <path clip-path="url(#p64bd778fcb)" d="M 125.070481 366.5095 
L 125.070481 26.88 
" style="fill:none;stroke:#b0b0b0;stroke-dasharray:2.96,1.28;stroke-dashoffset:0;stroke-opacity:0.5;stroke-width:0.8;"/>
     </g>
     <g id="line2d_4">
      <g>
       <use style="stroke:#000000;stroke-width:0.8;" x="125.070481" xlink:href="#m7f0aaa3b05" y="366.5095"/>
      </g>
     </g>
     <g id="text_2">
      <text style="font-family:DejaVu Sans;font-size:10px;font-stretch:normal;font-style:normal;font-weight:normal;text-anchor:middle;" transform="rotate(-0, 125.070481, 381.107937)" x="125.070481" y="381.107937">500</text>
     </g>
    </g>
    <g id="xtick_3">
     <g id="line2d_5">
      <path clip-path="url(#p64bd778fcb)" d="M 196.161749 366.5095 
L 196.161749 26.88 
" style="fill:none;stroke:#b0b0b0;stroke-dasharray:2.96,1.28;stroke-dashoffset:0;stroke-opacity:0.5;stroke-width:0.8;"/>
     </g>
     <g id="line2d_6">
      <g>
       <use style="stroke:#000000;stroke-width:0.8;" x="196.161749" xlink:href="#m7f0aaa3b05" y="366.5095"/>
      </g>
     </g>
     <g id="text_3">
      <text style="font-family:DejaVu Sans;font-size:10px;font-stretch:normal;font-style:normal;font-weight:normal;text-anchor:middle;" transform="rotate(-0, 196.161749, 381.107937)" x="196.161749" y="381.107937">1000</text>
     </g>
    </g>
    <g id="xtick_4">
     <g id="line2d_7">
      <path clip-path="url(#p64bd778fcb)" d="M 267.253018 366.5095 
L 267.253018 26.88 
" style="fill:none;stroke:#b0b0b0;stroke-dasharray:2.96,1.28;stroke-dashoffset:0;stroke-opacity:0.5;stroke-width:0.8;"/>
     </g>
     <g id="line2d_8">
      <g>
       <use style="stroke:#000000;stroke-width:0.8;" x="267.253018" xlink:href="#m7f0aaa3b05" y="366.5095"/>
      </g>
     </g>
     <g id="text_4">
      <text style="font-family:DejaVu Sans;font-size:10px;font-stretch:normal;font-style:normal;font-weight:normal;text-anchor:middle;" transform="rotate(-0, 267.253018, 381.107937)" x="267.253018" y="381.107937">1500</text>
     </g>
    </g>
    <g id="xtick_5">
     <g id="line2d_9">
      <path clip-path="url(#p64bd778fcb)" d="M 338.344286 366.5095 
L 338.344286 26.88 
" style="fill:none;stroke:#b0b0b0;stroke-dasharray:2.96,1.28;stroke-dashoffset:0;stroke-opacity:0.5;stroke-width:0.8;"/>
     </g>
     <g id="line2d_10">
      <g>
       <use style="stroke:#000000;stroke-width:0.8;" x="338.344286" xlink:href="#m7f0aaa3b05" y="366.5095"/>
      </g>
     </g>
     <g id="text_5">
      <text style="font-family:DejaVu Sans;font-size:10px;font-stretch:normal;font-style:normal;font-weight:normal;text-anchor:middle;" transform="rotate(-0, 338.344286, 381.107937)" x="338.344286" y="381.107937">2000</text>
     </g>
    </g>
    <g id="xtick_6">
     <g id="line2d_11">
      <path clip-path="url(#p64bd778fcb)" d="M 409.435555 366.5095 
L 409.435555 26.88 
" style="fill:none;stroke:#b0b0b0;stroke-dasharray:2.96,1.28;stroke-dashoffset:0;stroke-opacity:0.5;stroke-width:0.8;"/>
     </g>
     <g id="line2d_12">
      <g>
       <use style="stroke:#000000;stroke-width:0.8;" x="409.435555" xlink:href="#m7f0aaa3b05" y="366.5095"/>
      </g>
     </g>
     <g id="text_6">
      <text style="font-family:DejaVu Sans;font-size:10px;font-stretch:normal;font-style:normal;font-weight:normal;text-anchor:middle;" transform="rotate(-0, 409.435555, 381.107937)" x="409.435555" y="381.107937">2500</text>
     </g>
    </g>
    <g id="xtick_7">
     <g id="line2d_13">
      <path clip-path="url(#p64bd778fcb)" d="M 480.526823 366.5095 
L 480.526823 26.88 
" style="fill:none;stroke:#b0b0b0;stroke-dasharray:2.96,1.28;stroke-dashoffset:0;stroke-opacity:0.5;stroke-width:0.8;"/>
     </g>
     <g id="line2d_14">
      <g>
       <use style="stroke:#000000;stroke-width:0.8;" x="480.526823" xlink:href="#m7f0aaa3b05" y="366.5095"/>
      </g>
     </g>
     <g id="text_7">
      <text style="font-family:DejaVu Sans;font-size:10px;font-stretch:normal;font-style:normal;font-weight:normal;text-anchor:middle;" transform="rotate(-0, 480.526823, 381.107937)" x="480.526823" y="381.107937">3000</text>
     </g>
    </g>
    <g id="text_8">
     <text style="font-family:DejaVu Sans;font-size:10px;font-stretch:normal;font-style:normal;font-weight:normal;" transform="translate(235.462738 394.786063)">timeline </text>
     <text style="font-family:DejaVu Sans;font-size:10px;font-stretch:normal;font-style:normal;font-weight:normal;" transform="translate(136.7393 405.983875)">    dataset: tcga_target_aml_PCA, input_dim: 17 </text>
     <text style="font-family:DejaVu Sans;font-size:10px;font-stretch:normal;font-style:normal;font-weight:normal;" transform="translate(178.790081 417.459812)">    c_index: [0.671 0.618 0.726]</text>
    </g>
   </g>
   <g id="matplotlib.axis_2">
    <g id="ytick_1">
     <g id="line2d_15">
      <path clip-path="url(#p64bd778fcb)" d="M 33.64 361.221442 
L 481.102663 361.221442 
" style="fill:none;stroke:#b0b0b0;stroke-dasharray:2.96,1.28;stroke-dashoffset:0;stroke-opacity:0.5;stroke-width:0.8;"/>
     </g>
     <g id="line2d_16">
      <defs>
       <path d="M 0 0 
L -3.5 0 
" id="m2337a62366" style="stroke:#000000;stroke-width:0.8;"/>
      </defs>
      <g>
       <use style="stroke:#000000;stroke-width:0.8;" x="33.64" xlink:href="#m2337a62366" y="361.221442"/>
      </g>
     </g>
     <g id="text_9">
      <text style="font-family:DejaVu Sans;font-size:10px;font-stretch:normal;font-style:normal;font-weight:normal;text-anchor:end;" transform="rotate(-0, 26.64, 365.020661)" x="26.64" y="365.020661">0.0</text>
     </g>
    </g>
    <g id="ytick_2">
     <g id="line2d_17">
      <path clip-path="url(#p64bd778fcb)" d="M 33.64 297.13541 
L 481.102663 297.13541 
" style="fill:none;stroke:#b0b0b0;stroke-dasharray:2.96,1.28;stroke-dashoffset:0;stroke-opacity:0.5;stroke-width:0.8;"/>
     </g>
     <g id="line2d_18">
      <g>
       <use style="stroke:#000000;stroke-width:0.8;" x="33.64" xlink:href="#m2337a62366" y="297.13541"/>
      </g>
     </g>
     <g id="text_10">
      <text style="font-family:DejaVu Sans;font-size:10px;font-stretch:normal;font-style:normal;font-weight:normal;text-anchor:end;" transform="rotate(-0, 26.64, 300.934629)" x="26.64" y="300.934629">0.2</text>
     </g>
    </g>
    <g id="ytick_3">
     <g id="line2d_19">
      <path clip-path="url(#p64bd778fcb)" d="M 33.64 233.049379 
L 481.102663 233.049379 
" style="fill:none;stroke:#b0b0b0;stroke-dasharray:2.96,1.28;stroke-dashoffset:0;stroke-opacity:0.5;stroke-width:0.8;"/>
     </g>
     <g id="line2d_20">
      <g>
       <use style="stroke:#000000;stroke-width:0.8;" x="33.64" xlink:href="#m2337a62366" y="233.049379"/>
      </g>
     </g>
     <g id="text_11">
      <text style="font-family:DejaVu Sans;font-size:10px;font-stretch:normal;font-style:normal;font-weight:normal;text-anchor:end;" transform="rotate(-0, 26.64, 236.848598)" x="26.64" y="236.848598">0.4</text>
     </g>
    </g>
    <g id="ytick_4">
     <g id="line2d_21">
      <path clip-path="url(#p64bd778fcb)" d="M 33.64 168.963347 
L 481.102663 168.963347 
" style="fill:none;stroke:#b0b0b0;stroke-dasharray:2.96,1.28;stroke-dashoffset:0;stroke-opacity:0.5;stroke-width:0.8;"/>
     </g>
     <g id="line2d_22">
      <g>
       <use style="stroke:#000000;stroke-width:0.8;" x="33.64" xlink:href="#m2337a62366" y="168.963347"/>
      </g>
     </g>
     <g id="text_12">
      <text style="font-family:DejaVu Sans;font-size:10px;font-stretch:normal;font-style:normal;font-weight:normal;text-anchor:end;" transform="rotate(-0, 26.64, 172.762566)" x="26.64" y="172.762566">0.6</text>
     </g>
    </g>
    <g id="ytick_5">
     <g id="line2d_23">
      <path clip-path="url(#p64bd778fcb)" d="M 33.64 104.877316 
L 481.102663 104.877316 
" style="fill:none;stroke:#b0b0b0;stroke-dasharray:2.96,1.28;stroke-dashoffset:0;stroke-opacity:0.5;stroke-width:0.8;"/>
     </g>
     <g id="line2d_24">
      <g>
       <use style="stroke:#000000;stroke-width:0.8;" x="33.64" xlink:href="#m2337a62366" y="104.877316"/>
      </g>
     </g>
     <g id="text_13">
      <text style="font-family:DejaVu Sans;font-size:10px;font-stretch:normal;font-style:normal;font-weight:normal;text-anchor:end;" transform="rotate(-0, 26.64, 108.676534)" x="26.64" y="108.676534">0.8</text>
     </g>
    </g>
    <g id="ytick_6">
     <g id="line2d_25">
      <path clip-path="url(#p64bd778fcb)" d="M 33.64 40.791284 
L 481.102663 40.791284 
" style="fill:none;stroke:#b0b0b0;stroke-dasharray:2.96,1.28;stroke-dashoffset:0;stroke-opacity:0.5;stroke-width:0.8;"/>
     </g>
     <g id="line2d_26">
      <g>
       <use style="stroke:#000000;stroke-width:0.8;" x="33.64" xlink:href="#m2337a62366" y="40.791284"/>
      </g>
     </g>
     <g id="text_14">
      <text style="font-family:DejaVu Sans;font-size:10px;font-stretch:normal;font-style:normal;font-weight:normal;text-anchor:end;" transform="rotate(-0, 26.64, 44.590503)" x="26.64" y="44.590503">1.0</text>
     </g>
    </g>
   </g>
   <g id="line2d_27">
    <defs>
     <path d="M -3 3 
L 3 -3 
M -3 -3 
L 3 3 
" id="mb8a215c218" style="stroke:#ff0000;"/>
    </defs>
    <g clip-path="url(#p64bd778fcb)">
     <use style="fill:#ff0000;stroke:#ff0000;" x="53.979212" xlink:href="#mb8a215c218" y="79.631303"/>
     <use style="fill:#ff0000;stroke:#ff0000;" x="57.960323" xlink:href="#mb8a215c218" y="79.631303"/>
     <use style="fill:#ff0000;stroke:#ff0000;" x="62.367982" xlink:href="#mb8a215c218" y="100.489832"/>
     <use style="fill:#ff0000;stroke:#ff0000;" x="123.222108" xlink:href="#mb8a215c218" y="285.174722"/>
     <use style="fill:#ff0000;stroke:#ff0000;" x="153.364805" xlink:href="#mb8a215c218" y="323.198082"/>
     <use style="fill:#ff0000;stroke:#ff0000;" x="274.504327" xlink:href="#mb8a215c218" y="323.198082"/>
     <use style="fill:#ff0000;stroke:#ff0000;" x="291.850597" xlink:href="#mb8a215c218" y="323.198082"/>
    </g>
   </g>
   <g id="line2d_28">
    <path clip-path="url(#p64bd778fcb)" d="M 53.979212 79.631303 
L 57.960323 79.631303 
L 57.960323 79.631303 
L 58.244688 79.631303 
L 58.244688 90.060568 
L 58.386871 90.060568 
L 58.386871 100.489832 
L 62.367982 100.489832 
L 62.367982 100.489832 
L 62.652347 100.489832 
L 62.652347 111.353649 
L 71.467664 111.353649 
L 71.467664 122.217466 
L 75.306593 122.217466 
L 75.306593 133.081283 
L 79.998616 133.081283 
L 79.998616 143.9451 
L 80.140799 143.9451 
L 80.140799 154.808917 
L 84.12191 154.808917 
L 84.12191 176.536552 
L 84.406275 176.536552 
L 84.406275 198.264186 
L 84.548457 198.264186 
L 84.548457 209.128003 
L 88.387386 209.128003 
L 88.387386 219.99182 
L 88.529568 219.99182 
L 88.529568 241.719454 
L 92.795045 241.719454 
L 92.795045 252.583271 
L 97.202703 252.583271 
L 97.202703 274.310905 
L 106.018021 274.310905 
L 106.018021 285.174722 
L 123.222108 285.174722 
L 123.222108 285.174722 
L 127.629766 285.174722 
L 127.629766 297.849176 
L 136.018536 297.849176 
L 136.018536 310.523629 
L 149.383694 310.523629 
L 149.383694 323.198082 
L 153.364805 323.198082 
L 153.364805 323.198082 
L 274.504327 323.198082 
L 274.504327 323.198082 
L 291.850597 323.198082 
L 291.850597 323.198082 
" style="fill:none;stroke:#ff0000;stroke-linecap:square;stroke-width:1.5;"/>
   </g>
   <g id="line2d_29">
    <defs>
     <path d="M -3 3 
L 3 -3 
M -3 -3 
L 3 3 
" id="mb157a85c9a" style="stroke:#0000ff;"/>
    </defs>
    <g clip-path="url(#p64bd778fcb)">
     <use style="fill:#0000ff;stroke:#0000ff;" x="75.306593" xlink:href="#mb157a85c9a" y="83.515305"/>
     <use style="fill:#0000ff;stroke:#0000ff;" x="88.529568" xlink:href="#mb157a85c9a" y="94.623551"/>
     <use style="fill:#0000ff;stroke:#0000ff;" x="109.856949" xlink:href="#mb157a85c9a" y="106.214763"/>
     <use style="fill:#0000ff;stroke:#0000ff;" x="110.283497" xlink:href="#mb157a85c9a" y="106.214763"/>
     <use style="fill:#0000ff;stroke:#0000ff;" x="118.956631" xlink:href="#mb157a85c9a" y="106.214763"/>
     <use style="fill:#0000ff;stroke:#0000ff;" x="153.364805" xlink:href="#mb157a85c9a" y="133.057572"/>
     <use style="fill:#0000ff;stroke:#0000ff;" x="218.484407" xlink:href="#mb157a85c9a" y="175.838297"/>
     <use style="fill:#0000ff;stroke:#0000ff;" x="227.299725" xlink:href="#mb157a85c9a" y="175.838297"/>
     <use style="fill:#0000ff;stroke:#0000ff;" x="257.30024" xlink:href="#mb157a85c9a" y="209.544324"/>
     <use style="fill:#0000ff;stroke:#0000ff;" x="278.769803" xlink:href="#mb157a85c9a" y="209.544324"/>
     <use style="fill:#0000ff;stroke:#0000ff;" x="300.665914" xlink:href="#mb157a85c9a" y="234.823843"/>
     <use style="fill:#0000ff;stroke:#0000ff;" x="309.623414" xlink:href="#mb157a85c9a" y="234.823843"/>
     <use style="fill:#0000ff;stroke:#0000ff;" x="313.604525" xlink:href="#mb157a85c9a" y="234.823843"/>
     <use style="fill:#0000ff;stroke:#0000ff;" x="321.993295" xlink:href="#mb157a85c9a" y="234.823843"/>
     <use style="fill:#0000ff;stroke:#0000ff;" x="322.27766" xlink:href="#mb157a85c9a" y="234.823843"/>
    </g>
   </g>
   <g id="line2d_30">
    <path clip-path="url(#p64bd778fcb)" d="M 53.979212 51.472289 
L 57.960323 51.472289 
L 57.960323 62.153295 
L 58.386871 62.153295 
L 58.386871 83.515305 
L 75.306593 83.515305 
L 75.306593 83.515305 
L 80.140799 83.515305 
L 80.140799 94.623551 
L 88.529568 94.623551 
L 88.529568 94.623551 
L 97.202703 94.623551 
L 97.202703 106.214763 
L 109.856949 106.214763 
L 109.856949 106.214763 
L 110.283497 106.214763 
L 110.283497 106.214763 
L 118.956631 106.214763 
L 118.956631 106.214763 
L 123.506473 106.214763 
L 123.506473 119.636167 
L 136.018536 119.636167 
L 136.018536 133.057572 
L 153.364805 133.057572 
L 153.364805 133.057572 
L 166.587781 133.057572 
L 166.587781 147.317813 
L 170.853258 147.317813 
L 170.853258 161.578055 
L 175.403099 161.578055 
L 175.403099 175.838297 
L 218.484407 175.838297 
L 218.484407 175.838297 
L 227.299725 175.838297 
L 227.299725 175.838297 
L 253.176947 175.838297 
L 253.176947 192.69131 
L 253.319129 192.69131 
L 253.319129 209.544324 
L 257.30024 209.544324 
L 257.30024 209.544324 
L 278.769803 209.544324 
L 278.769803 209.544324 
L 296.54262 209.544324 
L 296.54262 234.823843 
L 300.665914 234.823843 
L 300.665914 234.823843 
L 309.623414 234.823843 
L 309.623414 234.823843 
L 313.604525 234.823843 
L 313.604525 234.823843 
L 321.993295 234.823843 
L 321.993295 234.823843 
L 322.27766 234.823843 
L 322.27766 234.823843 
" style="fill:none;stroke:#0000ff;stroke-linecap:square;stroke-width:1.5;"/>
   </g>
   <g id="line2d_31">
    <defs>
     <path d="M -3 3 
L 3 -3 
M -3 -3 
L 3 3 
" id="m7d52b6b2e4" style="stroke:#808080;"/>
    </defs>
    <g clip-path="url(#p64bd778fcb)">
     <use style="fill:#808080;stroke:#808080;" x="62.367982" xlink:href="#m7d52b6b2e4" y="62.44197"/>
     <use style="fill:#808080;stroke:#808080;" x="62.652347" xlink:href="#m7d52b6b2e4" y="66.835786"/>
     <use style="fill:#808080;stroke:#808080;" x="66.77564" xlink:href="#m7d52b6b2e4" y="75.756564"/>
     <use style="fill:#808080;stroke:#808080;" x="75.73314" xlink:href="#m7d52b6b2e4" y="93.881318"/>
     <use style="fill:#808080;stroke:#808080;" x="79.714251" xlink:href="#m7d52b6b2e4" y="98.49063"/>
     <use style="fill:#808080;stroke:#808080;" x="84.12191" xlink:href="#m7d52b6b2e4" y="107.873874"/>
     <use style="fill:#808080;stroke:#808080;" x="88.529568" xlink:href="#m7d52b6b2e4" y="112.654016"/>
     <use style="fill:#808080;stroke:#808080;" x="92.795045" xlink:href="#m7d52b6b2e4" y="117.527887"/>
     <use style="fill:#808080;stroke:#808080;" x="97.202703" xlink:href="#m7d52b6b2e4" y="127.474563"/>
     <use style="fill:#808080;stroke:#808080;" x="97.487068" xlink:href="#m7d52b6b2e4" y="137.637471"/>
     <use style="fill:#808080;stroke:#808080;" x="101.468179" xlink:href="#m7d52b6b2e4" y="137.637471"/>
     <use style="fill:#808080;stroke:#808080;" x="109.856949" xlink:href="#m7d52b6b2e4" y="164.25461"/>
     <use style="fill:#808080;stroke:#808080;" x="118.672266" xlink:href="#m7d52b6b2e4" y="164.25461"/>
     <use style="fill:#808080;stroke:#808080;" x="144.691671" xlink:href="#m7d52b6b2e4" y="198.020353"/>
     <use style="fill:#808080;stroke:#808080;" x="145.118218" xlink:href="#m7d52b6b2e4" y="198.020353"/>
     <use style="fill:#808080;stroke:#808080;" x="149.383694" xlink:href="#m7d52b6b2e4" y="198.020353"/>
     <use style="fill:#808080;stroke:#808080;" x="157.772464" xlink:href="#m7d52b6b2e4" y="198.020353"/>
     <use style="fill:#808080;stroke:#808080;" x="166.587781" xlink:href="#m7d52b6b2e4" y="217.604484"/>
     <use style="fill:#808080;stroke:#808080;" x="179.38421" xlink:href="#m7d52b6b2e4" y="238.121192"/>
     <use style="fill:#808080;stroke:#808080;" x="188.057345" xlink:href="#m7d52b6b2e4" y="245.362383"/>
     <use style="fill:#808080;stroke:#808080;" x="222.607701" xlink:href="#m7d52b6b2e4" y="260.810258"/>
     <use style="fill:#808080;stroke:#808080;" x="226.873177" xlink:href="#m7d52b6b2e4" y="260.810258"/>
     <use style="fill:#808080;stroke:#808080;" x="231.565201" xlink:href="#m7d52b6b2e4" y="260.810258"/>
     <use style="fill:#808080;stroke:#808080;" x="278.769803" xlink:href="#m7d52b6b2e4" y="271.967056"/>
     <use style="fill:#808080;stroke:#808080;" x="369.624444" xlink:href="#m7d52b6b2e4" y="284.717683"/>
     <use style="fill:#808080;stroke:#808080;" x="373.036825" xlink:href="#m7d52b6b2e4" y="284.717683"/>
     <use style="fill:#808080;stroke:#808080;" x="373.32119" xlink:href="#m7d52b6b2e4" y="284.717683"/>
     <use style="fill:#808080;stroke:#808080;" x="378.724127" xlink:href="#m7d52b6b2e4" y="284.717683"/>
     <use style="fill:#808080;stroke:#808080;" x="408.866825" xlink:href="#m7d52b6b2e4" y="284.717683"/>
     <use style="fill:#808080;stroke:#808080;" x="460.763451" xlink:href="#m7d52b6b2e4" y="284.717683"/>
    </g>
   </g>
   <g id="line2d_32">
    <path clip-path="url(#p64bd778fcb)" d="M 53.979212 53.781696 
L 58.386871 53.781696 
L 58.386871 62.44197 
L 62.367982 62.44197 
L 62.367982 62.44197 
L 62.652347 62.44197 
L 62.652347 66.835786 
L 66.633458 66.835786 
L 66.633458 71.296175 
L 66.77564 71.296175 
L 66.77564 75.756564 
L 71.325481 75.756564 
L 71.325481 84.818941 
L 75.73314 84.818941 
L 75.73314 93.881318 
L 79.714251 93.881318 
L 79.714251 98.49063 
L 80.140799 98.49063 
L 80.140799 103.182252 
L 84.12191 103.182252 
L 84.12191 107.873874 
L 84.548457 107.873874 
L 84.548457 112.654016 
L 88.529568 112.654016 
L 88.529568 112.654016 
L 88.813934 112.654016 
L 88.813934 117.527887 
L 92.795045 117.527887 
L 92.795045 117.527887 
L 92.937227 117.527887 
L 92.937227 122.501225 
L 97.060521 122.501225 
L 97.060521 127.474563 
L 97.202703 127.474563 
L 97.202703 127.474563 
L 97.344886 127.474563 
L 97.344886 132.556017 
L 97.487068 132.556017 
L 97.487068 137.637471 
L 101.468179 137.637471 
L 101.468179 137.637471 
L 101.610362 137.637471 
L 101.610362 148.284327 
L 105.875838 148.284327 
L 105.875838 158.931182 
L 106.018021 158.931182 
L 106.018021 164.25461 
L 109.856949 164.25461 
L 109.856949 164.25461 
L 118.672266 164.25461 
L 118.672266 164.25461 
L 123.079925 164.25461 
L 123.079925 169.882234 
L 123.506473 169.882234 
L 123.506473 175.509858 
L 136.018536 175.509858 
L 136.018536 181.137482 
L 136.445084 181.137482 
L 136.445084 186.765105 
L 140.426195 186.765105 
L 140.426195 192.392729 
L 140.568377 192.392729 
L 140.568377 198.020353 
L 144.691671 198.020353 
L 144.691671 198.020353 
L 145.118218 198.020353 
L 145.118218 198.020353 
L 149.383694 198.020353 
L 149.383694 198.020353 
L 157.772464 198.020353 
L 157.772464 198.020353 
L 157.914647 198.020353 
L 157.914647 211.07644 
L 166.587781 211.07644 
L 166.587781 217.604484 
L 167.725242 217.604484 
L 167.725242 224.443386 
L 170.853258 224.443386 
L 170.853258 238.121192 
L 179.38421 238.121192 
L 179.38421 238.121192 
L 184.076233 238.121192 
L 184.076233 245.362383 
L 188.057345 245.362383 
L 188.057345 245.362383 
L 188.34171 245.362383 
L 188.34171 253.08632 
L 192.322821 253.08632 
L 192.322821 260.810258 
L 222.607701 260.810258 
L 222.607701 260.810258 
L 226.873177 260.810258 
L 226.873177 260.810258 
L 231.565201 260.810258 
L 231.565201 260.810258 
L 257.442423 260.810258 
L 257.442423 271.967056 
L 278.769803 271.967056 
L 278.769803 271.967056 
L 287.442938 271.967056 
L 287.442938 284.717683 
L 369.624444 284.717683 
L 369.624444 284.717683 
L 373.036825 284.717683 
L 373.036825 284.717683 
L 373.32119 284.717683 
L 373.32119 284.717683 
L 378.724127 284.717683 
L 378.724127 284.717683 
L 408.866825 284.717683 
L 408.866825 284.717683 
L 460.763451 284.717683 
L 460.763451 284.717683 
" style="fill:none;stroke:#808080;stroke-linecap:square;stroke-width:1.5;"/>
   </g>
   <g id="patch_3">
    <path d="M 33.64 366.5095 
L 33.64 26.88 
" style="fill:none;stroke:#000000;stroke-linecap:square;stroke-linejoin:miter;stroke-width:0.8;"/>
   </g>
   <g id="patch_4">
    <path d="M 481.102663 366.5095 
L 481.102663 26.88 
" style="fill:none;stroke:#000000;stroke-linecap:square;stroke-linejoin:miter;stroke-width:0.8;"/>
   </g>
   <g id="patch_5">
    <path d="M 33.64 366.5095 
L 481.102663 366.5095 
" style="fill:none;stroke:#000000;stroke-linecap:square;stroke-linejoin:miter;stroke-width:0.8;"/>
   </g>
   <g id="patch_6">
    <path d="M 33.64 26.88 
L 481.102663 26.88 
" style="fill:none;stroke:#000000;stroke-linecap:square;stroke-linejoin:miter;stroke-width:0.8;"/>
   </g>
   <g id="text_15">
    <text style="font-family:DejaVu Sans;font-size:12px;font-stretch:normal;font-style:normal;font-weight:normal;text-anchor:middle;" transform="rotate(-0, 257.371331, 20.88)" x="257.371331" y="20.88">Survival curves - model_type: ridge_cph_lifelines</text>
   </g>
   <g id="legend_1">
    <g id="patch_7">
     <path d="M 343.460475 78.914375 
L 474.102663 78.914375 
Q 476.102663 78.914375 476.102663 76.914375 
L 476.102663 33.88 
Q 476.102663 31.88 474.102663 31.88 
L 343.460475 31.88 
Q 341.460475 31.88 341.460475 33.88 
L 341.460475 76.914375 
Q 341.460475 78.914375 343.460475 78.914375 
z
" style="fill:#ffffff;opacity:0.8;stroke:#cccccc;stroke-linejoin:miter;"/>
    </g>
    <g id="line2d_33">
     <path d="M 345.460475 39.978437 
L 365.460475 39.978437 
" style="fill:none;stroke:#ff0000;stroke-linecap:square;stroke-width:1.5;"/>
    </g>
    <g id="line2d_34"/>
    <g id="text_16">
     <text style="font-family:DejaVu Sans;font-size:10px;font-stretch:normal;font-style:normal;font-weight:normal;text-anchor:start;" transform="rotate(-0, 373.460475, 43.478437)" x="373.460475" y="43.478437">adv. risk (n:33 c:7 )</text>
    </g>
    <g id="line2d_35">
     <path d="M 345.460475 54.656563 
L 365.460475 54.656563 
" style="fill:none;stroke:#0000ff;stroke-linecap:square;stroke-width:1.5;"/>
    </g>
    <g id="line2d_36"/>
    <g id="text_17">
     <text style="font-family:DejaVu Sans;font-size:10px;font-stretch:normal;font-style:normal;font-weight:normal;text-anchor:start;" transform="rotate(-0, 373.460475, 58.156563)" x="373.460475" y="58.156563">fav. risk (n:30 c:16)</text>
    </g>
    <g id="line2d_37">
     <path d="M 345.460475 69.334687 
L 365.460475 69.334687 
" style="fill:none;stroke:#808080;stroke-linecap:square;stroke-width:1.5;"/>
    </g>
    <g id="line2d_38"/>
    <g id="text_18">
     <text style="font-family:DejaVu Sans;font-size:10px;font-stretch:normal;font-style:normal;font-weight:normal;text-anchor:start;" transform="rotate(-0, 373.460475, 72.834687)" x="373.460475" y="72.834687">int. risk (n:74 c:31 )</text>
    </g>
   </g>
  </g>
 </g>
 <defs>
  <clipPath id="p64bd778fcb">
   <rect height="339.6295" width="447.462663" x="33.64" y="26.88"/>
  </clipPath>
 </defs>
</svg>
