<?xml version="1.0" encoding="utf-8" standalone="no"?>
<!DOCTYPE svg PUBLIC "-//W3C//DTD SVG 1.1//EN"
  "http://www.w3.org/Graphics/SVG/1.1/DTD/svg11.dtd">
<!-- Created with matplotlib (https://matplotlib.org/) -->
<svg height="432pt" version="1.1" viewBox="0 0 504 432" width="504pt" xmlns="http://www.w3.org/2000/svg" xmlns:xlink="http://www.w3.org/1999/xlink">
 <metadata>
  <rdf:RDF xmlns:cc="http://creativecommons.org/ns#" xmlns:dc="http://purl.org/dc/elements/1.1/" xmlns:rdf="http://www.w3.org/1999/02/22-rdf-syntax-ns#">
   <cc:Work>
    <dc:type rdf:resource="http://purl.org/dc/dcmitype/StillImage"/>
    <dc:date>2022-11-28T13:21:12.484567</dc:date>
    <dc:format>image/svg+xml</dc:format>
    <dc:creator>
     <cc:Agent>
      <dc:title>Matplotlib v3.3.4, https://matplotlib.org/</dc:title>
     </cc:Agent>
    </dc:creator>
   </cc:Work>
  </rdf:RDF>
 </metadata>
 <defs>
  <style type="text/css">*{stroke-linecap:butt;stroke-linejoin:round;}</style>
 </defs>
 <g id="figure_1">
  <g id="patch_1">
   <path d="M 0 432 
L 504 432 
L 504 0 
L 0 0 
z
" style="fill:#ffffff;"/>
  </g>
  <g id="axes_1">
   <g id="patch_2">
    <path d="M 33.64 366.5095 
L 493.2 366.5095 
L 493.2 26.88 
L 33.64 26.88 
z
" style="fill:#ffffff;"/>
   </g>
   <g id="PolyCollection_1">
    <defs>
     <path d="M 54.529091 -389.682295 
L 54.529091 -389.682295 
L 55.290835 -389.682295 
L 55.290835 -362.656101 
L 55.498583 -362.656101 
L 55.498583 -359.222652 
L 55.567832 -359.222652 
L 55.567832 -354.326524 
L 55.775581 -354.326524 
L 55.775581 -349.270897 
L 55.91408 -349.270897 
L 55.91408 -344.243842 
L 56.052578 -344.243842 
L 56.052578 -334.400771 
L 57.02207 -334.400771 
L 57.02207 -324.842672 
L 57.783814 -324.842672 
L 57.783814 -320.158431 
L 58.060812 -320.158431 
L 58.060812 -315.530649 
L 58.33781 -315.530649 
L 58.33781 -310.954909 
L 58.822556 -310.954909 
L 58.822556 -306.427345 
L 59.307302 -306.427345 
L 59.307302 -301.944595 
L 59.722798 -301.944595 
L 59.722798 -293.10221 
L 59.861297 -293.10221 
L 59.861297 -288.737801 
L 60.276794 -288.737801 
L 60.276794 -284.408556 
L 60.415293 -284.408556 
L 60.415293 -280.112759 
L 60.553791 -280.112759 
L 60.553791 -275.848897 
L 60.623041 -275.848897 
L 60.623041 -271.615636 
L 60.830789 -271.615636 
L 60.830789 -267.411792 
L 61.246286 -267.411792 
L 61.246286 -263.236314 
L 62.146528 -263.236314 
L 62.146528 -259.088271 
L 62.215778 -259.088271 
L 62.215778 -254.966837 
L 63.046771 -254.966837 
L 63.046771 -250.871276 
L 63.323769 -250.871276 
L 63.323769 -246.800939 
L 63.739265 -246.800939 
L 63.739265 -242.755251 
L 63.877764 -242.755251 
L 63.877764 -238.733706 
L 63.947014 -238.733706 
L 63.947014 -234.735861 
L 64.016263 -234.735861 
L 64.016263 -230.761333 
L 64.43176 -230.761333 
L 64.43176 -226.80979 
L 64.708757 -226.80979 
L 64.708757 -222.880953 
L 64.778007 -222.880953 
L 64.778007 -218.974591 
L 65.055004 -218.974591 
L 65.055004 -211.22859 
L 65.193503 -211.22859 
L 65.193503 -207.388709 
L 65.678249 -207.388709 
L 65.678249 -203.570817 
L 66.162995 -203.570817 
L 66.162995 -199.774896 
L 66.647741 -199.774896 
L 66.647741 -196.00097 
L 68.932973 -196.00097 
L 68.932973 -192.249103 
L 69.763966 -192.249103 
L 69.763966 -188.5194 
L 70.733458 -188.5194 
L 70.733458 -184.81201 
L 70.802707 -184.81201 
L 70.802707 -181.127124 
L 70.871957 -181.127124 
L 70.871957 -177.464981 
L 70.941206 -177.464981 
L 70.941206 -173.825864 
L 71.010456 -173.825864 
L 71.010456 -170.210109 
L 71.218204 -170.210109 
L 71.218204 -166.618106 
L 71.495202 -166.618106 
L 71.495202 -163.050302 
L 72.049197 -163.050302 
L 72.049197 -159.507208 
L 74.334428 -159.507208 
L 74.334428 -155.989401 
L 75.30392 -155.989401 
L 75.30392 -152.497537 
L 75.442419 -152.497537 
L 75.442419 -149.032353 
L 75.788666 -149.032353 
L 75.788666 -145.59468 
L 77.242904 -145.59468 
L 77.242904 -142.185455 
L 79.320387 -142.185455 
L 79.320387 -138.805731 
L 80.22063 -138.805731 
L 80.22063 -135.4567 
L 81.813367 -135.4567 
L 81.813367 -132.139707 
L 82.021115 -132.139707 
L 82.021115 -128.856279 
L 84.029349 -128.856279 
L 84.029349 -125.608154 
L 84.514095 -125.608154 
L 84.514095 -122.39732 
L 85.414337 -122.39732 
L 85.414337 -119.226061 
L 88.599811 -119.226061 
L 88.599811 -116.097022 
L 99.194974 -116.097022 
L 99.194974 -113.013282 
L 108.128151 -113.013282 
L 108.128151 -109.978463 
L 110.274883 -109.978463 
L 110.274883 -106.996862 
L 111.86762 -106.996862 
L 111.86762 -104.073643 
L 116.645831 -104.073643 
L 116.645831 -101.21509 
L 150.231805 -101.21509 
L 150.231805 -98.428985 
L 191.850713 -98.428985 
L 191.850713 -98.428985 
L 206.254595 -98.428985 
L 206.254595 -98.428985 
L 209.024572 -98.428985 
L 209.024572 -94.68992 
L 218.165497 -94.68992 
L 218.165497 -91.215391 
L 248.704496 -91.215391 
L 248.704496 -91.215391 
L 269.133078 -91.215391 
L 269.133078 -91.215391 
L 302.234306 -91.215391 
L 302.234306 -91.215391 
L 347.800432 -91.215391 
L 347.800432 -80.928205 
L 347.800432 -80.928205 
L 347.800432 -80.928205 
L 347.800432 -130.386908 
L 302.234306 -130.386908 
L 302.234306 -130.386908 
L 269.133078 -130.386908 
L 269.133078 -130.386908 
L 248.704496 -130.386908 
L 248.704496 -130.386908 
L 218.165497 -130.386908 
L 218.165497 -136.169763 
L 209.024572 -136.169763 
L 209.024572 -141.743809 
L 206.254595 -141.743809 
L 206.254595 -141.743809 
L 191.850713 -141.743809 
L 191.850713 -141.743809 
L 150.231805 -141.743809 
L 150.231805 -146.474114 
L 116.645831 -146.474114 
L 116.645831 -151.140571 
L 111.86762 -151.140571 
L 111.86762 -155.749723 
L 110.274883 -155.749723 
L 110.274883 -160.306898 
L 108.128151 -160.306898 
L 108.128151 -164.816492 
L 99.194974 -164.816492 
L 99.194974 -169.282184 
L 88.599811 -169.282184 
L 88.599811 -173.70708 
L 85.414337 -173.70708 
L 85.414337 -178.093829 
L 84.514095 -178.093829 
L 84.514095 -182.444708 
L 84.029349 -182.444708 
L 84.029349 -186.761688 
L 82.021115 -186.761688 
L 82.021115 -191.046483 
L 81.813367 -191.046483 
L 81.813367 -195.300593 
L 80.22063 -195.300593 
L 80.22063 -199.525333 
L 79.320387 -199.525333 
L 79.320387 -203.721864 
L 77.242904 -203.721864 
L 77.242904 -207.891207 
L 75.788666 -207.891207 
L 75.788666 -212.034268 
L 75.442419 -212.034268 
L 75.442419 -216.151848 
L 75.30392 -216.151848 
L 75.30392 -220.244654 
L 74.334428 -220.244654 
L 74.334428 -224.313312 
L 72.049197 -224.313312 
L 72.049197 -228.358373 
L 71.495202 -228.358373 
L 71.495202 -232.380322 
L 71.218204 -232.380322 
L 71.218204 -236.37958 
L 71.010456 -236.37958 
L 71.010456 -240.356515 
L 70.941206 -240.356515 
L 70.941206 -244.311438 
L 70.871957 -244.311438 
L 70.871957 -248.244614 
L 70.802707 -248.244614 
L 70.802707 -252.156261 
L 70.733458 -252.156261 
L 70.733458 -256.046553 
L 69.763966 -256.046553 
L 69.763966 -259.915621 
L 68.932973 -259.915621 
L 68.932973 -263.763555 
L 66.647741 -263.763555 
L 66.647741 -267.590405 
L 66.162995 -267.590405 
L 66.162995 -271.396182 
L 65.678249 -271.396182 
L 65.678249 -275.180856 
L 65.193503 -275.180856 
L 65.193503 -278.944358 
L 65.055004 -278.944358 
L 65.055004 -286.40737 
L 64.778007 -286.40737 
L 64.778007 -290.106536 
L 64.708757 -290.106536 
L 64.708757 -293.783839 
L 64.43176 -293.783839 
L 64.43176 -297.438996 
L 64.016263 -297.438996 
L 64.016263 -301.07167 
L 63.947014 -301.07167 
L 63.947014 -304.681475 
L 63.877764 -304.681475 
L 63.877764 -308.267964 
L 63.739265 -308.267964 
L 63.739265 -311.830629 
L 63.323769 -311.830629 
L 63.323769 -315.368893 
L 63.046771 -315.368893 
L 63.046771 -318.882105 
L 62.215778 -318.882105 
L 62.215778 -322.369526 
L 62.146528 -322.369526 
L 62.146528 -325.830325 
L 61.246286 -325.830325 
L 61.246286 -329.263565 
L 60.830789 -329.263565 
L 60.830789 -332.668185 
L 60.623041 -332.668185 
L 60.623041 -336.042985 
L 60.553791 -336.042985 
L 60.553791 -339.386606 
L 60.415293 -339.386606 
L 60.415293 -342.697497 
L 60.276794 -342.697497 
L 60.276794 -345.973889 
L 59.861297 -345.973889 
L 59.861297 -349.213746 
L 59.722798 -349.213746 
L 59.722798 -355.574055 
L 59.307302 -355.574055 
L 59.307302 -358.688552 
L 58.822556 -358.688552 
L 58.822556 -361.75439 
L 58.33781 -361.75439 
L 58.33781 -364.766996 
L 58.060812 -364.766996 
L 58.060812 -367.720807 
L 57.783814 -367.720807 
L 57.783814 -370.608951 
L 57.02207 -370.608951 
L 57.02207 -376.15108 
L 56.052578 -376.15108 
L 56.052578 -381.286092 
L 55.91408 -381.286092 
L 55.91408 -383.642439 
L 55.775581 -383.642439 
L 55.775581 -385.801582 
L 55.567832 -385.801582 
L 55.567832 -387.683082 
L 55.498583 -387.683082 
L 55.498583 -389.121616 
L 55.290835 -389.121616 
L 55.290835 -389.682295 
L 54.529091 -389.682295 
z
" id="ma72005993a" style="stroke:#ff0000;stroke-opacity:0.25;"/>
    </defs>
    <g clip-path="url(#pf8c8900f71)">
     <use style="fill:#ff0000;fill-opacity:0.25;stroke:#ff0000;stroke-opacity:0.25;" x="0" xlink:href="#ma72005993a" y="432"/>
    </g>
   </g>
   <g id="PolyCollection_2">
    <defs>
     <path d="M 54.529091 -389.682295 
L 54.529091 -389.682295 
L 61.731032 -389.682295 
L 61.731032 -344.151354 
L 71.772199 -344.151354 
L 71.772199 -338.357461 
L 75.30392 -338.357461 
L 75.30392 -330.208997 
L 75.580918 -330.208997 
L 75.580918 -321.838936 
L 86.31458 -321.838936 
L 86.31458 -313.552427 
L 88.045816 -313.552427 
L 88.045816 -297.425142 
L 89.084557 -297.425142 
L 89.084557 -289.586707 
L 100.233715 -289.586707 
L 100.233715 -281.887116 
L 106.812411 -281.887116 
L 106.812411 -274.316949 
L 121.008545 -274.316949 
L 121.008545 -266.867683 
L 122.462783 -266.867683 
L 122.462783 -259.531921 
L 129.803223 -259.531921 
L 129.803223 -252.303368 
L 162.9737 -252.303368 
L 162.9737 -245.176725 
L 179.108818 -245.176725 
L 179.108818 -238.147576 
L 181.463298 -238.147576 
L 181.463298 -231.21227 
L 182.709788 -231.21227 
L 182.709788 -231.21227 
L 184.579523 -231.21227 
L 184.579523 -231.21227 
L 193.651198 -231.21227 
L 193.651198 -231.21227 
L 208.678325 -231.21227 
L 208.678325 -231.21227 
L 218.026998 -231.21227 
L 218.026998 -222.840824 
L 218.373245 -222.840824 
L 218.373245 -222.840824 
L 224.259447 -222.840824 
L 224.259447 -222.840824 
L 226.26768 -222.840824 
L 226.26768 -222.840824 
L 232.153882 -222.840824 
L 232.153882 -222.840824 
L 235.685603 -222.840824 
L 235.685603 -222.840824 
L 245.519022 -222.840824 
L 245.519022 -222.840824 
L 261.377142 -222.840824 
L 261.377142 -222.840824 
L 263.177627 -222.840824 
L 263.177627 -222.840824 
L 280.697733 -222.840824 
L 280.697733 -222.840824 
L 284.160205 -222.840824 
L 284.160205 -222.840824 
L 289.838658 -222.840824 
L 289.838658 -222.840824 
L 316.638188 -222.840824 
L 316.638188 -222.840824 
L 322.039643 -222.840824 
L 322.039643 -222.840824 
L 330.765072 -222.840824 
L 330.765072 -222.840824 
L 333.812047 -222.840824 
L 333.812047 -222.840824 
L 344.060963 -222.840824 
L 344.060963 -222.840824 
L 357.910849 -222.840824 
L 357.910849 -222.840824 
L 389.904086 -222.840824 
L 389.904086 -222.840824 
L 398.491015 -222.840824 
L 398.491015 -222.840824 
L 408.393684 -222.840824 
L 408.393684 -222.840824 
L 425.221296 -222.840824 
L 425.221296 -222.840824 
L 441.356413 -222.840824 
L 441.356413 -222.840824 
L 455.483297 -222.840824 
L 455.483297 -222.840824 
L 455.483297 -310.430785 
L 455.483297 -310.430785 
L 455.483297 -310.430785 
L 441.356413 -310.430785 
L 441.356413 -310.430785 
L 425.221296 -310.430785 
L 425.221296 -310.430785 
L 408.393684 -310.430785 
L 408.393684 -310.430785 
L 398.491015 -310.430785 
L 398.491015 -310.430785 
L 389.904086 -310.430785 
L 389.904086 -310.430785 
L 357.910849 -310.430785 
L 357.910849 -310.430785 
L 344.060963 -310.430785 
L 344.060963 -310.430785 
L 333.812047 -310.430785 
L 333.812047 -310.430785 
L 330.765072 -310.430785 
L 330.765072 -310.430785 
L 322.039643 -310.430785 
L 322.039643 -310.430785 
L 316.638188 -310.430785 
L 316.638188 -310.430785 
L 289.838658 -310.430785 
L 289.838658 -310.430785 
L 284.160205 -310.430785 
L 284.160205 -310.430785 
L 280.697733 -310.430785 
L 280.697733 -310.430785 
L 263.177627 -310.430785 
L 263.177627 -310.430785 
L 261.377142 -310.430785 
L 261.377142 -310.430785 
L 245.519022 -310.430785 
L 245.519022 -310.430785 
L 235.685603 -310.430785 
L 235.685603 -310.430785 
L 232.153882 -310.430785 
L 232.153882 -310.430785 
L 226.26768 -310.430785 
L 226.26768 -310.430785 
L 224.259447 -310.430785 
L 224.259447 -310.430785 
L 218.373245 -310.430785 
L 218.373245 -310.430785 
L 218.026998 -310.430785 
L 218.026998 -317.070938 
L 208.678325 -317.070938 
L 208.678325 -317.070938 
L 193.651198 -317.070938 
L 193.651198 -317.070938 
L 184.579523 -317.070938 
L 184.579523 -317.070938 
L 182.709788 -317.070938 
L 182.709788 -317.070938 
L 181.463298 -317.070938 
L 181.463298 -322.931585 
L 179.108818 -322.931585 
L 179.108818 -328.697122 
L 162.9737 -328.697122 
L 162.9737 -334.362647 
L 129.803223 -334.362647 
L 129.803223 -339.922134 
L 122.462783 -339.922134 
L 122.462783 -345.368151 
L 121.008545 -345.368151 
L 121.008545 -350.691469 
L 106.812411 -350.691469 
L 106.812411 -355.880502 
L 100.233715 -355.880502 
L 100.233715 -360.920483 
L 89.084557 -360.920483 
L 89.084557 -365.792193 
L 88.045816 -365.792193 
L 88.045816 -374.9181 
L 86.31458 -374.9181 
L 86.31458 -379.084849 
L 75.580918 -379.084849 
L 75.580918 -382.889381 
L 75.30392 -382.889381 
L 75.30392 -386.192048 
L 71.772199 -386.192048 
L 71.772199 -388.706488 
L 61.731032 -388.706488 
L 61.731032 -389.682295 
L 54.529091 -389.682295 
z
" id="mce7fedd69f" style="stroke:#0000ff;stroke-opacity:0.25;"/>
    </defs>
    <g clip-path="url(#pf8c8900f71)">
     <use style="fill:#0000ff;fill-opacity:0.25;stroke:#0000ff;stroke-opacity:0.25;" x="0" xlink:href="#mce7fedd69f" y="432"/>
    </g>
   </g>
   <g id="PolyCollection_3">
    <defs>
     <path d="M 54.529091 -389.682295 
L 54.529091 -389.682295 
L 55.083086 -389.682295 
L 55.083086 -377.51015 
L 55.152336 -377.51015 
L 55.152336 -375.967193 
L 55.360084 -375.967193 
L 55.360084 -366.867643 
L 55.429334 -366.867643 
L 55.429334 -364.623216 
L 55.983329 -364.623216 
L 55.983329 -362.406531 
L 56.052578 -362.406531 
L 56.052578 -358.048082 
L 56.191077 -358.048082 
L 56.191077 -355.902004 
L 56.329576 -355.902004 
L 56.329576 -353.775443 
L 56.398826 -353.775443 
L 56.398826 -349.574448 
L 56.537324 -349.574448 
L 56.537324 -347.497293 
L 56.606574 -347.497293 
L 56.606574 -345.434164 
L 56.883572 -345.434164 
L 56.883572 -343.384081 
L 56.952821 -343.384081 
L 56.952821 -341.346179 
L 57.02207 -341.346179 
L 57.02207 -339.319692 
L 57.09132 -339.319692 
L 57.09132 -337.303935 
L 59.030304 -337.303935 
L 59.030304 -335.298296 
L 59.51505 -335.298296 
L 59.51505 -333.302225 
L 59.584299 -333.302225 
L 59.584299 -331.315227 
L 59.861297 -331.315227 
L 59.861297 -331.315227 
L 60.138295 -331.315227 
L 60.138295 -327.334405 
L 60.969288 -327.334405 
L 60.969288 -325.356411 
L 61.523283 -325.356411 
L 61.523283 -323.386194 
L 61.592533 -323.386194 
L 61.592533 -319.467789 
L 62.008029 -319.467789 
L 62.008029 -317.519014 
L 62.215778 -317.519014 
L 62.215778 -315.576838 
L 62.285027 -315.576838 
L 62.285027 -313.641024 
L 62.839023 -313.641024 
L 62.839023 -311.711351 
L 63.462268 -311.711351 
L 63.462268 -309.787613 
L 63.877764 -309.787613 
L 63.877764 -307.869622 
L 64.085512 -307.869622 
L 64.085512 -305.957199 
L 64.570258 -305.957199 
L 64.570258 -304.050182 
L 64.778007 -304.050182 
L 64.778007 -302.148415 
L 64.916506 -302.148415 
L 64.916506 -298.360068 
L 65.470501 -298.360068 
L 65.470501 -296.473227 
L 65.816748 -296.473227 
L 65.816748 -294.591113 
L 65.955247 -294.591113 
L 65.955247 -292.713616 
L 66.093746 -292.713616 
L 66.093746 -290.840631 
L 66.439993 -290.840631 
L 66.439993 -288.972059 
L 66.716991 -288.972059 
L 66.716991 -287.107808 
L 67.409485 -287.107808 
L 67.409485 -285.247789 
L 67.617233 -285.247789 
L 67.617233 -283.391921 
L 68.309728 -283.391921 
L 68.309728 -279.692328 
L 68.863723 -279.692328 
L 68.863723 -277.84846 
L 68.932973 -277.84846 
L 68.932973 -274.17225 
L 69.071471 -274.17225 
L 69.071471 -272.339788 
L 69.27922 -272.339788 
L 69.27922 -268.685869 
L 69.833215 -268.685869 
L 69.833215 -266.86431 
L 71.010456 -266.86431 
L 71.010456 -265.046287 
L 71.218204 -265.046287 
L 71.218204 -263.231755 
L 71.356703 -263.231755 
L 71.356703 -261.420672 
L 71.910698 -261.420672 
L 71.910698 -259.612999 
L 71.979948 -259.612999 
L 71.979948 -257.808696 
L 72.187696 -257.808696 
L 72.187696 -256.00773 
L 72.741691 -256.00773 
L 72.741691 -254.210065 
L 72.810941 -254.210065 
L 72.810941 -252.41567 
L 73.018689 -252.41567 
L 73.018689 -250.624515 
L 73.572684 -250.624515 
L 73.572684 -248.836572 
L 74.195929 -248.836572 
L 74.195929 -247.051814 
L 74.680675 -247.051814 
L 74.680675 -245.270217 
L 75.026923 -245.270217 
L 75.026923 -241.716412 
L 75.096172 -241.716412 
L 75.096172 -239.944162 
L 75.442419 -239.944162 
L 75.442419 -238.174989 
L 75.996415 -238.174989 
L 75.996415 -232.885758 
L 76.55041 -232.885758 
L 76.55041 -227.623666 
L 76.758158 -227.623666 
L 76.758158 -225.875612 
L 76.827408 -225.875612 
L 76.827408 -224.130531 
L 77.242904 -224.130531 
L 77.242904 -222.388415 
L 77.935399 -222.388415 
L 77.935399 -220.649259 
L 78.143147 -220.649259 
L 78.143147 -218.913058 
L 79.251138 -218.913058 
L 79.251138 -217.179807 
L 79.528136 -217.179807 
L 79.528136 -215.449503 
L 79.735884 -215.449503 
L 79.735884 -213.722146 
L 80.082131 -213.722146 
L 80.082131 -211.997734 
L 82.090365 -211.997734 
L 82.090365 -210.276269 
L 82.228863 -210.276269 
L 82.228863 -208.557751 
L 82.436612 -208.557751 
L 82.436612 -206.842184 
L 85.137339 -206.842184 
L 85.137339 -205.129572 
L 85.206589 -205.129572 
L 85.206589 -203.419919 
L 85.552836 -203.419919 
L 85.552836 -201.713233 
L 88.322813 -201.713233 
L 88.322813 -200.00952 
L 88.392063 -200.00952 
L 88.392063 -198.308789 
L 88.599811 -198.308789 
L 88.599811 -196.61105 
L 88.66906 -196.61105 
L 88.66906 -194.916314 
L 89.777051 -194.916314 
L 89.777051 -193.224593 
L 90.469546 -193.224593 
L 90.469546 -191.535901 
L 90.538795 -191.535901 
L 90.538795 -189.850252 
L 91.508287 -189.850252 
L 91.508287 -188.167662 
L 95.386255 -188.167662 
L 95.386255 -188.167662 
L 95.524754 -188.167662 
L 95.524754 -186.461536 
L 96.217248 -186.461536 
L 96.217248 -184.7587 
L 98.779477 -184.7587 
L 98.779477 -183.059172 
L 101.618704 -183.059172 
L 101.618704 -181.362973 
L 101.687954 -181.362973 
L 101.687954 -179.670127 
L 101.826452 -179.670127 
L 101.826452 -177.980657 
L 103.488439 -177.980657 
L 103.488439 -176.294589 
L 104.52718 -176.294589 
L 104.52718 -174.611952 
L 110.69038 -174.611952 
L 110.69038 -172.932776 
L 112.629364 -172.932776 
L 112.629364 -171.257091 
L 112.767863 -171.257091 
L 112.767863 -169.584933 
L 113.183359 -169.584933 
L 113.183359 -167.916336 
L 114.152851 -167.916336 
L 114.152851 -166.25134 
L 118.654064 -166.25134 
L 118.654064 -164.589984 
L 130.772715 -164.589984 
L 130.772715 -162.932312 
L 131.118962 -162.932312 
L 131.118962 -161.278368 
L 137.351411 -161.278368 
L 137.351411 -159.628202 
L 138.5979 -159.628202 
L 138.5979 -157.981864 
L 151.201297 -157.981864 
L 151.201297 -156.339409 
L 156.118006 -156.339409 
L 156.118006 -154.700892 
L 165.743677 -154.700892 
L 165.743677 -153.066375 
L 168.305906 -153.066375 
L 168.305906 -151.435921 
L 187.3495 -151.435921 
L 187.3495 -151.435921 
L 187.557248 -151.435921 
L 187.557248 -149.771637 
L 187.834246 -149.771637 
L 187.834246 -149.771637 
L 189.703981 -149.771637 
L 189.703981 -149.771637 
L 198.221661 -149.771637 
L 198.221661 -148.029015 
L 198.983404 -148.029015 
L 198.983404 -148.029015 
L 204.800357 -148.029015 
L 204.800357 -146.246525 
L 207.362585 -146.246525 
L 207.362585 -144.470242 
L 208.262828 -144.470242 
L 208.262828 -144.470242 
L 209.509318 -144.470242 
L 209.509318 -142.650468 
L 215.257021 -142.650468 
L 215.257021 -140.837782 
L 227.444921 -140.837782 
L 227.444921 -140.837782 
L 237.001342 -140.837782 
L 237.001342 -140.837782 
L 237.901585 -140.837782 
L 237.901585 -140.837782 
L 241.156308 -140.837782 
L 241.156308 -140.837782 
L 249.46624 -140.837782 
L 249.46624 -138.791205 
L 252.859462 -138.791205 
L 252.859462 -138.791205 
L 253.759704 -138.791205 
L 253.759704 -138.791205 
L 258.122419 -138.791205 
L 258.122419 -136.606854 
L 265.878355 -136.606854 
L 265.878355 -134.437197 
L 266.43235 -134.437197 
L 266.43235 -134.437197 
L 270.10257 -134.437197 
L 270.10257 -134.437197 
L 280.420735 -134.437197 
L 280.420735 -134.437197 
L 295.586361 -134.437197 
L 295.586361 -134.437197 
L 322.385891 -134.437197 
L 322.385891 -134.437197 
L 330.626573 -134.437197 
L 330.626573 -134.437197 
L 333.535049 -134.437197 
L 333.535049 -134.437197 
L 333.673548 -134.437197 
L 333.673548 -134.437197 
L 333.881296 -134.437197 
L 333.881296 -134.437197 
L 338.31326 -134.437197 
L 338.31326 -134.437197 
L 351.609151 -134.437197 
L 351.609151 -134.437197 
L 356.52586 -134.437197 
L 356.52586 -134.437197 
L 359.503586 -134.437197 
L 359.503586 -134.437197 
L 370.652744 -134.437197 
L 370.652744 -134.437197 
L 374.738461 -134.437197 
L 374.738461 -134.437197 
L 376.746694 -134.437197 
L 376.746694 -134.437197 
L 377.716186 -134.437197 
L 377.716186 -129.063547 
L 380.693912 -129.063547 
L 380.693912 -129.063547 
L 383.256141 -129.063547 
L 383.256141 -129.063547 
L 388.726846 -129.063547 
L 388.726846 -129.063547 
L 391.566072 -129.063547 
L 391.566072 -129.063547 
L 392.604814 -129.063547 
L 392.604814 -129.063547 
L 393.505056 -129.063547 
L 393.505056 -129.063547 
L 405.069711 -129.063547 
L 405.069711 -129.063547 
L 432.907983 -129.063547 
L 432.907983 -129.063547 
L 445.926876 -129.063547 
L 445.926876 -129.063547 
L 458.184025 -129.063547 
L 458.184025 -129.063547 
L 459.499764 -129.063547 
L 459.499764 -129.063547 
L 463.931728 -129.063547 
L 463.931728 -129.063547 
L 464.347225 -129.063547 
L 464.347225 -129.063547 
L 472.310909 -129.063547 
L 472.310909 -129.063547 
L 472.310909 -170.019136 
L 472.310909 -170.019136 
L 472.310909 -170.019136 
L 464.347225 -170.019136 
L 464.347225 -170.019136 
L 463.931728 -170.019136 
L 463.931728 -170.019136 
L 459.499764 -170.019136 
L 459.499764 -170.019136 
L 458.184025 -170.019136 
L 458.184025 -170.019136 
L 445.926876 -170.019136 
L 445.926876 -170.019136 
L 432.907983 -170.019136 
L 432.907983 -170.019136 
L 405.069711 -170.019136 
L 405.069711 -170.019136 
L 393.505056 -170.019136 
L 393.505056 -170.019136 
L 392.604814 -170.019136 
L 392.604814 -170.019136 
L 391.566072 -170.019136 
L 391.566072 -170.019136 
L 388.726846 -170.019136 
L 388.726846 -170.019136 
L 383.256141 -170.019136 
L 383.256141 -170.019136 
L 380.693912 -170.019136 
L 380.693912 -170.019136 
L 377.716186 -170.019136 
L 377.716186 -173.830347 
L 376.746694 -173.830347 
L 376.746694 -173.830347 
L 374.738461 -173.830347 
L 374.738461 -173.830347 
L 370.652744 -173.830347 
L 370.652744 -173.830347 
L 359.503586 -173.830347 
L 359.503586 -173.830347 
L 356.52586 -173.830347 
L 356.52586 -173.830347 
L 351.609151 -173.830347 
L 351.609151 -173.830347 
L 338.31326 -173.830347 
L 338.31326 -173.830347 
L 333.881296 -173.830347 
L 333.881296 -173.830347 
L 333.673548 -173.830347 
L 333.673548 -173.830347 
L 333.535049 -173.830347 
L 333.535049 -173.830347 
L 330.626573 -173.830347 
L 330.626573 -173.830347 
L 322.385891 -173.830347 
L 322.385891 -173.830347 
L 295.586361 -173.830347 
L 295.586361 -173.830347 
L 280.420735 -173.830347 
L 280.420735 -173.830347 
L 270.10257 -173.830347 
L 270.10257 -173.830347 
L 266.43235 -173.830347 
L 266.43235 -173.830347 
L 265.878355 -173.830347 
L 265.878355 -176.213199 
L 258.122419 -176.213199 
L 258.122419 -178.583729 
L 253.759704 -178.583729 
L 253.759704 -178.583729 
L 252.859462 -178.583729 
L 252.859462 -178.583729 
L 249.46624 -178.583729 
L 249.46624 -180.837813 
L 241.156308 -180.837813 
L 241.156308 -180.837813 
L 237.901585 -180.837813 
L 237.901585 -180.837813 
L 237.001342 -180.837813 
L 237.001342 -180.837813 
L 227.444921 -180.837813 
L 227.444921 -180.837813 
L 215.257021 -180.837813 
L 215.257021 -182.90249 
L 209.509318 -182.90249 
L 209.509318 -184.960904 
L 208.262828 -184.960904 
L 208.262828 -184.960904 
L 207.362585 -184.960904 
L 207.362585 -186.974334 
L 204.800357 -186.974334 
L 204.800357 -188.982229 
L 198.983404 -188.982229 
L 198.983404 -188.982229 
L 198.221661 -188.982229 
L 198.221661 -190.948933 
L 189.703981 -190.948933 
L 189.703981 -190.948933 
L 187.834246 -190.948933 
L 187.834246 -190.948933 
L 187.557248 -190.948933 
L 187.557248 -192.844205 
L 187.3495 -192.844205 
L 187.3495 -192.844205 
L 168.305906 -192.844205 
L 168.305906 -194.704301 
L 165.743677 -194.704301 
L 165.743677 -196.560585 
L 156.118006 -196.560585 
L 156.118006 -198.413113 
L 151.201297 -198.413113 
L 151.201297 -200.26194 
L 138.5979 -200.26194 
L 138.5979 -202.107119 
L 137.351411 -202.107119 
L 137.351411 -203.948698 
L 131.118962 -203.948698 
L 131.118962 -205.786724 
L 130.772715 -205.786724 
L 130.772715 -207.62124 
L 118.654064 -207.62124 
L 118.654064 -209.452287 
L 114.152851 -209.452287 
L 114.152851 -211.279904 
L 113.183359 -211.279904 
L 113.183359 -213.104128 
L 112.767863 -213.104128 
L 112.767863 -214.924994 
L 112.629364 -214.924994 
L 112.629364 -216.742534 
L 110.69038 -216.742534 
L 110.69038 -218.55678 
L 104.52718 -218.55678 
L 104.52718 -220.367759 
L 103.488439 -220.367759 
L 103.488439 -222.175498 
L 101.826452 -222.175498 
L 101.826452 -223.980024 
L 101.687954 -223.980024 
L 101.687954 -225.78136 
L 101.618704 -225.78136 
L 101.618704 -227.579528 
L 98.779477 -227.579528 
L 98.779477 -229.374548 
L 96.217248 -229.374548 
L 96.217248 -231.166439 
L 95.524754 -231.166439 
L 95.524754 -232.95522 
L 95.386255 -232.95522 
L 95.386255 -232.95522 
L 91.508287 -232.95522 
L 91.508287 -234.720276 
L 90.538795 -234.720276 
L 90.538795 -236.482398 
L 90.469546 -236.482398 
L 90.469546 -238.241598 
L 89.777051 -238.241598 
L 89.777051 -239.99789 
L 88.66906 -239.99789 
L 88.66906 -241.751284 
L 88.599811 -241.751284 
L 88.599811 -243.501791 
L 88.392063 -243.501791 
L 88.392063 -245.249418 
L 88.322813 -245.249418 
L 88.322813 -246.994173 
L 85.552836 -246.994173 
L 85.552836 -248.736064 
L 85.206589 -248.736064 
L 85.206589 -250.475094 
L 85.137339 -250.475094 
L 85.137339 -252.211269 
L 82.436612 -252.211269 
L 82.436612 -253.944592 
L 82.228863 -253.944592 
L 82.228863 -255.675064 
L 82.090365 -255.675064 
L 82.090365 -257.402686 
L 80.082131 -257.402686 
L 80.082131 -259.127459 
L 79.735884 -259.127459 
L 79.735884 -260.849382 
L 79.528136 -260.849382 
L 79.528136 -262.568451 
L 79.251138 -262.568451 
L 79.251138 -264.284664 
L 78.143147 -264.284664 
L 78.143147 -265.998017 
L 77.935399 -265.998017 
L 77.935399 -267.708502 
L 77.242904 -267.708502 
L 77.242904 -269.416115 
L 76.827408 -269.416115 
L 76.827408 -271.120848 
L 76.758158 -271.120848 
L 76.758158 -272.82269 
L 76.55041 -272.82269 
L 76.55041 -277.910774 
L 75.996415 -277.910774 
L 75.996415 -282.972418 
L 75.442419 -282.972418 
L 75.442419 -284.653684 
L 75.096172 -284.653684 
L 75.096172 -286.331947 
L 75.026923 -286.331947 
L 75.026923 -289.679377 
L 74.680675 -289.679377 
L 74.680675 -291.3485 
L 74.195929 -291.3485 
L 74.195929 -293.014529 
L 73.572684 -293.014529 
L 73.572684 -294.677439 
L 73.018689 -294.677439 
L 73.018689 -296.337201 
L 72.810941 -296.337201 
L 72.810941 -297.993786 
L 72.741691 -297.993786 
L 72.741691 -299.647162 
L 72.187696 -299.647162 
L 72.187696 -301.297297 
L 71.979948 -301.297297 
L 71.979948 -302.944156 
L 71.910698 -302.944156 
L 71.910698 -304.587702 
L 71.356703 -304.587702 
L 71.356703 -306.227895 
L 71.218204 -306.227895 
L 71.218204 -307.864694 
L 71.010456 -307.864694 
L 71.010456 -309.498055 
L 69.833215 -309.498055 
L 69.833215 -311.127933 
L 69.27922 -311.127933 
L 69.27922 -314.377041 
L 69.071471 -314.377041 
L 69.071471 -315.996165 
L 68.932973 -315.996165 
L 68.932973 -319.223269 
L 68.863723 -319.223269 
L 68.863723 -320.831123 
L 68.309728 -320.831123 
L 68.309728 -324.035102 
L 67.617233 -324.035102 
L 67.617233 -325.631078 
L 67.409485 -325.631078 
L 67.409485 -327.222942 
L 66.716991 -327.222942 
L 66.716991 -328.810608 
L 66.439993 -328.810608 
L 66.439993 -330.393987 
L 66.093746 -330.393987 
L 66.093746 -331.972984 
L 65.955247 -331.972984 
L 65.955247 -333.547498 
L 65.816748 -333.547498 
L 65.816748 -335.117422 
L 65.470501 -335.117422 
L 65.470501 -336.682642 
L 64.916506 -336.682642 
L 64.916506 -339.798479 
L 64.778007 -339.798479 
L 64.778007 -341.348829 
L 64.570258 -341.348829 
L 64.570258 -342.89394 
L 64.085512 -342.89394 
L 64.085512 -344.433654 
L 63.877764 -344.433654 
L 63.877764 -345.967802 
L 63.462268 -345.967802 
L 63.462268 -347.496204 
L 62.839023 -347.496204 
L 62.839023 -349.018663 
L 62.285027 -349.018663 
L 62.285027 -350.534971 
L 62.215778 -350.534971 
L 62.215778 -352.044899 
L 62.008029 -352.044899 
L 62.008029 -353.548203 
L 61.592533 -353.548203 
L 61.592533 -356.533847 
L 61.523283 -356.533847 
L 61.523283 -358.015582 
L 60.969288 -358.015582 
L 60.969288 -359.489474 
L 60.138295 -359.489474 
L 60.138295 -362.412174 
L 59.861297 -362.412174 
L 59.861297 -362.412174 
L 59.584299 -362.412174 
L 59.584299 -363.852495 
L 59.51505 -363.852495 
L 59.51505 -365.283384 
L 59.030304 -365.283384 
L 59.030304 -366.704284 
L 57.09132 -366.704284 
L 57.09132 -368.114572 
L 57.02207 -368.114572 
L 57.02207 -369.513545 
L 56.952821 -369.513545 
L 56.952821 -370.900409 
L 56.883572 -370.900409 
L 56.883572 -372.274256 
L 56.606574 -372.274256 
L 56.606574 -373.634044 
L 56.537324 -373.634044 
L 56.537324 -374.978566 
L 56.398826 -374.978566 
L 56.398826 -377.615911 
L 56.329576 -377.615911 
L 56.329576 -378.905068 
L 56.191077 -378.905068 
L 56.191077 -380.171459 
L 56.052578 -380.171459 
L 56.052578 -382.623195 
L 55.983329 -382.623195 
L 55.983329 -383.799901 
L 55.429334 -383.799901 
L 55.429334 -384.935734 
L 55.360084 -384.935734 
L 55.360084 -388.806053 
L 55.152336 -388.806053 
L 55.152336 -389.435979 
L 55.083086 -389.435979 
L 55.083086 -389.682295 
L 54.529091 -389.682295 
z
" id="m09aac878f5" style="stroke:#808080;stroke-opacity:0.25;"/>
    </defs>
    <g clip-path="url(#pf8c8900f71)">
     <use style="fill:#808080;fill-opacity:0.25;stroke:#808080;stroke-opacity:0.25;" x="0" xlink:href="#m09aac878f5" y="432"/>
    </g>
   </g>
   <g id="matplotlib.axis_1">
    <g id="xtick_1">
     <g id="line2d_1">
      <path clip-path="url(#pf8c8900f71)" d="M 54.529091 366.5095 
L 54.529091 26.88 
" style="fill:none;stroke:#b0b0b0;stroke-dasharray:2.96,1.28;stroke-dashoffset:0;stroke-opacity:0.5;stroke-width:0.8;"/>
     </g>
     <g id="line2d_2">
      <defs>
       <path d="M 0 0 
L 0 3.5 
" id="ma0c5558226" style="stroke:#000000;stroke-width:0.8;"/>
      </defs>
      <g>
       <use style="stroke:#000000;stroke-width:0.8;" x="54.529091" xlink:href="#ma0c5558226" y="366.5095"/>
      </g>
     </g>
     <g id="text_1">
      <text style="font-family:DejaVu Sans;font-size:10px;font-stretch:normal;font-style:normal;font-weight:normal;text-anchor:middle;" transform="rotate(-0, 54.529091, 381.107937)" x="54.529091" y="381.107937">0</text>
     </g>
    </g>
    <g id="xtick_2">
     <g id="line2d_3">
      <path clip-path="url(#pf8c8900f71)" d="M 123.778522 366.5095 
L 123.778522 26.88 
" style="fill:none;stroke:#b0b0b0;stroke-dasharray:2.96,1.28;stroke-dashoffset:0;stroke-opacity:0.5;stroke-width:0.8;"/>
     </g>
     <g id="line2d_4">
      <g>
       <use style="stroke:#000000;stroke-width:0.8;" x="123.778522" xlink:href="#ma0c5558226" y="366.5095"/>
      </g>
     </g>
     <g id="text_2">
      <text style="font-family:DejaVu Sans;font-size:10px;font-stretch:normal;font-style:normal;font-weight:normal;text-anchor:middle;" transform="rotate(-0, 123.778522, 381.107937)" x="123.778522" y="381.107937">1000</text>
     </g>
    </g>
    <g id="xtick_3">
     <g id="line2d_5">
      <path clip-path="url(#pf8c8900f71)" d="M 193.027953 366.5095 
L 193.027953 26.88 
" style="fill:none;stroke:#b0b0b0;stroke-dasharray:2.96,1.28;stroke-dashoffset:0;stroke-opacity:0.5;stroke-width:0.8;"/>
     </g>
     <g id="line2d_6">
      <g>
       <use style="stroke:#000000;stroke-width:0.8;" x="193.027953" xlink:href="#ma0c5558226" y="366.5095"/>
      </g>
     </g>
     <g id="text_3">
      <text style="font-family:DejaVu Sans;font-size:10px;font-stretch:normal;font-style:normal;font-weight:normal;text-anchor:middle;" transform="rotate(-0, 193.027953, 381.107937)" x="193.027953" y="381.107937">2000</text>
     </g>
    </g>
    <g id="xtick_4">
     <g id="line2d_7">
      <path clip-path="url(#pf8c8900f71)" d="M 262.277384 366.5095 
L 262.277384 26.88 
" style="fill:none;stroke:#b0b0b0;stroke-dasharray:2.96,1.28;stroke-dashoffset:0;stroke-opacity:0.5;stroke-width:0.8;"/>
     </g>
     <g id="line2d_8">
      <g>
       <use style="stroke:#000000;stroke-width:0.8;" x="262.277384" xlink:href="#ma0c5558226" y="366.5095"/>
      </g>
     </g>
     <g id="text_4">
      <text style="font-family:DejaVu Sans;font-size:10px;font-stretch:normal;font-style:normal;font-weight:normal;text-anchor:middle;" transform="rotate(-0, 262.277384, 381.107937)" x="262.277384" y="381.107937">3000</text>
     </g>
    </g>
    <g id="xtick_5">
     <g id="line2d_9">
      <path clip-path="url(#pf8c8900f71)" d="M 331.526816 366.5095 
L 331.526816 26.88 
" style="fill:none;stroke:#b0b0b0;stroke-dasharray:2.96,1.28;stroke-dashoffset:0;stroke-opacity:0.5;stroke-width:0.8;"/>
     </g>
     <g id="line2d_10">
      <g>
       <use style="stroke:#000000;stroke-width:0.8;" x="331.526816" xlink:href="#ma0c5558226" y="366.5095"/>
      </g>
     </g>
     <g id="text_5">
      <text style="font-family:DejaVu Sans;font-size:10px;font-stretch:normal;font-style:normal;font-weight:normal;text-anchor:middle;" transform="rotate(-0, 331.526816, 381.107937)" x="331.526816" y="381.107937">4000</text>
     </g>
    </g>
    <g id="xtick_6">
     <g id="line2d_11">
      <path clip-path="url(#pf8c8900f71)" d="M 400.776247 366.5095 
L 400.776247 26.88 
" style="fill:none;stroke:#b0b0b0;stroke-dasharray:2.96,1.28;stroke-dashoffset:0;stroke-opacity:0.5;stroke-width:0.8;"/>
     </g>
     <g id="line2d_12">
      <g>
       <use style="stroke:#000000;stroke-width:0.8;" x="400.776247" xlink:href="#ma0c5558226" y="366.5095"/>
      </g>
     </g>
     <g id="text_6">
      <text style="font-family:DejaVu Sans;font-size:10px;font-stretch:normal;font-style:normal;font-weight:normal;text-anchor:middle;" transform="rotate(-0, 400.776247, 381.107937)" x="400.776247" y="381.107937">5000</text>
     </g>
    </g>
    <g id="xtick_7">
     <g id="line2d_13">
      <path clip-path="url(#pf8c8900f71)" d="M 470.025678 366.5095 
L 470.025678 26.88 
" style="fill:none;stroke:#b0b0b0;stroke-dasharray:2.96,1.28;stroke-dashoffset:0;stroke-opacity:0.5;stroke-width:0.8;"/>
     </g>
     <g id="line2d_14">
      <g>
       <use style="stroke:#000000;stroke-width:0.8;" x="470.025678" xlink:href="#ma0c5558226" y="366.5095"/>
      </g>
     </g>
     <g id="text_7">
      <text style="font-family:DejaVu Sans;font-size:10px;font-stretch:normal;font-style:normal;font-weight:normal;text-anchor:middle;" transform="rotate(-0, 470.025678, 381.107937)" x="470.025678" y="381.107937">6000</text>
     </g>
    </g>
    <g id="text_8">
     <text style="font-family:DejaVu Sans;font-size:10px;font-stretch:normal;font-style:normal;font-weight:normal;" transform="translate(241.511406 394.786063)">timeline </text>
     <text style="font-family:DejaVu Sans;font-size:10px;font-stretch:normal;font-style:normal;font-weight:normal;" transform="translate(144.034844 405.983875)">    dataset: lgn_pronostic_LSC17, input_dim: 17 </text>
     <text style="font-family:DejaVu Sans;font-size:10px;font-stretch:normal;font-style:normal;font-weight:normal;" transform="translate(184.83875 417.459812)">    c_index: [0.664 0.633 0.696]</text>
    </g>
   </g>
   <g id="matplotlib.axis_2">
    <g id="ytick_1">
     <g id="line2d_15">
      <path clip-path="url(#pf8c8900f71)" d="M 33.64 351.071795 
L 493.2 351.071795 
" style="fill:none;stroke:#b0b0b0;stroke-dasharray:2.96,1.28;stroke-dashoffset:0;stroke-opacity:0.5;stroke-width:0.8;"/>
     </g>
     <g id="line2d_16">
      <defs>
       <path d="M 0 0 
L -3.5 0 
" id="mde79032dc0" style="stroke:#000000;stroke-width:0.8;"/>
      </defs>
      <g>
       <use style="stroke:#000000;stroke-width:0.8;" x="33.64" xlink:href="#mde79032dc0" y="351.071795"/>
      </g>
     </g>
     <g id="text_9">
      <text style="font-family:DejaVu Sans;font-size:10px;font-stretch:normal;font-style:normal;font-weight:normal;text-anchor:end;" transform="rotate(-0, 26.64, 354.871014)" x="26.64" y="354.871014">0.0</text>
     </g>
    </g>
    <g id="ytick_2">
     <g id="line2d_17">
      <path clip-path="url(#pf8c8900f71)" d="M 33.64 289.320977 
L 493.2 289.320977 
" style="fill:none;stroke:#b0b0b0;stroke-dasharray:2.96,1.28;stroke-dashoffset:0;stroke-opacity:0.5;stroke-width:0.8;"/>
     </g>
     <g id="line2d_18">
      <g>
       <use style="stroke:#000000;stroke-width:0.8;" x="33.64" xlink:href="#mde79032dc0" y="289.320977"/>
      </g>
     </g>
     <g id="text_10">
      <text style="font-family:DejaVu Sans;font-size:10px;font-stretch:normal;font-style:normal;font-weight:normal;text-anchor:end;" transform="rotate(-0, 26.64, 293.120196)" x="26.64" y="293.120196">0.2</text>
     </g>
    </g>
    <g id="ytick_3">
     <g id="line2d_19">
      <path clip-path="url(#pf8c8900f71)" d="M 33.64 227.570159 
L 493.2 227.570159 
" style="fill:none;stroke:#b0b0b0;stroke-dasharray:2.96,1.28;stroke-dashoffset:0;stroke-opacity:0.5;stroke-width:0.8;"/>
     </g>
     <g id="line2d_20">
      <g>
       <use style="stroke:#000000;stroke-width:0.8;" x="33.64" xlink:href="#mde79032dc0" y="227.570159"/>
      </g>
     </g>
     <g id="text_11">
      <text style="font-family:DejaVu Sans;font-size:10px;font-stretch:normal;font-style:normal;font-weight:normal;text-anchor:end;" transform="rotate(-0, 26.64, 231.369378)" x="26.64" y="231.369378">0.4</text>
     </g>
    </g>
    <g id="ytick_4">
     <g id="line2d_21">
      <path clip-path="url(#pf8c8900f71)" d="M 33.64 165.819341 
L 493.2 165.819341 
" style="fill:none;stroke:#b0b0b0;stroke-dasharray:2.96,1.28;stroke-dashoffset:0;stroke-opacity:0.5;stroke-width:0.8;"/>
     </g>
     <g id="line2d_22">
      <g>
       <use style="stroke:#000000;stroke-width:0.8;" x="33.64" xlink:href="#mde79032dc0" y="165.819341"/>
      </g>
     </g>
     <g id="text_12">
      <text style="font-family:DejaVu Sans;font-size:10px;font-stretch:normal;font-style:normal;font-weight:normal;text-anchor:end;" transform="rotate(-0, 26.64, 169.61856)" x="26.64" y="169.61856">0.6</text>
     </g>
    </g>
    <g id="ytick_5">
     <g id="line2d_23">
      <path clip-path="url(#pf8c8900f71)" d="M 33.64 104.068523 
L 493.2 104.068523 
" style="fill:none;stroke:#b0b0b0;stroke-dasharray:2.96,1.28;stroke-dashoffset:0;stroke-opacity:0.5;stroke-width:0.8;"/>
     </g>
     <g id="line2d_24">
      <g>
       <use style="stroke:#000000;stroke-width:0.8;" x="33.64" xlink:href="#mde79032dc0" y="104.068523"/>
      </g>
     </g>
     <g id="text_13">
      <text style="font-family:DejaVu Sans;font-size:10px;font-stretch:normal;font-style:normal;font-weight:normal;text-anchor:end;" transform="rotate(-0, 26.64, 107.867741)" x="26.64" y="107.867741">0.8</text>
     </g>
    </g>
    <g id="ytick_6">
     <g id="line2d_25">
      <path clip-path="url(#pf8c8900f71)" d="M 33.64 42.317705 
L 493.2 42.317705 
" style="fill:none;stroke:#b0b0b0;stroke-dasharray:2.96,1.28;stroke-dashoffset:0;stroke-opacity:0.5;stroke-width:0.8;"/>
     </g>
     <g id="line2d_26">
      <g>
       <use style="stroke:#000000;stroke-width:0.8;" x="33.64" xlink:href="#mde79032dc0" y="42.317705"/>
      </g>
     </g>
     <g id="text_14">
      <text style="font-family:DejaVu Sans;font-size:10px;font-stretch:normal;font-style:normal;font-weight:normal;text-anchor:end;" transform="rotate(-0, 26.64, 46.116923)" x="26.64" y="46.116923">1.0</text>
     </g>
    </g>
   </g>
   <g id="line2d_27">
    <defs>
     <path d="M -3 3 
L 3 -3 
M -3 -3 
L 3 3 
" id="mf47ff4c8d5" style="stroke:#ff0000;"/>
    </defs>
    <g clip-path="url(#pf8c8900f71)">
     <use style="fill:#ff0000;stroke:#ff0000;" x="191.850713" xlink:href="#mf47ff4c8d5" y="315.446323"/>
     <use style="fill:#ff0000;stroke:#ff0000;" x="206.254595" xlink:href="#mf47ff4c8d5" y="315.446323"/>
     <use style="fill:#ff0000;stroke:#ff0000;" x="248.704496" xlink:href="#mf47ff4c8d5" y="325.62503"/>
     <use style="fill:#ff0000;stroke:#ff0000;" x="269.133078" xlink:href="#mf47ff4c8d5" y="325.62503"/>
     <use style="fill:#ff0000;stroke:#ff0000;" x="302.234306" xlink:href="#mf47ff4c8d5" y="325.62503"/>
    </g>
   </g>
   <g id="line2d_28">
    <path clip-path="url(#pf8c8900f71)" d="M 54.529091 42.317705 
L 55.290835 42.317705 
L 55.290835 46.27609 
L 55.498583 46.27609 
L 55.567832 54.192862 
L 55.775581 54.192862 
L 55.775581 58.151248 
L 55.91408 58.151248 
L 55.91408 62.109633 
L 56.052578 62.109633 
L 56.052578 70.026405 
L 57.02207 70.026405 
L 57.02207 77.943177 
L 57.783814 77.943177 
L 57.783814 81.901562 
L 58.060812 81.901562 
L 58.060812 85.859948 
L 58.33781 85.859948 
L 58.33781 89.818334 
L 58.822556 89.818334 
L 58.822556 93.77672 
L 59.307302 93.77672 
L 59.307302 97.735105 
L 59.722798 97.735105 
L 59.722798 105.651877 
L 59.861297 105.651877 
L 59.861297 109.610263 
L 60.276794 109.610263 
L 60.276794 113.568649 
L 60.415293 113.568649 
L 60.415293 117.527034 
L 60.553791 117.527034 
L 60.623041 125.443806 
L 60.830789 125.443806 
L 60.830789 129.402192 
L 61.246286 129.402192 
L 61.246286 133.360578 
L 62.146528 133.360578 
L 62.215778 141.277349 
L 63.046771 141.277349 
L 63.046771 145.235735 
L 63.323769 145.235735 
L 63.323769 149.194121 
L 63.739265 149.194121 
L 63.739265 153.152506 
L 63.877764 153.152506 
L 63.947014 161.069278 
L 64.016263 161.069278 
L 64.016263 165.027664 
L 64.43176 165.027664 
L 64.43176 168.98605 
L 64.708757 168.98605 
L 64.778007 176.902821 
L 65.055004 176.902821 
L 65.055004 184.819593 
L 65.193503 184.819593 
L 65.193503 188.777978 
L 65.678249 188.777978 
L 65.678249 192.736364 
L 66.162995 192.736364 
L 66.162995 196.69475 
L 66.647741 196.69475 
L 66.647741 200.653136 
L 68.932973 200.653136 
L 68.932973 204.611522 
L 69.763966 204.611522 
L 69.763966 208.569907 
L 70.733458 208.569907 
L 70.802707 216.486679 
L 70.871957 216.486679 
L 70.941206 224.40345 
L 71.010456 224.40345 
L 71.010456 228.361836 
L 71.218204 228.361836 
L 71.218204 232.320222 
L 71.495202 232.320222 
L 71.495202 236.278608 
L 72.049197 236.278608 
L 72.049197 240.236994 
L 74.334428 240.236994 
L 74.334428 244.195379 
L 75.30392 244.195379 
L 75.30392 248.153765 
L 75.442419 248.153765 
L 75.442419 252.112151 
L 75.788666 252.112151 
L 75.788666 256.070537 
L 77.242904 256.070537 
L 77.242904 260.028922 
L 79.320387 260.028922 
L 79.320387 263.987308 
L 80.22063 263.987308 
L 80.22063 267.945694 
L 81.813367 267.945694 
L 81.813367 271.90408 
L 82.021115 271.90408 
L 82.021115 275.862466 
L 84.029349 275.862466 
L 84.029349 279.820851 
L 84.514095 279.820851 
L 84.514095 283.779237 
L 85.414337 283.779237 
L 85.414337 287.737623 
L 88.599811 287.737623 
L 88.599811 291.696009 
L 99.194974 291.696009 
L 99.194974 295.654395 
L 108.128151 295.654395 
L 108.128151 299.61278 
L 110.274883 299.61278 
L 110.274883 303.571166 
L 111.86762 303.571166 
L 111.86762 307.529552 
L 116.645831 307.529552 
L 116.645831 311.487938 
L 150.231805 311.487938 
L 150.231805 315.446323 
L 209.024572 315.446323 
L 209.024572 320.535677 
L 218.165497 320.535677 
L 218.165497 325.62503 
L 347.800432 325.62503 
L 347.800432 351.071795 
L 347.800432 351.071795 
" style="fill:none;stroke:#ff0000;stroke-linecap:square;stroke-width:1.5;"/>
   </g>
   <g id="line2d_29">
    <defs>
     <path d="M -3 3 
L 3 -3 
M -3 -3 
L 3 3 
" id="m8c9cc82127" style="stroke:#0000ff;"/>
    </defs>
    <g clip-path="url(#pf8c8900f71)">
     <use style="fill:#0000ff;stroke:#0000ff;" x="182.709788" xlink:href="#m8c9cc82127" y="152.096937"/>
     <use style="fill:#0000ff;stroke:#0000ff;" x="184.579523" xlink:href="#m8c9cc82127" y="152.096937"/>
     <use style="fill:#0000ff;stroke:#0000ff;" x="193.651198" xlink:href="#m8c9cc82127" y="152.096937"/>
     <use style="fill:#0000ff;stroke:#0000ff;" x="208.678325" xlink:href="#m8c9cc82127" y="152.096937"/>
     <use style="fill:#0000ff;stroke:#0000ff;" x="218.373245" xlink:href="#m8c9cc82127" y="160.055931"/>
     <use style="fill:#0000ff;stroke:#0000ff;" x="224.259447" xlink:href="#m8c9cc82127" y="160.055931"/>
     <use style="fill:#0000ff;stroke:#0000ff;" x="226.26768" xlink:href="#m8c9cc82127" y="160.055931"/>
     <use style="fill:#0000ff;stroke:#0000ff;" x="232.153882" xlink:href="#m8c9cc82127" y="160.055931"/>
     <use style="fill:#0000ff;stroke:#0000ff;" x="235.685603" xlink:href="#m8c9cc82127" y="160.055931"/>
     <use style="fill:#0000ff;stroke:#0000ff;" x="245.519022" xlink:href="#m8c9cc82127" y="160.055931"/>
     <use style="fill:#0000ff;stroke:#0000ff;" x="261.377142" xlink:href="#m8c9cc82127" y="160.055931"/>
     <use style="fill:#0000ff;stroke:#0000ff;" x="263.177627" xlink:href="#m8c9cc82127" y="160.055931"/>
     <use style="fill:#0000ff;stroke:#0000ff;" x="280.697733" xlink:href="#m8c9cc82127" y="160.055931"/>
     <use style="fill:#0000ff;stroke:#0000ff;" x="284.160205" xlink:href="#m8c9cc82127" y="160.055931"/>
     <use style="fill:#0000ff;stroke:#0000ff;" x="289.838658" xlink:href="#m8c9cc82127" y="160.055931"/>
     <use style="fill:#0000ff;stroke:#0000ff;" x="316.638188" xlink:href="#m8c9cc82127" y="160.055931"/>
     <use style="fill:#0000ff;stroke:#0000ff;" x="322.039643" xlink:href="#m8c9cc82127" y="160.055931"/>
     <use style="fill:#0000ff;stroke:#0000ff;" x="330.765072" xlink:href="#m8c9cc82127" y="160.055931"/>
     <use style="fill:#0000ff;stroke:#0000ff;" x="333.812047" xlink:href="#m8c9cc82127" y="160.055931"/>
     <use style="fill:#0000ff;stroke:#0000ff;" x="344.060963" xlink:href="#m8c9cc82127" y="160.055931"/>
     <use style="fill:#0000ff;stroke:#0000ff;" x="357.910849" xlink:href="#m8c9cc82127" y="160.055931"/>
     <use style="fill:#0000ff;stroke:#0000ff;" x="389.904086" xlink:href="#m8c9cc82127" y="160.055931"/>
     <use style="fill:#0000ff;stroke:#0000ff;" x="398.491015" xlink:href="#m8c9cc82127" y="160.055931"/>
     <use style="fill:#0000ff;stroke:#0000ff;" x="408.393684" xlink:href="#m8c9cc82127" y="160.055931"/>
     <use style="fill:#0000ff;stroke:#0000ff;" x="425.221296" xlink:href="#m8c9cc82127" y="160.055931"/>
     <use style="fill:#0000ff;stroke:#0000ff;" x="441.356413" xlink:href="#m8c9cc82127" y="160.055931"/>
     <use style="fill:#0000ff;stroke:#0000ff;" x="455.483297" xlink:href="#m8c9cc82127" y="160.055931"/>
    </g>
   </g>
   <g id="line2d_30">
    <path clip-path="url(#pf8c8900f71)" d="M 54.529091 42.317705 
L 61.731032 42.317705 
L 61.731032 49.178907 
L 71.772199 49.178907 
L 71.772199 56.040109 
L 75.30392 56.040109 
L 75.30392 62.901311 
L 75.580918 62.901311 
L 75.580918 69.762513 
L 86.31458 69.762513 
L 86.31458 76.623715 
L 88.045816 76.623715 
L 88.045816 90.346119 
L 89.084557 90.346119 
L 89.084557 97.207321 
L 100.233715 97.207321 
L 100.233715 104.068523 
L 106.812411 104.068523 
L 106.812411 110.929725 
L 121.008545 110.929725 
L 121.008545 117.790927 
L 122.462783 117.790927 
L 122.462783 124.652129 
L 129.803223 124.652129 
L 129.803223 131.513331 
L 162.9737 131.513331 
L 162.9737 138.374533 
L 179.108818 138.374533 
L 179.108818 145.235735 
L 181.463298 145.235735 
L 181.463298 152.096937 
L 182.709788 152.096937 
L 182.709788 152.096937 
L 184.579523 152.096937 
L 184.579523 152.096937 
L 193.651198 152.096937 
L 193.651198 152.096937 
L 208.678325 152.096937 
L 208.678325 152.096937 
L 218.026998 152.096937 
L 218.026998 160.055931 
L 218.373245 160.055931 
L 218.373245 160.055931 
L 224.259447 160.055931 
L 224.259447 160.055931 
L 226.26768 160.055931 
L 226.26768 160.055931 
L 232.153882 160.055931 
L 232.153882 160.055931 
L 235.685603 160.055931 
L 235.685603 160.055931 
L 245.519022 160.055931 
L 245.519022 160.055931 
L 261.377142 160.055931 
L 261.377142 160.055931 
L 263.177627 160.055931 
L 263.177627 160.055931 
L 280.697733 160.055931 
L 280.697733 160.055931 
L 284.160205 160.055931 
L 284.160205 160.055931 
L 289.838658 160.055931 
L 289.838658 160.055931 
L 316.638188 160.055931 
L 316.638188 160.055931 
L 322.039643 160.055931 
L 322.039643 160.055931 
L 330.765072 160.055931 
L 330.765072 160.055931 
L 333.812047 160.055931 
L 333.812047 160.055931 
L 344.060963 160.055931 
L 344.060963 160.055931 
L 357.910849 160.055931 
L 357.910849 160.055931 
L 389.904086 160.055931 
L 389.904086 160.055931 
L 398.491015 160.055931 
L 398.491015 160.055931 
L 408.393684 160.055931 
L 408.393684 160.055931 
L 425.221296 160.055931 
L 425.221296 160.055931 
L 441.356413 160.055931 
L 441.356413 160.055931 
L 455.483297 160.055931 
L 455.483297 160.055931 
" style="fill:none;stroke:#0000ff;stroke-linecap:square;stroke-width:1.5;"/>
   </g>
   <g id="line2d_31">
    <defs>
     <path d="M -3 3 
L 3 -3 
M -3 -3 
L 3 3 
" id="m98d285cf47" style="stroke:#808080;"/>
    </defs>
    <g clip-path="url(#pf8c8900f71)">
     <use style="fill:#808080;stroke:#808080;" x="59.861297" xlink:href="#m98d285cf47" y="82.438293"/>
     <use style="fill:#808080;stroke:#808080;" x="95.386255" xlink:href="#m98d285cf47" y="221.14448"/>
     <use style="fill:#808080;stroke:#808080;" x="187.3495" xlink:href="#m98d285cf47" y="260.300658"/>
     <use style="fill:#808080;stroke:#808080;" x="187.834246" xlink:href="#m98d285cf47" y="262.11608"/>
     <use style="fill:#808080;stroke:#808080;" x="189.703981" xlink:href="#m98d285cf47" y="262.11608"/>
     <use style="fill:#808080;stroke:#808080;" x="198.983404" xlink:href="#m98d285cf47" y="264.008755"/>
     <use style="fill:#808080;stroke:#808080;" x="208.262828" xlink:href="#m98d285cf47" y="267.878224"/>
     <use style="fill:#808080;stroke:#808080;" x="227.444921" xlink:href="#m98d285cf47" y="271.839822"/>
     <use style="fill:#808080;stroke:#808080;" x="237.001342" xlink:href="#m98d285cf47" y="271.839822"/>
     <use style="fill:#808080;stroke:#808080;" x="237.901585" xlink:href="#m98d285cf47" y="271.839822"/>
     <use style="fill:#808080;stroke:#808080;" x="241.156308" xlink:href="#m98d285cf47" y="271.839822"/>
     <use style="fill:#808080;stroke:#808080;" x="252.859462" xlink:href="#m98d285cf47" y="274.04071"/>
     <use style="fill:#808080;stroke:#808080;" x="253.759704" xlink:href="#m98d285cf47" y="274.04071"/>
     <use style="fill:#808080;stroke:#808080;" x="266.43235" xlink:href="#m98d285cf47" y="278.709261"/>
     <use style="fill:#808080;stroke:#808080;" x="270.10257" xlink:href="#m98d285cf47" y="278.709261"/>
     <use style="fill:#808080;stroke:#808080;" x="280.420735" xlink:href="#m98d285cf47" y="278.709261"/>
     <use style="fill:#808080;stroke:#808080;" x="295.586361" xlink:href="#m98d285cf47" y="278.709261"/>
     <use style="fill:#808080;stroke:#808080;" x="322.385891" xlink:href="#m98d285cf47" y="278.709261"/>
     <use style="fill:#808080;stroke:#808080;" x="330.626573" xlink:href="#m98d285cf47" y="278.709261"/>
     <use style="fill:#808080;stroke:#808080;" x="333.535049" xlink:href="#m98d285cf47" y="278.709261"/>
     <use style="fill:#808080;stroke:#808080;" x="333.673548" xlink:href="#m98d285cf47" y="278.709261"/>
     <use style="fill:#808080;stroke:#808080;" x="333.881296" xlink:href="#m98d285cf47" y="278.709261"/>
     <use style="fill:#808080;stroke:#808080;" x="338.31326" xlink:href="#m98d285cf47" y="278.709261"/>
     <use style="fill:#808080;stroke:#808080;" x="351.609151" xlink:href="#m98d285cf47" y="278.709261"/>
     <use style="fill:#808080;stroke:#808080;" x="356.52586" xlink:href="#m98d285cf47" y="278.709261"/>
     <use style="fill:#808080;stroke:#808080;" x="359.503586" xlink:href="#m98d285cf47" y="278.709261"/>
     <use style="fill:#808080;stroke:#808080;" x="370.652744" xlink:href="#m98d285cf47" y="278.709261"/>
     <use style="fill:#808080;stroke:#808080;" x="374.738461" xlink:href="#m98d285cf47" y="278.709261"/>
     <use style="fill:#808080;stroke:#808080;" x="376.746694" xlink:href="#m98d285cf47" y="278.709261"/>
     <use style="fill:#808080;stroke:#808080;" x="380.693912" xlink:href="#m98d285cf47" y="283.53343"/>
     <use style="fill:#808080;stroke:#808080;" x="383.256141" xlink:href="#m98d285cf47" y="283.53343"/>
     <use style="fill:#808080;stroke:#808080;" x="388.726846" xlink:href="#m98d285cf47" y="283.53343"/>
     <use style="fill:#808080;stroke:#808080;" x="391.566072" xlink:href="#m98d285cf47" y="283.53343"/>
     <use style="fill:#808080;stroke:#808080;" x="392.604814" xlink:href="#m98d285cf47" y="283.53343"/>
     <use style="fill:#808080;stroke:#808080;" x="393.505056" xlink:href="#m98d285cf47" y="283.53343"/>
     <use style="fill:#808080;stroke:#808080;" x="405.069711" xlink:href="#m98d285cf47" y="283.53343"/>
     <use style="fill:#808080;stroke:#808080;" x="432.907983" xlink:href="#m98d285cf47" y="283.53343"/>
     <use style="fill:#808080;stroke:#808080;" x="445.926876" xlink:href="#m98d285cf47" y="283.53343"/>
     <use style="fill:#808080;stroke:#808080;" x="458.184025" xlink:href="#m98d285cf47" y="283.53343"/>
     <use style="fill:#808080;stroke:#808080;" x="459.499764" xlink:href="#m98d285cf47" y="283.53343"/>
     <use style="fill:#808080;stroke:#808080;" x="463.931728" xlink:href="#m98d285cf47" y="283.53343"/>
     <use style="fill:#808080;stroke:#808080;" x="464.347225" xlink:href="#m98d285cf47" y="283.53343"/>
     <use style="fill:#808080;stroke:#808080;" x="472.310909" xlink:href="#m98d285cf47" y="283.53343"/>
    </g>
   </g>
   <g id="line2d_32">
    <path clip-path="url(#pf8c8900f71)" d="M 54.529091 42.317705 
L 55.083086 42.317705 
L 55.152336 45.806451 
L 55.360084 45.806451 
L 55.429334 54.528318 
L 55.983329 54.528318 
L 56.052578 59.761438 
L 56.191077 59.761438 
L 56.191077 61.505812 
L 56.329576 61.505812 
L 56.398826 66.738932 
L 56.537324 66.738932 
L 56.606574 70.227679 
L 56.883572 70.227679 
L 56.952821 73.716426 
L 57.02207 73.716426 
L 57.09132 77.205172 
L 59.030304 77.205172 
L 59.030304 78.949546 
L 59.51505 78.949546 
L 59.584299 82.438293 
L 60.138295 82.438293 
L 60.138295 85.949842 
L 60.969288 85.949842 
L 60.969288 87.705616 
L 61.523283 87.705616 
L 61.592533 92.97294 
L 62.008029 92.97294 
L 62.008029 94.728714 
L 62.215778 94.728714 
L 62.285027 98.240263 
L 62.839023 98.240263 
L 62.839023 99.996038 
L 63.462268 99.996038 
L 63.462268 101.751812 
L 63.877764 101.751812 
L 63.877764 103.507587 
L 64.085512 103.507587 
L 64.085512 105.263361 
L 64.570258 105.263361 
L 64.570258 107.019136 
L 64.778007 107.019136 
L 64.778007 108.774911 
L 64.916506 108.774911 
L 64.916506 112.28646 
L 65.470501 112.28646 
L 65.470501 114.042234 
L 65.816748 114.042234 
L 65.816748 115.798009 
L 65.955247 115.798009 
L 65.955247 117.553783 
L 66.093746 117.553783 
L 66.093746 119.309558 
L 66.439993 119.309558 
L 66.439993 121.065332 
L 66.716991 121.065332 
L 66.716991 122.821107 
L 67.409485 122.821107 
L 67.409485 124.576881 
L 67.617233 124.576881 
L 67.617233 126.332656 
L 68.309728 126.332656 
L 68.309728 129.844205 
L 68.863723 129.844205 
L 68.932973 135.111528 
L 69.071471 135.111528 
L 69.071471 136.867303 
L 69.27922 136.867303 
L 69.27922 140.378852 
L 69.833215 140.378852 
L 69.833215 142.134627 
L 71.010456 142.134627 
L 71.010456 143.890401 
L 71.218204 143.890401 
L 71.218204 145.646176 
L 71.356703 145.646176 
L 71.356703 147.40195 
L 71.910698 147.40195 
L 71.979948 150.913499 
L 72.187696 150.913499 
L 72.187696 152.669274 
L 72.741691 152.669274 
L 72.810941 156.180823 
L 73.018689 156.180823 
L 73.018689 157.936597 
L 73.572684 157.936597 
L 73.572684 159.692372 
L 74.195929 159.692372 
L 74.195929 161.448146 
L 74.680675 161.448146 
L 74.680675 163.203921 
L 75.026923 163.203921 
L 75.096172 168.471245 
L 75.442419 168.471245 
L 75.442419 170.227019 
L 75.996415 170.227019 
L 75.996415 175.494343 
L 76.55041 175.494343 
L 76.55041 180.761666 
L 76.758158 180.761666 
L 76.827408 184.273215 
L 77.242904 184.273215 
L 77.242904 186.02899 
L 77.935399 186.02899 
L 77.935399 187.784764 
L 78.143147 187.784764 
L 78.143147 189.540539 
L 79.251138 189.540539 
L 79.251138 191.296313 
L 79.528136 191.296313 
L 79.528136 193.052088 
L 79.735884 193.052088 
L 79.735884 194.807862 
L 80.082131 194.807862 
L 80.082131 196.563637 
L 82.090365 196.563637 
L 82.090365 198.319411 
L 82.228863 198.319411 
L 82.228863 200.075186 
L 82.436612 200.075186 
L 82.436612 201.830961 
L 85.137339 201.830961 
L 85.206589 205.34251 
L 85.552836 205.34251 
L 85.552836 207.098284 
L 88.322813 207.098284 
L 88.392063 210.609833 
L 88.599811 210.609833 
L 88.66906 214.121382 
L 89.777051 214.121382 
L 89.777051 215.877157 
L 90.469546 215.877157 
L 90.538795 219.388706 
L 91.508287 219.388706 
L 91.508287 221.14448 
L 95.524754 221.14448 
L 95.524754 222.924307 
L 96.217248 222.924307 
L 96.217248 224.704133 
L 98.779477 224.704133 
L 98.779477 226.483959 
L 101.618704 226.483959 
L 101.687954 230.043612 
L 101.826452 230.043612 
L 101.826452 231.823438 
L 103.488439 231.823438 
L 103.488439 233.603264 
L 104.52718 233.603264 
L 104.52718 235.38309 
L 110.69038 235.38309 
L 110.69038 237.162916 
L 112.629364 237.162916 
L 112.629364 238.942743 
L 112.767863 238.942743 
L 112.767863 240.722569 
L 113.183359 240.722569 
L 113.183359 242.502395 
L 114.152851 242.502395 
L 114.152851 244.282221 
L 118.654064 244.282221 
L 118.654064 246.062048 
L 130.772715 246.062048 
L 130.772715 247.841874 
L 131.118962 247.841874 
L 131.118962 249.6217 
L 137.351411 249.6217 
L 137.351411 251.401526 
L 138.5979 251.401526 
L 138.5979 253.181353 
L 151.201297 253.181353 
L 151.201297 254.961179 
L 156.118006 254.961179 
L 156.118006 256.741005 
L 165.743677 256.741005 
L 165.743677 258.520831 
L 168.305906 258.520831 
L 168.305906 260.300658 
L 187.557248 260.300658 
L 187.557248 262.11608 
L 198.221661 262.11608 
L 198.221661 264.008755 
L 204.800357 264.008755 
L 204.800357 265.943489 
L 207.362585 265.943489 
L 207.362585 267.878224 
L 209.509318 267.878224 
L 209.509318 269.859023 
L 215.257021 269.859023 
L 215.257021 271.839822 
L 249.46624 271.839822 
L 249.46624 274.04071 
L 258.122419 274.04071 
L 258.122419 276.374986 
L 265.878355 276.374986 
L 265.878355 278.709261 
L 377.716186 278.709261 
L 377.716186 283.53343 
L 472.310909 283.53343 
L 472.310909 283.53343 
" style="fill:none;stroke:#808080;stroke-linecap:square;stroke-width:1.5;"/>
   </g>
   <g id="patch_3">
    <path d="M 33.64 366.5095 
L 33.64 26.88 
" style="fill:none;stroke:#000000;stroke-linecap:square;stroke-linejoin:miter;stroke-width:0.8;"/>
   </g>
   <g id="patch_4">
    <path d="M 493.2 366.5095 
L 493.2 26.88 
" style="fill:none;stroke:#000000;stroke-linecap:square;stroke-linejoin:miter;stroke-width:0.8;"/>
   </g>
   <g id="patch_5">
    <path d="M 33.64 366.5095 
L 493.2 366.5095 
" style="fill:none;stroke:#000000;stroke-linecap:square;stroke-linejoin:miter;stroke-width:0.8;"/>
   </g>
   <g id="patch_6">
    <path d="M 33.64 26.88 
L 493.2 26.88 
" style="fill:none;stroke:#000000;stroke-linecap:square;stroke-linejoin:miter;stroke-width:0.8;"/>
   </g>
   <g id="text_15">
    <text style="font-family:DejaVu Sans;font-size:12px;font-stretch:normal;font-style:normal;font-weight:normal;text-anchor:middle;" transform="rotate(-0, 263.42, 20.88)" x="263.42" y="20.88">Survival curves - model_type: ridge_cph_lifelines</text>
   </g>
   <g id="legend_1">
    <g id="patch_7">
     <path d="M 349.195312 78.914375 
L 486.2 78.914375 
Q 488.2 78.914375 488.2 76.914375 
L 488.2 33.88 
Q 488.2 31.88 486.2 31.88 
L 349.195312 31.88 
Q 347.195312 31.88 347.195312 33.88 
L 347.195312 76.914375 
Q 347.195312 78.914375 349.195312 78.914375 
z
" style="fill:#ffffff;opacity:0.8;stroke:#cccccc;stroke-linejoin:miter;"/>
    </g>
    <g id="line2d_33">
     <path d="M 351.195312 39.978437 
L 371.195312 39.978437 
" style="fill:none;stroke:#ff0000;stroke-linecap:square;stroke-width:1.5;"/>
    </g>
    <g id="line2d_34"/>
    <g id="text_16">
     <text style="font-family:DejaVu Sans;font-size:10px;font-stretch:normal;font-style:normal;font-weight:normal;text-anchor:start;" transform="rotate(-0, 379.195312, 43.478437)" x="379.195312" y="43.478437">adv. risk (n:78 c:6 )</text>
    </g>
    <g id="line2d_35">
     <path d="M 351.195312 54.656563 
L 371.195312 54.656563 
" style="fill:none;stroke:#0000ff;stroke-linecap:square;stroke-width:1.5;"/>
    </g>
    <g id="line2d_36"/>
    <g id="text_17">
     <text style="font-family:DejaVu Sans;font-size:10px;font-stretch:normal;font-style:normal;font-weight:normal;text-anchor:start;" transform="rotate(-0, 379.195312, 58.156563)" x="379.195312" y="58.156563">fav. risk (n:45 c:28)</text>
    </g>
    <g id="line2d_37">
     <path d="M 351.195312 69.334687 
L 371.195312 69.334687 
" style="fill:none;stroke:#808080;stroke-linecap:square;stroke-width:1.5;"/>
    </g>
    <g id="line2d_38"/>
    <g id="text_18">
     <text style="font-family:DejaVu Sans;font-size:10px;font-stretch:normal;font-style:normal;font-weight:normal;text-anchor:start;" transform="rotate(-0, 379.195312, 72.834687)" x="379.195312" y="72.834687">int. risk (n:177 c:43 )</text>
    </g>
   </g>
  </g>
 </g>
 <defs>
  <clipPath id="pf8c8900f71">
   <rect height="339.6295" width="459.56" x="33.64" y="26.88"/>
  </clipPath>
 </defs>
</svg>
