<?xml version="1.0" encoding="utf-8" standalone="no"?>
<!DOCTYPE svg PUBLIC "-//W3C//DTD SVG 1.1//EN"
  "http://www.w3.org/Graphics/SVG/1.1/DTD/svg11.dtd">
<!-- Created with matplotlib (https://matplotlib.org/) -->
<svg height="432pt" version="1.1" viewBox="0 0 504 432" width="504pt" xmlns="http://www.w3.org/2000/svg" xmlns:xlink="http://www.w3.org/1999/xlink">
 <metadata>
  <rdf:RDF xmlns:cc="http://creativecommons.org/ns#" xmlns:dc="http://purl.org/dc/elements/1.1/" xmlns:rdf="http://www.w3.org/1999/02/22-rdf-syntax-ns#">
   <cc:Work>
    <dc:type rdf:resource="http://purl.org/dc/dcmitype/StillImage"/>
    <dc:date>2022-11-28T13:19:46.814305</dc:date>
    <dc:format>image/svg+xml</dc:format>
    <dc:creator>
     <cc:Agent>
      <dc:title>Matplotlib v3.3.4, https://matplotlib.org/</dc:title>
     </cc:Agent>
    </dc:creator>
   </cc:Work>
  </rdf:RDF>
 </metadata>
 <defs>
  <style type="text/css">*{stroke-linecap:butt;stroke-linejoin:round;}</style>
 </defs>
 <g id="figure_1">
  <g id="patch_1">
   <path d="M 0 432 
L 504 432 
L 504 0 
L 0 0 
z
" style="fill:#ffffff;"/>
  </g>
  <g id="axes_1">
   <g id="patch_2">
    <path d="M 33.64 366.5095 
L 481.102663 366.5095 
L 481.102663 26.88 
L 33.64 26.88 
z
" style="fill:#ffffff;"/>
   </g>
   <g id="PolyCollection_1">
    <defs>
     <path d="M 53.979212 -377.065063 
L 53.979212 -300.97045 
L 57.960323 -300.97045 
L 57.960323 -300.97045 
L 58.244688 -300.97045 
L 58.244688 -289.37861 
L 58.386871 -289.37861 
L 58.386871 -278.155177 
L 62.367982 -278.155177 
L 62.367982 -278.155177 
L 62.652347 -278.155177 
L 62.652347 -255.361537 
L 75.306593 -255.361537 
L 75.306593 -244.498315 
L 79.714251 -244.498315 
L 79.714251 -233.934157 
L 80.140799 -233.934157 
L 80.140799 -223.642716 
L 84.12191 -223.642716 
L 84.12191 -203.808741 
L 84.406275 -203.808741 
L 84.406275 -184.905694 
L 84.548457 -184.905694 
L 84.548457 -175.791128 
L 88.529568 -175.791128 
L 88.529568 -158.236912 
L 88.813934 -158.236912 
L 88.813934 -148.836048 
L 92.795045 -148.836048 
L 92.795045 -139.788093 
L 97.202703 -139.788093 
L 97.202703 -122.796439 
L 97.344886 -122.796439 
L 97.344886 -114.898567 
L 106.018021 -114.898567 
L 106.018021 -107.450568 
L 127.629766 -107.450568 
L 127.629766 -100.514219 
L 136.018536 -100.514219 
L 136.018536 -94.182495 
L 136.445084 -94.182495 
L 136.445084 -88.602073 
L 140.426195 -88.602073 
L 140.426195 -84.023428 
L 149.383694 -84.023428 
L 149.383694 -80.928205 
L 153.364805 -80.928205 
L 153.364805 -80.928205 
L 153.364805 -127.615537 
L 153.364805 -127.615537 
L 153.364805 -127.615537 
L 149.383694 -127.615537 
L 149.383694 -142.828537 
L 140.426195 -142.828537 
L 140.426195 -157.184601 
L 136.445084 -157.184601 
L 136.445084 -170.763556 
L 136.018536 -170.763556 
L 136.018536 -183.727943 
L 127.629766 -183.727943 
L 127.629766 -196.189721 
L 106.018021 -196.189721 
L 106.018021 -208.224448 
L 97.344886 -208.224448 
L 97.344886 -219.884432 
L 97.202703 -219.884432 
L 97.202703 -242.217679 
L 92.795045 -242.217679 
L 92.795045 -252.936152 
L 88.813934 -252.936152 
L 88.813934 -263.374948 
L 88.529568 -263.374948 
L 88.529568 -282.499607 
L 84.548457 -282.499607 
L 84.548457 -291.751604 
L 84.406275 -291.751604 
L 84.406275 -309.63166 
L 84.12191 -309.63166 
L 84.12191 -326.646353 
L 80.140799 -326.646353 
L 80.140799 -334.805539 
L 79.714251 -334.805539 
L 79.714251 -342.712328 
L 75.306593 -342.712328 
L 75.306593 -350.344755 
L 62.652347 -350.344755 
L 62.652347 -364.656235 
L 62.367982 -364.656235 
L 62.367982 -364.656235 
L 58.386871 -364.656235 
L 58.386871 -371.082764 
L 58.244688 -371.082764 
L 58.244688 -377.065063 
L 57.960323 -377.065063 
L 57.960323 -377.065063 
L 53.979212 -377.065063 
z
" id="mf482ac65f8" style="stroke:#ff0000;stroke-opacity:0.25;"/>
    </defs>
    <g clip-path="url(#pe0e05723cc)">
     <use style="fill:#ff0000;fill-opacity:0.25;stroke:#ff0000;stroke-opacity:0.25;" x="0" xlink:href="#mf482ac65f8" y="432"/>
    </g>
   </g>
   <g id="PolyCollection_2">
    <defs>
     <path d="M 53.979212 -386.479972 
L 53.979212 -316.645971 
L 62.652347 -316.645971 
L 62.652347 -316.645971 
L 75.306593 -316.645971 
L 75.306593 -316.645971 
L 79.714251 -316.645971 
L 79.714251 -316.645971 
L 80.140799 -316.645971 
L 80.140799 -301.564044 
L 84.12191 -301.564044 
L 84.12191 -301.564044 
L 84.548457 -301.564044 
L 84.548457 -286.236744 
L 88.529568 -286.236744 
L 88.529568 -286.236744 
L 97.202703 -286.236744 
L 97.202703 -286.236744 
L 101.468179 -286.236744 
L 101.468179 -286.236744 
L 110.283497 -286.236744 
L 110.283497 -286.236744 
L 118.672266 -286.236744 
L 118.672266 -286.236744 
L 123.506473 -286.236744 
L 123.506473 -264.008375 
L 149.383694 -264.008375 
L 149.383694 -264.008375 
L 153.364805 -264.008375 
L 153.364805 -264.008375 
L 157.914647 -264.008375 
L 157.914647 -240.127637 
L 166.587781 -240.127637 
L 166.587781 -219.386065 
L 188.057345 -219.386065 
L 188.057345 -219.386065 
L 188.34171 -219.386065 
L 188.34171 -197.941008 
L 218.484407 -197.941008 
L 218.484407 -197.941008 
L 231.565201 -197.941008 
L 231.565201 -197.941008 
L 278.769803 -197.941008 
L 278.769803 -197.941008 
L 300.665914 -197.941008 
L 300.665914 -197.941008 
L 313.604525 -197.941008 
L 313.604525 -197.941008 
L 322.27766 -197.941008 
L 322.27766 -197.941008 
L 373.32119 -197.941008 
L 373.32119 -197.941008 
L 378.724127 -197.941008 
L 378.724127 -197.941008 
L 408.866825 -197.941008 
L 408.866825 -197.941008 
L 408.866825 -329.840537 
L 408.866825 -329.840537 
L 408.866825 -329.840537 
L 378.724127 -329.840537 
L 378.724127 -329.840537 
L 373.32119 -329.840537 
L 373.32119 -329.840537 
L 322.27766 -329.840537 
L 322.27766 -329.840537 
L 313.604525 -329.840537 
L 313.604525 -329.840537 
L 300.665914 -329.840537 
L 300.665914 -329.840537 
L 278.769803 -329.840537 
L 278.769803 -329.840537 
L 231.565201 -329.840537 
L 231.565201 -329.840537 
L 218.484407 -329.840537 
L 218.484407 -329.840537 
L 188.34171 -329.840537 
L 188.34171 -343.326994 
L 188.057345 -343.326994 
L 188.057345 -343.326994 
L 166.587781 -343.326994 
L 166.587781 -355.111519 
L 157.914647 -355.111519 
L 157.914647 -365.691141 
L 153.364805 -365.691141 
L 153.364805 -365.691141 
L 149.383694 -365.691141 
L 149.383694 -365.691141 
L 123.506473 -365.691141 
L 123.506473 -374.379636 
L 118.672266 -374.379636 
L 118.672266 -374.379636 
L 110.283497 -374.379636 
L 110.283497 -374.379636 
L 101.468179 -374.379636 
L 101.468179 -374.379636 
L 97.202703 -374.379636 
L 97.202703 -374.379636 
L 88.529568 -374.379636 
L 88.529568 -374.379636 
L 84.548457 -374.379636 
L 84.548457 -381.00582 
L 84.12191 -381.00582 
L 84.12191 -381.00582 
L 80.140799 -381.00582 
L 80.140799 -386.479972 
L 79.714251 -386.479972 
L 79.714251 -386.479972 
L 75.306593 -386.479972 
L 75.306593 -386.479972 
L 62.652347 -386.479972 
L 62.652347 -386.479972 
L 53.979212 -386.479972 
z
" id="mf53ca72834" style="stroke:#0000ff;stroke-opacity:0.25;"/>
    </defs>
    <g clip-path="url(#pe0e05723cc)">
     <use style="fill:#0000ff;fill-opacity:0.25;stroke:#0000ff;stroke-opacity:0.25;" x="0" xlink:href="#mf53ca72834" y="432"/>
    </g>
   </g>
   <g id="PolyCollection_3">
    <defs>
     <path d="M 53.979212 -389.682295 
L 53.979212 -359.465329 
L 57.960323 -359.465329 
L 57.960323 -354.098466 
L 58.386871 -354.098466 
L 58.386871 -332.581989 
L 62.367982 -332.581989 
L 62.367982 -332.581989 
L 66.633458 -332.581989 
L 66.633458 -327.284154 
L 66.77564 -327.284154 
L 66.77564 -322.073394 
L 71.325481 -322.073394 
L 71.325481 -311.643887 
L 71.467664 -311.643887 
L 71.467664 -306.538838 
L 75.73314 -306.538838 
L 75.73314 -296.514258 
L 79.998616 -296.514258 
L 79.998616 -291.464863 
L 80.140799 -291.464863 
L 80.140799 -286.471247 
L 84.12191 -286.471247 
L 84.12191 -281.529391 
L 88.387386 -281.529391 
L 88.387386 -276.635933 
L 92.795045 -276.635933 
L 92.795045 -276.635933 
L 92.937227 -276.635933 
L 92.937227 -271.662269 
L 97.060521 -271.662269 
L 97.060521 -266.736741 
L 97.202703 -266.736741 
L 97.202703 -261.856717 
L 97.487068 -261.856717 
L 97.487068 -257.01996 
L 101.610362 -257.01996 
L 101.610362 -247.202851 
L 105.875838 -247.202851 
L 105.875838 -237.556637 
L 106.018021 -237.556637 
L 106.018021 -232.793842 
L 109.856949 -232.793842 
L 109.856949 -232.793842 
L 118.956631 -232.793842 
L 118.956631 -232.793842 
L 123.079925 -232.793842 
L 123.079925 -227.587145 
L 123.222108 -227.587145 
L 123.222108 -227.587145 
L 123.506473 -227.587145 
L 123.506473 -222.250439 
L 136.018536 -222.250439 
L 136.018536 -211.754116 
L 140.568377 -211.754116 
L 140.568377 -206.590524 
L 144.691671 -206.590524 
L 144.691671 -206.590524 
L 145.118218 -206.590524 
L 145.118218 -206.590524 
L 157.772464 -206.590524 
L 157.772464 -206.590524 
L 157.914647 -206.590524 
L 157.914647 -200.793663 
L 166.587781 -200.793663 
L 166.587781 -195.07949 
L 167.725242 -195.07949 
L 167.725242 -189.164548 
L 170.853258 -189.164548 
L 170.853258 -171.960872 
L 175.403099 -171.960872 
L 175.403099 -166.400795 
L 179.38421 -166.400795 
L 179.38421 -166.400795 
L 184.076233 -166.400795 
L 184.076233 -160.5717 
L 192.322821 -160.5717 
L 192.322821 -154.848681 
L 222.607701 -154.848681 
L 222.607701 -154.848681 
L 226.873177 -154.848681 
L 226.873177 -154.848681 
L 227.299725 -154.848681 
L 227.299725 -154.848681 
L 253.176947 -154.848681 
L 253.176947 -147.047592 
L 253.319129 -147.047592 
L 253.319129 -139.54621 
L 257.30024 -139.54621 
L 257.30024 -139.54621 
L 257.442423 -139.54621 
L 257.442423 -131.456491 
L 274.504327 -131.456491 
L 274.504327 -131.456491 
L 278.769803 -131.456491 
L 278.769803 -131.456491 
L 287.442938 -131.456491 
L 287.442938 -121.118964 
L 291.850597 -121.118964 
L 291.850597 -121.118964 
L 296.54262 -121.118964 
L 296.54262 -109.618374 
L 309.623414 -109.618374 
L 309.623414 -109.618374 
L 321.993295 -109.618374 
L 321.993295 -109.618374 
L 369.624444 -109.618374 
L 369.624444 -109.618374 
L 373.036825 -109.618374 
L 373.036825 -109.618374 
L 460.763451 -109.618374 
L 460.763451 -109.618374 
L 460.763451 -187.223493 
L 460.763451 -187.223493 
L 460.763451 -187.223493 
L 373.036825 -187.223493 
L 373.036825 -187.223493 
L 369.624444 -187.223493 
L 369.624444 -187.223493 
L 321.993295 -187.223493 
L 321.993295 -187.223493 
L 309.623414 -187.223493 
L 309.623414 -187.223493 
L 296.54262 -187.223493 
L 296.54262 -197.967767 
L 291.850597 -197.967767 
L 291.850597 -197.967767 
L 287.442938 -197.967767 
L 287.442938 -207.385475 
L 278.769803 -207.385475 
L 278.769803 -207.385475 
L 274.504327 -207.385475 
L 274.504327 -207.385475 
L 257.442423 -207.385475 
L 257.442423 -215.478046 
L 257.30024 -215.478046 
L 257.30024 -215.478046 
L 253.319129 -215.478046 
L 253.319129 -222.952164 
L 253.176947 -222.952164 
L 253.176947 -230.220984 
L 227.299725 -230.220984 
L 227.299725 -230.220984 
L 226.873177 -230.220984 
L 226.873177 -230.220984 
L 222.607701 -230.220984 
L 222.607701 -230.220984 
L 192.322821 -230.220984 
L 192.322821 -236.284433 
L 184.076233 -236.284433 
L 184.076233 -242.267254 
L 179.38421 -242.267254 
L 179.38421 -242.267254 
L 175.403099 -242.267254 
L 175.403099 -247.975001 
L 170.853258 -247.975001 
L 170.853258 -264.699296 
L 167.725242 -264.699296 
L 167.725242 -270.140643 
L 166.587781 -270.140643 
L 166.587781 -275.373241 
L 157.914647 -275.373241 
L 157.914647 -280.545607 
L 157.772464 -280.545607 
L 157.772464 -280.545607 
L 145.118218 -280.545607 
L 145.118218 -280.545607 
L 144.691671 -280.545607 
L 144.691671 -280.545607 
L 140.568377 -280.545607 
L 140.568377 -285.30421 
L 136.018536 -285.30421 
L 136.018536 -294.687554 
L 123.506473 -294.687554 
L 123.506473 -299.310631 
L 123.222108 -299.310631 
L 123.222108 -299.310631 
L 123.079925 -299.310631 
L 123.079925 -303.794579 
L 118.956631 -303.794579 
L 118.956631 -303.794579 
L 109.856949 -303.794579 
L 109.856949 -303.794579 
L 106.018021 -303.794579 
L 106.018021 -307.986521 
L 105.875838 -307.986521 
L 105.875838 -316.263016 
L 101.610362 -316.263016 
L 101.610362 -324.389191 
L 97.487068 -324.389191 
L 97.487068 -328.327613 
L 97.202703 -328.327613 
L 97.202703 -332.226775 
L 97.060521 -332.226775 
L 97.060521 -336.084929 
L 92.937227 -336.084929 
L 92.937227 -339.900068 
L 92.795045 -339.900068 
L 92.795045 -339.900068 
L 88.387386 -339.900068 
L 88.387386 -343.61509 
L 84.12191 -343.61509 
L 84.12191 -347.284772 
L 80.140799 -347.284772 
L 80.140799 -350.906229 
L 79.998616 -350.906229 
L 79.998616 -354.476073 
L 75.73314 -354.476073 
L 75.73314 -361.355745 
L 71.467664 -361.355745 
L 71.467664 -364.704057 
L 71.325481 -364.704057 
L 71.325481 -371.184449 
L 66.77564 -371.184449 
L 66.77564 -374.263476 
L 66.633458 -374.263476 
L 66.633458 -377.24548 
L 62.367982 -377.24548 
L 62.367982 -377.24548 
L 58.386871 -377.24548 
L 58.386871 -387.659025 
L 57.960323 -387.659025 
L 57.960323 -389.682295 
L 53.979212 -389.682295 
z
" id="m0db88bfa0b" style="stroke:#808080;stroke-opacity:0.25;"/>
    </defs>
    <g clip-path="url(#pe0e05723cc)">
     <use style="fill:#808080;fill-opacity:0.25;stroke:#808080;stroke-opacity:0.25;" x="0" xlink:href="#m0db88bfa0b" y="432"/>
    </g>
   </g>
   <g id="matplotlib.axis_1">
    <g id="xtick_1">
     <g id="line2d_1">
      <path clip-path="url(#pe0e05723cc)" d="M 53.979212 366.5095 
L 53.979212 26.88 
" style="fill:none;stroke:#b0b0b0;stroke-dasharray:2.96,1.28;stroke-dashoffset:0;stroke-opacity:0.5;stroke-width:0.8;"/>
     </g>
     <g id="line2d_2">
      <defs>
       <path d="M 0 0 
L 0 3.5 
" id="mdfd318fa6b" style="stroke:#000000;stroke-width:0.8;"/>
      </defs>
      <g>
       <use style="stroke:#000000;stroke-width:0.8;" x="53.979212" xlink:href="#mdfd318fa6b" y="366.5095"/>
      </g>
     </g>
     <g id="text_1">
      <text style="font-family:DejaVu Sans;font-size:10px;font-stretch:normal;font-style:normal;font-weight:normal;text-anchor:middle;" transform="rotate(-0, 53.979212, 381.107937)" x="53.979212" y="381.107937">0</text>
     </g>
    </g>
    <g id="xtick_2">
     <g id="line2d_3">
      <path clip-path="url(#pe0e05723cc)" d="M 125.070481 366.5095 
L 125.070481 26.88 
" style="fill:none;stroke:#b0b0b0;stroke-dasharray:2.96,1.28;stroke-dashoffset:0;stroke-opacity:0.5;stroke-width:0.8;"/>
     </g>
     <g id="line2d_4">
      <g>
       <use style="stroke:#000000;stroke-width:0.8;" x="125.070481" xlink:href="#mdfd318fa6b" y="366.5095"/>
      </g>
     </g>
     <g id="text_2">
      <text style="font-family:DejaVu Sans;font-size:10px;font-stretch:normal;font-style:normal;font-weight:normal;text-anchor:middle;" transform="rotate(-0, 125.070481, 381.107937)" x="125.070481" y="381.107937">500</text>
     </g>
    </g>
    <g id="xtick_3">
     <g id="line2d_5">
      <path clip-path="url(#pe0e05723cc)" d="M 196.161749 366.5095 
L 196.161749 26.88 
" style="fill:none;stroke:#b0b0b0;stroke-dasharray:2.96,1.28;stroke-dashoffset:0;stroke-opacity:0.5;stroke-width:0.8;"/>
     </g>
     <g id="line2d_6">
      <g>
       <use style="stroke:#000000;stroke-width:0.8;" x="196.161749" xlink:href="#mdfd318fa6b" y="366.5095"/>
      </g>
     </g>
     <g id="text_3">
      <text style="font-family:DejaVu Sans;font-size:10px;font-stretch:normal;font-style:normal;font-weight:normal;text-anchor:middle;" transform="rotate(-0, 196.161749, 381.107937)" x="196.161749" y="381.107937">1000</text>
     </g>
    </g>
    <g id="xtick_4">
     <g id="line2d_7">
      <path clip-path="url(#pe0e05723cc)" d="M 267.253018 366.5095 
L 267.253018 26.88 
" style="fill:none;stroke:#b0b0b0;stroke-dasharray:2.96,1.28;stroke-dashoffset:0;stroke-opacity:0.5;stroke-width:0.8;"/>
     </g>
     <g id="line2d_8">
      <g>
       <use style="stroke:#000000;stroke-width:0.8;" x="267.253018" xlink:href="#mdfd318fa6b" y="366.5095"/>
      </g>
     </g>
     <g id="text_4">
      <text style="font-family:DejaVu Sans;font-size:10px;font-stretch:normal;font-style:normal;font-weight:normal;text-anchor:middle;" transform="rotate(-0, 267.253018, 381.107937)" x="267.253018" y="381.107937">1500</text>
     </g>
    </g>
    <g id="xtick_5">
     <g id="line2d_9">
      <path clip-path="url(#pe0e05723cc)" d="M 338.344286 366.5095 
L 338.344286 26.88 
" style="fill:none;stroke:#b0b0b0;stroke-dasharray:2.96,1.28;stroke-dashoffset:0;stroke-opacity:0.5;stroke-width:0.8;"/>
     </g>
     <g id="line2d_10">
      <g>
       <use style="stroke:#000000;stroke-width:0.8;" x="338.344286" xlink:href="#mdfd318fa6b" y="366.5095"/>
      </g>
     </g>
     <g id="text_5">
      <text style="font-family:DejaVu Sans;font-size:10px;font-stretch:normal;font-style:normal;font-weight:normal;text-anchor:middle;" transform="rotate(-0, 338.344286, 381.107937)" x="338.344286" y="381.107937">2000</text>
     </g>
    </g>
    <g id="xtick_6">
     <g id="line2d_11">
      <path clip-path="url(#pe0e05723cc)" d="M 409.435555 366.5095 
L 409.435555 26.88 
" style="fill:none;stroke:#b0b0b0;stroke-dasharray:2.96,1.28;stroke-dashoffset:0;stroke-opacity:0.5;stroke-width:0.8;"/>
     </g>
     <g id="line2d_12">
      <g>
       <use style="stroke:#000000;stroke-width:0.8;" x="409.435555" xlink:href="#mdfd318fa6b" y="366.5095"/>
      </g>
     </g>
     <g id="text_6">
      <text style="font-family:DejaVu Sans;font-size:10px;font-stretch:normal;font-style:normal;font-weight:normal;text-anchor:middle;" transform="rotate(-0, 409.435555, 381.107937)" x="409.435555" y="381.107937">2500</text>
     </g>
    </g>
    <g id="xtick_7">
     <g id="line2d_13">
      <path clip-path="url(#pe0e05723cc)" d="M 480.526823 366.5095 
L 480.526823 26.88 
" style="fill:none;stroke:#b0b0b0;stroke-dasharray:2.96,1.28;stroke-dashoffset:0;stroke-opacity:0.5;stroke-width:0.8;"/>
     </g>
     <g id="line2d_14">
      <g>
       <use style="stroke:#000000;stroke-width:0.8;" x="480.526823" xlink:href="#mdfd318fa6b" y="366.5095"/>
      </g>
     </g>
     <g id="text_7">
      <text style="font-family:DejaVu Sans;font-size:10px;font-stretch:normal;font-style:normal;font-weight:normal;text-anchor:middle;" transform="rotate(-0, 480.526823, 381.107937)" x="480.526823" y="381.107937">3000</text>
     </g>
    </g>
    <g id="text_8">
     <text style="font-family:DejaVu Sans;font-size:10px;font-stretch:normal;font-style:normal;font-weight:normal;" transform="translate(235.462738 394.786063)">timeline </text>
     <text style="font-family:DejaVu Sans;font-size:10px;font-stretch:normal;font-style:normal;font-weight:normal;" transform="translate(130.8518 405.983875)">    dataset: tcga_target_aml_LSC17, input_dim: 17 </text>
     <text style="font-family:DejaVu Sans;font-size:10px;font-stretch:normal;font-style:normal;font-weight:normal;" transform="translate(178.790081 417.459812)">    c_index: [0.687 0.632 0.738]</text>
    </g>
   </g>
   <g id="matplotlib.axis_2">
    <g id="ytick_1">
     <g id="line2d_15">
      <path clip-path="url(#pe0e05723cc)" d="M 33.64 351.89392 
L 481.102663 351.89392 
" style="fill:none;stroke:#b0b0b0;stroke-dasharray:2.96,1.28;stroke-dashoffset:0;stroke-opacity:0.5;stroke-width:0.8;"/>
     </g>
     <g id="line2d_16">
      <defs>
       <path d="M 0 0 
L -3.5 0 
" id="m071ac336a7" style="stroke:#000000;stroke-width:0.8;"/>
      </defs>
      <g>
       <use style="stroke:#000000;stroke-width:0.8;" x="33.64" xlink:href="#m071ac336a7" y="351.89392"/>
      </g>
     </g>
     <g id="text_9">
      <text style="font-family:DejaVu Sans;font-size:10px;font-stretch:normal;font-style:normal;font-weight:normal;text-anchor:end;" transform="rotate(-0, 26.64, 355.693139)" x="26.64" y="355.693139">0.0</text>
     </g>
    </g>
    <g id="ytick_2">
     <g id="line2d_17">
      <path clip-path="url(#pe0e05723cc)" d="M 33.64 289.552969 
L 481.102663 289.552969 
" style="fill:none;stroke:#b0b0b0;stroke-dasharray:2.96,1.28;stroke-dashoffset:0;stroke-opacity:0.5;stroke-width:0.8;"/>
     </g>
     <g id="line2d_18">
      <g>
       <use style="stroke:#000000;stroke-width:0.8;" x="33.64" xlink:href="#m071ac336a7" y="289.552969"/>
      </g>
     </g>
     <g id="text_10">
      <text style="font-family:DejaVu Sans;font-size:10px;font-stretch:normal;font-style:normal;font-weight:normal;text-anchor:end;" transform="rotate(-0, 26.64, 293.352188)" x="26.64" y="293.352188">0.2</text>
     </g>
    </g>
    <g id="ytick_3">
     <g id="line2d_19">
      <path clip-path="url(#pe0e05723cc)" d="M 33.64 227.212018 
L 481.102663 227.212018 
" style="fill:none;stroke:#b0b0b0;stroke-dasharray:2.96,1.28;stroke-dashoffset:0;stroke-opacity:0.5;stroke-width:0.8;"/>
     </g>
     <g id="line2d_20">
      <g>
       <use style="stroke:#000000;stroke-width:0.8;" x="33.64" xlink:href="#m071ac336a7" y="227.212018"/>
      </g>
     </g>
     <g id="text_11">
      <text style="font-family:DejaVu Sans;font-size:10px;font-stretch:normal;font-style:normal;font-weight:normal;text-anchor:end;" transform="rotate(-0, 26.64, 231.011237)" x="26.64" y="231.011237">0.4</text>
     </g>
    </g>
    <g id="ytick_4">
     <g id="line2d_21">
      <path clip-path="url(#pe0e05723cc)" d="M 33.64 164.871068 
L 481.102663 164.871068 
" style="fill:none;stroke:#b0b0b0;stroke-dasharray:2.96,1.28;stroke-dashoffset:0;stroke-opacity:0.5;stroke-width:0.8;"/>
     </g>
     <g id="line2d_22">
      <g>
       <use style="stroke:#000000;stroke-width:0.8;" x="33.64" xlink:href="#m071ac336a7" y="164.871068"/>
      </g>
     </g>
     <g id="text_12">
      <text style="font-family:DejaVu Sans;font-size:10px;font-stretch:normal;font-style:normal;font-weight:normal;text-anchor:end;" transform="rotate(-0, 26.64, 168.670287)" x="26.64" y="168.670287">0.6</text>
     </g>
    </g>
    <g id="ytick_5">
     <g id="line2d_23">
      <path clip-path="url(#pe0e05723cc)" d="M 33.64 102.530117 
L 481.102663 102.530117 
" style="fill:none;stroke:#b0b0b0;stroke-dasharray:2.96,1.28;stroke-dashoffset:0;stroke-opacity:0.5;stroke-width:0.8;"/>
     </g>
     <g id="line2d_24">
      <g>
       <use style="stroke:#000000;stroke-width:0.8;" x="33.64" xlink:href="#m071ac336a7" y="102.530117"/>
      </g>
     </g>
     <g id="text_13">
      <text style="font-family:DejaVu Sans;font-size:10px;font-stretch:normal;font-style:normal;font-weight:normal;text-anchor:end;" transform="rotate(-0, 26.64, 106.329336)" x="26.64" y="106.329336">0.8</text>
     </g>
    </g>
    <g id="ytick_6">
     <g id="line2d_25">
      <path clip-path="url(#pe0e05723cc)" d="M 33.64 40.189166 
L 481.102663 40.189166 
" style="fill:none;stroke:#b0b0b0;stroke-dasharray:2.96,1.28;stroke-dashoffset:0;stroke-opacity:0.5;stroke-width:0.8;"/>
     </g>
     <g id="line2d_26">
      <g>
       <use style="stroke:#000000;stroke-width:0.8;" x="33.64" xlink:href="#m071ac336a7" y="40.189166"/>
      </g>
     </g>
     <g id="text_14">
      <text style="font-family:DejaVu Sans;font-size:10px;font-stretch:normal;font-style:normal;font-weight:normal;text-anchor:end;" transform="rotate(-0, 26.64, 43.988385)" x="26.64" y="43.988385">1.0</text>
     </g>
    </g>
   </g>
   <g id="line2d_27">
    <defs>
     <path d="M -3 3 
L 3 -3 
M -3 -3 
L 3 3 
" id="m5fe3ec9cf2" style="stroke:#ff0000;"/>
    </defs>
    <g clip-path="url(#pe0e05723cc)">
     <use style="fill:#ff0000;stroke:#ff0000;" x="57.960323" xlink:href="#m5fe3ec9cf2" y="77.971561"/>
     <use style="fill:#ff0000;stroke:#ff0000;" x="62.367982" xlink:href="#m5fe3ec9cf2" y="97.537444"/>
     <use style="fill:#ff0000;stroke:#ff0000;" x="88.529568" xlink:href="#m5fe3ec9cf2" y="219.628552"/>
     <use style="fill:#ff0000;stroke:#ff0000;" x="153.364805" xlink:href="#m5fe3ec9cf2" y="340.871806"/>
    </g>
   </g>
   <g id="line2d_28">
    <path clip-path="url(#pe0e05723cc)" d="M 53.979212 77.971561 
L 57.960323 77.971561 
L 57.960323 77.971561 
L 58.244688 77.971561 
L 58.244688 87.754502 
L 58.386871 87.754502 
L 58.386871 97.537444 
L 62.367982 97.537444 
L 62.367982 97.537444 
L 62.652347 97.537444 
L 62.652347 117.885962 
L 75.306593 117.885962 
L 75.306593 128.060221 
L 79.714251 128.060221 
L 79.714251 138.23448 
L 80.140799 138.23448 
L 80.140799 148.408739 
L 84.12191 148.408739 
L 84.12191 168.757257 
L 84.406275 168.757257 
L 84.406275 189.105775 
L 84.548457 189.105775 
L 84.548457 199.280034 
L 88.529568 199.280034 
L 88.529568 219.628552 
L 88.813934 219.628552 
L 88.813934 230.650666 
L 92.795045 230.650666 
L 92.795045 241.67278 
L 97.202703 241.67278 
L 97.202703 263.717008 
L 97.344886 263.717008 
L 97.344886 274.739122 
L 106.018021 274.739122 
L 106.018021 285.761236 
L 127.629766 285.761236 
L 127.629766 296.78335 
L 136.018536 296.78335 
L 136.018536 307.805464 
L 136.445084 307.805464 
L 136.445084 318.827578 
L 140.426195 318.827578 
L 140.426195 329.849692 
L 149.383694 329.849692 
L 149.383694 340.871806 
L 153.364805 340.871806 
L 153.364805 340.871806 
" style="fill:none;stroke:#ff0000;stroke-linecap:square;stroke-width:1.5;"/>
   </g>
   <g id="line2d_29">
    <defs>
     <path d="M -3 3 
L 3 -3 
M -3 -3 
L 3 3 
" id="m514ab69163" style="stroke:#0000ff;"/>
    </defs>
    <g clip-path="url(#pe0e05723cc)">
     <use style="fill:#0000ff;stroke:#0000ff;" x="62.652347" xlink:href="#m514ab69163" y="60.969483"/>
     <use style="fill:#0000ff;stroke:#0000ff;" x="75.306593" xlink:href="#m514ab69163" y="60.969483"/>
     <use style="fill:#0000ff;stroke:#0000ff;" x="79.714251" xlink:href="#m514ab69163" y="60.969483"/>
     <use style="fill:#0000ff;stroke:#0000ff;" x="84.12191" xlink:href="#m514ab69163" y="72.606461"/>
     <use style="fill:#0000ff;stroke:#0000ff;" x="88.529568" xlink:href="#m514ab69163" y="84.749394"/>
     <use style="fill:#0000ff;stroke:#0000ff;" x="97.202703" xlink:href="#m514ab69163" y="84.749394"/>
     <use style="fill:#0000ff;stroke:#0000ff;" x="101.468179" xlink:href="#m514ab69163" y="84.749394"/>
     <use style="fill:#0000ff;stroke:#0000ff;" x="110.283497" xlink:href="#m514ab69163" y="84.749394"/>
     <use style="fill:#0000ff;stroke:#0000ff;" x="118.672266" xlink:href="#m514ab69163" y="84.749394"/>
     <use style="fill:#0000ff;stroke:#0000ff;" x="149.383694" xlink:href="#m514ab69163" y="100.463778"/>
     <use style="fill:#0000ff;stroke:#0000ff;" x="153.364805" xlink:href="#m514ab69163" y="100.463778"/>
     <use style="fill:#0000ff;stroke:#0000ff;" x="188.057345" xlink:href="#m514ab69163" y="136.382369"/>
     <use style="fill:#0000ff;stroke:#0000ff;" x="218.484407" xlink:href="#m514ab69163" y="155.974328"/>
     <use style="fill:#0000ff;stroke:#0000ff;" x="231.565201" xlink:href="#m514ab69163" y="155.974328"/>
     <use style="fill:#0000ff;stroke:#0000ff;" x="278.769803" xlink:href="#m514ab69163" y="155.974328"/>
     <use style="fill:#0000ff;stroke:#0000ff;" x="300.665914" xlink:href="#m514ab69163" y="155.974328"/>
     <use style="fill:#0000ff;stroke:#0000ff;" x="313.604525" xlink:href="#m514ab69163" y="155.974328"/>
     <use style="fill:#0000ff;stroke:#0000ff;" x="322.27766" xlink:href="#m514ab69163" y="155.974328"/>
     <use style="fill:#0000ff;stroke:#0000ff;" x="373.32119" xlink:href="#m514ab69163" y="155.974328"/>
     <use style="fill:#0000ff;stroke:#0000ff;" x="378.724127" xlink:href="#m514ab69163" y="155.974328"/>
     <use style="fill:#0000ff;stroke:#0000ff;" x="408.866825" xlink:href="#m514ab69163" y="155.974328"/>
    </g>
   </g>
   <g id="line2d_30">
    <path clip-path="url(#pe0e05723cc)" d="M 53.979212 60.969483 
L 62.652347 60.969483 
L 62.652347 60.969483 
L 75.306593 60.969483 
L 75.306593 60.969483 
L 79.714251 60.969483 
L 79.714251 60.969483 
L 80.140799 60.969483 
L 80.140799 72.606461 
L 84.12191 72.606461 
L 84.12191 72.606461 
L 84.548457 72.606461 
L 84.548457 84.749394 
L 88.529568 84.749394 
L 88.529568 84.749394 
L 97.202703 84.749394 
L 97.202703 84.749394 
L 101.468179 84.749394 
L 101.468179 84.749394 
L 110.283497 84.749394 
L 110.283497 84.749394 
L 118.672266 84.749394 
L 118.672266 84.749394 
L 123.506473 84.749394 
L 123.506473 100.463778 
L 149.383694 100.463778 
L 149.383694 100.463778 
L 153.364805 100.463778 
L 153.364805 100.463778 
L 157.914647 100.463778 
L 157.914647 118.423073 
L 166.587781 118.423073 
L 166.587781 136.382369 
L 188.057345 136.382369 
L 188.057345 136.382369 
L 188.34171 136.382369 
L 188.34171 155.974328 
L 218.484407 155.974328 
L 218.484407 155.974328 
L 231.565201 155.974328 
L 231.565201 155.974328 
L 278.769803 155.974328 
L 278.769803 155.974328 
L 300.665914 155.974328 
L 300.665914 155.974328 
L 313.604525 155.974328 
L 313.604525 155.974328 
L 322.27766 155.974328 
L 322.27766 155.974328 
L 373.32119 155.974328 
L 373.32119 155.974328 
L 378.724127 155.974328 
L 378.724127 155.974328 
L 408.866825 155.974328 
L 408.866825 155.974328 
" style="fill:none;stroke:#0000ff;stroke-linecap:square;stroke-width:1.5;"/>
   </g>
   <g id="line2d_31">
    <defs>
     <path d="M -3 3 
L 3 -3 
M -3 -3 
L 3 3 
" id="maa7c570a53" style="stroke:#808080;"/>
    </defs>
    <g clip-path="url(#pe0e05723cc)">
     <use style="fill:#808080;stroke:#808080;" x="53.979212" xlink:href="#maa7c570a53" y="48.613619"/>
     <use style="fill:#808080;stroke:#808080;" x="62.367982" xlink:href="#maa7c570a53" y="69.971387"/>
     <use style="fill:#808080;stroke:#808080;" x="66.77564" xlink:href="#maa7c570a53" y="78.645926"/>
     <use style="fill:#808080;stroke:#808080;" x="75.73314" xlink:href="#maa7c570a53" y="100.682055"/>
     <use style="fill:#808080;stroke:#808080;" x="92.795045" xlink:href="#maa7c570a53" y="118.625759"/>
     <use style="fill:#808080;stroke:#808080;" x="97.487068" xlink:href="#maa7c570a53" y="136.921301"/>
     <use style="fill:#808080;stroke:#808080;" x="109.856949" xlink:href="#maa7c570a53" y="160.28789"/>
     <use style="fill:#808080;stroke:#808080;" x="118.956631" xlink:href="#maa7c570a53" y="160.28789"/>
     <use style="fill:#808080;stroke:#808080;" x="123.222108" xlink:href="#maa7c570a53" y="165.330154"/>
     <use style="fill:#808080;stroke:#808080;" x="144.691671" xlink:href="#maa7c570a53" y="186.059462"/>
     <use style="fill:#808080;stroke:#808080;" x="145.118218" xlink:href="#maa7c570a53" y="186.059462"/>
     <use style="fill:#808080;stroke:#808080;" x="157.772464" xlink:href="#maa7c570a53" y="186.059462"/>
     <use style="fill:#808080;stroke:#808080;" x="166.587781" xlink:href="#maa7c570a53" y="197.496321"/>
     <use style="fill:#808080;stroke:#808080;" x="179.38421" xlink:href="#maa7c570a53" y="227.188167"/>
     <use style="fill:#808080;stroke:#808080;" x="222.607701" xlink:href="#maa7c570a53" y="239.658742"/>
     <use style="fill:#808080;stroke:#808080;" x="226.873177" xlink:href="#maa7c570a53" y="239.658742"/>
     <use style="fill:#808080;stroke:#808080;" x="227.299725" xlink:href="#maa7c570a53" y="239.658742"/>
     <use style="fill:#808080;stroke:#808080;" x="257.30024" xlink:href="#maa7c570a53" y="255.692339"/>
     <use style="fill:#808080;stroke:#808080;" x="274.504327" xlink:href="#maa7c570a53" y="264.437937"/>
     <use style="fill:#808080;stroke:#808080;" x="278.769803" xlink:href="#maa7c570a53" y="264.437937"/>
     <use style="fill:#808080;stroke:#808080;" x="291.850597" xlink:href="#maa7c570a53" y="275.369935"/>
     <use style="fill:#808080;stroke:#808080;" x="309.623414" xlink:href="#maa7c570a53" y="288.123932"/>
     <use style="fill:#808080;stroke:#808080;" x="321.993295" xlink:href="#maa7c570a53" y="288.123932"/>
     <use style="fill:#808080;stroke:#808080;" x="369.624444" xlink:href="#maa7c570a53" y="288.123932"/>
     <use style="fill:#808080;stroke:#808080;" x="373.036825" xlink:href="#maa7c570a53" y="288.123932"/>
     <use style="fill:#808080;stroke:#808080;" x="460.763451" xlink:href="#maa7c570a53" y="288.123932"/>
    </g>
   </g>
   <g id="line2d_32">
    <path clip-path="url(#pe0e05723cc)" d="M 53.979212 48.613619 
L 57.960323 48.613619 
L 57.960323 52.885173 
L 58.386871 52.885173 
L 58.386871 69.971387 
L 62.367982 69.971387 
L 62.367982 69.971387 
L 66.633458 69.971387 
L 66.633458 74.308657 
L 66.77564 74.308657 
L 66.77564 78.645926 
L 71.325481 78.645926 
L 71.325481 87.460378 
L 71.467664 87.460378 
L 71.467664 91.867603 
L 75.73314 91.867603 
L 75.73314 100.682055 
L 79.998616 100.682055 
L 79.998616 105.167981 
L 80.140799 105.167981 
L 80.140799 109.653907 
L 84.12191 109.653907 
L 84.12191 114.139833 
L 88.387386 114.139833 
L 88.387386 118.625759 
L 92.795045 118.625759 
L 92.795045 118.625759 
L 92.937227 118.625759 
L 92.937227 123.199645 
L 97.060521 123.199645 
L 97.060521 127.77353 
L 97.202703 127.77353 
L 97.202703 132.347416 
L 97.487068 132.347416 
L 97.487068 136.921301 
L 101.610362 136.921301 
L 101.610362 146.267937 
L 105.875838 146.267937 
L 105.875838 155.614573 
L 106.018021 155.614573 
L 106.018021 160.28789 
L 109.856949 160.28789 
L 109.856949 160.28789 
L 118.956631 160.28789 
L 118.956631 160.28789 
L 123.079925 160.28789 
L 123.079925 165.330154 
L 123.222108 165.330154 
L 123.222108 165.330154 
L 123.506473 165.330154 
L 123.506473 170.512481 
L 136.018536 170.512481 
L 136.018536 180.877135 
L 140.568377 180.877135 
L 140.568377 186.059462 
L 144.691671 186.059462 
L 144.691671 186.059462 
L 145.118218 186.059462 
L 145.118218 186.059462 
L 157.772464 186.059462 
L 157.772464 186.059462 
L 157.914647 186.059462 
L 157.914647 191.777891 
L 166.587781 191.777891 
L 166.587781 197.496321 
L 167.725242 197.496321 
L 167.725242 203.43469 
L 170.853258 203.43469 
L 170.853258 221.249798 
L 175.403099 221.249798 
L 175.403099 227.188167 
L 179.38421 227.188167 
L 179.38421 227.188167 
L 184.076233 227.188167 
L 184.076233 233.423454 
L 192.322821 233.423454 
L 192.322821 239.658742 
L 222.607701 239.658742 
L 222.607701 239.658742 
L 226.873177 239.658742 
L 226.873177 239.658742 
L 227.299725 239.658742 
L 227.299725 239.658742 
L 253.176947 239.658742 
L 253.176947 247.67554 
L 253.319129 247.67554 
L 253.319129 255.692339 
L 257.30024 255.692339 
L 257.30024 255.692339 
L 257.442423 255.692339 
L 257.442423 264.437937 
L 274.504327 264.437937 
L 274.504327 264.437937 
L 278.769803 264.437937 
L 278.769803 264.437937 
L 287.442938 264.437937 
L 287.442938 275.369935 
L 291.850597 275.369935 
L 291.850597 275.369935 
L 296.54262 275.369935 
L 296.54262 288.123932 
L 309.623414 288.123932 
L 309.623414 288.123932 
L 321.993295 288.123932 
L 321.993295 288.123932 
L 369.624444 288.123932 
L 369.624444 288.123932 
L 373.036825 288.123932 
L 373.036825 288.123932 
L 460.763451 288.123932 
L 460.763451 288.123932 
" style="fill:none;stroke:#808080;stroke-linecap:square;stroke-width:1.5;"/>
   </g>
   <g id="patch_3">
    <path d="M 33.64 366.5095 
L 33.64 26.88 
" style="fill:none;stroke:#000000;stroke-linecap:square;stroke-linejoin:miter;stroke-width:0.8;"/>
   </g>
   <g id="patch_4">
    <path d="M 481.102663 366.5095 
L 481.102663 26.88 
" style="fill:none;stroke:#000000;stroke-linecap:square;stroke-linejoin:miter;stroke-width:0.8;"/>
   </g>
   <g id="patch_5">
    <path d="M 33.64 366.5095 
L 481.102663 366.5095 
" style="fill:none;stroke:#000000;stroke-linecap:square;stroke-linejoin:miter;stroke-width:0.8;"/>
   </g>
   <g id="patch_6">
    <path d="M 33.64 26.88 
L 481.102663 26.88 
" style="fill:none;stroke:#000000;stroke-linecap:square;stroke-linejoin:miter;stroke-width:0.8;"/>
   </g>
   <g id="text_15">
    <text style="font-family:DejaVu Sans;font-size:12px;font-stretch:normal;font-style:normal;font-weight:normal;text-anchor:middle;" transform="rotate(-0, 257.371331, 20.88)" x="257.371331" y="20.88">Survival curves - model_type: ridge_cph_lifelines</text>
   </g>
   <g id="legend_1">
    <g id="patch_7">
     <path d="M 343.460475 78.914375 
L 474.102663 78.914375 
Q 476.102663 78.914375 476.102663 76.914375 
L 476.102663 33.88 
Q 476.102663 31.88 474.102663 31.88 
L 343.460475 31.88 
Q 341.460475 31.88 341.460475 33.88 
L 341.460475 76.914375 
Q 341.460475 78.914375 343.460475 78.914375 
z
" style="fill:#ffffff;opacity:0.8;stroke:#cccccc;stroke-linejoin:miter;"/>
    </g>
    <g id="line2d_33">
     <path d="M 345.460475 39.978437 
L 365.460475 39.978437 
" style="fill:none;stroke:#ff0000;stroke-linecap:square;stroke-width:1.5;"/>
    </g>
    <g id="line2d_34"/>
    <g id="text_16">
     <text style="font-family:DejaVu Sans;font-size:10px;font-stretch:normal;font-style:normal;font-weight:normal;text-anchor:start;" transform="rotate(-0, 373.460475, 43.478437)" x="373.460475" y="43.478437">adv. risk (n:33 c:4 )</text>
    </g>
    <g id="line2d_35">
     <path d="M 345.460475 54.656563 
L 365.460475 54.656563 
" style="fill:none;stroke:#0000ff;stroke-linecap:square;stroke-width:1.5;"/>
    </g>
    <g id="line2d_36"/>
    <g id="text_17">
     <text style="font-family:DejaVu Sans;font-size:10px;font-stretch:normal;font-style:normal;font-weight:normal;text-anchor:start;" transform="rotate(-0, 373.460475, 58.156563)" x="373.460475" y="58.156563">fav. risk (n:30 c:22)</text>
    </g>
    <g id="line2d_37">
     <path d="M 345.460475 69.334687 
L 365.460475 69.334687 
" style="fill:none;stroke:#808080;stroke-linecap:square;stroke-width:1.5;"/>
    </g>
    <g id="line2d_38"/>
    <g id="text_18">
     <text style="font-family:DejaVu Sans;font-size:10px;font-stretch:normal;font-style:normal;font-weight:normal;text-anchor:start;" transform="rotate(-0, 373.460475, 72.834687)" x="373.460475" y="72.834687">int. risk (n:74 c:28 )</text>
    </g>
   </g>
  </g>
 </g>
 <defs>
  <clipPath id="pe0e05723cc">
   <rect height="339.6295" width="447.462663" x="33.64" y="26.88"/>
  </clipPath>
 </defs>
</svg>
