<?xml version="1.0" encoding="utf-8" standalone="no"?>
<!DOCTYPE svg PUBLIC "-//W3C//DTD SVG 1.1//EN"
  "http://www.w3.org/Graphics/SVG/1.1/DTD/svg11.dtd">
<!-- Created with matplotlib (https://matplotlib.org/) -->
<svg height="432pt" version="1.1" viewBox="0 0 504 432" width="504pt" xmlns="http://www.w3.org/2000/svg" xmlns:xlink="http://www.w3.org/1999/xlink">
 <metadata>
  <rdf:RDF xmlns:cc="http://creativecommons.org/ns#" xmlns:dc="http://purl.org/dc/elements/1.1/" xmlns:rdf="http://www.w3.org/1999/02/22-rdf-syntax-ns#">
   <cc:Work>
    <dc:type rdf:resource="http://purl.org/dc/dcmitype/StillImage"/>
    <dc:date>2022-10-27T18:01:37.221014</dc:date>
    <dc:format>image/svg+xml</dc:format>
    <dc:creator>
     <cc:Agent>
      <dc:title>Matplotlib v3.3.4, https://matplotlib.org/</dc:title>
     </cc:Agent>
    </dc:creator>
   </cc:Work>
  </rdf:RDF>
 </metadata>
 <defs>
  <style type="text/css">*{stroke-linecap:butt;stroke-linejoin:round;}</style>
 </defs>
 <g id="figure_1">
  <g id="patch_1">
   <path d="M 0 432 
L 504 432 
L 504 0 
L 0 0 
z
" style="fill:#ffffff;"/>
  </g>
  <g id="axes_1">
   <g id="patch_2">
    <path d="M 33.64 366.5095 
L 493.2 366.5095 
L 493.2 26.88 
L 33.64 26.88 
z
" style="fill:#ffffff;"/>
   </g>
   <g id="PolyCollection_1">
    <defs>
     <path d="M 54.529091 -389.682295 
L 54.529091 -389.682295 
L 55.152336 -389.682295 
L 55.152336 -362.955985 
L 55.290835 -362.955985 
L 55.290835 -359.560772 
L 55.360084 -359.560772 
L 55.360084 -349.71706 
L 55.91408 -349.71706 
L 55.91408 -344.744026 
L 56.052578 -344.744026 
L 56.052578 -339.83819 
L 56.537324 -339.83819 
L 56.537324 -335.005811 
L 56.606574 -335.005811 
L 56.606574 -330.244218 
L 56.952821 -330.244218 
L 56.952821 -325.548413 
L 57.02207 -325.548413 
L 57.02207 -316.333444 
L 57.783814 -316.333444 
L 57.783814 -311.805011 
L 58.060812 -311.805011 
L 58.060812 -307.324002 
L 58.822556 -307.324002 
L 58.822556 -302.887092 
L 59.584299 -302.887092 
L 59.584299 -298.491391 
L 59.861297 -298.491391 
L 59.861297 -294.134377 
L 60.138295 -294.134377 
L 60.138295 -289.813848 
L 60.276794 -289.813848 
L 60.276794 -285.527873 
L 60.415293 -285.527873 
L 60.415293 -281.274753 
L 60.623041 -281.274753 
L 60.623041 -277.052992 
L 60.830789 -277.052992 
L 60.830789 -272.861262 
L 60.969288 -272.861262 
L 60.969288 -268.698392 
L 61.523283 -268.698392 
L 61.523283 -264.563336 
L 61.592533 -264.563336 
L 61.592533 -260.455171 
L 62.008029 -260.455171 
L 62.008029 -256.37307 
L 62.215778 -256.37307 
L 62.215778 -248.28422 
L 62.285027 -248.28422 
L 62.285027 -244.276245 
L 62.839023 -244.276245 
L 62.839023 -240.291869 
L 63.323769 -240.291869 
L 63.323769 -236.330646 
L 63.462268 -236.330646 
L 63.462268 -232.392185 
L 63.739265 -232.392185 
L 63.739265 -228.476151 
L 63.877764 -228.476151 
L 63.877764 -224.582255 
L 64.085512 -224.582255 
L 64.085512 -220.710256 
L 64.43176 -220.710256 
L 64.43176 -216.859956 
L 64.570258 -216.859956 
L 64.570258 -213.031201 
L 64.708757 -213.031201 
L 64.708757 -209.223877 
L 64.778007 -209.223877 
L 64.778007 -205.437908 
L 64.916506 -205.437908 
L 64.916506 -197.929935 
L 65.055004 -197.929935 
L 65.055004 -194.207975 
L 65.678249 -194.207975 
L 65.678249 -190.507459 
L 65.816748 -190.507459 
L 65.816748 -186.82851 
L 66.162995 -186.82851 
L 66.162995 -183.171286 
L 66.439993 -183.171286 
L 66.439993 -179.53599 
L 66.716991 -179.53599 
L 66.716991 -175.92287 
L 67.409485 -175.92287 
L 67.409485 -172.332219 
L 67.617233 -172.332219 
L 67.617233 -168.764377 
L 69.833215 -168.764377 
L 69.833215 -165.219741 
L 70.733458 -165.219741 
L 70.733458 -161.698759 
L 70.802707 -161.698759 
L 70.802707 -158.201947 
L 71.218204 -158.201947 
L 71.218204 -154.729881 
L 71.495202 -154.729881 
L 71.495202 -151.283217 
L 72.187696 -151.283217 
L 72.187696 -147.86269 
L 72.741691 -147.86269 
L 72.741691 -144.469127 
L 73.018689 -144.469127 
L 73.018689 -141.103458 
L 75.026923 -141.103458 
L 75.026923 -134.460126 
L 75.30392 -134.460126 
L 75.30392 -131.184977 
L 75.442419 -131.184977 
L 75.442419 -124.735308 
L 75.788666 -124.735308 
L 75.788666 -121.564475 
L 75.996415 -121.564475 
L 75.996415 -115.342173 
L 76.55041 -115.342173 
L 76.55041 -112.296364 
L 80.22063 -112.296364 
L 80.22063 -109.298711 
L 88.045816 -109.298711 
L 88.045816 -106.353462 
L 90.469546 -106.353462 
L 90.469546 -103.465717 
L 90.538795 -103.465717 
L 90.538795 -100.641688 
L 99.194974 -100.641688 
L 99.194974 -97.889062 
L 101.618704 -97.889062 
L 101.618704 -95.21754 
L 104.52718 -95.21754 
L 104.52718 -92.639662 
L 110.274883 -92.639662 
L 110.274883 -90.172128 
L 130.772715 -90.172128 
L 130.772715 -87.838029 
L 168.305906 -87.838029 
L 168.305906 -85.670911 
L 181.463298 -85.670911 
L 181.463298 -83.722914 
L 218.165497 -83.722914 
L 218.165497 -82.083278 
L 347.800432 -82.083278 
L 347.800432 -80.928205 
L 463.931728 -80.928205 
L 463.931728 -80.928205 
L 463.931728 -99.424336 
L 463.931728 -99.424336 
L 463.931728 -99.424336 
L 347.800432 -99.424336 
L 347.800432 -105.119964 
L 218.165497 -105.119964 
L 218.165497 -110.675766 
L 181.463298 -110.675766 
L 181.463298 -116.023159 
L 168.305906 -116.023159 
L 168.305906 -121.200183 
L 130.772715 -121.200183 
L 130.772715 -126.240165 
L 110.274883 -126.240165 
L 110.274883 -131.16755 
L 104.52718 -131.16755 
L 104.52718 -136.000238 
L 101.618704 -136.000238 
L 101.618704 -140.751635 
L 99.194974 -140.751635 
L 99.194974 -145.432031 
L 90.538795 -145.432031 
L 90.538795 -150.049501 
L 90.469546 -150.049501 
L 90.469546 -154.610512 
L 88.045816 -154.610512 
L 88.045816 -159.120328 
L 80.22063 -159.120328 
L 80.22063 -163.583295 
L 76.55041 -163.583295 
L 76.55041 -168.00305 
L 75.996415 -168.00305 
L 75.996415 -176.724757 
L 75.788666 -176.724757 
L 75.788666 -181.031584 
L 75.442419 -181.031584 
L 75.442419 -189.546985 
L 75.30392 -189.546985 
L 75.30392 -193.758742 
L 75.026923 -193.758742 
L 75.026923 -202.096924 
L 73.018689 -202.096924 
L 73.018689 -206.225515 
L 72.741691 -206.225515 
L 72.741691 -210.328345 
L 72.187696 -210.328345 
L 72.187696 -214.40621 
L 71.495202 -214.40621 
L 71.495202 -218.459817 
L 71.218204 -218.459817 
L 71.218204 -222.489791 
L 70.802707 -222.489791 
L 70.802707 -226.496686 
L 70.733458 -226.496686 
L 70.733458 -230.480986 
L 69.833215 -230.480986 
L 69.833215 -234.443119 
L 67.617233 -234.443119 
L 67.617233 -238.383457 
L 67.409485 -238.383457 
L 67.409485 -242.302318 
L 66.716991 -242.302318 
L 66.716991 -246.199976 
L 66.439993 -246.199976 
L 66.439993 -250.076658 
L 66.162995 -250.076658 
L 66.162995 -253.932548 
L 65.816748 -253.932548 
L 65.816748 -257.76779 
L 65.678249 -257.76779 
L 65.678249 -261.582489 
L 65.055004 -261.582489 
L 65.055004 -265.376712 
L 64.916506 -265.376712 
L 64.916506 -272.903801 
L 64.778007 -272.903801 
L 64.778007 -276.636613 
L 64.708757 -276.636613 
L 64.708757 -280.348837 
L 64.570258 -280.348837 
L 64.570258 -284.040349 
L 64.43176 -284.040349 
L 64.43176 -287.710988 
L 64.085512 -287.710988 
L 64.085512 -291.36055 
L 63.877764 -291.36055 
L 63.877764 -294.988787 
L 63.739265 -294.988787 
L 63.739265 -298.595408 
L 63.462268 -298.595408 
L 63.462268 -302.180072 
L 63.323769 -302.180072 
L 63.323769 -305.742385 
L 62.839023 -305.742385 
L 62.839023 -309.2819 
L 62.285027 -309.2819 
L 62.285027 -312.798106 
L 62.215778 -312.798106 
L 62.215778 -319.758205 
L 62.008029 -319.758205 
L 62.008029 -323.200712 
L 61.592533 -323.200712 
L 61.592533 -326.617118 
L 61.523283 -326.617118 
L 61.523283 -330.006491 
L 60.969288 -330.006491 
L 60.969288 -333.367778 
L 60.830789 -333.367778 
L 60.830789 -336.699789 
L 60.623041 -336.699789 
L 60.623041 -340.001176 
L 60.415293 -340.001176 
L 60.415293 -343.270403 
L 60.276794 -343.270403 
L 60.276794 -346.505718 
L 60.138295 -346.505718 
L 60.138295 -349.705104 
L 59.861297 -349.705104 
L 59.861297 -352.866236 
L 59.584299 -352.866236 
L 59.584299 -355.986401 
L 58.822556 -355.986401 
L 58.822556 -359.062421 
L 58.060812 -359.062421 
L 58.060812 -362.090523 
L 57.783814 -362.090523 
L 57.783814 -365.066185 
L 57.02207 -365.066185 
L 57.02207 -370.836904 
L 56.952821 -370.836904 
L 56.952821 -373.616609 
L 56.606574 -373.616609 
L 56.606574 -376.311979 
L 56.537324 -376.311979 
L 56.537324 -378.90833 
L 56.052578 -378.90833 
L 56.052578 -381.385375 
L 55.91408 -381.385375 
L 55.91408 -383.71364 
L 55.360084 -383.71364 
L 55.360084 -387.706482 
L 55.290835 -387.706482 
L 55.290835 -389.128149 
L 55.152336 -389.128149 
L 55.152336 -389.682295 
L 54.529091 -389.682295 
z
" id="m0ad1df8c5c" style="stroke:#ff0000;stroke-opacity:0.25;"/>
    </defs>
    <g clip-path="url(#p5eb93bf04c)">
     <use style="fill:#ff0000;fill-opacity:0.25;stroke:#ff0000;stroke-opacity:0.25;" x="0" xlink:href="#m0ad1df8c5c" y="432"/>
    </g>
   </g>
   <g id="PolyCollection_2">
    <defs>
     <path d="M 54.529091 -389.682295 
L 54.529091 -389.682295 
L 56.052578 -389.682295 
L 56.052578 -338.301555 
L 65.955247 -338.301555 
L 65.955247 -330.144215 
L 69.27922 -330.144215 
L 69.27922 -321.765037 
L 74.680675 -321.765037 
L 74.680675 -313.469502 
L 75.580918 -313.469502 
L 75.580918 -305.319947 
L 79.528136 -305.319947 
L 79.528136 -297.32465 
L 88.045816 -297.32465 
L 88.045816 -289.477677 
L 95.524754 -289.477677 
L 95.524754 -281.769698 
L 106.812411 -281.769698 
L 106.812411 -274.191286 
L 121.008545 -274.191286 
L 121.008545 -266.733906 
L 122.462783 -266.733906 
L 122.462783 -259.390153 
L 184.579523 -259.390153 
L 184.579523 -259.390153 
L 187.834246 -259.390153 
L 187.834246 -259.390153 
L 193.651198 -259.390153 
L 193.651198 -259.390153 
L 208.678325 -259.390153 
L 208.678325 -259.390153 
L 218.026998 -259.390153 
L 218.026998 -250.716277 
L 218.373245 -250.716277 
L 218.373245 -250.716277 
L 224.259447 -250.716277 
L 224.259447 -250.716277 
L 226.26768 -250.716277 
L 226.26768 -250.716277 
L 235.685603 -250.716277 
L 235.685603 -250.716277 
L 245.519022 -250.716277 
L 245.519022 -250.716277 
L 253.759704 -250.716277 
L 253.759704 -250.716277 
L 263.177627 -250.716277 
L 263.177627 -250.716277 
L 270.10257 -250.716277 
L 270.10257 -250.716277 
L 280.697733 -250.716277 
L 280.697733 -250.716277 
L 284.160205 -250.716277 
L 284.160205 -250.716277 
L 316.638188 -250.716277 
L 316.638188 -250.716277 
L 322.039643 -250.716277 
L 322.039643 -250.716277 
L 330.765072 -250.716277 
L 330.765072 -250.716277 
L 338.31326 -250.716277 
L 338.31326 -250.716277 
L 344.060963 -250.716277 
L 344.060963 -250.716277 
L 357.910849 -250.716277 
L 357.910849 -250.716277 
L 383.256141 -250.716277 
L 383.256141 -250.716277 
L 388.726846 -250.716277 
L 388.726846 -250.716277 
L 389.904086 -250.716277 
L 389.904086 -250.716277 
L 393.505056 -250.716277 
L 393.505056 -250.716277 
L 398.491015 -250.716277 
L 398.491015 -250.716277 
L 408.393684 -250.716277 
L 408.393684 -250.716277 
L 425.221296 -250.716277 
L 425.221296 -250.716277 
L 441.356413 -250.716277 
L 441.356413 -250.716277 
L 455.483297 -250.716277 
L 455.483297 -250.716277 
L 458.184025 -250.716277 
L 458.184025 -250.716277 
L 459.499764 -250.716277 
L 459.499764 -250.716277 
L 459.499764 -333.749434 
L 459.499764 -333.749434 
L 459.499764 -333.749434 
L 458.184025 -333.749434 
L 458.184025 -333.749434 
L 455.483297 -333.749434 
L 455.483297 -333.749434 
L 441.356413 -333.749434 
L 441.356413 -333.749434 
L 425.221296 -333.749434 
L 425.221296 -333.749434 
L 408.393684 -333.749434 
L 408.393684 -333.749434 
L 398.491015 -333.749434 
L 398.491015 -333.749434 
L 393.505056 -333.749434 
L 393.505056 -333.749434 
L 389.904086 -333.749434 
L 389.904086 -333.749434 
L 388.726846 -333.749434 
L 388.726846 -333.749434 
L 383.256141 -333.749434 
L 383.256141 -333.749434 
L 357.910849 -333.749434 
L 357.910849 -333.749434 
L 344.060963 -333.749434 
L 344.060963 -333.749434 
L 338.31326 -333.749434 
L 338.31326 -333.749434 
L 330.765072 -333.749434 
L 330.765072 -333.749434 
L 322.039643 -333.749434 
L 322.039643 -333.749434 
L 316.638188 -333.749434 
L 316.638188 -333.749434 
L 284.160205 -333.749434 
L 284.160205 -333.749434 
L 280.697733 -333.749434 
L 280.697733 -333.749434 
L 270.10257 -333.749434 
L 270.10257 -333.749434 
L 263.177627 -333.749434 
L 263.177627 -333.749434 
L 253.759704 -333.749434 
L 253.759704 -333.749434 
L 245.519022 -333.749434 
L 245.519022 -333.749434 
L 235.685603 -333.749434 
L 235.685603 -333.749434 
L 226.26768 -333.749434 
L 226.26768 -333.749434 
L 224.259447 -333.749434 
L 224.259447 -333.749434 
L 218.373245 -333.749434 
L 218.373245 -333.749434 
L 218.026998 -333.749434 
L 218.026998 -339.867932 
L 208.678325 -339.867932 
L 208.678325 -339.867932 
L 193.651198 -339.867932 
L 193.651198 -339.867932 
L 187.834246 -339.867932 
L 187.834246 -339.867932 
L 184.579523 -339.867932 
L 184.579523 -339.867932 
L 122.462783 -339.867932 
L 122.462783 -345.319881 
L 121.008545 -345.319881 
L 121.008545 -350.648997 
L 106.812411 -350.648997 
L 106.812411 -355.843683 
L 95.524754 -355.843683 
L 95.524754 -360.889154 
L 88.045816 -360.889154 
L 88.045816 -365.76617 
L 79.528136 -365.76617 
L 79.528136 -370.44901 
L 75.580918 -370.44901 
L 75.580918 -374.902018 
L 74.680675 -374.902018 
L 74.680675 -379.073306 
L 69.27922 -379.073306 
L 69.27922 -382.881981 
L 65.955247 -382.881981 
L 65.955247 -386.188246 
L 56.052578 -386.188246 
L 56.052578 -389.682295 
L 54.529091 -389.682295 
z
" id="md34e0e531e" style="stroke:#0000ff;stroke-opacity:0.25;"/>
    </defs>
    <g clip-path="url(#p5eb93bf04c)">
     <use style="fill:#0000ff;fill-opacity:0.25;stroke:#0000ff;stroke-opacity:0.25;" x="0" xlink:href="#md34e0e531e" y="432"/>
    </g>
   </g>
   <g id="PolyCollection_3">
    <defs>
     <path d="M 54.529091 -389.682295 
L 54.529091 -389.682295 
L 55.083086 -389.682295 
L 55.083086 -377.428853 
L 55.360084 -377.428853 
L 55.360084 -373.637082 
L 55.429334 -373.637082 
L 55.429334 -371.317245 
L 55.498583 -371.317245 
L 55.498583 -369.003807 
L 55.567832 -369.003807 
L 55.567832 -366.715767 
L 55.775581 -366.715767 
L 55.775581 -364.456542 
L 55.983329 -364.456542 
L 55.983329 -362.225263 
L 56.052578 -362.225263 
L 56.052578 -360.019888 
L 56.191077 -360.019888 
L 56.191077 -357.838181 
L 56.329576 -357.838181 
L 56.329576 -355.678032 
L 56.398826 -355.678032 
L 56.398826 -351.415055 
L 56.883572 -351.415055 
L 56.883572 -349.309095 
L 57.02207 -349.309095 
L 57.02207 -347.21839 
L 57.09132 -347.21839 
L 57.09132 -345.141818 
L 58.33781 -345.141818 
L 58.33781 -343.078393 
L 59.030304 -343.078393 
L 59.030304 -341.027245 
L 59.307302 -341.027245 
L 59.307302 -338.9876 
L 59.51505 -338.9876 
L 59.51505 -336.95877 
L 59.722798 -336.95877 
L 59.722798 -332.931154 
L 59.861297 -332.931154 
L 59.861297 -332.931154 
L 60.138295 -332.931154 
L 60.138295 -330.914745 
L 60.553791 -330.914745 
L 60.553791 -328.907383 
L 61.246286 -328.907383 
L 61.246286 -326.908624 
L 61.592533 -326.908624 
L 61.592533 -324.918065 
L 61.731032 -324.918065 
L 61.731032 -322.935338 
L 62.146528 -322.935338 
L 62.146528 -320.960109 
L 63.046771 -320.960109 
L 63.046771 -318.99207 
L 63.877764 -318.99207 
L 63.877764 -317.030941 
L 63.947014 -317.030941 
L 63.947014 -315.076462 
L 64.016263 -315.076462 
L 64.016263 -313.128392 
L 64.778007 -313.128392 
L 64.778007 -311.186511 
L 65.055004 -311.186511 
L 65.055004 -309.250613 
L 65.193503 -309.250613 
L 65.193503 -307.320507 
L 65.470501 -307.320507 
L 65.470501 -305.396017 
L 66.093746 -305.396017 
L 66.093746 -303.476975 
L 66.647741 -303.476975 
L 66.647741 -301.563229 
L 68.309728 -301.563229 
L 68.309728 -297.751052 
L 68.863723 -297.751052 
L 68.863723 -295.852359 
L 68.932973 -295.852359 
L 68.932973 -290.184459 
L 69.071471 -290.184459 
L 69.071471 -288.3042 
L 69.27922 -288.3042 
L 69.27922 -286.428302 
L 69.763966 -286.428302 
L 69.763966 -284.556677 
L 70.871957 -284.556677 
L 70.871957 -282.689241 
L 70.941206 -282.689241 
L 70.941206 -280.825917 
L 71.010456 -280.825917 
L 71.010456 -277.111312 
L 71.218204 -277.111312 
L 71.218204 -275.259895 
L 71.356703 -275.259895 
L 71.356703 -273.412317 
L 71.772199 -273.412317 
L 71.772199 -271.568518 
L 71.910698 -271.568518 
L 71.910698 -269.728445 
L 71.979948 -269.728445 
L 71.979948 -267.892042 
L 72.049197 -267.892042 
L 72.049197 -266.059261 
L 72.810941 -266.059261 
L 72.810941 -264.230053 
L 73.572684 -264.230053 
L 73.572684 -262.404374 
L 74.195929 -262.404374 
L 74.195929 -260.582183 
L 74.334428 -260.582183 
L 74.334428 -258.763438 
L 75.096172 -258.763438 
L 75.096172 -256.948101 
L 75.30392 -256.948101 
L 75.30392 -255.136138 
L 75.996415 -255.136138 
L 75.996415 -253.327515 
L 76.55041 -253.327515 
L 76.55041 -249.720161 
L 76.758158 -249.720161 
L 76.758158 -247.921373 
L 76.827408 -247.921373 
L 76.827408 -246.125809 
L 77.242904 -246.125809 
L 77.242904 -242.544252 
L 77.935399 -242.544252 
L 77.935399 -240.758216 
L 78.143147 -240.758216 
L 78.143147 -238.975313 
L 79.251138 -238.975313 
L 79.251138 -237.195525 
L 79.320387 -237.195525 
L 79.320387 -235.418836 
L 79.735884 -235.418836 
L 79.735884 -233.645229 
L 80.082131 -233.645229 
L 80.082131 -231.874689 
L 81.813367 -231.874689 
L 81.813367 -230.107205 
L 82.021115 -230.107205 
L 82.021115 -228.342762 
L 82.090365 -228.342762 
L 82.090365 -226.581352 
L 82.228863 -226.581352 
L 82.228863 -224.822965 
L 82.436612 -224.822965 
L 82.436612 -223.067592 
L 84.029349 -223.067592 
L 84.029349 -221.315227 
L 84.514095 -221.315227 
L 84.514095 -219.565863 
L 85.137339 -219.565863 
L 85.137339 -217.819497 
L 85.206589 -217.819497 
L 85.206589 -216.076124 
L 85.414337 -216.076124 
L 85.414337 -214.335743 
L 85.552836 -214.335743 
L 85.552836 -212.598353 
L 86.31458 -212.598353 
L 86.31458 -210.863953 
L 88.322813 -210.863953 
L 88.322813 -209.132544 
L 88.392063 -209.132544 
L 88.392063 -207.40413 
L 88.599811 -207.40413 
L 88.599811 -203.956299 
L 88.66906 -203.956299 
L 88.66906 -202.236892 
L 89.084557 -202.236892 
L 89.084557 -200.520501 
L 89.777051 -200.520501 
L 89.777051 -198.807133 
L 91.508287 -198.807133 
L 91.508287 -197.096798 
L 95.386255 -197.096798 
L 95.386255 -197.096798 
L 96.217248 -197.096798 
L 96.217248 -195.364186 
L 98.779477 -195.364186 
L 98.779477 -193.634809 
L 100.233715 -193.634809 
L 100.233715 -191.90868 
L 101.687954 -191.90868 
L 101.687954 -190.185812 
L 101.826452 -190.185812 
L 101.826452 -188.46622 
L 103.488439 -188.46622 
L 103.488439 -186.74992 
L 108.128151 -186.74992 
L 108.128151 -185.036931 
L 110.69038 -185.036931 
L 110.69038 -183.327271 
L 111.86762 -183.327271 
L 111.86762 -181.620961 
L 112.629364 -181.620961 
L 112.629364 -179.918025 
L 112.767863 -179.918025 
L 112.767863 -178.218488 
L 113.183359 -178.218488 
L 113.183359 -176.522374 
L 114.152851 -176.522374 
L 114.152851 -174.829713 
L 116.645831 -174.829713 
L 116.645831 -173.140535 
L 118.654064 -173.140535 
L 118.654064 -171.454871 
L 129.803223 -171.454871 
L 129.803223 -169.772755 
L 131.118962 -169.772755 
L 131.118962 -168.094225 
L 137.351411 -168.094225 
L 137.351411 -166.419317 
L 138.5979 -166.419317 
L 138.5979 -164.748073 
L 150.231805 -164.748073 
L 150.231805 -163.080537 
L 151.201297 -163.080537 
L 151.201297 -161.416753 
L 156.118006 -161.416753 
L 156.118006 -159.756771 
L 162.9737 -159.756771 
L 162.9737 -158.100641 
L 165.743677 -158.100641 
L 165.743677 -156.448418 
L 179.108818 -156.448418 
L 179.108818 -154.800159 
L 182.709788 -154.800159 
L 182.709788 -154.800159 
L 187.3495 -154.800159 
L 187.3495 -154.800159 
L 187.557248 -154.800159 
L 187.557248 -153.080546 
L 189.703981 -153.080546 
L 189.703981 -153.080546 
L 191.850713 -153.080546 
L 191.850713 -153.080546 
L 198.221661 -153.080546 
L 198.221661 -151.281795 
L 198.983404 -151.281795 
L 198.983404 -151.281795 
L 204.800357 -151.281795 
L 204.800357 -149.442963 
L 206.254595 -149.442963 
L 206.254595 -149.442963 
L 207.362585 -149.442963 
L 207.362585 -147.561397 
L 208.262828 -147.561397 
L 208.262828 -147.561397 
L 209.024572 -147.561397 
L 209.024572 -145.634141 
L 209.509318 -145.634141 
L 209.509318 -143.714969 
L 215.257021 -143.714969 
L 215.257021 -141.803996 
L 227.444921 -141.803996 
L 227.444921 -141.803996 
L 232.153882 -141.803996 
L 232.153882 -141.803996 
L 237.001342 -141.803996 
L 237.001342 -141.803996 
L 237.901585 -141.803996 
L 237.901585 -141.803996 
L 241.156308 -141.803996 
L 241.156308 -141.803996 
L 248.704496 -141.803996 
L 248.704496 -141.803996 
L 249.46624 -141.803996 
L 249.46624 -139.47955 
L 252.859462 -139.47955 
L 252.859462 -139.47955 
L 258.122419 -139.47955 
L 258.122419 -137.081294 
L 261.377142 -137.081294 
L 261.377142 -137.081294 
L 265.878355 -137.081294 
L 265.878355 -134.601983 
L 266.43235 -134.601983 
L 266.43235 -134.601983 
L 269.133078 -134.601983 
L 269.133078 -134.601983 
L 280.420735 -134.601983 
L 280.420735 -134.601983 
L 289.838658 -134.601983 
L 289.838658 -134.601983 
L 295.586361 -134.601983 
L 295.586361 -134.601983 
L 302.234306 -134.601983 
L 302.234306 -134.601983 
L 322.385891 -134.601983 
L 322.385891 -134.601983 
L 330.626573 -134.601983 
L 330.626573 -134.601983 
L 333.535049 -134.601983 
L 333.535049 -134.601983 
L 333.673548 -134.601983 
L 333.673548 -134.601983 
L 333.812047 -134.601983 
L 333.812047 -134.601983 
L 333.881296 -134.601983 
L 333.881296 -134.601983 
L 351.609151 -134.601983 
L 351.609151 -134.601983 
L 356.52586 -134.601983 
L 356.52586 -134.601983 
L 359.503586 -134.601983 
L 359.503586 -134.601983 
L 370.652744 -134.601983 
L 370.652744 -134.601983 
L 374.738461 -134.601983 
L 374.738461 -134.601983 
L 376.746694 -134.601983 
L 376.746694 -134.601983 
L 377.716186 -134.601983 
L 377.716186 -124.010006 
L 380.693912 -124.010006 
L 380.693912 -124.010006 
L 391.566072 -124.010006 
L 391.566072 -124.010006 
L 392.604814 -124.010006 
L 392.604814 -124.010006 
L 405.069711 -124.010006 
L 405.069711 -124.010006 
L 432.907983 -124.010006 
L 432.907983 -124.010006 
L 445.926876 -124.010006 
L 445.926876 -124.010006 
L 464.347225 -124.010006 
L 464.347225 -124.010006 
L 472.310909 -124.010006 
L 472.310909 -124.010006 
L 472.310909 -170.431225 
L 472.310909 -170.431225 
L 472.310909 -170.431225 
L 464.347225 -170.431225 
L 464.347225 -170.431225 
L 445.926876 -170.431225 
L 445.926876 -170.431225 
L 432.907983 -170.431225 
L 432.907983 -170.431225 
L 405.069711 -170.431225 
L 405.069711 -170.431225 
L 392.604814 -170.431225 
L 392.604814 -170.431225 
L 391.566072 -170.431225 
L 391.566072 -170.431225 
L 380.693912 -170.431225 
L 380.693912 -170.431225 
L 377.716186 -170.431225 
L 377.716186 -174.822477 
L 376.746694 -174.822477 
L 376.746694 -174.822477 
L 374.738461 -174.822477 
L 374.738461 -174.822477 
L 370.652744 -174.822477 
L 370.652744 -174.822477 
L 359.503586 -174.822477 
L 359.503586 -174.822477 
L 356.52586 -174.822477 
L 356.52586 -174.822477 
L 351.609151 -174.822477 
L 351.609151 -174.822477 
L 333.881296 -174.822477 
L 333.881296 -174.822477 
L 333.812047 -174.822477 
L 333.812047 -174.822477 
L 333.673548 -174.822477 
L 333.673548 -174.822477 
L 333.535049 -174.822477 
L 333.535049 -174.822477 
L 330.626573 -174.822477 
L 330.626573 -174.822477 
L 322.385891 -174.822477 
L 322.385891 -174.822477 
L 302.234306 -174.822477 
L 302.234306 -174.822477 
L 295.586361 -174.822477 
L 295.586361 -174.822477 
L 289.838658 -174.822477 
L 289.838658 -174.822477 
L 280.420735 -174.822477 
L 280.420735 -174.822477 
L 269.133078 -174.822477 
L 269.133078 -174.822477 
L 266.43235 -174.822477 
L 266.43235 -174.822477 
L 265.878355 -174.822477 
L 265.878355 -177.435229 
L 261.377142 -177.435229 
L 261.377142 -177.435229 
L 258.122419 -177.435229 
L 258.122419 -179.966123 
L 252.859462 -179.966123 
L 252.859462 -179.966123 
L 249.46624 -179.966123 
L 249.46624 -182.422451 
L 248.704496 -182.422451 
L 248.704496 -182.422451 
L 241.156308 -182.422451 
L 241.156308 -182.422451 
L 237.901585 -182.422451 
L 237.901585 -182.422451 
L 237.001342 -182.422451 
L 237.001342 -182.422451 
L 232.153882 -182.422451 
L 232.153882 -182.422451 
L 227.444921 -182.422451 
L 227.444921 -182.422451 
L 215.257021 -182.422451 
L 215.257021 -184.567948 
L 209.509318 -184.567948 
L 209.509318 -186.706307 
L 209.024572 -186.706307 
L 209.024572 -188.837645 
L 208.262828 -188.837645 
L 208.262828 -188.837645 
L 207.362585 -188.837645 
L 207.362585 -190.922166 
L 206.254595 -190.922166 
L 206.254595 -190.922166 
L 204.800357 -190.922166 
L 204.800357 -192.962855 
L 198.983404 -192.962855 
L 198.983404 -192.962855 
L 198.221661 -192.962855 
L 198.221661 -194.962391 
L 191.850713 -194.962391 
L 191.850713 -194.962391 
L 189.703981 -194.962391 
L 189.703981 -194.962391 
L 187.557248 -194.962391 
L 187.557248 -196.890645 
L 187.3495 -196.890645 
L 187.3495 -196.890645 
L 182.709788 -196.890645 
L 182.709788 -196.890645 
L 179.108818 -196.890645 
L 179.108818 -198.753707 
L 165.743677 -198.753707 
L 165.743677 -200.613041 
L 162.9737 -200.613041 
L 162.9737 -202.468698 
L 156.118006 -202.468698 
L 156.118006 -204.320729 
L 151.201297 -204.320729 
L 151.201297 -206.169179 
L 150.231805 -206.169179 
L 150.231805 -208.014092 
L 138.5979 -208.014092 
L 138.5979 -209.855509 
L 137.351411 -209.855509 
L 137.351411 -211.69347 
L 131.118962 -211.69347 
L 131.118962 -213.528012 
L 129.803223 -213.528012 
L 129.803223 -215.359168 
L 118.654064 -215.359168 
L 118.654064 -217.186972 
L 116.645831 -217.186972 
L 116.645831 -219.011455 
L 114.152851 -219.011455 
L 114.152851 -220.832645 
L 113.183359 -220.832645 
L 113.183359 -222.65057 
L 112.767863 -222.65057 
L 112.767863 -224.465254 
L 112.629364 -224.465254 
L 112.629364 -226.276722 
L 111.86762 -226.276722 
L 111.86762 -228.084995 
L 110.69038 -228.084995 
L 110.69038 -229.890095 
L 108.128151 -229.890095 
L 108.128151 -231.692039 
L 103.488439 -231.692039 
L 103.488439 -233.490845 
L 101.826452 -233.490845 
L 101.826452 -235.28653 
L 101.687954 -235.28653 
L 101.687954 -237.079108 
L 100.233715 -237.079108 
L 100.233715 -238.868593 
L 98.779477 -238.868593 
L 98.779477 -240.654995 
L 96.217248 -240.654995 
L 96.217248 -242.438327 
L 95.386255 -242.438327 
L 95.386255 -242.438327 
L 91.508287 -242.438327 
L 91.508287 -244.199296 
L 89.777051 -244.199296 
L 89.777051 -245.957345 
L 89.084557 -245.957345 
L 89.084557 -247.712483 
L 88.66906 -247.712483 
L 88.66906 -249.464715 
L 88.599811 -249.464715 
L 88.599811 -252.960478 
L 88.392063 -252.960478 
L 88.392063 -254.704017 
L 88.322813 -254.704017 
L 88.322813 -256.444663 
L 86.31458 -256.444663 
L 86.31458 -258.182416 
L 85.552836 -258.182416 
L 85.552836 -259.917276 
L 85.414337 -259.917276 
L 85.414337 -261.64924 
L 85.206589 -261.64924 
L 85.206589 -263.378307 
L 85.137339 -263.378307 
L 85.137339 -265.104472 
L 84.514095 -265.104472 
L 84.514095 -266.82773 
L 84.029349 -266.82773 
L 84.029349 -268.548075 
L 82.436612 -268.548075 
L 82.436612 -270.2655 
L 82.228863 -270.2655 
L 82.228863 -271.979995 
L 82.090365 -271.979995 
L 82.090365 -273.691551 
L 82.021115 -273.691551 
L 82.021115 -275.400157 
L 81.813367 -275.400157 
L 81.813367 -277.105802 
L 80.082131 -277.105802 
L 80.082131 -278.808471 
L 79.735884 -278.808471 
L 79.735884 -280.508151 
L 79.320387 -280.508151 
L 79.320387 -282.204824 
L 79.251138 -282.204824 
L 79.251138 -283.898475 
L 78.143147 -283.898475 
L 78.143147 -285.589084 
L 77.935399 -285.589084 
L 77.935399 -287.276631 
L 77.242904 -287.276631 
L 77.242904 -290.642453 
L 76.827408 -290.642453 
L 76.827408 -292.32068 
L 76.758158 -292.32068 
L 76.758158 -293.995751 
L 76.55041 -293.995751 
L 76.55041 -297.336311 
L 75.996415 -297.336311 
L 75.996415 -299.001739 
L 75.30392 -299.001739 
L 75.30392 -300.663889 
L 75.096172 -300.663889 
L 75.096172 -302.322726 
L 74.334428 -302.322726 
L 74.334428 -303.978212 
L 74.195929 -303.978212 
L 74.195929 -305.63031 
L 73.572684 -305.63031 
L 73.572684 -307.278977 
L 72.810941 -307.278977 
L 72.810941 -308.924169 
L 72.049197 -308.924169 
L 72.049197 -310.565841 
L 71.979948 -310.565841 
L 71.979948 -312.203944 
L 71.910698 -312.203944 
L 71.910698 -313.838426 
L 71.772199 -313.838426 
L 71.772199 -315.469232 
L 71.356703 -315.469232 
L 71.356703 -317.096306 
L 71.218204 -317.096306 
L 71.218204 -318.719587 
L 71.010456 -318.719587 
L 71.010456 -321.954508 
L 70.941206 -321.954508 
L 70.941206 -323.56601 
L 70.871957 -323.56601 
L 70.871957 -325.173438 
L 69.763966 -325.173438 
L 69.763966 -326.776715 
L 69.27922 -326.776715 
L 69.27922 -328.375754 
L 69.071471 -328.375754 
L 69.071471 -329.970465 
L 68.932973 -329.970465 
L 68.932973 -334.727649 
L 68.863723 -334.727649 
L 68.863723 -336.304035 
L 68.309728 -336.304035 
L 68.309728 -339.442073 
L 66.647741 -339.442073 
L 66.647741 -341.003456 
L 66.093746 -341.003456 
L 66.093746 -342.559555 
L 65.470501 -342.559555 
L 65.470501 -344.11021 
L 65.193503 -344.11021 
L 65.193503 -345.655253 
L 65.055004 -345.655253 
L 65.055004 -347.1945 
L 64.778007 -347.1945 
L 64.778007 -348.727755 
L 64.016263 -348.727755 
L 64.016263 -350.254807 
L 63.947014 -350.254807 
L 63.947014 -351.775428 
L 63.877764 -351.775428 
L 63.877764 -353.289371 
L 63.046771 -353.289371 
L 63.046771 -354.796366 
L 62.146528 -354.796366 
L 62.146528 -356.296124 
L 61.731032 -356.296124 
L 61.731032 -357.788326 
L 61.592533 -357.788326 
L 61.592533 -359.272624 
L 61.246286 -359.272624 
L 61.246286 -360.748637 
L 60.553791 -360.748637 
L 60.553791 -362.215943 
L 60.138295 -362.215943 
L 60.138295 -363.674079 
L 59.861297 -363.674079 
L 59.861297 -363.674079 
L 59.722798 -363.674079 
L 59.722798 -366.545751 
L 59.51505 -366.545751 
L 59.51505 -367.965858 
L 59.307302 -367.965858 
L 59.307302 -369.374562 
L 59.030304 -369.374562 
L 59.030304 -370.771062 
L 58.33781 -370.771062 
L 58.33781 -372.154445 
L 57.09132 -372.154445 
L 57.09132 -373.523663 
L 57.02207 -373.523663 
L 57.02207 -374.877499 
L 56.883572 -374.877499 
L 56.883572 -376.214533 
L 56.398826 -376.214533 
L 56.398826 -378.831144 
L 56.329576 -378.831144 
L 56.329576 -380.10627 
L 56.191077 -380.10627 
L 56.191077 -381.35545 
L 56.052578 -381.35545 
L 56.052578 -382.574886 
L 55.983329 -382.574886 
L 55.983329 -383.759679 
L 55.775581 -383.759679 
L 55.775581 -384.903307 
L 55.567832 -384.903307 
L 55.567832 -385.996749 
L 55.498583 -385.996749 
L 55.498583 -387.026877 
L 55.429334 -387.026877 
L 55.429334 -387.973181 
L 55.360084 -387.973181 
L 55.360084 -389.434306 
L 55.083086 -389.434306 
L 55.083086 -389.682295 
L 54.529091 -389.682295 
z
" id="mb7b4bf1d5f" style="stroke:#808080;stroke-opacity:0.25;"/>
    </defs>
    <g clip-path="url(#p5eb93bf04c)">
     <use style="fill:#808080;fill-opacity:0.25;stroke:#808080;stroke-opacity:0.25;" x="0" xlink:href="#mb7b4bf1d5f" y="432"/>
    </g>
   </g>
   <g id="matplotlib.axis_1">
    <g id="xtick_1">
     <g id="line2d_1">
      <path clip-path="url(#p5eb93bf04c)" d="M 54.529091 366.5095 
L 54.529091 26.88 
" style="fill:none;stroke:#b0b0b0;stroke-dasharray:2.96,1.28;stroke-dashoffset:0;stroke-opacity:0.5;stroke-width:0.8;"/>
     </g>
     <g id="line2d_2">
      <defs>
       <path d="M 0 0 
L 0 3.5 
" id="mb4c449349d" style="stroke:#000000;stroke-width:0.8;"/>
      </defs>
      <g>
       <use style="stroke:#000000;stroke-width:0.8;" x="54.529091" xlink:href="#mb4c449349d" y="366.5095"/>
      </g>
     </g>
     <g id="text_1">
      <text style="font-family:DejaVu Sans;font-size:10px;font-stretch:normal;font-style:normal;font-weight:normal;text-anchor:middle;" transform="rotate(-0, 54.529091, 381.107937)" x="54.529091" y="381.107937">0</text>
     </g>
    </g>
    <g id="xtick_2">
     <g id="line2d_3">
      <path clip-path="url(#p5eb93bf04c)" d="M 123.778522 366.5095 
L 123.778522 26.88 
" style="fill:none;stroke:#b0b0b0;stroke-dasharray:2.96,1.28;stroke-dashoffset:0;stroke-opacity:0.5;stroke-width:0.8;"/>
     </g>
     <g id="line2d_4">
      <g>
       <use style="stroke:#000000;stroke-width:0.8;" x="123.778522" xlink:href="#mb4c449349d" y="366.5095"/>
      </g>
     </g>
     <g id="text_2">
      <text style="font-family:DejaVu Sans;font-size:10px;font-stretch:normal;font-style:normal;font-weight:normal;text-anchor:middle;" transform="rotate(-0, 123.778522, 381.107937)" x="123.778522" y="381.107937">1000</text>
     </g>
    </g>
    <g id="xtick_3">
     <g id="line2d_5">
      <path clip-path="url(#p5eb93bf04c)" d="M 193.027953 366.5095 
L 193.027953 26.88 
" style="fill:none;stroke:#b0b0b0;stroke-dasharray:2.96,1.28;stroke-dashoffset:0;stroke-opacity:0.5;stroke-width:0.8;"/>
     </g>
     <g id="line2d_6">
      <g>
       <use style="stroke:#000000;stroke-width:0.8;" x="193.027953" xlink:href="#mb4c449349d" y="366.5095"/>
      </g>
     </g>
     <g id="text_3">
      <text style="font-family:DejaVu Sans;font-size:10px;font-stretch:normal;font-style:normal;font-weight:normal;text-anchor:middle;" transform="rotate(-0, 193.027953, 381.107937)" x="193.027953" y="381.107937">2000</text>
     </g>
    </g>
    <g id="xtick_4">
     <g id="line2d_7">
      <path clip-path="url(#p5eb93bf04c)" d="M 262.277384 366.5095 
L 262.277384 26.88 
" style="fill:none;stroke:#b0b0b0;stroke-dasharray:2.96,1.28;stroke-dashoffset:0;stroke-opacity:0.5;stroke-width:0.8;"/>
     </g>
     <g id="line2d_8">
      <g>
       <use style="stroke:#000000;stroke-width:0.8;" x="262.277384" xlink:href="#mb4c449349d" y="366.5095"/>
      </g>
     </g>
     <g id="text_4">
      <text style="font-family:DejaVu Sans;font-size:10px;font-stretch:normal;font-style:normal;font-weight:normal;text-anchor:middle;" transform="rotate(-0, 262.277384, 381.107937)" x="262.277384" y="381.107937">3000</text>
     </g>
    </g>
    <g id="xtick_5">
     <g id="line2d_9">
      <path clip-path="url(#p5eb93bf04c)" d="M 331.526816 366.5095 
L 331.526816 26.88 
" style="fill:none;stroke:#b0b0b0;stroke-dasharray:2.96,1.28;stroke-dashoffset:0;stroke-opacity:0.5;stroke-width:0.8;"/>
     </g>
     <g id="line2d_10">
      <g>
       <use style="stroke:#000000;stroke-width:0.8;" x="331.526816" xlink:href="#mb4c449349d" y="366.5095"/>
      </g>
     </g>
     <g id="text_5">
      <text style="font-family:DejaVu Sans;font-size:10px;font-stretch:normal;font-style:normal;font-weight:normal;text-anchor:middle;" transform="rotate(-0, 331.526816, 381.107937)" x="331.526816" y="381.107937">4000</text>
     </g>
    </g>
    <g id="xtick_6">
     <g id="line2d_11">
      <path clip-path="url(#p5eb93bf04c)" d="M 400.776247 366.5095 
L 400.776247 26.88 
" style="fill:none;stroke:#b0b0b0;stroke-dasharray:2.96,1.28;stroke-dashoffset:0;stroke-opacity:0.5;stroke-width:0.8;"/>
     </g>
     <g id="line2d_12">
      <g>
       <use style="stroke:#000000;stroke-width:0.8;" x="400.776247" xlink:href="#mb4c449349d" y="366.5095"/>
      </g>
     </g>
     <g id="text_6">
      <text style="font-family:DejaVu Sans;font-size:10px;font-stretch:normal;font-style:normal;font-weight:normal;text-anchor:middle;" transform="rotate(-0, 400.776247, 381.107937)" x="400.776247" y="381.107937">5000</text>
     </g>
    </g>
    <g id="xtick_7">
     <g id="line2d_13">
      <path clip-path="url(#p5eb93bf04c)" d="M 470.025678 366.5095 
L 470.025678 26.88 
" style="fill:none;stroke:#b0b0b0;stroke-dasharray:2.96,1.28;stroke-dashoffset:0;stroke-opacity:0.5;stroke-width:0.8;"/>
     </g>
     <g id="line2d_14">
      <g>
       <use style="stroke:#000000;stroke-width:0.8;" x="470.025678" xlink:href="#mb4c449349d" y="366.5095"/>
      </g>
     </g>
     <g id="text_7">
      <text style="font-family:DejaVu Sans;font-size:10px;font-stretch:normal;font-style:normal;font-weight:normal;text-anchor:middle;" transform="rotate(-0, 470.025678, 381.107937)" x="470.025678" y="381.107937">6000</text>
     </g>
    </g>
    <g id="text_8">
     <text style="font-family:DejaVu Sans;font-size:10px;font-stretch:normal;font-style:normal;font-weight:normal;" transform="translate(241.511406 394.786063)">timeline </text>
     <text style="font-family:DejaVu Sans;font-size:10px;font-stretch:normal;font-style:normal;font-weight:normal;" transform="translate(167.239531 405.983875)">    dataset: clin_factors, input_dim: 18 </text>
     <text style="font-family:DejaVu Sans;font-size:10px;font-stretch:normal;font-style:normal;font-weight:normal;" transform="translate(184.83875 417.459812)">    c_index: [0.679 0.649 0.709]</text>
    </g>
   </g>
   <g id="matplotlib.axis_2">
    <g id="ytick_1">
     <g id="line2d_15">
      <path clip-path="url(#p5eb93bf04c)" d="M 33.64 351.408109 
L 493.2 351.408109 
" style="fill:none;stroke:#b0b0b0;stroke-dasharray:2.96,1.28;stroke-dashoffset:0;stroke-opacity:0.5;stroke-width:0.8;"/>
     </g>
     <g id="line2d_16">
      <defs>
       <path d="M 0 0 
L -3.5 0 
" id="mc080871764" style="stroke:#000000;stroke-width:0.8;"/>
      </defs>
      <g>
       <use style="stroke:#000000;stroke-width:0.8;" x="33.64" xlink:href="#mc080871764" y="351.408109"/>
      </g>
     </g>
     <g id="text_9">
      <text style="font-family:DejaVu Sans;font-size:10px;font-stretch:normal;font-style:normal;font-weight:normal;text-anchor:end;" transform="rotate(-0, 26.64, 355.207328)" x="26.64" y="355.207328">0.0</text>
     </g>
    </g>
    <g id="ytick_2">
     <g id="line2d_17">
      <path clip-path="url(#p5eb93bf04c)" d="M 33.64 289.590028 
L 493.2 289.590028 
" style="fill:none;stroke:#b0b0b0;stroke-dasharray:2.96,1.28;stroke-dashoffset:0;stroke-opacity:0.5;stroke-width:0.8;"/>
     </g>
     <g id="line2d_18">
      <g>
       <use style="stroke:#000000;stroke-width:0.8;" x="33.64" xlink:href="#mc080871764" y="289.590028"/>
      </g>
     </g>
     <g id="text_10">
      <text style="font-family:DejaVu Sans;font-size:10px;font-stretch:normal;font-style:normal;font-weight:normal;text-anchor:end;" transform="rotate(-0, 26.64, 293.389247)" x="26.64" y="293.389247">0.2</text>
     </g>
    </g>
    <g id="ytick_3">
     <g id="line2d_19">
      <path clip-path="url(#p5eb93bf04c)" d="M 33.64 227.771948 
L 493.2 227.771948 
" style="fill:none;stroke:#b0b0b0;stroke-dasharray:2.96,1.28;stroke-dashoffset:0;stroke-opacity:0.5;stroke-width:0.8;"/>
     </g>
     <g id="line2d_20">
      <g>
       <use style="stroke:#000000;stroke-width:0.8;" x="33.64" xlink:href="#mc080871764" y="227.771948"/>
      </g>
     </g>
     <g id="text_11">
      <text style="font-family:DejaVu Sans;font-size:10px;font-stretch:normal;font-style:normal;font-weight:normal;text-anchor:end;" transform="rotate(-0, 26.64, 231.571166)" x="26.64" y="231.571166">0.4</text>
     </g>
    </g>
    <g id="ytick_4">
     <g id="line2d_21">
      <path clip-path="url(#p5eb93bf04c)" d="M 33.64 165.953867 
L 493.2 165.953867 
" style="fill:none;stroke:#b0b0b0;stroke-dasharray:2.96,1.28;stroke-dashoffset:0;stroke-opacity:0.5;stroke-width:0.8;"/>
     </g>
     <g id="line2d_22">
      <g>
       <use style="stroke:#000000;stroke-width:0.8;" x="33.64" xlink:href="#mc080871764" y="165.953867"/>
      </g>
     </g>
     <g id="text_12">
      <text style="font-family:DejaVu Sans;font-size:10px;font-stretch:normal;font-style:normal;font-weight:normal;text-anchor:end;" transform="rotate(-0, 26.64, 169.753085)" x="26.64" y="169.753085">0.6</text>
     </g>
    </g>
    <g id="ytick_5">
     <g id="line2d_23">
      <path clip-path="url(#p5eb93bf04c)" d="M 33.64 104.135786 
L 493.2 104.135786 
" style="fill:none;stroke:#b0b0b0;stroke-dasharray:2.96,1.28;stroke-dashoffset:0;stroke-opacity:0.5;stroke-width:0.8;"/>
     </g>
     <g id="line2d_24">
      <g>
       <use style="stroke:#000000;stroke-width:0.8;" x="33.64" xlink:href="#mc080871764" y="104.135786"/>
      </g>
     </g>
     <g id="text_13">
      <text style="font-family:DejaVu Sans;font-size:10px;font-stretch:normal;font-style:normal;font-weight:normal;text-anchor:end;" transform="rotate(-0, 26.64, 107.935004)" x="26.64" y="107.935004">0.8</text>
     </g>
    </g>
    <g id="ytick_6">
     <g id="line2d_25">
      <path clip-path="url(#p5eb93bf04c)" d="M 33.64 42.317705 
L 493.2 42.317705 
" style="fill:none;stroke:#b0b0b0;stroke-dasharray:2.96,1.28;stroke-dashoffset:0;stroke-opacity:0.5;stroke-width:0.8;"/>
     </g>
     <g id="line2d_26">
      <g>
       <use style="stroke:#000000;stroke-width:0.8;" x="33.64" xlink:href="#mc080871764" y="42.317705"/>
      </g>
     </g>
     <g id="text_14">
      <text style="font-family:DejaVu Sans;font-size:10px;font-stretch:normal;font-style:normal;font-weight:normal;text-anchor:end;" transform="rotate(-0, 26.64, 46.116923)" x="26.64" y="46.116923">1.0</text>
     </g>
    </g>
   </g>
   <g id="line2d_27">
    <defs>
     <path d="M -3 3 
L 3 -3 
M -3 -3 
L 3 3 
" id="mca8d231014" style="stroke:#ff0000;"/>
    </defs>
    <g clip-path="url(#p5eb93bf04c)">
     <use style="fill:#ff0000;stroke:#ff0000;" x="463.931728" xlink:href="#mca8d231014" y="347.495573"/>
    </g>
   </g>
   <g id="line2d_28">
    <path clip-path="url(#p5eb93bf04c)" d="M 54.529091 42.317705 
L 55.152336 42.317705 
L 55.152336 46.230241 
L 55.290835 46.230241 
L 55.360084 57.967852 
L 55.91408 57.967852 
L 55.91408 61.880388 
L 56.052578 61.880388 
L 56.052578 65.792925 
L 56.537324 65.792925 
L 56.606574 73.617999 
L 56.952821 73.617999 
L 57.02207 85.355609 
L 57.783814 85.355609 
L 57.783814 89.268146 
L 58.060812 89.268146 
L 58.060812 93.180683 
L 58.822556 93.180683 
L 58.822556 97.093219 
L 59.584299 97.093219 
L 59.584299 101.005756 
L 59.861297 101.005756 
L 59.861297 104.918293 
L 60.138295 104.918293 
L 60.138295 108.83083 
L 60.276794 108.83083 
L 60.276794 112.743366 
L 60.415293 112.743366 
L 60.415293 116.655903 
L 60.623041 116.655903 
L 60.623041 120.56844 
L 60.830789 120.56844 
L 60.830789 124.480977 
L 60.969288 124.480977 
L 60.969288 128.393514 
L 61.523283 128.393514 
L 61.592533 136.218587 
L 62.008029 136.218587 
L 62.008029 140.131124 
L 62.215778 140.131124 
L 62.285027 151.868734 
L 62.839023 151.868734 
L 62.839023 155.781271 
L 63.323769 155.781271 
L 63.323769 159.693808 
L 63.462268 159.693808 
L 63.462268 163.606344 
L 63.739265 163.606344 
L 63.739265 167.518881 
L 63.877764 167.518881 
L 63.877764 171.431418 
L 64.085512 171.431418 
L 64.085512 175.343955 
L 64.43176 175.343955 
L 64.43176 179.256492 
L 64.570258 179.256492 
L 64.570258 183.169028 
L 64.708757 183.169028 
L 64.778007 190.994102 
L 64.916506 190.994102 
L 64.916506 198.819175 
L 65.055004 198.819175 
L 65.055004 202.731712 
L 65.678249 202.731712 
L 65.678249 206.644249 
L 65.816748 206.644249 
L 65.816748 210.556786 
L 66.162995 210.556786 
L 66.162995 214.469322 
L 66.439993 214.469322 
L 66.439993 218.381859 
L 66.716991 218.381859 
L 66.716991 222.294396 
L 67.409485 222.294396 
L 67.409485 226.206933 
L 67.617233 226.206933 
L 67.617233 230.11947 
L 69.833215 230.11947 
L 69.833215 234.032006 
L 70.733458 234.032006 
L 70.802707 241.85708 
L 71.218204 241.85708 
L 71.218204 245.769617 
L 71.495202 245.769617 
L 71.495202 249.682153 
L 72.187696 249.682153 
L 72.187696 253.59469 
L 72.741691 253.59469 
L 72.741691 257.507227 
L 73.018689 257.507227 
L 73.018689 261.419764 
L 75.026923 261.419764 
L 75.026923 269.244837 
L 75.30392 269.244837 
L 75.30392 273.157374 
L 75.442419 273.157374 
L 75.442419 280.982448 
L 75.788666 280.982448 
L 75.788666 284.894984 
L 75.996415 284.894984 
L 75.996415 292.720058 
L 76.55041 292.720058 
L 76.55041 296.632595 
L 80.22063 296.632595 
L 80.22063 300.545131 
L 88.045816 300.545131 
L 88.045816 304.457668 
L 90.469546 304.457668 
L 90.538795 312.282742 
L 99.194974 312.282742 
L 99.194974 316.195279 
L 101.618704 316.195279 
L 101.618704 320.107815 
L 104.52718 320.107815 
L 104.52718 324.020352 
L 110.274883 324.020352 
L 110.274883 327.932889 
L 130.772715 327.932889 
L 130.772715 331.845426 
L 168.305906 331.845426 
L 168.305906 335.757962 
L 181.463298 335.757962 
L 181.463298 339.670499 
L 218.165497 339.670499 
L 218.165497 343.583036 
L 347.800432 343.583036 
L 347.800432 347.495573 
L 463.931728 347.495573 
L 463.931728 347.495573 
" style="fill:none;stroke:#ff0000;stroke-linecap:square;stroke-width:1.5;"/>
   </g>
   <g id="line2d_29">
    <defs>
     <path d="M -3 3 
L 3 -3 
M -3 -3 
L 3 3 
" id="m5ecf3dd5be" style="stroke:#0000ff;"/>
    </defs>
    <g clip-path="url(#p5eb93bf04c)">
     <use style="fill:#0000ff;stroke:#0000ff;" x="184.579523" xlink:href="#m5ecf3dd5be" y="124.741813"/>
     <use style="fill:#0000ff;stroke:#0000ff;" x="187.834246" xlink:href="#m5ecf3dd5be" y="124.741813"/>
     <use style="fill:#0000ff;stroke:#0000ff;" x="193.651198" xlink:href="#m5ecf3dd5be" y="124.741813"/>
     <use style="fill:#0000ff;stroke:#0000ff;" x="208.678325" xlink:href="#m5ecf3dd5be" y="124.741813"/>
     <use style="fill:#0000ff;stroke:#0000ff;" x="218.373245" xlink:href="#m5ecf3dd5be" y="132.557892"/>
     <use style="fill:#0000ff;stroke:#0000ff;" x="224.259447" xlink:href="#m5ecf3dd5be" y="132.557892"/>
     <use style="fill:#0000ff;stroke:#0000ff;" x="226.26768" xlink:href="#m5ecf3dd5be" y="132.557892"/>
     <use style="fill:#0000ff;stroke:#0000ff;" x="235.685603" xlink:href="#m5ecf3dd5be" y="132.557892"/>
     <use style="fill:#0000ff;stroke:#0000ff;" x="245.519022" xlink:href="#m5ecf3dd5be" y="132.557892"/>
     <use style="fill:#0000ff;stroke:#0000ff;" x="253.759704" xlink:href="#m5ecf3dd5be" y="132.557892"/>
     <use style="fill:#0000ff;stroke:#0000ff;" x="263.177627" xlink:href="#m5ecf3dd5be" y="132.557892"/>
     <use style="fill:#0000ff;stroke:#0000ff;" x="270.10257" xlink:href="#m5ecf3dd5be" y="132.557892"/>
     <use style="fill:#0000ff;stroke:#0000ff;" x="280.697733" xlink:href="#m5ecf3dd5be" y="132.557892"/>
     <use style="fill:#0000ff;stroke:#0000ff;" x="284.160205" xlink:href="#m5ecf3dd5be" y="132.557892"/>
     <use style="fill:#0000ff;stroke:#0000ff;" x="316.638188" xlink:href="#m5ecf3dd5be" y="132.557892"/>
     <use style="fill:#0000ff;stroke:#0000ff;" x="322.039643" xlink:href="#m5ecf3dd5be" y="132.557892"/>
     <use style="fill:#0000ff;stroke:#0000ff;" x="330.765072" xlink:href="#m5ecf3dd5be" y="132.557892"/>
     <use style="fill:#0000ff;stroke:#0000ff;" x="338.31326" xlink:href="#m5ecf3dd5be" y="132.557892"/>
     <use style="fill:#0000ff;stroke:#0000ff;" x="344.060963" xlink:href="#m5ecf3dd5be" y="132.557892"/>
     <use style="fill:#0000ff;stroke:#0000ff;" x="357.910849" xlink:href="#m5ecf3dd5be" y="132.557892"/>
     <use style="fill:#0000ff;stroke:#0000ff;" x="383.256141" xlink:href="#m5ecf3dd5be" y="132.557892"/>
     <use style="fill:#0000ff;stroke:#0000ff;" x="388.726846" xlink:href="#m5ecf3dd5be" y="132.557892"/>
     <use style="fill:#0000ff;stroke:#0000ff;" x="389.904086" xlink:href="#m5ecf3dd5be" y="132.557892"/>
     <use style="fill:#0000ff;stroke:#0000ff;" x="393.505056" xlink:href="#m5ecf3dd5be" y="132.557892"/>
     <use style="fill:#0000ff;stroke:#0000ff;" x="398.491015" xlink:href="#m5ecf3dd5be" y="132.557892"/>
     <use style="fill:#0000ff;stroke:#0000ff;" x="408.393684" xlink:href="#m5ecf3dd5be" y="132.557892"/>
     <use style="fill:#0000ff;stroke:#0000ff;" x="425.221296" xlink:href="#m5ecf3dd5be" y="132.557892"/>
     <use style="fill:#0000ff;stroke:#0000ff;" x="441.356413" xlink:href="#m5ecf3dd5be" y="132.557892"/>
     <use style="fill:#0000ff;stroke:#0000ff;" x="455.483297" xlink:href="#m5ecf3dd5be" y="132.557892"/>
     <use style="fill:#0000ff;stroke:#0000ff;" x="458.184025" xlink:href="#m5ecf3dd5be" y="132.557892"/>
     <use style="fill:#0000ff;stroke:#0000ff;" x="459.499764" xlink:href="#m5ecf3dd5be" y="132.557892"/>
    </g>
   </g>
   <g id="line2d_30">
    <path clip-path="url(#p5eb93bf04c)" d="M 54.529091 42.317705 
L 56.052578 42.317705 
L 56.052578 56.055056 
L 65.955247 56.055056 
L 65.955247 62.923732 
L 69.27922 62.923732 
L 69.27922 69.792407 
L 74.680675 69.792407 
L 74.680675 76.661083 
L 75.580918 76.661083 
L 75.580918 83.529759 
L 79.528136 83.529759 
L 79.528136 90.398434 
L 88.045816 90.398434 
L 88.045816 97.26711 
L 95.524754 97.26711 
L 95.524754 104.135786 
L 106.812411 104.135786 
L 106.812411 111.004461 
L 121.008545 111.004461 
L 121.008545 117.873137 
L 122.462783 117.873137 
L 122.462783 124.741813 
L 184.579523 124.741813 
L 184.579523 124.741813 
L 187.834246 124.741813 
L 187.834246 124.741813 
L 193.651198 124.741813 
L 193.651198 124.741813 
L 208.678325 124.741813 
L 208.678325 124.741813 
L 218.026998 124.741813 
L 218.026998 132.557892 
L 218.373245 132.557892 
L 218.373245 132.557892 
L 224.259447 132.557892 
L 224.259447 132.557892 
L 226.26768 132.557892 
L 226.26768 132.557892 
L 235.685603 132.557892 
L 235.685603 132.557892 
L 245.519022 132.557892 
L 245.519022 132.557892 
L 253.759704 132.557892 
L 253.759704 132.557892 
L 263.177627 132.557892 
L 263.177627 132.557892 
L 270.10257 132.557892 
L 270.10257 132.557892 
L 280.697733 132.557892 
L 280.697733 132.557892 
L 284.160205 132.557892 
L 284.160205 132.557892 
L 316.638188 132.557892 
L 316.638188 132.557892 
L 322.039643 132.557892 
L 322.039643 132.557892 
L 330.765072 132.557892 
L 330.765072 132.557892 
L 338.31326 132.557892 
L 338.31326 132.557892 
L 344.060963 132.557892 
L 344.060963 132.557892 
L 357.910849 132.557892 
L 357.910849 132.557892 
L 383.256141 132.557892 
L 383.256141 132.557892 
L 388.726846 132.557892 
L 388.726846 132.557892 
L 389.904086 132.557892 
L 389.904086 132.557892 
L 393.505056 132.557892 
L 393.505056 132.557892 
L 398.491015 132.557892 
L 398.491015 132.557892 
L 408.393684 132.557892 
L 408.393684 132.557892 
L 425.221296 132.557892 
L 425.221296 132.557892 
L 441.356413 132.557892 
L 441.356413 132.557892 
L 455.483297 132.557892 
L 455.483297 132.557892 
L 458.184025 132.557892 
L 458.184025 132.557892 
L 459.499764 132.557892 
L 459.499764 132.557892 
" style="fill:none;stroke:#0000ff;stroke-linecap:square;stroke-width:1.5;"/>
   </g>
   <g id="line2d_31">
    <defs>
     <path d="M -3 3 
L 3 -3 
M -3 -3 
L 3 3 
" id="m2be05f4aa1" style="stroke:#808080;"/>
    </defs>
    <g clip-path="url(#p5eb93bf04c)">
     <use style="fill:#808080;stroke:#808080;" x="59.861297" xlink:href="#m2be05f4aa1" y="80.954005"/>
     <use style="fill:#808080;stroke:#808080;" x="95.386255" xlink:href="#m2be05f4aa1" y="211.761873"/>
     <use style="fill:#808080;stroke:#808080;" x="182.709788" xlink:href="#m2be05f4aa1" y="256.520282"/>
     <use style="fill:#808080;stroke:#808080;" x="187.3495" xlink:href="#m2be05f4aa1" y="256.520282"/>
     <use style="fill:#808080;stroke:#808080;" x="189.703981" xlink:href="#m2be05f4aa1" y="258.380828"/>
     <use style="fill:#808080;stroke:#808080;" x="191.850713" xlink:href="#m2be05f4aa1" y="258.380828"/>
     <use style="fill:#808080;stroke:#808080;" x="198.983404" xlink:href="#m2be05f4aa1" y="260.318896"/>
     <use style="fill:#808080;stroke:#808080;" x="206.254595" xlink:href="#m2be05f4aa1" y="262.299096"/>
     <use style="fill:#808080;stroke:#808080;" x="208.262828" xlink:href="#m2be05f4aa1" y="264.324301"/>
     <use style="fill:#808080;stroke:#808080;" x="227.444921" xlink:href="#m2be05f4aa1" y="270.544573"/>
     <use style="fill:#808080;stroke:#808080;" x="232.153882" xlink:href="#m2be05f4aa1" y="270.544573"/>
     <use style="fill:#808080;stroke:#808080;" x="237.001342" xlink:href="#m2be05f4aa1" y="270.544573"/>
     <use style="fill:#808080;stroke:#808080;" x="237.901585" xlink:href="#m2be05f4aa1" y="270.544573"/>
     <use style="fill:#808080;stroke:#808080;" x="241.156308" xlink:href="#m2be05f4aa1" y="270.544573"/>
     <use style="fill:#808080;stroke:#808080;" x="248.704496" xlink:href="#m2be05f4aa1" y="270.544573"/>
     <use style="fill:#808080;stroke:#808080;" x="252.859462" xlink:href="#m2be05f4aa1" y="272.994983"/>
     <use style="fill:#808080;stroke:#808080;" x="261.377142" xlink:href="#m2be05f4aa1" y="275.524439"/>
     <use style="fill:#808080;stroke:#808080;" x="266.43235" xlink:href="#m2be05f4aa1" y="278.141117"/>
     <use style="fill:#808080;stroke:#808080;" x="269.133078" xlink:href="#m2be05f4aa1" y="278.141117"/>
     <use style="fill:#808080;stroke:#808080;" x="280.420735" xlink:href="#m2be05f4aa1" y="278.141117"/>
     <use style="fill:#808080;stroke:#808080;" x="289.838658" xlink:href="#m2be05f4aa1" y="278.141117"/>
     <use style="fill:#808080;stroke:#808080;" x="295.586361" xlink:href="#m2be05f4aa1" y="278.141117"/>
     <use style="fill:#808080;stroke:#808080;" x="302.234306" xlink:href="#m2be05f4aa1" y="278.141117"/>
     <use style="fill:#808080;stroke:#808080;" x="322.385891" xlink:href="#m2be05f4aa1" y="278.141117"/>
     <use style="fill:#808080;stroke:#808080;" x="330.626573" xlink:href="#m2be05f4aa1" y="278.141117"/>
     <use style="fill:#808080;stroke:#808080;" x="333.535049" xlink:href="#m2be05f4aa1" y="278.141117"/>
     <use style="fill:#808080;stroke:#808080;" x="333.673548" xlink:href="#m2be05f4aa1" y="278.141117"/>
     <use style="fill:#808080;stroke:#808080;" x="333.812047" xlink:href="#m2be05f4aa1" y="278.141117"/>
     <use style="fill:#808080;stroke:#808080;" x="333.881296" xlink:href="#m2be05f4aa1" y="278.141117"/>
     <use style="fill:#808080;stroke:#808080;" x="351.609151" xlink:href="#m2be05f4aa1" y="278.141117"/>
     <use style="fill:#808080;stroke:#808080;" x="356.52586" xlink:href="#m2be05f4aa1" y="278.141117"/>
     <use style="fill:#808080;stroke:#808080;" x="359.503586" xlink:href="#m2be05f4aa1" y="278.141117"/>
     <use style="fill:#808080;stroke:#808080;" x="370.652744" xlink:href="#m2be05f4aa1" y="278.141117"/>
     <use style="fill:#808080;stroke:#808080;" x="374.738461" xlink:href="#m2be05f4aa1" y="278.141117"/>
     <use style="fill:#808080;stroke:#808080;" x="376.746694" xlink:href="#m2be05f4aa1" y="278.141117"/>
     <use style="fill:#808080;stroke:#808080;" x="380.693912" xlink:href="#m2be05f4aa1" y="286.281894"/>
     <use style="fill:#808080;stroke:#808080;" x="391.566072" xlink:href="#m2be05f4aa1" y="286.281894"/>
     <use style="fill:#808080;stroke:#808080;" x="392.604814" xlink:href="#m2be05f4aa1" y="286.281894"/>
     <use style="fill:#808080;stroke:#808080;" x="405.069711" xlink:href="#m2be05f4aa1" y="286.281894"/>
     <use style="fill:#808080;stroke:#808080;" x="432.907983" xlink:href="#m2be05f4aa1" y="286.281894"/>
     <use style="fill:#808080;stroke:#808080;" x="445.926876" xlink:href="#m2be05f4aa1" y="286.281894"/>
     <use style="fill:#808080;stroke:#808080;" x="464.347225" xlink:href="#m2be05f4aa1" y="286.281894"/>
     <use style="fill:#808080;stroke:#808080;" x="472.310909" xlink:href="#m2be05f4aa1" y="286.281894"/>
    </g>
   </g>
   <g id="line2d_32">
    <path clip-path="url(#p5eb93bf04c)" d="M 54.529091 42.317705 
L 55.083086 42.317705 
L 55.083086 44.0739 
L 55.360084 44.0739 
L 55.429334 49.342486 
L 55.498583 49.342486 
L 55.567832 52.854877 
L 55.775581 52.854877 
L 55.775581 54.611073 
L 55.983329 54.611073 
L 56.052578 58.123464 
L 56.191077 58.123464 
L 56.191077 59.879659 
L 56.329576 59.879659 
L 56.398826 65.148246 
L 56.883572 65.148246 
L 56.883572 66.904441 
L 57.02207 66.904441 
L 57.09132 70.416832 
L 58.33781 70.416832 
L 58.33781 72.173028 
L 59.030304 72.173028 
L 59.030304 73.929223 
L 59.307302 73.929223 
L 59.307302 75.685419 
L 59.51505 75.685419 
L 59.51505 77.441614 
L 59.722798 77.441614 
L 59.722798 80.954005 
L 60.138295 80.954005 
L 60.138295 82.721679 
L 60.553791 82.721679 
L 60.553791 84.489353 
L 61.246286 84.489353 
L 61.246286 86.257027 
L 61.592533 86.257027 
L 61.592533 88.024701 
L 61.731032 88.024701 
L 61.731032 89.792375 
L 62.146528 89.792375 
L 62.146528 91.560048 
L 63.046771 91.560048 
L 63.046771 93.327722 
L 63.877764 93.327722 
L 63.947014 96.86307 
L 64.016263 96.86307 
L 64.016263 98.630744 
L 64.778007 98.630744 
L 64.778007 100.398418 
L 65.055004 100.398418 
L 65.055004 102.166092 
L 65.193503 102.166092 
L 65.193503 103.933766 
L 65.470501 103.933766 
L 65.470501 105.70144 
L 66.093746 105.70144 
L 66.093746 107.469113 
L 66.647741 107.469113 
L 66.647741 109.236787 
L 68.309728 109.236787 
L 68.309728 112.772135 
L 68.863723 112.772135 
L 68.932973 119.842831 
L 69.071471 119.842831 
L 69.071471 121.610505 
L 69.27922 121.610505 
L 69.27922 123.378178 
L 69.763966 123.378178 
L 69.763966 125.145852 
L 70.871957 125.145852 
L 70.941206 128.6812 
L 71.010456 128.6812 
L 71.010456 132.216548 
L 71.218204 132.216548 
L 71.218204 133.984222 
L 71.356703 133.984222 
L 71.356703 135.751896 
L 71.772199 135.751896 
L 71.772199 137.519569 
L 71.910698 137.519569 
L 71.979948 141.054917 
L 72.049197 141.054917 
L 72.049197 142.822591 
L 72.810941 142.822591 
L 72.810941 144.590265 
L 73.572684 144.590265 
L 73.572684 146.357939 
L 74.195929 146.357939 
L 74.195929 148.125613 
L 74.334428 148.125613 
L 74.334428 149.893287 
L 75.096172 149.893287 
L 75.096172 151.660961 
L 75.30392 151.660961 
L 75.30392 153.428634 
L 75.996415 153.428634 
L 75.996415 155.196308 
L 76.55041 155.196308 
L 76.55041 158.731656 
L 76.758158 158.731656 
L 76.827408 162.267004 
L 77.242904 162.267004 
L 77.242904 165.802352 
L 77.935399 165.802352 
L 77.935399 167.570026 
L 78.143147 167.570026 
L 78.143147 169.337699 
L 79.251138 169.337699 
L 79.320387 172.873047 
L 79.735884 172.873047 
L 79.735884 174.640721 
L 80.082131 174.640721 
L 80.082131 176.408395 
L 81.813367 176.408395 
L 81.813367 178.176069 
L 82.021115 178.176069 
L 82.090365 181.711417 
L 82.228863 181.711417 
L 82.228863 183.47909 
L 82.436612 183.47909 
L 82.436612 185.246764 
L 84.029349 185.246764 
L 84.029349 187.014438 
L 84.514095 187.014438 
L 84.514095 188.782112 
L 85.137339 188.782112 
L 85.206589 192.31746 
L 85.414337 192.31746 
L 85.414337 194.085134 
L 85.552836 194.085134 
L 85.552836 195.852808 
L 86.31458 195.852808 
L 86.31458 197.620482 
L 88.322813 197.620482 
L 88.392063 201.155829 
L 88.599811 201.155829 
L 88.66906 206.458851 
L 89.084557 206.458851 
L 89.084557 208.226525 
L 89.777051 208.226525 
L 89.777051 209.994199 
L 91.508287 209.994199 
L 91.508287 211.761873 
L 96.217248 211.761873 
L 96.217248 213.552209 
L 98.779477 213.552209 
L 98.779477 215.342545 
L 100.233715 215.342545 
L 100.233715 217.132882 
L 101.687954 217.132882 
L 101.687954 218.923218 
L 101.826452 218.923218 
L 101.826452 220.713554 
L 103.488439 220.713554 
L 103.488439 222.503891 
L 108.128151 222.503891 
L 108.128151 224.294227 
L 110.69038 224.294227 
L 110.69038 226.084564 
L 111.86762 226.084564 
L 111.86762 227.8749 
L 112.629364 227.8749 
L 112.629364 229.665236 
L 112.767863 229.665236 
L 112.767863 231.455573 
L 113.183359 231.455573 
L 113.183359 233.245909 
L 114.152851 233.245909 
L 114.152851 235.036245 
L 116.645831 235.036245 
L 116.645831 236.826582 
L 118.654064 236.826582 
L 118.654064 238.616918 
L 129.803223 238.616918 
L 129.803223 240.407255 
L 131.118962 240.407255 
L 131.118962 242.197591 
L 137.351411 242.197591 
L 137.351411 243.987927 
L 138.5979 243.987927 
L 138.5979 245.778264 
L 150.231805 245.778264 
L 150.231805 247.5686 
L 151.201297 247.5686 
L 151.201297 249.358936 
L 156.118006 249.358936 
L 156.118006 251.149273 
L 162.9737 251.149273 
L 162.9737 252.939609 
L 165.743677 252.939609 
L 165.743677 254.729945 
L 179.108818 254.729945 
L 179.108818 256.520282 
L 187.557248 256.520282 
L 187.557248 258.380828 
L 198.221661 258.380828 
L 198.221661 260.318896 
L 204.800357 260.318896 
L 204.800357 262.299096 
L 207.362585 262.299096 
L 207.362585 264.324301 
L 209.024572 264.324301 
L 209.024572 266.397725 
L 209.509318 266.397725 
L 209.509318 268.471149 
L 215.257021 268.471149 
L 215.257021 270.544573 
L 249.46624 270.544573 
L 249.46624 272.994983 
L 258.122419 272.994983 
L 258.122419 275.524439 
L 265.878355 275.524439 
L 265.878355 278.141117 
L 377.716186 278.141117 
L 377.716186 286.281894 
L 472.310909 286.281894 
L 472.310909 286.281894 
" style="fill:none;stroke:#808080;stroke-linecap:square;stroke-width:1.5;"/>
   </g>
   <g id="patch_3">
    <path d="M 33.64 366.5095 
L 33.64 26.88 
" style="fill:none;stroke:#000000;stroke-linecap:square;stroke-linejoin:miter;stroke-width:0.8;"/>
   </g>
   <g id="patch_4">
    <path d="M 493.2 366.5095 
L 493.2 26.88 
" style="fill:none;stroke:#000000;stroke-linecap:square;stroke-linejoin:miter;stroke-width:0.8;"/>
   </g>
   <g id="patch_5">
    <path d="M 33.64 366.5095 
L 493.2 366.5095 
" style="fill:none;stroke:#000000;stroke-linecap:square;stroke-linejoin:miter;stroke-width:0.8;"/>
   </g>
   <g id="patch_6">
    <path d="M 33.64 26.88 
L 493.2 26.88 
" style="fill:none;stroke:#000000;stroke-linecap:square;stroke-linejoin:miter;stroke-width:0.8;"/>
   </g>
   <g id="text_15">
    <text style="font-family:DejaVu Sans;font-size:12px;font-stretch:normal;font-style:normal;font-weight:normal;text-anchor:middle;" transform="rotate(-0, 263.42, 20.88)" x="263.42" y="20.88">Survival curves - model_type: ridge_cph_lifelines</text>
   </g>
   <g id="legend_1">
    <g id="patch_7">
     <path d="M 349.195312 78.914375 
L 486.2 78.914375 
Q 488.2 78.914375 488.2 76.914375 
L 488.2 33.88 
Q 488.2 31.88 486.2 31.88 
L 349.195312 31.88 
Q 347.195312 31.88 347.195312 33.88 
L 347.195312 76.914375 
Q 347.195312 78.914375 349.195312 78.914375 
z
" style="fill:#ffffff;opacity:0.8;stroke:#cccccc;stroke-linejoin:miter;"/>
    </g>
    <g id="line2d_33">
     <path d="M 351.195312 39.978437 
L 371.195312 39.978437 
" style="fill:none;stroke:#ff0000;stroke-linecap:square;stroke-width:1.5;"/>
    </g>
    <g id="line2d_34"/>
    <g id="text_16">
     <text style="font-family:DejaVu Sans;font-size:10px;font-stretch:normal;font-style:normal;font-weight:normal;text-anchor:start;" transform="rotate(-0, 379.195312, 43.478437)" x="379.195312" y="43.478437">adv. risk (n:78 c:1 )</text>
    </g>
    <g id="line2d_35">
     <path d="M 351.195312 54.656563 
L 371.195312 54.656563 
" style="fill:none;stroke:#0000ff;stroke-linecap:square;stroke-width:1.5;"/>
    </g>
    <g id="line2d_36"/>
    <g id="text_17">
     <text style="font-family:DejaVu Sans;font-size:10px;font-stretch:normal;font-style:normal;font-weight:normal;text-anchor:start;" transform="rotate(-0, 379.195312, 58.156563)" x="379.195312" y="58.156563">fav. risk (n:45 c:32)</text>
    </g>
    <g id="line2d_37">
     <path d="M 351.195312 69.334687 
L 371.195312 69.334687 
" style="fill:none;stroke:#808080;stroke-linecap:square;stroke-width:1.5;"/>
    </g>
    <g id="line2d_38"/>
    <g id="text_18">
     <text style="font-family:DejaVu Sans;font-size:10px;font-stretch:normal;font-style:normal;font-weight:normal;text-anchor:start;" transform="rotate(-0, 379.195312, 72.834687)" x="379.195312" y="72.834687">int. risk (n:177 c:44 )</text>
    </g>
   </g>
  </g>
 </g>
 <defs>
  <clipPath id="p5eb93bf04c">
   <rect height="339.6295" width="459.56" x="33.64" y="26.88"/>
  </clipPath>
 </defs>
</svg>
