<?xml version="1.0" encoding="utf-8" standalone="no"?>
<!DOCTYPE svg PUBLIC "-//W3C//DTD SVG 1.1//EN"
  "http://www.w3.org/Graphics/SVG/1.1/DTD/svg11.dtd">
<!-- Created with matplotlib (https://matplotlib.org/) -->
<svg height="432pt" version="1.1" viewBox="0 0 504 432" width="504pt" xmlns="http://www.w3.org/2000/svg" xmlns:xlink="http://www.w3.org/1999/xlink">
 <metadata>
  <rdf:RDF xmlns:cc="http://creativecommons.org/ns#" xmlns:dc="http://purl.org/dc/elements/1.1/" xmlns:rdf="http://www.w3.org/1999/02/22-rdf-syntax-ns#">
   <cc:Work>
    <dc:type rdf:resource="http://purl.org/dc/dcmitype/StillImage"/>
    <dc:date>2022-10-27T18:01:30.095085</dc:date>
    <dc:format>image/svg+xml</dc:format>
    <dc:creator>
     <cc:Agent>
      <dc:title>Matplotlib v3.3.4, https://matplotlib.org/</dc:title>
     </cc:Agent>
    </dc:creator>
   </cc:Work>
  </rdf:RDF>
 </metadata>
 <defs>
  <style type="text/css">*{stroke-linecap:butt;stroke-linejoin:round;}</style>
 </defs>
 <g id="figure_1">
  <g id="patch_1">
   <path d="M 0 432 
L 504 432 
L 504 0 
L 0 0 
z
" style="fill:#ffffff;"/>
  </g>
  <g id="axes_1">
   <g id="patch_2">
    <path d="M 33.64 366.5095 
L 493.2 366.5095 
L 493.2 26.88 
L 33.64 26.88 
z
" style="fill:#ffffff;"/>
   </g>
   <g id="PolyCollection_1">
    <defs>
     <path d="M 54.529091 -389.682295 
L 54.529091 -389.682295 
L 55.360084 -389.682295 
L 55.360084 -362.19139 
L 55.429334 -362.19139 
L 55.429334 -358.698902 
L 55.567832 -358.698902 
L 55.567832 -353.718587 
L 55.775581 -353.718587 
L 55.775581 -348.576028 
L 55.91408 -348.576028 
L 55.91408 -343.462534 
L 56.398826 -343.462534 
L 56.398826 -338.418459 
L 56.537324 -338.418459 
L 56.537324 -333.450213 
L 56.952821 -333.450213 
L 56.952821 -328.555032 
L 57.02207 -328.555032 
L 57.02207 -314.255622 
L 57.783814 -314.255622 
L 57.783814 -309.601203 
L 58.060812 -309.601203 
L 58.060812 -304.995789 
L 58.822556 -304.995789 
L 58.822556 -300.435958 
L 59.722798 -300.435958 
L 59.722798 -295.918735 
L 59.861297 -295.918735 
L 59.861297 -291.441529 
L 60.138295 -291.441529 
L 60.138295 -282.408127 
L 60.276794 -282.408127 
L 60.276794 -277.948584 
L 60.415293 -277.948584 
L 60.415293 -273.524494 
L 60.553791 -273.524494 
L 60.553791 -269.134191 
L 60.830789 -269.134191 
L 60.830789 -264.776218 
L 60.969288 -264.776218 
L 60.969288 -260.449297 
L 61.523283 -260.449297 
L 61.523283 -256.152306 
L 61.592533 -256.152306 
L 61.592533 -251.884254 
L 62.008029 -251.884254 
L 62.008029 -247.64427 
L 62.215778 -247.64427 
L 62.215778 -243.431586 
L 63.323769 -243.431586 
L 63.323769 -239.245529 
L 63.462268 -239.245529 
L 63.462268 -235.085507 
L 63.739265 -235.085507 
L 63.739265 -230.951006 
L 63.947014 -230.951006 
L 63.947014 -226.841578 
L 64.570258 -226.841578 
L 64.570258 -222.756844 
L 64.708757 -222.756844 
L 64.708757 -218.69648 
L 64.916506 -218.69648 
L 64.916506 -214.660219 
L 65.055004 -214.660219 
L 65.055004 -210.647849 
L 65.678249 -210.647849 
L 65.678249 -206.659205 
L 66.162995 -206.659205 
L 66.162995 -202.694173 
L 66.439993 -202.694173 
L 66.439993 -198.752685 
L 69.763966 -198.752685 
L 69.763966 -194.834721 
L 69.833215 -194.834721 
L 69.833215 -190.940306 
L 70.733458 -190.940306 
L 70.733458 -187.069513 
L 70.941206 -187.069513 
L 70.941206 -183.22246 
L 71.979948 -183.22246 
L 71.979948 -179.399314 
L 72.049197 -179.399314 
L 72.049197 -175.600292 
L 72.187696 -175.600292 
L 72.187696 -171.825662 
L 72.810941 -171.825662 
L 72.810941 -168.075747 
L 74.195929 -168.075747 
L 74.195929 -164.350928 
L 75.026923 -164.350928 
L 75.026923 -160.651646 
L 75.096172 -160.651646 
L 75.096172 -156.978411 
L 75.30392 -156.978411 
L 75.30392 -153.331803 
L 75.442419 -153.331803 
L 75.442419 -146.121201 
L 75.996415 -146.121201 
L 75.996415 -142.5588 
L 76.55041 -142.5588 
L 76.55041 -139.026237 
L 78.143147 -139.026237 
L 78.143147 -135.524592 
L 79.320387 -135.524592 
L 79.320387 -132.055085 
L 80.22063 -132.055085 
L 80.22063 -128.619098 
L 84.029349 -128.619098 
L 84.029349 -125.218203 
L 85.206589 -125.218203 
L 85.206589 -121.854188 
L 88.599811 -121.854188 
L 88.599811 -118.529104 
L 89.777051 -118.529104 
L 89.777051 -115.245307 
L 99.194974 -115.245307 
L 99.194974 -112.005527 
L 101.618704 -112.005527 
L 101.618704 -108.812944 
L 101.687954 -108.812944 
L 101.687954 -105.671302 
L 103.488439 -105.671302 
L 103.488439 -102.585042 
L 104.52718 -102.585042 
L 104.52718 -99.559503 
L 110.274883 -99.559503 
L 110.274883 -96.601185 
L 130.772715 -96.601185 
L 130.772715 -93.718137 
L 150.231805 -93.718137 
L 150.231805 -90.920515 
L 168.305906 -90.920515 
L 168.305906 -88.221453 
L 204.800357 -88.221453 
L 204.800357 -85.638437 
L 218.165497 -85.638437 
L 218.165497 -83.195646 
L 347.800432 -83.195646 
L 347.800432 -80.928205 
L 359.503586 -80.928205 
L 359.503586 -80.928205 
L 374.738461 -80.928205 
L 374.738461 -80.928205 
L 380.693912 -80.928205 
L 380.693912 -80.928205 
L 464.347225 -80.928205 
L 464.347225 -80.928205 
L 464.347225 -112.611847 
L 464.347225 -112.611847 
L 464.347225 -112.611847 
L 380.693912 -112.611847 
L 380.693912 -112.611847 
L 374.738461 -112.611847 
L 374.738461 -112.611847 
L 359.503586 -112.611847 
L 359.503586 -112.611847 
L 347.800432 -112.611847 
L 347.800432 -118.016897 
L 218.165497 -118.016897 
L 218.165497 -123.277915 
L 204.800357 -123.277915 
L 204.800357 -128.420561 
L 168.305906 -128.420561 
L 168.305906 -133.463609 
L 150.231805 -133.463609 
L 150.231805 -138.421107 
L 130.772715 -138.421107 
L 130.772715 -143.303835 
L 110.274883 -143.303835 
L 110.274883 -148.120251 
L 104.52718 -148.120251 
L 104.52718 -152.877125 
L 103.488439 -152.877125 
L 103.488439 -157.579964 
L 101.687954 -157.579964 
L 101.687954 -162.233316 
L 101.618704 -162.233316 
L 101.618704 -166.840981 
L 99.194974 -166.840981 
L 99.194974 -171.40617 
L 89.777051 -171.40617 
L 89.777051 -175.931619 
L 88.599811 -175.931619 
L 88.599811 -180.41968 
L 85.206589 -180.41968 
L 85.206589 -184.872383 
L 84.029349 -184.872383 
L 84.029349 -189.291498 
L 80.22063 -189.291498 
L 80.22063 -193.678569 
L 79.320387 -193.678569 
L 79.320387 -198.034949 
L 78.143147 -198.034949 
L 78.143147 -202.361831 
L 76.55041 -202.361831 
L 76.55041 -206.660265 
L 75.996415 -206.660265 
L 75.996415 -210.931178 
L 75.442419 -210.931178 
L 75.442419 -219.393616 
L 75.30392 -219.393616 
L 75.30392 -223.586499 
L 75.096172 -223.586499 
L 75.096172 -227.754595 
L 75.026923 -227.754595 
L 75.026923 -231.898391 
L 74.195929 -231.898391 
L 74.195929 -236.018311 
L 72.810941 -236.018311 
L 72.810941 -240.114717 
L 72.187696 -240.114717 
L 72.187696 -244.187917 
L 72.049197 -244.187917 
L 72.049197 -248.238167 
L 71.979948 -248.238167 
L 71.979948 -252.265673 
L 70.941206 -252.265673 
L 70.941206 -256.270594 
L 70.733458 -256.270594 
L 70.733458 -260.253043 
L 69.833215 -260.253043 
L 69.833215 -264.213089 
L 69.763966 -264.213089 
L 69.763966 -268.150757 
L 66.439993 -268.150757 
L 66.439993 -272.066029 
L 66.162995 -272.066029 
L 66.162995 -275.958843 
L 65.678249 -275.958843 
L 65.678249 -279.829094 
L 65.055004 -279.829094 
L 65.055004 -283.676632 
L 64.916506 -283.676632 
L 64.916506 -287.501259 
L 64.708757 -287.501259 
L 64.708757 -291.30273 
L 64.570258 -291.30273 
L 64.570258 -295.080748 
L 63.947014 -295.080748 
L 63.947014 -298.834964 
L 63.739265 -298.834964 
L 63.739265 -302.56497 
L 63.462268 -302.56497 
L 63.462268 -306.270296 
L 63.323769 -306.270296 
L 63.323769 -309.950404 
L 62.215778 -309.950404 
L 62.215778 -313.604684 
L 62.008029 -313.604684 
L 62.008029 -317.23244 
L 61.592533 -317.23244 
L 61.592533 -320.83289 
L 61.523283 -320.83289 
L 61.523283 -324.405147 
L 60.969288 -324.405147 
L 60.969288 -327.948208 
L 60.830789 -327.948208 
L 60.830789 -331.46094 
L 60.553791 -331.46094 
L 60.553791 -334.942057 
L 60.415293 -334.942057 
L 60.415293 -338.390102 
L 60.276794 -338.390102 
L 60.276794 -341.803408 
L 60.138295 -341.803408 
L 60.138295 -348.517895 
L 59.861297 -348.517895 
L 59.861297 -351.773903 
L 59.722798 -351.773903 
L 59.722798 -354.987569 
L 58.822556 -354.987569 
L 58.822556 -358.155619 
L 58.060812 -358.155619 
L 58.060812 -361.274174 
L 57.783814 -361.274174 
L 57.783814 -364.338581 
L 57.02207 -364.338581 
L 57.02207 -373.143187 
L 56.952821 -373.143187 
L 56.952821 -375.918413 
L 56.537324 -375.918413 
L 56.537324 -378.59155 
L 56.398826 -378.59155 
L 56.398826 -381.14172 
L 55.91408 -381.14172 
L 55.91408 -383.538585 
L 55.775581 -383.538585 
L 55.775581 -385.734854 
L 55.567832 -385.734854 
L 55.567832 -387.648705 
L 55.429334 -387.648705 
L 55.429334 -389.111975 
L 55.360084 -389.111975 
L 55.360084 -389.682295 
L 54.529091 -389.682295 
z
" id="m2c23eb2ecd" style="stroke:#ff0000;stroke-opacity:0.25;"/>
    </defs>
    <g clip-path="url(#p6507cc6921)">
     <use style="fill:#ff0000;fill-opacity:0.25;stroke:#ff0000;stroke-opacity:0.25;" x="0" xlink:href="#m2c23eb2ecd" y="432"/>
    </g>
   </g>
   <g id="PolyCollection_2">
    <defs>
     <path d="M 54.529091 -389.682295 
L 54.529091 -389.682295 
L 55.360084 -389.682295 
L 55.360084 -343.368456 
L 56.329576 -343.368456 
L 56.329576 -337.474938 
L 59.51505 -337.474938 
L 59.51505 -329.186362 
L 61.731032 -329.186362 
L 61.731032 -320.672379 
L 75.580918 -320.672379 
L 75.580918 -312.243385 
L 76.827408 -312.243385 
L 76.827408 -303.962719 
L 86.31458 -303.962719 
L 86.31458 -295.838794 
L 88.045816 -295.838794 
L 88.045816 -287.865578 
L 89.084557 -287.865578 
L 89.084557 -280.033593 
L 95.524754 -280.033593 
L 95.524754 -272.333259 
L 106.812411 -272.333259 
L 106.812411 -264.755904 
L 122.462783 -264.755904 
L 122.462783 -257.294004 
L 184.579523 -257.294004 
L 184.579523 -257.294004 
L 187.834246 -257.294004 
L 187.834246 -257.294004 
L 193.651198 -257.294004 
L 193.651198 -257.294004 
L 208.678325 -257.294004 
L 208.678325 -257.294004 
L 218.026998 -257.294004 
L 218.026998 -248.480582 
L 218.373245 -248.480582 
L 218.373245 -248.480582 
L 224.259447 -248.480582 
L 224.259447 -248.480582 
L 226.26768 -248.480582 
L 226.26768 -248.480582 
L 235.685603 -248.480582 
L 235.685603 -248.480582 
L 245.519022 -248.480582 
L 245.519022 -248.480582 
L 253.759704 -248.480582 
L 253.759704 -248.480582 
L 263.177627 -248.480582 
L 263.177627 -248.480582 
L 270.10257 -248.480582 
L 270.10257 -248.480582 
L 280.697733 -248.480582 
L 280.697733 -248.480582 
L 284.160205 -248.480582 
L 284.160205 -248.480582 
L 316.638188 -248.480582 
L 316.638188 -248.480582 
L 322.039643 -248.480582 
L 322.039643 -248.480582 
L 330.765072 -248.480582 
L 330.765072 -248.480582 
L 338.31326 -248.480582 
L 338.31326 -248.480582 
L 344.060963 -248.480582 
L 344.060963 -248.480582 
L 357.910849 -248.480582 
L 357.910849 -248.480582 
L 383.256141 -248.480582 
L 383.256141 -248.480582 
L 388.726846 -248.480582 
L 388.726846 -248.480582 
L 389.904086 -248.480582 
L 389.904086 -248.480582 
L 398.491015 -248.480582 
L 398.491015 -248.480582 
L 408.393684 -248.480582 
L 408.393684 -248.480582 
L 425.221296 -248.480582 
L 425.221296 -248.480582 
L 432.907983 -248.480582 
L 432.907983 -248.480582 
L 441.356413 -248.480582 
L 441.356413 -248.480582 
L 455.483297 -248.480582 
L 455.483297 -248.480582 
L 458.184025 -248.480582 
L 458.184025 -248.480582 
L 459.499764 -248.480582 
L 459.499764 -248.480582 
L 459.499764 -332.849582 
L 459.499764 -332.849582 
L 459.499764 -332.849582 
L 458.184025 -332.849582 
L 458.184025 -332.849582 
L 455.483297 -332.849582 
L 455.483297 -332.849582 
L 441.356413 -332.849582 
L 441.356413 -332.849582 
L 432.907983 -332.849582 
L 432.907983 -332.849582 
L 425.221296 -332.849582 
L 425.221296 -332.849582 
L 408.393684 -332.849582 
L 408.393684 -332.849582 
L 398.491015 -332.849582 
L 398.491015 -332.849582 
L 389.904086 -332.849582 
L 389.904086 -332.849582 
L 388.726846 -332.849582 
L 388.726846 -332.849582 
L 383.256141 -332.849582 
L 383.256141 -332.849582 
L 357.910849 -332.849582 
L 357.910849 -332.849582 
L 344.060963 -332.849582 
L 344.060963 -332.849582 
L 338.31326 -332.849582 
L 338.31326 -332.849582 
L 330.765072 -332.849582 
L 330.765072 -332.849582 
L 322.039643 -332.849582 
L 322.039643 -332.849582 
L 316.638188 -332.849582 
L 316.638188 -332.849582 
L 284.160205 -332.849582 
L 284.160205 -332.849582 
L 280.697733 -332.849582 
L 280.697733 -332.849582 
L 270.10257 -332.849582 
L 270.10257 -332.849582 
L 263.177627 -332.849582 
L 263.177627 -332.849582 
L 253.759704 -332.849582 
L 253.759704 -332.849582 
L 245.519022 -332.849582 
L 245.519022 -332.849582 
L 235.685603 -332.849582 
L 235.685603 -332.849582 
L 226.26768 -332.849582 
L 226.26768 -332.849582 
L 224.259447 -332.849582 
L 224.259447 -332.849582 
L 218.373245 -332.849582 
L 218.373245 -332.849582 
L 218.026998 -332.849582 
L 218.026998 -339.066516 
L 208.678325 -339.066516 
L 208.678325 -339.066516 
L 193.651198 -339.066516 
L 193.651198 -339.066516 
L 187.834246 -339.066516 
L 187.834246 -339.066516 
L 184.579523 -339.066516 
L 184.579523 -339.066516 
L 122.462783 -339.066516 
L 122.462783 -344.606176 
L 106.812411 -344.606176 
L 106.812411 -350.021027 
L 95.524754 -350.021027 
L 95.524754 -355.299285 
L 89.084557 -355.299285 
L 89.084557 -360.425927 
L 88.045816 -360.425927 
L 88.045816 -365.381406 
L 86.31458 -365.381406 
L 86.31458 -370.139584 
L 76.827408 -370.139584 
L 76.827408 -374.664232 
L 75.580918 -374.664232 
L 75.580918 -378.902628 
L 61.731032 -378.902628 
L 61.731032 -382.772577 
L 59.51505 -382.772577 
L 59.51505 -386.132033 
L 56.329576 -386.132033 
L 56.329576 -388.689709 
L 55.360084 -388.689709 
L 55.360084 -389.682295 
L 54.529091 -389.682295 
z
" id="m1768ef869a" style="stroke:#0000ff;stroke-opacity:0.25;"/>
    </defs>
    <g clip-path="url(#p6507cc6921)">
     <use style="fill:#0000ff;fill-opacity:0.25;stroke:#0000ff;stroke-opacity:0.25;" x="0" xlink:href="#m1768ef869a" y="432"/>
    </g>
   </g>
   <g id="PolyCollection_3">
    <defs>
     <path d="M 54.529091 -389.682295 
L 54.529091 -389.682295 
L 55.083086 -389.682295 
L 55.083086 -377.300852 
L 55.152336 -377.300852 
L 55.152336 -375.731364 
L 55.290835 -375.731364 
L 55.290835 -373.469409 
L 55.360084 -373.469409 
L 55.360084 -368.787463 
L 55.498583 -368.787463 
L 55.498583 -366.475348 
L 55.983329 -366.475348 
L 55.983329 -364.192329 
L 56.052578 -364.192329 
L 56.052578 -355.321156 
L 56.191077 -355.321156 
L 56.191077 -353.158029 
L 56.398826 -353.158029 
L 56.398826 -351.013069 
L 56.606574 -351.013069 
L 56.606574 -348.884799 
L 56.883572 -348.884799 
L 56.883572 -346.771928 
L 57.09132 -346.771928 
L 57.09132 -344.673323 
L 58.33781 -344.673323 
L 58.33781 -342.58799 
L 59.030304 -342.58799 
L 59.030304 -340.515047 
L 59.307302 -340.515047 
L 59.307302 -338.453714 
L 59.584299 -338.453714 
L 59.584299 -336.403296 
L 59.722798 -336.403296 
L 59.722798 -334.363171 
L 60.623041 -334.363171 
L 60.623041 -332.332778 
L 61.246286 -332.332778 
L 61.246286 -330.311614 
L 61.592533 -330.311614 
L 61.592533 -328.299222 
L 62.146528 -328.299222 
L 62.146528 -326.295188 
L 62.215778 -326.295188 
L 62.215778 -324.299133 
L 62.285027 -324.299133 
L 62.285027 -322.310713 
L 62.839023 -322.310713 
L 62.839023 -320.329612 
L 63.046771 -320.329612 
L 63.046771 -318.355537 
L 63.877764 -318.355537 
L 63.877764 -314.427419 
L 64.016263 -314.427419 
L 64.016263 -312.4729 
L 64.085512 -312.4729 
L 64.085512 -310.524452 
L 64.43176 -310.524452 
L 64.43176 -308.581878 
L 64.778007 -308.581878 
L 64.778007 -304.713631 
L 64.916506 -304.713631 
L 64.916506 -302.787627 
L 65.055004 -302.787627 
L 65.055004 -300.866834 
L 65.193503 -300.866834 
L 65.193503 -298.951112 
L 65.470501 -298.951112 
L 65.470501 -297.040331 
L 65.816748 -297.040331 
L 65.816748 -295.134366 
L 65.955247 -295.134366 
L 65.955247 -293.233103 
L 66.093746 -293.233103 
L 66.093746 -291.336433 
L 66.647741 -291.336433 
L 66.647741 -289.444253 
L 66.716991 -289.444253 
L 66.716991 -287.556468 
L 67.409485 -287.556468 
L 67.409485 -285.672985 
L 67.617233 -285.672985 
L 67.617233 -283.79372 
L 68.309728 -283.79372 
L 68.309728 -280.047521 
L 68.863723 -280.047521 
L 68.863723 -278.180439 
L 68.932973 -278.180439 
L 68.932973 -272.602449 
L 69.071471 -272.602449 
L 69.071471 -270.750667 
L 69.27922 -270.750667 
L 69.27922 -267.058088 
L 70.802707 -267.058088 
L 70.802707 -265.21719 
L 70.871957 -265.21719 
L 70.871957 -263.379824 
L 71.010456 -263.379824 
L 71.010456 -259.71551 
L 71.218204 -259.71551 
L 71.218204 -256.064821 
L 71.356703 -256.064821 
L 71.356703 -254.244493 
L 71.495202 -254.244493 
L 71.495202 -252.427464 
L 71.772199 -252.427464 
L 71.772199 -250.613703 
L 71.910698 -250.613703 
L 71.910698 -248.80318 
L 72.741691 -248.80318 
L 72.741691 -246.995866 
L 73.018689 -246.995866 
L 73.018689 -245.191736 
L 73.572684 -245.191736 
L 73.572684 -243.390765 
L 74.334428 -243.390765 
L 74.334428 -241.59293 
L 74.680675 -241.59293 
L 74.680675 -239.798208 
L 75.026923 -239.798208 
L 75.026923 -238.006579 
L 75.30392 -238.006579 
L 75.30392 -236.218026 
L 75.788666 -236.218026 
L 75.788666 -234.432529 
L 75.996415 -234.432529 
L 75.996415 -230.870645 
L 76.55041 -230.870645 
L 76.55041 -227.320814 
L 76.758158 -227.320814 
L 76.758158 -225.550387 
L 77.242904 -225.550387 
L 77.242904 -222.018465 
L 77.935399 -222.018465 
L 77.935399 -220.256953 
L 79.251138 -220.256953 
L 79.251138 -218.498397 
L 79.528136 -218.498397 
L 79.528136 -216.742793 
L 79.735884 -216.742793 
L 79.735884 -214.990136 
L 80.082131 -214.990136 
L 80.082131 -213.240424 
L 81.813367 -213.240424 
L 81.813367 -211.493655 
L 82.021115 -211.493655 
L 82.021115 -209.749827 
L 82.090365 -209.749827 
L 82.090365 -208.008942 
L 82.228863 -208.008942 
L 82.228863 -206.270999 
L 82.436612 -206.270999 
L 82.436612 -204.536003 
L 84.514095 -204.536003 
L 84.514095 -202.803957 
L 85.137339 -202.803957 
L 85.137339 -201.074864 
L 85.414337 -201.074864 
L 85.414337 -199.348732 
L 85.552836 -199.348732 
L 85.552836 -197.625566 
L 88.045816 -197.625566 
L 88.045816 -195.905376 
L 88.322813 -195.905376 
L 88.322813 -194.188171 
L 88.392063 -194.188171 
L 88.392063 -192.47396 
L 88.599811 -192.47396 
L 88.599811 -190.762756 
L 88.66906 -190.762756 
L 88.66906 -189.054572 
L 90.469546 -189.054572 
L 90.469546 -187.349421 
L 90.538795 -187.349421 
L 90.538795 -185.647319 
L 91.508287 -185.647319 
L 91.508287 -183.948283 
L 95.386255 -183.948283 
L 95.386255 -183.948283 
L 96.217248 -183.948283 
L 96.217248 -182.225469 
L 98.779477 -182.225469 
L 98.779477 -180.505952 
L 100.233715 -180.505952 
L 100.233715 -178.789753 
L 101.826452 -178.789753 
L 101.826452 -177.076892 
L 108.128151 -177.076892 
L 108.128151 -175.367394 
L 110.69038 -175.367394 
L 110.69038 -173.661282 
L 111.86762 -173.661282 
L 111.86762 -171.958585 
L 112.629364 -171.958585 
L 112.629364 -170.259331 
L 112.767863 -170.259331 
L 112.767863 -168.563549 
L 113.183359 -168.563549 
L 113.183359 -166.871274 
L 114.152851 -166.871274 
L 114.152851 -165.182539 
L 116.645831 -165.182539 
L 116.645831 -163.497381 
L 118.654064 -163.497381 
L 118.654064 -161.815839 
L 121.008545 -161.815839 
L 121.008545 -160.137954 
L 129.803223 -160.137954 
L 129.803223 -158.46377 
L 131.118962 -158.46377 
L 131.118962 -156.793333 
L 137.351411 -156.793333 
L 137.351411 -155.126692 
L 138.5979 -155.126692 
L 138.5979 -153.463899 
L 151.201297 -153.463899 
L 151.201297 -151.805009 
L 156.118006 -151.805009 
L 156.118006 -150.150079 
L 162.9737 -150.150079 
L 162.9737 -148.499171 
L 165.743677 -148.499171 
L 165.743677 -146.85235 
L 179.108818 -146.85235 
L 179.108818 -145.209683 
L 181.463298 -145.209683 
L 181.463298 -143.571245 
L 182.709788 -143.571245 
L 182.709788 -143.571245 
L 187.3495 -143.571245 
L 187.3495 -143.571245 
L 187.557248 -143.571245 
L 187.557248 -141.855629 
L 189.703981 -141.855629 
L 189.703981 -141.855629 
L 191.850713 -141.855629 
L 191.850713 -141.855629 
L 198.221661 -141.855629 
L 198.221661 -140.053625 
L 198.983404 -140.053625 
L 198.983404 -140.053625 
L 206.254595 -140.053625 
L 206.254595 -140.053625 
L 207.362585 -140.053625 
L 207.362585 -138.154176 
L 208.262828 -138.154176 
L 208.262828 -138.154176 
L 209.024572 -138.154176 
L 209.024572 -136.205043 
L 209.509318 -136.205043 
L 209.509318 -134.264948 
L 215.257021 -134.264948 
L 215.257021 -132.334038 
L 227.444921 -132.334038 
L 227.444921 -132.334038 
L 232.153882 -132.334038 
L 232.153882 -132.334038 
L 237.001342 -132.334038 
L 237.001342 -132.334038 
L 237.901585 -132.334038 
L 237.901585 -132.334038 
L 241.156308 -132.334038 
L 241.156308 -132.334038 
L 248.704496 -132.334038 
L 248.704496 -132.334038 
L 249.46624 -132.334038 
L 249.46624 -129.94082 
L 252.859462 -129.94082 
L 252.859462 -129.94082 
L 258.122419 -129.94082 
L 258.122419 -127.463849 
L 261.377142 -127.463849 
L 261.377142 -127.463849 
L 265.878355 -127.463849 
L 265.878355 -124.894006 
L 266.43235 -124.894006 
L 266.43235 -124.894006 
L 269.133078 -124.894006 
L 269.133078 -124.894006 
L 280.420735 -124.894006 
L 280.420735 -124.894006 
L 289.838658 -124.894006 
L 289.838658 -124.894006 
L 295.586361 -124.894006 
L 295.586361 -124.894006 
L 302.234306 -124.894006 
L 302.234306 -124.894006 
L 322.385891 -124.894006 
L 322.385891 -124.894006 
L 330.626573 -124.894006 
L 330.626573 -124.894006 
L 333.535049 -124.894006 
L 333.535049 -124.894006 
L 333.673548 -124.894006 
L 333.673548 -124.894006 
L 333.812047 -124.894006 
L 333.812047 -124.894006 
L 333.881296 -124.894006 
L 333.881296 -124.894006 
L 351.609151 -124.894006 
L 351.609151 -124.894006 
L 356.52586 -124.894006 
L 356.52586 -124.894006 
L 370.652744 -124.894006 
L 370.652744 -124.894006 
L 376.746694 -124.894006 
L 376.746694 -124.894006 
L 377.716186 -124.894006 
L 377.716186 -113.84321 
L 391.566072 -113.84321 
L 391.566072 -113.84321 
L 392.604814 -113.84321 
L 392.604814 -113.84321 
L 393.505056 -113.84321 
L 393.505056 -113.84321 
L 405.069711 -113.84321 
L 405.069711 -113.84321 
L 445.926876 -113.84321 
L 445.926876 -113.84321 
L 463.931728 -113.84321 
L 463.931728 -113.84321 
L 472.310909 -113.84321 
L 472.310909 -113.84321 
L 472.310909 -160.100275 
L 472.310909 -160.100275 
L 472.310909 -160.100275 
L 463.931728 -160.100275 
L 463.931728 -160.100275 
L 445.926876 -160.100275 
L 445.926876 -160.100275 
L 405.069711 -160.100275 
L 405.069711 -160.100275 
L 393.505056 -160.100275 
L 393.505056 -160.100275 
L 392.604814 -160.100275 
L 392.604814 -160.100275 
L 391.566072 -160.100275 
L 391.566072 -160.100275 
L 377.716186 -160.100275 
L 377.716186 -164.442603 
L 376.746694 -164.442603 
L 376.746694 -164.442603 
L 370.652744 -164.442603 
L 370.652744 -164.442603 
L 356.52586 -164.442603 
L 356.52586 -164.442603 
L 351.609151 -164.442603 
L 351.609151 -164.442603 
L 333.881296 -164.442603 
L 333.881296 -164.442603 
L 333.812047 -164.442603 
L 333.812047 -164.442603 
L 333.673548 -164.442603 
L 333.673548 -164.442603 
L 333.535049 -164.442603 
L 333.535049 -164.442603 
L 330.626573 -164.442603 
L 330.626573 -164.442603 
L 322.385891 -164.442603 
L 322.385891 -164.442603 
L 302.234306 -164.442603 
L 302.234306 -164.442603 
L 295.586361 -164.442603 
L 295.586361 -164.442603 
L 289.838658 -164.442603 
L 289.838658 -164.442603 
L 280.420735 -164.442603 
L 280.420735 -164.442603 
L 269.133078 -164.442603 
L 269.133078 -164.442603 
L 266.43235 -164.442603 
L 266.43235 -164.442603 
L 265.878355 -164.442603 
L 265.878355 -167.157165 
L 261.377142 -167.157165 
L 261.377142 -167.157165 
L 258.122419 -167.157165 
L 258.122419 -169.777967 
L 252.859462 -169.777967 
L 252.859462 -169.777967 
L 249.46624 -169.777967 
L 249.46624 -172.314169 
L 248.704496 -172.314169 
L 248.704496 -172.314169 
L 241.156308 -172.314169 
L 241.156308 -172.314169 
L 237.901585 -172.314169 
L 237.901585 -172.314169 
L 237.001342 -172.314169 
L 237.001342 -172.314169 
L 232.153882 -172.314169 
L 232.153882 -172.314169 
L 227.444921 -172.314169 
L 227.444921 -172.314169 
L 215.257021 -172.314169 
L 215.257021 -174.506423 
L 209.509318 -174.506423 
L 209.509318 -176.69071 
L 209.024572 -176.69071 
L 209.024572 -178.867175 
L 208.262828 -178.867175 
L 208.262828 -178.867175 
L 207.362585 -178.867175 
L 207.362585 -180.992574 
L 206.254595 -180.992574 
L 206.254595 -180.992574 
L 198.983404 -180.992574 
L 198.983404 -180.992574 
L 198.221661 -180.992574 
L 198.221661 -183.031103 
L 191.850713 -183.031103 
L 191.850713 -183.031103 
L 189.703981 -183.031103 
L 189.703981 -183.031103 
L 187.557248 -183.031103 
L 187.557248 -184.991221 
L 187.3495 -184.991221 
L 187.3495 -184.991221 
L 182.709788 -184.991221 
L 182.709788 -184.991221 
L 181.463298 -184.991221 
L 181.463298 -186.880125 
L 179.108818 -186.880125 
L 179.108818 -188.765064 
L 165.743677 -188.765064 
L 165.743677 -190.646106 
L 162.9737 -190.646106 
L 162.9737 -192.523313 
L 156.118006 -192.523313 
L 156.118006 -194.396742 
L 151.201297 -194.396742 
L 151.201297 -196.266449 
L 138.5979 -196.266449 
L 138.5979 -198.132488 
L 137.351411 -198.132488 
L 137.351411 -199.994907 
L 131.118962 -199.994907 
L 131.118962 -201.853754 
L 129.803223 -201.853754 
L 129.803223 -203.709073 
L 121.008545 -203.709073 
L 121.008545 -205.560906 
L 118.654064 -205.560906 
L 118.654064 -207.409293 
L 116.645831 -207.409293 
L 116.645831 -209.25427 
L 114.152851 -209.25427 
L 114.152851 -211.095874 
L 113.183359 -211.095874 
L 113.183359 -212.934137 
L 112.767863 -212.934137 
L 112.767863 -214.769091 
L 112.629364 -214.769091 
L 112.629364 -216.600765 
L 111.86762 -216.600765 
L 111.86762 -218.429188 
L 110.69038 -218.429188 
L 110.69038 -220.254384 
L 108.128151 -220.254384 
L 108.128151 -222.076378 
L 101.826452 -222.076378 
L 101.826452 -223.895194 
L 100.233715 -223.895194 
L 100.233715 -225.710851 
L 98.779477 -225.710851 
L 98.779477 -227.52337 
L 96.217248 -227.52337 
L 96.217248 -229.332768 
L 95.386255 -229.332768 
L 95.386255 -229.332768 
L 91.508287 -229.332768 
L 91.508287 -231.118188 
L 90.538795 -231.118188 
L 90.538795 -232.900665 
L 90.469546 -232.900665 
L 90.469546 -234.680215 
L 88.66906 -234.680215 
L 88.66906 -236.456849 
L 88.599811 -236.456849 
L 88.599811 -238.23058 
L 88.392063 -238.23058 
L 88.392063 -240.001417 
L 88.322813 -240.001417 
L 88.322813 -241.769371 
L 88.045816 -241.769371 
L 88.045816 -243.534449 
L 85.552836 -243.534449 
L 85.552836 -245.296658 
L 85.414337 -245.296658 
L 85.414337 -247.056005 
L 85.137339 -247.056005 
L 85.137339 -248.812493 
L 84.514095 -248.812493 
L 84.514095 -250.566128 
L 82.436612 -250.566128 
L 82.436612 -252.316911 
L 82.228863 -252.316911 
L 82.228863 -254.064844 
L 82.090365 -254.064844 
L 82.090365 -255.809928 
L 82.021115 -255.809928 
L 82.021115 -257.552162 
L 81.813367 -257.552162 
L 81.813367 -259.291545 
L 80.082131 -259.291545 
L 80.082131 -261.028074 
L 79.735884 -261.028074 
L 79.735884 -262.761745 
L 79.528136 -262.761745 
L 79.528136 -264.492554 
L 79.251138 -264.492554 
L 79.251138 -266.220494 
L 77.935399 -266.220494 
L 77.935399 -267.945558 
L 77.242904 -267.945558 
L 77.242904 -271.387028 
L 76.758158 -271.387028 
L 76.758158 -273.103414 
L 76.55041 -273.103414 
L 76.55041 -276.527428 
L 75.996415 -276.527428 
L 75.996415 -279.939677 
L 75.788666 -279.939677 
L 75.788666 -281.641351 
L 75.30392 -281.641351 
L 75.30392 -283.340034 
L 75.026923 -283.340034 
L 75.026923 -285.035707 
L 74.680675 -285.035707 
L 74.680675 -286.728351 
L 74.334428 -286.728351 
L 74.334428 -288.417943 
L 73.572684 -288.417943 
L 73.572684 -290.10446 
L 73.018689 -290.10446 
L 73.018689 -291.787878 
L 72.741691 -291.787878 
L 72.741691 -293.468169 
L 71.910698 -293.468169 
L 71.910698 -295.145306 
L 71.772199 -295.145306 
L 71.772199 -296.81926 
L 71.495202 -296.81926 
L 71.495202 -298.489998 
L 71.356703 -298.489998 
L 71.356703 -300.157487 
L 71.218204 -300.157487 
L 71.218204 -303.482578 
L 71.010456 -303.482578 
L 71.010456 -306.794225 
L 70.871957 -306.794225 
L 70.871957 -308.444903 
L 70.802707 -308.444903 
L 70.802707 -310.092089 
L 69.27922 -310.092089 
L 69.27922 -313.375788 
L 69.071471 -313.375788 
L 69.071471 -315.012195 
L 68.932973 -315.012195 
L 68.932973 -319.898951 
L 68.863723 -319.898951 
L 68.863723 -321.520167 
L 68.309728 -321.520167 
L 68.309728 -324.750624 
L 67.617233 -324.750624 
L 67.617233 -326.35971 
L 67.409485 -326.35971 
L 67.409485 -327.964589 
L 66.716991 -327.964589 
L 66.716991 -329.565172 
L 66.647741 -329.565172 
L 66.647741 -331.161365 
L 66.093746 -331.161365 
L 66.093746 -332.753066 
L 65.955247 -332.753066 
L 65.955247 -334.340168 
L 65.816748 -334.340168 
L 65.816748 -335.922559 
L 65.470501 -335.922559 
L 65.470501 -337.500117 
L 65.193503 -337.500117 
L 65.193503 -339.072713 
L 65.055004 -339.072713 
L 65.055004 -340.64021 
L 64.916506 -340.64021 
L 64.916506 -342.202461 
L 64.778007 -342.202461 
L 64.778007 -345.310585 
L 64.43176 -345.310585 
L 64.43176 -346.856109 
L 64.085512 -346.856109 
L 64.085512 -348.395686 
L 64.016263 -348.395686 
L 64.016263 -349.929108 
L 63.877764 -349.929108 
L 63.877764 -352.976562 
L 63.046771 -352.976562 
L 63.046771 -354.490085 
L 62.839023 -354.490085 
L 62.839023 -355.996429 
L 62.285027 -355.996429 
L 62.285027 -357.49528 
L 62.215778 -357.49528 
L 62.215778 -358.986294 
L 62.146528 -358.986294 
L 62.146528 -360.469095 
L 61.592533 -360.469095 
L 61.592533 -361.943268 
L 61.246286 -361.943268 
L 61.246286 -363.408355 
L 60.623041 -363.408355 
L 60.623041 -364.863848 
L 59.722798 -364.863848 
L 59.722798 -366.309181 
L 59.584299 -366.309181 
L 59.584299 -367.743718 
L 59.307302 -367.743718 
L 59.307302 -369.166747 
L 59.030304 -369.166747 
L 59.030304 -370.577457 
L 58.33781 -370.577457 
L 58.33781 -371.974927 
L 57.09132 -371.974927 
L 57.09132 -373.358096 
L 56.883572 -373.358096 
L 56.883572 -374.725738 
L 56.606574 -374.725738 
L 56.606574 -376.076415 
L 56.398826 -376.076415 
L 56.398826 -377.408431 
L 56.191077 -377.408431 
L 56.191077 -378.719755 
L 56.052578 -378.719755 
L 56.052578 -383.698754 
L 55.983329 -383.698754 
L 55.983329 -384.854117 
L 55.498583 -384.854117 
L 55.498583 -385.95879 
L 55.360084 -385.95879 
L 55.360084 -387.955553 
L 55.290835 -387.955553 
L 55.290835 -388.790987 
L 55.152336 -388.790987 
L 55.152336 -389.431744 
L 55.083086 -389.431744 
L 55.083086 -389.682295 
L 54.529091 -389.682295 
z
" id="m6698e09b92" style="stroke:#808080;stroke-opacity:0.25;"/>
    </defs>
    <g clip-path="url(#p6507cc6921)">
     <use style="fill:#808080;fill-opacity:0.25;stroke:#808080;stroke-opacity:0.25;" x="0" xlink:href="#m6698e09b92" y="432"/>
    </g>
   </g>
   <g id="matplotlib.axis_1">
    <g id="xtick_1">
     <g id="line2d_1">
      <path clip-path="url(#p6507cc6921)" d="M 54.529091 366.5095 
L 54.529091 26.88 
" style="fill:none;stroke:#b0b0b0;stroke-dasharray:2.96,1.28;stroke-dashoffset:0;stroke-opacity:0.5;stroke-width:0.8;"/>
     </g>
     <g id="line2d_2">
      <defs>
       <path d="M 0 0 
L 0 3.5 
" id="mfef08d6215" style="stroke:#000000;stroke-width:0.8;"/>
      </defs>
      <g>
       <use style="stroke:#000000;stroke-width:0.8;" x="54.529091" xlink:href="#mfef08d6215" y="366.5095"/>
      </g>
     </g>
     <g id="text_1">
      <text style="font-family:DejaVu Sans;font-size:10px;font-stretch:normal;font-style:normal;font-weight:normal;text-anchor:middle;" transform="rotate(-0, 54.529091, 381.107937)" x="54.529091" y="381.107937">0</text>
     </g>
    </g>
    <g id="xtick_2">
     <g id="line2d_3">
      <path clip-path="url(#p6507cc6921)" d="M 123.778522 366.5095 
L 123.778522 26.88 
" style="fill:none;stroke:#b0b0b0;stroke-dasharray:2.96,1.28;stroke-dashoffset:0;stroke-opacity:0.5;stroke-width:0.8;"/>
     </g>
     <g id="line2d_4">
      <g>
       <use style="stroke:#000000;stroke-width:0.8;" x="123.778522" xlink:href="#mfef08d6215" y="366.5095"/>
      </g>
     </g>
     <g id="text_2">
      <text style="font-family:DejaVu Sans;font-size:10px;font-stretch:normal;font-style:normal;font-weight:normal;text-anchor:middle;" transform="rotate(-0, 123.778522, 381.107937)" x="123.778522" y="381.107937">1000</text>
     </g>
    </g>
    <g id="xtick_3">
     <g id="line2d_5">
      <path clip-path="url(#p6507cc6921)" d="M 193.027953 366.5095 
L 193.027953 26.88 
" style="fill:none;stroke:#b0b0b0;stroke-dasharray:2.96,1.28;stroke-dashoffset:0;stroke-opacity:0.5;stroke-width:0.8;"/>
     </g>
     <g id="line2d_6">
      <g>
       <use style="stroke:#000000;stroke-width:0.8;" x="193.027953" xlink:href="#mfef08d6215" y="366.5095"/>
      </g>
     </g>
     <g id="text_3">
      <text style="font-family:DejaVu Sans;font-size:10px;font-stretch:normal;font-style:normal;font-weight:normal;text-anchor:middle;" transform="rotate(-0, 193.027953, 381.107937)" x="193.027953" y="381.107937">2000</text>
     </g>
    </g>
    <g id="xtick_4">
     <g id="line2d_7">
      <path clip-path="url(#p6507cc6921)" d="M 262.277384 366.5095 
L 262.277384 26.88 
" style="fill:none;stroke:#b0b0b0;stroke-dasharray:2.96,1.28;stroke-dashoffset:0;stroke-opacity:0.5;stroke-width:0.8;"/>
     </g>
     <g id="line2d_8">
      <g>
       <use style="stroke:#000000;stroke-width:0.8;" x="262.277384" xlink:href="#mfef08d6215" y="366.5095"/>
      </g>
     </g>
     <g id="text_4">
      <text style="font-family:DejaVu Sans;font-size:10px;font-stretch:normal;font-style:normal;font-weight:normal;text-anchor:middle;" transform="rotate(-0, 262.277384, 381.107937)" x="262.277384" y="381.107937">3000</text>
     </g>
    </g>
    <g id="xtick_5">
     <g id="line2d_9">
      <path clip-path="url(#p6507cc6921)" d="M 331.526816 366.5095 
L 331.526816 26.88 
" style="fill:none;stroke:#b0b0b0;stroke-dasharray:2.96,1.28;stroke-dashoffset:0;stroke-opacity:0.5;stroke-width:0.8;"/>
     </g>
     <g id="line2d_10">
      <g>
       <use style="stroke:#000000;stroke-width:0.8;" x="331.526816" xlink:href="#mfef08d6215" y="366.5095"/>
      </g>
     </g>
     <g id="text_5">
      <text style="font-family:DejaVu Sans;font-size:10px;font-stretch:normal;font-style:normal;font-weight:normal;text-anchor:middle;" transform="rotate(-0, 331.526816, 381.107937)" x="331.526816" y="381.107937">4000</text>
     </g>
    </g>
    <g id="xtick_6">
     <g id="line2d_11">
      <path clip-path="url(#p6507cc6921)" d="M 400.776247 366.5095 
L 400.776247 26.88 
" style="fill:none;stroke:#b0b0b0;stroke-dasharray:2.96,1.28;stroke-dashoffset:0;stroke-opacity:0.5;stroke-width:0.8;"/>
     </g>
     <g id="line2d_12">
      <g>
       <use style="stroke:#000000;stroke-width:0.8;" x="400.776247" xlink:href="#mfef08d6215" y="366.5095"/>
      </g>
     </g>
     <g id="text_6">
      <text style="font-family:DejaVu Sans;font-size:10px;font-stretch:normal;font-style:normal;font-weight:normal;text-anchor:middle;" transform="rotate(-0, 400.776247, 381.107937)" x="400.776247" y="381.107937">5000</text>
     </g>
    </g>
    <g id="xtick_7">
     <g id="line2d_13">
      <path clip-path="url(#p6507cc6921)" d="M 470.025678 366.5095 
L 470.025678 26.88 
" style="fill:none;stroke:#b0b0b0;stroke-dasharray:2.96,1.28;stroke-dashoffset:0;stroke-opacity:0.5;stroke-width:0.8;"/>
     </g>
     <g id="line2d_14">
      <g>
       <use style="stroke:#000000;stroke-width:0.8;" x="470.025678" xlink:href="#mfef08d6215" y="366.5095"/>
      </g>
     </g>
     <g id="text_7">
      <text style="font-family:DejaVu Sans;font-size:10px;font-stretch:normal;font-style:normal;font-weight:normal;text-anchor:middle;" transform="rotate(-0, 470.025678, 381.107937)" x="470.025678" y="381.107937">6000</text>
     </g>
    </g>
    <g id="text_8">
     <text style="font-family:DejaVu Sans;font-size:10px;font-stretch:normal;font-style:normal;font-weight:normal;" transform="translate(241.511406 394.786063)">timeline </text>
     <text style="font-family:DejaVu Sans;font-size:10px;font-stretch:normal;font-style:normal;font-weight:normal;" transform="translate(170.420781 405.983875)">    dataset: clin_factors, input_dim: 0 </text>
     <text style="font-family:DejaVu Sans;font-size:10px;font-stretch:normal;font-style:normal;font-weight:normal;" transform="translate(184.83875 417.459812)">    c_index: [0.632 0.615 0.647]</text>
    </g>
   </g>
   <g id="matplotlib.axis_2">
    <g id="ytick_1">
     <g id="line2d_15">
      <path clip-path="url(#p6507cc6921)" d="M 33.64 356.380777 
L 493.2 356.380777 
" style="fill:none;stroke:#b0b0b0;stroke-dasharray:2.96,1.28;stroke-dashoffset:0;stroke-opacity:0.5;stroke-width:0.8;"/>
     </g>
     <g id="line2d_16">
      <defs>
       <path d="M 0 0 
L -3.5 0 
" id="m56af79bfa9" style="stroke:#000000;stroke-width:0.8;"/>
      </defs>
      <g>
       <use style="stroke:#000000;stroke-width:0.8;" x="33.64" xlink:href="#m56af79bfa9" y="356.380777"/>
      </g>
     </g>
     <g id="text_9">
      <text style="font-family:DejaVu Sans;font-size:10px;font-stretch:normal;font-style:normal;font-weight:normal;text-anchor:end;" transform="rotate(-0, 26.64, 360.179996)" x="26.64" y="360.179996">0.0</text>
     </g>
    </g>
    <g id="ytick_2">
     <g id="line2d_17">
      <path clip-path="url(#p6507cc6921)" d="M 33.64 293.568163 
L 493.2 293.568163 
" style="fill:none;stroke:#b0b0b0;stroke-dasharray:2.96,1.28;stroke-dashoffset:0;stroke-opacity:0.5;stroke-width:0.8;"/>
     </g>
     <g id="line2d_18">
      <g>
       <use style="stroke:#000000;stroke-width:0.8;" x="33.64" xlink:href="#m56af79bfa9" y="293.568163"/>
      </g>
     </g>
     <g id="text_10">
      <text style="font-family:DejaVu Sans;font-size:10px;font-stretch:normal;font-style:normal;font-weight:normal;text-anchor:end;" transform="rotate(-0, 26.64, 297.367382)" x="26.64" y="297.367382">0.2</text>
     </g>
    </g>
    <g id="ytick_3">
     <g id="line2d_19">
      <path clip-path="url(#p6507cc6921)" d="M 33.64 230.755548 
L 493.2 230.755548 
" style="fill:none;stroke:#b0b0b0;stroke-dasharray:2.96,1.28;stroke-dashoffset:0;stroke-opacity:0.5;stroke-width:0.8;"/>
     </g>
     <g id="line2d_20">
      <g>
       <use style="stroke:#000000;stroke-width:0.8;" x="33.64" xlink:href="#m56af79bfa9" y="230.755548"/>
      </g>
     </g>
     <g id="text_11">
      <text style="font-family:DejaVu Sans;font-size:10px;font-stretch:normal;font-style:normal;font-weight:normal;text-anchor:end;" transform="rotate(-0, 26.64, 234.554767)" x="26.64" y="234.554767">0.4</text>
     </g>
    </g>
    <g id="ytick_4">
     <g id="line2d_21">
      <path clip-path="url(#p6507cc6921)" d="M 33.64 167.942934 
L 493.2 167.942934 
" style="fill:none;stroke:#b0b0b0;stroke-dasharray:2.96,1.28;stroke-dashoffset:0;stroke-opacity:0.5;stroke-width:0.8;"/>
     </g>
     <g id="line2d_22">
      <g>
       <use style="stroke:#000000;stroke-width:0.8;" x="33.64" xlink:href="#m56af79bfa9" y="167.942934"/>
      </g>
     </g>
     <g id="text_12">
      <text style="font-family:DejaVu Sans;font-size:10px;font-stretch:normal;font-style:normal;font-weight:normal;text-anchor:end;" transform="rotate(-0, 26.64, 171.742152)" x="26.64" y="171.742152">0.6</text>
     </g>
    </g>
    <g id="ytick_5">
     <g id="line2d_23">
      <path clip-path="url(#p6507cc6921)" d="M 33.64 105.130319 
L 493.2 105.130319 
" style="fill:none;stroke:#b0b0b0;stroke-dasharray:2.96,1.28;stroke-dashoffset:0;stroke-opacity:0.5;stroke-width:0.8;"/>
     </g>
     <g id="line2d_24">
      <g>
       <use style="stroke:#000000;stroke-width:0.8;" x="33.64" xlink:href="#m56af79bfa9" y="105.130319"/>
      </g>
     </g>
     <g id="text_13">
      <text style="font-family:DejaVu Sans;font-size:10px;font-stretch:normal;font-style:normal;font-weight:normal;text-anchor:end;" transform="rotate(-0, 26.64, 108.929538)" x="26.64" y="108.929538">0.8</text>
     </g>
    </g>
    <g id="ytick_6">
     <g id="line2d_25">
      <path clip-path="url(#p6507cc6921)" d="M 33.64 42.317705 
L 493.2 42.317705 
" style="fill:none;stroke:#b0b0b0;stroke-dasharray:2.96,1.28;stroke-dashoffset:0;stroke-opacity:0.5;stroke-width:0.8;"/>
     </g>
     <g id="line2d_26">
      <g>
       <use style="stroke:#000000;stroke-width:0.8;" x="33.64" xlink:href="#m56af79bfa9" y="42.317705"/>
      </g>
     </g>
     <g id="text_14">
      <text style="font-family:DejaVu Sans;font-size:10px;font-stretch:normal;font-style:normal;font-weight:normal;text-anchor:end;" transform="rotate(-0, 26.64, 46.116923)" x="26.64" y="46.116923">1.0</text>
     </g>
    </g>
   </g>
   <g id="line2d_27">
    <defs>
     <path d="M -3 3 
L 3 -3 
M -3 -3 
L 3 3 
" id="m0ba05248ef" style="stroke:#ff0000;"/>
    </defs>
    <g clip-path="url(#p6507cc6921)">
     <use style="fill:#ff0000;stroke:#ff0000;" x="59.861297" xlink:href="#m0ba05248ef" y="106.740899"/>
     <use style="fill:#ff0000;stroke:#ff0000;" x="359.503586" xlink:href="#m0ba05248ef" y="340.010949"/>
     <use style="fill:#ff0000;stroke:#ff0000;" x="374.738461" xlink:href="#m0ba05248ef" y="340.010949"/>
     <use style="fill:#ff0000;stroke:#ff0000;" x="380.693912" xlink:href="#m0ba05248ef" y="340.010949"/>
     <use style="fill:#ff0000;stroke:#ff0000;" x="464.347225" xlink:href="#m0ba05248ef" y="340.010949"/>
    </g>
   </g>
   <g id="line2d_28">
    <path clip-path="url(#p6507cc6921)" d="M 54.529091 42.317705 
L 55.360084 42.317705 
L 55.429334 50.370604 
L 55.567832 50.370604 
L 55.567832 54.397054 
L 55.775581 54.397054 
L 55.775581 58.423503 
L 55.91408 58.423503 
L 55.91408 62.449953 
L 56.398826 62.449953 
L 56.398826 66.476402 
L 56.537324 66.476402 
L 56.537324 70.502852 
L 56.952821 70.502852 
L 57.02207 86.608651 
L 57.783814 86.608651 
L 57.783814 90.6351 
L 58.060812 90.6351 
L 58.060812 94.66155 
L 58.822556 94.66155 
L 58.822556 98.688 
L 59.722798 98.688 
L 59.722798 102.714449 
L 59.861297 102.714449 
L 59.861297 106.740899 
L 60.138295 106.740899 
L 60.138295 114.925813 
L 60.276794 114.925813 
L 60.276794 119.01827 
L 60.415293 119.01827 
L 60.415293 123.110727 
L 60.553791 123.110727 
L 60.553791 127.203184 
L 60.830789 127.203184 
L 60.830789 131.295641 
L 60.969288 131.295641 
L 60.969288 135.388098 
L 61.523283 135.388098 
L 61.592533 143.573012 
L 62.008029 143.573012 
L 62.008029 147.665469 
L 62.215778 147.665469 
L 62.215778 151.757926 
L 63.323769 151.757926 
L 63.323769 155.850383 
L 63.462268 155.850383 
L 63.462268 159.94284 
L 63.739265 159.94284 
L 63.739265 164.035297 
L 63.947014 164.035297 
L 63.947014 168.127754 
L 64.570258 168.127754 
L 64.570258 172.220211 
L 64.708757 172.220211 
L 64.708757 176.312668 
L 64.916506 176.312668 
L 64.916506 180.405125 
L 65.055004 180.405125 
L 65.055004 184.497582 
L 65.678249 184.497582 
L 65.678249 188.590039 
L 66.162995 188.590039 
L 66.162995 192.682496 
L 66.439993 192.682496 
L 66.439993 196.774954 
L 69.763966 196.774954 
L 69.833215 204.959868 
L 70.733458 204.959868 
L 70.733458 209.052325 
L 70.941206 209.052325 
L 70.941206 213.144782 
L 71.979948 213.144782 
L 72.049197 221.329696 
L 72.187696 221.329696 
L 72.187696 225.422153 
L 72.810941 225.422153 
L 72.810941 229.51461 
L 74.195929 229.51461 
L 74.195929 233.607067 
L 75.026923 233.607067 
L 75.096172 241.791981 
L 75.30392 241.791981 
L 75.30392 245.884438 
L 75.442419 245.884438 
L 75.442419 254.069352 
L 75.996415 254.069352 
L 75.996415 258.161809 
L 76.55041 258.161809 
L 76.55041 262.254266 
L 78.143147 262.254266 
L 78.143147 266.346723 
L 79.320387 266.346723 
L 79.320387 270.43918 
L 80.22063 270.43918 
L 80.22063 274.531637 
L 84.029349 274.531637 
L 84.029349 278.624094 
L 85.206589 278.624094 
L 85.206589 282.716551 
L 88.599811 282.716551 
L 88.599811 286.809008 
L 89.777051 286.809008 
L 89.777051 290.901465 
L 99.194974 290.901465 
L 99.194974 294.993922 
L 101.618704 294.993922 
L 101.687954 303.178836 
L 103.488439 303.178836 
L 103.488439 307.271293 
L 104.52718 307.271293 
L 104.52718 311.36375 
L 110.274883 311.36375 
L 110.274883 315.456207 
L 130.772715 315.456207 
L 130.772715 319.548664 
L 150.231805 319.548664 
L 150.231805 323.641121 
L 168.305906 323.641121 
L 168.305906 327.733578 
L 204.800357 327.733578 
L 204.800357 331.826035 
L 218.165497 331.826035 
L 218.165497 335.918492 
L 347.800432 335.918492 
L 347.800432 340.010949 
L 464.347225 340.010949 
L 464.347225 340.010949 
" style="fill:none;stroke:#ff0000;stroke-linecap:square;stroke-width:1.5;"/>
   </g>
   <g id="line2d_29">
    <defs>
     <path d="M -3 3 
L 3 -3 
M -3 -3 
L 3 3 
" id="m2eed262e11" style="stroke:#0000ff;"/>
    </defs>
    <g clip-path="url(#p6507cc6921)">
     <use style="fill:#0000ff;stroke:#0000ff;" x="184.579523" xlink:href="#m2eed262e11" y="126.067857"/>
     <use style="fill:#0000ff;stroke:#0000ff;" x="187.834246" xlink:href="#m2eed262e11" y="126.067857"/>
     <use style="fill:#0000ff;stroke:#0000ff;" x="193.651198" xlink:href="#m2eed262e11" y="126.067857"/>
     <use style="fill:#0000ff;stroke:#0000ff;" x="208.678325" xlink:href="#m2eed262e11" y="126.067857"/>
     <use style="fill:#0000ff;stroke:#0000ff;" x="218.373245" xlink:href="#m2eed262e11" y="134.009682"/>
     <use style="fill:#0000ff;stroke:#0000ff;" x="224.259447" xlink:href="#m2eed262e11" y="134.009682"/>
     <use style="fill:#0000ff;stroke:#0000ff;" x="226.26768" xlink:href="#m2eed262e11" y="134.009682"/>
     <use style="fill:#0000ff;stroke:#0000ff;" x="235.685603" xlink:href="#m2eed262e11" y="134.009682"/>
     <use style="fill:#0000ff;stroke:#0000ff;" x="245.519022" xlink:href="#m2eed262e11" y="134.009682"/>
     <use style="fill:#0000ff;stroke:#0000ff;" x="253.759704" xlink:href="#m2eed262e11" y="134.009682"/>
     <use style="fill:#0000ff;stroke:#0000ff;" x="263.177627" xlink:href="#m2eed262e11" y="134.009682"/>
     <use style="fill:#0000ff;stroke:#0000ff;" x="270.10257" xlink:href="#m2eed262e11" y="134.009682"/>
     <use style="fill:#0000ff;stroke:#0000ff;" x="280.697733" xlink:href="#m2eed262e11" y="134.009682"/>
     <use style="fill:#0000ff;stroke:#0000ff;" x="284.160205" xlink:href="#m2eed262e11" y="134.009682"/>
     <use style="fill:#0000ff;stroke:#0000ff;" x="316.638188" xlink:href="#m2eed262e11" y="134.009682"/>
     <use style="fill:#0000ff;stroke:#0000ff;" x="322.039643" xlink:href="#m2eed262e11" y="134.009682"/>
     <use style="fill:#0000ff;stroke:#0000ff;" x="330.765072" xlink:href="#m2eed262e11" y="134.009682"/>
     <use style="fill:#0000ff;stroke:#0000ff;" x="338.31326" xlink:href="#m2eed262e11" y="134.009682"/>
     <use style="fill:#0000ff;stroke:#0000ff;" x="344.060963" xlink:href="#m2eed262e11" y="134.009682"/>
     <use style="fill:#0000ff;stroke:#0000ff;" x="357.910849" xlink:href="#m2eed262e11" y="134.009682"/>
     <use style="fill:#0000ff;stroke:#0000ff;" x="383.256141" xlink:href="#m2eed262e11" y="134.009682"/>
     <use style="fill:#0000ff;stroke:#0000ff;" x="388.726846" xlink:href="#m2eed262e11" y="134.009682"/>
     <use style="fill:#0000ff;stroke:#0000ff;" x="389.904086" xlink:href="#m2eed262e11" y="134.009682"/>
     <use style="fill:#0000ff;stroke:#0000ff;" x="398.491015" xlink:href="#m2eed262e11" y="134.009682"/>
     <use style="fill:#0000ff;stroke:#0000ff;" x="408.393684" xlink:href="#m2eed262e11" y="134.009682"/>
     <use style="fill:#0000ff;stroke:#0000ff;" x="425.221296" xlink:href="#m2eed262e11" y="134.009682"/>
     <use style="fill:#0000ff;stroke:#0000ff;" x="432.907983" xlink:href="#m2eed262e11" y="134.009682"/>
     <use style="fill:#0000ff;stroke:#0000ff;" x="441.356413" xlink:href="#m2eed262e11" y="134.009682"/>
     <use style="fill:#0000ff;stroke:#0000ff;" x="455.483297" xlink:href="#m2eed262e11" y="134.009682"/>
     <use style="fill:#0000ff;stroke:#0000ff;" x="458.184025" xlink:href="#m2eed262e11" y="134.009682"/>
     <use style="fill:#0000ff;stroke:#0000ff;" x="459.499764" xlink:href="#m2eed262e11" y="134.009682"/>
    </g>
   </g>
   <g id="line2d_30">
    <path clip-path="url(#p6507cc6921)" d="M 54.529091 42.317705 
L 55.360084 42.317705 
L 55.360084 49.296884 
L 56.329576 49.296884 
L 56.329576 56.276063 
L 59.51505 56.276063 
L 59.51505 63.255243 
L 61.731032 63.255243 
L 61.731032 70.234422 
L 75.580918 70.234422 
L 75.580918 77.213602 
L 76.827408 77.213602 
L 76.827408 84.192781 
L 86.31458 84.192781 
L 86.31458 91.17196 
L 88.045816 91.17196 
L 88.045816 98.15114 
L 89.084557 98.15114 
L 89.084557 105.130319 
L 95.524754 105.130319 
L 95.524754 112.109499 
L 106.812411 112.109499 
L 106.812411 119.088678 
L 122.462783 119.088678 
L 122.462783 126.067857 
L 184.579523 126.067857 
L 184.579523 126.067857 
L 187.834246 126.067857 
L 187.834246 126.067857 
L 193.651198 126.067857 
L 193.651198 126.067857 
L 208.678325 126.067857 
L 208.678325 126.067857 
L 218.026998 126.067857 
L 218.026998 134.009682 
L 218.373245 134.009682 
L 218.373245 134.009682 
L 224.259447 134.009682 
L 224.259447 134.009682 
L 226.26768 134.009682 
L 226.26768 134.009682 
L 235.685603 134.009682 
L 235.685603 134.009682 
L 245.519022 134.009682 
L 245.519022 134.009682 
L 253.759704 134.009682 
L 253.759704 134.009682 
L 263.177627 134.009682 
L 263.177627 134.009682 
L 270.10257 134.009682 
L 270.10257 134.009682 
L 280.697733 134.009682 
L 280.697733 134.009682 
L 284.160205 134.009682 
L 284.160205 134.009682 
L 316.638188 134.009682 
L 316.638188 134.009682 
L 322.039643 134.009682 
L 322.039643 134.009682 
L 330.765072 134.009682 
L 330.765072 134.009682 
L 338.31326 134.009682 
L 338.31326 134.009682 
L 344.060963 134.009682 
L 344.060963 134.009682 
L 357.910849 134.009682 
L 357.910849 134.009682 
L 383.256141 134.009682 
L 383.256141 134.009682 
L 388.726846 134.009682 
L 388.726846 134.009682 
L 389.904086 134.009682 
L 389.904086 134.009682 
L 398.491015 134.009682 
L 398.491015 134.009682 
L 408.393684 134.009682 
L 408.393684 134.009682 
L 425.221296 134.009682 
L 425.221296 134.009682 
L 432.907983 134.009682 
L 432.907983 134.009682 
L 441.356413 134.009682 
L 441.356413 134.009682 
L 455.483297 134.009682 
L 455.483297 134.009682 
L 458.184025 134.009682 
L 458.184025 134.009682 
L 459.499764 134.009682 
L 459.499764 134.009682 
" style="fill:none;stroke:#0000ff;stroke-linecap:square;stroke-width:1.5;"/>
   </g>
   <g id="line2d_31">
    <defs>
     <path d="M -3 3 
L 3 -3 
M -3 -3 
L 3 3 
" id="md49d8bce6e" style="stroke:#808080;"/>
    </defs>
    <g clip-path="url(#p6507cc6921)">
     <use style="fill:#808080;stroke:#808080;" x="95.386255" xlink:href="#md49d8bce6e" y="225.077572"/>
     <use style="fill:#808080;stroke:#808080;" x="182.709788" xlink:href="#md49d8bce6e" y="268.245749"/>
     <use style="fill:#808080;stroke:#808080;" x="187.3495" xlink:href="#md49d8bce6e" y="268.245749"/>
     <use style="fill:#808080;stroke:#808080;" x="189.703981" xlink:href="#md49d8bce6e" y="270.120962"/>
     <use style="fill:#808080;stroke:#808080;" x="191.850713" xlink:href="#md49d8bce6e" y="270.120962"/>
     <use style="fill:#808080;stroke:#808080;" x="198.983404" xlink:href="#md49d8bce6e" y="272.081413"/>
     <use style="fill:#808080;stroke:#808080;" x="206.254595" xlink:href="#md49d8bce6e" y="272.081413"/>
     <use style="fill:#808080;stroke:#808080;" x="208.262828" xlink:href="#md49d8bce6e" y="274.137495"/>
     <use style="fill:#808080;stroke:#808080;" x="227.444921" xlink:href="#md49d8bce6e" y="280.463901"/>
     <use style="fill:#808080;stroke:#808080;" x="232.153882" xlink:href="#md49d8bce6e" y="280.463901"/>
     <use style="fill:#808080;stroke:#808080;" x="237.001342" xlink:href="#md49d8bce6e" y="280.463901"/>
     <use style="fill:#808080;stroke:#808080;" x="237.901585" xlink:href="#md49d8bce6e" y="280.463901"/>
     <use style="fill:#808080;stroke:#808080;" x="241.156308" xlink:href="#md49d8bce6e" y="280.463901"/>
     <use style="fill:#808080;stroke:#808080;" x="248.704496" xlink:href="#md49d8bce6e" y="280.463901"/>
     <use style="fill:#808080;stroke:#808080;" x="252.859462" xlink:href="#md49d8bce6e" y="282.994464"/>
     <use style="fill:#808080;stroke:#808080;" x="261.377142" xlink:href="#md49d8bce6e" y="285.615403"/>
     <use style="fill:#808080;stroke:#808080;" x="266.43235" xlink:href="#md49d8bce6e" y="288.337149"/>
     <use style="fill:#808080;stroke:#808080;" x="269.133078" xlink:href="#md49d8bce6e" y="288.337149"/>
     <use style="fill:#808080;stroke:#808080;" x="280.420735" xlink:href="#md49d8bce6e" y="288.337149"/>
     <use style="fill:#808080;stroke:#808080;" x="289.838658" xlink:href="#md49d8bce6e" y="288.337149"/>
     <use style="fill:#808080;stroke:#808080;" x="295.586361" xlink:href="#md49d8bce6e" y="288.337149"/>
     <use style="fill:#808080;stroke:#808080;" x="302.234306" xlink:href="#md49d8bce6e" y="288.337149"/>
     <use style="fill:#808080;stroke:#808080;" x="322.385891" xlink:href="#md49d8bce6e" y="288.337149"/>
     <use style="fill:#808080;stroke:#808080;" x="330.626573" xlink:href="#md49d8bce6e" y="288.337149"/>
     <use style="fill:#808080;stroke:#808080;" x="333.535049" xlink:href="#md49d8bce6e" y="288.337149"/>
     <use style="fill:#808080;stroke:#808080;" x="333.673548" xlink:href="#md49d8bce6e" y="288.337149"/>
     <use style="fill:#808080;stroke:#808080;" x="333.812047" xlink:href="#md49d8bce6e" y="288.337149"/>
     <use style="fill:#808080;stroke:#808080;" x="333.881296" xlink:href="#md49d8bce6e" y="288.337149"/>
     <use style="fill:#808080;stroke:#808080;" x="351.609151" xlink:href="#md49d8bce6e" y="288.337149"/>
     <use style="fill:#808080;stroke:#808080;" x="356.52586" xlink:href="#md49d8bce6e" y="288.337149"/>
     <use style="fill:#808080;stroke:#808080;" x="370.652744" xlink:href="#md49d8bce6e" y="288.337149"/>
     <use style="fill:#808080;stroke:#808080;" x="376.746694" xlink:href="#md49d8bce6e" y="288.337149"/>
     <use style="fill:#808080;stroke:#808080;" x="391.566072" xlink:href="#md49d8bce6e" y="296.842602"/>
     <use style="fill:#808080;stroke:#808080;" x="392.604814" xlink:href="#md49d8bce6e" y="296.842602"/>
     <use style="fill:#808080;stroke:#808080;" x="393.505056" xlink:href="#md49d8bce6e" y="296.842602"/>
     <use style="fill:#808080;stroke:#808080;" x="405.069711" xlink:href="#md49d8bce6e" y="296.842602"/>
     <use style="fill:#808080;stroke:#808080;" x="445.926876" xlink:href="#md49d8bce6e" y="296.842602"/>
     <use style="fill:#808080;stroke:#808080;" x="463.931728" xlink:href="#md49d8bce6e" y="296.842602"/>
     <use style="fill:#808080;stroke:#808080;" x="472.310909" xlink:href="#md49d8bce6e" y="296.842602"/>
    </g>
   </g>
   <g id="line2d_32">
    <path clip-path="url(#p6507cc6921)" d="M 54.529091 42.317705 
L 55.083086 42.317705 
L 55.152336 45.86644 
L 55.290835 45.86644 
L 55.360084 51.189543 
L 55.498583 51.189543 
L 55.498583 52.96391 
L 55.983329 52.96391 
L 56.052578 61.835749 
L 56.191077 61.835749 
L 56.191077 63.610116 
L 56.398826 63.610116 
L 56.398826 65.384484 
L 56.606574 65.384484 
L 56.606574 67.158852 
L 56.883572 67.158852 
L 56.883572 68.933219 
L 57.09132 68.933219 
L 57.09132 70.707587 
L 58.33781 70.707587 
L 58.33781 72.481954 
L 59.030304 72.481954 
L 59.030304 74.256322 
L 59.307302 74.256322 
L 59.307302 76.03069 
L 59.584299 76.03069 
L 59.584299 77.805057 
L 59.722798 77.805057 
L 59.722798 79.579425 
L 60.623041 79.579425 
L 60.623041 81.353793 
L 61.246286 81.353793 
L 61.246286 83.12816 
L 61.592533 83.12816 
L 61.592533 84.902528 
L 62.146528 84.902528 
L 62.215778 88.451263 
L 62.285027 88.451263 
L 62.285027 90.225631 
L 62.839023 90.225631 
L 62.839023 91.999999 
L 63.046771 91.999999 
L 63.046771 93.774366 
L 63.877764 93.774366 
L 63.877764 97.323101 
L 64.016263 97.323101 
L 64.085512 100.871837 
L 64.43176 100.871837 
L 64.43176 102.646204 
L 64.778007 102.646204 
L 64.778007 106.19494 
L 64.916506 106.19494 
L 64.916506 107.969307 
L 65.055004 107.969307 
L 65.055004 109.743675 
L 65.193503 109.743675 
L 65.193503 111.518043 
L 65.470501 111.518043 
L 65.470501 113.29241 
L 65.816748 113.29241 
L 65.816748 115.066778 
L 65.955247 115.066778 
L 65.955247 116.841146 
L 66.093746 116.841146 
L 66.093746 118.615513 
L 66.647741 118.615513 
L 66.716991 122.164248 
L 67.409485 122.164248 
L 67.409485 123.938616 
L 67.617233 123.938616 
L 67.617233 125.712984 
L 68.309728 125.712984 
L 68.309728 129.261719 
L 68.863723 129.261719 
L 68.932973 136.35919 
L 69.071471 136.35919 
L 69.071471 138.133557 
L 69.27922 138.133557 
L 69.27922 141.682293 
L 70.802707 141.682293 
L 70.871957 145.231028 
L 71.010456 145.231028 
L 71.010456 148.779763 
L 71.218204 148.779763 
L 71.218204 152.328498 
L 71.356703 152.328498 
L 71.356703 154.102866 
L 71.495202 154.102866 
L 71.495202 155.877234 
L 71.772199 155.877234 
L 71.772199 157.651601 
L 71.910698 157.651601 
L 71.910698 159.425969 
L 72.741691 159.425969 
L 72.741691 161.200337 
L 73.018689 161.200337 
L 73.018689 162.974704 
L 73.572684 162.974704 
L 73.572684 164.749072 
L 74.334428 164.749072 
L 74.334428 166.52344 
L 74.680675 166.52344 
L 74.680675 168.297807 
L 75.026923 168.297807 
L 75.026923 170.072175 
L 75.30392 170.072175 
L 75.30392 171.846543 
L 75.788666 171.846543 
L 75.788666 173.62091 
L 75.996415 173.62091 
L 75.996415 177.169645 
L 76.55041 177.169645 
L 76.55041 180.718381 
L 76.758158 180.718381 
L 76.758158 182.492748 
L 77.242904 182.492748 
L 77.242904 186.041484 
L 77.935399 186.041484 
L 77.935399 187.815851 
L 79.251138 187.815851 
L 79.251138 189.590219 
L 79.528136 189.590219 
L 79.528136 191.364587 
L 79.735884 191.364587 
L 79.735884 193.138954 
L 80.082131 193.138954 
L 80.082131 194.913322 
L 81.813367 194.913322 
L 81.813367 196.68769 
L 82.021115 196.68769 
L 82.090365 200.236425 
L 82.228863 200.236425 
L 82.228863 202.010792 
L 82.436612 202.010792 
L 82.436612 203.78516 
L 84.514095 203.78516 
L 84.514095 205.559528 
L 85.137339 205.559528 
L 85.137339 207.333895 
L 85.414337 207.333895 
L 85.414337 209.108263 
L 85.552836 209.108263 
L 85.552836 210.882631 
L 88.045816 210.882631 
L 88.045816 212.656998 
L 88.322813 212.656998 
L 88.392063 216.205734 
L 88.599811 216.205734 
L 88.66906 219.754469 
L 90.469546 219.754469 
L 90.538795 223.303204 
L 91.508287 223.303204 
L 91.508287 225.077572 
L 96.217248 225.077572 
L 96.217248 226.876246 
L 98.779477 226.876246 
L 98.779477 228.67492 
L 100.233715 228.67492 
L 100.233715 230.473594 
L 101.826452 230.473594 
L 101.826452 232.272268 
L 108.128151 232.272268 
L 108.128151 234.070942 
L 110.69038 234.070942 
L 110.69038 235.869616 
L 111.86762 235.869616 
L 111.86762 237.66829 
L 112.629364 237.66829 
L 112.629364 239.466964 
L 112.767863 239.466964 
L 112.767863 241.265638 
L 113.183359 241.265638 
L 113.183359 243.064312 
L 114.152851 243.064312 
L 114.152851 244.862986 
L 116.645831 244.862986 
L 116.645831 246.66166 
L 118.654064 246.66166 
L 118.654064 248.460334 
L 121.008545 248.460334 
L 121.008545 250.259009 
L 129.803223 250.259009 
L 129.803223 252.057683 
L 131.118962 252.057683 
L 131.118962 253.856357 
L 137.351411 253.856357 
L 137.351411 255.655031 
L 138.5979 255.655031 
L 138.5979 257.453705 
L 151.201297 257.453705 
L 151.201297 259.252379 
L 156.118006 259.252379 
L 156.118006 261.051053 
L 162.9737 261.051053 
L 162.9737 262.849727 
L 165.743677 262.849727 
L 165.743677 264.648401 
L 179.108818 264.648401 
L 179.108818 266.447075 
L 181.463298 266.447075 
L 181.463298 268.245749 
L 187.557248 268.245749 
L 187.557248 270.120962 
L 198.221661 270.120962 
L 198.221661 272.081413 
L 207.362585 272.081413 
L 207.362585 274.137495 
L 209.024572 274.137495 
L 209.024572 276.246297 
L 209.509318 276.246297 
L 209.509318 278.355099 
L 215.257021 278.355099 
L 215.257021 280.463901 
L 249.46624 280.463901 
L 249.46624 282.994464 
L 258.122419 282.994464 
L 258.122419 285.615403 
L 265.878355 285.615403 
L 265.878355 288.337149 
L 377.716186 288.337149 
L 377.716186 296.842602 
L 472.310909 296.842602 
L 472.310909 296.842602 
" style="fill:none;stroke:#808080;stroke-linecap:square;stroke-width:1.5;"/>
   </g>
   <g id="patch_3">
    <path d="M 33.64 366.5095 
L 33.64 26.88 
" style="fill:none;stroke:#000000;stroke-linecap:square;stroke-linejoin:miter;stroke-width:0.8;"/>
   </g>
   <g id="patch_4">
    <path d="M 493.2 366.5095 
L 493.2 26.88 
" style="fill:none;stroke:#000000;stroke-linecap:square;stroke-linejoin:miter;stroke-width:0.8;"/>
   </g>
   <g id="patch_5">
    <path d="M 33.64 366.5095 
L 493.2 366.5095 
" style="fill:none;stroke:#000000;stroke-linecap:square;stroke-linejoin:miter;stroke-width:0.8;"/>
   </g>
   <g id="patch_6">
    <path d="M 33.64 26.88 
L 493.2 26.88 
" style="fill:none;stroke:#000000;stroke-linecap:square;stroke-linejoin:miter;stroke-width:0.8;"/>
   </g>
   <g id="text_15">
    <text style="font-family:DejaVu Sans;font-size:12px;font-stretch:normal;font-style:normal;font-weight:normal;text-anchor:middle;" transform="rotate(-0, 263.42, 20.88)" x="263.42" y="20.88">Survival curves - model_type: cytogenetic_risk</text>
   </g>
   <g id="legend_1">
    <g id="patch_7">
     <path d="M 349.195312 78.914375 
L 486.2 78.914375 
Q 488.2 78.914375 488.2 76.914375 
L 488.2 33.88 
Q 488.2 31.88 486.2 31.88 
L 349.195312 31.88 
Q 347.195312 31.88 347.195312 33.88 
L 347.195312 76.914375 
Q 347.195312 78.914375 349.195312 78.914375 
z
" style="fill:#ffffff;opacity:0.8;stroke:#cccccc;stroke-linejoin:miter;"/>
    </g>
    <g id="line2d_33">
     <path d="M 351.195312 39.978437 
L 371.195312 39.978437 
" style="fill:none;stroke:#ff0000;stroke-linecap:square;stroke-width:1.5;"/>
    </g>
    <g id="line2d_34"/>
    <g id="text_16">
     <text style="font-family:DejaVu Sans;font-size:10px;font-stretch:normal;font-style:normal;font-weight:normal;text-anchor:start;" transform="rotate(-0, 379.195312, 43.478437)" x="379.195312" y="43.478437">adv. risk (n:78 c:5 )</text>
    </g>
    <g id="line2d_35">
     <path d="M 351.195312 54.656563 
L 371.195312 54.656563 
" style="fill:none;stroke:#0000ff;stroke-linecap:square;stroke-width:1.5;"/>
    </g>
    <g id="line2d_36"/>
    <g id="text_17">
     <text style="font-family:DejaVu Sans;font-size:10px;font-stretch:normal;font-style:normal;font-weight:normal;text-anchor:start;" transform="rotate(-0, 379.195312, 58.156563)" x="379.195312" y="58.156563">fav. risk (n:45 c:32)</text>
    </g>
    <g id="line2d_37">
     <path d="M 351.195312 69.334687 
L 371.195312 69.334687 
" style="fill:none;stroke:#808080;stroke-linecap:square;stroke-width:1.5;"/>
    </g>
    <g id="line2d_38"/>
    <g id="text_18">
     <text style="font-family:DejaVu Sans;font-size:10px;font-stretch:normal;font-style:normal;font-weight:normal;text-anchor:start;" transform="rotate(-0, 379.195312, 72.834687)" x="379.195312" y="72.834687">int. risk (n:177 c:40 )</text>
    </g>
   </g>
  </g>
 </g>
 <defs>
  <clipPath id="p6507cc6921">
   <rect height="339.6295" width="459.56" x="33.64" y="26.88"/>
  </clipPath>
 </defs>
</svg>
