<?xml version="1.0" encoding="utf-8" standalone="no"?>
<!DOCTYPE svg PUBLIC "-//W3C//DTD SVG 1.1//EN"
  "http://www.w3.org/Graphics/SVG/1.1/DTD/svg11.dtd">
<!-- Created with matplotlib (https://matplotlib.org/) -->
<svg height="432pt" version="1.1" viewBox="0 0 504 432" width="504pt" xmlns="http://www.w3.org/2000/svg" xmlns:xlink="http://www.w3.org/1999/xlink">
 <metadata>
  <rdf:RDF xmlns:cc="http://creativecommons.org/ns#" xmlns:dc="http://purl.org/dc/elements/1.1/" xmlns:rdf="http://www.w3.org/1999/02/22-rdf-syntax-ns#">
   <cc:Work>
    <dc:type rdf:resource="http://purl.org/dc/dcmitype/StillImage"/>
    <dc:date>2022-11-15T14:32:00.398443</dc:date>
    <dc:format>image/svg+xml</dc:format>
    <dc:creator>
     <cc:Agent>
      <dc:title>Matplotlib v3.3.4, https://matplotlib.org/</dc:title>
     </cc:Agent>
    </dc:creator>
   </cc:Work>
  </rdf:RDF>
 </metadata>
 <defs>
  <style type="text/css">*{stroke-linecap:butt;stroke-linejoin:round;}</style>
 </defs>
 <g id="figure_1">
  <g id="patch_1">
   <path d="M 0 432 
L 504 432 
L 504 0 
L 0 0 
z
" style="fill:#ffffff;"/>
  </g>
  <g id="axes_1">
   <g id="patch_2">
    <path d="M 33.64 366.5095 
L 493.2 366.5095 
L 493.2 26.88 
L 33.64 26.88 
z
" style="fill:#ffffff;"/>
   </g>
   <g id="PolyCollection_1">
    <defs>
     <path d="M 54.529091 -389.682295 
L 54.529091 -389.682295 
L 55.083086 -389.682295 
L 55.083086 -364.338063 
L 55.152336 -364.338063 
L 55.152336 -361.119636 
L 55.290835 -361.119636 
L 55.290835 -356.519388 
L 55.360084 -356.519388 
L 55.360084 -347.034958 
L 55.498583 -347.034958 
L 55.498583 -342.365929 
L 55.983329 -342.365929 
L 55.983329 -337.7644 
L 56.052578 -337.7644 
L 56.052578 -328.752022 
L 56.606574 -328.752022 
L 56.606574 -324.331596 
L 56.883572 -324.331596 
L 56.883572 -319.962098 
L 57.09132 -319.962098 
L 57.09132 -315.639422 
L 58.33781 -315.639422 
L 58.33781 -311.359968 
L 59.030304 -311.359968 
L 59.030304 -307.120598 
L 59.307302 -307.120598 
L 59.307302 -302.918577 
L 59.584299 -302.918577 
L 59.584299 -298.751515 
L 60.623041 -298.751515 
L 60.623041 -294.617321 
L 61.246286 -294.617321 
L 61.246286 -290.514154 
L 61.592533 -290.514154 
L 61.592533 -286.440389 
L 62.146528 -286.440389 
L 62.146528 -282.394589 
L 62.839023 -282.394589 
L 62.839023 -278.375476 
L 64.016263 -278.375476 
L 64.016263 -274.38191 
L 64.43176 -274.38191 
L 64.43176 -270.412874 
L 64.778007 -270.412874 
L 64.778007 -266.467456 
L 64.916506 -266.467456 
L 64.916506 -262.544838 
L 65.055004 -262.544838 
L 65.055004 -258.644285 
L 65.193503 -258.644285 
L 65.193503 -254.765135 
L 65.470501 -254.765135 
L 65.470501 -250.906795 
L 65.816748 -250.906795 
L 65.816748 -247.068727 
L 66.647741 -247.068727 
L 66.647741 -243.250452 
L 66.716991 -243.250452 
L 66.716991 -239.451537 
L 67.409485 -239.451537 
L 67.409485 -235.671594 
L 68.309728 -235.671594 
L 68.309728 -231.910277 
L 68.932973 -231.910277 
L 68.932973 -224.442325 
L 69.071471 -224.442325 
L 69.071471 -220.735178 
L 70.802707 -220.735178 
L 70.802707 -217.04563 
L 70.871957 -217.04563 
L 70.871957 -213.373503 
L 71.010456 -213.373503 
L 71.010456 -209.718645 
L 71.218204 -209.718645 
L 71.218204 -202.460277 
L 71.356703 -202.460277 
L 71.356703 -198.856597 
L 71.495202 -198.856597 
L 71.495202 -195.26985 
L 71.772199 -195.26985 
L 71.772199 -191.700014 
L 71.910698 -191.700014 
L 71.910698 -188.14709 
L 72.741691 -188.14709 
L 72.741691 -184.611106 
L 73.018689 -184.611106 
L 73.018689 -181.092113 
L 75.30392 -181.092113 
L 75.30392 -177.590186 
L 75.788666 -177.590186 
L 75.788666 -174.105428 
L 75.996415 -174.105428 
L 75.996415 -170.637964 
L 76.55041 -170.637964 
L 76.55041 -167.18795 
L 77.935399 -167.18795 
L 77.935399 -163.755567 
L 79.528136 -163.755567 
L 79.528136 -160.341028 
L 79.735884 -160.341028 
L 79.735884 -156.944576 
L 80.082131 -156.944576 
L 80.082131 -153.566486 
L 81.813367 -153.566486 
L 81.813367 -150.207069 
L 82.021115 -150.207069 
L 82.021115 -146.866675 
L 82.436612 -146.866675 
L 82.436612 -143.545694 
L 85.414337 -143.545694 
L 85.414337 -140.244561 
L 85.552836 -140.244561 
L 85.552836 -136.963759 
L 88.045816 -136.963759 
L 88.045816 -133.703824 
L 88.392063 -133.703824 
L 88.392063 -130.465354 
L 88.599811 -130.465354 
L 88.599811 -127.24901 
L 91.508287 -127.24901 
L 91.508287 -124.055528 
L 98.779477 -124.055528 
L 98.779477 -120.885726 
L 108.128151 -120.885726 
L 108.128151 -117.740518 
L 111.86762 -117.740518 
L 111.86762 -114.620923 
L 116.645831 -114.620923 
L 116.645831 -111.528082 
L 131.118962 -111.528082 
L 131.118962 -108.463279 
L 137.351411 -108.463279 
L 137.351411 -105.427963 
L 151.201297 -105.427963 
L 151.201297 -102.423775 
L 165.743677 -102.423775 
L 165.743677 -99.452585 
L 191.850713 -99.452585 
L 191.850713 -99.452585 
L 208.262828 -99.452585 
L 208.262828 -99.452585 
L 209.024572 -99.452585 
L 209.024572 -96.018154 
L 237.901585 -96.018154 
L 237.901585 -96.018154 
L 248.704496 -96.018154 
L 248.704496 -96.018154 
L 258.122419 -96.018154 
L 258.122419 -91.916058 
L 265.878355 -91.916058 
L 265.878355 -87.941741 
L 269.133078 -87.941741 
L 269.133078 -87.941741 
L 295.586361 -87.941741 
L 295.586361 -87.941741 
L 333.535049 -87.941741 
L 333.535049 -87.941741 
L 376.746694 -87.941741 
L 376.746694 -87.941741 
L 393.505056 -87.941741 
L 393.505056 -87.941741 
L 405.069711 -87.941741 
L 405.069711 -87.941741 
L 445.926876 -87.941741 
L 445.926876 -87.941741 
L 463.931728 -87.941741 
L 463.931728 -87.941741 
L 472.310909 -87.941741 
L 472.310909 -87.941741 
L 472.310909 -137.596025 
L 472.310909 -137.596025 
L 472.310909 -137.596025 
L 463.931728 -137.596025 
L 463.931728 -137.596025 
L 445.926876 -137.596025 
L 445.926876 -137.596025 
L 405.069711 -137.596025 
L 405.069711 -137.596025 
L 393.505056 -137.596025 
L 393.505056 -137.596025 
L 376.746694 -137.596025 
L 376.746694 -137.596025 
L 333.535049 -137.596025 
L 333.535049 -137.596025 
L 295.586361 -137.596025 
L 295.586361 -137.596025 
L 269.133078 -137.596025 
L 269.133078 -137.596025 
L 265.878355 -137.596025 
L 265.878355 -142.794881 
L 258.122419 -142.794881 
L 258.122419 -147.891973 
L 248.704496 -147.891973 
L 248.704496 -147.891973 
L 237.901585 -147.891973 
L 237.901585 -147.891973 
L 209.024572 -147.891973 
L 209.024572 -152.43703 
L 208.262828 -152.43703 
L 208.262828 -152.43703 
L 191.850713 -152.43703 
L 191.850713 -152.43703 
L 165.743677 -152.43703 
L 165.743677 -156.555705 
L 151.201297 -156.555705 
L 151.201297 -160.644425 
L 137.351411 -160.644425 
L 137.351411 -164.704817 
L 131.118962 -164.704817 
L 131.118962 -168.738305 
L 116.645831 -168.738305 
L 116.645831 -172.746152 
L 111.86762 -172.746152 
L 111.86762 -176.729471 
L 108.128151 -176.729471 
L 108.128151 -180.689258 
L 98.779477 -180.689258 
L 98.779477 -184.626398 
L 91.508287 -184.626398 
L 91.508287 -188.541683 
L 88.599811 -188.541683 
L 88.599811 -192.435823 
L 88.392063 -192.435823 
L 88.392063 -196.309456 
L 88.045816 -196.309456 
L 88.045816 -200.163154 
L 85.552836 -200.163154 
L 85.552836 -203.997429 
L 85.414337 -203.997429 
L 85.414337 -207.812743 
L 82.436612 -207.812743 
L 82.436612 -211.609509 
L 82.021115 -211.609509 
L 82.021115 -215.388097 
L 81.813367 -215.388097 
L 81.813367 -219.148836 
L 80.082131 -219.148836 
L 80.082131 -222.89202 
L 79.735884 -222.89202 
L 79.735884 -226.617907 
L 79.528136 -226.617907 
L 79.528136 -230.326723 
L 77.935399 -230.326723 
L 77.935399 -234.018665 
L 76.55041 -234.018665 
L 76.55041 -237.6939 
L 75.996415 -237.6939 
L 75.996415 -241.352569 
L 75.788666 -241.352569 
L 75.788666 -244.994786 
L 75.30392 -244.994786 
L 75.30392 -248.620641 
L 73.018689 -248.620641 
L 73.018689 -252.230199 
L 72.741691 -252.230199 
L 72.741691 -255.8235 
L 71.910698 -255.8235 
L 71.910698 -259.400562 
L 71.772199 -259.400562 
L 71.772199 -262.961378 
L 71.495202 -262.961378 
L 71.495202 -266.505918 
L 71.356703 -266.505918 
L 71.356703 -270.034129 
L 71.218204 -270.034129 
L 71.218204 -277.041228 
L 71.010456 -277.041228 
L 71.010456 -280.519886 
L 70.871957 -280.519886 
L 70.871957 -283.981753 
L 70.802707 -283.981753 
L 70.802707 -287.426648 
L 69.071471 -287.426648 
L 69.071471 -290.854359 
L 68.932973 -290.854359 
L 68.932973 -297.657235 
L 68.309728 -297.657235 
L 68.309728 -301.031817 
L 67.409485 -301.031817 
L 67.409485 -304.388048 
L 66.716991 -304.388048 
L 66.716991 -307.725539 
L 66.647741 -307.725539 
L 66.647741 -311.043859 
L 65.816748 -311.043859 
L 65.816748 -314.342528 
L 65.470501 -314.342528 
L 65.470501 -317.621013 
L 65.193503 -317.621013 
L 65.193503 -320.878719 
L 65.055004 -320.878719 
L 65.055004 -324.114988 
L 64.916506 -324.114988 
L 64.916506 -327.329083 
L 64.778007 -327.329083 
L 64.778007 -330.520185 
L 64.43176 -330.520185 
L 64.43176 -333.687379 
L 64.016263 -333.687379 
L 64.016263 -336.829639 
L 62.839023 -336.829639 
L 62.839023 -339.945812 
L 62.146528 -339.945812 
L 62.146528 -343.0346 
L 61.592533 -343.0346 
L 61.592533 -346.094528 
L 61.246286 -346.094528 
L 61.246286 -349.12392 
L 60.623041 -349.12392 
L 60.623041 -352.120858 
L 59.584299 -352.120858 
L 59.584299 -355.083127 
L 59.307302 -355.083127 
L 59.307302 -358.008156 
L 59.030304 -358.008156 
L 59.030304 -360.892934 
L 58.33781 -360.892934 
L 58.33781 -363.733893 
L 57.09132 -363.733893 
L 57.09132 -366.52676 
L 56.883572 -366.52676 
L 56.883572 -369.266347 
L 56.606574 -369.266347 
L 56.606574 -371.946244 
L 56.052578 -371.946244 
L 56.052578 -377.092341 
L 55.983329 -377.092341 
L 55.983329 -379.534281 
L 55.498583 -379.534281 
L 55.498583 -381.865075 
L 55.360084 -381.865075 
L 55.360084 -386.066487 
L 55.290835 -386.066487 
L 55.290835 -387.818736 
L 55.152336 -387.818736 
L 55.152336 -389.159389 
L 55.083086 -389.159389 
L 55.083086 -389.682295 
L 54.529091 -389.682295 
z
" id="m053861e427" style="stroke:#ff0000;stroke-opacity:0.25;"/>
    </defs>
    <g clip-path="url(#p6ee12c19a7)">
     <use style="fill:#ff0000;fill-opacity:0.25;stroke:#ff0000;stroke-opacity:0.25;" x="0" xlink:href="#m053861e427" y="432"/>
    </g>
   </g>
   <g id="PolyCollection_2">
    <defs>
     <path d="M 54.529091 -389.682295 
L 54.529091 -389.682295 
L 56.052578 -389.682295 
L 56.052578 -360.806139 
L 56.191077 -360.806139 
L 56.191077 -356.156132 
L 56.398826 -356.156132 
L 56.398826 -351.35097 
L 59.722798 -351.35097 
L 59.722798 -346.570005 
L 62.215778 -346.570005 
L 62.215778 -341.851269 
L 62.285027 -341.851269 
L 62.285027 -337.200969 
L 63.046771 -337.200969 
L 63.046771 -332.61667 
L 63.877764 -332.61667 
L 63.877764 -323.626978 
L 64.085512 -323.626978 
L 64.085512 -319.211932 
L 64.778007 -319.211932 
L 64.778007 -314.844379 
L 65.955247 -314.844379 
L 65.955247 -310.520677 
L 66.093746 -310.520677 
L 66.093746 -306.237652 
L 67.617233 -306.237652 
L 67.617233 -301.992538 
L 68.309728 -301.992538 
L 68.309728 -297.78292 
L 68.863723 -297.78292 
L 68.863723 -293.60668 
L 68.932973 -293.60668 
L 68.932973 -289.461961 
L 69.27922 -289.461961 
L 69.27922 -281.260704 
L 71.010456 -281.260704 
L 71.010456 -277.201424 
L 73.572684 -277.201424 
L 73.572684 -273.168129 
L 74.334428 -273.168129 
L 74.334428 -269.159792 
L 74.680675 -269.159792 
L 74.680675 -265.175494 
L 75.026923 -265.175494 
L 75.026923 -261.21441 
L 75.996415 -261.21441 
L 75.996415 -257.275802 
L 76.55041 -257.275802 
L 76.55041 -253.359002 
L 76.758158 -253.359002 
L 76.758158 -249.463414 
L 77.242904 -249.463414 
L 77.242904 -241.733778 
L 79.251138 -241.733778 
L 79.251138 -237.898814 
L 82.090365 -237.898814 
L 82.090365 -234.083223 
L 82.228863 -234.083223 
L 82.228863 -230.28666 
L 84.514095 -230.28666 
L 84.514095 -226.508819 
L 85.137339 -226.508819 
L 85.137339 -222.749431 
L 88.322813 -222.749431 
L 88.322813 -219.00826 
L 88.66906 -219.00826 
L 88.66906 -215.285104 
L 90.469546 -215.285104 
L 90.469546 -211.57979 
L 90.538795 -211.57979 
L 90.538795 -207.892175 
L 95.386255 -207.892175 
L 95.386255 -207.892175 
L 96.217248 -207.892175 
L 96.217248 -204.128008 
L 100.233715 -204.128008 
L 100.233715 -200.383197 
L 101.826452 -200.383197 
L 101.826452 -196.657616 
L 110.69038 -196.657616 
L 110.69038 -192.951176 
L 112.629364 -192.951176 
L 112.629364 -189.263818 
L 112.767863 -189.263818 
L 112.767863 -185.595516 
L 113.183359 -185.595516 
L 113.183359 -181.946277 
L 114.152851 -181.946277 
L 114.152851 -178.31614 
L 118.654064 -178.31614 
L 118.654064 -174.705173 
L 121.008545 -174.705173 
L 121.008545 -171.113481 
L 129.803223 -171.113481 
L 129.803223 -167.541199 
L 138.5979 -167.541199 
L 138.5979 -163.988497 
L 156.118006 -163.988497 
L 156.118006 -160.455583 
L 162.9737 -160.455583 
L 162.9737 -156.942698 
L 179.108818 -156.942698 
L 179.108818 -153.450127 
L 181.463298 -153.450127 
L 181.463298 -149.978193 
L 182.709788 -149.978193 
L 182.709788 -149.978193 
L 187.3495 -149.978193 
L 187.3495 -149.978193 
L 187.557248 -149.978193 
L 187.557248 -146.242835 
L 189.703981 -146.242835 
L 189.703981 -146.242835 
L 198.221661 -146.242835 
L 198.221661 -142.371875 
L 198.983404 -142.371875 
L 198.983404 -142.371875 
L 206.254595 -142.371875 
L 206.254595 -142.371875 
L 207.362585 -142.371875 
L 207.362585 -138.14921 
L 209.509318 -138.14921 
L 209.509318 -133.974323 
L 215.257021 -133.974323 
L 215.257021 -129.847733 
L 227.444921 -129.847733 
L 227.444921 -129.847733 
L 232.153882 -129.847733 
L 232.153882 -129.847733 
L 237.001342 -129.847733 
L 237.001342 -129.847733 
L 241.156308 -129.847733 
L 241.156308 -129.847733 
L 249.46624 -129.847733 
L 249.46624 -124.590229 
L 252.859462 -124.590229 
L 252.859462 -124.590229 
L 261.377142 -124.590229 
L 261.377142 -124.590229 
L 266.43235 -124.590229 
L 266.43235 -124.590229 
L 280.420735 -124.590229 
L 280.420735 -124.590229 
L 289.838658 -124.590229 
L 289.838658 -124.590229 
L 302.234306 -124.590229 
L 302.234306 -124.590229 
L 322.385891 -124.590229 
L 322.385891 -124.590229 
L 330.626573 -124.590229 
L 330.626573 -124.590229 
L 333.673548 -124.590229 
L 333.673548 -124.590229 
L 333.812047 -124.590229 
L 333.812047 -124.590229 
L 333.881296 -124.590229 
L 333.881296 -124.590229 
L 351.609151 -124.590229 
L 351.609151 -124.590229 
L 356.52586 -124.590229 
L 356.52586 -124.590229 
L 370.652744 -124.590229 
L 370.652744 -124.590229 
L 377.716186 -124.590229 
L 377.716186 -80.928205 
L 391.566072 -80.928205 
L 391.566072 -80.928205 
L 392.604814 -80.928205 
L 392.604814 -80.928205 
L 392.604814 -184.909606 
L 392.604814 -184.909606 
L 392.604814 -184.909606 
L 391.566072 -184.909606 
L 391.566072 -184.909606 
L 377.716186 -184.909606 
L 377.716186 -188.526151 
L 370.652744 -188.526151 
L 370.652744 -188.526151 
L 356.52586 -188.526151 
L 356.52586 -188.526151 
L 351.609151 -188.526151 
L 351.609151 -188.526151 
L 333.881296 -188.526151 
L 333.881296 -188.526151 
L 333.812047 -188.526151 
L 333.812047 -188.526151 
L 333.673548 -188.526151 
L 333.673548 -188.526151 
L 330.626573 -188.526151 
L 330.626573 -188.526151 
L 322.385891 -188.526151 
L 322.385891 -188.526151 
L 302.234306 -188.526151 
L 302.234306 -188.526151 
L 289.838658 -188.526151 
L 289.838658 -188.526151 
L 280.420735 -188.526151 
L 280.420735 -188.526151 
L 266.43235 -188.526151 
L 266.43235 -188.526151 
L 261.377142 -188.526151 
L 261.377142 -188.526151 
L 252.859462 -188.526151 
L 252.859462 -188.526151 
L 249.46624 -188.526151 
L 249.46624 -193.876845 
L 241.156308 -193.876845 
L 241.156308 -193.876845 
L 237.001342 -193.876845 
L 237.001342 -193.876845 
L 232.153882 -193.876845 
L 232.153882 -193.876845 
L 227.444921 -193.876845 
L 227.444921 -193.876845 
L 215.257021 -193.876845 
L 215.257021 -198.47518 
L 209.509318 -198.47518 
L 209.509318 -203.034449 
L 207.362585 -203.034449 
L 207.362585 -207.55539 
L 206.254595 -207.55539 
L 206.254595 -207.55539 
L 198.983404 -207.55539 
L 198.983404 -207.55539 
L 198.221661 -207.55539 
L 198.221661 -211.790725 
L 189.703981 -211.790725 
L 189.703981 -211.790725 
L 187.557248 -211.790725 
L 187.557248 -215.887331 
L 187.3495 -215.887331 
L 187.3495 -215.887331 
L 182.709788 -215.887331 
L 182.709788 -215.887331 
L 181.463298 -215.887331 
L 181.463298 -219.760541 
L 179.108818 -219.760541 
L 179.108818 -223.614605 
L 162.9737 -223.614605 
L 162.9737 -227.449803 
L 156.118006 -227.449803 
L 156.118006 -231.26638 
L 138.5979 -231.26638 
L 138.5979 -235.064545 
L 129.803223 -235.064545 
L 129.803223 -238.844475 
L 121.008545 -238.844475 
L 121.008545 -242.606314 
L 118.654064 -242.606314 
L 118.654064 -246.350177 
L 114.152851 -246.350177 
L 114.152851 -250.07615 
L 113.183359 -250.07615 
L 113.183359 -253.78429 
L 112.767863 -253.78429 
L 112.767863 -257.474627 
L 112.629364 -257.474627 
L 112.629364 -261.147163 
L 110.69038 -261.147163 
L 110.69038 -264.80187 
L 101.826452 -264.80187 
L 101.826452 -268.438695 
L 100.233715 -268.438695 
L 100.233715 -272.057558 
L 96.217248 -272.057558 
L 96.217248 -275.658346 
L 95.386255 -275.658346 
L 95.386255 -275.658346 
L 90.538795 -275.658346 
L 90.538795 -279.182175 
L 90.469546 -279.182175 
L 90.469546 -282.688813 
L 88.66906 -282.688813 
L 88.66906 -286.178084 
L 88.322813 -286.178084 
L 88.322813 -289.649781 
L 85.137339 -289.649781 
L 85.137339 -293.103667 
L 84.514095 -293.103667 
L 84.514095 -296.53947 
L 82.228863 -296.53947 
L 82.228863 -299.956886 
L 82.090365 -299.956886 
L 82.090365 -303.355567 
L 79.251138 -303.355567 
L 79.251138 -306.735129 
L 77.242904 -306.735129 
L 77.242904 -313.435116 
L 76.758158 -313.435116 
L 76.758158 -316.754524 
L 76.55041 -316.754524 
L 76.55041 -320.052765 
L 75.996415 -320.052765 
L 75.996415 -323.329177 
L 75.026923 -323.329177 
L 75.026923 -326.583018 
L 74.680675 -326.583018 
L 74.680675 -329.813462 
L 74.334428 -329.813462 
L 74.334428 -333.019587 
L 73.572684 -333.019587 
L 73.572684 -336.200357 
L 71.010456 -336.200357 
L 71.010456 -339.354609 
L 69.27922 -339.354609 
L 69.27922 -345.578132 
L 68.932973 -345.578132 
L 68.932973 -348.644221 
L 68.863723 -348.644221 
L 68.863723 -351.677357 
L 68.309728 -351.677357 
L 68.309728 -354.675303 
L 67.617233 -354.675303 
L 67.617233 -357.635459 
L 66.093746 -357.635459 
L 66.093746 -360.554779 
L 65.955247 -360.554779 
L 65.955247 -363.429656 
L 64.778007 -363.429656 
L 64.778007 -366.255769 
L 64.085512 -366.255769 
L 64.085512 -369.027868 
L 63.877764 -369.027868 
L 63.877764 -374.382416 
L 63.046771 -374.382416 
L 63.046771 -376.946166 
L 62.285027 -376.946166 
L 62.285027 -379.416718 
L 62.215778 -379.416718 
L 62.215778 -381.774725 
L 59.722798 -381.774725 
L 59.722798 -383.992071 
L 56.398826 -383.992071 
L 56.398826 -386.024916 
L 56.191077 -386.024916 
L 56.191077 -387.797377 
L 56.052578 -387.797377 
L 56.052578 -389.682295 
L 54.529091 -389.682295 
z
" id="m39b64d9bd8" style="stroke:#0000ff;stroke-opacity:0.25;"/>
    </defs>
    <g clip-path="url(#p6ee12c19a7)">
     <use style="fill:#0000ff;fill-opacity:0.25;stroke:#0000ff;stroke-opacity:0.25;" x="0" xlink:href="#m39b64d9bd8" y="432"/>
    </g>
   </g>
   <g id="matplotlib.axis_1">
    <g id="xtick_1">
     <g id="line2d_1">
      <path clip-path="url(#p6ee12c19a7)" d="M 54.529091 366.5095 
L 54.529091 26.88 
" style="fill:none;stroke:#b0b0b0;stroke-dasharray:2.96,1.28;stroke-dashoffset:0;stroke-opacity:0.5;stroke-width:0.8;"/>
     </g>
     <g id="line2d_2">
      <defs>
       <path d="M 0 0 
L 0 3.5 
" id="m00c32b84af" style="stroke:#000000;stroke-width:0.8;"/>
      </defs>
      <g>
       <use style="stroke:#000000;stroke-width:0.8;" x="54.529091" xlink:href="#m00c32b84af" y="366.5095"/>
      </g>
     </g>
     <g id="text_1">
      <text style="font-family:DejaVu Sans;font-size:10px;font-stretch:normal;font-style:normal;font-weight:normal;text-anchor:middle;" transform="rotate(-0, 54.529091, 381.107937)" x="54.529091" y="381.107937">0</text>
     </g>
    </g>
    <g id="xtick_2">
     <g id="line2d_3">
      <path clip-path="url(#p6ee12c19a7)" d="M 123.778522 366.5095 
L 123.778522 26.88 
" style="fill:none;stroke:#b0b0b0;stroke-dasharray:2.96,1.28;stroke-dashoffset:0;stroke-opacity:0.5;stroke-width:0.8;"/>
     </g>
     <g id="line2d_4">
      <g>
       <use style="stroke:#000000;stroke-width:0.8;" x="123.778522" xlink:href="#m00c32b84af" y="366.5095"/>
      </g>
     </g>
     <g id="text_2">
      <text style="font-family:DejaVu Sans;font-size:10px;font-stretch:normal;font-style:normal;font-weight:normal;text-anchor:middle;" transform="rotate(-0, 123.778522, 381.107937)" x="123.778522" y="381.107937">1000</text>
     </g>
    </g>
    <g id="xtick_3">
     <g id="line2d_5">
      <path clip-path="url(#p6ee12c19a7)" d="M 193.027953 366.5095 
L 193.027953 26.88 
" style="fill:none;stroke:#b0b0b0;stroke-dasharray:2.96,1.28;stroke-dashoffset:0;stroke-opacity:0.5;stroke-width:0.8;"/>
     </g>
     <g id="line2d_6">
      <g>
       <use style="stroke:#000000;stroke-width:0.8;" x="193.027953" xlink:href="#m00c32b84af" y="366.5095"/>
      </g>
     </g>
     <g id="text_3">
      <text style="font-family:DejaVu Sans;font-size:10px;font-stretch:normal;font-style:normal;font-weight:normal;text-anchor:middle;" transform="rotate(-0, 193.027953, 381.107937)" x="193.027953" y="381.107937">2000</text>
     </g>
    </g>
    <g id="xtick_4">
     <g id="line2d_7">
      <path clip-path="url(#p6ee12c19a7)" d="M 262.277384 366.5095 
L 262.277384 26.88 
" style="fill:none;stroke:#b0b0b0;stroke-dasharray:2.96,1.28;stroke-dashoffset:0;stroke-opacity:0.5;stroke-width:0.8;"/>
     </g>
     <g id="line2d_8">
      <g>
       <use style="stroke:#000000;stroke-width:0.8;" x="262.277384" xlink:href="#m00c32b84af" y="366.5095"/>
      </g>
     </g>
     <g id="text_4">
      <text style="font-family:DejaVu Sans;font-size:10px;font-stretch:normal;font-style:normal;font-weight:normal;text-anchor:middle;" transform="rotate(-0, 262.277384, 381.107937)" x="262.277384" y="381.107937">3000</text>
     </g>
    </g>
    <g id="xtick_5">
     <g id="line2d_9">
      <path clip-path="url(#p6ee12c19a7)" d="M 331.526816 366.5095 
L 331.526816 26.88 
" style="fill:none;stroke:#b0b0b0;stroke-dasharray:2.96,1.28;stroke-dashoffset:0;stroke-opacity:0.5;stroke-width:0.8;"/>
     </g>
     <g id="line2d_10">
      <g>
       <use style="stroke:#000000;stroke-width:0.8;" x="331.526816" xlink:href="#m00c32b84af" y="366.5095"/>
      </g>
     </g>
     <g id="text_5">
      <text style="font-family:DejaVu Sans;font-size:10px;font-stretch:normal;font-style:normal;font-weight:normal;text-anchor:middle;" transform="rotate(-0, 331.526816, 381.107937)" x="331.526816" y="381.107937">4000</text>
     </g>
    </g>
    <g id="xtick_6">
     <g id="line2d_11">
      <path clip-path="url(#p6ee12c19a7)" d="M 400.776247 366.5095 
L 400.776247 26.88 
" style="fill:none;stroke:#b0b0b0;stroke-dasharray:2.96,1.28;stroke-dashoffset:0;stroke-opacity:0.5;stroke-width:0.8;"/>
     </g>
     <g id="line2d_12">
      <g>
       <use style="stroke:#000000;stroke-width:0.8;" x="400.776247" xlink:href="#m00c32b84af" y="366.5095"/>
      </g>
     </g>
     <g id="text_6">
      <text style="font-family:DejaVu Sans;font-size:10px;font-stretch:normal;font-style:normal;font-weight:normal;text-anchor:middle;" transform="rotate(-0, 400.776247, 381.107937)" x="400.776247" y="381.107937">5000</text>
     </g>
    </g>
    <g id="xtick_7">
     <g id="line2d_13">
      <path clip-path="url(#p6ee12c19a7)" d="M 470.025678 366.5095 
L 470.025678 26.88 
" style="fill:none;stroke:#b0b0b0;stroke-dasharray:2.96,1.28;stroke-dashoffset:0;stroke-opacity:0.5;stroke-width:0.8;"/>
     </g>
     <g id="line2d_14">
      <g>
       <use style="stroke:#000000;stroke-width:0.8;" x="470.025678" xlink:href="#m00c32b84af" y="366.5095"/>
      </g>
     </g>
     <g id="text_7">
      <text style="font-family:DejaVu Sans;font-size:10px;font-stretch:normal;font-style:normal;font-weight:normal;text-anchor:middle;" transform="rotate(-0, 470.025678, 381.107937)" x="470.025678" y="381.107937">6000</text>
     </g>
    </g>
    <g id="text_8">
     <text style="font-family:DejaVu Sans;font-size:10px;font-stretch:normal;font-style:normal;font-weight:normal;" transform="translate(241.511406 394.786063)">timeline </text>
     <text style="font-family:DejaVu Sans;font-size:10px;font-stretch:normal;font-style:normal;font-weight:normal;" transform="translate(112.362188 405.983875)">    dataset: lgn_pronostic_intermediate_PCA, Input type: PCA</text>
     <text style="font-family:DejaVu Sans;font-size:10px;font-stretch:normal;font-style:normal;font-weight:normal;" transform="translate(106.45125 417.459812)">    input_dim: 17 c_index: [0.629 0.583 0.67 ], pvalue: 0.00113</text>
    </g>
   </g>
   <g id="matplotlib.axis_2">
    <g id="ytick_1">
     <g id="line2d_15">
      <path clip-path="url(#p6ee12c19a7)" d="M 33.64 305.347055 
L 493.2 305.347055 
" style="fill:none;stroke:#b0b0b0;stroke-dasharray:2.96,1.28;stroke-dashoffset:0;stroke-opacity:0.5;stroke-width:0.8;"/>
     </g>
     <g id="line2d_16">
      <defs>
       <path d="M 0 0 
L -3.5 0 
" id="m2ad25c7308" style="stroke:#000000;stroke-width:0.8;"/>
      </defs>
      <g>
       <use style="stroke:#000000;stroke-width:0.8;" x="33.64" xlink:href="#m2ad25c7308" y="305.347055"/>
      </g>
     </g>
     <g id="text_9">
      <text style="font-family:DejaVu Sans;font-size:10px;font-stretch:normal;font-style:normal;font-weight:normal;text-anchor:end;" transform="rotate(-0, 26.64, 309.146274)" x="26.64" y="309.146274">0.2</text>
     </g>
    </g>
    <g id="ytick_2">
     <g id="line2d_17">
      <path clip-path="url(#p6ee12c19a7)" d="M 33.64 239.589717 
L 493.2 239.589717 
" style="fill:none;stroke:#b0b0b0;stroke-dasharray:2.96,1.28;stroke-dashoffset:0;stroke-opacity:0.5;stroke-width:0.8;"/>
     </g>
     <g id="line2d_18">
      <g>
       <use style="stroke:#000000;stroke-width:0.8;" x="33.64" xlink:href="#m2ad25c7308" y="239.589717"/>
      </g>
     </g>
     <g id="text_10">
      <text style="font-family:DejaVu Sans;font-size:10px;font-stretch:normal;font-style:normal;font-weight:normal;text-anchor:end;" transform="rotate(-0, 26.64, 243.388936)" x="26.64" y="243.388936">0.4</text>
     </g>
    </g>
    <g id="ytick_3">
     <g id="line2d_19">
      <path clip-path="url(#p6ee12c19a7)" d="M 33.64 173.83238 
L 493.2 173.83238 
" style="fill:none;stroke:#b0b0b0;stroke-dasharray:2.96,1.28;stroke-dashoffset:0;stroke-opacity:0.5;stroke-width:0.8;"/>
     </g>
     <g id="line2d_20">
      <g>
       <use style="stroke:#000000;stroke-width:0.8;" x="33.64" xlink:href="#m2ad25c7308" y="173.83238"/>
      </g>
     </g>
     <g id="text_11">
      <text style="font-family:DejaVu Sans;font-size:10px;font-stretch:normal;font-style:normal;font-weight:normal;text-anchor:end;" transform="rotate(-0, 26.64, 177.631599)" x="26.64" y="177.631599">0.6</text>
     </g>
    </g>
    <g id="ytick_4">
     <g id="line2d_21">
      <path clip-path="url(#p6ee12c19a7)" d="M 33.64 108.075042 
L 493.2 108.075042 
" style="fill:none;stroke:#b0b0b0;stroke-dasharray:2.96,1.28;stroke-dashoffset:0;stroke-opacity:0.5;stroke-width:0.8;"/>
     </g>
     <g id="line2d_22">
      <g>
       <use style="stroke:#000000;stroke-width:0.8;" x="33.64" xlink:href="#m2ad25c7308" y="108.075042"/>
      </g>
     </g>
     <g id="text_12">
      <text style="font-family:DejaVu Sans;font-size:10px;font-stretch:normal;font-style:normal;font-weight:normal;text-anchor:end;" transform="rotate(-0, 26.64, 111.874261)" x="26.64" y="111.874261">0.8</text>
     </g>
    </g>
    <g id="ytick_5">
     <g id="line2d_23">
      <path clip-path="url(#p6ee12c19a7)" d="M 33.64 42.317705 
L 493.2 42.317705 
" style="fill:none;stroke:#b0b0b0;stroke-dasharray:2.96,1.28;stroke-dashoffset:0;stroke-opacity:0.5;stroke-width:0.8;"/>
     </g>
     <g id="line2d_24">
      <g>
       <use style="stroke:#000000;stroke-width:0.8;" x="33.64" xlink:href="#m2ad25c7308" y="42.317705"/>
      </g>
     </g>
     <g id="text_13">
      <text style="font-family:DejaVu Sans;font-size:10px;font-stretch:normal;font-style:normal;font-weight:normal;text-anchor:end;" transform="rotate(-0, 26.64, 46.116923)" x="26.64" y="46.116923">1.0</text>
     </g>
    </g>
   </g>
   <g id="line2d_25">
    <defs>
     <path d="M -3 3 
L 3 -3 
M -3 -3 
L 3 3 
" id="mbaa4cc9616" style="stroke:#ff0000;"/>
    </defs>
    <g clip-path="url(#p6ee12c19a7)">
     <use style="fill:#ff0000;stroke:#ff0000;" x="191.850713" xlink:href="#mbaa4cc9616" y="308.302441"/>
     <use style="fill:#ff0000;stroke:#ff0000;" x="208.262828" xlink:href="#mbaa4cc9616" y="308.302441"/>
     <use style="fill:#ff0000;stroke:#ff0000;" x="237.901585" xlink:href="#mbaa4cc9616" y="312.489238"/>
     <use style="fill:#ff0000;stroke:#ff0000;" x="248.704496" xlink:href="#mbaa4cc9616" y="312.489238"/>
     <use style="fill:#ff0000;stroke:#ff0000;" x="269.133078" xlink:href="#mbaa4cc9616" y="322.25843"/>
     <use style="fill:#ff0000;stroke:#ff0000;" x="295.586361" xlink:href="#mbaa4cc9616" y="322.25843"/>
     <use style="fill:#ff0000;stroke:#ff0000;" x="333.535049" xlink:href="#mbaa4cc9616" y="322.25843"/>
     <use style="fill:#ff0000;stroke:#ff0000;" x="376.746694" xlink:href="#mbaa4cc9616" y="322.25843"/>
     <use style="fill:#ff0000;stroke:#ff0000;" x="393.505056" xlink:href="#mbaa4cc9616" y="322.25843"/>
     <use style="fill:#ff0000;stroke:#ff0000;" x="405.069711" xlink:href="#mbaa4cc9616" y="322.25843"/>
     <use style="fill:#ff0000;stroke:#ff0000;" x="445.926876" xlink:href="#mbaa4cc9616" y="322.25843"/>
     <use style="fill:#ff0000;stroke:#ff0000;" x="463.931728" xlink:href="#mbaa4cc9616" y="322.25843"/>
     <use style="fill:#ff0000;stroke:#ff0000;" x="472.310909" xlink:href="#mbaa4cc9616" y="322.25843"/>
    </g>
   </g>
   <g id="line2d_26">
    <path clip-path="url(#p6ee12c19a7)" d="M 54.529091 42.317705 
L 55.083086 42.317705 
L 55.152336 49.706169 
L 55.290835 49.706169 
L 55.360084 60.788867 
L 55.498583 60.788867 
L 55.498583 64.483099 
L 55.983329 64.483099 
L 56.052578 75.565797 
L 56.606574 75.565797 
L 56.606574 79.260029 
L 56.883572 79.260029 
L 56.883572 82.954261 
L 57.09132 82.954261 
L 57.09132 86.648494 
L 58.33781 86.648494 
L 58.33781 90.342726 
L 59.030304 90.342726 
L 59.030304 94.036959 
L 59.307302 94.036959 
L 59.307302 97.731191 
L 59.584299 97.731191 
L 59.584299 101.425424 
L 60.623041 101.425424 
L 60.623041 105.119656 
L 61.246286 105.119656 
L 61.246286 108.813889 
L 61.592533 108.813889 
L 61.592533 112.508121 
L 62.146528 112.508121 
L 62.146528 116.202354 
L 62.839023 116.202354 
L 62.839023 119.896586 
L 64.016263 119.896586 
L 64.016263 123.590818 
L 64.43176 123.590818 
L 64.43176 127.285051 
L 64.778007 127.285051 
L 64.778007 130.979283 
L 64.916506 130.979283 
L 64.916506 134.673516 
L 65.055004 134.673516 
L 65.055004 138.367748 
L 65.193503 138.367748 
L 65.193503 142.061981 
L 65.470501 142.061981 
L 65.470501 145.756213 
L 65.816748 145.756213 
L 65.816748 149.450446 
L 66.647741 149.450446 
L 66.716991 156.83891 
L 67.409485 156.83891 
L 67.409485 160.533143 
L 68.309728 160.533143 
L 68.309728 164.227375 
L 68.932973 164.227375 
L 68.932973 171.61584 
L 69.071471 171.61584 
L 69.071471 175.310073 
L 70.802707 175.310073 
L 70.871957 182.698538 
L 71.010456 182.698538 
L 71.010456 186.39277 
L 71.218204 186.39277 
L 71.218204 193.781235 
L 71.356703 193.781235 
L 71.356703 197.475467 
L 71.495202 197.475467 
L 71.495202 201.1697 
L 71.772199 201.1697 
L 71.772199 204.863932 
L 71.910698 204.863932 
L 71.910698 208.558165 
L 72.741691 208.558165 
L 72.741691 212.252397 
L 73.018689 212.252397 
L 73.018689 215.94663 
L 75.30392 215.94663 
L 75.30392 219.640862 
L 75.788666 219.640862 
L 75.788666 223.335095 
L 75.996415 223.335095 
L 75.996415 227.029327 
L 76.55041 227.029327 
L 76.55041 230.723559 
L 77.935399 230.723559 
L 77.935399 234.417792 
L 79.528136 234.417792 
L 79.528136 238.112024 
L 79.735884 238.112024 
L 79.735884 241.806257 
L 80.082131 241.806257 
L 80.082131 245.500489 
L 81.813367 245.500489 
L 81.813367 249.194722 
L 82.021115 249.194722 
L 82.021115 252.888954 
L 82.436612 252.888954 
L 82.436612 256.583187 
L 85.414337 256.583187 
L 85.414337 260.277419 
L 85.552836 260.277419 
L 85.552836 263.971652 
L 88.045816 263.971652 
L 88.045816 267.665884 
L 88.392063 267.665884 
L 88.392063 271.360116 
L 88.599811 271.360116 
L 88.599811 275.054349 
L 91.508287 275.054349 
L 91.508287 278.748581 
L 98.779477 278.748581 
L 98.779477 282.442814 
L 108.128151 282.442814 
L 108.128151 286.137046 
L 111.86762 286.137046 
L 111.86762 289.831279 
L 116.645831 289.831279 
L 116.645831 293.525511 
L 131.118962 293.525511 
L 131.118962 297.219744 
L 137.351411 297.219744 
L 137.351411 300.913976 
L 151.201297 300.913976 
L 151.201297 304.608208 
L 165.743677 304.608208 
L 165.743677 308.302441 
L 209.024572 308.302441 
L 209.024572 312.489238 
L 258.122419 312.489238 
L 258.122419 317.373834 
L 265.878355 317.373834 
L 265.878355 322.25843 
L 472.310909 322.25843 
L 472.310909 322.25843 
" style="fill:none;stroke:#ff0000;stroke-linecap:square;stroke-width:1.5;"/>
   </g>
   <g id="line2d_27">
    <defs>
     <path d="M -3 3 
L 3 -3 
M -3 -3 
L 3 3 
" id="m163802646e" style="stroke:#0000ff;"/>
    </defs>
    <g clip-path="url(#p6ee12c19a7)">
     <use style="fill:#0000ff;stroke:#0000ff;" x="95.386255" xlink:href="#m163802646e" y="188.029987"/>
     <use style="fill:#0000ff;stroke:#0000ff;" x="182.709788" xlink:href="#m163802646e" y="249.054789"/>
     <use style="fill:#0000ff;stroke:#0000ff;" x="187.3495" xlink:href="#m163802646e" y="249.054789"/>
     <use style="fill:#0000ff;stroke:#0000ff;" x="189.703981" xlink:href="#m163802646e" y="253.123109"/>
     <use style="fill:#0000ff;stroke:#0000ff;" x="198.983404" xlink:href="#m163802646e" y="257.336726"/>
     <use style="fill:#0000ff;stroke:#0000ff;" x="206.254595" xlink:href="#m163802646e" y="257.336726"/>
     <use style="fill:#0000ff;stroke:#0000ff;" x="227.444921" xlink:href="#m163802646e" y="270.988846"/>
     <use style="fill:#0000ff;stroke:#0000ff;" x="232.153882" xlink:href="#m163802646e" y="270.988846"/>
     <use style="fill:#0000ff;stroke:#0000ff;" x="237.001342" xlink:href="#m163802646e" y="270.988846"/>
     <use style="fill:#0000ff;stroke:#0000ff;" x="241.156308" xlink:href="#m163802646e" y="270.988846"/>
     <use style="fill:#0000ff;stroke:#0000ff;" x="252.859462" xlink:href="#m163802646e" y="276.550821"/>
     <use style="fill:#0000ff;stroke:#0000ff;" x="261.377142" xlink:href="#m163802646e" y="276.550821"/>
     <use style="fill:#0000ff;stroke:#0000ff;" x="266.43235" xlink:href="#m163802646e" y="276.550821"/>
     <use style="fill:#0000ff;stroke:#0000ff;" x="280.420735" xlink:href="#m163802646e" y="276.550821"/>
     <use style="fill:#0000ff;stroke:#0000ff;" x="289.838658" xlink:href="#m163802646e" y="276.550821"/>
     <use style="fill:#0000ff;stroke:#0000ff;" x="302.234306" xlink:href="#m163802646e" y="276.550821"/>
     <use style="fill:#0000ff;stroke:#0000ff;" x="322.385891" xlink:href="#m163802646e" y="276.550821"/>
     <use style="fill:#0000ff;stroke:#0000ff;" x="330.626573" xlink:href="#m163802646e" y="276.550821"/>
     <use style="fill:#0000ff;stroke:#0000ff;" x="333.673548" xlink:href="#m163802646e" y="276.550821"/>
     <use style="fill:#0000ff;stroke:#0000ff;" x="333.812047" xlink:href="#m163802646e" y="276.550821"/>
     <use style="fill:#0000ff;stroke:#0000ff;" x="333.881296" xlink:href="#m163802646e" y="276.550821"/>
     <use style="fill:#0000ff;stroke:#0000ff;" x="351.609151" xlink:href="#m163802646e" y="276.550821"/>
     <use style="fill:#0000ff;stroke:#0000ff;" x="356.52586" xlink:href="#m163802646e" y="276.550821"/>
     <use style="fill:#0000ff;stroke:#0000ff;" x="370.652744" xlink:href="#m163802646e" y="276.550821"/>
     <use style="fill:#0000ff;stroke:#0000ff;" x="391.566072" xlink:href="#m163802646e" y="308.068678"/>
     <use style="fill:#0000ff;stroke:#0000ff;" x="392.604814" xlink:href="#m163802646e" y="308.068678"/>
    </g>
   </g>
   <g id="line2d_28">
    <path clip-path="url(#p6ee12c19a7)" d="M 54.529091 42.317705 
L 56.052578 42.317705 
L 56.052578 49.790129 
L 56.191077 49.790129 
L 56.191077 53.526342 
L 56.398826 53.526342 
L 56.398826 57.262554 
L 59.722798 57.262554 
L 59.722798 60.998766 
L 62.215778 60.998766 
L 62.285027 68.471191 
L 63.046771 68.471191 
L 63.046771 72.207403 
L 63.877764 72.207403 
L 63.877764 79.679828 
L 64.085512 79.679828 
L 64.085512 83.416041 
L 64.778007 83.416041 
L 64.778007 87.152253 
L 65.955247 87.152253 
L 65.955247 90.888465 
L 66.093746 90.888465 
L 66.093746 94.624678 
L 67.617233 94.624678 
L 67.617233 98.36089 
L 68.309728 98.36089 
L 68.309728 102.097102 
L 68.863723 102.097102 
L 68.932973 109.569527 
L 69.27922 109.569527 
L 69.27922 117.041952 
L 71.010456 117.041952 
L 71.010456 120.778164 
L 73.572684 120.778164 
L 73.572684 124.514377 
L 74.334428 124.514377 
L 74.334428 128.250589 
L 74.680675 128.250589 
L 74.680675 131.986801 
L 75.026923 131.986801 
L 75.026923 135.723014 
L 75.996415 135.723014 
L 75.996415 139.459226 
L 76.55041 139.459226 
L 76.55041 143.195438 
L 76.758158 143.195438 
L 76.758158 146.931651 
L 77.242904 146.931651 
L 77.242904 154.404075 
L 79.251138 154.404075 
L 79.251138 158.140288 
L 82.090365 158.140288 
L 82.090365 161.8765 
L 82.228863 161.8765 
L 82.228863 165.612713 
L 84.514095 165.612713 
L 84.514095 169.348925 
L 85.137339 169.348925 
L 85.137339 173.085137 
L 88.322813 173.085137 
L 88.322813 176.82135 
L 88.66906 176.82135 
L 88.66906 180.557562 
L 90.469546 180.557562 
L 90.538795 188.029987 
L 96.217248 188.029987 
L 96.217248 191.844037 
L 100.233715 191.844037 
L 100.233715 195.658087 
L 101.826452 195.658087 
L 101.826452 199.472137 
L 110.69038 199.472137 
L 110.69038 203.286187 
L 112.629364 203.286187 
L 112.629364 207.100237 
L 112.767863 207.100237 
L 112.767863 210.914287 
L 113.183359 210.914287 
L 113.183359 214.728338 
L 114.152851 214.728338 
L 114.152851 218.542388 
L 118.654064 218.542388 
L 118.654064 222.356438 
L 121.008545 222.356438 
L 121.008545 226.170488 
L 129.803223 226.170488 
L 129.803223 229.984538 
L 138.5979 229.984538 
L 138.5979 233.798588 
L 156.118006 233.798588 
L 156.118006 237.612638 
L 162.9737 237.612638 
L 162.9737 241.426688 
L 179.108818 241.426688 
L 179.108818 245.240739 
L 181.463298 245.240739 
L 181.463298 249.054789 
L 187.557248 249.054789 
L 187.557248 253.123109 
L 198.221661 253.123109 
L 198.221661 257.336726 
L 207.362585 257.336726 
L 207.362585 261.887433 
L 209.509318 261.887433 
L 209.509318 266.438139 
L 215.257021 266.438139 
L 215.257021 270.988846 
L 249.46624 270.988846 
L 249.46624 276.550821 
L 377.716186 276.550821 
L 377.716186 308.068678 
L 392.604814 308.068678 
L 392.604814 308.068678 
" style="fill:none;stroke:#0000ff;stroke-linecap:square;stroke-width:1.5;"/>
   </g>
   <g id="patch_3">
    <path d="M 33.64 366.5095 
L 33.64 26.88 
" style="fill:none;stroke:#000000;stroke-linecap:square;stroke-linejoin:miter;stroke-width:0.8;"/>
   </g>
   <g id="patch_4">
    <path d="M 493.2 366.5095 
L 493.2 26.88 
" style="fill:none;stroke:#000000;stroke-linecap:square;stroke-linejoin:miter;stroke-width:0.8;"/>
   </g>
   <g id="patch_5">
    <path d="M 33.64 366.5095 
L 493.2 366.5095 
" style="fill:none;stroke:#000000;stroke-linecap:square;stroke-linejoin:miter;stroke-width:0.8;"/>
   </g>
   <g id="patch_6">
    <path d="M 33.64 26.88 
L 493.2 26.88 
" style="fill:none;stroke:#000000;stroke-linecap:square;stroke-linejoin:miter;stroke-width:0.8;"/>
   </g>
   <g id="text_14">
    <text style="font-family:DejaVu Sans;font-size:12px;font-stretch:normal;font-style:normal;font-weight:normal;text-anchor:middle;" transform="rotate(-0, 263.42, 20.88)" x="263.42" y="20.88">Survival curves - model_type: ridge_cph_lifelines</text>
   </g>
   <g id="legend_1">
    <g id="patch_7">
     <path d="M 330.451562 64.23625 
L 486.2 64.23625 
Q 488.2 64.23625 488.2 62.23625 
L 488.2 33.88 
Q 488.2 31.88 486.2 31.88 
L 330.451562 31.88 
Q 328.451562 31.88 328.451562 33.88 
L 328.451562 62.23625 
Q 328.451562 64.23625 330.451562 64.23625 
z
" style="fill:#ffffff;opacity:0.8;stroke:#cccccc;stroke-linejoin:miter;"/>
    </g>
    <g id="line2d_29">
     <path d="M 332.451562 39.978437 
L 352.451562 39.978437 
" style="fill:none;stroke:#ff0000;stroke-linecap:square;stroke-width:1.5;"/>
    </g>
    <g id="line2d_30"/>
    <g id="text_15">
     <text style="font-family:DejaVu Sans;font-size:10px;font-stretch:normal;font-style:normal;font-weight:normal;text-anchor:start;" transform="rotate(-0, 360.451562, 43.478437)" x="360.451562" y="43.478437">high. risk (n:88 c:14)</text>
    </g>
    <g id="line2d_31">
     <path d="M 332.451562 54.656563 
L 352.451562 54.656563 
" style="fill:none;stroke:#0000ff;stroke-linecap:square;stroke-width:1.5;"/>
    </g>
    <g id="line2d_32"/>
    <g id="text_16">
     <text style="font-family:DejaVu Sans;font-size:10px;font-stretch:normal;font-style:normal;font-weight:normal;text-anchor:start;" transform="rotate(-0, 360.451562, 58.156563)" x="360.451562" y="58.156563">low risk. risk (n:89 c:26 )</text>
    </g>
   </g>
  </g>
 </g>
 <defs>
  <clipPath id="p6ee12c19a7">
   <rect height="339.6295" width="459.56" x="33.64" y="26.88"/>
  </clipPath>
 </defs>
</svg>
