<?xml version="1.0" encoding="utf-8" standalone="no"?>
<!DOCTYPE svg PUBLIC "-//W3C//DTD SVG 1.1//EN"
  "http://www.w3.org/Graphics/SVG/1.1/DTD/svg11.dtd">
<!-- Created with matplotlib (https://matplotlib.org/) -->
<svg height="432pt" version="1.1" viewBox="0 0 504 432" width="504pt" xmlns="http://www.w3.org/2000/svg" xmlns:xlink="http://www.w3.org/1999/xlink">
 <metadata>
  <rdf:RDF xmlns:cc="http://creativecommons.org/ns#" xmlns:dc="http://purl.org/dc/elements/1.1/" xmlns:rdf="http://www.w3.org/1999/02/22-rdf-syntax-ns#">
   <cc:Work>
    <dc:type rdf:resource="http://purl.org/dc/dcmitype/StillImage"/>
    <dc:date>2022-11-15T14:31:20.602060</dc:date>
    <dc:format>image/svg+xml</dc:format>
    <dc:creator>
     <cc:Agent>
      <dc:title>Matplotlib v3.3.4, https://matplotlib.org/</dc:title>
     </cc:Agent>
    </dc:creator>
   </cc:Work>
  </rdf:RDF>
 </metadata>
 <defs>
  <style type="text/css">*{stroke-linecap:butt;stroke-linejoin:round;}</style>
 </defs>
 <g id="figure_1">
  <g id="patch_1">
   <path d="M 0 432 
L 504 432 
L 504 0 
L 0 0 
z
" style="fill:#ffffff;"/>
  </g>
  <g id="axes_1">
   <g id="patch_2">
    <path d="M 33.64 366.5095 
L 493.2 366.5095 
L 493.2 26.88 
L 33.64 26.88 
z
" style="fill:#ffffff;"/>
   </g>
   <g id="PolyCollection_1">
    <defs>
     <path d="M 54.529091 -389.682295 
L 54.529091 -389.682295 
L 55.152336 -389.682295 
L 55.152336 -362.430689 
L 55.290835 -362.430689 
L 55.290835 -358.968603 
L 55.360084 -358.968603 
L 55.360084 -348.933845 
L 55.567832 -348.933845 
L 55.567832 -343.864862 
L 56.052578 -343.864862 
L 56.052578 -333.939695 
L 56.606574 -333.939695 
L 56.606574 -329.087125 
L 56.952821 -329.087125 
L 56.952821 -324.301877 
L 57.02207 -324.301877 
L 57.02207 -314.912186 
L 57.783814 -314.912186 
L 57.783814 -310.298282 
L 58.060812 -310.298282 
L 58.060812 -305.732957 
L 58.822556 -305.732957 
L 58.822556 -301.212818 
L 59.030304 -301.212818 
L 59.030304 -296.734916 
L 59.584299 -296.734916 
L 59.584299 -292.296683 
L 60.138295 -292.296683 
L 60.138295 -287.895873 
L 60.276794 -287.895873 
L 60.276794 -283.530519 
L 60.415293 -283.530519 
L 60.415293 -279.198893 
L 60.623041 -279.198893 
L 60.623041 -274.899469 
L 60.830789 -274.899469 
L 60.830789 -270.6309 
L 60.969288 -270.6309 
L 60.969288 -266.391993 
L 61.246286 -266.391993 
L 61.246286 -262.18169 
L 61.523283 -262.18169 
L 61.523283 -257.99905 
L 61.592533 -257.99905 
L 61.592533 -253.843241 
L 62.215778 -253.843241 
L 62.215778 -249.713521 
L 62.285027 -249.713521 
L 62.285027 -245.609236 
L 62.839023 -245.609236 
L 62.839023 -241.529804 
L 63.462268 -241.529804 
L 63.462268 -237.474718 
L 63.739265 -237.474718 
L 63.739265 -233.443529 
L 63.877764 -233.443529 
L 63.877764 -229.435851 
L 64.085512 -229.435851 
L 64.085512 -225.45135 
L 64.43176 -225.45135 
L 64.43176 -221.489745 
L 64.708757 -221.489745 
L 64.708757 -217.550802 
L 64.778007 -217.550802 
L 64.778007 -213.634333 
L 64.916506 -213.634333 
L 64.916506 -205.868288 
L 65.055004 -205.868288 
L 65.055004 -202.018553 
L 65.678249 -202.018553 
L 65.678249 -198.190972 
L 65.816748 -198.190972 
L 65.816748 -194.385569 
L 66.162995 -194.385569 
L 66.162995 -190.602409 
L 66.439993 -190.602409 
L 66.439993 -186.841599 
L 66.647741 -186.841599 
L 66.647741 -183.103287 
L 66.716991 -183.103287 
L 66.716991 -179.387668 
L 67.409485 -179.387668 
L 67.409485 -175.69498 
L 67.617233 -175.69498 
L 67.617233 -172.025511 
L 68.309728 -172.025511 
L 68.309728 -168.379599 
L 69.27922 -168.379599 
L 69.27922 -164.757637 
L 69.833215 -164.757637 
L 69.833215 -161.160076 
L 70.802707 -161.160076 
L 70.802707 -157.58743 
L 71.218204 -157.58743 
L 71.218204 -154.040283 
L 71.495202 -154.040283 
L 71.495202 -150.519295 
L 71.910698 -150.519295 
L 71.910698 -147.02521 
L 72.187696 -147.02521 
L 72.187696 -143.558865 
L 72.741691 -143.558865 
L 72.741691 -140.121205 
L 73.018689 -140.121205 
L 73.018689 -136.713293 
L 75.026923 -136.713293 
L 75.026923 -129.99167 
L 75.096172 -129.99167 
L 75.096172 -126.680857 
L 75.788666 -126.680857 
L 75.788666 -123.405641 
L 75.996415 -123.405641 
L 75.996415 -116.970318 
L 80.22063 -116.970318 
L 80.22063 -113.815181 
L 82.090365 -113.815181 
L 82.090365 -110.705721 
L 90.538795 -110.705721 
L 90.538795 -107.64559 
L 95.386255 -107.64559 
L 95.386255 -107.64559 
L 104.52718 -107.64559 
L 104.52718 -104.31772 
L 110.69038 -104.31772 
L 110.69038 -101.072446 
L 112.767863 -101.072446 
L 112.767863 -97.918149 
L 116.645831 -97.918149 
L 116.645831 -94.865496 
L 118.654064 -94.865496 
L 118.654064 -91.928366 
L 179.108818 -91.928366 
L 179.108818 -89.12532 
L 181.463298 -89.12532 
L 181.463298 -86.482089 
L 204.800357 -86.482089 
L 204.800357 -84.036098 
L 269.133078 -84.036098 
L 269.133078 -84.036098 
L 347.800432 -84.036098 
L 347.800432 -80.928205 
L 351.609151 -80.928205 
L 351.609151 -80.928205 
L 376.746694 -80.928205 
L 376.746694 -80.928205 
L 376.746694 -110.664827 
L 376.746694 -110.664827 
L 376.746694 -110.664827 
L 351.609151 -110.664827 
L 351.609151 -110.664827 
L 347.800432 -110.664827 
L 347.800432 -116.983548 
L 269.133078 -116.983548 
L 269.133078 -116.983548 
L 204.800357 -116.983548 
L 204.800357 -122.579576 
L 181.463298 -122.579576 
L 181.463298 -128.015103 
L 179.108818 -128.015103 
L 179.108818 -133.317752 
L 118.654064 -133.317752 
L 118.654064 -138.507673 
L 116.645831 -138.507673 
L 116.645831 -143.599912 
L 112.767863 -143.599912 
L 112.767863 -148.605981 
L 110.69038 -148.605981 
L 110.69038 -153.534883 
L 104.52718 -153.534883 
L 104.52718 -158.39379 
L 95.386255 -158.39379 
L 95.386255 -158.39379 
L 90.538795 -158.39379 
L 90.538795 -162.940997 
L 82.090365 -162.940997 
L 82.090365 -167.443935 
L 80.22063 -167.443935 
L 80.22063 -171.905736 
L 75.996415 -171.905736 
L 75.996415 -180.716241 
L 75.788666 -180.716241 
L 75.788666 -185.069227 
L 75.096172 -185.069227 
L 75.096172 -189.389759 
L 75.026923 -189.389759 
L 75.026923 -197.939327 
L 73.018689 -197.939327 
L 73.018689 -202.170859 
L 72.741691 -202.170859 
L 72.741691 -206.374977 
L 72.187696 -206.374977 
L 72.187696 -210.552593 
L 71.910698 -210.552593 
L 71.910698 -214.704516 
L 71.495202 -214.704516 
L 71.495202 -218.831458 
L 71.218204 -218.831458 
L 71.218204 -222.93405 
L 70.802707 -222.93405 
L 70.802707 -227.01285 
L 69.833215 -227.01285 
L 69.833215 -231.068343 
L 69.27922 -231.068343 
L 69.27922 -235.100958 
L 68.309728 -235.100958 
L 68.309728 -239.111061 
L 67.617233 -239.111061 
L 67.617233 -243.098971 
L 67.409485 -243.098971 
L 67.409485 -247.064952 
L 66.716991 -247.064952 
L 66.716991 -251.009224 
L 66.647741 -251.009224 
L 66.647741 -254.931963 
L 66.439993 -254.931963 
L 66.439993 -258.833301 
L 66.162995 -258.833301 
L 66.162995 -262.713329 
L 65.816748 -262.713329 
L 65.816748 -266.572097 
L 65.678249 -266.572097 
L 65.678249 -270.409615 
L 65.055004 -270.409615 
L 65.055004 -274.225855 
L 64.916506 -274.225855 
L 64.916506 -281.794181 
L 64.778007 -281.794181 
L 64.778007 -285.546004 
L 64.708757 -285.546004 
L 64.708757 -289.276023 
L 64.43176 -289.276023 
L 64.43176 -292.983997 
L 64.085512 -292.983997 
L 64.085512 -296.66964 
L 63.877764 -296.66964 
L 63.877764 -300.332612 
L 63.739265 -300.332612 
L 63.739265 -303.972524 
L 63.462268 -303.972524 
L 63.462268 -307.588926 
L 62.839023 -307.588926 
L 62.839023 -311.181306 
L 62.285027 -311.181306 
L 62.285027 -314.749082 
L 62.215778 -314.749082 
L 62.215778 -318.291595 
L 61.592533 -318.291595 
L 61.592533 -321.808103 
L 61.523283 -321.808103 
L 61.523283 -325.297767 
L 61.246286 -325.297767 
L 61.246286 -328.759642 
L 60.969288 -328.759642 
L 60.969288 -332.192658 
L 60.830789 -332.192658 
L 60.830789 -335.595606 
L 60.623041 -335.595606 
L 60.623041 -338.967114 
L 60.415293 -338.967114 
L 60.415293 -342.30562 
L 60.276794 -342.30562 
L 60.276794 -345.609339 
L 60.138295 -345.609339 
L 60.138295 -348.876217 
L 59.584299 -348.876217 
L 59.584299 -352.103883 
L 59.030304 -352.103883 
L 59.030304 -355.289575 
L 58.822556 -355.289575 
L 58.822556 -358.430048 
L 58.060812 -358.430048 
L 58.060812 -361.521457 
L 57.783814 -361.521457 
L 57.783814 -364.55919 
L 57.02207 -364.55919 
L 57.02207 -370.449869 
L 56.952821 -370.449869 
L 56.952821 -373.287154 
L 56.606574 -373.287154 
L 56.606574 -376.038223 
L 56.052578 -376.038223 
L 56.052578 -381.216063 
L 55.567832 -381.216063 
L 55.567832 -383.592064 
L 55.360084 -383.592064 
L 55.360084 -387.666407 
L 55.290835 -387.666407 
L 55.290835 -389.116939 
L 55.152336 -389.116939 
L 55.152336 -389.682295 
L 54.529091 -389.682295 
z
" id="m34a6054240" style="stroke:#ff0000;stroke-opacity:0.25;"/>
    </defs>
    <g clip-path="url(#p4fafc73d0e)">
     <use style="fill:#ff0000;fill-opacity:0.25;stroke:#ff0000;stroke-opacity:0.25;" x="0" xlink:href="#m34a6054240" y="432"/>
    </g>
   </g>
   <g id="PolyCollection_2">
    <defs>
     <path d="M 54.529091 -389.682295 
L 54.529091 -389.682295 
L 56.398826 -389.682295 
L 56.398826 -343.771603 
L 65.955247 -343.771603 
L 65.955247 -337.929385 
L 75.580918 -337.929385 
L 75.580918 -329.712959 
L 88.045816 -329.712959 
L 88.045816 -321.273088 
L 95.524754 -321.273088 
L 95.524754 -312.917465 
L 101.687954 -312.917465 
L 101.687954 -304.70888 
L 106.812411 -304.70888 
L 106.812411 -296.655671 
L 122.462783 -296.655671 
L 122.462783 -288.751859 
L 151.201297 -288.751859 
L 151.201297 -280.988049 
L 168.305906 -280.988049 
L 168.305906 -273.354743 
L 182.709788 -273.354743 
L 182.709788 -273.354743 
L 184.579523 -273.354743 
L 184.579523 -273.354743 
L 187.834246 -273.354743 
L 187.834246 -273.354743 
L 191.850713 -273.354743 
L 191.850713 -273.354743 
L 193.651198 -273.354743 
L 193.651198 -273.354743 
L 208.678325 -273.354743 
L 208.678325 -273.354743 
L 218.026998 -273.354743 
L 218.026998 -263.501442 
L 218.373245 -263.501442 
L 218.373245 -263.501442 
L 224.259447 -263.501442 
L 224.259447 -263.501442 
L 226.26768 -263.501442 
L 226.26768 -263.501442 
L 235.685603 -263.501442 
L 235.685603 -263.501442 
L 245.519022 -263.501442 
L 245.519022 -263.501442 
L 253.759704 -263.501442 
L 253.759704 -263.501442 
L 263.177627 -263.501442 
L 263.177627 -263.501442 
L 280.697733 -263.501442 
L 280.697733 -263.501442 
L 284.160205 -263.501442 
L 284.160205 -263.501442 
L 316.638188 -263.501442 
L 316.638188 -263.501442 
L 322.039643 -263.501442 
L 322.039643 -263.501442 
L 330.765072 -263.501442 
L 330.765072 -263.501442 
L 338.31326 -263.501442 
L 338.31326 -263.501442 
L 344.060963 -263.501442 
L 344.060963 -263.501442 
L 357.910849 -263.501442 
L 357.910849 -263.501442 
L 383.256141 -263.501442 
L 383.256141 -263.501442 
L 388.726846 -263.501442 
L 388.726846 -263.501442 
L 389.904086 -263.501442 
L 389.904086 -263.501442 
L 393.505056 -263.501442 
L 393.505056 -263.501442 
L 398.491015 -263.501442 
L 398.491015 -263.501442 
L 408.393684 -263.501442 
L 408.393684 -263.501442 
L 425.221296 -263.501442 
L 425.221296 -263.501442 
L 441.356413 -263.501442 
L 441.356413 -263.501442 
L 445.926876 -263.501442 
L 445.926876 -263.501442 
L 455.483297 -263.501442 
L 455.483297 -263.501442 
L 458.184025 -263.501442 
L 458.184025 -263.501442 
L 459.499764 -263.501442 
L 459.499764 -263.501442 
L 459.499764 -344.224069 
L 459.499764 -344.224069 
L 459.499764 -344.224069 
L 458.184025 -344.224069 
L 458.184025 -344.224069 
L 455.483297 -344.224069 
L 455.483297 -344.224069 
L 445.926876 -344.224069 
L 445.926876 -344.224069 
L 441.356413 -344.224069 
L 441.356413 -344.224069 
L 425.221296 -344.224069 
L 425.221296 -344.224069 
L 408.393684 -344.224069 
L 408.393684 -344.224069 
L 398.491015 -344.224069 
L 398.491015 -344.224069 
L 393.505056 -344.224069 
L 393.505056 -344.224069 
L 389.904086 -344.224069 
L 389.904086 -344.224069 
L 388.726846 -344.224069 
L 388.726846 -344.224069 
L 383.256141 -344.224069 
L 383.256141 -344.224069 
L 357.910849 -344.224069 
L 357.910849 -344.224069 
L 344.060963 -344.224069 
L 344.060963 -344.224069 
L 338.31326 -344.224069 
L 338.31326 -344.224069 
L 330.765072 -344.224069 
L 330.765072 -344.224069 
L 322.039643 -344.224069 
L 322.039643 -344.224069 
L 316.638188 -344.224069 
L 316.638188 -344.224069 
L 284.160205 -344.224069 
L 284.160205 -344.224069 
L 280.697733 -344.224069 
L 280.697733 -344.224069 
L 263.177627 -344.224069 
L 263.177627 -344.224069 
L 253.759704 -344.224069 
L 253.759704 -344.224069 
L 245.519022 -344.224069 
L 245.519022 -344.224069 
L 235.685603 -344.224069 
L 235.685603 -344.224069 
L 226.26768 -344.224069 
L 226.26768 -344.224069 
L 224.259447 -344.224069 
L 224.259447 -344.224069 
L 218.373245 -344.224069 
L 218.373245 -344.224069 
L 218.026998 -344.224069 
L 218.026998 -350.366265 
L 208.678325 -350.366265 
L 208.678325 -350.366265 
L 193.651198 -350.366265 
L 193.651198 -350.366265 
L 191.850713 -350.366265 
L 191.850713 -350.366265 
L 187.834246 -350.366265 
L 187.834246 -350.366265 
L 184.579523 -350.366265 
L 184.579523 -350.366265 
L 182.709788 -350.366265 
L 182.709788 -350.366265 
L 168.305906 -350.366265 
L 168.305906 -355.598578 
L 151.201297 -355.598578 
L 151.201297 -360.680595 
L 122.462783 -360.680595 
L 122.462783 -365.592937 
L 106.812411 -365.592937 
L 106.812411 -370.309697 
L 101.687954 -370.309697 
L 101.687954 -374.79496 
L 95.524754 -374.79496 
L 95.524754 -378.996461 
L 88.045816 -378.996461 
L 88.045816 -382.832724 
L 75.580918 -382.832724 
L 75.580918 -386.162937 
L 65.955247 -386.162937 
L 65.955247 -388.698349 
L 56.398826 -388.698349 
L 56.398826 -389.682295 
L 54.529091 -389.682295 
z
" id="m84d0026fb1" style="stroke:#0000ff;stroke-opacity:0.25;"/>
    </defs>
    <g clip-path="url(#p4fafc73d0e)">
     <use style="fill:#0000ff;fill-opacity:0.25;stroke:#0000ff;stroke-opacity:0.25;" x="0" xlink:href="#m84d0026fb1" y="432"/>
    </g>
   </g>
   <g id="PolyCollection_3">
    <defs>
     <path d="M 54.529091 -389.682295 
L 54.529091 -389.682295 
L 55.083086 -389.682295 
L 55.083086 -377.408628 
L 55.360084 -377.408628 
L 55.360084 -373.610537 
L 55.429334 -373.610537 
L 55.429334 -371.286751 
L 55.498583 -371.286751 
L 55.498583 -368.969346 
L 55.775581 -368.969346 
L 55.775581 -366.677357 
L 55.91408 -366.677357 
L 55.91408 -364.414211 
L 55.983329 -364.414211 
L 55.983329 -362.179037 
L 56.052578 -362.179037 
L 56.052578 -357.784236 
L 56.191077 -357.784236 
L 56.191077 -355.620259 
L 56.329576 -355.620259 
L 56.329576 -353.475961 
L 56.398826 -353.475961 
L 56.398826 -351.349672 
L 56.537324 -351.349672 
L 56.537324 -349.239928 
L 56.883572 -349.239928 
L 56.883572 -347.145448 
L 57.02207 -347.145448 
L 57.02207 -345.065112 
L 57.09132 -345.065112 
L 57.09132 -342.99793 
L 58.33781 -342.99793 
L 58.33781 -340.943032 
L 59.307302 -340.943032 
L 59.307302 -338.899642 
L 59.51505 -338.899642 
L 59.51505 -336.867072 
L 59.722798 -336.867072 
L 59.722798 -332.831987 
L 59.861297 -332.831987 
L 59.861297 -330.828416 
L 60.138295 -330.828416 
L 60.138295 -328.817096 
L 60.553791 -328.817096 
L 60.553791 -326.814392 
L 61.592533 -326.814392 
L 61.592533 -324.8199 
L 61.731032 -324.8199 
L 61.731032 -322.833251 
L 62.008029 -322.833251 
L 62.008029 -320.854108 
L 62.146528 -320.854108 
L 62.146528 -318.882164 
L 62.215778 -318.882164 
L 62.215778 -316.917135 
L 63.046771 -316.917135 
L 63.046771 -314.958761 
L 63.323769 -314.958761 
L 63.323769 -313.006801 
L 63.877764 -313.006801 
L 63.877764 -311.061033 
L 63.947014 -311.061033 
L 63.947014 -309.121251 
L 64.016263 -309.121251 
L 64.016263 -307.187262 
L 64.570258 -307.187262 
L 64.570258 -305.258889 
L 64.778007 -305.258889 
L 64.778007 -303.335966 
L 65.055004 -303.335966 
L 65.055004 -301.418338 
L 65.193503 -301.418338 
L 65.193503 -299.505859 
L 65.470501 -299.505859 
L 65.470501 -297.598394 
L 66.093746 -297.598394 
L 66.093746 -295.695816 
L 68.309728 -295.695816 
L 68.309728 -293.798005 
L 68.863723 -293.798005 
L 68.863723 -291.904848 
L 68.932973 -291.904848 
L 68.932973 -286.252284 
L 69.071471 -286.252284 
L 69.071471 -284.376752 
L 69.27922 -284.376752 
L 69.27922 -282.505405 
L 69.763966 -282.505405 
L 69.763966 -280.638164 
L 70.733458 -280.638164 
L 70.733458 -278.774956 
L 70.871957 -278.774956 
L 70.871957 -276.915709 
L 70.941206 -276.915709 
L 70.941206 -275.060357 
L 71.010456 -275.060357 
L 71.010456 -271.361092 
L 71.218204 -271.361092 
L 71.218204 -269.517063 
L 71.356703 -269.517063 
L 71.356703 -267.676697 
L 71.772199 -267.676697 
L 71.772199 -265.839945 
L 71.979948 -265.839945 
L 71.979948 -264.006759 
L 72.049197 -264.006759 
L 72.049197 -262.177093 
L 72.810941 -262.177093 
L 72.810941 -260.350905 
L 73.572684 -260.350905 
L 73.572684 -258.528154 
L 74.195929 -258.528154 
L 74.195929 -256.708803 
L 74.334428 -256.708803 
L 74.334428 -254.892816 
L 74.680675 -254.892816 
L 74.680675 -253.080157 
L 75.30392 -253.080157 
L 75.30392 -249.464702 
L 75.442419 -249.464702 
L 75.442419 -245.862203 
L 75.996415 -245.862203 
L 75.996415 -244.065746 
L 76.55041 -244.065746 
L 76.55041 -238.69527 
L 76.758158 -238.69527 
L 76.758158 -236.91134 
L 76.827408 -236.91134 
L 76.827408 -235.130496 
L 77.242904 -235.130496 
L 77.242904 -231.577995 
L 77.935399 -231.577995 
L 77.935399 -229.806311 
L 78.143147 -229.806311 
L 78.143147 -228.037655 
L 79.251138 -228.037655 
L 79.251138 -226.272015 
L 79.320387 -226.272015 
L 79.320387 -224.509381 
L 79.528136 -224.509381 
L 79.528136 -222.749745 
L 79.735884 -222.749745 
L 79.735884 -220.993099 
L 80.082131 -220.993099 
L 80.082131 -219.239438 
L 81.813367 -219.239438 
L 81.813367 -217.488755 
L 82.021115 -217.488755 
L 82.021115 -215.741048 
L 82.228863 -215.741048 
L 82.228863 -213.996313 
L 82.436612 -213.996313 
L 82.436612 -212.254549 
L 84.029349 -212.254549 
L 84.029349 -210.515754 
L 84.514095 -210.515754 
L 84.514095 -208.779931 
L 85.137339 -208.779931 
L 85.137339 -207.04708 
L 85.206589 -207.04708 
L 85.206589 -205.317204 
L 85.414337 -205.317204 
L 85.414337 -203.590308 
L 85.552836 -203.590308 
L 85.552836 -201.866396 
L 86.31458 -201.866396 
L 86.31458 -200.145475 
L 88.045816 -200.145475 
L 88.045816 -198.427552 
L 88.322813 -198.427552 
L 88.322813 -196.712637 
L 88.392063 -196.712637 
L 88.392063 -195.000738 
L 88.599811 -195.000738 
L 88.599811 -191.586036 
L 88.66906 -191.586036 
L 88.66906 -189.883259 
L 89.084557 -189.883259 
L 89.084557 -188.183551 
L 89.777051 -188.183551 
L 89.777051 -186.486927 
L 90.469546 -186.486927 
L 90.469546 -184.793406 
L 91.508287 -184.793406 
L 91.508287 -183.103006 
L 96.217248 -183.103006 
L 96.217248 -181.415748 
L 98.779477 -181.415748 
L 98.779477 -179.731653 
L 99.194974 -179.731653 
L 99.194974 -178.050745 
L 100.233715 -178.050745 
L 100.233715 -176.373048 
L 101.618704 -176.373048 
L 101.618704 -174.69859 
L 101.826452 -174.69859 
L 101.826452 -173.027397 
L 103.488439 -173.027397 
L 103.488439 -171.359501 
L 108.128151 -171.359501 
L 108.128151 -169.694933 
L 110.274883 -169.694933 
L 110.274883 -168.033726 
L 111.86762 -168.033726 
L 111.86762 -166.375915 
L 112.629364 -166.375915 
L 112.629364 -164.72154 
L 113.183359 -164.72154 
L 113.183359 -163.070638 
L 114.152851 -163.070638 
L 114.152851 -161.423253 
L 121.008545 -161.423253 
L 121.008545 -159.779428 
L 129.803223 -159.779428 
L 129.803223 -158.13921 
L 130.772715 -158.13921 
L 130.772715 -156.502649 
L 131.118962 -156.502649 
L 131.118962 -154.869797 
L 137.351411 -154.869797 
L 137.351411 -153.240709 
L 138.5979 -153.240709 
L 138.5979 -151.615442 
L 150.231805 -151.615442 
L 150.231805 -149.994059 
L 156.118006 -149.994059 
L 156.118006 -148.376623 
L 162.9737 -148.376623 
L 162.9737 -146.763204 
L 165.743677 -146.763204 
L 165.743677 -145.153873 
L 187.3495 -145.153873 
L 187.3495 -145.153873 
L 187.557248 -145.153873 
L 187.557248 -143.509661 
L 189.703981 -143.509661 
L 189.703981 -143.509661 
L 198.221661 -143.509661 
L 198.221661 -141.828343 
L 198.983404 -141.828343 
L 198.983404 -141.828343 
L 206.254595 -141.828343 
L 206.254595 -141.828343 
L 207.362585 -141.828343 
L 207.362585 -140.060295 
L 208.262828 -140.060295 
L 208.262828 -140.060295 
L 209.024572 -140.060295 
L 209.024572 -138.247856 
L 209.509318 -138.247856 
L 209.509318 -136.442642 
L 215.257021 -136.442642 
L 215.257021 -134.644787 
L 218.165497 -134.644787 
L 218.165497 -132.854438 
L 227.444921 -132.854438 
L 227.444921 -132.854438 
L 232.153882 -132.854438 
L 232.153882 -132.854438 
L 237.001342 -132.854438 
L 237.001342 -132.854438 
L 237.901585 -132.854438 
L 237.901585 -132.854438 
L 241.156308 -132.854438 
L 241.156308 -132.854438 
L 248.704496 -132.854438 
L 248.704496 -132.854438 
L 249.46624 -132.854438 
L 249.46624 -130.651072 
L 252.859462 -130.651072 
L 252.859462 -130.651072 
L 258.122419 -130.651072 
L 258.122419 -128.372109 
L 261.377142 -128.372109 
L 261.377142 -128.372109 
L 265.878355 -128.372109 
L 265.878355 -126.009584 
L 266.43235 -126.009584 
L 266.43235 -126.009584 
L 269.133078 -126.009584 
L 269.133078 -126.009584 
L 270.10257 -126.009584 
L 270.10257 -126.009584 
L 280.420735 -126.009584 
L 280.420735 -126.009584 
L 289.838658 -126.009584 
L 289.838658 -126.009584 
L 295.586361 -126.009584 
L 295.586361 -126.009584 
L 302.234306 -126.009584 
L 302.234306 -126.009584 
L 322.385891 -126.009584 
L 322.385891 -126.009584 
L 330.626573 -126.009584 
L 330.626573 -126.009584 
L 333.535049 -126.009584 
L 333.535049 -126.009584 
L 333.673548 -126.009584 
L 333.673548 -126.009584 
L 333.812047 -126.009584 
L 333.812047 -126.009584 
L 333.881296 -126.009584 
L 333.881296 -126.009584 
L 356.52586 -126.009584 
L 356.52586 -126.009584 
L 359.503586 -126.009584 
L 359.503586 -126.009584 
L 370.652744 -126.009584 
L 370.652744 -126.009584 
L 374.738461 -126.009584 
L 374.738461 -126.009584 
L 377.716186 -126.009584 
L 377.716186 -116.865304 
L 380.693912 -116.865304 
L 380.693912 -116.865304 
L 391.566072 -116.865304 
L 391.566072 -116.865304 
L 392.604814 -116.865304 
L 392.604814 -116.865304 
L 405.069711 -116.865304 
L 405.069711 -116.865304 
L 432.907983 -116.865304 
L 432.907983 -116.865304 
L 463.931728 -116.865304 
L 463.931728 -116.865304 
L 464.347225 -116.865304 
L 464.347225 -116.865304 
L 472.310909 -116.865304 
L 472.310909 -116.865304 
L 472.310909 -160.267177 
L 472.310909 -160.267177 
L 472.310909 -160.267177 
L 464.347225 -160.267177 
L 464.347225 -160.267177 
L 463.931728 -160.267177 
L 463.931728 -160.267177 
L 432.907983 -160.267177 
L 432.907983 -160.267177 
L 405.069711 -160.267177 
L 405.069711 -160.267177 
L 392.604814 -160.267177 
L 392.604814 -160.267177 
L 391.566072 -160.267177 
L 391.566072 -160.267177 
L 380.693912 -160.267177 
L 380.693912 -160.267177 
L 377.716186 -160.267177 
L 377.716186 -164.528178 
L 374.738461 -164.528178 
L 374.738461 -164.528178 
L 370.652744 -164.528178 
L 370.652744 -164.528178 
L 359.503586 -164.528178 
L 359.503586 -164.528178 
L 356.52586 -164.528178 
L 356.52586 -164.528178 
L 333.881296 -164.528178 
L 333.881296 -164.528178 
L 333.812047 -164.528178 
L 333.812047 -164.528178 
L 333.673548 -164.528178 
L 333.673548 -164.528178 
L 333.535049 -164.528178 
L 333.535049 -164.528178 
L 330.626573 -164.528178 
L 330.626573 -164.528178 
L 322.385891 -164.528178 
L 322.385891 -164.528178 
L 302.234306 -164.528178 
L 302.234306 -164.528178 
L 295.586361 -164.528178 
L 295.586361 -164.528178 
L 289.838658 -164.528178 
L 289.838658 -164.528178 
L 280.420735 -164.528178 
L 280.420735 -164.528178 
L 270.10257 -164.528178 
L 270.10257 -164.528178 
L 269.133078 -164.528178 
L 269.133078 -164.528178 
L 266.43235 -164.528178 
L 266.43235 -164.528178 
L 265.878355 -164.528178 
L 265.878355 -167.092852 
L 261.377142 -167.092852 
L 261.377142 -167.092852 
L 258.122419 -167.092852 
L 258.122419 -169.572687 
L 252.859462 -169.572687 
L 252.859462 -169.572687 
L 249.46624 -169.572687 
L 249.46624 -171.975683 
L 248.704496 -171.975683 
L 248.704496 -171.975683 
L 241.156308 -171.975683 
L 241.156308 -171.975683 
L 237.901585 -171.975683 
L 237.901585 -171.975683 
L 237.001342 -171.975683 
L 237.001342 -171.975683 
L 232.153882 -171.975683 
L 232.153882 -171.975683 
L 227.444921 -171.975683 
L 227.444921 -171.975683 
L 218.165497 -171.975683 
L 218.165497 -174.058474 
L 215.257021 -174.058474 
L 215.257021 -176.13461 
L 209.509318 -176.13461 
L 209.509318 -178.204229 
L 209.024572 -178.204229 
L 209.024572 -180.267461 
L 208.262828 -180.267461 
L 208.262828 -180.267461 
L 207.362585 -180.267461 
L 207.362585 -182.284658 
L 206.254595 -182.284658 
L 206.254595 -182.284658 
L 198.983404 -182.284658 
L 198.983404 -182.284658 
L 198.221661 -182.284658 
L 198.221661 -184.222678 
L 189.703981 -184.222678 
L 189.703981 -184.222678 
L 187.557248 -184.222678 
L 187.557248 -186.121917 
L 187.3495 -186.121917 
L 187.3495 -186.121917 
L 165.743677 -186.121917 
L 165.743677 -187.984635 
L 162.9737 -187.984635 
L 162.9737 -189.843501 
L 156.118006 -189.843501 
L 156.118006 -191.698581 
L 150.231805 -191.698581 
L 150.231805 -193.549934 
L 138.5979 -193.549934 
L 138.5979 -195.397621 
L 137.351411 -195.397621 
L 137.351411 -197.241696 
L 131.118962 -197.241696 
L 131.118962 -199.082211 
L 130.772715 -199.082211 
L 130.772715 -200.919216 
L 129.803223 -200.919216 
L 129.803223 -202.752757 
L 121.008545 -202.752757 
L 121.008545 -204.582878 
L 114.152851 -204.582878 
L 114.152851 -206.409622 
L 113.183359 -206.409622 
L 113.183359 -208.233029 
L 112.629364 -208.233029 
L 112.629364 -210.053135 
L 111.86762 -210.053135 
L 111.86762 -211.869975 
L 110.274883 -211.869975 
L 110.274883 -213.683585 
L 108.128151 -213.683585 
L 108.128151 -215.493994 
L 103.488439 -215.493994 
L 103.488439 -217.301233 
L 101.826452 -217.301233 
L 101.826452 -219.105329 
L 101.618704 -219.105329 
L 101.618704 -220.90631 
L 100.233715 -220.90631 
L 100.233715 -222.704199 
L 99.194974 -222.704199 
L 99.194974 -224.49902 
L 98.779477 -224.49902 
L 98.779477 -226.290795 
L 96.217248 -226.290795 
L 96.217248 -228.079544 
L 91.508287 -228.079544 
L 91.508287 -229.865285 
L 90.469546 -229.865285 
L 90.469546 -231.648036 
L 89.777051 -231.648036 
L 89.777051 -233.427814 
L 89.084557 -233.427814 
L 89.084557 -235.204632 
L 88.66906 -235.204632 
L 88.66906 -236.978506 
L 88.599811 -236.978506 
L 88.599811 -240.517464 
L 88.392063 -240.517464 
L 88.392063 -242.282571 
L 88.322813 -242.282571 
L 88.322813 -244.044774 
L 88.045816 -244.044774 
L 88.045816 -245.804082 
L 86.31458 -245.804082 
L 86.31458 -247.5605 
L 85.552836 -247.5605 
L 85.552836 -249.314035 
L 85.414337 -249.314035 
L 85.414337 -251.064691 
L 85.206589 -251.064691 
L 85.206589 -252.81247 
L 85.137339 -252.81247 
L 85.137339 -254.557375 
L 84.514095 -254.557375 
L 84.514095 -256.299407 
L 84.029349 -256.299407 
L 84.029349 -258.038566 
L 82.436612 -258.038566 
L 82.436612 -259.77485 
L 82.228863 -259.77485 
L 82.228863 -261.508257 
L 82.021115 -261.508257 
L 82.021115 -263.238784 
L 81.813367 -263.238784 
L 81.813367 -264.966427 
L 80.082131 -264.966427 
L 80.082131 -266.691179 
L 79.735884 -266.691179 
L 79.735884 -268.413034 
L 79.528136 -268.413034 
L 79.528136 -270.131985 
L 79.320387 -270.131985 
L 79.320387 -271.848022 
L 79.251138 -271.848022 
L 79.251138 -273.561135 
L 78.143147 -273.561135 
L 78.143147 -275.271312 
L 77.935399 -275.271312 
L 77.935399 -276.978543 
L 77.242904 -276.978543 
L 77.242904 -280.384103 
L 76.827408 -280.384103 
L 76.827408 -282.082403 
L 76.758158 -282.082403 
L 76.758158 -283.777692 
L 76.55041 -283.777692 
L 76.55041 -288.845301 
L 75.996415 -288.845301 
L 75.996415 -290.528346 
L 75.442419 -290.528346 
L 75.442419 -293.88505 
L 75.30392 -293.88505 
L 75.30392 -297.229057 
L 74.680675 -297.229057 
L 74.680675 -298.896223 
L 74.334428 -298.896223 
L 74.334428 -300.560121 
L 74.195929 -300.560121 
L 74.195929 -302.220716 
L 73.572684 -302.220716 
L 73.572684 -303.877969 
L 72.810941 -303.877969 
L 72.810941 -305.531842 
L 72.049197 -305.531842 
L 72.049197 -307.182293 
L 71.979948 -307.182293 
L 71.979948 -308.829278 
L 71.772199 -308.829278 
L 71.772199 -310.472749 
L 71.356703 -310.472749 
L 71.356703 -312.11266 
L 71.218204 -312.11266 
L 71.218204 -313.748956 
L 71.010456 -313.748956 
L 71.010456 -317.010488 
L 70.941206 -317.010488 
L 70.941206 -318.635604 
L 70.871957 -318.635604 
L 70.871957 -320.256869 
L 70.733458 -320.256869 
L 70.733458 -321.874215 
L 69.763966 -321.874215 
L 69.763966 -323.487571 
L 69.27922 -323.487571 
L 69.27922 -325.096859 
L 69.071471 -325.096859 
L 69.071471 -326.701999 
L 68.932973 -326.701999 
L 68.932973 -331.491659 
L 68.863723 -331.491659 
L 68.863723 -333.079305 
L 68.309728 -333.079305 
L 68.309728 -334.662323 
L 66.093746 -334.662323 
L 66.093746 -336.240598 
L 65.470501 -336.240598 
L 65.470501 -337.814008 
L 65.193503 -337.814008 
L 65.193503 -339.382423 
L 65.055004 -339.382423 
L 65.055004 -340.945703 
L 64.778007 -340.945703 
L 64.778007 -342.503701 
L 64.570258 -342.503701 
L 64.570258 -344.056257 
L 64.016263 -344.056257 
L 64.016263 -345.603201 
L 63.947014 -345.603201 
L 63.947014 -347.14435 
L 63.877764 -347.14435 
L 63.877764 -348.679508 
L 63.323769 -348.679508 
L 63.323769 -350.208462 
L 63.046771 -350.208462 
L 63.046771 -351.730984 
L 62.215778 -351.730984 
L 62.215778 -353.246826 
L 62.146528 -353.246826 
L 62.146528 -354.75572 
L 62.008029 -354.75572 
L 62.008029 -356.257372 
L 61.731032 -356.257372 
L 61.731032 -357.751465 
L 61.592533 -357.751465 
L 61.592533 -359.237651 
L 60.553791 -359.237651 
L 60.553791 -360.715545 
L 60.138295 -360.715545 
L 60.138295 -362.184727 
L 59.861297 -362.184727 
L 59.861297 -363.637061 
L 59.722798 -363.637061 
L 59.722798 -366.512636 
L 59.51505 -366.512636 
L 59.51505 -367.934686 
L 59.307302 -367.934686 
L 59.307302 -369.345328 
L 58.33781 -369.345328 
L 58.33781 -370.743759 
L 57.09132 -370.743759 
L 57.09132 -372.129064 
L 57.02207 -372.129064 
L 57.02207 -373.500193 
L 56.883572 -373.500193 
L 56.883572 -374.85593 
L 56.537324 -374.85593 
L 56.537324 -376.19485 
L 56.398826 -376.19485 
L 56.398826 -377.515271 
L 56.329576 -377.515271 
L 56.329576 -378.815181 
L 56.191077 -378.815181 
L 56.191077 -380.092134 
L 56.052578 -380.092134 
L 56.052578 -382.564318 
L 55.983329 -382.564318 
L 55.983329 -383.750839 
L 55.91408 -383.750839 
L 55.91408 -384.896145 
L 55.775581 -384.896145 
L 55.775581 -385.991202 
L 55.498583 -385.991202 
L 55.498583 -387.022862 
L 55.429334 -387.022862 
L 55.429334 -387.970584 
L 55.360084 -387.970584 
L 55.360084 -389.433925 
L 55.083086 -389.433925 
L 55.083086 -389.682295 
L 54.529091 -389.682295 
z
" id="m6b9ea9c347" style="stroke:#808080;stroke-opacity:0.25;"/>
    </defs>
    <g clip-path="url(#p4fafc73d0e)">
     <use style="fill:#808080;fill-opacity:0.25;stroke:#808080;stroke-opacity:0.25;" x="0" xlink:href="#m6b9ea9c347" y="432"/>
    </g>
   </g>
   <g id="matplotlib.axis_1">
    <g id="xtick_1">
     <g id="line2d_1">
      <path clip-path="url(#p4fafc73d0e)" d="M 54.529091 366.5095 
L 54.529091 26.88 
" style="fill:none;stroke:#b0b0b0;stroke-dasharray:2.96,1.28;stroke-dashoffset:0;stroke-opacity:0.5;stroke-width:0.8;"/>
     </g>
     <g id="line2d_2">
      <defs>
       <path d="M 0 0 
L 0 3.5 
" id="m331680afd0" style="stroke:#000000;stroke-width:0.8;"/>
      </defs>
      <g>
       <use style="stroke:#000000;stroke-width:0.8;" x="54.529091" xlink:href="#m331680afd0" y="366.5095"/>
      </g>
     </g>
     <g id="text_1">
      <text style="font-family:DejaVu Sans;font-size:10px;font-stretch:normal;font-style:normal;font-weight:normal;text-anchor:middle;" transform="rotate(-0, 54.529091, 381.107937)" x="54.529091" y="381.107937">0</text>
     </g>
    </g>
    <g id="xtick_2">
     <g id="line2d_3">
      <path clip-path="url(#p4fafc73d0e)" d="M 123.778522 366.5095 
L 123.778522 26.88 
" style="fill:none;stroke:#b0b0b0;stroke-dasharray:2.96,1.28;stroke-dashoffset:0;stroke-opacity:0.5;stroke-width:0.8;"/>
     </g>
     <g id="line2d_4">
      <g>
       <use style="stroke:#000000;stroke-width:0.8;" x="123.778522" xlink:href="#m331680afd0" y="366.5095"/>
      </g>
     </g>
     <g id="text_2">
      <text style="font-family:DejaVu Sans;font-size:10px;font-stretch:normal;font-style:normal;font-weight:normal;text-anchor:middle;" transform="rotate(-0, 123.778522, 381.107937)" x="123.778522" y="381.107937">1000</text>
     </g>
    </g>
    <g id="xtick_3">
     <g id="line2d_5">
      <path clip-path="url(#p4fafc73d0e)" d="M 193.027953 366.5095 
L 193.027953 26.88 
" style="fill:none;stroke:#b0b0b0;stroke-dasharray:2.96,1.28;stroke-dashoffset:0;stroke-opacity:0.5;stroke-width:0.8;"/>
     </g>
     <g id="line2d_6">
      <g>
       <use style="stroke:#000000;stroke-width:0.8;" x="193.027953" xlink:href="#m331680afd0" y="366.5095"/>
      </g>
     </g>
     <g id="text_3">
      <text style="font-family:DejaVu Sans;font-size:10px;font-stretch:normal;font-style:normal;font-weight:normal;text-anchor:middle;" transform="rotate(-0, 193.027953, 381.107937)" x="193.027953" y="381.107937">2000</text>
     </g>
    </g>
    <g id="xtick_4">
     <g id="line2d_7">
      <path clip-path="url(#p4fafc73d0e)" d="M 262.277384 366.5095 
L 262.277384 26.88 
" style="fill:none;stroke:#b0b0b0;stroke-dasharray:2.96,1.28;stroke-dashoffset:0;stroke-opacity:0.5;stroke-width:0.8;"/>
     </g>
     <g id="line2d_8">
      <g>
       <use style="stroke:#000000;stroke-width:0.8;" x="262.277384" xlink:href="#m331680afd0" y="366.5095"/>
      </g>
     </g>
     <g id="text_4">
      <text style="font-family:DejaVu Sans;font-size:10px;font-stretch:normal;font-style:normal;font-weight:normal;text-anchor:middle;" transform="rotate(-0, 262.277384, 381.107937)" x="262.277384" y="381.107937">3000</text>
     </g>
    </g>
    <g id="xtick_5">
     <g id="line2d_9">
      <path clip-path="url(#p4fafc73d0e)" d="M 331.526816 366.5095 
L 331.526816 26.88 
" style="fill:none;stroke:#b0b0b0;stroke-dasharray:2.96,1.28;stroke-dashoffset:0;stroke-opacity:0.5;stroke-width:0.8;"/>
     </g>
     <g id="line2d_10">
      <g>
       <use style="stroke:#000000;stroke-width:0.8;" x="331.526816" xlink:href="#m331680afd0" y="366.5095"/>
      </g>
     </g>
     <g id="text_5">
      <text style="font-family:DejaVu Sans;font-size:10px;font-stretch:normal;font-style:normal;font-weight:normal;text-anchor:middle;" transform="rotate(-0, 331.526816, 381.107937)" x="331.526816" y="381.107937">4000</text>
     </g>
    </g>
    <g id="xtick_6">
     <g id="line2d_11">
      <path clip-path="url(#p4fafc73d0e)" d="M 400.776247 366.5095 
L 400.776247 26.88 
" style="fill:none;stroke:#b0b0b0;stroke-dasharray:2.96,1.28;stroke-dashoffset:0;stroke-opacity:0.5;stroke-width:0.8;"/>
     </g>
     <g id="line2d_12">
      <g>
       <use style="stroke:#000000;stroke-width:0.8;" x="400.776247" xlink:href="#m331680afd0" y="366.5095"/>
      </g>
     </g>
     <g id="text_6">
      <text style="font-family:DejaVu Sans;font-size:10px;font-stretch:normal;font-style:normal;font-weight:normal;text-anchor:middle;" transform="rotate(-0, 400.776247, 381.107937)" x="400.776247" y="381.107937">5000</text>
     </g>
    </g>
    <g id="xtick_7">
     <g id="line2d_13">
      <path clip-path="url(#p4fafc73d0e)" d="M 470.025678 366.5095 
L 470.025678 26.88 
" style="fill:none;stroke:#b0b0b0;stroke-dasharray:2.96,1.28;stroke-dashoffset:0;stroke-opacity:0.5;stroke-width:0.8;"/>
     </g>
     <g id="line2d_14">
      <g>
       <use style="stroke:#000000;stroke-width:0.8;" x="470.025678" xlink:href="#m331680afd0" y="366.5095"/>
      </g>
     </g>
     <g id="text_7">
      <text style="font-family:DejaVu Sans;font-size:10px;font-stretch:normal;font-style:normal;font-weight:normal;text-anchor:middle;" transform="rotate(-0, 470.025678, 381.107937)" x="470.025678" y="381.107937">6000</text>
     </g>
    </g>
    <g id="text_8">
     <text style="font-family:DejaVu Sans;font-size:10px;font-stretch:normal;font-style:normal;font-weight:normal;" transform="translate(241.511406 394.786063)">timeline </text>
     <text style="font-family:DejaVu Sans;font-size:10px;font-stretch:normal;font-style:normal;font-weight:normal;" transform="translate(167.239531 405.983875)">    dataset: clin_factors, input_dim: 17 </text>
     <text style="font-family:DejaVu Sans;font-size:10px;font-stretch:normal;font-style:normal;font-weight:normal;" transform="translate(184.83875 417.459812)">    c_index: [0.688 0.658 0.718]</text>
    </g>
   </g>
   <g id="matplotlib.axis_2">
    <g id="ytick_1">
     <g id="line2d_15">
      <path clip-path="url(#p4fafc73d0e)" d="M 33.64 353.646962 
L 493.2 353.646962 
" style="fill:none;stroke:#b0b0b0;stroke-dasharray:2.96,1.28;stroke-dashoffset:0;stroke-opacity:0.5;stroke-width:0.8;"/>
     </g>
     <g id="line2d_16">
      <defs>
       <path d="M 0 0 
L -3.5 0 
" id="mf9f7f90a27" style="stroke:#000000;stroke-width:0.8;"/>
      </defs>
      <g>
       <use style="stroke:#000000;stroke-width:0.8;" x="33.64" xlink:href="#mf9f7f90a27" y="353.646962"/>
      </g>
     </g>
     <g id="text_9">
      <text style="font-family:DejaVu Sans;font-size:10px;font-stretch:normal;font-style:normal;font-weight:normal;text-anchor:end;" transform="rotate(-0, 26.64, 357.446181)" x="26.64" y="357.446181">0.0</text>
     </g>
    </g>
    <g id="ytick_2">
     <g id="line2d_17">
      <path clip-path="url(#p4fafc73d0e)" d="M 33.64 291.381111 
L 493.2 291.381111 
" style="fill:none;stroke:#b0b0b0;stroke-dasharray:2.96,1.28;stroke-dashoffset:0;stroke-opacity:0.5;stroke-width:0.8;"/>
     </g>
     <g id="line2d_18">
      <g>
       <use style="stroke:#000000;stroke-width:0.8;" x="33.64" xlink:href="#mf9f7f90a27" y="291.381111"/>
      </g>
     </g>
     <g id="text_10">
      <text style="font-family:DejaVu Sans;font-size:10px;font-stretch:normal;font-style:normal;font-weight:normal;text-anchor:end;" transform="rotate(-0, 26.64, 295.180329)" x="26.64" y="295.180329">0.2</text>
     </g>
    </g>
    <g id="ytick_3">
     <g id="line2d_19">
      <path clip-path="url(#p4fafc73d0e)" d="M 33.64 229.115259 
L 493.2 229.115259 
" style="fill:none;stroke:#b0b0b0;stroke-dasharray:2.96,1.28;stroke-dashoffset:0;stroke-opacity:0.5;stroke-width:0.8;"/>
     </g>
     <g id="line2d_20">
      <g>
       <use style="stroke:#000000;stroke-width:0.8;" x="33.64" xlink:href="#mf9f7f90a27" y="229.115259"/>
      </g>
     </g>
     <g id="text_11">
      <text style="font-family:DejaVu Sans;font-size:10px;font-stretch:normal;font-style:normal;font-weight:normal;text-anchor:end;" transform="rotate(-0, 26.64, 232.914478)" x="26.64" y="232.914478">0.4</text>
     </g>
    </g>
    <g id="ytick_4">
     <g id="line2d_21">
      <path clip-path="url(#p4fafc73d0e)" d="M 33.64 166.849408 
L 493.2 166.849408 
" style="fill:none;stroke:#b0b0b0;stroke-dasharray:2.96,1.28;stroke-dashoffset:0;stroke-opacity:0.5;stroke-width:0.8;"/>
     </g>
     <g id="line2d_22">
      <g>
       <use style="stroke:#000000;stroke-width:0.8;" x="33.64" xlink:href="#mf9f7f90a27" y="166.849408"/>
      </g>
     </g>
     <g id="text_12">
      <text style="font-family:DejaVu Sans;font-size:10px;font-stretch:normal;font-style:normal;font-weight:normal;text-anchor:end;" transform="rotate(-0, 26.64, 170.648626)" x="26.64" y="170.648626">0.6</text>
     </g>
    </g>
    <g id="ytick_5">
     <g id="line2d_23">
      <path clip-path="url(#p4fafc73d0e)" d="M 33.64 104.583556 
L 493.2 104.583556 
" style="fill:none;stroke:#b0b0b0;stroke-dasharray:2.96,1.28;stroke-dashoffset:0;stroke-opacity:0.5;stroke-width:0.8;"/>
     </g>
     <g id="line2d_24">
      <g>
       <use style="stroke:#000000;stroke-width:0.8;" x="33.64" xlink:href="#mf9f7f90a27" y="104.583556"/>
      </g>
     </g>
     <g id="text_13">
      <text style="font-family:DejaVu Sans;font-size:10px;font-stretch:normal;font-style:normal;font-weight:normal;text-anchor:end;" transform="rotate(-0, 26.64, 108.382775)" x="26.64" y="108.382775">0.8</text>
     </g>
    </g>
    <g id="ytick_6">
     <g id="line2d_25">
      <path clip-path="url(#p4fafc73d0e)" d="M 33.64 42.317705 
L 493.2 42.317705 
" style="fill:none;stroke:#b0b0b0;stroke-dasharray:2.96,1.28;stroke-dashoffset:0;stroke-opacity:0.5;stroke-width:0.8;"/>
     </g>
     <g id="line2d_26">
      <g>
       <use style="stroke:#000000;stroke-width:0.8;" x="33.64" xlink:href="#mf9f7f90a27" y="42.317705"/>
      </g>
     </g>
     <g id="text_14">
      <text style="font-family:DejaVu Sans;font-size:10px;font-stretch:normal;font-style:normal;font-weight:normal;text-anchor:end;" transform="rotate(-0, 26.64, 46.116923)" x="26.64" y="46.116923">1.0</text>
     </g>
    </g>
   </g>
   <g id="line2d_27">
    <defs>
     <path d="M -3 3 
L 3 -3 
M -3 -3 
L 3 3 
" id="mb43568d536" style="stroke:#ff0000;"/>
    </defs>
    <g clip-path="url(#p4fafc73d0e)">
     <use style="fill:#ff0000;stroke:#ff0000;" x="95.386255" xlink:href="#mb43568d536" y="301.758752"/>
     <use style="fill:#ff0000;stroke:#ff0000;" x="269.133078" xlink:href="#mb43568d536" y="336.350892"/>
     <use style="fill:#ff0000;stroke:#ff0000;" x="351.609151" xlink:href="#mb43568d536" y="342.116249"/>
     <use style="fill:#ff0000;stroke:#ff0000;" x="376.746694" xlink:href="#mb43568d536" y="342.116249"/>
    </g>
   </g>
   <g id="line2d_28">
    <path clip-path="url(#p4fafc73d0e)" d="M 54.529091 42.317705 
L 55.152336 42.317705 
L 55.152336 46.309105 
L 55.290835 46.309105 
L 55.360084 58.283307 
L 55.567832 58.283307 
L 55.567832 62.274708 
L 56.052578 62.274708 
L 56.052578 70.25751 
L 56.606574 70.25751 
L 56.606574 74.24891 
L 56.952821 74.24891 
L 57.02207 86.223113 
L 57.783814 86.223113 
L 57.783814 90.214513 
L 58.060812 90.214513 
L 58.060812 94.205914 
L 58.822556 94.205914 
L 58.822556 98.197315 
L 59.030304 98.197315 
L 59.030304 102.188716 
L 59.584299 102.188716 
L 59.584299 106.180116 
L 60.138295 106.180116 
L 60.138295 110.171517 
L 60.276794 110.171517 
L 60.276794 114.162918 
L 60.415293 114.162918 
L 60.415293 118.154319 
L 60.623041 118.154319 
L 60.623041 122.145719 
L 60.830789 122.145719 
L 60.830789 126.13712 
L 60.969288 126.13712 
L 60.969288 130.128521 
L 61.246286 130.128521 
L 61.246286 134.119921 
L 61.523283 134.119921 
L 61.592533 142.102723 
L 62.215778 142.102723 
L 62.285027 150.085524 
L 62.839023 150.085524 
L 62.839023 154.076925 
L 63.462268 154.076925 
L 63.462268 158.068326 
L 63.739265 158.068326 
L 63.739265 162.059727 
L 63.877764 162.059727 
L 63.877764 166.051127 
L 64.085512 166.051127 
L 64.085512 170.042528 
L 64.43176 170.042528 
L 64.43176 174.033929 
L 64.708757 174.033929 
L 64.778007 182.01673 
L 64.916506 182.01673 
L 64.916506 189.999532 
L 65.055004 189.999532 
L 65.055004 193.990933 
L 65.678249 193.990933 
L 65.678249 197.982333 
L 65.816748 197.982333 
L 65.816748 201.973734 
L 66.162995 201.973734 
L 66.162995 205.965135 
L 66.439993 205.965135 
L 66.439993 209.956535 
L 66.647741 209.956535 
L 66.716991 217.939337 
L 67.409485 217.939337 
L 67.409485 221.930738 
L 67.617233 221.930738 
L 67.617233 225.922138 
L 68.309728 225.922138 
L 68.309728 229.913539 
L 69.27922 229.913539 
L 69.27922 233.90494 
L 69.833215 233.90494 
L 69.833215 237.896341 
L 70.802707 237.896341 
L 70.802707 241.887741 
L 71.218204 241.887741 
L 71.218204 245.879142 
L 71.495202 245.879142 
L 71.495202 249.870543 
L 71.910698 249.870543 
L 71.910698 253.861944 
L 72.187696 253.861944 
L 72.187696 257.853344 
L 72.741691 257.853344 
L 72.741691 261.844745 
L 73.018689 261.844745 
L 73.018689 265.836146 
L 75.026923 265.836146 
L 75.096172 277.810348 
L 75.788666 277.810348 
L 75.788666 281.801749 
L 75.996415 281.801749 
L 75.996415 289.78455 
L 80.22063 289.78455 
L 80.22063 293.775951 
L 82.090365 293.775951 
L 82.090365 297.767352 
L 90.538795 297.767352 
L 90.538795 301.758752 
L 104.52718 301.758752 
L 104.52718 306.08277 
L 110.69038 306.08277 
L 110.69038 310.406787 
L 112.767863 310.406787 
L 112.767863 314.730805 
L 116.645831 314.730805 
L 116.645831 319.054822 
L 118.654064 319.054822 
L 118.654064 323.37884 
L 179.108818 323.37884 
L 179.108818 327.702857 
L 181.463298 327.702857 
L 181.463298 332.026875 
L 204.800357 332.026875 
L 204.800357 336.350892 
L 347.800432 336.350892 
L 347.800432 342.116249 
L 376.746694 342.116249 
L 376.746694 342.116249 
" style="fill:none;stroke:#ff0000;stroke-linecap:square;stroke-width:1.5;"/>
   </g>
   <g id="line2d_29">
    <defs>
     <path d="M -3 3 
L 3 -3 
M -3 -3 
L 3 3 
" id="m7f78695b4c" style="stroke:#0000ff;"/>
    </defs>
    <g clip-path="url(#p4fafc73d0e)">
     <use style="fill:#0000ff;stroke:#0000ff;" x="182.709788" xlink:href="#m7f78695b4c" y="111.501984"/>
     <use style="fill:#0000ff;stroke:#0000ff;" x="184.579523" xlink:href="#m7f78695b4c" y="111.501984"/>
     <use style="fill:#0000ff;stroke:#0000ff;" x="187.834246" xlink:href="#m7f78695b4c" y="111.501984"/>
     <use style="fill:#0000ff;stroke:#0000ff;" x="191.850713" xlink:href="#m7f78695b4c" y="111.501984"/>
     <use style="fill:#0000ff;stroke:#0000ff;" x="193.651198" xlink:href="#m7f78695b4c" y="111.501984"/>
     <use style="fill:#0000ff;stroke:#0000ff;" x="208.678325" xlink:href="#m7f78695b4c" y="111.501984"/>
     <use style="fill:#0000ff;stroke:#0000ff;" x="218.373245" xlink:href="#m7f78695b4c" y="119.851811"/>
     <use style="fill:#0000ff;stroke:#0000ff;" x="224.259447" xlink:href="#m7f78695b4c" y="119.851811"/>
     <use style="fill:#0000ff;stroke:#0000ff;" x="226.26768" xlink:href="#m7f78695b4c" y="119.851811"/>
     <use style="fill:#0000ff;stroke:#0000ff;" x="235.685603" xlink:href="#m7f78695b4c" y="119.851811"/>
     <use style="fill:#0000ff;stroke:#0000ff;" x="245.519022" xlink:href="#m7f78695b4c" y="119.851811"/>
     <use style="fill:#0000ff;stroke:#0000ff;" x="253.759704" xlink:href="#m7f78695b4c" y="119.851811"/>
     <use style="fill:#0000ff;stroke:#0000ff;" x="263.177627" xlink:href="#m7f78695b4c" y="119.851811"/>
     <use style="fill:#0000ff;stroke:#0000ff;" x="280.697733" xlink:href="#m7f78695b4c" y="119.851811"/>
     <use style="fill:#0000ff;stroke:#0000ff;" x="284.160205" xlink:href="#m7f78695b4c" y="119.851811"/>
     <use style="fill:#0000ff;stroke:#0000ff;" x="316.638188" xlink:href="#m7f78695b4c" y="119.851811"/>
     <use style="fill:#0000ff;stroke:#0000ff;" x="322.039643" xlink:href="#m7f78695b4c" y="119.851811"/>
     <use style="fill:#0000ff;stroke:#0000ff;" x="330.765072" xlink:href="#m7f78695b4c" y="119.851811"/>
     <use style="fill:#0000ff;stroke:#0000ff;" x="338.31326" xlink:href="#m7f78695b4c" y="119.851811"/>
     <use style="fill:#0000ff;stroke:#0000ff;" x="344.060963" xlink:href="#m7f78695b4c" y="119.851811"/>
     <use style="fill:#0000ff;stroke:#0000ff;" x="357.910849" xlink:href="#m7f78695b4c" y="119.851811"/>
     <use style="fill:#0000ff;stroke:#0000ff;" x="383.256141" xlink:href="#m7f78695b4c" y="119.851811"/>
     <use style="fill:#0000ff;stroke:#0000ff;" x="388.726846" xlink:href="#m7f78695b4c" y="119.851811"/>
     <use style="fill:#0000ff;stroke:#0000ff;" x="389.904086" xlink:href="#m7f78695b4c" y="119.851811"/>
     <use style="fill:#0000ff;stroke:#0000ff;" x="393.505056" xlink:href="#m7f78695b4c" y="119.851811"/>
     <use style="fill:#0000ff;stroke:#0000ff;" x="398.491015" xlink:href="#m7f78695b4c" y="119.851811"/>
     <use style="fill:#0000ff;stroke:#0000ff;" x="408.393684" xlink:href="#m7f78695b4c" y="119.851811"/>
     <use style="fill:#0000ff;stroke:#0000ff;" x="425.221296" xlink:href="#m7f78695b4c" y="119.851811"/>
     <use style="fill:#0000ff;stroke:#0000ff;" x="441.356413" xlink:href="#m7f78695b4c" y="119.851811"/>
     <use style="fill:#0000ff;stroke:#0000ff;" x="445.926876" xlink:href="#m7f78695b4c" y="119.851811"/>
     <use style="fill:#0000ff;stroke:#0000ff;" x="455.483297" xlink:href="#m7f78695b4c" y="119.851811"/>
     <use style="fill:#0000ff;stroke:#0000ff;" x="458.184025" xlink:href="#m7f78695b4c" y="119.851811"/>
     <use style="fill:#0000ff;stroke:#0000ff;" x="459.499764" xlink:href="#m7f78695b4c" y="119.851811"/>
    </g>
   </g>
   <g id="line2d_30">
    <path clip-path="url(#p4fafc73d0e)" d="M 54.529091 42.317705 
L 56.398826 42.317705 
L 56.398826 49.236132 
L 65.955247 49.236132 
L 65.955247 56.15456 
L 75.580918 56.15456 
L 75.580918 63.072988 
L 88.045816 63.072988 
L 88.045816 69.991416 
L 95.524754 69.991416 
L 95.524754 76.909844 
L 101.687954 76.909844 
L 101.687954 83.828272 
L 106.812411 83.828272 
L 106.812411 90.7467 
L 122.462783 90.7467 
L 122.462783 97.665128 
L 151.201297 97.665128 
L 151.201297 104.583556 
L 168.305906 104.583556 
L 168.305906 111.501984 
L 182.709788 111.501984 
L 182.709788 111.501984 
L 184.579523 111.501984 
L 184.579523 111.501984 
L 187.834246 111.501984 
L 187.834246 111.501984 
L 191.850713 111.501984 
L 191.850713 111.501984 
L 193.651198 111.501984 
L 193.651198 111.501984 
L 208.678325 111.501984 
L 208.678325 111.501984 
L 218.026998 111.501984 
L 218.026998 119.851811 
L 218.373245 119.851811 
L 218.373245 119.851811 
L 224.259447 119.851811 
L 224.259447 119.851811 
L 226.26768 119.851811 
L 226.26768 119.851811 
L 235.685603 119.851811 
L 235.685603 119.851811 
L 245.519022 119.851811 
L 245.519022 119.851811 
L 253.759704 119.851811 
L 253.759704 119.851811 
L 263.177627 119.851811 
L 263.177627 119.851811 
L 280.697733 119.851811 
L 280.697733 119.851811 
L 284.160205 119.851811 
L 284.160205 119.851811 
L 316.638188 119.851811 
L 316.638188 119.851811 
L 322.039643 119.851811 
L 322.039643 119.851811 
L 330.765072 119.851811 
L 330.765072 119.851811 
L 338.31326 119.851811 
L 338.31326 119.851811 
L 344.060963 119.851811 
L 344.060963 119.851811 
L 357.910849 119.851811 
L 357.910849 119.851811 
L 383.256141 119.851811 
L 383.256141 119.851811 
L 388.726846 119.851811 
L 388.726846 119.851811 
L 389.904086 119.851811 
L 389.904086 119.851811 
L 393.505056 119.851811 
L 393.505056 119.851811 
L 398.491015 119.851811 
L 398.491015 119.851811 
L 408.393684 119.851811 
L 408.393684 119.851811 
L 425.221296 119.851811 
L 425.221296 119.851811 
L 441.356413 119.851811 
L 441.356413 119.851811 
L 445.926876 119.851811 
L 445.926876 119.851811 
L 455.483297 119.851811 
L 455.483297 119.851811 
L 458.184025 119.851811 
L 458.184025 119.851811 
L 459.499764 119.851811 
L 459.499764 119.851811 
" style="fill:none;stroke:#0000ff;stroke-linecap:square;stroke-width:1.5;"/>
   </g>
   <g id="line2d_31">
    <defs>
     <path d="M -3 3 
L 3 -3 
M -3 -3 
L 3 3 
" id="mda2f63a95b" style="stroke:#808080;"/>
    </defs>
    <g clip-path="url(#p4fafc73d0e)">
     <use style="fill:#808080;stroke:#808080;" x="59.861297" xlink:href="#mda2f63a95b" y="82.772919"/>
     <use style="fill:#808080;stroke:#808080;" x="187.3495" xlink:href="#mda2f63a95b" y="266.896451"/>
     <use style="fill:#808080;stroke:#808080;" x="189.703981" xlink:href="#mda2f63a95b" y="268.703754"/>
     <use style="fill:#808080;stroke:#808080;" x="198.983404" xlink:href="#mda2f63a95b" y="270.550345"/>
     <use style="fill:#808080;stroke:#808080;" x="206.254595" xlink:href="#mda2f63a95b" y="270.550345"/>
     <use style="fill:#808080;stroke:#808080;" x="208.262828" xlink:href="#mda2f63a95b" y="272.482825"/>
     <use style="fill:#808080;stroke:#808080;" x="227.444921" xlink:href="#mda2f63a95b" y="280.401277"/>
     <use style="fill:#808080;stroke:#808080;" x="232.153882" xlink:href="#mda2f63a95b" y="280.401277"/>
     <use style="fill:#808080;stroke:#808080;" x="237.001342" xlink:href="#mda2f63a95b" y="280.401277"/>
     <use style="fill:#808080;stroke:#808080;" x="237.901585" xlink:href="#mda2f63a95b" y="280.401277"/>
     <use style="fill:#808080;stroke:#808080;" x="241.156308" xlink:href="#mda2f63a95b" y="280.401277"/>
     <use style="fill:#808080;stroke:#808080;" x="248.704496" xlink:href="#mda2f63a95b" y="280.401277"/>
     <use style="fill:#808080;stroke:#808080;" x="252.859462" xlink:href="#mda2f63a95b" y="282.764041"/>
     <use style="fill:#808080;stroke:#808080;" x="261.377142" xlink:href="#mda2f63a95b" y="285.20828"/>
     <use style="fill:#808080;stroke:#808080;" x="266.43235" xlink:href="#mda2f63a95b" y="287.743046"/>
     <use style="fill:#808080;stroke:#808080;" x="269.133078" xlink:href="#mda2f63a95b" y="287.743046"/>
     <use style="fill:#808080;stroke:#808080;" x="270.10257" xlink:href="#mda2f63a95b" y="287.743046"/>
     <use style="fill:#808080;stroke:#808080;" x="280.420735" xlink:href="#mda2f63a95b" y="287.743046"/>
     <use style="fill:#808080;stroke:#808080;" x="289.838658" xlink:href="#mda2f63a95b" y="287.743046"/>
     <use style="fill:#808080;stroke:#808080;" x="295.586361" xlink:href="#mda2f63a95b" y="287.743046"/>
     <use style="fill:#808080;stroke:#808080;" x="302.234306" xlink:href="#mda2f63a95b" y="287.743046"/>
     <use style="fill:#808080;stroke:#808080;" x="322.385891" xlink:href="#mda2f63a95b" y="287.743046"/>
     <use style="fill:#808080;stroke:#808080;" x="330.626573" xlink:href="#mda2f63a95b" y="287.743046"/>
     <use style="fill:#808080;stroke:#808080;" x="333.535049" xlink:href="#mda2f63a95b" y="287.743046"/>
     <use style="fill:#808080;stroke:#808080;" x="333.673548" xlink:href="#mda2f63a95b" y="287.743046"/>
     <use style="fill:#808080;stroke:#808080;" x="333.812047" xlink:href="#mda2f63a95b" y="287.743046"/>
     <use style="fill:#808080;stroke:#808080;" x="333.881296" xlink:href="#mda2f63a95b" y="287.743046"/>
     <use style="fill:#808080;stroke:#808080;" x="356.52586" xlink:href="#mda2f63a95b" y="287.743046"/>
     <use style="fill:#808080;stroke:#808080;" x="359.503586" xlink:href="#mda2f63a95b" y="287.743046"/>
     <use style="fill:#808080;stroke:#808080;" x="370.652744" xlink:href="#mda2f63a95b" y="287.743046"/>
     <use style="fill:#808080;stroke:#808080;" x="374.738461" xlink:href="#mda2f63a95b" y="287.743046"/>
     <use style="fill:#808080;stroke:#808080;" x="380.693912" xlink:href="#mda2f63a95b" y="295.065703"/>
     <use style="fill:#808080;stroke:#808080;" x="391.566072" xlink:href="#mda2f63a95b" y="295.065703"/>
     <use style="fill:#808080;stroke:#808080;" x="392.604814" xlink:href="#mda2f63a95b" y="295.065703"/>
     <use style="fill:#808080;stroke:#808080;" x="405.069711" xlink:href="#mda2f63a95b" y="295.065703"/>
     <use style="fill:#808080;stroke:#808080;" x="432.907983" xlink:href="#mda2f63a95b" y="295.065703"/>
     <use style="fill:#808080;stroke:#808080;" x="463.931728" xlink:href="#mda2f63a95b" y="295.065703"/>
     <use style="fill:#808080;stroke:#808080;" x="464.347225" xlink:href="#mda2f63a95b" y="295.065703"/>
     <use style="fill:#808080;stroke:#808080;" x="472.310909" xlink:href="#mda2f63a95b" y="295.065703"/>
    </g>
   </g>
   <g id="line2d_32">
    <path clip-path="url(#p4fafc73d0e)" d="M 54.529091 42.317705 
L 55.083086 42.317705 
L 55.083086 44.076627 
L 55.360084 44.076627 
L 55.429334 49.353394 
L 55.498583 49.353394 
L 55.498583 51.112316 
L 55.775581 51.112316 
L 55.775581 52.871239 
L 55.91408 52.871239 
L 55.983329 56.389083 
L 56.052578 56.389083 
L 56.052578 59.906928 
L 56.191077 59.906928 
L 56.191077 61.66585 
L 56.329576 61.66585 
L 56.398826 65.183695 
L 56.537324 65.183695 
L 56.537324 66.942618 
L 56.883572 66.942618 
L 56.883572 68.70154 
L 57.02207 68.70154 
L 57.09132 72.219385 
L 58.33781 72.219385 
L 58.33781 73.978307 
L 59.307302 73.978307 
L 59.307302 75.737229 
L 59.51505 75.737229 
L 59.51505 77.496152 
L 59.722798 77.496152 
L 59.722798 81.013996 
L 59.861297 81.013996 
L 59.861297 82.772919 
L 60.138295 82.772919 
L 60.138295 84.543337 
L 60.553791 84.543337 
L 60.553791 86.313756 
L 61.592533 86.313756 
L 61.592533 88.084175 
L 61.731032 88.084175 
L 61.731032 89.854593 
L 62.008029 89.854593 
L 62.008029 91.625012 
L 62.146528 91.625012 
L 62.215778 95.165849 
L 63.046771 95.165849 
L 63.046771 96.936267 
L 63.323769 96.936267 
L 63.323769 98.706686 
L 63.877764 98.706686 
L 63.947014 102.247523 
L 64.016263 102.247523 
L 64.016263 104.017942 
L 64.570258 104.017942 
L 64.570258 105.78836 
L 64.778007 105.78836 
L 64.778007 107.558779 
L 65.055004 107.558779 
L 65.055004 109.329198 
L 65.193503 109.329198 
L 65.193503 111.099616 
L 65.470501 111.099616 
L 65.470501 112.870035 
L 66.093746 112.870035 
L 66.093746 114.640453 
L 68.309728 114.640453 
L 68.309728 116.410872 
L 68.863723 116.410872 
L 68.932973 123.492546 
L 69.071471 123.492546 
L 69.071471 125.262965 
L 69.27922 125.262965 
L 69.27922 127.033383 
L 69.763966 127.033383 
L 69.763966 128.803802 
L 70.733458 128.803802 
L 70.733458 130.574221 
L 70.871957 130.574221 
L 70.941206 134.115058 
L 71.010456 134.115058 
L 71.010456 137.655895 
L 71.218204 137.655895 
L 71.218204 139.426313 
L 71.356703 139.426313 
L 71.356703 141.196732 
L 71.772199 141.196732 
L 71.772199 142.967151 
L 71.979948 142.967151 
L 72.049197 146.507988 
L 72.810941 146.507988 
L 72.810941 148.278406 
L 73.572684 148.278406 
L 73.572684 150.048825 
L 74.195929 150.048825 
L 74.195929 151.819244 
L 74.334428 151.819244 
L 74.334428 153.589662 
L 74.680675 153.589662 
L 74.680675 155.360081 
L 75.30392 155.360081 
L 75.30392 158.900918 
L 75.442419 158.900918 
L 75.442419 162.441755 
L 75.996415 162.441755 
L 75.996415 164.212174 
L 76.55041 164.212174 
L 76.55041 169.523429 
L 76.758158 169.523429 
L 76.827408 173.064267 
L 77.242904 173.064267 
L 77.242904 176.605104 
L 77.935399 176.605104 
L 77.935399 178.375522 
L 78.143147 178.375522 
L 78.143147 180.145941 
L 79.251138 180.145941 
L 79.320387 183.686778 
L 79.528136 183.686778 
L 79.528136 185.457197 
L 79.735884 185.457197 
L 79.735884 187.227615 
L 80.082131 187.227615 
L 80.082131 188.998034 
L 81.813367 188.998034 
L 81.813367 190.768452 
L 82.021115 190.768452 
L 82.021115 192.538871 
L 82.228863 192.538871 
L 82.228863 194.30929 
L 82.436612 194.30929 
L 82.436612 196.079708 
L 84.029349 196.079708 
L 84.029349 197.850127 
L 84.514095 197.850127 
L 84.514095 199.620545 
L 85.137339 199.620545 
L 85.206589 203.161382 
L 85.414337 203.161382 
L 85.414337 204.931801 
L 85.552836 204.931801 
L 85.552836 206.70222 
L 86.31458 206.70222 
L 86.31458 208.472638 
L 88.045816 208.472638 
L 88.045816 210.243057 
L 88.322813 210.243057 
L 88.392063 213.783894 
L 88.599811 213.783894 
L 88.66906 219.09515 
L 89.084557 219.09515 
L 89.084557 220.865568 
L 89.777051 220.865568 
L 89.777051 222.635987 
L 90.469546 222.635987 
L 90.469546 224.406405 
L 91.508287 224.406405 
L 91.508287 226.176824 
L 96.217248 226.176824 
L 96.217248 227.947243 
L 98.779477 227.947243 
L 98.779477 229.717661 
L 99.194974 229.717661 
L 99.194974 231.48808 
L 100.233715 231.48808 
L 100.233715 233.258498 
L 101.618704 233.258498 
L 101.618704 235.028917 
L 101.826452 235.028917 
L 101.826452 236.799336 
L 103.488439 236.799336 
L 103.488439 238.569754 
L 108.128151 238.569754 
L 108.128151 240.340173 
L 110.274883 240.340173 
L 110.274883 242.110591 
L 111.86762 242.110591 
L 111.86762 243.88101 
L 112.629364 243.88101 
L 112.629364 245.651428 
L 113.183359 245.651428 
L 113.183359 247.421847 
L 114.152851 247.421847 
L 114.152851 249.192266 
L 121.008545 249.192266 
L 121.008545 250.962684 
L 129.803223 250.962684 
L 129.803223 252.733103 
L 130.772715 252.733103 
L 130.772715 254.503521 
L 131.118962 254.503521 
L 131.118962 256.27394 
L 137.351411 256.27394 
L 137.351411 258.044359 
L 138.5979 258.044359 
L 138.5979 259.814777 
L 150.231805 259.814777 
L 150.231805 261.585196 
L 156.118006 261.585196 
L 156.118006 263.355614 
L 162.9737 263.355614 
L 162.9737 265.126033 
L 165.743677 265.126033 
L 165.743677 266.896451 
L 187.557248 266.896451 
L 187.557248 268.703754 
L 198.221661 268.703754 
L 198.221661 270.550345 
L 207.362585 270.550345 
L 207.362585 272.482825 
L 209.024572 272.482825 
L 209.024572 274.462438 
L 209.509318 274.462438 
L 209.509318 276.442051 
L 215.257021 276.442051 
L 215.257021 278.421664 
L 218.165497 278.421664 
L 218.165497 280.401277 
L 249.46624 280.401277 
L 249.46624 282.764041 
L 258.122419 282.764041 
L 258.122419 285.20828 
L 265.878355 285.20828 
L 265.878355 287.743046 
L 377.716186 287.743046 
L 377.716186 295.065703 
L 472.310909 295.065703 
L 472.310909 295.065703 
" style="fill:none;stroke:#808080;stroke-linecap:square;stroke-width:1.5;"/>
   </g>
   <g id="patch_3">
    <path d="M 33.64 366.5095 
L 33.64 26.88 
" style="fill:none;stroke:#000000;stroke-linecap:square;stroke-linejoin:miter;stroke-width:0.8;"/>
   </g>
   <g id="patch_4">
    <path d="M 493.2 366.5095 
L 493.2 26.88 
" style="fill:none;stroke:#000000;stroke-linecap:square;stroke-linejoin:miter;stroke-width:0.8;"/>
   </g>
   <g id="patch_5">
    <path d="M 33.64 366.5095 
L 493.2 366.5095 
" style="fill:none;stroke:#000000;stroke-linecap:square;stroke-linejoin:miter;stroke-width:0.8;"/>
   </g>
   <g id="patch_6">
    <path d="M 33.64 26.88 
L 493.2 26.88 
" style="fill:none;stroke:#000000;stroke-linecap:square;stroke-linejoin:miter;stroke-width:0.8;"/>
   </g>
   <g id="text_15">
    <text style="font-family:DejaVu Sans;font-size:12px;font-stretch:normal;font-style:normal;font-weight:normal;text-anchor:middle;" transform="rotate(-0, 263.42, 20.88)" x="263.42" y="20.88">Survival curves - model_type: ridge_cph_lifelines</text>
   </g>
   <g id="legend_1">
    <g id="patch_7">
     <path d="M 349.195312 78.914375 
L 486.2 78.914375 
Q 488.2 78.914375 488.2 76.914375 
L 488.2 33.88 
Q 488.2 31.88 486.2 31.88 
L 349.195312 31.88 
Q 347.195312 31.88 347.195312 33.88 
L 347.195312 76.914375 
Q 347.195312 78.914375 349.195312 78.914375 
z
" style="fill:#ffffff;opacity:0.8;stroke:#cccccc;stroke-linejoin:miter;"/>
    </g>
    <g id="line2d_33">
     <path d="M 351.195312 39.978437 
L 371.195312 39.978437 
" style="fill:none;stroke:#ff0000;stroke-linecap:square;stroke-width:1.5;"/>
    </g>
    <g id="line2d_34"/>
    <g id="text_16">
     <text style="font-family:DejaVu Sans;font-size:10px;font-stretch:normal;font-style:normal;font-weight:normal;text-anchor:start;" transform="rotate(-0, 379.195312, 43.478437)" x="379.195312" y="43.478437">adv. risk (n:78 c:4 )</text>
    </g>
    <g id="line2d_35">
     <path d="M 351.195312 54.656563 
L 371.195312 54.656563 
" style="fill:none;stroke:#0000ff;stroke-linecap:square;stroke-width:1.5;"/>
    </g>
    <g id="line2d_36"/>
    <g id="text_17">
     <text style="font-family:DejaVu Sans;font-size:10px;font-stretch:normal;font-style:normal;font-weight:normal;text-anchor:start;" transform="rotate(-0, 379.195312, 58.156563)" x="379.195312" y="58.156563">fav. risk (n:45 c:34)</text>
    </g>
    <g id="line2d_37">
     <path d="M 351.195312 69.334687 
L 371.195312 69.334687 
" style="fill:none;stroke:#808080;stroke-linecap:square;stroke-width:1.5;"/>
    </g>
    <g id="line2d_38"/>
    <g id="text_18">
     <text style="font-family:DejaVu Sans;font-size:10px;font-stretch:normal;font-style:normal;font-weight:normal;text-anchor:start;" transform="rotate(-0, 379.195312, 72.834687)" x="379.195312" y="72.834687">int. risk (n:177 c:39 )</text>
    </g>
   </g>
  </g>
 </g>
 <defs>
  <clipPath id="p4fafc73d0e">
   <rect height="339.6295" width="459.56" x="33.64" y="26.88"/>
  </clipPath>
 </defs>
</svg>
